<svg xmlns="http://www.w3.org/2000/svg" fill="none" viewBox="0 0 80 80">
  <g class="forelskelse">
    <g class="Blob">
      <path fill="#EE6E6A" fill-rule="evenodd" d="M39.014 14.997c8.98-.205 19.473-9.09 25.784-2.673 6.318 6.425-3.314 16.865-2.956 25.886.392 9.868 11.69 20.706 5.097 28.036-6.514 7.243-18.226-2.017-27.925-2.655-8.473-.558-18.155 4.88-24.49-.794-6.41-5.741-3.822-15.963-3.848-24.587-.026-8.667-2.99-19.255 3.7-24.735 6.627-5.429 16.086 1.717 24.638 1.522Z" class="Vector" clip-rule="evenodd"/>
    </g>
    <g class="Sticker">
      <path fill="#fff" d="M77.787 48.48c-.38 2.033-2.708 2.738-4.459 2.45-.923-.15-2.477-.569-3.276-.114-1.53.75.103 3.37.178 4.41.161 1.698-1.063 3.07-2.089 4.122-3.288 2.572-7.768 2.77-11.732 2.396-2.85-.262-4.428-1.637-4.426-4.411-.538-4.108-9.52-5.17-12.729-4.704-.448.125-.962.555-1.472.724-2.153.717-4.223.663-6.353.846-3.23.694-2.195 4.016-3.427 6.065-2.432 5.294-13.845 2.513-16.538-1.63-.928-1.328-.458-3.139-.392-4.524-.692-.71-2.958-.928-3.87-1.435-7.882-4.808-3.75-13.587-4.062-20.751-.09-.519-.432-1.037-.475-1.658-.74-8.514 12.902-12.245 18.937-13.304 5.442-.914 11.153.992 15.456 4.238 1.362 1.028 3.272 4.063 4.87 4.074.88.483 2.897-2.488 3.445-3.15 5.218-4.476 12.478-6.481 19.031-3.654 7.963 3.375 11.237 11.89 12.615 19.758.397 2.227.4 4.188.482 6.354.047 1.257.55 2.569.285 3.898Z" class="Back"/>
      <g class="Illustration">
        <path fill="#0F0F0F" d="M25.13 40.13c1.15.012 2.307-.155 3.432.171.727.21 1.531.657 1.568 1.514.027.608-.397 1.064-.919 1.295-1.181.525-2.595.394-3.851.38-.492-.006-.492-.777 0-.771.82.009 1.647.048 2.463-.044.398-.045.82-.12 1.174-.314.57-.315.365-.85-.107-1.108-.298-.162-.636-.249-.967-.311-.911-.172-1.866-.031-2.794-.041-.492-.006-.491-.777 0-.772Z"/>
        <path fill="#0F0F0F" fill-rule="evenodd" d="M31.46 33.938c.417-.282.982-.327 1.455-.176 1.145.365 1.655 1.687 1.943 2.751.305 1.126.425 2.293.544 3.45.05.49-.714.492-.764 0-.124-1.209-.234-2.333-.598-3.528-.15-.49-.306-.913-.605-1.338-.283-.388-.666-.673-1.168-.644-.79.046-1.02 1.127-1.124 1.736-.145.84-.137 1.703-.094 2.554.026.516.063 1.026.137 1.537.072.487-.665.692-.736.205a18.421 18.421 0 0 1-.183-2.216c-.026-1.053-.004-2.202.378-3.196.171-.444.415-.864.815-1.135Z" clip-rule="evenodd"/>
        <path fill="#0F0F0F" d="M52.587 39.714c1.035-.222 2.078-.083 3.124-.094.493-.006.492.766 0 .77-1.027.012-2.072-.148-3.076.104-.31.077-.629.182-.888.377-.55.413-.102.94.38 1.103.52.176.944.212 1.48.237.624.028 1.25.005 1.874-.002.492-.006.49.766 0 .771-.755.009-1.515.042-2.268-.024-1.032-.09-2.837-.486-2.461-1.943.205-.795 1.123-1.146 1.834-1.299Zm-4.249-6.538c.48-.04.948.117 1.294.457.343.337.543.805.673 1.262.295 1.038.303 2.167.255 3.24-.028.614-.08 1.231-.17 1.84-.07.486-.805.283-.736-.201.076-.623.13-1.249.151-1.877.017-.511.013-1.024-.026-1.535-.041-.532-.123-1.066-.31-1.565-.162-.434-.443-.837-.93-.855-.587-.022-1.001.4-1.276.874-.277.477-.431.952-.576 1.515-.277 1.076-.373 2.039-.484 3.123-.05.492-.814.49-.764 0 .134-1.307.265-2.638.675-3.892.348-1.064.985-2.283 2.224-2.386Z"/>
        <path fill="#0F0F0F" fill-rule="evenodd" d="M23.146 18.027c4.177-.282 8.759 1.29 12.08 3.739 2.843 2.095 5.343 5.6 5.082 9.3-.051.728-.263 1.349-.719 1.936-.713.92-2.325 1.172-2.87-.075a2.009 2.009 0 0 1-.115-.13c.162 1.08.32 2.162.47 3.244.131.954.258 1.908.375 2.864.648-.042 1.382.006 1.985.264.33.142.685.344.855.679.219.431.157.937-.222 1.248-.293.24-.67.375-1.038.44a6.905 6.905 0 0 1-1.283.086c.056.61.1 1.22.112 1.831l.01.325a2.23 2.23 0 0 1 .701-.23c.57-.084 1.225.047 1.606.518.078.097.14.201.188.31a1.38 1.38 0 0 1 .303-.82c.38-.47 1.035-.602 1.605-.518.354.052.68.195.974.39.062-.721.126-1.443.19-2.165-.45.004-.937.045-1.375-.061-.37-.09-.759-.243-1.038-.511-.35-.336-.386-.89-.112-1.289.226-.328.63-.546 1-.664.563-.178 1.186-.228 1.776-.19.23-2.435.468-4.87.766-7.298.19-1.554.35-3.148.853-4.637 1.42-4.206 5.748-6.784 9.962-7.422 3.31-.502 6.735.135 9.705 1.676 6.362 3.301 8.726 10.842 9.89 17.443.528 2.994.597 6.054 1.13 9.04.046.255-.105.471-.368.487-2.887.177-5.78.267-8.673.268.02.326.046.652.076.977.165 1.798.48 3.575.787 5.352.073.418.193.856.21 1.28a1.31 1.31 0 0 1-.214.747c-.34.528-.922.866-1.468 1.134a19.293 19.293 0 0 1-4.658 1.557c-1.673.333-5.899 1.094-7.031-.784-.16-.265-.173-.593-.202-.894-.139-1.435-.223-2.926-.848-4.25-.225-.479-.477-.865-.86-1.204-.361-.322-.647-.418-1.126-.523-1.184-.259-2.393-.294-3.583-.628-.673-.19-1.334-.458-1.924-.839-.558-.36-1.148-.82-1.57-1.338-.82.39-1.886.836-2.792.49-.484-.184-.916-.541-1.128-1.026-.356-.813.008-1.645.668-2.11-.312-.238-.59-.52-.757-.872a1.848 1.848 0 0 1-.054-.127 1.71 1.71 0 0 1-.167.637c-.168.35-.444.631-.753.869.286.196.523.463.663.784.456 1.04-.277 2.156-1.318 2.416-.861.215-1.806-.162-2.602-.55-.478.583-1.165 1.113-1.813 1.486-1.03.593-2.212.862-3.383 1.032-.665.097-1.294.15-1.956.303-1.099.255-1.74 1.165-2.104 2.18-.39 1.095-.52 2.255-.621 3.406-.03.348-.025.746-.147 1.076-.177.48-.639.742-1.087.916-.602.235-1.267.318-1.907.364-2.728.196-5.422-.47-7.935-1.488-.72-.291-1.507-.618-2.061-1.187-.5-.514-.488-1.041-.369-1.703.337-1.863.712-3.727.956-5.628a4.73 4.73 0 0 1-.87.653c-1.256.726-3.18.953-4.407.05a3.16 3.16 0 0 1-1.179-3.274c-1.449.35-3.11-.318-3.372-1.918-.27-1.658.194-3.59.523-5.199.471-2.304 1.152-4.611 2.18-6.73-1.142-.71-1.877-1.843-1.89-3.206-.013-1.55.805-2.924 1.724-4.104.911-1.172 2.016-2.181 3.225-3.031 2.496-1.755 5.46-2.8 8.483-3.085 1.195-1.4 3.073-1.968 4.857-2.089Zm4.021 13.195c-.482 3.328-1.288 6.834-2.917 9.788-.701 1.27-2.064 2.924-3.635 1.824-.03.084-.062.167-.094.25-.428 1.104-1.044 2.547-2.364 2.776-1.79.312-2.804-1.422-3.063-2.94a9.274 9.274 0 0 1-.233-.03 6.764 6.764 0 0 0-.012 1.04c.268 3.531-.295 7.07-.946 10.529-.106.563-.212 1.127-.312 1.692-.035.199.05.39.18.535.784.88 2.18 1.223 3.246 1.583 2.278.769 4.825 1.284 7.216.802.71-.143 1.32-.32 1.395-1.113.106-1.11.192-2.224.479-3.306.312-1.179.89-2.448 1.995-3.066.479-.268 1.04-.36 1.575-.44 1.432-.213 2.92-.329 4.226-1.014.684-.36 1.545-.938 1.945-1.612.112-.188.336-.232.523-.138.745.375 1.89.97 2.703.468.884-.545.514-1.63-.404-1.863-.323-.082-.367-.538-.09-.705.364-.22.76-.467.99-.84.455-.736-.233-1.29-.97-1.12-.356.082-.658.283-.923.528a.53.53 0 0 1-.398.237c-.343.038-.484-.44-.27-.658a.21.21 0 0 0 .058-.13s.02-.176.023-.254c.019-.384.003-.77-.017-1.154-.061-1.144-.187-2.286-.32-3.424-.16-1.361-.325-2.586-.516-3.93a320.31 320.31 0 0 0-.519-3.52l-.117-.76c-.189.442-.56.951-1.296 1.24-1.718 1.022-4.064.687-5.747-.268a8.041 8.041 0 0 1-1.39-1.007Zm18.408-2.496a24.24 24.24 0 0 0-.144.89c-.09.633-.154 1.13-.233 1.783-.07.567-.134 1.135-.197 1.703-.27 2.443-.503 4.89-.727 7.336a471.067 471.067 0 0 0-.33 3.754c-.028.32-.404.525-.653.273-.295-.3-.635-.557-1.05-.653-.325-.075-.78-.038-1.001.248-.199.256-.129.615.03.872.231.373.626.62.991.84.277.167.233.624-.09.705-.424.107-.832.413-.923.866-.08.397.183.79.52.998.812.5 1.956-.093 2.702-.47.187-.093.412-.048.523.14.185.312.475.544.75.773 1.075.897 2.27 1.357 3.64 1.595 1.042.182 2.193.177 3.174.608.968.426 1.569 1.425 1.93 2.38.373.983.528 2.04.634 3.082.043.42.073.843.12 1.264.011.105-.015-.076 0 .008.03.163.084.286.202.399l.004.004c1.734 1.248 5.04.565 6.899.088 1.427-.366 3.028-.835 4.269-1.653.239-.158.658-.443.645-.777-.015-.41-.15-.955-.233-1.434-.077-.444-.154-.887-.228-1.332-.273-1.628-.506-3.264-.611-4.913a142.763 142.763 0 0 1-8.866-.32l-.003-.001c-.146.371-.765.286-.732-.138l.222-2.875.7-9.058a19.54 19.54 0 0 1-7.69-2.99c-1.627-1.08-3.084-2.419-4.244-3.995ZM12.78 36.469c-1.72 1.13-1.509 3.948.18 4.99.618.38 1.323.57 2.036.68-.184-2.123.07-4.283.636-6.333-.976-.06-2.024.12-2.852.663Zm52.19-1.153.225 6.105c.791.07 1.63.072 2.353-.288 2.383-1.187 2.186-4.754-.355-5.589a5.415 5.415 0 0 0-2.222-.228Zm-27.43 4.355c.045.392.088.785.13 1.178.551.023 1.248.02 1.743-.238.177-.092.286-.237.18-.44-.284-.541-1.574-.523-2.053-.5Zm6.074-.356c-.522-.029-1.08.006-1.567.19-.238.089-.784.395-.45.672.594.371 1.233.342 1.909.313l.108-1.175Z" clip-rule="evenodd"/>
      </g>
    </g>
  </g>
</svg>
