<svg xmlns="http://www.w3.org/2000/svg" fill="none" viewBox="0 0 80 80">
  <g class="fritid">
    <g class="Blob">
      <path fill="#ABAEFF" fill-rule="evenodd" d="M34.736 3.06c9.795-.901 17.142 8.572 23.255 16.28 5.302 6.685 7.1 14.78 8.101 23.254 1.202 10.168 5.573 22.454-1.868 29.488-7.425 7.02-19.682 3.03-29.488.155-6.996-2.052-11.52-7.867-16.116-13.527-3.927-4.835-7.396-9.913-7.96-16.116-.624-6.871 1.15-13.446 4.738-19.338 5.04-8.276 9.69-19.309 19.338-20.196Z" class="Vector" clip-rule="evenodd"/>
    </g>
    <g class="Sticker">
      <path fill="#fff" d="M77.308 39.158c-.303.826-.02 1.614-.002 2.276.225 8.144-1.668 19.629-6.445 26.61-3.774 5.653-10.607 4.51-15.492 1.307-3.685-2.473-6.282-6.424-7.26-10.544-1.96-5.206-5.754-7.7-10.18-9.98-9.833-3.484-26.67 10.713-32.902-.34-9.415-16.788 7.945-31.123 20.946-37.91 10.275-5.243 17.594 2.537 26.056 7.367 5.95 2.508 12.348 2.569 18.078 5.31 8.24 3.76 4.999 9.066 7.2 15.904Z" class="Back"/>
      <g class="Illustration">
        <path fill="#0F0F0F" d="m64.285 42.206.016.011c.377.297.667.759.654 1.252-.019.782-.674 1.383-1.384 1.599-.667.202-1.318-.1-1.698-.653-.438-.639-.277-1.51.247-2.044.552-.564 1.552-.712 2.165-.165Zm3.228-2.49c.582-.206 1.14.105 1.502.552.215.266.335.55.37.895.07.705-.406 1.272-1.035 1.517-.774.302-1.524-.163-1.81-.88-.333-.832.15-1.791.973-2.084Zm-6.599-2.406a1.723 1.723 0 0 1 1.28 1.507.968.968 0 0 1-.113.544c.074.574-.54 1.01-1.034 1.14-1.02.268-2.132-.44-2.129-1.551.002-.6.329-1.251.885-1.518a1.627 1.627 0 0 1 1.111-.123Zm5.048-2.015c.551.213 1.103.77 1.056 1.395-.037.496-.306.866-.702 1.151-.803.58-1.845.162-2.087-.776-.161-.624.071-1.224.578-1.598.313-.23.79-.312 1.155-.172ZM28.5 24.916c.205-.073.44-.066.619.052l.74.492a.753.753 0 0 1 .264 1.004c-.292.556-.7 1.024-1.054 1.539-.221.321-.376.788-.723.992-.334.196-.666.137-.997-.032-.337-.172-.693-.295-.82-.687-.062-.192-.008-.392.074-.566.415-.88 1.063-1.618 1.51-2.479a.645.645 0 0 1 .387-.315Zm2.744-.386a.755.755 0 0 1 1.005-.263c.488.251.957.537 1.433.81.425.245.945.435 1.252.832.245.317.297.782.078 1.13a1.154 1.154 0 0 1-.924.53c-.323.02-.624-.122-.904-.266-.71-.365-1.418-.731-2.127-1.097a.642.642 0 0 1-.315-.388c-.073-.205-.068-.44.051-.617l.45-.67Zm-5.265-3.36c.328-.016.637.13.911.295l1.947 1.177a.748.748 0 0 1 .264 1.005l-.346.621c-.186.353-.67.453-1.005.263-.812-.463-1.87-.998-2.545-1.66-.305-.297-.355-.807-.132-1.166.2-.322.528-.516.906-.535Zm5.387-.995c.306-.178.66-.19.981-.054.357.15.615.507.594.904-.017.311-.181.545-.336.8-.33.543-.62 1.11-.964 1.644-.36.561-1.063.324-1.548.068-.34-.18-.474-.65-.263-1.004.247-.408.46-.835.687-1.254.217-.399.442-.867.849-1.104Z"/>
        <path fill="#0F0F0F" fill-rule="evenodd" d="M33.544 12.011c2.197.117 4.957.882 5.197 3.474a.554.554 0 0 1-.026.21c3.499 1.016 6.85 2.484 10.185 3.931 3.753 1.63 7.666 3.146 11.376 5.017a47.38 47.38 0 0 1 3.846 2.148c.595-.824 1.655-1.139 2.643-.964 1.875.33 4.516 2.653 5.18 4.427.434 1.156-.074 2.39-.635 3.415a12.516 12.516 0 0 1 1.522 3.954c.181.936.171 1.846.167 2.79a212.65 212.65 0 0 1-.054 3.993c-.027 1.118-.03 2.256-.198 3.364-.188 1.2-.296 2.41-.412 3.618-.277 2.906-.531 5.855-1.33 8.674-.74 2.61-2.032 5.201-4.397 6.69-1.148.723-2.627 1.247-3.995 1.249-2.686.003-4.656-2.502-5.958-4.551-2.297-3.616-3.29-7.717-4.94-11.623-.334-.792-.858-2.064-1.75-2.382a107.817 107.817 0 0 1-11.837-5.057c-2.049-1.026-4.102-2.318-6.402-2.683a6.723 6.723 0 0 0-3 .187c-2.988.915-5.69 2.722-8.709 3.666-2.269.71-4.75 1.275-7.143 1.016-1.204-.13-2.415-.453-3.369-1.232-1.344-1.097-2.205-3.04-2.434-4.718-.208-1.524.062-3.019.543-4.465.599-1.803 1.37-3.487 2.431-5.068 2.308-3.434 5.392-6.275 8.308-9.18 1.294-1.288 2.622-2.54 4.086-3.637a19.406 19.406 0 0 1 5.099-2.753c.412-.148.828-.28 1.246-.395.127-.968.692-1.786 1.497-2.351.936-.657 2.145-.823 3.263-.764Zm-.619 4.085c-3.527-.162-7.016 1.377-9.828 3.508-1.382 1.047-2.627 2.268-3.851 3.491-1.383 1.381-2.784 2.746-4.134 4.16-1.412 1.477-2.77 3.019-3.898 4.727-.976 1.478-1.684 3.035-2.232 4.714-.446 1.367-.703 2.71-.39 4.146.24 1.097.766 2.095 1.473 2.963.01-.01.016-.019.026-.028 1.385-1.236 2.816-2.423 4.32-3.513 2.417-1.752 5.054-3.218 7.905-4.134 2.68-.86 5.5-1.18 8.306-1.074-.186-.87-.181-1.808.143-2.626.35-.883 1.04-1.51 1.781-2.073a4.085 4.085 0 0 1 2.814-.848c1.667.12 2.972 1.237 3.65 2.723.334.735.543 1.506.591 2.315a3.52 3.52 0 0 1-.305 1.672c2.935.435 5.787 1.307 8.391 2.727.722-1.337 2.25-2.123 3.773-2.139 1.371-.014 2.829.366 3.746 1.447.501.59.82 1.303.971 2.059.228 1.132.358 2.353-.006 3.473a3.733 3.733 0 0 1-.733 1.302c.555.53 1.053 1.082 1.495 1.71.506.72 1.047 1.418 1.516 2.163 1.197 1.899 2.045 4.008 2.682 6.171a24.335 24.335 0 0 1 1.32 6.062c.268 1.727.617 3.556.633 5.305a6.948 6.948 0 0 0 2.657-.937c.994-.599 1.806-1.477 2.42-2.48 1.374-2.245 1.925-5.08 2.276-7.696.349-2.6.48-5.351.89-7.992.099-.981.124-1.965.148-2.948.032-1.303.047-2.606.054-3.91.004-.8.05-1.621-.094-2.413a11.626 11.626 0 0 0-2.366-5.163c-1.229-1.542-2.713-2.862-4.325-3.99a35.52 35.52 0 0 0-1.705-1.114c-1.032 1.334-2.186 2.561-3.492 3.635-1.34 1.102-2.87 2.264-4.529 2.83-1.123.383-2.32.212-3.46.006-1.097-.198-2.178-.484-3.246-.798a63.321 63.321 0 0 1-4.872-1.66c-.867-.334-1.748-.712-2.518-1.238-1.28-.873-2.057-2.147-2.352-3.66-.31-1.584-.248-3.236-.189-4.84.06-1.65.19-3.297.325-4.942-1.892-.579-3.827-1.003-5.78-1.093Zm15.848 24.097c-.312 1.48-.199 3.061 1.06 4.08l.013.01c1.313.89 3.297 1.2 4.475-.11.613-.681.665-1.888.562-2.747-.116-.97-.381-2.057-1.252-2.624-1.55-1.009-4.372-.646-4.858 1.39Zm-16.776-6.717c-.181 1.181.287 2.89 1.393 3.538 1.476 1.078 3.25.394 4.316-.95 1.06-1.334.093-3.824-1.189-4.67-1.644-1.086-4.223.139-4.52 2.082Zm8.14-15.82c-.132 1.634-.254 3.27-.302 4.91-.046 1.577-.142 3.27.35 4.794.421 1.31 1.411 2.067 2.613 2.642 2.07.99 4.324 1.675 6.528 2.29.996.279 2.005.529 3.029.688 1.078.168 2.043.11 3.025-.414 2.473-1.319 4.68-3.25 6.399-5.461-2.74-1.562-5.65-2.84-8.542-4.067-4.341-1.843-8.64-3.838-13.1-5.382Zm26.665 9.694c-.494-.168-1.12-.16-1.454.248 1.895 1.312 3.636 2.836 5.028 4.675.235-.53.382-1.11.153-1.628-.542-1.226-2.471-2.869-3.727-3.295ZM33.544 13.48c-1.08-.057-2.69.212-3.175 1.303a12.392 12.392 0 0 1 2.508-.156c1.469.062 2.929.318 4.358.668-.148-.602-.698-1.054-1.234-1.31-.745-.353-1.642-.462-2.457-.505Z" clip-rule="evenodd"/>
      </g>
    </g>
  </g>
</svg>
