<svg xmlns="http://www.w3.org/2000/svg" fill="none" viewBox="0 0 80 80">
  <g class="kropp">
    <g class="Blob">
      <path fill="#89C6AA" fill-rule="evenodd" d="M38.088 11.126c10.025-1.607 22.05-6.478 29.294.627 7.247 7.11 1.407 19.112 1.17 29.255-.226 9.712 5.097 21.859-2.503 27.924-7.631 6.092-18.2-3.172-27.96-3.608-8.86-.396-18.787 6.927-25.566 1.215-6.827-5.752-4.125-16.65-3.294-25.531.727-7.766 2.244-15.552 7.665-21.166 5.514-5.71 13.352-7.46 21.194-8.716Z" class="Vector" clip-rule="evenodd"/>
    </g>
    <g class="Sticker">
      <path fill="#fff" d="M73.231 38.877c-1.932-5.405-1.169-10.406-6.367-14.281-2.154-1.594-4.523-2.63-6.906-3.905-.027.06-.031.067 0 0v-.074c2.21-4.138.463-9.884-4.033-11.718-3.425-1.396-7.641-.016-9.962 2.768-2.31 3.103-.683 7.981-4.082 10.367-2.812 1.477-5 4.36-5.788 7.439-.612 2.243-.535 3.631-2.67 5.141-1.344.712-2.227 1.77-2.91 3.129-.849 1.672-2.735 1.603-4.026 2.98-2.02 2.158-3.618 5.51-3.498 8.483.181 3.974-3.88 6.682-5.83 9.767-1.189 1.88-4.41 8.245-7.307 7.843-1.97.555-10.588 1.46-6.963 5.748 1.866 2.166 7.126 1.66 9.75 1.723 6.975.164 14.058.222 21.018-.568 1.391-.157 4.439-.028 5.224-1.571.673-3.414-1.932-8.846 3.057-10.9-.264.58 1.384 2.431 1.601 2.864.99 2.802 3.409 6.068 6.073 7.482 2.935 1.558 6.193 1.455 9.222.35 1.436-1.371 4.702.906 6.302 1.13 3.275.457 8.112-.188 10.225-3.052 6.215-8.371.947-22.55-2.13-31.145Z" class="Back"/>
      <g class="Illustration">
        <path fill="#0F0F0F" d="M35 61.883c.118.033.225.184.174.31-.254.62-.531 1.231-.836 1.829-.062.12-.23.156-.341.09-.12-.07-.152-.224-.09-.344.285-.559.55-1.129.786-1.71.052-.126.164-.215.307-.175Zm-2.519-.63c.067-.123.225-.152.342-.09.121.065.151.23.089.345l-.697 1.289c-.067.123-.225.153-.341.09-.121-.064-.151-.228-.089-.344l.696-1.29Zm-1.956-.873c.066-.124.226-.153.341-.091.122.065.151.228.09.345-.263.5-.487.998-.68 1.518-.05.132-.166.209-.308.176-.122-.028-.22-.187-.173-.31.208-.561.451-1.11.73-1.638Zm5.992-.277a.252.252 0 0 1 .341-.09c.117.063.159.233.09.345l-.71 1.164a.254.254 0 0 1-.343.09c-.116-.062-.157-.231-.089-.343l.711-1.166Zm-1.684-1.163c.066-.123.224-.151.34-.09.122.066.153.23.09.345-.29.54-.608 1.064-.954 1.57-.079.115-.214.158-.34.09-.113-.06-.164-.235-.09-.344.346-.506.664-1.03.954-1.57Zm-1.374-.804a.254.254 0 0 1 .342-.091c.116.062.157.233.088.345l-.886 1.44c0 .132-.08.202-.189.252-.105.048-.215.041-.303-.04a.257.257 0 0 1-.039-.305l.987-1.601Zm-1.876-.494c.06-.127.23-.15.34-.091.126.067.147.226.09.344l-.594 1.252c-.06.127-.23.15-.342.09-.125-.067-.145-.226-.089-.344l.595-1.251Zm5.275-.54a.253.253 0 0 1 .341-.091c.116.061.16.233.09.344-.298.47-.567.959-.805 1.462-.06.127-.23.15-.34.09-.126-.067-.146-.225-.09-.343.237-.504.506-.993.804-1.462Zm-1.635-.861c.067-.123.226-.153.342-.09.122.064.151.228.09.344l-.63 1.174c-.067.123-.225.152-.342.09-.12-.065-.15-.23-.089-.345l.63-1.173Zm3.616-1.165c.086-.11.262-.083.352 0a.259.259 0 0 1 .072.179c0 .072-.03.123-.072.178l-.052.066-.02.026-.005.006a13.096 13.096 0 0 0-.296.407c-.128.184-.25.372-.368.563a.254.254 0 0 1-.342.09c-.116-.062-.158-.232-.089-.344.25-.406.526-.796.82-1.17Zm-5.227.107c.062-.126.228-.151.34-.091.125.066.148.227.09.345l-.52 1.058c-.063.126-.229.15-.341.09-.125-.066-.148-.226-.09-.344l.521-1.058Zm3.72-1.053a.254.254 0 0 1 .34-.09c.115.06.162.235.09.345a7.143 7.143 0 0 0-.705 1.363c-.05.132-.164.209-.306.176-.123-.028-.22-.187-.174-.31a7.43 7.43 0 0 1 .755-1.483Zm-2.822-1.494c.111.06.168.239.09.344-.225.302-.435.613-.63.934a.253.253 0 0 1-.341.09c-.117-.062-.159-.231-.09-.344.195-.321.406-.633.63-.934.085-.113.212-.16.342-.09Zm-12.809 9.982c.121.034.221.183.174.31-.267.711-.568 1.41-.902 2.091-.06.123-.231.156-.341.091-.122-.072-.149-.223-.09-.344.316-.643.6-1.301.852-1.972.048-.128.167-.215.307-.176Zm1.495.599c.06-.127.23-.149.34-.09.127.067.145.226.09.345-.229.493-.425.961-.616 1.47-.05.132-.165.208-.307.175-.123-.028-.22-.186-.174-.31a23.82 23.82 0 0 1 .667-1.59Zm-3.53-.567a.252.252 0 0 1 .34-.09c.114.067.161.229.09.344a8.036 8.036 0 0 0-.802 1.73c-.043.13-.172.213-.307.176-.125-.035-.216-.18-.174-.31a8.62 8.62 0 0 1 .853-1.85Zm5.364-1.673c.054-.129.232-.148.34-.09.129.069.14.224.089.344l-.61 1.43c-.056.13-.234.147-.341.09-.13-.069-.142-.223-.09-.344l.611-1.43Zm-1.928-.378c.067-.124.225-.153.341-.091.122.065.152.229.09.344a8.571 8.571 0 0 0-.594 1.392.254.254 0 0 1-.306.176.254.254 0 0 1-.174-.31c.17-.521.385-1.028.643-1.511Zm-1.822-.491c.055-.128.233-.147.34-.09.129.07.141.225.09.345l-.562 1.31c-.055.129-.233.147-.34.09-.129-.07-.141-.225-.09-.345l.561-1.31Zm6.1-1.26c.066-.124.227-.153.343-.091.122.065.15.228.088.345-.253.48-.527.95-.821 1.407a.254.254 0 0 1-.342.09.256.256 0 0 1-.089-.345c.294-.457.568-.926.822-1.406Zm-1.883-.488a.253.253 0 0 1 .34-.09c.116.061.16.233.09.344a9.78 9.78 0 0 0-.61 1.11c-.06.126-.23.149-.34.09-.127-.068-.145-.226-.09-.345a9.77 9.77 0 0 1 .61-1.11Zm-1.795-.378c.058-.127.231-.148.34-.09.128.068.145.225.09.344l-.511 1.127c-.058.128-.231.149-.34.09-.128-.068-.145-.225-.09-.345l.51-1.126Zm-1.13-.777c.078-.111.216-.163.34-.09.11.065.169.234.09.345a9.424 9.424 0 0 0-.928 1.653c-.055.125-.235.154-.34.091-.126-.074-.144-.22-.09-.345a9.417 9.417 0 0 1 .928-1.654Zm4.948-1.148a.252.252 0 0 1 .34-.09c.118.063.158.232.09.345l-.754 1.253a.253.253 0 0 1-.34.091c-.118-.063-.157-.232-.09-.344l.753-1.255Zm-1.884-.68c.066-.124.224-.153.34-.09.122.064.152.228.09.344l-.758 1.406c-.066.124-.224.153-.34.09-.122-.064-.152-.228-.09-.344l.758-1.406Zm-1.466-.647c.064-.125.225-.153.34-.091.123.065.15.228.09.344l-.747 1.434c-.065.124-.226.152-.34.09-.123-.065-.15-.227-.09-.344l.747-1.433Zm6.044-.447a.253.253 0 0 1 .34-.09c.12.063.157.23.09.344l-.738 1.264a.252.252 0 0 1-.34.09c-.12-.064-.156-.232-.09-.345l.738-1.263Zm-1.778-.521c.08-.116.214-.159.341-.091.113.06.164.236.09.345a3.88 3.88 0 0 0-.495.986.255.255 0 0 1-.307.176.254.254 0 0 1-.174-.31c.13-.392.311-.767.545-1.106Zm-1.504-.766a.252.252 0 0 1 .341-.09c.118.062.157.231.09.344-.215.359-.4.738-.545 1.13-.049.133-.165.21-.306.177-.124-.03-.22-.186-.174-.31.16-.434.357-.854.594-1.25Zm-1.474-.691a.253.253 0 0 1 .34-.091c.12.063.156.23.09.345a9.18 9.18 0 0 0-.584 1.204c-.051.131-.162.209-.306.175-.121-.028-.222-.187-.174-.31.18-.455.39-.898.634-1.323Zm5.573-.473a.253.253 0 0 1 .34-.09c.118.063.159.232.09.345-.232.384-.439.783-.62 1.195-.056.129-.233.149-.341.091-.128-.069-.142-.225-.09-.345.181-.412.388-.812.621-1.196Zm-1.591-.703c.066-.123.224-.152.34-.09.121.065.152.23.09.345l-.758 1.406c-.066.123-.224.153-.34.09-.122-.064-.152-.228-.09-.344l.757-1.407Zm-1.147-.627a.253.253 0 0 1 .342-.09c.117.063.156.231.088.344l-.752 1.255a.252.252 0 0 1-.341.09c-.118-.063-.158-.232-.09-.345l.753-1.254Zm-1.646-.389a.252.252 0 0 1 .341-.09c.118.063.157.231.09.344a7.052 7.052 0 0 0-.308.572 6.395 6.395 0 0 0-.236.56c-.049.132-.165.208-.307.176-.123-.029-.219-.186-.174-.31a7.51 7.51 0 0 1 .594-1.252Zm4.143-1.818c.067-.123.224-.152.34-.09.122.065.152.23.09.345l-.757 1.406c-.067.124-.225.152-.341.09-.121-.065-.152-.228-.09-.344l.758-1.407Zm1.103-2.673a.252.252 0 0 1 .341-.09c.119.064.156.23.09.344l-.738 1.264a.252.252 0 0 1-.341.09c-.119-.063-.156-.23-.09-.344l.738-1.264Zm1.267-2.658a.253.253 0 0 1 .34-.091c.118.063.159.232.09.345-.232.384-.44.784-.62 1.196-.057.128-.233.148-.341.09-.128-.069-.142-.225-.09-.345.181-.412.388-.81.621-1.195Zm4.713-1.641c.085-.112.209-.16.34-.09.109.058.17.24.09.344-.29.38-.535.797-.715 1.241-.053.131-.162.21-.307.177-.12-.028-.223-.188-.174-.31.196-.488.448-.945.766-1.362Zm-1.716-.343a.253.253 0 0 1 .34-.09c.115.06.163.234.09.344a9.89 9.89 0 0 0-.668 1.189c-.06.127-.23.149-.341.09-.126-.067-.146-.227-.09-.345.196-.411.42-.809.669-1.188Zm-1.837-.848c.066-.124.225-.152.34-.091.123.065.152.229.09.345l-.667 1.265c-.066.124-.225.153-.341.091-.122-.065-.15-.228-.089-.345l.667-1.265Zm-1.463-.67a.253.253 0 0 1 .341-.09c.117.063.158.232.09.345a18.34 18.34 0 0 0-.852 1.583c-.06.126-.229.15-.34.09-.126-.066-.147-.226-.09-.344.258-.542.542-1.07.851-1.584Zm6.277-.594a.254.254 0 0 1 .34-.09c.115.06.162.234.09.344a9.89 9.89 0 0 0-.669 1.188c-.06.127-.23.15-.34.091-.126-.067-.147-.226-.09-.344.195-.412.419-.809.669-1.189Zm-1.836-.678c.084-.112.21-.16.34-.09.11.058.169.239.09.344a5.64 5.64 0 0 0-.662 1.154c-.055.129-.233.148-.34.09-.131-.07-.142-.222-.09-.344.174-.41.397-.797.662-1.154Zm-1.719-.214c.06-.127.229-.15.34-.091.126.067.146.226.09.345a8.677 8.677 0 0 1-.762 1.289c-.082.114-.212.158-.341.09-.111-.06-.166-.237-.09-.344a8.68 8.68 0 0 0 .763-1.29Zm-1.239-.786a.253.253 0 0 1 .34-.09.254.254 0 0 1 .09.344l-.868 1.36a.254.254 0 0 1-.342.09.256.256 0 0 1-.089-.344l.869-1.36Zm10.358 6.984a.254.254 0 0 1 .34-.091c.115.061.162.235.09.345-.22.338-.417.691-.587 1.057-.06.128-.231.15-.342.091-.126-.067-.144-.226-.089-.345.17-.366.367-.72.588-1.057Zm-1.463-1.072c.063-.125.227-.15.341-.09.123.066.15.227.09.344l-.723 1.427c-.063.125-.227.15-.34.09-.124-.066-.15-.228-.09-.345l.722-1.425Zm-1.726-1.128c.063-.125.227-.151.341-.09.123.066.149.228.09.344l-.82 1.608c-.056.112-.202.149-.31.102-.123-.052-.165-.171-.145-.296.016-.102.025-.2.125-.256l.719-1.412Zm3.651-.372a.254.254 0 0 1 .342-.09c.12.064.154.23.09.344l-.83 1.482c-.068.122-.222.154-.34.09-.12-.063-.153-.23-.09-.344l.829-1.482Zm-5.06-.278a.254.254 0 0 1 .342-.09c.118.063.156.231.089.344a17.12 17.12 0 0 0-.835 1.597c-.058.127-.232.148-.342.09-.126-.068-.143-.226-.089-.345.25-.547.53-1.08.835-1.596Zm3.408-1.322c.122.028.22.187.173.31a15.44 15.44 0 0 1-.616 1.426c-.062.126-.228.15-.34.09-.125-.066-.149-.227-.09-.345.222-.449.396-.85.566-1.304.05-.133.165-.21.307-.177Zm3.693-.086c.08-.115.213-.159.34-.09.113.06.165.236.09.344-.304.437-.57.9-.798 1.382-.06.127-.23.15-.341.09-.126-.067-.146-.226-.09-.344a9.69 9.69 0 0 1 .799-1.382Zm-5.446-.758a.253.253 0 0 1 .34-.09c.12.063.156.23.09.344a10.242 10.242 0 0 0-.496.977 8.02 8.02 0 0 0-.132.315c-.052.131-.162.21-.306.177-.121-.028-.223-.188-.174-.31.192-.487.416-.96.678-1.413Zm3.735-.148c.067-.123.225-.151.342-.09.12.066.151.23.089.346l-.67 1.243c-.067.123-.225.152-.341.09-.121-.065-.151-.23-.089-.345l.669-1.243Zm-1.753-1.664c.09-.107.26-.087.353 0 .104.097.084.256 0 .356a3.188 3.188 0 0 0-.634 1.236.253.253 0 0 1-.307.175c-.132-.03-.207-.182-.174-.31a3.729 3.729 0 0 1 .762-1.457Zm4.297-17.305c.124 0 .264.116.249.252-.041.377.066.74.29 1.045.41.556 1.154.758 1.81.642.72-.129 1.324-.566 1.805-1.106.215-.242.567.116.353.356a4.17 4.17 0 0 1-1.124.913c-.764.41-1.69.507-2.485.125-.72-.346-1.236-1.158-1.147-1.975.015-.136.102-.252.249-.252Zm3.599-4.157c.156-.284.586-.03.43.254a3.457 3.457 0 0 0-.377 1.088c-.058.347-.073.739.007 1.084.031.133.073.272.203.327.189.08.32-.085.45-.216.113-.113.211-.24.3-.373.328-.488.575-1.033.795-1.577.051-.127.164-.216.307-.176.119.033.224.184.174.31-.267.66-.56 1.334-.993 1.903-.262.342-.697.78-1.172.614-.411-.144-.548-.583-.591-.984a3.862 3.862 0 0 1 .467-2.254Zm-2.58-.602c.16-.28.592-.027.43.254-.224.39-.434.79-.57 1.22-.106.335-.196.727-.142 1.08.017.107.052.246.177.259.123.012.26-.06.354-.133.293-.227.422-.616.557-.948l.496-1.222c.052-.126.164-.216.307-.176.119.033.225.184.174.31-.22.54-.43 1.088-.661 1.624-.18.418-.447.818-.886.986-.214.082-.473.091-.672-.035a.775.775 0 0 1-.323-.514c-.088-.454.006-.952.145-1.385.15-.464.372-.9.614-1.32Z"/>
        <path fill="#0F0F0F" fill-rule="evenodd" d="M54.756 9.006c.83.057 1.215.647 1.354 1.405.546-.156 1.148-.11 1.608.258.488.39.684 1.077.43 1.654a.185.185 0 0 1-.043.059c.643-.036 1.246.424 1.418 1.061.148.55-.013 1.396-.525 1.72.239.416.306.92.191 1.396a1.66 1.66 0 0 1-.41.77.712.712 0 0 1-.46.211c.363.287.57.74.577 1.205.01.5-.2.989-.517 1.364a1.476 1.476 0 0 1-1.318.534c-.298-.033-.68-.102-.892-.324-.276.554-.588 1.09-.94 1.596.757.402 1.58.655 2.414.832 1.892.402 3.85.398 5.721.908 1.484.405 2.843 1.188 3.984 2.224 1.158 1.051 2.088 2.378 2.603 3.867.241.698.412 1.453.397 2.195a17.496 17.496 0 0 1-.126 1.686c-.057.487-.13.973-.213 1.456a.208.208 0 0 1 .141.113 99.458 99.458 0 0 1 2.805 7.145 98.09 98.09 0 0 1 3.313 11.884c.427 2.04.758 4.122.73 6.214-.023 1.85-.34 3.688-1.088 5.383-.64 1.451-1.59 2.798-2.83 3.786-.63.503-1.323.91-2.074 1.2-.9.347-1.866.503-2.826.526-.991.023-1.984-.095-2.958-.282-.974-.187-1.959-.42-2.891-.766a7.919 7.919 0 0 1-1.63-.827.194.194 0 0 1-.058.043c-.197.096-.397.19-.6.276-1.474.635-3.038.957-4.643.88a13.778 13.778 0 0 1-2.5-.363c-.807-.192-1.602-.48-2.314-.911-1.4-.846-2.312-2.238-3.056-3.666-.818-1.57-1.544-3.192-2.23-4.825a194.646 194.646 0 0 1-1.992-4.995l-.962-.436-.529.914a404.982 404.982 0 0 0-2.221 3.887 111.86 111.86 0 0 0-1.662 3.035c-.2.382-.396.767-.583 1.156-.218.455-.475.937-.568 1.439-.103.554.005 1.144.14 1.682.268 1.072.84 2.3.284 3.375-.248.48-.677.809-1.19.95-.489.133-1.008.116-1.506.05a12.08 12.08 0 0 1-1.322-.275c-.402-.1-.741-.14-1.164-.156-1.2-.042-2.406.092-3.601.189a30.47 30.47 0 0 1-1.722.106c-.694.016-1.391 0-2.086.003-.354.002-.716.018-1.07-.021a.274.274 0 0 1-.055.006c-.445-.003-.89-.004-1.335-.005l-1.194-.002-1.253.01c-.473.004-.954.034-1.426.007a.762.762 0 0 1-.255-.057.292.292 0 0 1-.028.003c-.436.029-.874.023-1.297-.072l-.15-.004c-.924-.018-1.85-.03-2.774-.044l-3.625-.06a2.079 2.079 0 0 1-.863-.017c-.967-.017-1.935-.033-2.902-.068-.29-.01-.561-.01-.83-.14a.99.99 0 0 1-.3-1.561c.258-.287.649-.407 1.02-.435.192-.014.376.021.566.025.54.01 1.103-.15 1.628-.255a51.195 51.195 0 0 0 1.697-.372c1.525-.36 3.024-.827 4.398-1.586.763-.421 1.485-.93 2.07-1.583.346-.386.575-.82.827-1.266a2321.886 2321.886 0 0 1 4.756-8.391 2177.75 2177.75 0 0 1 3.843-6.729 3.684 3.684 0 0 1-.093-.071c-.229-.182-.436-.407-.553-.68a1.183 1.183 0 0 1 .04-1.035c.213-.404.631-.653 1.07-.701-.207-.279-.349-.602-.35-.956a1.562 1.562 0 0 1 .31-.907c.163-.225.367-.377.617-.43a1.269 1.269 0 0 1-.095-.622c.029-.218.146-.403.264-.583.14-.213.31-.415.532-.542.144-.082.298-.125.456-.136a1.582 1.582 0 0 1-.093-.945c.095-.46.39-.99.839-1.17.644-.256 1.32.166 1.829.53.32-.548.647-1.09.974-1.634.687-1.14 1.376-2.288 2.208-3.329.732-.914 1.612-1.762 2.684-2.25a4.878 4.878 0 0 1 1.683-.422c-.039-1.175-.03-2.358.119-3.526.133-1.05.374-2.081.798-3.053a7.522 7.522 0 0 1 1.76-2.5c1.458-1.355 3.453-2.076 5.43-1.856-.411-1.552-.017-3.186.495-4.658.218-.628.456-1.25.71-1.865a1.759 1.759 0 0 1-.683-1.75c.122-.6.607-1.103 1.184-1.274 0-.004-.002-.007-.003-.01-.16-.758-.018-1.705.727-2.108.33-.179.749-.235 1.098-.09.208-.593.82-1.188 1.375-1.451.56-.265 1.298-.233 1.712.275.408-.389 1.113-.482 1.648-.445ZM31.44 55.95a3344.117 3344.117 0 0 0-4.468 8.11.288.288 0 0 1-.123.22 60.387 60.387 0 0 1-5.005 3.362c-.516.31-1.033.637-1.58.89-.55.252-1.135.417-1.742.328-.547-.08-1.04-.378-1.587-.452a1.361 1.361 0 0 0-1.238.492c-.3.37-.356.901-.184 1.34.176.445.601.738 1.04.881.348.114.694.15 1.047.147a1.018 1.018 0 0 1-.047-.345c.015-.498.294-.96.696-1.239.524-.362 1.21-.297 1.806-.216.134.018.25.1.25.252 0 .123-.116.27-.25.252-.34-.046-.696-.084-1.04-.05a1.123 1.123 0 0 0-.86.611c-.115.227-.164.544.005.73.126.069.278.046.418.046l1.49-.011c-.137-.353-.052-.817.158-1.112.532-.745 1.644-.785 2.468-.766.32.007.32.51 0 .504-.417-.01-.826.005-1.196.087a1.91 1.91 0 0 0-.546.192.904.904 0 0 0-.357.335.774.774 0 0 0-.091.386c0 .156.032.297.187.339.283.07.602.028.89.028l.95.002a.915.915 0 0 1-.2-.549c-.012-.54.477-.876.92-1.052a4.115 4.115 0 0 1 1.73-.271c.32.017.32.521 0 .504a3.643 3.643 0 0 0-1.62.261c-.282.121-.676.388-.473.742.224.391.755.382 1.144.385.312.003.624 0 .936-.002a.942.942 0 0 1-.022-.678c.113-.335.34-.562.643-.725.288-.155.595-.276.92-.323a4.56 4.56 0 0 1 .963-.015c.135.01.25.109.25.252 0 .13-.115.261-.25.252-.28-.018-.567-.04-.847-.002-.3.04-.582.158-.845.305-.216.12-.39.325-.389.584.002.229.22.301.427.328.235.03.48.025.716.022 1.15-.013 2.296-.15 3.441-.232a22.336 22.336 0 0 1 1.728-.071c.46.002.93.023 1.382.123.828.182 1.608.434 2.459.346.4-.04.812-.193 1.074-.53.309-.396.364-.885.3-1.364-.076-.566-.273-1.112-.421-1.661-.16-.593-.286-1.213-.237-1.83.044-.56.278-1.069.51-1.573.36-.785.766-1.55 1.176-2.31 1.266-2.345 2.606-4.65 3.941-6.955l-.183-.083L40 54.399l-.57-.258a10.184 10.184 0 0 1-.976-.04 7.664 7.664 0 0 1-2.456-.66.267.267 0 0 1 .006.265l-.754 1.31a.252.252 0 0 1-.341.09c-.12-.063-.155-.23-.09-.344l.755-1.31a.242.242 0 0 1 .195-.122 7.128 7.128 0 0 1-.396-.217 7.918 7.918 0 0 1-1.642-1.3c-.764 1.379-1.528 2.758-2.29 4.138ZM14.373 68.09c-.637.054-1.113.679-1.155 1.296a1.85 1.85 0 0 0 .244 1.038c.168.296.414.582.757.66a.237.237 0 0 1 .114.06l.37.005c.297.005.596.006.894.01a1.84 1.84 0 0 1-.61-.934 1.864 1.864 0 0 1 .415-1.74.252.252 0 0 1-.092-.063 1.145 1.145 0 0 0-.937-.332Zm-1.635 1.681c-.042.084-.131.147-.224.142-.295-.017-.64-.048-.913.093-.111.058-.235.158-.283.278a.543.543 0 0 0 .034.421.59.59 0 0 0 .267.258c.137.071.609.055.456.077.097-.014.186.008.246.071l1.037.017a2.396 2.396 0 0 1-.62-1.356Zm.288-1.345c-1.23.465-2.505.78-3.793 1.056-.193.042-.387.083-.58.123a.251.251 0 0 1-.238.318 2.27 2.27 0 0 0-.62.07c-.193.053-.386.167-.437.366-.034.134-.048.315.02.438.054.095.193.14.293.168.107.03.218.048.33.058.226.019.454.02.68.024a1.37 1.37 0 0 1-.021-.994.912.912 0 0 1 .647-.56c.283-.071.58-.058.87-.05.14.005.242.112.249.252a.253.253 0 0 1-.25.252c-.143-.004-.286-.01-.43-.005a1.4 1.4 0 0 0-.33.043.412.412 0 0 0-.305.288.968.968 0 0 0-.013.454c.034.15.124.284.276.334l1.637.028c-.245-.332-.314-.799-.067-1.158.16-.233.4-.389.668-.466.293-.085.602-.073.902-.056a.26.26 0 0 1 .21.12 2.047 2.047 0 0 1 .302-1.103ZM6.205 69.87c-.135.017-.308.07-.418.136a.613.613 0 0 0-.29.368.453.453 0 0 0 .111.4c.103.11.29.193.44.202.291.017.583.023.875.03a.661.661 0 0 1-.058-.16 1.493 1.493 0 0 1 .002-.573.859.859 0 0 1 .176-.39 1.74 1.74 0 0 1-.23.003c-.205-.013-.403-.041-.608-.016Zm63.669-34.063a40.829 40.829 0 0 1-.374 1.697 63.497 63.497 0 0 1-1.18 4.191 104.722 104.722 0 0 1-1.44 4.218c-.482 1.33-.987 2.653-1.505 3.97l-.026.062c.285.445.565.893.84 1.344.988 1.63 1.87 3.319 2.726 5.023.145.288-.285.543-.43.254-.261-.517-.523-1.035-.789-1.55a61.173 61.173 0 0 0-2.574-4.496c-.367.92-.74 1.838-1.115 2.754-.48 1.168-.944 2.346-1.46 3.498-.381.854-.804 1.692-1.325 2.468-.478.714-1.036 1.391-1.75 1.874-.752.508-1.648.704-2.543.61a5.324 5.324 0 0 1-.464-.07c.113.384.231.766.358 1.146.582 1.74 1.353 3.458 2.572 4.843a7.987 7.987 0 0 0 1.907 1.608c.825.49 1.741.768 2.664 1.003 1.836.468 3.79.796 5.673.424 1.577-.312 2.966-1.144 4.054-2.33 1.047-1.14 1.797-2.549 2.248-4.03.556-1.826.643-3.766.5-5.66-.154-2.038-.578-4.046-1.037-6.033a97.987 97.987 0 0 0-3.441-11.583 97.117 97.117 0 0 0-2.09-5.235Zm-25.847 20.57a153.484 153.484 0 0 0 1.936 4.813c.675 1.578 1.381 3.156 2.204 4.663.368.674.776 1.333 1.281 1.912a5.966 5.966 0 0 0 1.821 1.424c.717.36 1.495.58 2.279.732.786.153 1.584.247 2.386.246 1.507-.003 2.958-.39 4.316-1.03a8.981 8.981 0 0 1-1.281-1.224c-.534.366-1.238.337-1.805.036-.544-.287-.919-.806-1.208-1.346a7.799 7.799 0 0 1-.661.704c-.324.303-.68.619-1.073.828-.362.193-.774.254-1.146.052-.313-.169-.532-.488-.644-.822-.272-.815.067-1.69.453-2.404a14.138 14.138 0 0 1 2.72-3.538 11.37 11.37 0 0 1-1.102-.45c-.233-.108-.467-.212-.7-.318l-1.734-.786-2.433-1.102c-.924-.42-1.85-.838-2.775-1.257l-2.756-1.25-.15-.068.072.186ZM39.34 33.839a4.47 4.47 0 0 0-2.914.615c-.964.578-1.737 1.44-2.398 2.343-.722.985-1.338 2.041-1.972 3.085-.284.467-.563.937-.838 1.409.16.172.302.365.422.556.25.395.457.92.291 1.388-.158.449-.559.856-1.036.924a.27.27 0 0 1 .036.075c.192.634.037 1.34-.568 1.678-.1.056-.204.099-.311.131.227.507.04 1.13-.348 1.531-.203.21-.436.325-.68.37.038.07.07.146.09.229.076.301.006.612-.125.887-.306.642-1.139.897-1.791.728-.24-.062-.474-.186-.691-.305l-.022-.011-.878 1.532a3009.814 3009.814 0 0 0-7.465 13.133c-.103.183-.214.364-.311.552a5.98 5.98 0 0 1-.66 1.041 6.221 6.221 0 0 1-.909.905 9.648 9.648 0 0 1-1.457.977c.317.056.619.205.858.454a.257.257 0 0 1 .07.138c.283-.19.617-.3.96-.31.596-.015 1.129.284 1.694.428.581.149 1.156 0 1.688-.253.574-.273 1.118-.617 1.661-.946a60.163 60.163 0 0 0 4.76-3.2.27.27 0 0 1 .03-.084l.41-.747a3106.077 3106.077 0 0 1 5.788-10.49c-.377-.2-.76-.419-1.05-.738-.303-.333-.47-.764-.39-1.218.036-.202.134-.396.276-.544.153-.157.35-.23.537-.337.053-.031.119-.074.136-.116.017-.04.001-.083-.025-.144-.083-.188-.216-.35-.257-.557-.072-.366.133-.647.417-.846.246-.172.57-.294.786-.47a.488.488 0 0 0 .187-.26c.028-.132-.04-.31-.104-.464-.148-.36-.326-.75-.111-1.125.183-.318.55-.443.87-.566.284-.11.548-.216.508-.558-.027-.225-.092-.441-.044-.669a.785.785 0 0 1 .432-.527 2.314 2.314 0 0 1 1.132-.22c.598.026 1.194.16 1.774.323.14-.247.279-.496.418-.744.93-1.66 1.847-3.329 2.794-4.98.453-.787.912-1.573 1.384-2.349a.212.212 0 0 1-.151-.072 4.601 4.601 0 0 0-2.903-1.582Zm14.006 31.318c-.33.602-.657 1.336-.446 2.032.01.033.021.067.034.1l.313-.404c.086-.11.261-.085.352 0a.253.253 0 0 1 0 .356c-.116.15-.223.326-.358.46a.625.625 0 0 0 .153.081c.309.111.623-.09.866-.264.152-.11.3-.227.443-.35a.326.326 0 0 1-.015-.169c-.077-.165-.182-.327-.27-.481a12.551 12.551 0 0 0-.996-1.496c-.026.044-.05.09-.075.135Zm2.63-3.395a14.091 14.091 0 0 0-1.432 1.571c-.306.392-.59.804-.852 1.229a13.081 13.081 0 0 1 1.368 2.09l.068.123c.237-.238.46-.493.66-.758.103-.135.34-.19.43 0 .26.544.577 1.12 1.103 1.443.384.236.937.324 1.331.066a11.29 11.29 0 0 1-.428-.586c-1.065-1.562-1.712-3.37-2.248-5.178Zm-1.045-39.437c-.643.838-1.407 1.574-2.312 2.138-1.176.733-2.657 1.228-3.99.637-.936-.416-1.62-1.286-1.984-2.245a.192.192 0 0 1-.13.035 6.331 6.331 0 0 0-3.105.425c-1.778.72-3.142 2.233-3.817 4.029-.713 1.893-.776 3.962-.708 5.964 1.402.04 2.785.652 3.71 1.756a.327.327 0 0 1 .034.048c.52-.835 1.086-1.65 1.776-2.352.73-.742 1.613-1.322 2.66-1.442 1.005-.114 2.004.237 2.866.736.917.53 1.721 1.238 2.487 1.968a65.945 65.945 0 0 1 2.257 2.252c1.342 1.41 2.606 2.893 3.837 4.403l.174-.476c.477-1.288.97-2.57 1.474-3.848a14.593 14.593 0 0 1-.813-2.022c-.04-.13.05-.276.175-.31a.254.254 0 0 1 .306.176c.164.52.359 1.028.583 1.524.302-.758.607-1.515.915-2.27.051-.127.163-.216.307-.177.118.033.225.184.173.31a257.23 257.23 0 0 0-1.543 3.867 179.705 179.705 0 0 0-1.439 3.822c-.328.904-.648 1.81-.959 2.72a167.044 167.044 0 0 0-2.19 6.911l-.005.014c.502.195 1.013.38 1.536.5.313.074.18.56-.133.487a6.433 6.433 0 0 1-.376-.101c-.752-.225-1.485-.522-2.21-.82a129.55 129.55 0 0 1-3.094-1.326l-.818-.361c-.073.173-.334.256-.44.043l-.15-.305c-.71-.314-1.417-.63-2.126-.943a268.468 268.468 0 0 0-3.661-1.595 98.324 98.324 0 0 0-3.49-1.416c-.962-.366-1.935-.716-2.928-.994-.484-.135-.974-.262-1.474-.318-.269-.03-.54-.049-.805.016-.163.04-.4.08-.511.222-.104.132-.033.344-.01.493.036.23.047.46-.07.67a.956.956 0 0 1-.374.353c-.293.165-.616.212-.879.404a.321.321 0 0 0-.136.275c.004.13.087.31.147.452.15.356.276.75.044 1.104-.18.273-.478.43-.756.58-.154.084-.316.161-.44.286a.253.253 0 0 0-.06.284c.035.09.091.172.137.255.104.19.184.401.122.62-.061.212-.24.351-.426.448-.152.08-.326.144-.426.29-.184.267-.107.643.087.899.255.337.648.548 1.018.743l.408-.736a8.734 8.734 0 0 1-.074-.087c-.088-.104-.102-.254 0-.357.09-.09.265-.103.352 0a7.841 7.841 0 0 0 1.618 1.474 6.969 6.969 0 0 0 2.647 1.066 7.55 7.55 0 0 0 1.05.109c.123.004.245.006.368.006.095 0 .181-.005.271.035.263.116.523.237.784.355l1.94.88 2.673 1.211 2.97 1.346 2.88 1.306 2.326 1.053 1.377.624c.927.42 1.877.82 2.913.796.908-.021 1.7-.43 2.345-1.058.675-.66 1.191-1.476 1.637-2.304.725-1.347 1.27-2.788 1.851-4.202 1.047-2.543 2.063-5.072 3.011-7.667a103.92 103.92 0 0 0 1.534-4.486 61.6 61.6 0 0 0 1.24-4.45c.31-1.32.57-2.656.692-3.984.056-.609.116-1.24.025-1.847a7.71 7.71 0 0 0-.762-2.362c-.742-1.453-1.89-2.686-3.243-3.575a8.85 8.85 0 0 0-2.045-1.01c-.97-.323-1.985-.48-2.995-.605-1.983-.243-4.037-.396-5.83-1.369Zm-5.772 9.89c-.854-.399-1.818-.556-2.725-.244-.939.322-1.68 1.081-2.294 1.84-.671.833-1.215 1.763-1.761 2.681-.441.742-.874 1.488-1.3 2.239-.94 1.654-1.856 3.322-2.79 4.98l.009.002c1.046.315 2.073.696 3.091 1.094 1.221.476 2.43.983 3.634 1.5.546.234 1.091.472 1.636.71.307-.532.614-1.065.92-1.599 1.042-1.82 2.07-3.647 3.07-5.49.155-.285.585-.03.43.255a265.08 265.08 0 0 1-2.406 4.326c.237.676.463 1.357.716 2.026.276.727.616 1.423.96 2.115a370.682 370.682 0 0 0 2.75 1.208l.732.313c.456.192.913.381 1.373.563.389-1.32.791-2.636 1.21-3.947a155.63 155.63 0 0 1 1.9-5.565l-.42-.515c-1.276-1.555-2.594-3.073-3.994-4.515a54.323 54.323 0 0 0-2.265-2.22c-.748-.683-1.556-1.326-2.476-1.756ZM27.122 47.334a.88.88 0 0 0-.902-.006.832.832 0 0 0-.39.491.711.711 0 0 0 .087.517c.123.212.316.379.516.516a4.2 4.2 0 0 0 .516.294c.162.08.328.16.509.183.32.042.677-.053.922-.271a.88.88 0 0 0 .256-.488.568.568 0 0 0-.16-.522 1.03 1.03 0 0 0-.293-.177 3.507 3.507 0 0 1-.965-.5.248.248 0 0 1-.096-.037Zm19.998-.114c.55.242 1.1.485 1.65.73l.871.386c-.51-1.054-.91-2.149-1.294-3.253-.408.713-.817 1.425-1.227 2.137Zm-19.762-2.313c-.294-.013-.444.155-.58.429a.898.898 0 0 0-.064.669c.104.361.44.7.733.914.136.099.278.19.426.269.487.257 1.146.456 1.552-.051.224-.281.34-.716.091-1.02a2.473 2.473 0 0 1-.975-.215 2.9 2.9 0 0 1-1.174-.996l-.009.001Zm.644-1.763c-.145.11-.275.284-.386.47-.207.346-.076.649.137.968.263.395.68.765 1.122.915.254.087.518.13.787.11.195-.016.382-.077.55-.194a.8.8 0 0 0 .306-.694 1.384 1.384 0 0 0-.067-.35.225.225 0 0 1 .035-.214 2.336 2.336 0 0 1-.685-.234c-.422-.21-.849-.475-1.172-.83a.287.287 0 0 1-.043-.01c-.206-.064-.404-.058-.584.063Zm1.07-2.19c-.15.116-.257.317-.335.495a1.15 1.15 0 0 0-.107.483c0 .268.13.544.3.743.176.208.39.38.62.526.194.125.4.24.609.336.188.087.396.145.605.133.22-.013.412-.15.541-.324.117-.156.181-.292.185-.444a1.157 1.157 0 0 0-.1-.467 2.568 2.568 0 0 0-.288-.494 3.044 3.044 0 0 0-.343-.395c-.108-.105-.236-.177-.346-.276a2.418 2.418 0 0 0-.605-.327c-.224-.08-.528-.152-.736.01ZM51.29 12.536c-.185.496-.39 1.008-.773 1.383-.386.379-.961.606-1.492.434a.272.272 0 0 1-.09-.051c-.05.058-.074.143-.106.212a39.505 39.505 0 0 0-.905 2.123c-.28.715-.551 1.44-.76 2.18-.362 1.294-.537 2.73.005 4 .429 1.007 1.29 1.913 2.417 2.03.692.071 1.39-.113 2.016-.405a7.165 7.165 0 0 0 1.47-.913c1.74-1.403 2.835-3.467 3.527-5.58-.041.02-.084.04-.127.057-.372.14-.82.018-1.041-.325a1.607 1.607 0 0 1-.188-.503c-.04-.17-.072-.35-.071-.524.002-.382.105-.791.21-1.156.048-.165.104-.33.172-.49a1.766 1.766 0 0 1-1.293-.356 1.819 1.819 0 0 1-.674-1.427c-.296.084-.609.11-.922.065a2.266 2.266 0 0 1-1.375-.754Zm6.614 5.327a.745.745 0 0 0-.755.027c-.054.164-.113.327-.169.489a17.1 17.1 0 0 1-.548 1.389c.037.035.1.14.083.19.188.201.643.221.888.186.64-.093 1.072-.929.987-1.53-.042-.306-.213-.602-.486-.75Z" clip-rule="evenodd"/>
      </g>
    </g>
  </g>
</svg>
