<svg xmlns="http://www.w3.org/2000/svg" fill="none" viewBox="0 0 80 80">
  <g class="lover">
    <g class="Blob">
      <path fill="#D2B2A7" fill-rule="evenodd" d="M39.014 14.997c8.98-.205 19.473-9.09 25.784-2.673 6.318 6.425-3.314 16.865-2.956 25.886.392 9.868 11.69 20.706 5.097 28.036-6.514 7.243-18.226-2.017-27.925-2.655-8.473-.558-18.155 4.88-24.49-.794-6.41-5.741-3.822-15.963-3.848-24.587-.026-8.667-2.99-19.255 3.7-24.735 6.627-5.429 16.086 1.717 24.638 1.522Z" class="Vector" clip-rule="evenodd"/>
    </g>
    <g class="Sticker">
      <path fill="#fff" d="M73.742 61.775c-.387-3.518-.949-7.876-3.432-10.643-.888-.978-2.348-2.65-2.695-3.957-.335-2.797-.431-5.822-1.245-8.533-1.956-6.517-9.906-12.434-6.843-20.947.012-.996.992-1.287 1.262-2.347C67.315 4.303 43.28 4.014 38.224 5.482 34.93 6.443 30.522 8 28.42 11.006c-3.146 4.985 4.377 8.52 2.515 11.969-1.684 2.198-4.66 2.701-7.068 3.72-4.4 1.861-18.07 5.283-19.296 10.636-.73 2.642 1.416 6.822 4.189 7.488 1.959.518 3.67-.446 5.408-.7 5.594-.085 9.682-4.336 14.978-5.076 4.64-.328-5.534 28.09-.352 32.817 8.454 8.226 46.966 6.9 44.95-10.085Z" class="Back"/>
      <g class="Illustration">
        <path fill="#0F0F0F" d="M68.962 64.771a.282.282 0 0 0-.014.042c0 .025.015.025.014-.042Z"/>
        <path fill="#0F0F0F" fill-rule="evenodd" d="M54.804 51.453c3.58-.068 7.404.11 10.74 1.543 2.005.86 4.493 2.824 4.187 5.306.16 1.858.154 3.742.23 5.604.017.42.102.912-.049 1.319-.27.734-.937 1.259-1.558 1.694-.895.627-1.888 1.117-2.886 1.556a37.993 37.993 0 0 1-3.98 1.483c-2.93.917-5.97 1.571-9.035 1.81a76.968 76.968 0 0 1-9.79.137c-2.155-.108-4.328-.318-6.43-.82-1.887-.45-4.895-1.32-5.285-3.597l-.963-5.618c-.162-.482-.16-.996-.11-1.497.142-1.405.828-2.618 1.88-3.556.823-.733 1.783-1.3 2.778-1.764 3.621-1.688 7.689-2.366 11.617-2.888 2.872-.382 5.756-.657 8.654-.712Zm13.958 8.39a8.634 8.634 0 0 1-.789.577c-1.635 1.086-3.511 1.841-5.351 2.503a44.907 44.907 0 0 1-7.125 1.924c-2.677.489-5.382.613-8.097.697-2.394.074-4.793.088-7.185-.037-1.676-.088-3.358-.24-5.008-.559-1.34-.26-2.76-.617-3.894-1.415l.478 2.79c.074.431.1.889.25 1.303.065.093.105.215.169.312 1.076 1.625 3.738 2.083 5.5 2.406 3.829.702 7.817.69 11.745.546 1.622-.06 3.248-.129 4.857-.354a42.912 42.912 0 0 0 8.672-2.17c1.72-.624 3.486-1.343 4.977-2.429.285-.207.741-.584.964-1.01.005-.027.013-.075.023-.114 0 .026.017.024.014-.053-.058-1.64-.134-3.278-.2-4.916Zm-.972-4.063c-.412 1.088-2.13 1.988-2.966 2.408-2.843 1.427-5.986 2.341-9.099 2.956-3.614.715-7.333.826-11.009.876-2.604.035-5.24 0-7.816-.415-1.306-.21-2.75-.517-3.83-1.33-.694-.522-1.137-1.241-1.195-2.101-.791.91-1.464 2.956-.58 3.984 1.106 1.285 3.371 1.698 5.252 1.977 2.297.341 4.633.418 6.953.431 2.704.016 5.42-.057 8.119-.247 2.383-.167 4.745-.628 7.05-1.243 2.148-.572 4.277-1.28 6.3-2.206a19.24 19.24 0 0 0 2.284-1.21c.462-.293 1.035-.663 1.337-1.127.148-.229.132-.513.107-.774-.068-.722-.443-1.436-.907-1.98Zm-14.602-3.212c-1.84.035-3.675.223-5.498.472-3.548.484-7.133 1.11-10.537 2.246-1.278.426-3.432 1-4.181 2.404-.105.197-.081.708.08 1.035.291.584.807.892 1.385 1.156.856.393 1.814.581 2.737.73 3.052.49 6.674.433 9.896.32 1.849-.066 3.711-.125 5.55-.333 3.198-.362 6.385-1.166 9.393-2.306 1.165-.442 2.322-.945 3.386-1.6.474-.292.665-.415 1.023-.758.387-.371.583-.732.077-1.089-1.03-.725-2.318-1.059-3.578-1.354-3.172-.742-6.482-.986-9.733-.923ZM37.324 8.66c3.281-1.28 6.879-1.715 10.385-1.655 3.05.053 6.615.344 9.233 2.079 1.008.668 1.86 1.633 2.057 2.86a3.037 3.037 0 0 1-.539 2.29c-.533.745-1.26 1.31-1.99 1.852.132.725.244 1.454.35 2.183a.454.454 0 0 1 .04.277 274.18 274.18 0 0 1 1.588 13.458c.058.622.142 1.254.146 1.88.184.074.366.152.547.235.944.436 1.846 1.046 2.497 1.867.57.72 1.067 1.646 1.006 2.59-.083 1.274-.952 2.26-1.981 3.009a.434.434 0 0 1-.201.142c-2.494 1.713-5.591 2.548-8.539 3.024-2.859.462-5.818.517-8.706.374-2.56-.126-5.277-.397-7.636-1.471-1.328-.605-2.743-1.751-2.607-3.362.166-1.962 1.936-3.387 3.497-4.36-.133-1.184-.234-2.372-.36-3.557a441.47 441.47 0 0 0-22.64 8.416c-.897.362-1.787.78-2.76.887-.893.1-1.789-.2-2.311-.954-.447-.645-.488-1.527-.276-2.262.523-1.814 2.448-2.556 4.023-3.23 5.038-2.153 10.13-4.178 15.126-6.43a.552.552 0 0 1 .224-.1 129.178 129.178 0 0 0 7.735-3.783 597.54 597.54 0 0 0-.828-6.194.496.496 0 0 1-.294-.406 9.258 9.258 0 0 1-.903-.401c-1.139-.587-2.19-1.551-2.311-2.887-.297-3.261 3.973-5.414 6.428-6.371Zm15.628 30.053c-3.118-.241-6.31-.1-9.371.578-.97.215-1.931.488-2.858.85-1.04.406-2.26 1.048-3.123 1.901-.312.31-.638.634-.577 1.074 2.671.868 5.527 1.023 8.316 1.034 2.634.01 5.275-.124 7.854-.686 2.295-.5 4.607-1.21 6.58-2.522-.011-.035-.019-.073-.028-.108a1.1 1.1 0 0 0-.188-.285c-.244-.258-.96-.652-1.284-.78-1.729-.689-3.55-.92-5.321-1.056Zm4.145-4.254c-2.574-.74-5.32-.82-7.98-.738-.73.026-1.459.067-2.186.135-3.997.372-8.817 1.396-11.753 4.381-.412.42-.66.719-.932 1.268-.238.483-.315.83-.222 1.276.065.31.083.35.284.653.424.639 1.024.971 1.693 1.285.028-.166.079-.328.15-.483.203-.447.603-.832.967-1.156a8.75 8.75 0 0 1 1.092-.824c.817-.526 1.715-.926 2.628-1.255 4.072-1.467 8.722-1.692 12.996-1.238 1.736.184 3.52.47 5.124 1.184.626.28 1.329.722 1.658 1.331.366-.343.725-.753.89-1.237.04-.117.07-.237.093-.358.185-.927-.827-2.31-1.702-2.939-.846-.608-1.804-1-2.8-1.285ZM22.8 31.869c-3.567 1.513-7.157 2.972-10.716 4.504-1.299.56-3.076 1.333-3.05 2.992.01.642.383 1.19 1.078 1.291.79.114 1.622-.267 2.334-.556a441.657 441.657 0 0 1 11.695-4.547 3.329 3.329 0 0 1-1.236-1.464 3.23 3.23 0 0 1-.105-2.22Zm12.57-5.856a130.313 130.313 0 0 1-7.476 3.635c-.427.659-.584 1.46-.363 2.227.222.769.788 1.373 1.507 1.707a.396.396 0 0 1 .151.125 445.743 445.743 0 0 1 6.808-2.38 361.542 361.542 0 0 0-.627-5.314Zm16.138-8.649c-2.767-.47-5.684-.18-8.394.488-2.622.647-5.198 1.755-7.194 3.608a.568.568 0 0 1-.099.073c.503 3.741.967 7.487 1.364 11.24a26.326 26.326 0 0 1 3.677-1.47c5.28-1.669 11.047-1.784 16.433-.534a320.884 320.884 0 0 0-.857-7.627c-.177-1.439-.345-2.87-.552-4.3a14.632 14.632 0 0 0-4.379-1.478Zm-5.249-9.322c-3.178.079-6.447.603-9.358 1.902-1.56.696-3.238 1.661-4.269 3.071-.396.543-.673 1.115-.708 1.643-.046.714.303 1.272.83 1.735.55.48 1.24.796 1.924 1.041.743-.752 1.626-1.375 2.543-1.892 4.282-2.415 9.758-2.98 14.58-2.22 1.514.24 3.05.679 4.336 1.534a.559.559 0 0 1 .12.107c.726-.564 1.604-1.263 1.745-2.225.246-1.68-1.474-2.842-2.796-3.415-2.754-1.194-5.987-1.355-8.947-1.281Z" clip-rule="evenodd"/>
      </g>
    </g>
  </g>
</svg>
