<svg xmlns="http://www.w3.org/2000/svg" fill="none" viewBox="0 0 80 80">
  <g class="skole">
    <g class="Blob">
      <path fill="#ACD7C3" fill-rule="evenodd" d="M36.522 14.182c9.148-2.224 19.09-6.983 27.082-1.964C72.498 17.804 76.957 29.017 77 39.604c.043 10.623-4.168 22.14-13.173 27.611-8.159 4.957-17.856-1.86-27.305-3.021-7.426-.913-15.278 1.402-21.387-2.963C8.049 56.167 1.023 48.309 2.112 39.604c1.059-8.464 11.013-11.738 17.825-16.771 5.222-3.858 10.297-7.123 16.585-8.651Z" class="Vector" clip-rule="evenodd"/>
    </g>
    <g class="Sticker">
      <path fill="#fff" d="M70.464 57.966c.725-1.306-.342-3.568-.266-4.586.747-10.04.873-21.856-5.586-30.18-1.744-2.263-4.207-3.965-5.117-7.374-.892-3.368-1.965-9.277-6.03-10.106-5.477-1.438-11.012 1.996-13.348 7.074-.187.415.162 1.56-.826 1.81-2.693-.212-3.183-1.86-4.448-4.06-2.79-4.871-11.312-4.11-15.587-1.964-12.85 6.638-14.043 39.967-4.245 49.45.45.5 4.772 1.83 4.498 2.916-1.968 8.257 11.791 15.057 18.244 16.042 5.09 1.102 28.836 4.276 30.835-2.487 1.5-5.084.938-11.294 1.876-16.535Z" class="Back"/>
      <g class="Illustration">
        <path fill="#0F0F0F" fill-rule="evenodd" d="M38.365 56.836c.291-.015.592.018.882.028l1.832.062 5.121.173c1.617.055 3.235.14 4.852.151 1.733.012 3.467-.056 5.199-.117 1.372-.048 2.755-.137 4.128-.085.33.012.777-.002 1.026.254.238.246.257.666.287.983.105 1.09.052 2.203-.004 3.294a37.525 37.525 0 0 1-.396 4c-.079.494-.169.99-.316 1.468-.099.32-.227.723-.498.945a.672.672 0 0 1-.058.042.732.732 0 0 1-.043.036c-.138.104-.343.145-.511.177-.691.13-1.407.154-2.108.18-1.06.041-2.123.048-3.184.047a220.404 220.404 0 0 1-7.912-.17c-2.194-.083-4.392-.173-6.58-.36-.539-.046-1.12-.062-1.644-.205-.678-.186-.769-1.051-.85-1.633-.169-1.19-.207-2.4-.215-3.6-.008-1.208.017-2.422.13-3.626.039-.427.081-.862.183-1.28.085-.354.256-.744.68-.764Zm5.743-10.671c1.657 0 3.315-.002 4.973.018 1.651.02 3.282.159 4.925.319a81.16 81.16 0 0 0 9.923.357c.296-.008.605.328.482.628a20.48 20.48 0 0 1-.986 2.067c-.444.814-.95 1.676-1.651 2.3-.29.26-.63.493-1.023.556-.363.059-.75.012-1.115-.008-1.124-.06-2.246-.156-3.367-.247a299.639 299.639 0 0 0-5.997-.438c-1.809-.111-3.618-.229-5.427-.346a11345.3 11345.3 0 0 1-4.505-.29c-1.08-.098-1.554-1.351-1.85-2.227a12.949 12.949 0 0 1-.504-2.038c-.052-.315.13-.626.482-.628a706.9 706.9 0 0 1 5.64-.023Zm4.335 1.005c-3.125-.02-6.25-.016-9.374.006.137.634.313 1.258.55 1.859.131.33.3.693.562.942.124.118.26.117.422.127 1.63.106 3.262.212 4.893.316 1.683.109 3.366.219 5.05.32 2.084.125 4.164.297 6.245.464 1.045.084 2.09.173 3.138.22.168.008.337.014.505.016.419.004.741-.367.994-.658.263-.302.51-.668.752-1.067.241-.395.462-.801.671-1.214.106-.21.208-.421.307-.634a81.47 81.47 0 0 1-4.843-.067 87.385 87.385 0 0 1-4.94-.368 52.28 52.28 0 0 0-4.932-.262Z" clip-rule="evenodd"/>
        <path fill="#0F0F0F" d="M61.224 29.26c.27-.019.5.243.5.497 0 .282-.23.477-.5.497-1.325.094-2.652.176-3.98.232-2.335.099-4.665.073-7.002.024-2.278-.049-4.576-.063-6.825.346-.267.05-.539-.069-.616-.346-.067-.243.084-.563.35-.61a26.131 26.131 0 0 1 3.934-.39c2.324-.067 4.648.075 6.973.063 2.392-.014 4.78-.142 7.166-.312Z"/>
        <path fill="#0F0F0F" fill-rule="evenodd" d="M48.885 9.025c1.777-.158 3.605.426 4.928 1.622.718.65 1.199 1.464 1.567 2.348.398.957.73 1.955.99 2.957.266 1.02.443 2.075.448 3.13.001.345-.013.685-.055 1.039a21.71 21.71 0 0 1 4.997 4.434c1.76 2.139 3.179 4.648 3.915 7.32.527 1.91.766 3.9.948 5.867.23 2.48.325 4.972.361 7.462.04 2.696.004 5.392-.083 8.087a203.865 203.865 0 0 1-.395 7.74 135.95 135.95 0 0 1-.572 6.306 60.2 60.2 0 0 1-.325 2.407c-.167 1.056-.3 2.263-1.18 2.987-.775.637-1.77.885-2.75.985-.797.082-1.6.116-2.4.148-2.248.089-4.5.113-6.75.127a407.75 407.75 0 0 1-5.53 0 84.471 84.471 0 0 1-8.236-.484c-1.958-.206-3.943-.506-5.76-1.296-1.472-.64-2.788-1.608-3.994-2.651-2.516-2.176-4.59-4.79-6.75-7.3a.624.624 0 0 1-.065-.093.495.495 0 0 1-.08-.259 367.096 367.096 0 0 1-.154-4.06 8.755 8.755 0 0 1-1.288-.369c-2.02-.751-3.711-2.143-5.01-3.834-1.427-1.857-2.301-4.074-2.816-6.338-.556-2.446-.734-4.97-.814-7.47a56.902 56.902 0 0 1 .246-7.622c.257-2.505.694-4.994 1.365-7.423.635-2.297 1.458-4.578 2.584-6.686.978-1.832 2.225-3.582 3.84-4.913a10.604 10.604 0 0 1 2.704-1.64c2.25-.929 4.855-1.258 7.22-.583 1.165.333 2.085 1.094 2.866 1.988a63.59 63.59 0 0 1 2.123 2.575c.604.769 1.104 1.575 1.473 2.47a21.538 21.538 0 0 1 3.876-1.082.498.498 0 0 1 .057-.277c.954-1.844 1.944-3.729 3.443-5.203 1.362-1.34 3.135-2.244 5.056-2.416Zm4.218 13.68a9.16 9.16 0 0 0-2.565.33 9.17 9.17 0 0 0-1.832.714c-.84.438-1.632 1.028-2.396 1.587a22.814 22.814 0 0 0-5.192 5.314c-1.472 2.104-2.486 4.452-3.215 6.902-1.59 5.352-2.163 10.982-2.613 16.524a266.77 266.77 0 0 0-.838 17.458.524.524 0 0 1-.029.166c1.382.453 2.863.657 4.294.809 2.07.22 4.15.359 6.231.44 1.412.055 2.824.055 4.236.057 2.181.003 4.363-.007 6.544-.043 1.909-.03 3.83-.049 5.733-.22.148-.013.296-.028.443-.045l.097-.012c-.175.02-.062.008-.02.002l.162-.026c.51-.092 1.034-.273 1.468-.557.83-.543.89-1.722 1.033-2.624a42.317 42.317 0 0 0 .12-.801l.016-.123c.02-.14-.005.04.006-.046.055-.411.106-.823.154-1.236.112-.957.209-1.916.296-2.876.213-2.346.372-4.698.494-7.05.136-2.631.225-5.264.257-7.898.031-2.597.01-5.196-.105-7.79a83.427 83.427 0 0 0-.229-3.576 59.092 59.092 0 0 0-.259-2.402l-.016-.12c.012.087 0 .006-.001-.01-.01-.062-.018-.125-.027-.188a36.639 36.639 0 0 0-.05-.346c-.217-1.424-.531-2.801-1.013-4.137a13.63 13.63 0 0 0-.493-1.067c-2.03-3.935-6.108-7.07-10.691-7.11Zm-19.72 48.593.072.032.002-.106-.075.074Zm-3.05-1.925c.871.7 1.8 1.328 2.809 1.813l.32-.319.027-1.326-1.185 1.177-.217-.136 1.41-1.4.036-1.335-2.237 2.222-.21-.142 2.458-2.441c.013-.448.027-.895.043-1.343l-3.253 3.23Zm-7.293-9.264.05 1.25 11.545-11.461-.052.403-11.479 11.394.002.024.588.69 10.711-10.632-.044.395A1036733 1036733 0 0 1 23.856 62.6l.598.705.418-.413 9.34-9.273-.037.388-9.559 9.489.601.703 8.834-8.77-.03.381-8.64 8.578c.183.212.366.423.552.633l.055.062 7.93-7.872-.024.376-7.74 7.683c.204.23.41.459.618.686l7.04-6.989c-.008.125-.014.248-.02.371l-6.851 6.8c.209.227.42.45.633.672l6.154-6.11-.015.367-5.966 5.922c.214.22.431.438.651.653l5.268-5.23-.01.362-5.079 5.042c.222.213.446.423.674.63l4.375-4.343-.006.358-4.183 4.152.015.013c.225.2.454.397.687.589l3.46-3.436c.172-4.746.467-9.49.91-14.218.098-1.056.207-2.112.331-3.166l-11.8 11.714Zm-.058-1.593.045 1.255 11.86-11.774c.06-.497.124-.993.191-1.49l-12.096 12.01Zm-.05-1.601c.012.42.024.84.038 1.261l9.341-9.272a.394.394 0 0 1-.142-.023c-.28-.1-.558-.202-.837-.305l-8.4 8.339Zm-.039-1.612c.009.424.018.847.03 1.27 2.717-2.697 5.435-5.393 8.15-8.092-.317-.117-.634-.235-.95-.355l-7.23 7.177Zm-.025-1.625c.005.427.01.854.019 1.28l6.98-6.929c-.316-.12-.63-.24-.945-.362l-6.054 6.01Zm-.009-1.642c0 .431.002.863.006 1.294l5.803-5.761a150.61 150.61 0 0 1-.937-.37l-4.872 4.837Zm.012-1.662c-.006.444-.01.862-.01 1.31l4.618-4.585c-.31-.124-.621-.25-.93-.376l-3.678 3.651ZM26.843 18.1c-2.158.557-3.43 2.733-4.388 4.573a31.38 31.38 0 0 0-1.95 4.572c-1.223 3.67-1.926 7.576-2.106 11.436a26.638 26.638 0 0 0 .024 3.077c.059.858.146 1.737.352 2.574a16.32 16.32 0 0 0 2.33 5.19c.218.318.424.642.766.842l.01-.657-.029.029.005-.356.032-.032c.01-.446.022-.891.037-1.337l-.039.04.011-.363.041-.04c.018-.454.037-.907.06-1.36l-.044.044.02-.37.045-.045c.026-.463.056-.925.089-1.388l-.048.048.027-.379.049-.048a81.983 81.983 0 0 1 .12-1.418l-.047.046.038-.388.045-.046c.047-.483.097-.967.153-1.45l-.037.036.05-.401c.012-.01.023-.022.033-.032.06-.499.125-.997.195-1.494l-.016.016.065-.415.011-.011c.358-2.404.858-4.79 1.584-7.096 1.028-3.274 2.59-6.349 4.999-8.837.38-.393.779-.769 1.192-1.126-.332-.76-.631-1.54-1.058-2.254-.604-1.008-1.483-1.474-2.621-1.18Zm-3.938 30.59c-.009.336-.017.673-.024 1.01l-.005.318 3.422-3.396-.924-.382-2.469 2.45Zm9.204-.884c.108.04.217.08.326.118.218.079.374.268.367.493l2.332-2.315c.071-.509.147-1.017.227-1.525l-3.252 3.23Zm-9.142-.828c-.02.45-.037.9-.051 1.35l1.956-1.94.253-.252c-.306-.129-.612-.259-.917-.39l-1.24 1.232Zm7.928.382c.318.119.636.236.955.352l3.579-3.553c.07-.43.144-.861.222-1.29l.051-.28-4.807 4.771Zm-1.204-.455.947.36.081-.081 5.064-5.027a64.64 64.64 0 0 1 .33-1.626l-6.422 6.374Zm-1.195-.464c.313.124.626.246.94.366l6.776-6.726c.13-.575.268-1.148.42-1.718l-8.136 8.078Zm-5.436-1.206c-.029.459-.054.917-.076 1.376l.99-.983c-.169-.146-.194-.44-.088-.62.148-.252.437-.285.685-.179l.145.062.155-.154L42.9 26.84l8.312-8.252c-.337-.108-.67-.207-1.01-.298L23.06 45.234Zm4.25.734c.31.125.621.25.933.373l8.521-8.46c.178-.633.371-1.26.585-1.88l-10.04 9.967Zm-1.178-.482c.308.128.617.254.926.38L37.541 35.46c.278-.76.59-1.507.938-2.23L26.132 45.486Zm-1.169-.49c.306.13.613.259.92.386L38.83 32.53a22.849 22.849 0 0 1 2.42-3.702c-5.428 5.39-10.857 10.78-16.287 16.169Zm-1.77-1.544c-.04.469-.076.938-.108 1.407 8.946-8.881 17.893-17.76 26.838-26.643a21.62 21.62 0 0 0-1.066-.242L23.192 43.453Zm.177-1.826c-.053.48-.1.96-.144 1.442l25.336-25.15c-.374-.07-.75-.13-1.128-.181L23.37 41.626Zm.232-1.881c-.068.494-.13.99-.187 1.485 7.902-7.843 15.803-15.688 23.705-23.533a22.423 22.423 0 0 0-1.197-.11l-22.32 22.158ZM44.307 17.54 23.9 37.797a62.694 62.694 0 0 0-.241 1.54l21.928-21.77a22.36 22.36 0 0 0-1.281-.027Zm-.36.005a22.82 22.82 0 0 0-1.384.075L24.274 35.776a64.275 64.275 0 0 0-.3 1.598l19.974-19.829Zm-1.775.113c-.51.053-1.018.123-1.523.212L24.754 33.65c-.14.56-.27 1.122-.388 1.685l17.806-17.677Zm-1.959.293c-.582.116-1.16.255-1.73.419L25.42 31.338c-.2.607-.38 1.221-.545 1.84l15.338-15.227Zm-2.238.572c-.718.226-1.423.491-2.111.796l-9.395 9.327a24.903 24.903 0 0 0-.87 2.163l12.376-12.286Zm-2.777 1.106a18.195 18.195 0 0 0-7.802 7.226c-.214.368-.416.742-.606 1.122l8.408-8.348Zm10.667 4.617c-1.223.857-2.45 1.985-3.648 3.451a23.871 23.871 0 0 1 3.905-3.445c.871-.613 1.742-1.224 2.72-1.662l3.594-3.568a21.33 21.33 0 0 0-.959-.348l-5.612 5.573Zm10.382-2.054c1.266.37 2.453.938 3.536 1.66-.31-.315-.63-.62-.96-.916l-.066.066a16.436 16.436 0 0 0-.251-.102l.13-.13a21.167 21.167 0 0 0-.71-.594l-.38.378a14.488 14.488 0 0 0-.27-.084l.453-.45a20.398 20.398 0 0 0-.75-.556l-.732.728Zm-6.803.152a9.983 9.983 0 0 1 1.79-.478l2.367-2.35c-.301-.138-.605-.27-.912-.394l-3.245 3.222Zm5.455-.465a12.353 12.353 0 0 1 1.072.236l.802-.796a20.77 20.77 0 0 0-.788-.517l-1.086 1.077Zm-1.506-.155c.401.014.803.05 1.201.107l1.173-1.164a21.3 21.3 0 0 0-.828-.478l-1.546 1.535Zm-1.743.08c.462-.06.929-.088 1.396-.086l1.664-1.652a21.241 21.241 0 0 0-.869-.438l-2.191 2.176Zm-4.507-5.096a23.21 23.21 0 0 1 2.93.53c-.309-1.466-2.029-1.56-2.93-.53Z" clip-rule="evenodd"/>
      </g>
    </g>
  </g>
</svg>
