<svg preserveAspectRatio="xMidYMid meet" width="100%" height="100%" overflow="visible" style="display: block;" viewBox="0 0 60 22.5" fill="none" xmlns="http://www.w3.org/2000/svg">
<g id="Logo">
<g id="Union">
<path fill-rule="evenodd" clip-rule="evenodd" d="M16.4754 0C17.8335 0 18.9344 1.08904 18.9344 2.43243V20.0676C18.9344 21.411 17.8335 22.5 16.4754 22.5H2.45902C1.10094 22.5 3.2182e-08 21.411 0 20.0676V2.43243C0 1.08904 1.10094 1.763e-08 2.45902 0H16.4754Z" fill="var(--fill-0, white)"/>
<path fill-rule="evenodd" clip-rule="evenodd" d="M37.0082 0C38.3663 0 39.4672 1.08904 39.4672 2.43243V20.0676C39.4672 21.411 38.3663 22.5 37.0082 22.5H22.9918C21.6337 22.5 20.5328 21.411 20.5328 20.0676V2.43243C20.5328 1.08904 21.6337 1.763e-08 22.9918 0H37.0082Z" fill="var(--fill-0, white)"/>
<path fill-rule="evenodd" clip-rule="evenodd" d="M57.541 0C58.8991 0 60 1.08904 60 2.43243V20.0676C60 21.411 58.8991 22.5 57.541 22.5H43.5246C42.1665 22.5 41.0656 21.411 41.0656 20.0676V2.43243C41.0656 1.08904 42.1665 1.763e-08 43.5246 0H57.541Z" fill="var(--fill-0, white)"/>
</g>
<g id="Union_2">
<path fill-rule="evenodd" clip-rule="evenodd" d="M16.4754 0C17.8335 0 18.9344 1.08904 18.9344 2.43243V20.0676C18.9344 21.411 17.8335 22.5 16.4754 22.5H2.45902C1.10094 22.5 3.2182e-08 21.411 0 20.0676V2.43243C0 1.08904 1.10094 1.763e-08 2.45902 0H16.4754ZM9.21555 4.9372C9.21555 5.05981 9.17972 5.24696 9.10797 5.49863C8.98402 5.91807 8.80134 6.25366 8.55997 6.50533C8.2077 6.87315 7.751 7.11838 7.18998 7.241C6.8377 7.31844 6.22114 7.37652 5.34044 7.41524V9.29313H8.6774V18.973H11.5348V4.9372H9.21555Z" fill="var(--fill-0, #014143)"/>
<path fill-rule="evenodd" clip-rule="evenodd" d="M37.0082 0C38.3663 0 39.4672 1.08904 39.4672 2.43243V20.0676C39.4672 21.411 38.3663 22.5 37.0082 22.5H22.9918C21.6337 22.5 20.5328 21.411 20.5328 20.0676V2.43243C20.5328 1.08904 21.6337 1.763e-08 22.9918 0H37.0082ZM29.7483 4.9372C29.7483 5.05981 29.7125 5.24696 29.6408 5.49863C29.5168 5.91807 29.3341 6.25366 29.0928 6.50533C28.7405 6.87315 28.2838 7.11838 27.7228 7.241C27.3705 7.31844 26.7539 7.37652 25.8732 7.41524V9.29313H29.2102V18.973H32.0676V4.9372H29.7483Z" fill="var(--fill-0, #014143)"/>
<path fill-rule="evenodd" clip-rule="evenodd" d="M57.541 0C58.8991 0 60 1.08904 60 2.43243V20.0676C60 21.411 58.8991 22.5 57.541 22.5H43.5246C42.1665 22.5 41.0656 21.411 41.0656 20.0676V2.43243C41.0656 1.08904 42.1665 1.763e-08 43.5246 0H57.541ZM50.3888 4.74788C49.6582 4.74788 49.0416 4.83493 48.5393 5.00917C48.037 5.1834 47.6032 5.4351 47.2378 5.7642C46.7486 6.22883 46.3898 6.73547 46.1614 7.284C45.9462 7.90995 45.8254 8.57137 45.7993 9.2683H48.4023C48.3892 8.57781 48.5361 8.02612 48.8427 7.61311C49.1558 7.2001 49.6418 6.9936 50.3007 6.9936C50.8748 6.9936 51.3184 7.16138 51.6315 7.49695C51.9512 7.83252 52.1111 8.26807 52.1111 8.80367C52.1111 9.62969 51.8012 10.1782 51.1814 10.4492C50.8226 10.6106 50.1898 10.6978 49.283 10.7107V12.6853C50.2094 12.6853 50.8878 12.7724 51.3184 12.9466C52.0752 13.2564 52.4535 13.8727 52.4535 14.7956C52.4535 15.4925 52.2481 16.0281 51.8371 16.4024C51.4326 16.7702 50.9564 16.9541 50.4084 16.9541C49.5147 16.9541 48.8981 16.6153 48.5589 15.9378C48.3762 15.57 48.2849 15.1053 48.2849 14.5439H45.5449C45.5905 15.6603 45.8189 16.5638 46.2299 17.2542C47.0127 18.5513 48.4088 19.1998 50.4181 19.1998C52.0491 19.1998 53.2788 18.7514 54.1074 17.8544C54.9424 16.9509 55.3599 15.9055 55.3599 14.7181C55.3599 13.5888 55.0043 12.6983 54.2932 12.0465C53.817 11.6141 53.4517 11.3979 53.1972 11.3979C53.5365 11.2688 53.8627 11.0269 54.1758 10.6719C54.6716 10.1041 54.9195 9.40708 54.9195 8.58109C54.9195 7.41307 54.502 6.48379 53.667 5.7933C52.8384 5.09636 51.7457 4.74789 50.3888 4.74788Z" fill="var(--fill-0, #014143)"/>
</g>
</g>
</svg>
