<svg xmlns="http://www.w3.org/2000/svg" fill="none" viewBox="0 0 80 80">
  <path fill="#FEF35D" d="M0 12C0 5.373 5.373 0 12 0h56c6.627 0 12 5.373 12 12v56c0 6.627-5.373 12-12 12H12C5.373 80 0 74.627 0 68V12Z"/>
  <path fill="#fff" fill-rule="evenodd" d="M26.475 29c1.358 0 2.46 1.089 2.46 2.432v17.636c0 1.343-1.101 2.432-2.46 2.432H12.46c-1.359 0-2.46-1.089-2.46-2.432V31.432C10 30.09 11.1 29 12.459 29h14.016Zm20.533 0c1.358 0 2.46 1.089 2.46 2.432v17.636c0 1.343-1.102 2.432-2.46 2.432H32.992c-1.358 0-2.46-1.089-2.46-2.432V31.432c0-1.343 1.102-2.432 2.46-2.432h14.016Zm20.533 0C68.899 29 70 30.089 70 31.432v17.636c0 1.343-1.1 2.432-2.459 2.432H53.525c-1.358 0-2.46-1.089-2.46-2.432V31.432c0-1.343 1.102-2.432 2.46-2.432H67.54Z" clip-rule="evenodd"/>
  <path fill="#014143" fill-rule="evenodd" d="M26.475 29c1.358 0 2.46 1.089 2.46 2.432v17.636c0 1.343-1.101 2.432-2.46 2.432H12.46c-1.359 0-2.46-1.089-2.46-2.432V31.432C10 30.09 11.1 29 12.459 29h14.016Zm-7.26 4.937c0 .123-.035.31-.107.562-.124.42-.307.755-.548 1.006-.352.368-.809.613-1.37.736-.352.077-.969.136-1.85.174v1.878h3.337v9.68h2.858V33.937h-2.32ZM47.008 29c1.358 0 2.46 1.089 2.46 2.432v17.636c0 1.343-1.102 2.432-2.46 2.432H32.992c-1.358 0-2.46-1.089-2.46-2.432V31.432c0-1.343 1.102-2.432 2.46-2.432h14.016Zm-7.26 4.937c0 .123-.035.31-.107.562-.124.42-.307.755-.548 1.006-.353.368-.81.613-1.37.736-.352.077-.97.136-1.85.174v1.878h3.337v9.68h2.858V33.937h-2.32ZM67.541 29C68.899 29 70 30.089 70 31.432v17.636c0 1.343-1.1 2.432-2.459 2.432H53.525c-1.358 0-2.46-1.089-2.46-2.432V31.432c0-1.343 1.102-2.432 2.46-2.432H67.54Zm-7.152 4.748c-.73 0-1.347.087-1.85.261a3.76 3.76 0 0 0-1.301.755c-.49.465-.848.971-1.077 1.52a6.859 6.859 0 0 0-.362 1.984h2.603c-.013-.69.134-1.242.44-1.655.314-.413.8-.62 1.459-.62.574 0 1.017.168 1.33.504.32.336.48.771.48 1.307 0 .826-.31 1.374-.93 1.645-.358.162-.991.249-1.898.262v1.974c.926 0 1.605.087 2.035.262.757.31 1.136.926 1.136 1.849 0 .697-.206 1.232-.617 1.606-.404.368-.88.552-1.429.552-.893 0-1.51-.339-1.85-1.016-.182-.368-.273-.833-.273-1.394h-2.74c.045 1.116.274 2.02.685 2.71.783 1.297 2.179 1.946 4.188 1.946 1.631 0 2.86-.449 3.69-1.346.834-.903 1.252-1.948 1.252-3.136 0-1.13-.356-2.02-1.067-2.672-.476-.432-.841-.648-1.096-.648.34-.13.666-.371.979-.726.496-.568.743-1.265.743-2.09 0-1.169-.417-2.098-1.252-2.789-.829-.697-1.921-1.045-3.278-1.045Z" clip-rule="evenodd"/>
</svg>
