<svg preserveAspectRatio="xMidYMid meet" width="100%" height="100%" overflow="visible" style="display: block;" viewBox="0 0 60 33" fill="none" xmlns="http://www.w3.org/2000/svg">
<g id="Logo">
<path fill-rule="evenodd" clip-rule="evenodd" d="M34.1522 27.3705C34.5002 27.3502 34.847 27.4303 35.1526 27.6003L36.1372 27.4051L36.1957 27.4656V27.9426H35.4902C35.5881 28.1407 35.637 28.3598 35.6327 28.5814V29.2375C35.6327 30.2268 34.9009 30.441 34.1522 30.441C34.0429 30.441 33.9424 30.4412 33.8415 30.4324C33.757 30.8573 33.8576 30.987 34.1595 30.9872C35.1266 30.9872 35.6911 31.0291 35.6912 31.9769C35.6912 32.9403 34.8916 33 34.1778 33C33.7002 32.9959 33.2231 32.9677 32.7484 32.9147V32.418L32.8057 32.3587C32.8057 32.3587 33.5379 32.4427 34.0681 32.4427C34.6648 32.4427 35.0771 32.384 35.0771 31.9757C35.0769 31.4721 34.4309 31.5148 33.9255 31.5148C33.1697 31.5146 33.2102 30.9864 33.387 30.3212C33.1632 30.2504 32.9701 30.1039 32.8386 29.9072C32.7072 29.7105 32.6451 29.4744 32.6631 29.2375V28.5814C32.6635 27.6527 33.4035 27.3706 34.1522 27.3705ZM34.1522 27.9413C33.6814 27.9413 33.2785 28.0785 33.2785 28.574V29.2116C33.2785 29.7397 33.6576 29.8763 34.1522 29.8763C34.6145 29.8763 35.0184 29.74 35.0186 29.2462V28.6407C35.0185 28.1117 34.6484 27.9414 34.1522 27.9413Z" fill="var(--fill-0, white)"/>
<path fill-rule="evenodd" clip-rule="evenodd" d="M48.358 27.3705C48.7059 27.3505 49.0529 27.4304 49.3584 27.6003L50.3418 27.4051L50.4015 27.4656V27.9426H49.6948C49.7924 28.1407 49.8414 28.3599 49.8373 28.5814L49.8385 29.2375C49.8385 30.2268 49.1067 30.441 48.358 30.441C48.249 30.441 48.1483 30.4412 48.0473 30.4324C47.9631 30.8575 48.0635 30.9872 48.3665 30.9872C49.3336 30.9872 49.8969 31.029 49.897 31.9769C49.897 32.9402 49.0984 33 48.3836 33C47.9062 32.9959 47.4288 32.9678 46.9542 32.9147V32.418L47.0127 32.3587C47.0127 32.3587 47.7444 32.4427 48.2739 32.4427C48.8716 32.4427 49.2841 32.384 49.2841 31.9757C49.284 31.4721 48.6355 31.5148 48.1301 31.5148C47.3732 31.5146 47.4154 30.9854 47.5915 30.3199C47.368 30.2491 47.1745 30.1039 47.0432 29.9072C46.912 29.7105 46.8507 29.4743 46.8689 29.2375V28.5814C46.8692 27.6525 47.6094 27.3705 48.358 27.3705ZM48.358 27.9413C47.8865 27.9414 47.4843 28.0785 47.4843 28.574V29.2116C47.4843 29.7396 47.8631 29.8763 48.358 29.8763C48.8204 29.8763 49.2242 29.74 49.2244 29.2462V28.6407C49.2243 28.1116 48.8547 27.9413 48.358 27.9413Z" fill="var(--fill-0, white)"/>
<path fill-rule="evenodd" clip-rule="evenodd" d="M4.60489 27.3705C5.35241 27.3705 6.08512 27.5934 6.08542 28.5814V30.3471C6.08542 31.3356 5.35431 31.5494 4.60489 31.5494C3.85546 31.5494 3.11582 31.2768 3.11582 30.3471V28.5814C3.11615 27.6525 3.85737 27.3705 4.60489 27.3705ZM4.60489 27.9413C4.10893 27.9413 3.73126 28.1113 3.73119 28.6407V30.2878C3.73119 30.8407 4.16027 30.9872 4.60489 30.9872C5.10089 30.9872 5.47249 30.8163 5.47249 30.2878V28.6407C5.47242 28.0957 5.05296 27.9413 4.60489 27.9413Z" fill="var(--fill-0, white)"/>
<path fill-rule="evenodd" clip-rule="evenodd" d="M12.4706 27.4211L12.4462 27.9673H12.4816C12.615 27.774 12.7945 27.6181 13.0031 27.5138C13.2117 27.4095 13.4434 27.3601 13.6757 27.3705C14.3137 27.3706 14.7846 27.6003 14.7846 28.5567V30.3471C14.7846 31.3019 14.0448 31.5493 13.3723 31.5494C12.9529 31.5494 12.2105 31.4891 11.9162 31.4629L11.8577 31.4036V25.8358H12.4706V27.4211ZM13.5125 27.9426C13.3082 27.9465 13.1073 27.9996 12.9263 28.0958C12.7454 28.192 12.5887 28.3292 12.4694 28.4974L12.4706 30.9353C12.7235 30.9611 13.093 30.9711 13.3443 30.9711C13.7637 30.9534 14.1692 30.8179 14.1693 30.2544V28.5826C14.1692 28.0546 13.9071 27.9426 13.5125 27.9426Z" fill="var(--fill-0, white)"/>
<path fill-rule="evenodd" clip-rule="evenodd" d="M17.3679 27.3705C18.0062 27.3705 18.7314 27.5417 18.7315 28.4961L18.7351 31.4629H18.1783L18.1198 31.4036L18.1368 30.9513H18.1027C17.9712 31.1452 17.7927 31.3027 17.5848 31.4073C17.3769 31.5119 17.1453 31.5606 16.9134 31.5494C16.2997 31.5493 15.7607 31.3273 15.7607 30.3718C15.7607 29.4085 16.4757 29.1349 17.1657 29.1349H18.1149V28.5888C18.1148 28.0956 17.7278 27.9413 17.2571 27.9413C16.8829 27.9469 16.5091 27.9762 16.1384 28.0278L16.0812 27.9673V27.4557C16.5078 27.3994 16.9377 27.3713 17.3679 27.3705ZM17.4069 29.6737C16.8017 29.6737 16.3809 29.7595 16.3809 30.3471C16.3811 30.876 16.7257 30.9847 17.1133 30.9847C17.3094 30.9866 17.5033 30.9415 17.6787 30.8525C17.8541 30.7635 18.0061 30.6334 18.1222 30.4731V29.6737H17.4069Z" fill="var(--fill-0, white)"/>
<path fill-rule="evenodd" clip-rule="evenodd" d="M30.1992 27.3705C30.9468 27.3705 31.6807 27.5933 31.681 28.5814V30.3471C31.681 31.3356 30.9487 31.5494 30.1992 31.5494C29.45 31.5492 28.7126 31.2766 28.7126 30.3471V28.5814C28.7129 27.6528 29.4519 27.3706 30.1992 27.3705ZM30.1992 27.9413C29.7036 27.9415 29.3256 28.1115 29.3255 28.6407V30.2878C29.3255 30.8405 29.7531 30.987 30.1992 30.9872C30.6959 30.9872 31.0668 30.8163 31.0668 30.2878V28.6407C31.0668 28.0957 30.647 27.9413 30.1992 27.9413Z" fill="var(--fill-0, white)"/>
<path d="M41.5987 31.4629H41.0431L40.9846 31.4036L41.0016 30.9513H40.9663C40.8354 31.1451 40.6583 31.3027 40.4509 31.4073C40.2433 31.5119 40.0121 31.5606 39.7807 31.5494C39.1422 31.5493 38.6279 31.3273 38.6279 30.3718L38.6291 27.4557H39.2421V30.3471C39.2422 30.8761 39.5471 30.9847 39.95 30.9847C40.1529 30.9794 40.3519 30.9264 40.5313 30.8302C40.7107 30.734 40.8661 30.597 40.9846 30.4299V27.4533H41.5987V31.4629Z" fill="var(--fill-0, white)"/>
<path fill-rule="evenodd" clip-rule="evenodd" d="M52.5632 27.3717C53.3111 27.3718 54.0437 27.6014 54.0437 28.5913C54.0417 28.9255 54.0169 29.2591 53.9682 29.5897L53.8829 29.6737H51.6883V30.2779C51.6883 30.8927 52.1425 30.9698 52.6132 30.9699C52.9679 30.966 53.3224 30.9378 53.6733 30.8846L53.733 30.9451V31.4641C53.3175 31.5217 52.8985 31.5496 52.4791 31.5494C51.8064 31.5494 51.0731 31.3535 51.0729 30.399V28.5913C51.0729 27.6619 51.8152 27.3717 52.5632 27.3717ZM52.5632 27.9413C52.1006 27.9413 51.6886 28.0609 51.6883 28.6481V29.1362H53.3711C53.3996 28.947 53.4138 28.7554 53.4138 28.5641C53.4043 28.0708 53.0098 27.9414 52.5632 27.9413Z" fill="var(--fill-0, white)"/>
<path d="M24.7304 27.3705C25.3696 27.3705 25.8831 27.6001 25.8831 28.5567V31.4629H25.269V28.5814C25.2688 28.0538 24.9664 27.9426 24.5695 27.9426C24.3652 27.9466 24.1644 27.9983 23.9834 28.0945C23.8024 28.1908 23.646 28.3292 23.5265 28.4974V31.4641H22.9123V27.4557H23.4692L23.5265 27.5163L23.5094 27.9673H23.5448C23.6761 27.7739 23.854 27.617 24.0614 27.5126C24.2687 27.4082 24.4992 27.3597 24.7304 27.3705Z" fill="var(--fill-0, white)"/>
<path d="M44.6512 27.3705C45.2907 27.3705 45.8039 27.6002 45.8039 28.5567L45.8015 31.4629H45.1886V28.5826C45.1886 28.0546 44.888 27.9426 44.4903 27.9426C44.2861 27.9464 44.0851 27.9982 43.9042 28.0945C43.7234 28.1908 43.5676 28.3291 43.4485 28.4974V31.4641H42.8331V27.4557H43.3888L43.4485 27.5163L43.4302 27.9673H43.4655C43.5966 27.7739 43.7738 27.617 43.981 27.5126C44.1885 27.408 44.4198 27.3595 44.6512 27.3705Z" fill="var(--fill-0, white)"/>
<path d="M1.88265 25.7506C2.10034 25.7506 2.3178 25.7754 2.5297 25.8259V26.3041L2.47121 26.3634C2.30992 26.3346 2.14635 26.3209 1.98257 26.3214C1.67114 26.3214 1.45231 26.4655 1.46104 26.8923V27.4557H2.36154V28.0019H1.46226V31.4629H0.848108V28.0019H0.428928V27.4557H0.848108V26.8923C0.84812 26.0826 1.26005 25.7507 1.88265 25.7506Z" fill="var(--fill-0, white)"/>
<path d="M9.172 27.3705V27.9426L9.11229 28.0019C8.87722 27.9812 8.6404 28.0167 8.42137 28.1057C8.20253 28.1946 8.00697 28.334 7.85109 28.5134V31.4629H7.23695V27.4557H7.7926L7.85109 27.5163L7.83403 27.9673H7.86937C8.01377 27.7586 8.21057 27.5929 8.43965 27.4878C8.66887 27.3828 8.922 27.3424 9.172 27.3705Z" fill="var(--fill-0, white)"/>
<path d="M21.9034 27.3705V27.9426L21.8461 28.0019C21.6113 27.9813 21.3752 28.0168 21.1564 28.1057C20.9376 28.1946 20.742 28.3341 20.5861 28.5134V31.4629H19.9708V27.4557H20.5252L20.5849 27.5163L20.5678 27.9673H20.6007C20.7454 27.7588 20.942 27.5929 21.171 27.4878C21.4002 27.3829 21.6534 27.3428 21.9034 27.3705Z" fill="var(--fill-0, white)"/>
<path fill-rule="evenodd" clip-rule="evenodd" d="M44.9254 18.1144C45.0832 18.1143 45.2409 18.1332 45.3945 18.17C45.5453 18.2036 45.688 18.268 45.8137 18.359C45.9404 18.4559 46.0434 18.5816 46.1134 18.726C46.1966 18.9093 46.2359 19.11 46.2292 19.3117V22.402C46.2361 22.6039 46.1969 22.8054 46.1134 22.9889C46.0438 23.1333 45.9408 23.2586 45.8137 23.3547C45.6886 23.4469 45.5457 23.5118 45.3945 23.5449C45.2409 23.5813 45.0831 23.5999 44.9254 23.6006H44.0419C43.8822 23.6006 43.7222 23.5819 43.5667 23.5449C43.4168 23.5115 43.2749 23.4467 43.1512 23.3547C43.024 23.2588 42.9209 23.1334 42.8514 22.9889C42.7673 22.8058 42.7277 22.6051 42.7344 22.4032V19.3117C42.7278 19.1098 42.7674 18.9091 42.8514 18.726C42.9214 18.5815 43.0243 18.4557 43.1512 18.359C43.2755 18.2683 43.4172 18.2038 43.5667 18.17C43.7221 18.1326 43.8822 18.1137 44.0419 18.1144H44.9254ZM44.2917 19.0522C44.2165 19.0512 44.1406 19.0571 44.0663 19.0695C44.0021 19.0796 43.9418 19.1074 43.892 19.1498C43.8373 19.1982 43.7962 19.2614 43.7738 19.3314C43.744 19.4348 43.7306 19.5426 43.7336 19.6502V22.0647C43.7305 22.1724 43.745 22.28 43.7751 22.3835C43.7971 22.4524 43.8357 22.5149 43.8884 22.5639C43.9361 22.6076 43.9958 22.6367 44.059 22.6491C44.1329 22.6635 44.208 22.6713 44.2832 22.6701H44.6829C44.7583 22.6713 44.8342 22.6635 44.9083 22.6491C44.9712 22.6367 45.0301 22.6075 45.0777 22.5639C45.1302 22.5148 45.1692 22.4525 45.191 22.3835C45.2214 22.2801 45.2345 22.1725 45.2312 22.0647V19.6502C45.2345 19.5425 45.2213 19.4347 45.191 19.3314C45.1692 19.2613 45.1286 19.1982 45.074 19.1498C45.0227 19.1069 44.9607 19.0791 44.8949 19.0695C44.8193 19.0573 44.7424 19.0513 44.6658 19.0522H44.2917Z" fill="var(--fill-0, white)"/>
<path fill-rule="evenodd" clip-rule="evenodd" d="M14.7956 18.1996C14.9538 18.2005 15.1117 18.2194 15.2659 18.2552C15.4185 18.2895 15.5626 18.3562 15.6863 18.4529C15.8159 18.5572 15.9178 18.6925 15.9849 18.8458C16.07 19.047 16.1109 19.2647 16.1031 19.4834V20.0815C16.1188 20.3851 16.0507 20.687 15.9069 20.9538C15.7535 21.1813 15.5197 21.3409 15.2538 21.3974L16.3115 23.5165H15.1453L14.1473 21.4493H13.6063V23.5165H12.6083V18.1996H14.7956ZM13.6051 20.5201H14.731C14.8228 20.5131 14.912 20.4843 14.9918 20.4361C15.0358 20.3895 15.0686 20.3332 15.088 20.2718C15.1074 20.2104 15.1129 20.1453 15.1039 20.0815V19.5662C15.1038 19.3866 15.0659 19.269 14.9881 19.2128C14.9053 19.1638 14.8124 19.1347 14.7176 19.1276H13.6051V20.5201Z" fill="var(--fill-0, white)"/>
<path fill-rule="evenodd" clip-rule="evenodd" d="M4.07604 23.5153H2.94523L2.5955 21.8781H1.45616L1.12959 23.5153H0L1.31481 18.1576H2.76123L4.07604 23.5153ZM1.60483 20.9501H2.43831L2.03741 19.0423L1.60483 20.9501Z" fill="var(--fill-0, white)"/>
<path d="M5.69914 22.5886H7.69634V23.5153H4.70115V18.1984H5.69914V22.5886Z" fill="var(--fill-0, white)"/>
<path fill-rule="evenodd" clip-rule="evenodd" d="M11.982 23.5153H10.8512L10.5014 21.8781H9.36087L9.03674 23.5153H7.90349L9.21952 18.1576H10.6672L11.982 23.5153ZM9.51197 20.9501H10.343L9.94456 19.0423L9.51197 20.9501Z" fill="var(--fill-0, white)"/>
<path d="M19.4736 20.5609L20.5142 18.1984H21.6792V23.5153H20.6812V20.3496L19.7478 22.3353H19.1982L18.2672 20.3496V23.5153H17.2692V18.1984H18.4329L19.4736 20.5609Z" fill="var(--fill-0, white)"/>
<path d="M25.8003 19.1276H24.5501V23.5153H23.5508V19.1276H22.3043V18.1984H25.8003V19.1276Z" fill="var(--fill-0, white)"/>
<path d="M31.7078 22.5886H33.705V23.5153H30.7074V18.1984H31.7078V22.5886Z" fill="var(--fill-0, white)"/>
<path d="M49.8519 21.5321V18.1984H50.8499V23.5153H49.685L48.2703 20.6029V23.5153H47.2711V18.1984H48.2703L49.8519 21.5321Z" fill="var(--fill-0, white)"/>
<path d="M58.7571 21.5321V18.1984H59.7551V23.5153H58.5901L57.1766 20.6029V23.5153H56.1762V18.1984H57.1766L58.7571 21.5321Z" fill="var(--fill-0, white)"/>
<path d="M29.752 19.1276H27.4209V20.3076H29.2524V21.2356H27.4209V22.5861H29.752V23.5141H26.423V18.1971H29.752V19.1276Z" fill="var(--fill-0, white)"/>
<path d="M37.6592 19.1276H35.3305L35.3293 20.3076H37.1584V21.2356H35.3293V22.5861H37.6592V23.5141H34.3301V18.1971H37.6592V19.1276Z" fill="var(--fill-0, white)"/>
<path d="M41.9448 19.1276H39.6137V20.3076H41.4452V21.2356H39.6137V23.5141H38.6145V18.1971H41.9448V19.1276Z" fill="var(--fill-0, white)"/>
<path d="M55.2196 19.1276H52.8886V20.3076H54.72V21.2356H52.8886V22.5861H55.2196V23.5141H51.8906V18.1971H55.2196V19.1276Z" fill="var(--fill-0, white)"/>
<path fill-rule="evenodd" clip-rule="evenodd" d="M22.5894 0C23.0492 0 23.5571 0.0122036 24.1126 0.0358333C24.6678 0.0594514 25.1825 0.0851029 25.6565 0.113678C26.2188 0.15904 26.7755 0.196522 27.3235 0.227356V2.54787L27.1687 2.70603C26.739 2.67602 26.3017 2.63872 25.8576 2.59359C25.4715 2.56358 25.0636 2.53719 24.6341 2.51451C24.2048 2.49183 23.8193 2.48091 23.4777 2.48115C23.1471 2.47863 22.8165 2.4967 22.4883 2.53675C22.2241 2.56516 21.9695 2.65435 21.7437 2.79623C21.5346 2.93372 21.3687 3.12937 21.2661 3.35968C21.1424 3.66667 21.0855 3.9971 21.0991 4.32842V5.90632C21.4982 5.72595 21.9307 5.63381 22.3676 5.63571H24.0578C24.4801 5.63689 24.9012 5.68588 25.3129 5.78152C25.7171 5.87178 26.099 6.04455 26.4351 6.28936C26.7749 6.54665 27.0498 6.88274 27.2357 7.26922C27.4589 7.7595 27.565 8.29633 27.5465 8.836V11.4506C27.5653 11.9901 27.4594 12.5274 27.2357 13.0174C27.0498 13.4044 26.7749 13.7404 26.4351 13.9985C26.0984 14.2422 25.7168 14.4154 25.3129 14.5063C24.9012 14.6022 24.4802 14.6507 24.0578 14.6521H21.9216C21.4952 14.652 21.0699 14.6035 20.6544 14.5063C20.2548 14.4135 19.8776 14.2404 19.5443 13.9985C19.2042 13.7407 18.9291 13.4046 18.7437 13.0174C18.5199 12.5275 18.4139 11.9901 18.4329 11.4506V2.97664C18.408 2.4346 18.5515 1.89788 18.8436 1.44322C19.1088 1.06032 19.464 0.749872 19.8769 0.541206C20.3009 0.32817 20.7555 0.183577 21.2234 0.112442C21.6753 0.0398627 22.1319 0.00241893 22.5894 0ZM22.587 8.13787C22.3862 8.13636 22.1857 8.1519 21.9874 8.18358C21.8159 8.21052 21.6545 8.28397 21.5207 8.39611C21.376 8.52631 21.2681 8.6937 21.2088 8.88048C21.1263 9.1582 21.0889 9.44816 21.0991 9.73801V10.5486C21.0895 10.8384 21.128 11.1287 21.2112 11.4061C21.2691 11.5904 21.3723 11.7565 21.511 11.8892C21.64 12.0044 21.7969 12.083 21.9655 12.1166C22.163 12.1556 22.3639 12.1737 22.565 12.171H23.4107C23.6118 12.1736 23.8128 12.1556 24.0102 12.1166C24.1793 12.0828 24.3362 12.0042 24.466 11.8892C24.6039 11.7559 24.7077 11.5902 24.7657 11.4061C24.8499 11.1289 24.8878 10.8385 24.8778 10.5486V9.73801C24.8877 9.44795 24.8499 9.15789 24.7657 8.88048C24.7064 8.69399 24.5991 8.5267 24.455 8.39611C24.3178 8.28279 24.1525 8.20938 23.9773 8.18358C23.7755 8.15225 23.571 8.13673 23.3668 8.13787H22.587Z" fill="var(--fill-0, white)"/>
<path d="M5.20563 12.1734H7.31859V14.4248H0.42771V12.1734H2.53945V2.47991H0.42771V0.22612H5.20563V12.1734Z" fill="var(--fill-0, white)"/>
<path d="M13.9865 12.1734H16.0994V14.4248H9.20734V12.1734H11.3191V2.47991H9.20734V0.22612H13.9865V12.1734Z" fill="var(--fill-0, white)"/>
<path d="M40.329 12.1734H42.4407L42.4395 14.4248H35.5487V12.1734H37.6616V2.47991H35.5487V0.22612H40.329V12.1734Z" fill="var(--fill-0, white)"/>
<path d="M49.1074 12.1734H51.2204V14.4248H44.3283V12.1734H46.4388V2.47991H44.3283V0.22612H49.1074V12.1734Z" fill="var(--fill-0, white)"/>
<path d="M57.8858 12.1734H59.9988L60 14.4248H53.1091V12.1734H55.2184V2.47991H53.1079V0.22612H57.8858V12.1734Z" fill="var(--fill-0, white)"/>
</g>
</svg>
