<svg xmlns="http://www.w3.org/2000/svg" fill="none" viewBox="0 0 80 80">
  <path fill="#D04620" d="M0 12C0 5.373 5.373 0 12 0h56c6.627 0 12 5.373 12 12v56c0 6.627-5.373 12-12 12H12C5.373 80 0 74.627 0 68V12Z"/>
  <path fill="#fff" fill-rule="evenodd" d="M44.152 58.37c.348-.02.695.06 1 .23l.985-.195.059.06v.478h-.706c.098.198.147.417.143.638v.656c0 .99-.732 1.204-1.48 1.204-.11 0-.21 0-.311-.009-.085.425.016.555.318.555.967 0 1.531.042 1.531.99 0 .963-.8 1.023-1.513 1.023a13.962 13.962 0 0 1-1.43-.085v-.497l.058-.06s.732.085 1.262.085c.597 0 1.01-.059 1.01-.467-.001-.504-.647-.461-1.153-.461-.755 0-.715-.529-.538-1.194a1.037 1.037 0 0 1-.548-.414 1.062 1.062 0 0 1-.176-.67v-.656c0-.928.74-1.21 1.49-1.21Zm0 .571c-.47 0-.873.137-.873.633v.638c0 .528.379.664.873.664.462 0 .866-.136.867-.63v-.605c0-.53-.37-.7-.867-.7Zm14.206-.571c.348-.02.695.06 1 .23l.984-.195.06.06v.478h-.707c.097.198.146.417.142.638l.002.656c0 .99-.732 1.204-1.481 1.204-.109 0-.21 0-.31-.009-.085.425.015.555.319.555.967 0 1.53.042 1.53.99 0 .963-.799 1.023-1.513 1.023a13.935 13.935 0 0 1-1.43-.085v-.497l.059-.06s.731.085 1.26.085c.599 0 1.011-.059 1.011-.467 0-.504-.648-.461-1.154-.461-.757 0-.715-.53-.538-1.195a1.035 1.035 0 0 1-.549-.413 1.061 1.061 0 0 1-.174-.67v-.656c0-.928.74-1.21 1.489-1.21Zm0 .571c-.471 0-.874.137-.874.633v.638c0 .528.38.664.874.664.462 0 .866-.136.866-.63v-.605c0-.53-.37-.7-.866-.7Zm-43.753-.571c.747 0 1.48.223 1.48 1.211v1.766c0 .989-.73 1.202-1.48 1.202s-1.49-.272-1.49-1.202v-1.766c.001-.928.742-1.21 1.49-1.21Zm0 .571c-.496 0-.874.17-.874.7v1.647c0 .553.43.7.874.7.496 0 .867-.172.867-.7V59.64c0-.545-.419-.7-.867-.7Zm7.865-.52-.024.546h.036a1.368 1.368 0 0 1 1.194-.597c.638 0 1.109.23 1.109 1.187v1.79c0 .955-.74 1.202-1.413 1.202-.42 0-1.162-.06-1.456-.086l-.058-.06v-5.567h.613v1.585Zm1.043.522a1.32 1.32 0 0 0-1.043.555v2.437c.254.026.623.036.874.036.42-.018.825-.153.825-.717v-1.671c0-.528-.262-.64-.657-.64Zm3.855-.573c.638 0 1.363.172 1.364 1.126l.003 2.967h-.557l-.058-.06.017-.452h-.034a1.35 1.35 0 0 1-1.19.598c-.613 0-1.152-.222-1.152-1.177 0-.964.715-1.237 1.405-1.237h.949v-.546c0-.493-.387-.648-.858-.648a9.105 9.105 0 0 0-1.119.087l-.057-.06v-.512a9.977 9.977 0 0 1 1.287-.086Zm.039 2.304c-.605 0-1.026.086-1.026.673 0 .529.345.638.732.638a1.223 1.223 0 0 0 1.01-.512v-.8h-.716ZM40.2 58.37c.747 0 1.48.223 1.481 1.211v1.766c0 .989-.732 1.202-1.482 1.202-.749 0-1.486-.272-1.486-1.202v-1.766c0-.928.739-1.21 1.486-1.21Zm0 .571c-.496 0-.874.17-.875.7v1.647c0 .553.428.699.874.7.497 0 .868-.172.868-.7V59.64c0-.545-.42-.7-.868-.7Z" clip-rule="evenodd"/>
  <path fill="#fff" d="M51.599 62.463h-.556l-.058-.06.017-.452h-.036a1.346 1.346 0 0 1-1.186.598c-.638 0-1.152-.222-1.152-1.177l.001-2.916h.613v2.891c0 .53.305.638.708.638a1.302 1.302 0 0 0 1.035-.555v-2.977h.614v4.01Z"/>
  <path fill="#fff" fill-rule="evenodd" d="M62.563 58.372c.748 0 1.48.23 1.48 1.22a7.143 7.143 0 0 1-.075.998l-.085.084h-2.195v.604c0 .615.454.692.925.692.355-.004.71-.032 1.06-.085l.06.06v.52a9.1 9.1 0 0 1-1.254.084c-.673 0-1.406-.196-1.406-1.15v-1.808c0-.93.742-1.22 1.49-1.22Zm0 .57c-.462 0-.874.119-.875.706v.488h1.683c.029-.189.043-.38.043-.572-.01-.493-.404-.623-.85-.623Z" clip-rule="evenodd"/>
  <path fill="#fff" d="M34.73 58.37c.64 0 1.153.23 1.153 1.187v2.906h-.614V59.58c0-.527-.303-.638-.7-.638a1.303 1.303 0 0 0-1.043.554v2.967h-.614v-4.008h.557l.057.06-.017.451h.036a1.347 1.347 0 0 1 1.186-.597Zm19.921 0c.64 0 1.153.23 1.153 1.187l-.003 2.906h-.612v-2.88c0-.528-.301-.64-.699-.64a1.299 1.299 0 0 0-1.041.554v2.967h-.616v-4.008h.556l.06.06-.019.451h.035a1.348 1.348 0 0 1 1.186-.597Zm-42.768-1.62c.217 0 .435.025.647.076v.478l-.059.06a2.732 2.732 0 0 0-.488-.043c-.312 0-.53.145-.522.571v.564h.9v.546h-.899v3.46h-.614v-3.46h-.42v-.546h.42v-.564c0-.81.412-1.141 1.035-1.141Zm7.289 1.62v.573l-.06.059a1.488 1.488 0 0 0-1.26.511v2.95h-.615v-4.007h.556l.058.06-.017.451h.035a1.386 1.386 0 0 1 1.303-.597Zm12.731 0v.573l-.057.059a1.508 1.508 0 0 0-1.26.511v2.95h-.615v-4.007h.554l.06.06-.017.451h.033a1.391 1.391 0 0 1 1.303-.597Z"/>
  <path fill="#fff" fill-rule="evenodd" d="M54.925 49.114c.158 0 .316.02.47.056.15.034.293.098.419.189.126.097.23.223.3.367.083.183.122.384.115.586v3.09a1.31 1.31 0 0 1-.116.587c-.07.144-.172.27-.3.366a1.105 1.105 0 0 1-.419.19 2.077 2.077 0 0 1-.469.056h-.883c-.16 0-.32-.02-.475-.056a1.096 1.096 0 0 1-.416-.19 1.003 1.003 0 0 1-.3-.366 1.3 1.3 0 0 1-.117-.586v-3.091a1.302 1.302 0 0 1 .117-.586 1.021 1.021 0 0 1 .716-.556 2.05 2.05 0 0 1 .475-.056h.883Zm-.633.938a1.271 1.271 0 0 0-.226.017.354.354 0 0 0-.174.08.41.41 0 0 0-.118.182 1.05 1.05 0 0 0-.04.32v2.414c-.004.107.011.215.041.319a.42.42 0 0 0 .113.18.354.354 0 0 0 .171.085c.074.014.149.022.224.021h.4c.075.001.151-.007.225-.02a.351.351 0 0 0 .17-.086.42.42 0 0 0 .113-.18 1.05 1.05 0 0 0 .04-.32V50.65a1.022 1.022 0 0 0-.04-.319.36.36 0 0 0-.296-.262 1.342 1.342 0 0 0-.23-.017h-.373ZM24.796 49.2c.158 0 .316.02.47.055.153.034.297.101.42.198.13.104.232.24.299.393a1.5 1.5 0 0 1 .118.637v.599c.016.303-.052.605-.196.872a1.054 1.054 0 0 1-.653.443l1.057 2.12h-1.166l-.998-2.068h-.54v2.068h-.999V49.2h2.188Zm-1.19 2.32h1.125a.591.591 0 0 0 .26-.084.426.426 0 0 0 .113-.355v-.515c0-.18-.038-.297-.116-.353a.623.623 0 0 0-.27-.085h-1.113v1.392Zm-9.53 2.995h-1.13l-.35-1.637h-1.14l-.326 1.637H10l1.315-5.357h1.446l1.315 5.357Zm-2.471-2.565h.833l-.4-1.908-.433 1.908Z" clip-rule="evenodd"/>
  <path fill="#fff" d="M15.7 53.589h1.996v.926h-2.995v-5.317h.998v4.39Z"/>
  <path fill="#fff" fill-rule="evenodd" d="M21.982 54.515h-1.13l-.35-1.637H19.36l-.324 1.637h-1.133l1.316-5.357h1.447l1.315 5.357Zm-2.47-2.565h.831l-.398-1.908-.433 1.908Z" clip-rule="evenodd"/>
  <path fill="#fff" d="m29.474 51.56 1.04-2.362h1.165v5.317h-.998V51.35l-.933 1.985h-.55l-.93-1.985v3.165h-.999v-5.317h1.164l1.04 2.363Zm6.326-1.432h-1.25v4.387h-1v-4.387h-1.246v-.93H35.8v.93Zm5.908 3.461h1.997v.926h-2.998v-5.317h1v4.39Zm18.144-1.057v-3.334h.998v5.317h-1.165l-1.415-2.912v2.912h-.999v-5.317h1l1.58 3.334Zm8.905 0v-3.334h.998v5.317H68.59l-1.413-2.912v2.912h-1v-5.317h1l1.58 3.334Zm-29.005-2.404h-2.331v1.18h1.831v.928h-1.831v1.35h2.331v.928h-3.329v-5.317h3.329v.93Zm7.908 0h-2.33v1.18h1.828v.928H45.33v1.35h2.33v.928h-3.33v-5.317h3.33v.93Zm4.285 0h-2.331v1.18h1.831v.928h-1.831v2.278h-1v-5.317h3.33v.93Zm13.275 0h-2.331v1.18h1.831v.928h-1.831v1.35h2.33v.928h-3.328v-5.317h3.329v.93Z"/>
  <path fill="#fff" fill-rule="evenodd" d="M32.59 31c.46 0 .967.012 1.523.036.555.023 1.07.05 1.544.078.562.045 1.119.082 1.667.113v2.32l-.155.159a41.78 41.78 0 0 1-1.311-.112c-.386-.03-.794-.057-1.224-.08-.43-.022-.815-.033-1.156-.033a7.68 7.68 0 0 0-.99.056 1.752 1.752 0 0 0-.744.26c-.21.137-.375.332-.478.563-.124.307-.18.637-.167.968v1.578c.4-.18.832-.272 1.269-.27h1.69c.422 0 .843.05 1.255.145.404.09.786.264 1.122.508.34.258.615.594.8.98.224.49.33 1.027.312 1.567v2.615a3.483 3.483 0 0 1-.311 1.566 2.7 2.7 0 0 1-.8.981 3.061 3.061 0 0 1-1.123.508 5.614 5.614 0 0 1-1.255.146h-2.136c-.427 0-.852-.049-1.268-.146a3.075 3.075 0 0 1-1.11-.508 2.688 2.688 0 0 1-.8-.98 3.478 3.478 0 0 1-.311-1.567v-8.474a2.616 2.616 0 0 1 .41-1.534 2.798 2.798 0 0 1 1.034-.902 4.512 4.512 0 0 1 1.346-.429c.452-.072.909-.11 1.366-.112Zm-.003 8.138c-.2-.002-.401.014-.6.046a.958.958 0 0 0-.466.212 1.1 1.1 0 0 0-.312.484c-.083.278-.12.568-.11.858v.81c-.01.29.029.58.112.858.058.184.161.35.3.483a.966.966 0 0 0 .454.228c.198.039.399.057.6.054h.846a2.9 2.9 0 0 0 .6-.054.976.976 0 0 0 .455-.228c.138-.133.242-.299.3-.483a2.64 2.64 0 0 0 .112-.857v-.811c.01-.29-.028-.58-.112-.858a1.106 1.106 0 0 0-.311-.484.973.973 0 0 0-.478-.212 3.84 3.84 0 0 0-.61-.046h-.78Z" clip-rule="evenodd"/>
  <path fill="#fff" d="M15.206 43.173h2.113v2.252h-6.891v-2.252h2.111V33.48h-2.111v-2.254h4.778v11.947Zm8.78 0H26.1v2.252h-6.892v-2.252h2.112V33.48h-2.112v-2.254h4.78v11.947Zm26.343 0h2.112l-.002 2.252h-6.89v-2.252h2.113V33.48h-2.113v-2.254h4.78v11.947Zm8.778 0h2.113v2.252h-6.892v-2.252h2.11V33.48h-2.11v-2.254h4.78v11.947Zm8.779 0h2.113L70 45.425h-6.89v-2.252h2.108V33.48h-2.11v-2.254h4.778v11.947Z"/>
</svg>
