<svg xmlns="http://www.w3.org/2000/svg" fill="none" viewBox="0 0 80 80">
  <path fill="#341221" d="M0 12C0 5.373 5.373 0 12 0h56c6.627 0 12 5.373 12 12v56c0 6.627-5.373 12-12 12H12C5.373 80 0 74.627 0 68V12Z"/>
  <path fill="#fff" fill-rule="evenodd" d="M13.345 49.275a.42.42 0 0 1 .231.069c.071.045.123.11.156.193l1.458 3.43 1.459 3.43a.429.429 0 0 1 0 .33.415.415 0 0 1-.232.232.369.369 0 0 1-.165.039.444.444 0 0 1-.236-.068.381.381 0 0 1-.16-.194l-.763-1.805h-3.506l-.764 1.805a.413.413 0 0 1-.231.233.39.39 0 0 1-.328-.01.413.413 0 0 1-.233-.232.396.396 0 0 1 .01-.33l.87-2.067 2.037-4.793a.385.385 0 0 1 .156-.193.435.435 0 0 1 .24-.069Zm-1.39 4.793h2.77l-1.38-3.26-1.39 3.26Zm22.157-4.793a.42.42 0 0 1 .233.069c.07.045.121.11.154.193l1.46 3.43 1.457 3.43a.42.42 0 0 1 0 .33.415.415 0 0 1-.231.232.37.37 0 0 1-.164.039.443.443 0 0 1-.237-.068.377.377 0 0 1-.16-.194l-.763-1.805h-3.506l-.763 1.805a.413.413 0 0 1-.232.233.39.39 0 0 1-.329-.01.412.412 0 0 1-.231-.232.391.391 0 0 1 .01-.33l.869-2.067 2.038-4.793a.385.385 0 0 1 .154-.193.438.438 0 0 1 .241-.069Zm-1.39 4.793h2.772l-1.382-3.26-1.39 3.26Zm33.941-4.793a.42.42 0 0 1 .232.069.39.39 0 0 1 .154.193l2.918 6.86a.42.42 0 0 1 0 .33.415.415 0 0 1-.233.232.365.365 0 0 1-.164.039.443.443 0 0 1-.236-.068.376.376 0 0 1-.16-.194l-.763-1.805h-3.507l-.762 1.805a.414.414 0 0 1-.56.223.41.41 0 0 1-.232-.232.392.392 0 0 1 .01-.33l.869-2.067 2.038-4.793a.389.389 0 0 1 .155-.193.434.434 0 0 1 .241-.069Zm-1.391 4.793h2.772l-1.38-3.26-1.392 3.26Z" clip-rule="evenodd"/>
  <path fill="#fff" d="M27.062 49.344c.115 0 .215.042.298.126a.411.411 0 0 1 .126.3v6.8a.414.414 0 0 1-.126.302.41.41 0 0 1-.298.126.412.412 0 0 1-.3-.126.41.41 0 0 1-.125-.302v-5.053l-2.531 5.238a.471.471 0 0 1-.165.175.411.411 0 0 1-.222.067.407.407 0 0 1-.222-.067.473.473 0 0 1-.164-.175l-2.531-5.238v5.053a.421.421 0 0 1-.425.428.412.412 0 0 1-.3-.126.412.412 0 0 1-.125-.302v-6.8a.41.41 0 0 1 .125-.3.409.409 0 0 1 .3-.126c.174 0 .303.077.387.232l2.955 6.025 2.956-6.025a.412.412 0 0 1 .387-.232Zm25.033 0a.42.42 0 0 1 .308.126.41.41 0 0 1 .126.3v6.8a.413.413 0 0 1-.126.302.423.423 0 0 1-.308.126.41.41 0 0 1-.3-.126.411.411 0 0 1-.126-.302v-3.288h-3.796v3.288a.415.415 0 0 1-.125.302.411.411 0 0 1-.3.126.423.423 0 0 1-.31-.126.413.413 0 0 1-.124-.302v-6.8a.41.41 0 0 1 .125-.3.42.42 0 0 1 .31-.126.41.41 0 0 1 .3.126.413.413 0 0 1 .124.3v2.649h3.796V49.77a.41.41 0 0 1 .126-.301.408.408 0 0 1 .3-.126Zm7.976 0c.122 0 .226.042.31.126a.411.411 0 0 1 .125.3.407.407 0 0 1-.125.305.43.43 0 0 1-.31.121h-2.897v2.475h2.443a.419.419 0 0 1 .425.427.411.411 0 0 1-.125.3.408.408 0 0 1-.3.126h-2.443v2.61h2.897c.122 0 .226.042.31.126a.424.424 0 0 1 .125.31.412.412 0 0 1-.125.301.424.424 0 0 1-.31.127h-3.323a.42.42 0 0 1-.308-.126.411.411 0 0 1-.126-.302v-6.8c0-.117.041-.216.126-.3a.417.417 0 0 1 .308-.126h3.323Zm-16.515 0a.41.41 0 0 1 .3.126.413.413 0 0 1 .125.3.405.405 0 0 1-.125.305.415.415 0 0 1-.3.122H41.99v6.373a.418.418 0 0 1-.126.302.41.41 0 0 1-.3.125.42.42 0 0 1-.308-.125.415.415 0 0 1-.126-.302v-6.373h-1.565a.414.414 0 0 1-.3-.122.406.406 0 0 1-.124-.305c0-.116.041-.216.125-.3a.41.41 0 0 1 .3-.126h3.989Z"/>
  <path fill="#ED1F7D" d="M39.794 23.001a.44.44 0 0 1 .425.265l7.661 17.816c2.34-.503 4.065-2.618 4.065-5.05 0-.253-.019-.51-.056-.763a.443.443 0 0 1 .311-.489 7.427 7.427 0 0 0 4.468-3.605 7.486 7.486 0 0 0 .682-5.457c-1.726-.987-3.64-1.586-5.692-1.782a13.95 13.95 0 0 0-8.268 1.847.44.44 0 0 1-.6-.16.443.443 0 0 1 .157-.603 14.895 14.895 0 0 1 8.791-1.962c2.246.215 4.334.884 6.21 1.989.1.058.17.151.202.26a8.372 8.372 0 0 1-.711 6.29 8.301 8.301 0 0 1-4.638 3.919c.014.172.022.345.022.515 0 2.981-2.211 5.553-5.144 5.983a.44.44 0 0 1-.467-.26l-7.418-17.251-7.417 17.25a.439.439 0 0 1-.466.26c-2.933-.429-5.144-3.001-5.144-5.982 0-.17.007-.343.021-.515a8.302 8.302 0 0 1-4.637-3.918 8.376 8.376 0 0 1-.71-6.29.442.442 0 0 1 .2-.261c1.876-1.105 3.965-1.775 6.207-1.99a14.86 14.86 0 0 1 8.785 1.958c.21.122.28.392.16.602a.437.437 0 0 1-.6.16 14.031 14.031 0 0 0-8.265-1.841c-2.049.196-3.963.795-5.688 1.782a7.488 7.488 0 0 0 .681 5.457 7.43 7.43 0 0 0 4.469 3.605c.21.062.343.271.311.489a5.29 5.29 0 0 0-.056.762c0 2.433 1.725 4.548 4.065 5.051l7.661-17.816a.439.439 0 0 1 .423-.265Z"/>
</svg>
