<svg preserveAspectRatio="xMidYMid meet" width="100%" height="100%" overflow="visible" style="display: block;" viewBox="0 0 60.0005 33.9999" fill="none" xmlns="http://www.w3.org/2000/svg">
<g id="Logo">
<g id="Union">
<path fill-rule="evenodd" clip-rule="evenodd" d="M3.34485 26.275C3.42842 26.275 3.50543 26.2978 3.57629 26.3434C3.64719 26.3884 3.69945 26.4528 3.73157 26.5367C4.22113 27.688 4.70668 28.8316 5.18957 29.9664C5.67313 31.1008 6.15894 32.2447 6.64856 33.3961C6.6934 33.5057 6.6934 33.616 6.64856 33.7262C6.60312 33.8355 6.52654 33.913 6.41711 33.9586C6.3656 33.9842 6.31025 33.9977 6.25207 33.9977C6.16869 33.9976 6.08948 33.9748 6.01574 33.9293C5.94195 33.8844 5.8893 33.8197 5.85656 33.736L5.09289 31.9303H1.58703L0.823362 33.736C0.778494 33.8453 0.700848 33.9234 0.591917 33.9684C0.482398 34.0132 0.372705 34.0102 0.263792 33.9586C0.154171 33.913 0.0762222 33.8356 0.0313698 33.7262C-0.0134463 33.6161 -0.0102882 33.5056 0.0411355 33.3961L0.911253 31.3297L2.94836 26.5367C2.98048 26.4528 3.03274 26.3884 3.10364 26.3434C3.17443 26.2979 3.25473 26.2751 3.34485 26.275ZM1.95422 31.068H4.72571L3.34485 27.8082L1.95422 31.068Z" fill="var(--fill-0, white)"/>
<path fill-rule="evenodd" clip-rule="evenodd" d="M24.1124 26.275C24.196 26.275 24.2739 26.2977 24.3448 26.3434C24.4157 26.3884 24.4664 26.4528 24.4991 26.5367C24.9881 27.6881 25.4746 28.8315 25.9581 29.9664C26.4411 31.1008 26.9265 32.2447 27.4161 33.3961C27.461 33.5057 27.461 33.616 27.4161 33.7262C27.3707 33.8355 27.2936 33.913 27.1847 33.9586C27.1327 33.9841 27.0781 33.9977 27.0206 33.9977C26.9366 33.9976 26.8581 33.9748 26.7843 33.9293C26.7098 33.8843 26.6563 33.8198 26.6241 33.736L25.8614 31.9303H22.3546L21.5919 33.736C21.5465 33.8453 21.4691 33.9234 21.3595 33.9684C21.25 34.0132 21.1409 34.0103 21.0314 33.9586C20.9218 33.913 20.8448 33.8356 20.7999 33.7262C20.7545 33.6161 20.7576 33.5056 20.8097 33.3961L21.6788 31.3297L23.7169 26.5367C23.7496 26.453 23.7999 26.3884 23.8712 26.3434C23.942 26.2978 24.0229 26.2751 24.1124 26.275ZM22.7218 31.068H25.4943L24.1124 27.8082L22.7218 31.068Z" fill="var(--fill-0, white)"/>
<path fill-rule="evenodd" clip-rule="evenodd" d="M56.6632 26.275C56.7466 26.2751 56.8233 26.2979 56.8946 26.3434C56.9649 26.3884 57.0174 26.4528 57.0489 26.5367L59.9669 33.3961C60.0117 33.5056 60.0117 33.6161 59.9669 33.7262C59.9215 33.8356 59.8441 33.913 59.7345 33.9586C59.6831 33.9841 59.6285 33.9977 59.5704 33.9977C59.4869 33.9977 59.408 33.9749 59.3341 33.9293C59.2597 33.8844 59.2071 33.8197 59.1749 33.736L58.4113 31.9303H54.9044L54.1417 33.736C54.0963 33.8452 54.0191 33.9234 53.9103 33.9684C53.8006 34.0134 53.6902 34.0103 53.5812 33.9586C53.4717 33.913 53.3939 33.8356 53.3497 33.7262C53.3043 33.6161 53.3075 33.5056 53.3595 33.3961L54.2286 31.3297L56.2667 26.5367C56.2994 26.4528 56.3511 26.3884 56.422 26.3434C56.4923 26.2978 56.573 26.275 56.6632 26.275ZM55.2716 31.068H58.0441L56.6632 27.8082L55.2716 31.068Z" fill="var(--fill-0, white)"/>
<path d="M17.0616 26.3434C17.1772 26.3435 17.2769 26.3855 17.3605 26.4694C17.444 26.5533 17.4864 26.6528 17.4864 26.7701V33.5699C17.4864 33.6868 17.4441 33.7877 17.3605 33.8717C17.277 33.9548 17.1771 33.9976 17.0616 33.9977C16.946 33.9977 16.8454 33.955 16.7618 33.8717C16.6776 33.7877 16.6368 33.6869 16.6368 33.5699V28.5162L14.1056 33.7545C14.0674 33.8263 14.0118 33.8837 13.9415 33.9293C13.8701 33.9742 13.7963 33.9967 13.7189 33.9967C13.642 33.9967 13.5674 33.9743 13.4972 33.9293C13.4264 33.8837 13.3719 33.8262 13.3331 33.7545L10.8019 28.5162V33.5699C10.8019 33.6868 10.7614 33.7877 10.6808 33.8717C10.6003 33.9548 10.4992 33.9976 10.3771 33.9977C10.2614 33.9977 10.1609 33.955 10.0773 33.8717C9.99365 33.7877 9.95227 33.6869 9.95227 33.5699V26.7701C9.95232 26.6529 9.99389 26.5532 10.0773 26.4694C10.1609 26.3854 10.2613 26.3434 10.3771 26.3434C10.5509 26.3434 10.6802 26.4207 10.7638 26.5758L13.7189 32.6002L16.6749 26.5758C16.7585 26.4206 16.8877 26.3434 17.0616 26.3434Z" fill="var(--fill-0, white)"/>
<path d="M42.0948 26.3434C42.2172 26.3434 42.3193 26.3854 42.4034 26.4694C42.487 26.5533 42.5294 26.6528 42.5294 26.7701V33.5699C42.5294 33.6868 42.4871 33.7877 42.4034 33.8717C42.3193 33.9548 42.217 33.9976 42.0948 33.9977C41.9791 33.9977 41.878 33.955 41.795 33.8717C41.7108 33.7877 41.6691 33.6869 41.6691 33.5699V30.2819H37.8732V33.5699C37.8732 33.6868 37.8312 33.7877 37.7482 33.8717C37.6646 33.9549 37.5645 33.9976 37.4484 33.9977C37.326 33.9977 37.2224 33.955 37.1388 33.8717C37.0552 33.7877 37.0138 33.6869 37.0138 33.5699V26.7701C37.0138 26.6529 37.0554 26.5532 37.1388 26.4694C37.2224 26.3854 37.326 26.3434 37.4484 26.3434C37.5646 26.3434 37.6646 26.3854 37.7482 26.4694C37.831 26.5533 37.8731 26.6529 37.8732 26.7701V29.4186H41.6691V26.7701C41.6691 26.6529 41.711 26.5532 41.795 26.4694C41.8781 26.3854 41.9791 26.3434 42.0948 26.3434Z" fill="var(--fill-0, white)"/>
<path d="M50.0714 26.3434C50.1932 26.3434 50.2974 26.3854 50.381 26.4694C50.4643 26.5532 50.5059 26.6529 50.506 26.7701C50.506 26.8923 50.4643 26.994 50.381 27.0748C50.2974 27.1558 50.1932 27.1959 50.0714 27.1959H47.1739V29.6705H49.6173C49.7336 29.6706 49.8335 29.7113 49.9171 29.7916C50.0006 29.8725 50.0421 29.9751 50.0421 30.0973C50.042 30.2139 50.0006 30.3142 49.9171 30.3981C49.8335 30.482 49.7336 30.524 49.6173 30.524H47.1739V33.1334H50.0714C50.1932 33.1334 50.2974 33.176 50.381 33.2594C50.4645 33.344 50.506 33.4471 50.506 33.5699C50.506 33.6866 50.4643 33.7868 50.381 33.8707C50.2974 33.9541 50.1932 33.9977 50.0714 33.9977H46.7482C46.626 33.9976 46.5225 33.9548 46.4396 33.8717C46.3553 33.7877 46.3136 33.6869 46.3136 33.5699V26.7701C46.3136 26.6528 46.3554 26.5533 46.4396 26.4694C46.5225 26.3854 46.6259 26.3434 46.7482 26.3434H50.0714Z" fill="var(--fill-0, white)"/>
<path d="M33.5558 26.3434C33.672 26.3434 33.772 26.386 33.8556 26.4694C33.939 26.5539 33.9806 26.6534 33.9806 26.7701C33.9806 26.8924 33.9391 26.9945 33.8556 27.0748C33.772 27.1563 33.672 27.1968 33.5558 27.1969H31.9913V33.5699C31.9913 33.6862 31.9484 33.7871 31.8654 33.8717C31.7818 33.955 31.6818 33.9967 31.5655 33.9967C31.4433 33.9967 31.3405 33.9549 31.257 33.8717C31.1733 33.7871 31.131 33.6862 31.131 33.5699V27.1969H29.5665C29.4502 27.1969 29.3503 27.1564 29.2667 27.0748C29.1833 26.9945 29.1417 26.8923 29.1417 26.7701C29.1417 26.6535 29.1834 26.5539 29.2667 26.4694C29.3503 26.386 29.4502 26.3434 29.5665 26.3434H33.5558Z" fill="var(--fill-0, white)"/>
</g>
<path id="Union_2" d="M29.7941 0.00105655C29.9712 -0.00756004 30.1436 0.092601 30.2189 0.265705L37.8801 18.0821C40.2197 17.5794 41.9455 15.4644 41.9455 13.0313C41.9455 12.7788 41.9264 12.5218 41.8888 12.2686C41.8569 12.0515 41.9902 11.8424 42.2004 11.7804C44.1218 11.2186 45.7089 9.93787 46.6681 8.17488C47.5819 6.49708 47.8212 4.56604 47.3498 2.71785C45.6241 1.73144 43.7106 1.13223 41.6584 0.935627C41.2524 0.899721 40.8358 0.881916 40.425 0.881916C37.9499 0.882001 35.5172 1.53855 33.3898 2.78231C33.1808 2.90399 32.9117 2.83359 32.7892 2.62313C32.6675 2.41262 32.7379 2.14199 32.9474 2.01961C35.5834 0.479249 38.6777 -0.211901 41.7384 0.0576972C43.984 0.272577 46.0725 0.941869 47.9484 2.04695C48.0471 2.10476 48.1181 2.19822 48.1496 2.3077C48.7434 4.43097 48.4905 6.66493 47.4386 8.59774C46.4255 10.4588 44.7879 11.839 42.8009 12.5157C42.8155 12.6878 42.8234 12.8605 42.8234 13.0313C42.8234 16.012 40.6116 18.584 37.6789 19.0138C37.6578 19.0168 37.6365 19.0186 37.6154 19.0186C37.4428 19.0186 37.2824 18.9159 37.2121 18.753L29.7941 1.50301L22.3771 18.753C22.3073 18.9158 22.1473 19.0186 21.9748 19.0186C21.9537 19.0186 21.9324 19.0168 21.9113 19.0138C18.9786 18.584 16.7668 16.012 16.7668 13.0313C16.7668 12.8605 16.7737 12.6878 16.7883 12.5157C14.8015 11.8389 13.1637 10.4587 12.1506 8.59774C11.0993 6.66496 10.8468 4.43092 11.4406 2.3077C11.4715 2.19832 11.5428 2.10477 11.6408 2.04695C13.5174 0.941806 15.6058 0.271929 17.8478 0.0576972C20.9303 -0.213726 23.9989 0.478089 26.633 2.01473C26.8426 2.13705 26.914 2.4067 26.7922 2.61727C26.6703 2.82821 26.4021 2.898 26.1926 2.77645C23.7142 1.33048 20.8074 0.684286 17.9279 0.935627C15.8792 1.1322 13.9656 1.73138 12.2404 2.71785C11.769 4.566 12.008 6.4971 12.9211 8.17488C13.8809 9.93788 15.4684 11.2186 17.3898 11.7804C17.6 11.8424 17.7333 12.0514 17.7013 12.2686C17.6638 12.5218 17.6447 12.7788 17.6447 13.0313C17.6447 15.4644 19.3705 17.5794 21.7101 18.0821L29.3713 0.265705C29.4459 0.0929724 29.6173 -0.00707373 29.7941 0.00105655Z" fill="var(--fill-0, #ED1F7D)"/>
</g>
</svg>
