<svg preserveAspectRatio="xMidYMid meet" width="100%" height="100%" overflow="visible" style="display: block;" viewBox="0 0 60 60" fill="none" xmlns="http://www.w3.org/2000/svg">
<path id="Logo" d="M30 0C22.0435 0 14.4129 3.16071 8.7868 8.7868C3.16071 14.4129 0 22.0435 0 30L0 60H30C37.9565 60 45.5871 56.8393 51.2132 51.2132C56.8393 45.5871 60 37.9565 60 30C60 22.0435 56.8393 14.4129 51.2132 8.7868C45.5871 3.16071 37.9565 1.18561e-07 30 0ZM49.8749 30.6086C49.6891 28.4034 48.9224 28.024 49.0094 28.5298C49.2132 29.4977 49.2533 30.493 49.1279 31.4741C48.9382 32.9324 46.9582 35.031 46.9582 35.031C46.9582 35.031 45.8121 33.2881 45.9702 31.7468C46.1283 30.2055 47.8475 28.68 46.8673 29.1977C46.0335 29.6404 45.4762 31.1105 45.4762 31.1105C45.4762 31.1105 45.0494 30.6007 45.2431 29.3677C45.4367 28.1346 47.3416 26.6012 47.5629 26.3839C47.6609 26.2441 47.7242 26.0831 47.7475 25.914C47.7709 25.7449 47.7537 25.5728 47.6973 25.4117C47.4946 24.9158 47.1597 24.4852 46.729 24.1667C46.2983 23.8482 45.7884 23.6541 45.2549 23.6056C44.2653 23.4568 43.2571 23.7059 42.4506 24.2984C41.6442 24.8908 41.1051 25.7784 40.9511 26.7672C40.8506 27.5564 41.0176 28.3565 41.4254 29.0397C41.9556 29.906 42.5515 30.7305 43.2077 31.5057C43.8454 32.2249 44.3898 33.0216 44.8281 33.877C45.1028 34.5193 45.1918 35.2258 45.085 35.9162C45.0101 36.4681 44.8272 36.9998 44.5467 37.4809C44.2662 37.962 43.8936 38.3831 43.4502 38.7201C43.0067 39.057 42.5012 39.3032 41.9626 39.4447C41.4239 39.5861 40.8626 39.6199 40.3109 39.5442C39.9355 39.4968 39.564 39.4375 39.2043 39.3664C39.3901 40.175 39.8599 40.8902 40.5283 41.3819C41.4768 42.113 42.5043 41.8759 43.3698 42.3581C44.2353 42.8402 44.3973 43.1919 44.3973 43.1919C44.3973 43.1919 43.2354 42.9509 43.1919 43.2828C43.1485 43.6148 43.9389 43.6543 44.4131 43.8045C44.7239 43.9332 44.976 44.1726 45.1205 44.4764C45.1205 44.4764 44.3973 44.1681 44.508 44.4764C44.508 44.5001 44.8795 45.0375 45.2035 45.5118C45.5276 45.986 45.7805 46.4721 45.3102 47.1717C43.5253 48.7624 41.5041 50.0663 39.3189 51.0368C38.9672 50.2069 38.8549 49.2951 38.9949 48.4047C39.1529 47.4562 39.6667 47.1005 40.382 47.0768C41.0974 47.0531 41.7297 47.1993 42.1684 46.6816C42.2751 46.5404 42.3232 46.3634 42.3027 46.1876C41.841 45.6751 41.3241 45.2152 40.7614 44.8162C39.9117 44.2788 39.6035 43.8124 38.0385 43.8559C36.4735 43.8994 33.2604 44.6226 31.5808 42.69C31.1554 42.1986 30.8317 41.6277 30.6284 41.0104C30.4291 41.1557 30.2205 41.2877 30.004 41.4056C29.838 41.4965 29.0634 41.8364 29.0634 41.8364C28.0319 42.2316 26.8344 42.524 26.0598 42.7414C25.0283 43.0339 24.6134 43.3382 24.3802 43.927C24.1194 44.6028 24.6094 45.6304 24.6094 45.6304C24.3955 46.0929 24.113 46.5206 23.7716 46.899C23.255 47.397 22.6661 47.8141 22.0248 48.136C22.0248 48.136 22.9535 46.1599 22.0248 47.2665C21.5565 47.8747 20.9245 48.3367 20.2029 48.5983C20.6771 48.0451 20.7759 47.2546 20.2029 47.9186C19.6298 48.5825 18.298 48.9027 18.298 48.9027C18.8829 48.5074 19.3967 47.7526 18.792 48.0134C18.1603 48.2556 17.4922 48.3892 16.816 48.4086C16.579 48.4305 16.3405 48.3896 16.1244 48.2901C14.2203 46.8426 12.5513 45.1096 11.1764 43.1524C12.0486 42.6582 13.0245 42.3753 14.0258 42.3264C14.9862 42.2988 15.0573 42.6228 15.3853 43.2591C15.745 43.9547 15.8635 45.6304 15.8635 45.6304C15.8635 45.6304 16.7369 46.1639 18.4403 45.9544C19.6259 45.6659 20.2977 45.1996 20.361 44.998C20.4242 44.7965 19.4401 41.951 20.5981 40.22C20.8903 39.7817 21.2584 39.3989 21.6849 39.0897C22.1775 38.7489 22.708 38.4664 23.2657 38.2479C20.2582 37.1295 19.6061 35.2365 19.4006 34.7741C19.0647 34.0192 19.203 36.3549 19.203 36.3549C18.6873 35.5678 18.4304 34.6393 18.4679 33.6991C18.4832 33.2622 18.5254 32.8267 18.5944 32.3949C17.643 32.3816 16.6977 32.2393 15.7845 31.9721C15.7845 31.9721 17.9897 31.0908 15.7133 31.4623C13.5358 31.8179 12.3739 31.1263 12.3739 31.1263C12.7493 31.0394 14.0812 30.2095 12.6979 30.5335C10.6231 31.0196 9.59557 29.9526 9.59557 29.9526C10.1726 30.0474 11.3621 29.8143 10.5836 29.4902C10.0334 29.231 9.50481 28.9284 9.00277 28.5852C8.89606 28.5219 7.35476 27.4667 7.30734 26.3602C7.62573 24.3536 8.21053 22.3985 9.04624 20.5467C9.84925 20.981 10.5239 21.6188 11.0025 22.3963C11.2225 22.695 11.319 23.067 11.2719 23.4349C11.2248 23.8029 11.0377 24.1386 10.7496 24.3723C10.2358 24.8663 9.69042 25.218 9.69042 25.7239C9.69042 26.0242 9.95521 26.2653 10.224 26.4471C10.3623 26.538 10.4966 26.6131 10.5954 26.6724C12.8485 27.5452 15.1963 28.15 17.5906 28.4745C17.8474 27.4052 18.3433 26.408 19.041 25.5579L19.0094 25.5223C18.1284 24.6111 17.4544 23.5205 17.0333 22.3251C17.0333 22.3251 19.1635 23.3764 17.3653 21.9299C15.6422 20.5467 15.3893 19.2228 15.3893 19.2228C15.7054 19.4401 17.2112 19.8788 16.0493 19.0686C14.2985 17.8514 14.4052 16.3733 14.4052 16.3733C14.7214 16.8673 15.6896 17.5945 15.413 16.8002C15.243 16.2232 15.111 15.6357 15.0178 15.0415C14.9901 14.9308 14.9664 14.8123 14.9387 14.6779C14.8123 13.9784 14.6502 13.1761 15.2114 12.3818C16.7319 11.0957 18.4122 10.0118 20.2108 9.1569C20.5862 10.001 20.7229 10.9319 20.606 11.8482C20.5806 12.2138 20.4127 12.5548 20.1386 12.798C19.8644 13.0411 19.5058 13.1669 19.1398 13.1485C18.4284 13.188 17.8751 13.0497 17.4443 13.5713C17.144 13.9389 17.4443 14.6107 17.5352 14.9308C18.4809 17.4131 19.7385 19.765 21.2778 21.9299C22.0943 21.3501 23.0478 20.9932 24.0443 20.8945C24.6568 20.8352 25.7199 20.6929 24.7952 20.4677C23.7834 20.2226 22.4951 20.523 23.6925 20.0092C25.1508 19.3808 27.0913 20.1396 27.696 20.0092C28.3006 19.8788 28.4271 18.7564 28.4508 18.2189H28.3164C27.6169 18.2782 25.7555 18.46 25.0876 18.7564C24.8302 18.2258 24.6798 17.6497 24.645 17.061C24.7213 17.1511 24.8138 17.2262 24.9177 17.2823C25.3116 17.3538 25.7164 17.3377 26.1033 17.2349C26.3151 17.2145 26.518 17.1393 26.692 17.0166C26.8659 16.894 27.0049 16.7281 27.0952 16.5354C27.1523 16.3367 27.1409 16.1245 27.0627 15.9331C26.9846 15.7417 26.8443 15.5822 26.6645 15.4802C26.2332 15.3832 25.7814 15.4449 25.3919 15.6541L25.135 15.8161C24.4553 16.2469 24.6015 16.729 24.6015 16.729C24.6015 16.729 23.9534 16.3338 23.491 14.8004C23.491 14.8004 22.6373 14.1879 22.6492 13.8006C23.3379 13.1323 24.1291 12.5786 24.9928 12.1605C25.7069 11.2825 26.6855 10.6588 27.7829 10.382C27.7829 10.382 28.7472 8.25188 31.7666 8.05823C32.9798 7.97919 30.4426 8.66289 30.1304 9.01462C29.5416 9.67857 31.4306 8.24793 34.2919 8.65499L34.4421 8.67475C34.5725 8.69451 34.944 8.78145 34.9993 8.79726L35.2878 8.88421C38.1136 9.8327 40.6033 13.0773 40.1884 17.2309C39.9749 16.2597 39.5498 15.3475 38.9435 14.5593C38.0345 13.271 37.7579 13.4409 38.5206 14.8637C39.228 16.1955 40.0066 18.8671 39.1411 20.9775C38.8332 21.6374 38.471 22.2706 38.0582 22.8705C38.2915 21.8306 38.2506 20.748 37.9397 19.7286C37.58 18.3533 37.2915 18.4126 37.4812 19.8472C37.6591 21.1948 37.4812 23.7004 36.0585 25.1983C35.6002 25.6233 35.1158 26.0192 34.6081 26.3839C35.0866 25.5846 35.3582 24.6786 35.3985 23.7479C35.5171 22.4476 35.2483 22.4081 34.9677 23.7083C34.7148 24.894 33.8414 26.87 32.2882 27.775C31.509 28.1583 30.7018 28.482 29.8735 28.7432C29.9544 29.9258 30.2787 31.0788 30.826 32.1302C31.2839 32.8879 31.8743 33.5572 32.5688 34.1062C32.7072 34.2129 32.8455 34.3196 32.9957 34.4263C32.9957 34.4263 34.1813 34.6595 35.2049 34.8492C36.2284 35.0389 38.0108 35.8806 38.9 37.3113C39.3532 37.5678 39.8506 37.7367 40.3662 37.8092C41.8917 38.0069 43.3658 37.1769 43.5555 35.683C43.6254 35.2594 43.5776 34.8246 43.4172 34.4263C43.0369 33.6914 42.567 33.0064 42.0182 32.387C41.3311 31.5699 40.7087 30.7004 40.1568 29.7866C39.6017 28.8448 39.3777 27.7444 39.5205 26.6605C39.7163 25.3184 40.4349 24.1081 41.5195 23.2938C42.6041 22.4794 43.9668 22.1269 45.3102 22.3133C46.1254 22.4135 46.9056 22.7044 47.5874 23.1624C48.2692 23.6204 48.8335 24.2325 49.2346 24.9493C50.7838 27.4272 49.8749 30.6086 49.8749 30.6086ZM22.1591 16.5393C22.481 16.3482 22.8601 16.2775 23.2292 16.3397C23.5983 16.4019 23.9333 16.5931 24.1747 16.8792C23.4317 16.5947 23.0128 16.9385 21.926 17.717C20.8392 18.4956 19.8551 17.3218 19.8551 17.3218C20.5941 17.5906 21.017 17.2309 22.1591 16.5393Z" fill="var(--fill-0, #11C1B0)"/>
</svg>
