<svg xmlns="http://www.w3.org/2000/svg" fill="none" viewBox="0 0 80 80">
  <path fill="#C1F3DB" d="M0 12C0 5.373 5.373 0 12 0h56c6.627 0 12 5.373 12 12v56c0 6.627-5.373 12-12 12H12C5.373 80 0 74.627 0 68V12Z"/>
  <path fill="#003141" d="M65.29 40.585c0-13.968-11.323-25.291-25.29-25.291-13.968 0-25.291 11.323-25.291 25.29 0 13.968 11.323 25.292 25.29 25.292h25.292V40.585Z"/>
  <path fill="#C1F3DB" d="M39.308 48.062a5.954 5.954 0 0 0 6.066-6.48 6.067 6.067 0 0 0-6.066-6.48 5.955 5.955 0 0 0-6.067 6.48 5.956 5.956 0 0 0 6.067 6.48Zm-1-17.2a7.941 7.941 0 0 1 7.082 3.844v-2.843a.445.445 0 0 1 .413-.397h3.62a.445.445 0 0 1 .414.397v15.992h1.588a.508.508 0 0 1 .397.81l-1.016 2.827c0 .207-.191.207-.397.207h-4.447a.445.445 0 0 1-.413-.398V48.46a7.75 7.75 0 0 1-7.083 3.843c-5.257 0-9.72-4.844-9.72-10.72a9.957 9.957 0 0 1 9.53-10.72h.031Z"/>
</svg>
