<svg preserveAspectRatio="xMidYMid meet" width="100%" height="100%" overflow="visible" style="display: block;" viewBox="0 0 60 60" fill="none" xmlns="http://www.w3.org/2000/svg">
<g id="Logo">
<path id="Vector" d="M60 30C60 13.4314 46.5686 0 30 0C13.4314 0 0 13.4314 0 30C0 46.5686 13.4314 60 30 60H60V30Z" fill="var(--fill-0, #003141)"/>
<path id="Vector_2" d="M29.1782 38.869C30.1717 38.8914 31.1587 38.7041 32.0748 38.319C32.9909 37.934 33.8155 37.3601 34.4946 36.6346C35.1738 35.9093 35.6922 35.0489 36.0161 34.1094C36.3401 33.17 36.4622 32.1728 36.3746 31.183C36.4418 30.1976 36.3053 29.2089 35.974 28.2784C35.6426 27.3481 35.1231 26.4958 34.4481 25.7748C33.773 25.0538 32.9568 24.4795 32.0501 24.0876C31.1436 23.6958 30.166 23.4946 29.1782 23.497C28.1848 23.4745 27.1978 23.662 26.2818 24.047C25.3657 24.432 24.5411 25.0059 23.862 25.7313C23.1828 26.4566 22.6643 27.3172 22.3403 28.2565C22.0165 29.196 21.8943 30.1932 21.982 31.183C21.8943 32.1728 22.0165 33.17 22.3403 34.1094C22.6643 35.0489 23.1828 35.9093 23.862 36.6346C24.5411 37.3601 25.3657 37.934 26.2818 38.319C27.1978 38.7041 28.1848 38.8914 29.1782 38.869ZM27.9915 18.4671C29.6713 18.4082 31.3363 18.8 32.8137 19.6015C34.2911 20.4032 35.527 21.5855 36.3934 23.026V19.654C36.4064 19.5303 36.4627 19.4153 36.5523 19.3291C36.6419 19.243 36.7591 19.1912 36.8831 19.183H41.1782C41.3023 19.1912 41.4195 19.243 41.5091 19.3291C41.5987 19.4153 41.655 19.5303 41.6681 19.654V38.6241H43.5519C43.6622 38.6266 43.7698 38.6595 43.8628 38.719C43.9558 38.7784 44.0307 38.8623 44.0792 38.9614C44.1278 39.0605 44.1482 39.1711 44.1383 39.2811C44.1283 39.391 44.0885 39.4961 44.0229 39.5849L42.8172 42.9381C42.8172 43.183 42.5911 43.183 42.3462 43.183H37.0716C36.9475 43.1748 36.8304 43.1231 36.7407 43.0369C36.6511 42.9508 36.5948 42.8356 36.5817 42.712V39.34C35.7339 40.7972 34.5018 41.9933 33.0199 42.7973C31.5381 43.6013 29.8637 43.9824 28.1799 43.8989C21.9443 43.8989 16.6508 38.1532 16.6508 31.183C16.5279 29.5995 16.7257 28.0074 17.2322 26.5022C17.7388 24.9969 18.5437 23.6091 19.5989 22.4221C20.6541 21.235 21.9379 20.2729 23.3735 19.5933C24.8089 18.9139 26.3668 18.5308 27.9538 18.4671H27.9915Z" fill="var(--fill-0, #C1F3DB)"/>
</g>
</svg>
