<svg xmlns="http://www.w3.org/2000/svg" fill="none" viewBox="0 0 80 80">
  <path fill="#fff" d="M0 12C0 5.373 5.373 0 12 0h56c6.627 0 12 5.373 12 12v56c0 6.627-5.373 12-12 12H12C5.373 80 0 74.627 0 68V12Z"/>
  <path fill="#8FDCEC" d="M66.725 57.578c-.082.003-.159.015-.242.015-1.996 0-4.603-.773-7.948-1.999a94.358 94.358 0 0 1-2.216-.748c-2.56-.121-3.87-.015-4.742.055-1.041.085-1.562.125-2.717-.374-1.874-.81-2.895-2.206-3.64-3.226-.184-.252-.353-.485-.517-.68-1.1-1.309-1.004-3.097.22-4.161 1.732-1.501 7.547-1.86 9.424-.584.79.538 1.189.99 1.51 1.354.357.404.553.626 1.151.809.166.05.87.202 1.305.291 1.757.087 3.967-.776 4.696-1.061 2.609-1.021 2.68-4.838 2.68-4.876l.004-.242c-3.919-3.654-9.539-5.078-12.085-5.718-.749-.189-1.202-.303-1.46-.421-.481-.224-.832-.639-1.016-1.199-.505-1.543.3-4.105 1.323-5.961.336-.61 3.21-6.109.721-11.518-.395-.858-1.111-1.631-2.075-2.244h-9.858c-1.376.95-2.253 2.304-2.609 4.028-.686 3.325-.147 5.097.426 6.974.367 1.207.748 2.456.86 4.156.215 3.305-1.18 4.867-2.075 5.52l-.15.102a3.46 3.46 0 0 1-.498.279l-.117.059c-10.124 3.807-15.876 11.8-15.933 13.3 1.417.458 5.948.02 7.403-.426.628-.192.835-.426 1.21-.85.333-.38.75-.85 1.57-1.407 1.738-1.183 6.7-1.013 9.042.137.345.158.639.336.867.532 1.265 1.097 1.364 2.945.229 4.299-.173.205-.349.448-.542.712-.775 1.06-1.836 2.51-3.781 3.352-1.199.517-1.706.478-2.82.388-.902-.073-2.258-.18-4.896-.06-2.08 1.202-3.458 1.957-7.35 3.864l-1.41.72c-.234.467-.33 2.742-.277 4.833l44.343.025c1.115 0 2.023-.89 2.023-1.983l-.033-6.066Z"/>
  <path fill="#E42313" d="M16.612 62.49c-.874.348-1.605.61-2.237.813a2.572 2.572 0 0 0 2.568 2.291h2.286c-.042-1.573-.017-3.268.195-4.4-1.011.478-1.971.922-2.812 1.295Z"/>
  <path fill="#E42313" d="M69.824 49.84c-.373-1.779-1.25-3.404-2.32-4.923v-27.79c0-1.724-1.42-3.127-3.167-3.127H17.065c-1.747 0-3.167 1.403-3.167 3.127V45.43a14.834 14.834 0 0 0-1.656 3.24c-2.907 8.053-2.704 13.089-1 13.9.194.093 1.132.279 4.936-1.238 3.839-1.714 10.482-4.996 12.674-6.263l.12-.07.139-.007c2.799-.137 4.232-.021 5.18.055 1.025.082 1.337.107 2.274-.297 1.661-.718 2.577-1.971 3.314-2.98.209-.285.4-.547.587-.768.615-.733.789-1.93-.101-2.701a2.165 2.165 0 0 0-.306-.218c-1.859-1.005-6.541-1.216-7.967-.245a6.49 6.49 0 0 0-1.356 1.218c-.408.463-.795.9-1.732 1.187-1.4.429-6.927 1.135-8.526.241a.415.415 0 0 1-.05-.032c-.022-.011-.05-.018-.07-.03-.196-.11-.517-.388-.468-1.024.186-2.47 6.357-10.156 15.908-14.021-.71-.85-1.737-2.435-1.408-4.218.114-.62.449-1.337.838-2.168 1.201-2.571 3.017-6.456.616-12.116-.297-.7-.8-1.257-1.292-1.732h29.786c1.115 0 2.024.89 2.024 1.984v27.887c-.442 1.278-1.293 2.674-2.93 3.314-1.372.538-3.409 1.243-5.218 1.135l-.081-.01c-.195-.04-1.181-.244-1.454-.327-.904-.277-1.277-.7-1.671-1.145-.294-.332-.626-.708-1.297-1.166-1.443-.98-6.7-.653-8.032.502-.842.733-.678 1.866-.094 2.562.179.213.364.465.566.74.705.966 1.581 2.165 3.17 2.852.893.386 1.163.363 2.172.284a30.163 30.163 0 0 1 2.674-.113c.64 0 1.396.018 2.302.06l.088.005.082.03c.659.246 2.26.766 2.276.772 4.73 1.733 7.989 2.567 9.683 1.385.82-.572 1.275-1.66 1.392-3.304.004-.14.01-.277.01-.427 0-.803-.062-1.575-.176-2.323ZM25.45 34.117c-.267 1.426-2.003 2.717-4.202 4.35-2.01 1.492-4.324 3.21-6.207 5.45v-26.79c0-1.093.909-1.984 2.025-1.984h6.77c-1.494 1.43-2.372 3.379-2.538 5.668-.301 4.16 1.328 6.812 2.638 8.942.959 1.558 1.785 2.903 1.514 4.364Z"/>
</svg>
