<svg xmlns="http://www.w3.org/2000/svg" fill="none" viewBox="0 0 80 80">
  <path fill="#fff" d="M0 12C0 5.373 5.373 0 12 0h56c6.627 0 12 5.373 12 12v56c0 6.627-5.373 12-12 12H12C5.373 80 0 74.627 0 68V12Z"/>
  <path fill="#11C1B0" d="M40 10a30 30 0 0 0-30 30v30h30a30 30 0 1 0 0-60Zm19.875 30.609c-.186-2.206-.953-2.585-.866-2.08.204.969.244 1.964.119 2.945-.19 1.458-2.17 3.557-2.17 3.557s-1.146-1.743-.988-3.284c.158-1.541 1.877-3.067.897-2.55-.834.443-1.39 1.913-1.39 1.913s-.428-.51-.234-1.742c.194-1.233 2.099-2.767 2.32-2.984a1.074 1.074 0 0 0 .134-.972 2.925 2.925 0 0 0-2.442-1.806 3.786 3.786 0 0 0-4.304 3.161c-.1.79.067 1.59.474 2.273.53.866 1.127 1.69 1.783 2.466a11.449 11.449 0 0 1 1.62 2.371c.275.642.364 1.349.257 2.04a4.238 4.238 0 0 1-4.774 3.627 16.177 16.177 0 0 1-1.107-.178 3.466 3.466 0 0 0 1.324 2.016c.949.731 1.976.494 2.842.976.865.482 1.027.834 1.027.834s-1.162-.241-1.205.09c-.044.333.747.372 1.221.523.31.128.563.368.708.671 0 0-.724-.308-.613 0 0 .024.371.562.695 1.036.325.474.578.96.107 1.66a23.094 23.094 0 0 1-5.991 3.865 4.825 4.825 0 0 1-.324-2.632c.158-.949.672-1.305 1.387-1.328.715-.024 1.348.122 1.786-.395a.687.687 0 0 0 .135-.494 9.367 9.367 0 0 0-1.542-1.372c-.85-.537-1.158-1.004-2.723-.96-1.564.043-4.778.767-6.457-1.166a4.915 4.915 0 0 1-.953-1.68 5.476 5.476 0 0 1-.624.396c-.166.09-.94.43-.94.43-1.032.396-2.23.688-3.004.905-1.032.293-1.447.597-1.68 1.186-.26.676.23 1.703.23 1.703-.215.463-.497.89-.838 1.269a7.118 7.118 0 0 1-1.747 1.237s.928-1.976 0-.87a4.035 4.035 0 0 1-1.822 1.332c.474-.553.573-1.343 0-.68-.573.665-1.905.985-1.905.985.585-.396 1.099-1.15.494-.89a6 6 0 0 1-1.976.396 1.355 1.355 0 0 1-.692-.119 23.22 23.22 0 0 1-4.948-5.138 6.415 6.415 0 0 1 2.85-.826c.96-.027 1.031.297 1.36.933.359.696.477 2.371.477 2.371s.874.534 2.577.324c1.186-.288 1.858-.754 1.921-.956.063-.201-.92-3.047.237-4.778.292-.438.66-.821 1.087-1.13a7.743 7.743 0 0 1 1.58-.842c-3.007-1.118-3.659-3.011-3.864-3.474-.336-.755-.198 1.58-.198 1.58a4.517 4.517 0 0 1-.735-2.655c.015-.437.057-.872.126-1.304a10.53 10.53 0 0 1-2.81-.423s2.206-.881-.07-.51c-2.178.356-3.34-.336-3.34-.336.375-.087 1.707-.916.324-.593-2.075.487-3.102-.58-3.102-.58.577.094 1.766-.139.988-.463-.55-.259-1.08-.562-1.581-.905-.107-.063-1.648-1.118-1.696-2.225a22.831 22.831 0 0 1 1.74-5.813 5.205 5.205 0 0 1 1.956 1.85 1.443 1.443 0 0 1-.253 1.975c-.514.494-1.06.846-1.06 1.352 0 .3.265.541.534.723.138.091.273.166.371.225a30.853 30.853 0 0 0 6.996 1.803 7.275 7.275 0 0 1 1.45-2.917l-.032-.036a8.812 8.812 0 0 1-1.976-3.197s2.13 1.051.332-.395c-1.723-1.383-1.976-2.707-1.976-2.707.316.217 1.822.656.66-.154-1.75-1.218-1.644-2.696-1.644-2.696.316.494 1.285 1.221 1.008.427a13.776 13.776 0 0 1-.395-1.759c-.028-.11-.052-.229-.08-.363-.126-.7-.288-1.502.273-2.296a23.09 23.09 0 0 1 5-3.225 5.05 5.05 0 0 1 .395 2.691 1.4 1.4 0 0 1-1.466 1.3c-.712.04-1.265-.098-1.696.423-.3.368 0 1.04.091 1.36a31.321 31.321 0 0 0 3.743 6.999 5.759 5.759 0 0 1 2.766-1.035c.613-.06 1.676-.202.751-.427-1.012-.245-2.3.055-1.102-.459 1.458-.628 3.398.13 4.003 0s.731-1.253.755-1.79h-.135c-.7.06-2.56.241-3.228.537a4.492 4.492 0 0 1-.443-1.695c.076.09.169.165.273.221a2.71 2.71 0 0 0 1.185-.047 1.225 1.225 0 0 0 .992-.7.92.92 0 0 0-.43-1.055 1.837 1.837 0 0 0-1.273.174l-.257.162c-.68.43-.533.913-.533.913s-.649-.395-1.111-1.929c0 0-.854-.612-.842-1a8.99 8.99 0 0 1 2.344-1.64 5.252 5.252 0 0 1 2.79-1.778s.964-2.13 3.984-2.324c1.213-.079-1.324.605-1.637.957-.588.664 1.3-.767 4.162-.36l.15.02c.13.02.502.107.557.122l.289.087c2.826.949 5.315 4.193 4.9 8.347a6.764 6.764 0 0 0-1.245-2.672c-.908-1.288-1.185-1.118-.422.305.707 1.331 1.486 4.003.62 6.113a13.08 13.08 0 0 1-1.083 1.893 6.153 6.153 0 0 0-.118-3.141c-.36-1.376-.648-1.316-.459.118.178 1.348 0 3.853-1.422 5.351-.459.425-.943.821-1.45 1.186.478-.8.75-1.705.79-2.636.118-1.3-.15-1.34-.431-.04-.253 1.186-1.127 3.162-2.68 4.067-.779.383-1.586.707-2.414.968a8.608 8.608 0 0 0 .952 3.387 7.394 7.394 0 0 0 1.743 1.976c.138.107.276.214.427.32 0 0 1.185.233 2.209.423 1.023.19 2.806 1.032 3.695 2.462.453.257.95.426 1.466.498 1.526.198 3-.632 3.19-2.126.07-.424.022-.858-.139-1.257a9.982 9.982 0 0 0-1.399-2.039 20.54 20.54 0 0 1-1.861-2.6 4.897 4.897 0 0 1-.636-3.127 5.137 5.137 0 0 1 5.79-4.347 5.228 5.228 0 0 1 3.924 2.636c1.549 2.478.64 5.66.64 5.66Zm-27.716-14.07a1.581 1.581 0 0 1 2.016.34c-.743-.284-1.162.06-2.249.838-1.087.779-2.07-.395-2.07-.395.738.269 1.161-.091 2.303-.783Z"/>
</svg>
