<svg preserveAspectRatio="xMidYMid meet" width="100%" height="100%" overflow="visible" style="display: block;" viewBox="0 0 60 51.6273" fill="none" xmlns="http://www.w3.org/2000/svg">
<g id="Logo">
<path id="Vector" d="M56.725 43.5789C56.6428 43.5817 56.5664 43.5933 56.4828 43.5933C54.4868 43.5933 51.8796 42.8203 48.5353 41.5946C48.4906 41.5802 47.037 41.1072 46.3188 40.8461C43.7591 40.725 42.4482 40.8317 41.5772 40.9009C40.536 40.986 40.0153 41.0263 38.8603 40.5274C36.9855 39.7169 35.9645 38.321 35.2204 37.3014C35.0358 37.0491 34.8671 36.8169 34.7027 36.6207C33.6038 35.3127 33.699 33.5246 34.9233 32.4603C36.6553 30.9591 42.4698 30.6 44.3474 31.8762C45.1363 32.4142 45.5358 32.8669 45.8573 33.2303C46.2135 33.6342 46.4097 33.8563 47.0081 34.0394C47.174 34.0898 47.8778 34.2412 48.3133 34.3307C50.0697 34.4172 52.2804 33.5548 53.0088 33.2693C55.6175 32.2483 55.6882 28.4311 55.6896 28.3936L55.6925 28.1513C51.7743 24.497 46.1544 23.0737 43.6077 22.4333C42.8592 22.2444 42.4064 22.1305 42.1483 22.0122C41.6666 21.7887 41.3162 21.3734 41.1316 20.8138C40.6268 19.2708 41.4329 16.7082 42.4554 14.8522C42.7914 14.2422 45.6641 8.7435 43.1764 3.33415C42.7813 2.4761 42.0646 1.70313 41.1013 1.09024H31.2431C29.8673 2.04058 28.9905 3.39472 28.6343 5.11803C27.9478 8.4435 28.4872 10.2158 29.0598 12.092C29.4274 13.2991 29.8082 14.5479 29.9193 16.2482C30.1355 19.5535 28.7396 21.1152 27.8455 21.7685L27.6955 21.8709C27.4677 22.0209 27.2859 22.1117 27.1965 22.1492L27.0798 22.2084C16.9562 26.0155 11.2036 34.0091 11.1473 35.5089C12.5635 35.966 17.0946 35.5277 18.5497 35.082C19.1784 34.8902 19.3847 34.6566 19.7596 34.2327C20.0928 33.8533 20.5095 33.3833 21.3301 32.8252C23.0678 31.6426 28.0301 31.8127 30.372 32.9622C30.7167 33.1207 31.0109 33.2982 31.2388 33.4942C32.5035 34.5917 32.603 36.4391 31.468 37.7932C31.295 37.9979 31.1191 38.2417 30.9258 38.5056C30.1514 39.5655 29.09 41.0162 27.1446 41.857C25.9463 42.3747 25.4386 42.3358 24.3253 42.2449C23.4226 42.1728 22.067 42.0647 19.4293 42.1858C17.3498 43.3871 15.9712 44.1428 12.079 46.0493L10.6686 46.7688C10.435 47.2361 10.3383 49.5117 10.3918 51.6028L54.7349 51.6273C55.8497 51.6273 56.7582 50.7375 56.7582 49.6443L56.725 43.5789Z" fill="var(--fill-0, #8FDCEC)"/>
<path id="Vector_2" d="M6.6119 48.4893C5.738 48.8382 5.00685 49.0993 4.3752 49.3026C4.51076 50.5875 5.60244 51.5941 6.94359 51.5941H9.22934C9.1875 50.0208 9.212 48.3263 9.424 47.1943C8.41309 47.6716 7.45265 48.1158 6.6119 48.4893Z" fill="var(--fill-0, #E42313)"/>
<path id="Vector_3" d="M59.8241 35.8406C59.4506 34.061 58.5737 32.4358 57.5037 30.9173V3.12648C57.5037 1.40317 56.0832 0 54.3368 0H7.06477C5.31838 0 3.89791 1.40317 3.89791 3.12648V31.4306C3.23743 32.4127 2.67068 33.4871 2.24237 34.671C-0.664903 42.7238 -0.461567 47.7595 1.24156 48.5714C1.43624 48.6638 2.37361 48.8498 6.17787 47.3327C10.0167 45.6194 16.6605 42.3373 18.8525 41.0696L18.9722 41.0004L19.1107 40.9932C21.9097 40.8562 23.3432 40.9716 24.2907 41.048C25.316 41.1302 25.6275 41.1547 26.5648 40.7509C28.2262 40.0328 29.1419 38.7796 29.8788 37.7715C30.0879 37.486 30.2797 37.2235 30.4657 37.0029C31.0815 36.2703 31.2546 35.0733 30.3648 34.3018C30.2768 34.2254 30.1744 34.1533 30.0591 34.0841C28.2002 33.0789 23.5177 32.8684 22.0915 33.8389C21.3906 34.3163 21.0431 34.7099 20.7359 35.0575C20.3277 35.5204 19.9413 35.9573 19.0039 36.2443C17.6037 36.6727 12.0775 37.3793 10.4782 36.4852C10.4623 36.4765 10.4451 36.465 10.4277 36.4534C10.4061 36.4419 10.3772 36.4347 10.3571 36.4232C10.1624 36.3136 9.84083 36.0353 9.88983 35.3993C10.0758 32.9289 16.2467 25.2426 25.7977 21.3778C25.0882 20.5283 24.0614 18.9434 24.3902 17.1596C24.5041 16.5409 24.8387 15.8228 25.228 14.9921C26.4293 12.4208 28.2449 8.53583 25.8438 2.87555C25.5467 2.17613 25.0434 1.61948 24.5517 1.14358H54.3383C55.4531 1.14358 56.3616 2.03337 56.3616 3.12792V31.0153C55.9203 32.293 55.0694 33.6889 53.4327 34.3293C52.0598 34.8672 50.0235 35.5723 48.2137 35.4642L48.1329 35.4541C47.9382 35.4137 46.9518 35.2103 46.6793 35.1268C45.7751 34.8498 45.4016 34.4273 45.0079 33.9817C44.7137 33.65 44.382 33.2736 43.7114 32.8165C42.2679 31.8358 37.0114 32.1632 35.6789 33.3183C34.8368 34.0509 35.0012 35.1844 35.5853 35.8795C35.764 36.0929 35.9486 36.3453 36.1505 36.6208C36.8557 37.5855 37.7325 38.7853 39.3217 39.4718C40.2143 39.8583 40.484 39.8352 41.4935 39.7558C42.0977 39.7068 42.9067 39.6434 44.1672 39.6434C44.8074 39.6434 45.5631 39.6607 46.4687 39.7039L46.5567 39.7083L46.6389 39.7386C47.298 39.9838 48.8987 40.5043 48.9146 40.5101C53.6447 42.2435 56.9038 43.077 58.5982 41.8945C59.4174 41.3234 59.8731 40.2347 59.9899 38.5907C59.9942 38.4508 60 38.3138 60 38.1638C60 37.3605 59.938 36.589 59.8241 35.8406ZM15.4492 20.1159C15.1823 21.5421 13.4461 22.8328 11.2468 24.4653C9.23658 25.9578 6.92344 27.6768 5.04005 29.9164V3.12648C5.04005 2.03337 5.94858 1.14214 7.06477 1.14214H13.8354C12.3414 2.57127 11.4632 4.52099 11.2973 6.80961C10.9959 10.9701 12.6255 13.6221 13.9349 15.7521C14.8939 17.3096 15.7202 18.655 15.4492 20.1159Z" fill="var(--fill-0, #E42313)"/>
</g>
</svg>
