<svg preserveAspectRatio="xMidYMid meet" width="100%" height="100%" overflow="visible" style="display: block;" viewBox="0 0 64 64" fill="none" xmlns="http://www.w3.org/2000/svg">
<g id="Logo">
<path id="Ellipse" d="M62 32C62 15.4315 48.5685 2 32 2C15.4315 2 2 15.4315 2 32C2 48.5685 15.4315 62 32 62C48.5685 62 62 48.5685 62 32ZM64 32C64 49.6731 49.6731 64 32 64C14.3269 64 0 49.6731 0 32C0 14.3269 14.3269 0 32 0C49.6731 0 64 14.3269 64 32Z" fill="var(--fill-0, #F7931E)"/>
<path id="Subtract" d="M18.124 44.3808C18.2266 44.2398 18.5734 43.6346 18.6641 43.7832C18.8731 44.1506 19.1262 44.492 19.417 44.7998C20.974 46.2351 26.6168 48.3548 31.1289 47.9638C34.2972 47.6823 37.6352 46.8022 39.917 44.6006C40.1955 44.7013 40.4712 44.8093 40.7441 44.9238C40.5876 45.0589 36.0187 48.9739 31.9521 49.0508C22.8923 49.2162 19.067 45.8434 17.9883 44.6084C18.0272 44.5303 18.0711 44.4536 18.124 44.3808Z" fill="var(--fill-0, #526EA7)"/>
<path id="Subtract_2" d="M19.0586 15.8281C23.9492 7.47064 34.7747 7.83374 39.0742 9.71095C41.2111 10.6556 43.1244 12.0352 44.6904 13.7598C46.2565 15.4844 47.4408 17.5165 48.166 19.7236C49.0509 22.4 49.2884 25.2459 48.8594 28.0303C48.4701 30.0849 47.6746 32.0427 46.5195 33.791C45.3643 35.5395 43.8717 37.0443 42.1279 38.2178C40.8987 39.0505 39.5175 39.6772 38.0605 40.127C37.9103 41.0708 38.0515 42.0401 38.4697 42.9053C38.7993 43.5869 39.2877 44.175 39.8887 44.626C37.6076 46.8083 34.2846 47.6834 31.1289 47.9639C26.6169 48.3549 20.9739 46.2351 19.417 44.7998C19.1275 44.4934 18.8755 44.1536 18.667 43.7881C19.5209 41.1646 19.3635 37.3477 18.0215 33.4658C17.6876 32.5 17.2688 31.5653 17.0146 30.5781C16.8945 30.6225 16.7723 30.6624 16.6465 30.6934C14.6051 31.1939 12.3944 29.1558 12.7412 27.0986C13.017 25.4647 14.8191 24.3677 16.4316 24.5557C16.6094 21.5017 17.501 18.511 19.0586 15.8281Z" fill="var(--fill-0, #C69C6D)"/>
<path id="Subtract_3" d="M37.959 41.2842C36.5868 41.928 32.5899 41.7297 30.751 41.0098C33.1626 41.1091 35.6869 40.8541 38.0186 40.1406L37.959 41.2842Z" fill="var(--fill-0, #A67C52)"/>
<path id="Vector" d="M29.1547 32.6604C29.73 32.8129 31.8345 33.3213 32.5951 33.4934C32.2483 35.6483 28.3547 35.1516 29.1547 32.6604Z" fill="var(--fill-0, white)"/>
<g id="Union">
<path d="M16.5284 27.5959C16.7763 27.5572 16.8785 27.9314 16.631 27.9865C16.5804 27.9929 16.532 28.0121 16.4903 28.0412C16.4487 28.0704 16.4147 28.1093 16.3917 28.1545C16.3688 28.1996 16.3574 28.2495 16.3585 28.3C16.3596 28.3506 16.3727 28.4004 16.3976 28.4445C16.504 28.6205 16.7295 28.6124 16.9581 28.718C17.186 28.8237 16.9852 29.1599 16.7569 29.0588C16.5533 29.0052 16.3602 28.9172 16.1857 28.8C16.0645 28.6882 15.9876 28.5373 15.9689 28.3742C15.9443 28.1978 15.9881 28.0185 16.0919 27.8733C16.1959 27.7279 16.3523 27.6272 16.5284 27.592V27.5959Z" fill="var(--fill-0, #A67C52)"/>
<path d="M13.8722 25.9768C14.3387 25.7116 14.8868 25.6249 15.4132 25.7336C15.9397 25.8424 16.4075 26.1395 16.7286 26.5676C16.8822 26.7631 16.5395 26.9623 16.3858 26.7629C16.1194 26.4229 15.7377 26.1896 15.3116 26.1076C14.8858 26.0258 14.4444 26.1003 14.0694 26.3166C14.024 26.3425 13.9696 26.3497 13.9191 26.3361C13.8684 26.3226 13.8251 26.2895 13.7989 26.2443C13.7729 26.1994 13.7659 26.146 13.7794 26.0959C13.7931 26.0457 13.8267 26.0027 13.8722 25.9768Z" fill="var(--fill-0, #A67C52)"/>
</g>
<path id="Vector_2" d="M16.3626 24.6782C16.5216 21.5725 17.4211 18.5486 18.9872 15.8552C23.9212 7.50545 34.7271 7.86134 39.0266 9.7503C41.1644 10.6937 43.0785 12.0725 44.6447 13.7973C46.211 15.5221 47.3944 17.5543 48.1182 19.7622V19.8091C46.6128 19.5275 45.8877 19.3359 44.6227 18.4833C44.6273 19.0081 44.8091 19.5162 45.1389 19.9264C42.1502 19.2684 39.2274 18.3443 36.4059 17.1654L36.8512 18.2956C34.4867 18.409 32.067 18.5224 29.7182 18.1157C28.6227 17.9323 27.5544 17.6144 26.5379 17.1693L26.4118 17.4626C24.402 20.2315 18.7507 23.544 16.6581 24.596L16.3626 24.6782Z" fill="var(--fill-0, #00A99D)"/>
<g id="Union_2">
<path d="M35.3457 24.7176C35.3102 24.4712 35.689 24.3657 35.7402 24.6121C36.0127 25.9495 39.5384 27.5919 37.7578 29.1951C36.3903 30.4231 34.1124 29.3322 33.0996 28.1902C32.9302 28.0025 33.2094 27.7252 33.3789 27.9168C33.9515 28.5957 34.7401 29.0612 35.6143 29.2381C36.7807 29.4608 38.4862 28.9723 37.4893 27.3416C36.8705 26.3249 35.6253 25.9806 35.373 24.7176H35.3457Z" fill="var(--fill-0, black)"/>
<path d="M41.0439 23.0633C41.5728 23.0633 42.002 23.4886 42.002 24.0135C42.0019 24.5383 41.5728 24.9637 41.0439 24.9637C40.5153 24.9635 40.087 24.5381 40.0869 24.0135C40.0869 23.4888 40.5152 23.0635 41.0439 23.0633Z" fill="var(--fill-0, black)"/>
<path d="M26.7148 22.993C27.2437 22.993 27.6728 23.4183 27.6728 23.9432C27.6728 24.468 27.2437 24.8934 26.7148 24.8934C26.1862 24.8931 25.7579 24.4678 25.7578 23.9432C25.7578 23.4185 26.1862 22.9932 26.7148 22.993Z" fill="var(--fill-0, black)"/>
<path d="M26.0771 17.4705C26.2466 17.283 26.5258 17.5602 26.3564 17.7479C23.586 20.7984 20.2285 22.9224 16.5635 24.7566C16.3389 24.8698 16.1379 24.5293 16.3662 24.4158C19.9958 22.6012 23.3185 20.4975 26.0771 17.4705Z" fill="var(--fill-0, black)"/>
<path d="M23.3496 15.0926C23.1764 14.9088 23.4526 14.6354 23.6299 14.8152C26.9728 18.3317 32.0814 18.2823 36.6113 18.0731L36.2559 17.1775C36.2046 17.0485 36.367 16.8796 36.501 16.9383C39.1813 18.0468 41.9491 18.9324 44.7754 19.5916C44.5967 19.2364 44.491 18.8476 44.4687 18.4481C44.4694 18.4141 44.4788 18.3807 44.4961 18.3514C44.5135 18.3219 44.5387 18.2974 44.5684 18.2801C44.598 18.2629 44.6317 18.2534 44.666 18.2527C44.7003 18.2521 44.7344 18.2601 44.7646 18.2762C46.0309 19.1061 47.4463 19.6863 48.9336 19.9852C49.1819 20.0516 49.0754 20.4266 48.8311 20.3758C47.446 20.0929 46.1235 19.5712 44.9199 18.8387C44.9967 19.1815 45.1427 19.5069 45.3516 19.7938C45.4539 19.9424 45.2845 20.1141 45.1309 20.0789C42.2853 19.4424 39.499 18.5708 36.7978 17.4793L37.0879 18.2098C37.135 18.3349 37.0127 18.4559 36.8945 18.4559C32.1891 18.6788 26.853 18.7649 23.3496 15.0965V15.0926Z" fill="var(--fill-0, black)"/>
</g>
<path id="Intersect" d="M17.9389 44.5527C18.9477 45.7377 22.7507 49.2189 31.9525 49.0508C36.074 48.9729 40.7115 44.9529 40.7484 44.9209C44.129 45.8753 49.4994 49.4291 53.3148 53.1084C47.878 58.598 40.337 61.9999 32.0004 62C22.0495 62 13.2314 57.1539 7.77382 49.6943C8.98304 48.8796 10.2803 48.1919 11.6332 47.6348C13.8005 46.7452 15.9071 45.7155 17.9389 44.5527Z" fill="var(--fill-0, #736357)"/>
</g>
</svg>
