<svg xmlns="http://www.w3.org/2000/svg" fill="none" viewBox="0 0 80 80">
  <path fill="#fff" d="M0 12C0 5.373 5.373 0 12 0h56c6.627 0 12 5.373 12 12v56c0 6.627-5.373 12-12 12H12C5.373 80 0 74.627 0 68V12Z"/>
  <path fill="#F7931E" d="M70 40c0-16.569-13.431-30-30-30-16.569 0-30 13.431-30 30 0 16.569 13.431 30 30 30 16.569 0 30-13.431 30-30Zm2 0c0 17.673-14.327 32-32 32C22.327 72 8 57.673 8 40 8 22.327 22.327 8 40 8c17.673 0 32 14.327 32 32Z"/>
  <path fill="#526EA7" d="M26.124 52.38c.103-.14.45-.745.54-.597.21.367.462.709.753 1.017 1.557 1.435 7.2 3.555 11.712 3.164 3.168-.282 6.506-1.162 8.788-3.364.279.101.554.21.827.324-.156.135-4.725 4.05-8.792 4.127-9.06.165-12.885-3.208-13.964-4.443a1.59 1.59 0 0 1 .136-.227Z"/>
  <path fill="#C69C6D" d="M27.059 23.828c4.89-8.357 15.716-7.994 20.015-6.117a16.714 16.714 0 0 1 5.617 4.049 16.564 16.564 0 0 1 3.475 5.964 17.815 17.815 0 0 1 .693 8.306 15.78 15.78 0 0 1-2.34 5.761 15.909 15.909 0 0 1-4.391 4.427c-1.23.832-2.61 1.46-4.067 1.909a4.688 4.688 0 0 0 1.828 4.499c-2.281 2.182-5.604 3.057-8.76 3.338-4.512.39-10.155-1.729-11.712-3.164a5.292 5.292 0 0 1-.75-1.012c.854-2.623.697-6.44-.646-10.322-.333-.966-.752-1.9-1.006-2.888a3.51 3.51 0 0 1-.369.115c-2.04.5-4.252-1.537-3.905-3.594.276-1.634 2.078-2.731 3.69-2.543a19.656 19.656 0 0 1 2.628-8.728Z"/>
  <path fill="#A67C52" d="M45.959 49.284c-1.372.644-5.37.446-7.208-.274 2.412.1 4.936-.156 7.268-.87l-.06 1.144Z"/>
  <path fill="#fff" d="M37.155 40.66c.575.153 2.68.661 3.44.833-.346 2.155-4.24 1.658-3.44-.833Z"/>
  <path fill="#A67C52" d="M24.528 35.596c.248-.04.35.335.103.39a.314.314 0 0 0-.273.314c.001.05.014.1.04.144.106.176.331.168.56.274.228.105.027.441-.201.34a1.888 1.888 0 0 1-.572-.258.686.686 0 0 1-.216-.426.697.697 0 0 1 .56-.782v.004Zm-2.656-1.62a2.213 2.213 0 0 1 1.541-.243c.526.11.994.406 1.315.834.154.196-.189.395-.342.196a1.796 1.796 0 0 0-2.317-.447.2.2 0 0 1-.27-.072.195.195 0 0 1 .073-.268Z"/>
  <path fill="#00A99D" d="M24.363 32.678a19.538 19.538 0 0 1 2.624-8.823c4.934-8.35 15.74-7.994 20.04-6.105a16.688 16.688 0 0 1 5.618 4.047 16.537 16.537 0 0 1 3.473 5.965v.047c-1.505-.282-2.23-.474-3.495-1.326.005.525.186 1.033.516 1.443a51.228 51.228 0 0 1-8.733-2.761l.446 1.13c-2.365.114-4.785.227-7.133-.18a13.474 13.474 0 0 1-3.18-.946l-.127.293c-2.01 2.77-7.661 6.082-9.754 7.134l-.295.082Z"/>
  <path fill="#000" d="M43.346 32.718c-.036-.246.343-.352.394-.106.273 1.338 3.798 2.98 2.018 4.584-1.368 1.227-3.646.137-4.658-1.005-.17-.188.11-.465.279-.274a3.948 3.948 0 0 0 2.235 1.322c1.167.222 2.872-.266 1.875-1.897-.618-1.017-1.864-1.361-2.116-2.624h-.027Zm5.698-1.654c.529 0 .958.425.958.95 0 .525-.43.95-.958.95a.954.954 0 0 1-.957-.95c0-.525.428-.95.957-.95Zm-14.329-.071c.529 0 .958.426.958.95 0 .525-.43.95-.958.95a.954.954 0 0 1-.957-.95c0-.524.428-.95.957-.95Zm-.638-5.523c.17-.187.449.09.28.278-2.77 3.05-6.128 5.175-9.793 7.009-.225.113-.426-.227-.198-.34 3.63-1.816 6.953-3.92 9.711-6.946Z"/>
  <path fill="#000" d="M31.35 23.093c-.174-.184.103-.457.28-.277 3.343 3.516 8.451 3.467 12.981 3.257l-.355-.895c-.051-.13.111-.298.245-.24a53.375 53.375 0 0 0 8.275 2.654 2.905 2.905 0 0 1-.307-1.144.199.199 0 0 1 .197-.195c.034 0 .068.008.099.023 1.266.83 2.681 1.41 4.169 1.71.248.066.142.441-.103.39a12.23 12.23 0 0 1-3.911-1.537c.077.343.223.668.432.955.102.149-.067.32-.221.285a53.321 53.321 0 0 1-8.333-2.6l.29.731c.047.125-.075.246-.193.246-4.706.223-10.042.31-13.545-3.36v-.003Z"/>
  <path fill="#736357" d="M25.939 52.553c1.009 1.185 4.812 4.666 14.014 4.498 4.121-.078 8.759-4.098 8.795-4.13 3.381.954 8.752 4.508 12.567 8.187C55.878 66.598 48.337 70 40 70c-9.951 0-18.77-4.846-24.227-12.306a21.684 21.684 0 0 1 3.86-2.06 53.903 53.903 0 0 0 6.305-3.081Z"/>
</svg>
