<svg xmlns="http://www.w3.org/2000/svg" fill="none" viewBox="0 0 80 80">
  <path fill="#fff" d="M0 12C0 5.373 5.373 0 12 0h56c6.627 0 12 5.373 12 12v56c0 6.627-5.373 12-12 12H12C5.373 80 0 74.627 0 68V12Z"/>
  <path fill="#FF3723" d="M70 40c0 16.569-13.431 30-30 30-16.569 0-30-13.431-30-30 0-16.569 13.431-30 30-30 16.569 0 30 13.431 30 30Z"/>
  <path fill="#000" fill-rule="evenodd" d="M47.685 28.373a7.75 7.75 0 0 1 7.749 7.604 7.448 7.448 0 0 1-.702 3.293 7.541 7.541 0 0 1 1.587 4.753 7.752 7.752 0 0 1-7.75 7.604H25.735a.886.886 0 0 1-.885-.886v-6.866c0-1.418.382-2.747 1.047-3.89a7.552 7.552 0 0 1-1.047-3.861v-6.866c0-.488.396-.885.884-.885h21.95Zm6.261 12.22c-1.46 1.984-3.84 3.282-6.464 3.282H33.09c-2.584 0-4.786-1.02-6.262-2.633a6.307 6.307 0 0 0-.573 2.633v6.347h22.314c3.435 0 6.28-2.793 6.345-6.225a6.095 6.095 0 0 0-.968-3.403ZM32.601 37.53a6.338 6.338 0 0 0-5.01 2.456c1.225 1.53 3.194 2.485 5.5 2.485h14.391c1.76 0 3.486-.729 4.733-2 .309-.314.58-.654.813-1.012a6.674 6.674 0 0 0-4.659-1.929H32.601Zm-6.346-7.752v6.346c0 .937.198 1.813.558 2.599a7.73 7.73 0 0 1 5.788-2.597h15.768c2.016 0 3.889.766 5.31 2.02a6.043 6.043 0 0 0 .35-2.142c-.064-3.432-2.91-6.226-6.344-6.226h-21.43Z" clip-rule="evenodd"/>
</svg>
