<svg preserveAspectRatio="xMidYMid meet" width="100%" height="100%" overflow="visible" style="display: block;" viewBox="0 0 60 60" fill="none" xmlns="http://www.w3.org/2000/svg">
<g id="Logo">
<path id="Vector" d="M60 30C60 46.569 46.569 60 30 60C13.431 60 0 46.569 0 30C0 13.431 13.431 0 30 0C46.569 0 60 13.431 60 30Z" fill="var(--fill-0, #FF3723)"/>
<path id="Union" fill-rule="evenodd" clip-rule="evenodd" d="M37.6846 18.373C41.916 18.3731 45.3556 21.7646 45.4336 25.9766C45.4556 27.1504 45.1996 28.2655 44.7324 29.2695C45.7516 30.5946 46.3525 32.2427 46.3193 34.0234C46.2404 38.236 42.8007 41.627 38.5693 41.627H15.7354C15.2464 41.627 14.8496 41.2302 14.8496 40.7412V33.875C14.8497 32.4567 15.2322 31.128 15.8975 29.9844C15.2256 28.8475 14.8496 27.5301 14.8496 26.124V19.2578C14.8496 18.7696 15.2461 18.373 15.7344 18.373H37.6846ZM43.9463 30.5938C42.4869 32.5771 40.1053 33.8749 37.4824 33.875H23.0898C20.5057 33.8749 18.3042 32.8559 16.8281 31.2422C16.4606 32.0447 16.2549 32.9362 16.2549 33.875V40.2217H38.5693C42.0036 40.2217 44.8496 37.4291 44.9141 33.9971C44.9364 32.7865 44.5976 31.6151 43.9463 30.5938ZM22.6006 27.5293C20.5661 27.5293 18.7528 28.4922 17.5908 29.9854C18.8156 31.5144 20.7854 32.4697 23.0908 32.4697H37.4824C39.2427 32.4697 40.9683 31.7412 42.2148 30.4707C42.5239 30.1558 42.7949 29.816 43.0283 29.458C41.7877 28.2318 40.0958 27.5293 38.3691 27.5293H22.6006ZM16.2549 19.7773V26.123C16.2549 27.0596 16.4529 27.9362 16.8125 28.7217C18.2321 27.1285 20.299 26.125 22.6006 26.125H38.3691C40.3847 26.125 42.2578 26.8913 43.6797 28.1455C43.9226 27.4622 44.0432 26.7398 44.0293 26.0029C43.9648 22.571 41.1188 19.7774 37.6846 19.7773H16.2549Z" fill="var(--fill-0, black)"/>
</g>
</svg>
