<svg preserveAspectRatio="xMidYMid meet" width="100%" height="100%" overflow="visible" style="display: block;" viewBox="0 0 16 16" fill="none" xmlns="http://www.w3.org/2000/svg">
<g id="Logo">
<rect width="16" height="16" rx="2" fill="var(--fill-0, #EE7C22)"/>
<path id="Vector" d="M9.9663 2.34821C9.9663 1.87089 10.5121 1.66667 11.0746 1.66667C11.6193 1.66667 12.1823 1.87089 12.1823 2.34821V10.3257C12.1823 13.1724 10.3746 14.2303 8.09083 14.2303C5.79036 14.2303 4 13.1724 4 10.3257V2.34821C4 1.87089 4.54577 1.66667 5.10768 1.66667C5.65287 1.66667 6.21592 1.87089 6.21592 2.34821V10.3257C6.21592 11.6554 6.9147 12.2857 8.09082 12.2857C9.2676 12.2857 9.96628 11.6554 9.96628 10.3257L9.9663 2.34821Z" fill="var(--fill-0, white)"/>
</g>
</svg>
