<svg xmlns="http://www.w3.org/2000/svg" fill="none" viewBox="0 0 80 80">
  <path fill="#F5F3EE" d="M0 12C0 5.373 5.373 0 12 0h56c6.627 0 12 5.373 12 12v56c0 6.627-5.373 12-12 12H12C5.373 80 0 74.627 0 68V12Z"/>
  <path fill="#FF633F" fill-rule="evenodd" d="M53.488 23C62.608 23 70 30.387 70 39.5S62.607 56 53.488 56c-9.12 0-16.513-7.387-16.513-16.5S44.368 23 53.489 23Zm0 5.663c-5.99 0-10.845 4.852-10.845 10.837 0 5.985 4.855 10.837 10.845 10.837S64.332 45.485 64.332 39.5c0-5.985-4.855-10.837-10.844-10.837Z" clip-rule="evenodd"/>
  <path fill="#FF633F" d="M33.215 54.04H10v-5.827h23.215v5.827Zm-4.032-11.6H10v-5.826h19.183v5.827Zm4.032-11.598H10v-5.827h23.215v5.827Z"/>
</svg>
