<svg preserveAspectRatio="xMidYMid meet" width="100%" height="100%" overflow="visible" style="display: block;" viewBox="0 0 59.9958 23.9153" fill="none" xmlns="http://www.w3.org/2000/svg">
<g id="Logo">
<g id="Subtract">
<path fill-rule="evenodd" clip-rule="evenodd" d="M42.2749 3.35588C42.8318 3.70057 44.4449 3.76966 45.1548 3.88127C46.2076 4.04772 46.796 4.59274 47.3755 5.44475C48.8578 7.6287 48.1938 12.4733 48.019 13.0278C47.707 13.3322 47.2681 13.5689 46.6655 13.6274C45.6092 13.7306 44.5458 13.6532 43.4868 13.7465C42.3733 13.8456 40.4066 13.7256 39.6499 12.849C39.27 12.4104 39.208 11.7746 39.1206 11.2279C38.8271 9.37318 38.4257 7.54321 39.2309 5.726C39.9329 4.14516 41.2625 3.28964 42.2749 3.35588ZM43.7348 4.87834C43.56 4.89399 43.4394 5.08114 43.3901 5.21623C43.3584 5.30009 43.3698 5.39773 43.3803 5.49357C43.3878 5.56084 43.3956 5.6228 43.3872 5.67912C43.356 5.91642 43.4723 6.13199 43.313 6.31975C43.0613 6.6181 42.3528 6.72942 41.8755 6.83635C41.3606 6.95169 40.736 7.16195 40.5151 7.52385C40.5072 7.53479 40.5063 7.54894 40.5132 7.56193C40.52 7.57487 40.5327 7.58233 40.5464 7.58244C40.8568 7.59861 41.2764 7.45771 41.5932 7.40764C42.0274 7.33882 42.4695 7.26928 42.8852 7.36662C42.9864 7.42348 43.0191 7.52689 42.9624 7.62443C42.2139 8.64716 41.8234 9.77203 41.4897 10.8422C41.4002 11.1275 41.2827 11.589 41.2827 12.0131C41.2827 12.1867 41.3007 12.3553 41.351 12.5024C41.3568 12.5194 41.3718 12.5295 41.3891 12.5297C41.4067 12.5297 41.4224 12.5195 41.4282 12.5033C41.5061 12.2943 41.6643 12.0226 41.7231 11.8178C41.8566 11.3426 42.0364 10.9502 42.3569 10.5356C42.6896 10.1042 42.9464 9.72442 43.4067 9.31291C43.4946 9.55743 43.519 9.85064 43.519 10.1567C43.519 10.3022 43.5145 10.4486 43.5102 10.5942C43.5055 10.7323 43.5005 10.8659 43.5005 10.9926C43.5005 11.0713 43.5025 11.1475 43.5073 11.2211C43.5073 11.2347 43.5092 11.249 43.5092 11.2641C43.5092 11.3434 43.4979 11.4508 43.4868 11.5717C43.4725 11.7183 43.4565 11.8857 43.4565 12.0453C43.4565 12.3327 43.5091 12.5948 43.7163 12.6762C43.729 12.6803 43.7461 12.6821 43.7524 12.6713C43.9667 12.3299 43.8593 12.0895 44.0551 11.6781C44.0986 11.5864 44.1872 11.3018 44.1821 11.2026C44.1795 11.1088 44.1792 11.1116 44.1792 11.0258C44.1792 10.9653 44.1807 10.9067 44.186 10.852C44.2003 10.6534 44.2495 10.4521 44.2934 10.2582C44.3374 10.0715 44.3823 9.87704 44.4009 9.68303C44.4109 9.57714 44.4155 9.46769 44.4155 9.36076C44.4155 9.22328 44.4091 9.08634 44.4028 8.95354C44.3975 8.82061 44.3921 8.68425 44.3921 8.54924C44.3921 8.47152 44.3942 8.39252 44.3979 8.31584C44.4154 8.06394 44.5176 7.92634 44.5913 7.82463C44.7407 7.6212 45.3526 7.62639 45.4702 7.62639C45.645 7.62638 45.8239 7.62103 46.0024 7.63615C46.3795 7.66692 46.7671 7.73484 47.1411 7.80314C47.5305 7.87356 47.3427 7.87491 47.7426 7.90568C47.7605 7.90807 47.7769 7.89635 47.7827 7.88029C47.7895 7.86416 47.7853 7.8458 47.77 7.83537C47.085 7.31326 46.6383 7.27228 46.269 7.22795L45.9116 7.18791C45.3983 7.12525 44.8169 6.8029 44.3667 6.4467C44.1321 6.25998 44.2137 5.93746 44.2778 5.69182C44.2942 5.62884 44.3162 5.57024 44.3374 5.51506C44.42 5.3059 44.4911 5.12472 44.0805 4.92912C44.0647 4.92072 43.9542 4.85874 43.7348 4.87834Z" fill="var(--fill-0, #9165A0)"/>
<path fill-rule="evenodd" clip-rule="evenodd" d="M44.2368 0.212325C46.7572 0.0610754 48.1791 -0.084906 50.6772 0.0590043C52.5638 0.167028 55.8706 0.689479 57.4155 1.7885C58.4273 2.5109 59.0031 3.70205 59.3745 4.7885C59.9445 6.46076 60.0003 8.07195 59.9956 9.88713C59.9939 10.9219 59.695 11.9059 59.0747 12.8744C58.8257 13.2634 58.381 14.0128 58.061 14.352C57.412 15.0405 56.8843 15.5 55.9106 15.7045C54.1152 16.0832 51.8219 16.3901 50.019 16.3666C47.1265 16.3275 45.17 16.4232 42.2885 16.2934C40.9896 16.235 39.841 15.8205 38.56 15.6557C38.0319 15.5874 37.5072 15.0603 37.1469 14.6264C36.5901 13.9566 35.8428 13.0767 35.6928 12.2572C35.526 11.3461 35.367 10.5394 35.3686 9.59123C35.3739 6.88672 34.9389 5.11603 36.9458 2.87053C37.8051 1.90772 39.0256 0.729372 40.352 0.539473C42.6073 0.21295 41.9709 0.353157 44.2368 0.212325ZM44.7895 2.63322C43.6246 2.55605 42.2829 2.57006 41.1264 2.76408C40.0845 2.93939 39.2199 3.47574 38.4936 4.22307C37.2232 5.5328 37.5854 7.21738 37.5854 8.91936C37.5854 10.3689 37.2308 12.2528 38.4731 13.3002C39.6088 14.2567 41.2102 14.4251 42.7192 14.4496H46.5688C47.2601 14.4496 48.0846 14.3332 48.6206 13.8686C49.4264 13.1686 49.6004 11.9037 49.5522 10.6664C49.7217 10.6484 49.8921 10.6252 50.0571 10.5942C50.1697 10.5738 50.6614 10.5022 50.7719 10.5229C50.8831 10.5448 51.0132 10.5515 51.0669 10.6029C51.1204 10.6562 51.2573 10.7944 51.2573 10.8617C51.2573 10.9012 51.2622 10.9423 51.2622 10.9828C51.2622 11.0527 51.2575 11.1234 51.2544 11.1928C51.2512 11.2631 51.2495 11.3339 51.2495 11.4047C51.2495 11.4614 51.2505 11.5185 51.2563 11.5737C51.2664 11.6748 51.293 11.7764 51.3169 11.8744C51.3423 11.9755 51.371 12.0793 51.3784 12.183C51.381 12.2112 51.3823 12.2431 51.3823 12.2738C51.3823 12.3181 51.381 12.367 51.3784 12.4154C51.3769 12.467 51.3851 12.5504 51.393 12.6029C51.4291 12.8377 51.4589 12.9679 51.6274 13.1332C51.6321 13.1372 51.6402 13.1376 51.646 13.1352C51.7645 13.094 51.7671 12.9567 51.7671 12.8061C51.7671 12.7231 51.7848 12.6347 51.7768 12.558C51.771 12.4951 51.7651 12.4395 51.7651 12.3979V12.3754C51.7688 12.3371 51.769 12.2992 51.769 12.2572C51.769 12.1916 51.7673 12.1205 51.7641 12.0502C51.7615 11.9735 51.7583 11.8963 51.7583 11.8217C51.7583 11.6898 51.7686 11.5631 51.7993 11.4516C51.7993 11.4516 51.8153 11.3931 51.8872 11.434C52.1244 11.6274 52.2544 11.8946 52.4301 12.1C52.6124 12.317 52.6546 12.5333 52.7934 12.7446C52.8564 12.8394 52.9105 12.9364 52.9555 13.0463C52.9587 13.053 52.9662 13.0588 52.9751 13.059C52.9846 13.058 52.9922 13.0537 52.9975 13.0453C53.0251 12.9682 53.0356 12.8803 53.0356 12.7885C53.0355 12.5669 52.9688 12.3262 52.9175 12.1772C52.7262 11.6175 52.4792 11.1586 52.2026 10.6235C52.2025 10.5541 52.1799 10.4593 52.2739 10.3656C52.5107 10.3161 52.6135 10.3532 52.8598 10.3881C53.0409 10.4136 53.2294 10.4408 53.4057 10.433C53.4142 10.4325 53.4211 10.4281 53.4243 10.4213C53.4274 10.4135 53.4275 10.406 53.4233 10.3998C53.2972 10.2106 53.0064 10.1524 52.6987 10.0893C52.4244 10.033 52.1422 9.97562 51.9975 9.81877C51.9065 9.72078 51.9247 9.57764 51.8999 9.4135C51.8956 9.37646 51.8995 9.33246 51.9048 9.28557C51.9137 9.21943 51.9217 9.15157 51.8979 9.09221C51.8608 9.00148 51.7684 8.89465 51.645 8.86076C51.5635 8.83685 51.482 8.85396 51.4048 8.9008C51.3963 8.89298 51.3865 8.88732 51.3764 8.89201C51.0638 9.02799 51.1177 9.15529 51.1792 9.30217L51.227 9.42424C51.2752 9.59167 51.3153 9.77147 51.1987 9.88518C50.9884 10.0946 50.6869 10.2391 50.3921 10.2719L50.1889 10.2934C49.8243 10.3295 49.765 10.3606 49.5444 10.517C49.4977 9.63787 49.3483 8.78477 49.2387 8.17229C48.9654 6.65286 48.6959 4.12298 47.0678 3.47307C46.1239 3.09652 45.6928 2.94356 44.7895 2.63322ZM55.0591 4.54631C54.9854 4.52545 54.7436 4.57896 54.7134 4.59514C54.3103 4.80528 54.3735 4.97343 54.4555 5.18303C54.4773 5.23832 54.4974 5.29719 54.5171 5.35979C54.6165 5.66453 54.6063 5.89328 54.4028 6.11369C54.0346 6.5148 53.3962 6.79231 52.8823 6.8549L52.5249 6.89592C52.1556 6.93973 51.708 6.9818 51.0219 7.50236C51.009 7.51381 51.0045 7.5312 51.0112 7.54826C51.017 7.56385 51.0343 7.5747 51.0512 7.5717C51.4507 7.54197 51.2624 7.54101 51.6518 7.47111C52.0269 7.40435 52.4152 7.33444 52.7934 7.30314C52.9697 7.28858 53.1489 7.29123 53.3247 7.29436C53.5317 7.298 53.748 7.30055 53.9614 7.27287C54.0355 7.37596 54.1051 7.44966 54.1665 7.51213C54.2936 7.64354 54.38 7.73158 54.396 7.98283C54.4013 8.06055 54.4028 8.13949 54.4028 8.21721C54.4028 8.35199 54.3958 8.48839 54.3911 8.62053C54.3847 8.75458 54.3794 8.89162 54.3794 9.02775C54.3794 9.13602 54.383 9.24324 54.393 9.351C54.4105 9.54451 54.457 9.739 54.5005 9.92521C54.5465 10.1213 54.5935 10.3213 54.6089 10.5199C54.6125 10.575 54.6137 10.6316 54.6137 10.6918C54.6137 10.7794 54.6139 10.7763 54.6118 10.8696C54.6075 10.9692 54.6947 11.2538 54.7397 11.3461C54.9344 11.7574 54.8281 11.9978 55.0415 12.3393C55.0484 12.3497 55.0659 12.3469 55.0786 12.3422C55.2865 12.2618 55.3383 12 55.3384 11.7133C55.3384 11.5532 55.2775 11.4297 55.2632 11.2826C55.252 11.161 55.221 10.467 55.2173 10.3285C55.212 10.183 55.2094 9.96963 55.2094 9.82463C55.2095 9.59885 55.2898 9.37968 55.3305 9.18205C55.3607 9.13224 55.4068 8.99691 55.5395 9.11662C55.9384 9.47803 56.2411 9.91104 56.5356 10.2944C56.8555 10.7095 57.0364 11.0655 57.1694 11.5395C57.2282 11.7459 57.2873 11.9617 57.3657 12.1713C57.372 12.1864 57.3878 12.1972 57.4048 12.1967C57.4228 12.1967 57.4365 12.186 57.4428 12.1703C57.492 12.0224 57.5131 11.8551 57.5132 11.6801C57.5132 11.2562 57.3937 10.7959 57.3042 10.5121C56.9752 9.45696 56.591 8.34777 55.8647 7.33537C55.8171 7.25504 55.9736 7.01636 56.0542 7.00725C56.4261 6.95352 56.8187 7.01412 57.2007 7.07463C57.5173 7.12465 57.9132 7.21457 58.2241 7.20061C58.2379 7.19904 58.2509 7.1891 58.2573 7.17814C58.2646 7.16579 58.2634 7.15144 58.2573 7.14006C58.0353 6.77808 57.4339 6.61907 56.9184 6.50432C56.4412 6.39742 55.7099 6.28684 55.4575 5.98869C55.2976 5.79995 55.4383 5.58436 55.4067 5.34611C55.3988 5.29239 55.4061 5.22838 55.4135 5.16057C55.4247 5.0667 55.4349 4.96868 55.4048 4.8842C55.355 4.74917 55.229 4.59177 55.0591 4.54631Z" fill="var(--fill-0, #9165A0)"/>
</g>
<g id="Union">
<path fill-rule="evenodd" clip-rule="evenodd" d="M22.6065 19.6526C22.6757 19.6528 22.7393 19.7099 22.7393 19.7776V19.9251C22.7392 19.9987 22.6985 20.022 22.6358 20.0335L22.4278 20.0726C22.5311 20.1805 22.624 20.3518 22.624 20.6585V20.7034C22.624 21.3288 22.2308 21.6761 21.3418 21.6761C21.0359 21.676 20.8402 21.6295 20.6729 21.5618C20.5749 21.6072 20.5274 21.6701 20.5274 21.7552C20.5274 21.8516 20.5746 21.9029 20.7071 21.9368L21.5674 22.1526C22.1332 22.2945 22.6757 22.4546 22.6758 22.9886V23.0345C22.6758 23.5795 22.3061 23.9153 21.3594 23.9153C20.4474 23.9153 20.0324 23.5683 20.0322 23.012V22.9602C20.0322 22.6421 20.2048 22.3804 20.3955 22.2386L20.3545 22.221C20.1703 22.1411 20.0899 21.9534 20.0899 21.7776V21.7727C20.0899 21.6194 20.1641 21.4539 20.3262 21.3626C20.1468 21.1983 20.0596 20.9933 20.0596 20.7034V20.6585C20.0596 20.1526 20.3492 19.6527 21.3418 19.6526H22.6065ZM20.8106 22.3802C20.6432 22.522 20.5274 22.665 20.5274 22.9602V23.012C20.5275 23.3299 20.7187 23.5286 21.3594 23.5286C22.0174 23.5286 22.167 23.3469 22.167 23.0345V22.9886C22.1669 22.767 21.982 22.6761 21.4629 22.5452L20.8106 22.3802ZM21.3418 20.0501C20.6951 20.0502 20.5625 20.3404 20.5625 20.6585V20.7034C20.5625 20.9538 20.6782 21.2834 21.3418 21.2835C21.9654 21.2835 22.1211 21.0446 22.1211 20.7034V20.6585C22.1211 20.3174 21.9654 20.0501 21.3418 20.0501Z" fill="var(--fill-0, #231F20)"/>
<path fill-rule="evenodd" clip-rule="evenodd" d="M44.8194 19.4651C44.8535 19.4653 44.8643 19.4819 44.8643 19.511C44.8642 19.5278 44.8591 19.556 44.8418 19.5726L44.4375 20.1077C44.5931 20.3403 44.6748 20.6469 44.6748 20.9993V21.431C44.6748 22.2666 44.2355 22.8177 43.3867 22.8177C43.0573 22.8176 42.7868 22.7322 42.585 22.5794L42.3301 22.9202C42.2901 22.9709 42.2724 22.9768 42.2383 22.9769H41.9551C41.9207 22.9769 41.9093 22.9605 41.9092 22.9319C41.9092 22.9148 41.915 22.8867 41.9317 22.8694L42.3418 22.3235C42.1866 22.0904 42.1055 21.7888 42.1055 21.431V20.9993C42.1055 20.1638 42.5387 19.6127 43.3867 19.6126C43.7157 19.6126 43.9935 19.6975 44.1953 19.8509L44.4375 19.5218C44.4783 19.4707 44.4953 19.4651 44.5303 19.4651H44.8194ZM42.8672 22.2044C42.9885 22.318 43.1618 22.3801 43.3867 22.3802C43.9298 22.3802 44.166 22.0167 44.166 21.431V20.9993C44.166 20.8345 44.1428 20.6869 44.1026 20.556L42.8672 22.2044ZM43.3867 20.0501C42.8444 20.0502 42.6133 20.4141 42.6133 20.9993V21.431C42.6133 21.6015 42.6307 21.7493 42.6709 21.8802L43.9063 20.2259C43.7792 20.1124 43.6117 20.0501 43.3867 20.0501Z" fill="var(--fill-0, #231F20)"/>
<path fill-rule="evenodd" clip-rule="evenodd" d="M14.6416 19.6126C15.444 19.6127 15.7676 20.0108 15.7676 20.681V22.6644C15.7676 22.7274 15.7149 22.7786 15.6514 22.7786H15.3858C15.3224 22.7784 15.2706 22.7273 15.2705 22.6644V22.5394C14.9935 22.6984 14.705 22.8186 14.3819 22.8186C13.8908 22.8186 13.4405 22.6075 13.4405 21.8977V21.8294C13.4405 21.2155 13.8043 20.9085 14.8321 20.9085H15.2588V20.681C15.2588 20.2038 15.0917 20.0394 14.6416 20.0394C14.266 20.0394 13.9888 20.0613 13.7578 20.0843H13.7285C13.6774 20.0842 13.6261 20.0671 13.626 19.9935V19.7942C13.626 19.7322 13.6655 19.6978 13.7471 19.6868C13.9834 19.6472 14.249 19.6126 14.6416 19.6126ZM14.8321 21.2669C14.1333 21.2669 13.9483 21.4198 13.9483 21.8235V21.8919C13.9483 22.3012 14.1448 22.4084 14.4795 22.4085C14.7449 22.4085 14.9817 22.3291 15.2588 22.181V21.2669H14.8321Z" fill="var(--fill-0, #231F20)"/>
<path fill-rule="evenodd" clip-rule="evenodd" d="M24.6895 19.6126C25.5321 19.6128 25.959 20.1354 25.959 20.9427V21.2493C25.959 21.3234 25.919 21.3743 25.8496 21.3743H23.9151V21.4534C23.9151 22.1299 24.1874 22.3802 24.7188 22.3802C25.0531 22.3802 25.4807 22.3584 25.7461 22.3177H25.7744C25.821 22.3177 25.8672 22.3404 25.8672 22.3977V22.5911C25.8671 22.6644 25.8438 22.7043 25.752 22.721C25.4225 22.7841 25.105 22.8186 24.7188 22.8186C24.0544 22.8186 23.4082 22.5112 23.4082 21.4534V20.9427C23.4082 20.13 23.8646 19.6126 24.6895 19.6126ZM24.6895 20.0501C24.1931 20.0501 23.9151 20.3287 23.9151 20.9427V20.9935H25.4453V20.9427C25.4453 20.3002 25.1978 20.0502 24.6895 20.0501Z" fill="var(--fill-0, #231F20)"/>
<path fill-rule="evenodd" clip-rule="evenodd" d="M48.7129 19.6126C49.5553 19.6126 49.9834 20.1352 49.9834 20.9427V21.2493C49.9834 21.3234 49.9419 21.3743 49.8731 21.3743H47.9395V21.4534C47.9395 22.1299 48.2108 22.3802 48.7422 22.3802C49.0769 22.3802 49.5037 22.3583 49.7696 22.3177H49.7979C49.8439 22.3177 49.8906 22.3404 49.8906 22.3977V22.5911C49.8906 22.6644 49.8676 22.7043 49.7754 22.721C49.4465 22.7841 49.1288 22.8186 48.7422 22.8186C48.0778 22.8186 47.4317 22.5112 47.4317 21.4534V20.9427C47.4317 20.1301 47.8872 19.6127 48.7129 19.6126ZM48.7129 20.0501C48.2162 20.0502 47.9395 20.3289 47.9395 20.9427V20.9935H49.4697V20.9427C49.4697 20.3001 49.2205 20.0501 48.7129 20.0501Z" fill="var(--fill-0, #231F20)"/>
<path fill-rule="evenodd" clip-rule="evenodd" d="M58.709 19.6126C59.5516 19.6128 59.9785 20.1354 59.9785 20.9427V21.2493C59.9785 21.3234 59.938 21.3743 59.8692 21.3743H57.9356V21.4534C57.9356 22.1298 58.2062 22.38 58.7373 22.3802C59.0722 22.3802 59.4997 22.3584 59.7656 22.3177H59.794C59.84 22.3177 59.8867 22.3404 59.8867 22.3977V22.5911C59.8867 22.6645 59.8631 22.7043 59.7705 22.721C59.4416 22.7841 59.124 22.8186 58.7373 22.8186C58.0731 22.8185 57.4268 22.511 57.4268 21.4534V20.9427C57.4268 20.13 57.8836 19.6126 58.709 19.6126ZM58.709 20.0501C58.2126 20.0501 57.9356 20.3287 57.9356 20.9427V20.9935H59.4649V20.9427C59.4649 20.3002 59.2168 20.0502 58.709 20.0501Z" fill="var(--fill-0, #231F20)"/>
<path fill-rule="evenodd" clip-rule="evenodd" d="M4.31643 19.6126C5.16515 19.6126 5.60451 20.1637 5.60451 20.9993V21.431C5.60451 22.2666 5.16515 22.8177 4.31643 22.8177C3.46802 22.8175 3.03518 22.2664 3.03518 21.431V20.9993C3.03518 20.1639 3.46802 19.6128 4.31643 19.6126ZM4.31643 20.0501C3.78009 20.0503 3.54299 20.4142 3.54299 20.9993V21.431C3.54299 22.0108 3.77373 22.38 4.31643 22.3802C4.85311 22.3802 5.0967 22.0167 5.0967 21.431V20.9993C5.0967 20.4198 4.85893 20.0501 4.31643 20.0501Z" fill="var(--fill-0, #231F20)"/>
<path d="M29.9121 19.6126C30.2357 19.6126 30.5419 19.6405 30.8125 19.6858C30.8878 19.6973 30.9219 19.7375 30.9219 19.8001V19.9876C30.9219 20.0559 30.8815 20.0843 30.8242 20.0843H30.8067C30.6049 20.0671 30.2358 20.0394 29.9121 20.0394C29.589 20.0394 29.3751 20.0785 29.375 20.3685C29.375 20.5384 29.5082 20.6468 29.7735 20.8001L30.3447 21.1351C30.824 21.4135 30.9794 21.6583 30.9795 21.9935C30.9795 22.5735 30.5468 22.8177 29.9004 22.8177C29.6868 22.8177 29.2711 22.8005 28.9883 22.7327C28.9138 22.7155 28.8673 22.6814 28.8672 22.6194V22.4202C28.8672 22.3691 28.914 22.3352 28.9717 22.3352H28.9942C29.2711 22.3691 29.6926 22.3977 29.9004 22.3977C30.2755 22.3977 30.4727 22.3002 30.4727 21.9935C30.4725 21.8236 30.3678 21.7156 30.0391 21.5227L29.4561 21.181C29.1039 20.9708 28.8672 20.7262 28.8672 20.3685C28.8673 19.777 29.3177 19.6126 29.9121 19.6126Z" fill="var(--fill-0, #231F20)"/>
<path fill-rule="evenodd" clip-rule="evenodd" d="M37.9795 19.6126C38.7819 19.6127 39.1055 20.0103 39.1055 20.681V22.6644C39.1055 22.7269 39.0532 22.7785 38.9903 22.7786H38.7237C38.6608 22.7784 38.6084 22.7268 38.6084 22.6644V22.5403C38.3315 22.6993 38.0433 22.8176 37.7197 22.8177C37.2293 22.8177 36.7785 22.6078 36.7783 21.8977V21.8294C36.7783 21.216 37.1421 20.9085 38.1699 20.9085H38.5967V20.681C38.5967 20.2033 38.4296 20.0384 37.9795 20.0384C37.6044 20.0384 37.3267 20.0613 37.0957 20.0843H37.0674C37.015 20.0843 36.9639 20.067 36.9639 19.9935V19.7942C36.9639 19.7317 37.0037 19.6973 37.084 19.6858C37.3208 19.6462 37.5869 19.6126 37.9795 19.6126ZM38.1699 21.2659C37.4713 21.2659 37.2862 21.42 37.2862 21.8235V21.8919C37.2863 22.3011 37.4831 22.4085 37.8184 22.4085C38.0831 22.4084 38.3198 22.3294 38.5967 22.1819V21.2659H38.1699Z" fill="var(--fill-0, #231F20)"/>
<path fill-rule="evenodd" clip-rule="evenodd" d="M56.4697 18.5042C56.5268 18.5042 56.574 18.5492 56.5742 18.6116V22.5911C56.5742 22.6645 56.5559 22.7043 56.4522 22.721C56.0942 22.7893 55.7422 22.8177 55.3906 22.8177C54.5303 22.8177 54.1319 22.2671 54.1319 21.4144V21.0052C54.1319 20.1132 54.5477 19.6126 55.3906 19.6126C55.5696 19.6126 55.8405 19.6292 56.0655 19.6692V18.6116C56.0657 18.555 56.112 18.5043 56.1748 18.5042H56.4697ZM55.3906 20.0501C54.8248 20.0501 54.6397 20.3975 54.6397 21.0052V21.4144C54.6397 22.0339 54.8196 22.3802 55.3906 22.3802C55.5865 22.3802 55.869 22.3632 56.0655 22.346V20.0901C55.8748 20.0563 55.5749 20.0501 55.3906 20.0501Z" fill="var(--fill-0, #231F20)"/>
<path d="M1.22951 18.5149C1.57017 18.5149 2.11284 18.5271 2.35549 18.5501C2.38988 18.5559 2.41311 18.5953 2.41311 18.6292V18.9134C2.41305 18.9529 2.38984 18.9817 2.34963 18.9817H1.23537C0.623573 18.9818 0.525411 19.1407 0.525411 19.5726V20.3626H2.29787C2.36138 20.3627 2.41311 20.4143 2.41311 20.4769V20.6927C2.41296 20.7551 2.36129 20.8059 2.29787 20.806H0.525411V22.6644C0.525411 22.7269 0.473179 22.7786 0.410177 22.7786H0.115255C0.0517984 22.7785 2.07554e-05 22.7269 2.07554e-05 22.6644V19.5726C2.07554e-05 18.8168 0.421152 18.515 1.22951 18.5149Z" fill="var(--fill-0, #231F20)"/>
<path d="M7.76174 19.6126C7.8428 19.6126 7.88283 19.6468 7.88283 19.7151V19.9476C7.88283 20.0101 7.8428 20.0442 7.76174 20.0442C7.49594 20.0443 7.25346 20.113 6.96486 20.2835V22.6644C6.96486 22.7212 6.91321 22.7786 6.84963 22.7786H6.5674C6.51019 22.7786 6.45803 22.7264 6.45803 22.6644V19.7659C6.45803 19.7033 6.50436 19.6517 6.5674 19.6517H6.83791C6.90202 19.6517 6.94826 19.7033 6.94826 19.7659V19.8851C7.23632 19.6864 7.50227 19.6127 7.76174 19.6126Z" fill="var(--fill-0, #231F20)"/>
<path d="M11.4903 18.5149C11.8309 18.5149 12.3736 18.5271 12.6162 18.5501C12.6506 18.5559 12.6738 18.5953 12.6738 18.6292V18.9134C12.6738 18.9529 12.6506 18.9817 12.6104 18.9817H11.4961C10.8843 18.9818 10.7862 19.1407 10.7862 19.5726V20.3626H12.5586C12.6221 20.3627 12.6738 20.4143 12.6738 20.4769V20.6927C12.6737 20.7551 12.622 20.8059 12.5586 20.806H10.7862V22.6644C10.7862 22.7269 10.7339 22.7786 10.6709 22.7786H10.376C10.3125 22.7785 10.2608 22.7269 10.2608 22.6644V19.5726C10.2608 18.8168 10.6819 18.515 11.4903 18.5149Z" fill="var(--fill-0, #231F20)"/>
<path d="M18.1504 19.6126C18.8432 19.6126 19.1552 20.0387 19.1553 20.7942V22.6644C19.1553 22.7268 19.1034 22.7784 19.0401 22.7786H18.7627C18.6991 22.7786 18.6475 22.7269 18.6475 22.6644V20.7942C18.6474 20.2205 18.451 20.0443 18.0127 20.0442C17.7702 20.0442 17.4988 20.1356 17.2334 20.2659V22.6644C17.2334 22.7212 17.1803 22.7786 17.1172 22.7786H16.835C16.7767 22.7786 16.7246 22.7269 16.7246 22.6644V19.7659C16.7247 19.7034 16.7709 19.6526 16.835 19.6526H17.1231C17.1864 19.6528 17.2333 19.7035 17.2334 19.7659V19.8743C17.5506 19.6981 17.8099 19.6126 18.1504 19.6126Z" fill="var(--fill-0, #231F20)"/>
<path d="M28.1289 19.6126C28.21 19.6126 28.25 19.6468 28.25 19.7151V19.9476C28.25 20.0101 28.21 20.0442 28.1289 20.0442C27.863 20.0442 27.6208 20.1129 27.3321 20.2835V22.6644C27.3321 22.7212 27.2803 22.7785 27.2168 22.7786H26.9346C26.8763 22.7786 26.8242 22.7264 26.8242 22.6644V19.7659C26.8242 19.7033 26.871 19.6517 26.9346 19.6517H27.2051C27.2692 19.6517 27.3155 19.7034 27.3155 19.7659V19.8851C27.6041 19.6865 27.8694 19.6126 28.1289 19.6126Z" fill="var(--fill-0, #231F20)"/>
<path fill-rule="evenodd" clip-rule="evenodd" d="M34.5869 18.5159C35.5223 18.516 36.2029 18.8338 36.2031 19.7483V19.8226C36.203 20.7721 35.5224 21.0959 34.5869 21.096C34.402 21.096 34.1597 21.0791 34.0098 21.0677V22.6653C34.0096 22.7215 33.969 22.7784 33.9063 22.7786H33.5938C33.5362 22.7786 33.4904 22.7272 33.4903 22.6653V18.7034C33.4903 18.6237 33.5418 18.5724 33.628 18.5608C33.8764 18.5321 34.2521 18.5159 34.5869 18.5159ZM34.5869 18.9524C34.4084 18.9524 34.1481 18.9649 34.0098 18.9759V20.6409C34.1422 20.6467 34.437 20.6634 34.5869 20.6634C35.3776 20.6633 35.6777 20.4138 35.6778 19.8226V19.7483C35.6776 19.1749 35.3315 18.9525 34.5869 18.9524Z" fill="var(--fill-0, #231F20)"/>
<path d="M41.3672 19.6126C41.4482 19.6126 41.4883 19.6468 41.4883 19.7151V19.9476C41.4883 20.0101 41.4482 20.0442 41.3672 20.0442C41.1013 20.0442 40.8591 20.1129 40.5703 20.2835V22.6644C40.5703 22.7211 40.5185 22.7784 40.4551 22.7786H40.1729C40.1146 22.7786 40.0625 22.7264 40.0625 22.6644V19.7659C40.0625 19.7033 40.1093 19.6517 40.1729 19.6517H40.4434C40.5068 19.6518 40.5537 19.7034 40.5537 19.7659V19.8851C40.8423 19.6865 41.1077 19.6126 41.3672 19.6126Z" fill="var(--fill-0, #231F20)"/>
<path d="M46.8321 19.6126C46.9131 19.6126 46.9541 19.6468 46.9541 19.7151V19.9476C46.9541 20.0101 46.9131 20.0442 46.8321 20.0442C46.5663 20.0443 46.3238 20.113 46.0352 20.2835V22.6644C46.0352 22.7212 45.9835 22.7786 45.9199 22.7786H45.6377C45.5795 22.7786 45.5283 22.7264 45.5283 22.6644V19.7659C45.5283 19.7033 45.5742 19.6517 45.6377 19.6517H45.9082C45.9718 19.6517 46.0186 19.7033 46.0186 19.7659V19.8851C46.3066 19.6864 46.5726 19.6127 46.8321 19.6126Z" fill="var(--fill-0, #231F20)"/>
<path d="M52.2735 19.6126C52.9663 19.6126 53.2782 20.0387 53.2783 20.7942V22.6644C53.2783 22.7269 53.2266 22.7785 53.1631 22.7786H52.8858C52.8222 22.7786 52.7705 22.7269 52.7705 22.6644V20.7942C52.7704 20.2203 52.5739 20.0442 52.1348 20.0442C51.8928 20.0443 51.6218 20.1356 51.3565 20.2659V22.6644C51.3565 22.7211 51.3041 22.7783 51.2412 22.7786H50.958C50.9003 22.7786 50.8477 22.7269 50.8477 22.6644V19.7659C50.8478 19.7034 50.894 19.6526 50.958 19.6526H51.2461C51.3096 19.6526 51.3564 19.7034 51.3565 19.7659V19.8743C51.6737 19.6981 51.933 19.6127 52.2735 19.6126Z" fill="var(--fill-0, #231F20)"/>
<path fill-rule="evenodd" clip-rule="evenodd" d="M37.9854 18.2024C38.3083 18.2026 38.5682 18.4641 38.5684 18.7825C38.5684 19.1006 38.3084 19.3566 37.9854 19.3567C37.6622 19.3567 37.3965 19.1007 37.3965 18.7825C37.3967 18.464 37.6623 18.2024 37.9854 18.2024ZM37.9854 18.4817C37.8186 18.4817 37.6848 18.6115 37.6846 18.7767C37.6846 18.9415 37.8185 19.0784 37.9854 19.0784C38.1526 19.0782 38.291 18.9414 38.291 18.7767C38.2908 18.6116 38.1525 18.4819 37.9854 18.4817Z" fill="var(--fill-0, #231F20)"/>
<path d="M4.43947 0.569624C5.64842 0.569627 7.57562 0.609423 8.43654 0.689741C8.55946 0.710605 8.64162 0.852908 8.64162 0.97392V1.98173C8.64162 2.12305 8.55955 2.22485 8.41604 2.2249H4.45998C2.28685 2.2249 1.93852 2.78962 1.9385 4.32353V7.12919H8.23147C8.45663 7.12919 8.64162 7.31083 8.64162 7.53251V8.29912C8.64162 8.52132 8.45663 8.70341 8.23147 8.70341H1.9385V15.302C1.9385 15.5242 1.7535 15.7063 1.52834 15.7063H0.482443C0.256929 15.7061 0.0732629 15.5241 0.0732629 15.302V4.32353C0.0733244 1.63896 1.56965 0.569624 4.43947 0.569624Z" fill="var(--fill-0, #231F20)"/>
<path d="M15.9385 0.569624C17.1478 0.569624 19.0744 0.60944 19.9356 0.689741C20.0585 0.710605 20.1406 0.852908 20.1406 0.97392V1.98173C20.1406 2.12302 20.0589 2.22479 19.916 2.2249H15.959C13.7862 2.22495 13.4375 2.7897 13.4375 4.32353V7.12919H19.7305C19.9557 7.12919 20.1406 7.31083 20.1406 7.53251V8.29912C20.1406 8.52132 19.9557 8.70341 19.7305 8.70341H13.4375V15.302C13.4375 15.5241 13.2533 15.7062 13.0283 15.7063H11.9824C11.7568 15.7063 11.5723 15.5242 11.5723 15.302V4.32353C11.5723 1.63901 13.0688 0.569666 15.9385 0.569624Z" fill="var(--fill-0, #231F20)"/>
<path fill-rule="evenodd" clip-rule="evenodd" d="M26.9668 0.569624C30.2872 0.569704 32.7058 1.69942 32.7061 4.94853V5.21123C32.7061 8.5817 30.2874 9.73165 26.9668 9.73173C26.3109 9.73173 25.4495 9.67183 24.916 9.63115V15.303C24.9159 15.5047 24.7732 15.7061 24.5479 15.7063H23.4405C23.2356 15.7062 23.0714 15.5245 23.0713 15.303V1.23564C23.0713 0.952971 23.2562 0.771438 23.5635 0.730756C24.4456 0.630063 25.7782 0.569624 26.9668 0.569624ZM26.9668 2.12333C26.3316 2.12333 25.4082 2.16423 24.916 2.20439V8.11748C25.3881 8.13782 26.4344 8.19853 26.9668 8.19853C29.775 8.19845 30.8408 7.31007 30.8408 5.21123V4.94853C30.8407 2.91107 29.6106 2.1234 26.9668 2.12333Z" fill="var(--fill-0, #231F20)"/>
</g>
</g>
</svg>
