<svg xmlns="http://www.w3.org/2000/svg" fill="none" viewBox="0 0 80 80">
  <path fill="#fff" d="M0 12C0 5.373 5.373 0 12 0h56c6.627 0 12 5.373 12 12v56c0 6.627-5.373 12-12 12H12C5.373 80 0 74.627 0 68V12Z"/>
  <path fill="#9165A0" fill-rule="evenodd" d="M52.275 31.44c.557.345 2.17.415 2.88.526 1.053.167 1.641.712 2.22 1.564 1.483 2.184.819 7.028.644 7.583-.312.304-.75.54-1.353.6-1.057.103-2.12.025-3.179.118-1.114.1-3.08-.02-3.837-.897-.38-.439-.442-1.074-.53-1.621-.293-1.855-.694-3.685.111-5.502.702-1.58 2.032-2.436 3.044-2.37Zm1.46 1.523c-.175.016-.295.203-.345.338-.031.084-.02.182-.01.277.008.068.016.13.007.186-.03.237.085.453-.074.64-.252.3-.96.41-1.437.517-.515.116-1.14.326-1.36.688a.036.036 0 0 0-.003.038c.007.013.02.02.034.02.31.017.73-.124 1.046-.174.435-.07.877-.139 1.292-.041.102.056.134.16.078.257-.749 1.023-1.14 2.148-1.473 3.218-.09.285-.207.747-.207 1.171 0 .174.018.342.068.49a.04.04 0 0 0 .038.027.04.04 0 0 0 .04-.027c.077-.209.235-.48.294-.685.134-.475.314-.868.634-1.282.333-.432.59-.812 1.05-1.223.088.244.112.538.112.844 0 .145-.004.292-.009.437-.004.138-.01.272-.01.399 0 .078.003.154.008.228l.001.043c0 .08-.01.187-.022.308a4.97 4.97 0 0 0-.03.473c0 .288.052.55.26.631.012.004.03.006.036-.005.214-.341.106-.582.302-.993.044-.092.132-.376.127-.475-.002-.094-.003-.091-.003-.177 0-.06.002-.12.007-.174.014-.199.064-.4.108-.594.044-.187.089-.381.107-.575.01-.106.015-.215.015-.322 0-.138-.007-.275-.013-.407-.005-.133-.01-.27-.01-.405 0-.078.001-.157.005-.233.018-.252.12-.39.194-.491.149-.204.76-.199.878-.199.175 0 .354-.005.533.01.377.03.764.099 1.138.167.39.07.202.072.602.103a.038.038 0 0 0 .04-.026.036.036 0 0 0-.013-.045c-.685-.522-1.132-.563-1.5-.607l-.358-.04c-.514-.063-1.095-.385-1.545-.741-.235-.187-.153-.51-.089-.755.016-.063.038-.122.06-.177.082-.21.153-.39-.257-.586-.016-.008-.127-.07-.346-.05Z" clip-rule="evenodd"/>
  <path fill="#9165A0" fill-rule="evenodd" d="M54.237 28.297c2.52-.151 3.942-.297 6.44-.153 1.887.108 5.194.63 6.739 1.73 1.011.722 1.587 1.913 1.959 3 .57 1.672.626 3.283.62 5.098 0 1.035-.3 2.019-.92 2.987-.25.39-.694 1.139-1.014 1.478-.649.688-1.177 1.148-2.15 1.352-1.796.38-4.089.686-5.892.663-2.892-.04-4.849.056-7.73-.074-1.3-.058-2.448-.472-3.729-.637-.528-.069-1.053-.596-1.413-1.03-.557-.67-1.304-1.55-1.454-2.369-.167-.91-.326-1.718-.324-2.666.005-2.704-.43-4.475 1.577-6.72.86-.963 2.08-2.142 3.406-2.332 2.256-.326 1.62-.186 3.885-.327Zm.553 2.421c-1.165-.077-2.507-.063-3.663.131-1.042.175-1.907.712-2.633 1.459-1.27 1.31-.908 2.994-.908 4.696 0 1.45-.355 3.334.887 4.381 1.136.957 2.737 1.125 4.246 1.15h3.85c.691 0 1.516-.117 2.052-.581.806-.7.98-1.965.931-3.203.17-.018.34-.04.505-.072.113-.02.605-.092.715-.071.111.022.241.028.295.08.054.053.19.191.19.259 0 .04.005.08.005.12 0 .07-.004.141-.007.21a3.785 3.785 0 0 0 .002.382c.01.1.036.202.06.3.026.101.054.205.062.309a1.296 1.296 0 0 1 0 .232 1.27 1.27 0 0 0 .014.188c.036.235.066.365.235.53.004.004.012.005.018.002.119-.041.121-.178.121-.329 0-.083.018-.171.01-.248-.006-.063-.012-.118-.012-.16v-.023c.004-.038.004-.076.004-.118 0-.065-.002-.136-.005-.207-.002-.076-.006-.154-.006-.228 0-.132.01-.259.041-.37 0 0 .017-.059.088-.018.238.193.368.46.543.666.183.217.225.433.364.645.063.094.117.191.162.301.003.007.01.013.02.013a.03.03 0 0 0 .022-.014.768.768 0 0 0 .038-.257c0-.221-.067-.462-.118-.61-.192-.56-.439-1.02-.715-1.555 0-.069-.023-.164.071-.257.237-.05.34-.013.586.022.181.026.37.053.546.045a.022.022 0 0 0 .019-.012c.003-.008.003-.015-.002-.021-.126-.19-.416-.248-.724-.31-.274-.057-.557-.114-.701-.271-.091-.098-.073-.241-.098-.406a.592.592 0 0 1 .005-.127.384.384 0 0 0-.007-.194.409.409 0 0 0-.253-.231.294.294 0 0 0-.24.04c-.008-.008-.018-.014-.028-.009-.313.136-.26.263-.198.41l.048.122c.048.168.088.347-.028.461a1.4 1.4 0 0 1-.807.387l-.203.021c-.364.036-.424.068-.644.224-.047-.88-.197-1.732-.306-2.345-.273-1.52-.543-4.05-2.171-4.699a40.877 40.877 0 0 0-2.278-.84Zm10.27 1.913c-.074-.02-.316.033-.347.05-.402.21-.34.377-.257.587.021.055.042.114.061.177.1.304.09.533-.114.754-.368.4-1.007.678-1.52.74l-.358.042c-.37.044-.817.086-1.503.606a.04.04 0 0 0-.01.046.037.037 0 0 0 .04.024c.399-.03.21-.031.6-.1.375-.068.763-.138 1.142-.169.176-.014.355-.012.53-.009.208.004.424.007.638-.021.074.103.143.177.205.24.127.13.213.218.23.47.004.078.006.156.006.234 0 .135-.007.271-.012.404a8.567 8.567 0 0 0-.011.407c0 .108.003.215.013.323.018.194.064.388.108.574.046.196.093.396.108.595.004.055.005.112.005.172l-.002.178c-.004.1.083.384.128.476.195.411.088.652.302.993.007.01.024.008.037.003.208-.08.26-.342.26-.629 0-.16-.061-.283-.076-.43a37.526 37.526 0 0 1-.046-.955 16 16 0 0 1-.007-.503c0-.226.08-.445.12-.643.03-.05.077-.185.21-.065.398.361.701.794.996 1.177.32.415.5.771.634 1.245.058.207.117.423.196.632a.042.042 0 0 0 .039.026.04.04 0 0 0 .038-.027c.05-.148.07-.315.07-.49 0-.424-.12-.884-.209-1.168-.329-1.055-.713-2.164-1.44-3.177-.047-.08.11-.319.19-.328.372-.053.765.007 1.147.068.317.05.712.14 1.023.126a.047.047 0 0 0 .033-.023.039.039 0 0 0 0-.038c-.222-.362-.823-.521-1.338-.636-.478-.107-1.209-.217-1.461-.515-.16-.19-.02-.405-.051-.643-.008-.054 0-.118.007-.185a.619.619 0 0 0-.01-.277.552.552 0 0 0-.345-.338Z" clip-rule="evenodd"/>
  <path fill="#231F20" fill-rule="evenodd" d="M32.606 47.737c.07 0 .133.058.133.125v.148c0 .073-.04.097-.103.108l-.208.04c.103.107.196.279.196.585v.045c0 .626-.393.973-1.282.973a1.69 1.69 0 0 1-.67-.114c-.097.045-.145.108-.145.193 0 .096.048.148.18.181l.86.216c.566.142 1.109.302 1.109.836v.046c0 .545-.37.881-1.317.881-.912 0-1.327-.347-1.327-.903v-.052c0-.318.173-.58.363-.722l-.04-.017c-.185-.08-.265-.268-.265-.444v-.005c0-.153.074-.318.236-.41-.18-.164-.266-.369-.266-.659v-.045c0-.506.29-1.006 1.282-1.006h1.264Zm-1.796 2.728c-.167.142-.283.285-.283.58v.052c0 .318.192.516.832.516.658 0 .808-.181.808-.494v-.046c0-.221-.185-.312-.704-.443l-.652-.165Zm.532-2.33c-.647 0-.78.29-.78.608v.045c0 .25.116.58.78.58.623 0 .78-.239.78-.58v-.045c0-.341-.157-.608-.78-.608Zm23.478-.585c.033 0 .044.017.044.046 0 .016-.005.045-.022.061l-.404.535c.155.233.237.54.237.892v.432c0 .835-.44 1.386-1.288 1.386-.33 0-.6-.085-.802-.238l-.255.34c-.04.052-.058.058-.092.058h-.283c-.034 0-.046-.017-.046-.045 0-.018.006-.046.023-.063l.41-.546c-.155-.233-.236-.535-.236-.892v-.432c0-.836.433-1.387 1.28-1.387.33 0 .607.085.81.238l.242-.329c.04-.05.057-.056.092-.056h.29Zm-1.953 2.74c.122.113.295.175.52.175.543 0 .779-.364.779-.95v-.431c0-.165-.023-.313-.063-.443l-1.236 1.648Zm.52-2.155c-.543 0-.774.364-.774.949v.432c0 .17.018.318.058.449l1.235-1.655c-.127-.113-.294-.175-.52-.175Zm-28.745-.438c.802 0 1.126.398 1.126 1.069v1.983a.116.116 0 0 1-.117.114h-.265a.115.115 0 0 1-.116-.114v-.125c-.276.16-.565.28-.888.28-.491 0-.942-.212-.942-.922v-.068c0-.614.364-.92 1.392-.92h.427v-.228c0-.477-.167-.642-.617-.642a8.52 8.52 0 0 0-.884.045h-.03c-.05 0-.102-.017-.102-.09v-.2c0-.062.04-.097.121-.107.236-.04.502-.075.895-.075Zm.19 1.655c-.699 0-.884.153-.884.556v.069c0 .409.197.516.532.516.265 0 .502-.08.779-.227v-.914h-.427Zm9.858-1.655c.842 0 1.269.523 1.269 1.33v.307c0 .074-.04.125-.11.125h-1.934v.08c0 .676.272.926.804.926a7.87 7.87 0 0 0 1.027-.063h.028c.047 0 .093.023.093.08v.194c0 .073-.023.113-.115.13-.33.063-.647.097-1.033.097-.665 0-1.31-.307-1.31-1.365v-.51c0-.813.456-1.33 1.28-1.33Zm0 .438c-.497 0-.775.278-.775.892v.051h1.53v-.05c0-.643-.247-.893-.755-.893Zm24.023-.438c.842 0 1.27.523 1.27 1.33v.307c0 .074-.041.125-.11.125H57.94v.08c0 .676.27.926.802.926a7.87 7.87 0 0 0 1.028-.063h.028c.046 0 .093.023.093.08v.194c0 .073-.023.113-.116.13a5.266 5.266 0 0 1-1.033.097c-.664 0-1.31-.307-1.31-1.365v-.51c0-.813.455-1.33 1.28-1.33Zm0 .438c-.497 0-.773.279-.773.892v.051h1.53v-.05c0-.643-.25-.893-.757-.893Zm9.996-.438c.843 0 1.27.523 1.27 1.33v.307c0 .074-.041.125-.11.125h-1.933v.08c0 .675.27.926.801.926.335 0 .763-.022 1.029-.063h.028c.046 0 .093.023.093.08v.194c0 .073-.024.113-.117.13a5.273 5.273 0 0 1-1.033.097c-.664 0-1.31-.307-1.31-1.365v-.51c0-.813.457-1.33 1.282-1.33Zm0 .438c-.496 0-.773.278-.773.892v.051h1.529v-.05c0-.643-.248-.893-.756-.893Zm-54.393-.438c.85 0 1.288.551 1.288 1.387v.432c0 .835-.439 1.386-1.288 1.386-.848 0-1.28-.55-1.28-1.386v-.432c0-.836.432-1.387 1.28-1.387Zm0 .438c-.536 0-.773.364-.773.949v.432c0 .58.23.949.773.949.537 0 .78-.364.78-.95v-.431c0-.58-.237-.95-.78-.95Z" clip-rule="evenodd"/>
  <path fill="#231F20" d="M39.912 47.697c.324 0 .63.028.9.073.076.012.11.052.11.115v.187c0 .069-.04.097-.098.097h-.017a11.471 11.471 0 0 0-.895-.045c-.323 0-.537.04-.537.33 0 .17.133.277.398.43l.572.336c.479.278.634.523.635.858 0 .58-.433.824-1.08.824-.213 0-.629-.017-.912-.085-.074-.017-.12-.051-.12-.113v-.2c0-.05.046-.084.104-.084h.022c.277.034.699.062.906.062.376 0 .573-.097.573-.404 0-.17-.105-.278-.434-.47l-.583-.342c-.352-.21-.589-.455-.589-.813 0-.591.45-.756 1.045-.756Z"/>
  <path fill="#231F20" fill-rule="evenodd" d="M47.98 47.697c.802 0 1.126.398 1.126 1.069v1.983a.116.116 0 0 1-.116.114h-.266a.116.116 0 0 1-.116-.114v-.124c-.277.159-.565.277-.888.277-.49 0-.941-.21-.942-.92v-.068c0-.613.364-.92 1.392-.92h.427v-.228c0-.478-.167-.643-.617-.643-.376 0-.653.023-.884.046h-.029c-.052 0-.103-.017-.103-.09v-.2c0-.063.04-.097.12-.108.237-.04.503-.074.895-.074Zm.19 1.654c-.699 0-.884.154-.884.557v.069c0 .409.197.516.532.516.265 0 .502-.079.779-.226v-.916h-.427Zm18.3-2.762c.057 0 .104.045.104.107v3.98c0 .073-.018.113-.122.13a5.65 5.65 0 0 1-1.061.096c-.86 0-1.26-.55-1.26-1.403v-.41c0-.891.417-1.392 1.26-1.392.179 0 .45.017.674.057v-1.058a.11.11 0 0 1 .11-.107h.295Zm-1.08 1.546c-.565 0-.75.347-.75.955v.409c0 .62.18.966.75.966.197 0 .479-.017.675-.034v-2.256a4.57 4.57 0 0 0-.674-.04Z" clip-rule="evenodd"/>
  <path fill="#231F20" d="M11.23 46.6c.34 0 .883.012 1.125.035.035.006.058.045.058.079v.284c0 .04-.023.068-.063.068h-1.115c-.611 0-.71.16-.71.591v.79h1.773c.063 0 .115.052.115.114v.216a.115.115 0 0 1-.115.114h-1.773v1.858a.116.116 0 0 1-.115.114h-.295A.115.115 0 0 1 10 50.75v-3.092c0-.755.421-1.057 1.23-1.057Zm6.532 1.097c.08 0 .12.034.12.103v.232c0 .063-.04.097-.12.097-.266 0-.509.069-.797.24v2.38a.119.119 0 0 1-.115.114h-.283c-.057 0-.109-.052-.109-.114v-2.898a.11.11 0 0 1 .11-.115h.27a.11.11 0 0 1 .11.115v.119c.288-.199.554-.273.814-.273ZM21.49 46.6c.34 0 .884.012 1.126.035.035.006.058.045.058.079v.284c0 .04-.023.068-.064.068h-1.114c-.612 0-.71.16-.71.591v.79h1.773c.063 0 .115.052.115.114v.216a.115.115 0 0 1-.115.114h-1.773v1.858a.116.116 0 0 1-.115.114h-.295a.115.115 0 0 1-.115-.114v-3.092c0-.755.42-1.057 1.23-1.057Zm6.66 1.097c.693 0 1.005.426 1.005 1.182v1.87a.116.116 0 0 1-.115.114h-.277a.115.115 0 0 1-.116-.114v-1.87c0-.574-.196-.75-.634-.75-.243 0-.514.091-.78.222v2.398a.12.12 0 0 1-.116.114h-.282a.115.115 0 0 1-.11-.114v-2.898a.11.11 0 0 1 .11-.114h.288a.11.11 0 0 1 .11.114v.108c.318-.176.577-.262.917-.262Zm9.979 0c.081 0 .121.034.121.103v.232c0 .063-.04.097-.121.097-.266 0-.508.069-.797.24v2.38a.12.12 0 0 1-.115.114h-.282a.115.115 0 0 1-.11-.114v-2.898c0-.063.046-.115.11-.115h.27a.11.11 0 0 1 .11.115v.119c.29-.199.554-.273.814-.273Z"/>
  <path fill="#231F20" fill-rule="evenodd" d="M44.587 46.6c.935 0 1.616.319 1.616 1.233v.074c0 .95-.68 1.274-1.616 1.274-.185 0-.427-.017-.577-.029v1.598c0 .056-.041.113-.104.113h-.312c-.058 0-.104-.051-.104-.113v-3.962c0-.08.052-.13.138-.142a8.99 8.99 0 0 1 .959-.045Zm0 .437c-.179 0-.439.013-.577.023v1.666c.132.005.427.022.577.022.79 0 1.09-.25 1.09-.84v-.075c0-.573-.346-.796-1.09-.796Z" clip-rule="evenodd"/>
  <path fill="#231F20" d="M51.367 47.697c.081 0 .121.034.121.103v.232c0 .063-.04.097-.12.097-.267 0-.509.069-.798.24v2.38a.12.12 0 0 1-.115.114h-.282a.115.115 0 0 1-.11-.114v-2.898c0-.063.046-.115.11-.115h.27c.064 0 .11.052.11.115v.119c.29-.199.555-.273.814-.273Zm5.465 0c.081 0 .122.034.122.103v.232c0 .063-.04.097-.122.097-.266 0-.508.069-.797.24v2.38a.12.12 0 0 1-.115.114h-.282a.114.114 0 0 1-.11-.114v-2.898c0-.063.046-.115.11-.115h.27c.064 0 .11.052.11.115v.119c.289-.199.555-.273.814-.273Zm5.441 0c.693 0 1.005.426 1.005 1.182v1.87a.115.115 0 0 1-.115.114h-.277a.115.115 0 0 1-.116-.114v-1.87c0-.574-.196-.75-.635-.75-.242 0-.513.091-.779.222v2.398a.12.12 0 0 1-.115.114h-.283a.115.115 0 0 1-.11-.114v-2.898a.11.11 0 0 1 .11-.114h.288a.11.11 0 0 1 .11.114v.108c.318-.176.577-.262.917-.262Z"/>
  <path fill="#231F20" fill-rule="evenodd" d="M47.985 46.287a.577.577 0 1 1 0 1.154.582.582 0 0 1-.588-.574c0-.318.265-.58.588-.58Zm0 .28c-.166 0-.3.13-.3.294 0 .165.133.302.3.302a.306.306 0 0 0 .306-.302.3.3 0 0 0-.306-.295Z" clip-rule="evenodd"/>
  <path fill="#231F20" d="M14.44 28.654c1.208 0 3.136.04 3.996.12.123.021.206.164.206.285v1.007c0 .142-.082.244-.226.244H14.46c-2.173 0-2.522.564-2.522 2.098v2.806h6.293c.226 0 .41.181.41.403v.767a.409.409 0 0 1-.41.404h-6.293v6.599a.409.409 0 0 1-.41.404h-1.046a.408.408 0 0 1-.409-.404V32.408c0-2.684 1.497-3.754 4.367-3.754Zm11.499 0c1.209 0 3.135.04 3.997.12.122.021.205.164.205.285v1.007c0 .142-.082.244-.225.244h-3.957c-2.173 0-2.521.564-2.521 2.098v2.806h6.293c.225 0 .41.181.41.403v.767a.409.409 0 0 1-.41.404h-6.294v6.599a.408.408 0 0 1-.409.404h-1.046a.408.408 0 0 1-.41-.404V32.408c0-2.684 1.497-3.754 4.367-3.754Z"/>
  <path fill="#231F20" fill-rule="evenodd" d="M36.967 28.654c3.32 0 5.739 1.13 5.74 4.38v.262c0 3.37-2.42 4.52-5.74 4.52-.656 0-1.517-.06-2.051-.1v5.672c0 .201-.143.403-.368.403H33.44c-.204 0-.369-.182-.369-.403V29.32c0-.282.185-.464.492-.505.883-.1 2.215-.16 3.404-.16Zm0 1.554c-.635 0-1.559.04-2.051.081v5.913c.472.02 1.518.081 2.05.081 2.809 0 3.875-.888 3.875-2.987v-.263c0-2.037-1.23-2.825-3.874-2.825Z" clip-rule="evenodd"/>
</svg>
