<svg xmlns="http://www.w3.org/2000/svg" fill="none" viewBox="0 0 80 80">
  <path fill="#fff" d="M0 12C0 5.373 5.373 0 12 0h56c6.627 0 12 5.373 12 12v56c0 6.627-5.373 12-12 12H12C5.373 80 0 74.627 0 68V12Z"/>
  <path fill="#1E1E1E" d="M27.872 26v5.549H15.988a.486.486 0 0 0-.484.487v14.432c0 .516.39.966.853.983a.892.892 0 0 0 .924-.895v-5.102c0-3.328 2.688-6.035 5.99-6.035h6.521a.487.487 0 0 0 .484-.487v-2.896c0-3.329 2.686-6.036 5.989-6.036h11.669v5.549h-11.67a.486.486 0 0 0-.483.487v2.896c0 3.328-2.686 6.035-5.988 6.035h-6.521a.486.486 0 0 0-.485.487v5.103a6.415 6.415 0 0 1-1.954 4.636 6.312 6.312 0 0 1-4.67 1.803C12.707 52.872 10 50.004 10 46.47V32.036C10 28.707 12.687 26 15.99 26h11.882Z"/>
  <path fill="#1E1E1E" d="M64.01 26c3.308 0 5.99 2.703 5.991 6.035V46.78c0 3.334-2.682 6.036-5.99 6.036h-7.73c-3.307 0-5.988-2.703-5.988-6.036v-4.061h5.504v4.06c0 .27.217.488.484.489h7.73a.485.485 0 0 0 .484-.488V32.036a.485.485 0 0 0-.483-.487h-7.73a.486.486 0 0 0-.485.487v3.383c0 3.064-2.464 5.547-5.504 5.547h-6.746a.486.486 0 0 0-.483.488v5.102a6.415 6.415 0 0 1-1.955 4.636 6.314 6.314 0 0 1-4.67 1.803c-3.456-.124-6.163-2.991-6.163-6.527v-3.751h5.505v3.75c0 .517.391.967.854.984a.898.898 0 0 0 .924-.895v-5.102c0-3.333 2.68-6.036 5.988-6.036.038 0 4.714.004 6.259.014a.485.485 0 0 0 .486-.488v-3.396c0-3.064 2.465-5.548 5.505-5.548h8.214Z"/>
</svg>
