<svg preserveAspectRatio="xMidYMid meet" width="100%" height="100%" overflow="visible" style="display: block;" viewBox="0 0 60.001 27" fill="none" xmlns="http://www.w3.org/2000/svg">
<g id="Logo">
<path d="M17.8721 0V5.54883H5.98828C5.72096 5.54884 5.50391 5.76738 5.50391 6.03613V20.4678C5.50391 20.9842 5.89475 21.4341 6.35742 21.4512C6.67313 21.4607 6.88617 21.3217 7.00977 21.2012C7.11189 21.1023 7.28125 20.8875 7.28125 20.5566V15.4541C7.2814 12.1256 9.96847 9.41895 13.2705 9.41895H19.792C20.0592 9.41893 20.2761 9.20017 20.2764 8.93164V6.03613C20.2764 2.7075 22.9625 0 26.2646 0H37.9336V5.54883H26.2646C25.9979 5.54883 25.7812 5.76737 25.7812 6.03613V8.93164C25.781 12.26 23.0948 14.9666 19.793 14.9668H13.2715C13.0042 14.9668 12.7873 15.1855 12.7871 15.4541V20.5566C12.7871 22.3209 12.0931 23.9681 10.833 25.1934C9.63006 26.3638 8.0628 26.9999 6.39844 27C6.31989 27 6.24163 26.9988 6.16309 26.9961C2.70714 26.8723 2.53116e-05 24.0044 0 20.4688V6.03613C0 2.7075 2.68712 0 5.98926 0H17.8721Z" fill="var(--fill-0, #1E1E1E)"/>
<path d="M54.0107 0C57.3183 0 60.0003 2.70246 60.001 6.03516V20.7793C60.001 24.1127 57.3193 26.8154 54.0117 26.8154H46.2812C42.9739 26.8152 40.293 24.1125 40.293 20.7793V16.7178H45.7969V20.7783C45.7969 21.0476 46.0141 21.2663 46.2812 21.2666H54.0117C54.279 21.2666 54.4951 21.0487 54.4951 20.7793V6.03613C54.4951 5.7667 54.279 5.54883 54.0117 5.54883H46.2812C46.0139 5.54883 45.7969 5.7667 45.7969 6.03613V9.41895C45.7967 12.4826 43.3329 14.9657 40.293 14.9658H33.5469C33.2798 14.9661 33.0635 15.1848 33.0635 15.4541V20.5557C33.0635 22.3199 32.3695 23.967 31.1094 25.1924C29.9058 26.3626 28.3391 26.9989 26.6748 26.999C26.5963 26.999 26.518 26.9978 26.4395 26.9951C22.9835 26.8712 20.2764 24.0035 20.2764 20.4678V16.7168H25.7812V20.4678C25.7812 20.9843 26.172 21.4342 26.6348 21.4512C26.9438 21.4573 27.1625 21.3207 27.2861 21.2002C27.3882 21.1014 27.5586 20.8868 27.5586 20.5557V15.4541C27.5586 12.1208 30.2394 9.41797 33.5469 9.41797C33.5845 9.41801 38.2609 9.4222 39.8057 9.43164C40.0744 9.43367 40.292 9.21444 40.292 8.94434V5.54785C40.292 2.48391 42.7567 0 45.7969 0H54.0107Z" fill="var(--fill-0, #1E1E1E)"/>
</g>
</svg>
