<svg xmlns="http://www.w3.org/2000/svg" fill="none" viewBox="0 0 80 80">
  <path fill="#fff" d="M0 12C0 5.373 5.373 0 12 0h56c6.627 0 12 5.373 12 12v56c0 6.627-5.373 12-12 12H12C5.373 80 0 74.627 0 68V12Z"/>
  <path fill="#EE343F" d="M55.398 25.878c-.035 15.135-1.64 26.57-15.489 35.942-13.916-9.373-15.463-20.771-15.495-35.941H28.4c-.223-1.362-1.196-5.286-1.507-6.117.973-.457 2.101-.28 2.208.461 2.592-2.164 6.578-2.468 10.795-2.468 5.531 0 8.929.715 10.82 2.476.1-.747 1.234-.926 2.211-.469-.311.831-1.284 4.755-1.507 6.116h3.978Z"/>
  <path fill="#FFD600" fill-rule="evenodd" d="M31.153 28.707c.077-.02.66-.023.746 0v4.152c.08.043.234.168.246.112.015-.157.137-.857.206-.903.133-.088.352-.155.559-.181.105-.126.12-.482.185-.87.431.07.332.586.415.832-.02.738.16.504-.688 1.598.264.323.369.15.646.26.197.414.801.525 2.325 1.367-.165.549-.363 2-.43 2.182-.288-.213-2.404-2.068-2.523-2.084a2.948 2.948 0 0 0-.455-.04c-.218-.163-.214-.118.131-.542-.1-.073-.562-.354-.617-.383v6.925c.079.096.547.484.613.484.036-.01.11-.06.12-.105-.06-.1-.418-.68-.433-.778.075-.168.06-.336.358-.601-.058-.538-.238-.529-.362-.85.435-.045.297.006.805.452.444.827.43.35.43 2.08.06.06.284.17.353.153.237-.414 2.346-4.03 2.21-4.033-.213-.026-.567.01-.822 0 .364-.766.437-2.963.9-3.312 1.922-1.682 2.887-2.216 4.42-2.38.404-.051.434-.092.609-.522.082-.08-1.309-.028-1.453-.067.063-.205.305-.465.39-.655-.602-.66-.26-.15-.608-1.348.165-.13 1.024-.816 1.097-.91.135.029 3.7.876 3.808.876.326.02.61.07.557.437-.024.468-.332.665-.491.896.195 2.97-2.177 5.189-2.085 6.555-.208-.031-.347-.14-.497-.18 0 .348-.107 5.716-.02 5.907.774.683 2.054 4.483 3.044 5.915 1.843 2.763 5.67.769 2.916-3.184-1.234-2.474-4.915-5.388.545-8.924 3.04-2.162 3.447-2.676 3.899-3.861.974-3.96-4.03-4.125-3.617-1.509 1.153.304.958-.192 1.554 1.47 0 .45-.221 1.687-.304 1.842-.04.041-.103.041-.193.041-.084-.948-.373-1.225-.51-1.553-.048-.032-.17-.05-.155 0 .125.467.195.655 0 1.283-.685.681-2.957 1.971-3.584 3.024a.389.389 0 0 1-.193-.065c.355-1.322 2.027-3.193 2.35-3.863 0-.086.026-.42.005-.5-.024-.056-.682.354-1.023.804a.457.457 0 0 1-.13-.09 7.907 7.907 0 0 1 1.118-1.906c-.24-4.064 5.664-3.859 5.553.275-.099 2.412-2.338 4.023-3.776 5.847 1.369-.274 1.47.333 2.687.02.058.057.088.232.088.234-.915.454-3.69 1.703-3.712 1.712l-.029.182c1.382-.51 1.906.246 3.017-.06.029.076.077.24.077.24l-3.204 1.422c0 .07.01.167.01.168.787-.25 1.205.379 2.345.215.031.08.067.212.067.214l-2.251 1.036c0 1.46 3.099 5.835-.897 7.42-2.632.713-4.072-1.745-5.285-3.708-.057-.889-.109-1.686-.163-2.123a10.708 10.708 0 0 0-.207-.541c-.01-.01-.024 0-.018.015.04.104.193.485.198.53.028.058.19 1.986.208 3.945.036.402.24 2.14.291 2.192.068.066.412.334.413.392.048.208-.057 1.2-.201 1.352-.199.23-.257.136-.251.57.026.765-.323 3.258-.203 4.174-.034.034-.152.112-.215.112-.554-.327-.54-.86-1.45-.074.203.765.694.926-.24 1.394-.05.193.043.712.07.857-.42.107-.777-.99-.822-1.193 0-.222.251-.834.252-.958-.075-.074-.114-.081-.117-.082-.086.06-.61.706-.804.706a1.326 1.326 0 0 1-.653-.398c-.315.091-.728.528-.733.532-.159-.507.143-.733.812-1.316.167-.082.934-.127.998-.192.028-.026.069-.129.047-.14-.253-.109-.99-.474-.99-.616 0-.211.005-.467.189-.674-.11-.19-.4-.452-.748-.676.5-.357.9.099 1.648.416.206.403.362 1.092.545 1.169.04.061.4-.01.608-.168.377-.872-.202-4.15-.319-4.576-.003-.015-.009-.026-.01-.036-.456-1.116-2.393-2.218-3.115-3.865-.09-.625-.223-1.4-.1-1.712.775-1.24 1.92-1.486 2.792-3.394-.015-.015-.006-.011-.032-.011-.808 1.857-1.865 2.037-2.786 3.387-.137.492.079 1.5.107 1.743.137.333.523.962.889 1.326-.357.892-.93.991-.737 1.874-1.53.605-1.163.715-2.1.034-1.948-.276-2.522-.814-3.726-.687-.073-.03-.139-.127-.161-.22.437-.433.686-.415.122-1.29-.688.433-.578.39-1.354.283-.755-.308-.69-.164-.817-.629.288.064.446.13.755.086.105-.644.032-.549 1.108-.58.015-.053.017-.062 0-.152-1.102-.317-.947-.185-.995-.543.015-.297.06-.178.174-.452-.21-.172-.203-.233-.786-.396.28-.295.26-.188.929-.121.54.097.843.248 1.37 1.174a.315.315 0 0 0 .122-.02c.019-.135.028-.74.203-.956.14-.06.504-.041.56-.036.173-.298.126-.588.113-.877.47.306.367.483.418.834-.088 1.137.067.786-.756 1.658.055.12.244.801.244.923.289.117 2.17.16 2.704.226-.19-.38-.102-.876.232-2.844.388-1.58.227-1.217 1.52-1.966.189-.107 1.416-.46 1.379-.575-.235-.736-.23-1.875-1.157-2.677-.206-.23-.472-.835-.523-1.044.3-.36 2.093-2.58 2.094-2.58.006-.015-.008-.019-.01-.02l-4.822 5.955c-.195 0-.249-.062-.256-.295-.042-.413-.074-.497-.795-.512-.267.42-.35.573-.645.923-.246.289-.257.177-.614.116 0 .233.053 1.941 0 1.943-.088.024-.652.041-.746 0v-1.813c-.148-.02-.399.459-.498.49a.742.742 0 0 1-.115-.316c.234-.521.182-.65.613-1.044v-.963c-.24-.075-.289.074-.448-.514.037-.304-.154-.228-.32-.295-.115-.033-.477.02-.621.017.16-.383.24-.327.469-.387.397-.154.58-.119.922-.17v-5.853c-.202.181-.066.275-.782-.01-.47.292-.5.548-.664.74-.335-.448-.002-.773.162-1.088.414-.784.723-.663 1.286-.913v-.116c-.203-.073-.523-.108-.76-.177-.07-.172-.164-.297-.2-.743-.37-.144-.38-.096-.93-.096.242-.49.161-.332.906-.46.328 0 .63-.09.986.178v-3.756Zm1.245 13.732c-.027-.026-.458-.043-.48-.02v.42c.041.014.46-.196.504-.247.01-.065.004-.125-.024-.153Zm9.071-11.654c-.131-.013-1.208-.05-1.264-.036.032.11.105.288.14.314.11.026 1.252.045 1.26.045-.002-.007-.117-.32-.136-.323Zm3.02-.768c-.31-.175-.447-.039-.575.025.015.03.015.02.023.028.314-.202.399-.082.502-.03.068.272-.165.377-.276.523v.05c.255-.297.375-.31.327-.596Zm-4.526-.226a.782.782 0 0 1-.273.118c-.004.056.015.086.028.112a.51.51 0 0 0 .273-.12.206.206 0 0 0-.028-.11Zm.833-.625a3.627 3.627 0 0 0-.401.263c0 .038.01.041.037.041.029 0 .274-.203.38-.254.006.002.132.033.218.058-.103.023-.193.114-.202.198-.017.12.09.217.272.243.18.022.326-.041.343-.163a.258.258 0 0 0-.114-.22c.204.024.867.2.94.273-.005-.036.01-.019-.035-.079a20.09 20.09 0 0 0-1.438-.36Z" clip-rule="evenodd"/>
  <path fill="#FFD600" d="M38.289 30.468c.38.22.079.205 1.372.253.03.03.224.23.291.307-1.64-.054-1.477-.03-1.794-.286-.043-.091.043-.287.13-.274Zm1.989-3.505c.426-.047.538.332.566.409.955-.506.833 1.13.042.558-.028.008-.043.024-.045.047.163.328.244.375.712.487.373.086.602.004.82-.173a.764.764 0 0 0-.03-.064c-.765.265-.649-.98.07-.594.18-.392.757-.334.792.168.836.01.323 1.143-.208.557-.024.009-.045.022-.054.044.187.338.223.456.645.548.427.119.61.022.802-.096.008-.017 0-.046-.015-.065-.975.097-.257-1.37.315-.458.295-.264.54-.182.694-.072-.14.186-.934 1.23-1.033 1.357-.816-.189-3-.694-3.842-.894-.01-.074-.199-1.503-.23-1.76Z"/>
  <path fill="#fff" d="M32.398 30.865c-2.537.011-2.427-.323-4.315 1.882-.782-1.206-1.385-3.64-1.284-5.151 2.59 1.85 3 1.887 5.599 1.887 0 .394.005 1.111 0 1.382Z"/>
  <path fill="#FFD600" d="M58.785 49.342A67.817 67.817 0 0 0 53.4 54.04l7.74 7.698a1.89 1.89 0 0 1 1.857.476 1.874 1.874 0 0 1 0 2.653 1.891 1.891 0 0 1-2.665 0 1.846 1.846 0 0 1-.465-1.862l-7.736-7.701a67.962 67.962 0 0 0-4.723 5.37L46.11 59.38a65.541 65.541 0 0 0 3.081-2.56l.405-.4-1.706-1.702c1.51-1.828 2.906-4.029 3.808-5.98.178.175 2.765 2.753 2.826 2.814h.001a67.493 67.493 0 0 0 2.963-3.5l1.296 1.29Zm-36.681-1.29a67.493 67.493 0 0 0 2.962 3.499l.025.025a6.875 6.875 0 0 0-.021-.023c.01-.01 2.455-2.445 2.957-2.94.898 1.974 2.267 4.151 3.784 6.002l-1.812 1.805.411.405a66.623 66.623 0 0 0 3.075 2.556l-1.297 1.292a67.598 67.598 0 0 0-4.724-5.37l-7.736 7.702c.195.64.043 1.352-.467 1.86a1.889 1.889 0 0 1-2.662 0 1.87 1.87 0 0 1 0-2.653 1.89 1.89 0 0 1 1.856-.476l7.738-7.698a67.499 67.499 0 0 0-5.383-4.698l1.294-1.288Z"/>
  <path fill="#FFD600" fill-rule="evenodd" d="M40.486 8.436h1.315v1.107h-1.315c-.002.155-.001 1.788-.001 1.852.947.248 1.658 1.02 1.782 1.985.014.097.024.207.02.308a2.364 2.364 0 0 1-1.674 2.247l.033-.008-.191 2.98a1.73 1.73 0 0 0-.15-.036c.842.165 1.426.889.031 2.17l.126.123c2.818-3.135 2.818 3.805 0 .674l-.126.123c.109.364.722 1.619 1.157 1.942.945.314 1.772.299 2.723 0 .335-.267.937-1.417 1.035-1.811l-.11-.106c-2.68 2.67-2.68-3.453 0-.783 0 0 .07-.067.11-.108-1.118-1.126-.692-1.791.015-1.997.375-2.891.942-3.087-4.669-2.387l.05-.779c3.812-.505 5.352-.61 5.875-.076 6.87 0 6.76.215 5.846 3.715.187.042.376.105.559.19-.311.831-1.283 4.752-1.507 6.115 5.199-4.214 10.5-6.844 12.25-7.671-.892 1.77-4 7.897-8.371 13.028.07-1.733.093-3.863.101-5.357h-3.98v.002H28.397v-.003h-3.98c.003 1.835.03 3.626.097 5.355-4.367-5.13-7.48-11.254-8.372-13.025 1.75.827 7.053 3.453 12.254 7.669-.224-1.365-1.195-5.282-1.506-6.112.181-.085.368-.148.553-.19-1.014-3.805-.586-3.625 5.822-3.716.543-.564 2.114-.416 5.903.072v-.005a2.368 2.368 0 0 1-1.57-1.69h-.002l-.012-.06a2.341 2.341 0 0 1-.052-.485 2.376 2.376 0 0 1 1.808-2.295v-1.85h-1.313V8.436h1.313v-1.39h1.145v1.39Zm-8.346 8.326c-4.141-.003-4.201.059-3.498 2.882a1.222 1.222 0 0 0-.09-.036c.589.22.828.818.116 1.76l.137.136c2.895-3.01 2.895 3.704 0 .68l-.137.136c.242.466.971 1.465 1.13 1.583.681.321 1.864.364 2.736 0 .336-.267.94-1.417 1.035-1.811l-.108-.106c-2.681 2.67-2.682-3.453 0-.783l.108-.108c-1.037-1.032-.77-1.678-.176-1.936-.173-1.045-.347-1.828-.37-2.396h-.883Zm14.523-.7c.25.549-.07 1.53-.298 3.068.642.238.972.892-.106 1.965l.11.108c2.68-2.67 2.68 3.452 0 .783l-.11.106c.098.394.7 1.544 1.037 1.811a3.73 3.73 0 0 0 2.723 0c.159-.118.889-1.117 1.13-1.583l-.136-.137c-2.895 3.025-2.895-3.689 0-.68l.136-.136c-.966-1.278-.18-1.923.857-1.85-.313-.023-.602.019-.828.127.74-2.967.688-2.88-4.429-2.88.018-.286-.002-.518-.086-.702Zm-7.443.637c-5.536-.627-5.122-.624-4.713 2.383a1.829 1.829 0 0 0-.786-.022c1.015-.189 2.392.49.857 2.035l.109.108c2.681-2.67 2.681 3.452 0 .783-.019.017-.083.08-.109.106.098.394.83 1.544 1.168 1.811.881.336 1.759.299 2.6 0 .436-.325 1.049-1.578 1.158-1.942a4.624 4.624 0 0 1-.126-.123c-2.818 3.133-2.818-3.807 0-.674l.126-.123c-1.3-1.194-.88-1.904-.137-2.129l-.147-2.213Zm6.567 2.33Zm-12.599-3.077Zm6.357.06Zm7.103.02-.002-.006-.001-.001a.155.155 0 0 1 .003.007Z" clip-rule="evenodd"/>
  <path fill="#000" fill-rule="evenodd" d="M32.158 42.364a2.435 2.435 0 0 1 .222.02.22.22 0 0 1 .023.006.074.074 0 0 1 .028.017.155.155 0 0 1 .04.089.377.377 0 0 1-.002.103l-.002.014-.01.01a.232.232 0 0 1-.042.034 3.097 3.097 0 0 1-.39.2.634.634 0 0 1-.089.029.073.073 0 0 1-.034-.003l-.031-.011V42.4l.012-.014a.057.057 0 0 1 .019-.013.185.185 0 0 1 .036-.008 2.504 2.504 0 0 1 .22-.002Zm-.159.092c-.013 0-.025 0-.034.002v.322l.025-.01a2.964 2.964 0 0 0 .373-.191l.014-.01a.264.264 0 0 0 0-.06.08.08 0 0 0-.01-.032l-.006-.001a2.374 2.374 0 0 0-.362-.02Z" clip-rule="evenodd"/>
  <path fill="#000" d="M39.496 34.32c.013.02.008.04.005.048a.077.077 0 0 1-.011.018.147.147 0 0 1-.013.013l-.012.013h-.018c-.542.036-.912.046-1.19.075-.276.028-.45.075-.599.18-.15.106-.279.275-.457.558-.088.141-.188.31-.309.511-.12.202-.26.436-.429.709l-.014.022h-.026a.061.061 0 0 1-.037-.012.055.055 0 0 1-.02-.037v-.005l-.01-.018.014-.022c.335-.545.56-.942.74-1.226.18-.285.321-.467.492-.584.172-.117.369-.165.653-.193.282-.028.663-.036 1.2-.07l.026-.003.015.023Z"/>
  <path fill="#000" fill-rule="evenodd" d="M40.408 30.7a26.322 26.322 0 0 1 1.066.039.046.046 0 0 1 .028.012.07.07 0 0 1 .009.01.573.573 0 0 1 .03.057 2.973 2.973 0 0 1 .09.223l.014.037.003.01.002.003v.001l.023.064-.068-.001h-.013l-.037-.001a31.427 31.427 0 0 1-.54-.012 24.521 24.521 0 0 1-.587-.023.733.733 0 0 1-.093-.01l-.01-.003-.007-.005a.122.122 0 0 1-.025-.027.944.944 0 0 1-.062-.118 1.73 1.73 0 0 1-.07-.194l-.014-.045.046-.012a1.205 1.205 0 0 1 .077-.005h.138Zm-.14.093a1.75 1.75 0 0 0 .086.203c.006.01.01.018.015.023a6.268 6.268 0 0 0 .222.015 26.157 26.157 0 0 0 .834.024l.113.002a6.319 6.319 0 0 0-.082-.204l-.013-.026a22.878 22.878 0 0 0-1.036-.036l-.137-.001h-.002Z" clip-rule="evenodd"/>
  <path fill="#000" d="M44.123 29.895a.497.497 0 0 1 .33.051l.06.031.02.011.003.022a.543.543 0 0 1 .005.188.334.334 0 0 1-.063.14c-.03.042-.07.083-.116.13s-.1.103-.163.176l-.082.096v-.193l.01-.012a.965.965 0 0 1 .103-.11c.037-.036.072-.069.102-.105a.282.282 0 0 0 .065-.25l-.02-.012-.039-.023a.229.229 0 0 0-.078-.029c-.057-.009-.145.005-.298.103l-.032.02-.025-.024-.007-.005a.079.079 0 0 1-.015-.017.228.228 0 0 1-.01-.02l-.022-.042.042-.02a.902.902 0 0 0 .046-.026l.053-.03a.496.496 0 0 1 .13-.05Z"/>
  <path fill="#000" fill-rule="evenodd" d="M40.005 29.77c.03.058.036.104.033.136l-.001.017-.012.012a.499.499 0 0 1-.148.092.448.448 0 0 1-.16.041h-.028l-.013-.026c-.013-.025-.038-.066-.033-.136l.002-.038.039-.005a.498.498 0 0 0 .125-.04.86.86 0 0 0 .128-.07l.044-.03.024.047Zm-.065.09a1.04 1.04 0 0 1-.092.048.715.715 0 0 1-.11.039.116.116 0 0 0 .008.024.461.461 0 0 0 .198-.09.154.154 0 0 0-.004-.02Zm.865-.74c.299.059 1.24.29 1.445.363l.013.005.008.01.026.035a.117.117 0 0 1 .014.027.078.078 0 0 1 .004.025v.013l.023.142-.102-.102-.002-.002a4.116 4.116 0 0 0-.398-.14 5.998 5.998 0 0 0-.384-.094l.008.014a.272.272 0 0 1 .03.142v.001a.223.223 0 0 1-.138.171.482.482 0 0 1-.258.032h-.001a.446.446 0 0 1-.235-.098.22.22 0 0 1-.077-.198.26.26 0 0 1 .08-.149.347.347 0 0 1 .036-.03l-.02-.006-.054-.014h-.004a2.11 2.11 0 0 0-.199.133 2.145 2.145 0 0 1-.105.076.788.788 0 0 1-.056.035.067.067 0 0 1-.027.006c-.007 0-.017 0-.027-.002a.07.07 0 0 1-.035-.017.072.072 0 0 1-.02-.036.146.146 0 0 1-.002-.032v-.017l.01-.014a1.2 1.2 0 0 1 .077-.06c.036-.025.08-.055.126-.084a3.17 3.17 0 0 1 .214-.13l.014-.008.016.004Zm.235.2a.238.238 0 0 0-.113.064.169.169 0 0 0-.053.094v.001a.126.126 0 0 0 .046.115.354.354 0 0 0 .186.075.39.39 0 0 0 .207-.023c.05-.023.077-.058.083-.099a.183.183 0 0 0-.02-.09.204.204 0 0 0-.072-.085l.014-.04a23.472 23.472 0 0 0-.276-.064l-.002.052Z" clip-rule="evenodd"/>
  <path fill="#000" fill-rule="evenodd" d="M40.273 26.917c.23-.025.38.065.473.174.066.076.103.16.124.216.224-.106.399-.1.52-.02.13.086.182.243.177.39-.006.147-.07.3-.195.376-.12.072-.28.066-.467-.053.07.135.124.21.204.263.09.061.22.1.455.156a.955.955 0 0 0 .446.012.792.792 0 0 0 .288-.142c-.173.046-.307.017-.399-.062a.402.402 0 0 1-.124-.347.415.415 0 0 1 .193-.32c.109-.063.254-.069.425.011a.462.462 0 0 1 .478-.235c.183.03.344.175.376.42.197.011.325.086.393.194.07.114.066.255.017.371a.406.406 0 0 1-.276.244c-.113.025-.238-.009-.36-.118.073.134.121.222.19.288.065.065.154.111.313.152l.074.017h.002c.21.06.354.064.468.041a.79.79 0 0 0 .256-.105c-.222.009-.364-.065-.432-.187-.071-.128-.05-.291.02-.42.069-.13.194-.239.348-.248.146-.008.3.074.44.277a.608.608 0 0 1 .39-.154c.13.001.24.055.321.113l.04.028-.03.038c-.126.168-.777 1.024-.982 1.29a.851.851 0 0 1 .339.087c.06.035.108.083.137.15a.455.455 0 0 1 .022.246 1 1 0 0 1-.203.558c-.052.07-.107.133-.159.19a1.987 1.987 0 0 0-.128.155c.093 1.491-.454 2.792-1.01 3.886-.28.552-.56 1.046-.765 1.492-.206.446-.333.831-.31 1.16l.003.059-.058-.01a1.051 1.051 0 0 1-.282-.09c-.06-.027-.111-.053-.161-.072-.004.337-.027 1.652-.042 2.949-.008.704-.013 1.404-.011 1.94.001.267.004.493.01.658a4.392 4.392 0 0 0 .015.257c0 .006.002.01.003.014.098.09.202.224.31.391.112.174.23.386.353.624.245.476.51 1.061.78 1.668.541 1.216 1.107 2.519 1.599 3.23v.001c.91 1.365 2.298 1.542 3.114.916.814-.625 1.095-2.08-.276-4.047l-.002-.003-.001-.003c-.307-.615-.766-1.257-1.2-1.936-.434-.677-.843-1.39-1.041-2.136-.198-.75-.185-1.535.224-2.355.409-.82 1.21-1.67 2.577-2.556 1.52-1.081 2.378-1.748 2.913-2.291.532-.54.743-.96.968-1.546.24-.98.11-1.718-.207-2.236a2.025 2.025 0 0 0-1.355-.925c-.528-.102-1.07-.002-1.454.279-.375.275-.603.728-.514 1.35.269.069.462.094.61.115.151.022.265.042.361.11.096.069.168.182.252.375.084.194.184.477.333.89l.003.009v.008c0 .229-.056.655-.122 1.04-.033.192-.068.377-.1.523a3.68 3.68 0 0 1-.047.187.655.655 0 0 1-.04.114l-.004.006-.005.005a.183.183 0 0 1-.104.05c-.036.005-.078.005-.122.005H49.6l-.003-.042c-.083-.925-.357-1.193-.5-1.525a.215.215 0 0 0-.067-.017c.059.217.106.38.114.563.01.192-.023.402-.122.718l-.003.01-.008.009c-.174.173-.447.383-.766.616-.321.235-.686.49-1.053.761-.365.27-.728.55-1.038.828-.311.279-.566.553-.72.81l-.013.023h-.027a.416.416 0 0 1-.18-.048.183.183 0 0 1-.046-.03l-.019-.02.007-.026c.18-.67.691-1.474 1.193-2.19.252-.359.503-.698.71-.988.205-.286.365-.522.445-.685.001-.05.007-.149.01-.242a3.32 3.32 0 0 0 .001-.195.705.705 0 0 0-.059.029 2.486 2.486 0 0 0-.265.17c-.209.15-.454.363-.621.582l-.024.031-.035-.017a.504.504 0 0 1-.141-.098l-.021-.021.01-.029a7.964 7.964 0 0 1 1.114-1.905c-.056-1.019.271-1.776.797-2.272.529-.497 1.254-.727 1.98-.696a3 3 0 0 1 2.003.867c.543.546.896 1.347.868 2.392-.05 1.222-.642 2.237-1.396 3.173-.377.467-.796.916-1.21 1.361-.384.414-.763.824-1.102 1.244.616-.106.966-.027 1.296.047.345.078.666.15 1.264-.005l.026-.007.02.02a.25.25 0 0 1 .047.075.668.668 0 0 1 .047.154 1.201 1.201 0 0 1 .006.029v.001l.006.035-.031.015c-.46.228-1.39.657-2.202 1.028a325.745 325.745 0 0 1-1.39.63l-.09.041-.009.004-.012.08c.662-.229 1.13-.168 1.56-.083.445.087.843.197 1.386.047l.042-.011.014.04a3.586 3.586 0 0 1 .07.217l.006.02.001.005.001.001.012.04-.038.017-3.175 1.408v.024l.003.053c.383-.104.684-.009 1.013.091.344.105.725.219 1.284.138l.037-.005.014.035a1.994 1.994 0 0 1 .067.213l.001.005v.001l.01.038-.035.017-2.224 1.023c.005.17.05.383.123.63.076.261.181.557.296.877.227.64.491 1.377.63 2.118.138.741.152 1.493-.124 2.16-.277.67-.843 1.249-1.851 1.649h-.003l-.002.001c-1.336.362-2.37-.082-3.22-.861-.82-.752-1.47-1.818-2.06-2.774.023.532.041 1.118.047 1.706a45.221 45.221 0 0 0 .229 1.88 5.364 5.364 0 0 0 .049.273l.004.013.085.073.14.119c.047.041.094.084.128.12a.512.512 0 0 1 .06.075.088.088 0 0 1 .007.023c.014.059.016.166.01.29a5.048 5.048 0 0 1-.111.838 1.31 1.31 0 0 1-.05.158.343.343 0 0 1-.061.108 1.41 1.41 0 0 1-.127.128.405.405 0 0 0-.07.074c-.03.046-.044.116-.041.334v.077c.003.412-.073 1.18-.137 1.96-.07.834-.126 1.681-.066 2.133l.003.023-.017.016a.571.571 0 0 1-.176.11.213.213 0 0 1-.073.016h-.012l-.011-.006a1.993 1.993 0 0 1-.34-.266.934.934 0 0 0-.246-.186c-.076-.033-.164-.037-.29.014-.124.05-.282.155-.497.339.049.174.112.316.169.44.059.126.113.24.13.345a.362.362 0 0 1-.097.316c-.085.097-.23.195-.453.309a.824.824 0 0 0-.01.162c.003.076.01.162.02.247.02.17.05.335.064.408l.007.043-.042.01c-.128.033-.246-.029-.344-.125a1.502 1.502 0 0 1-.26-.38 3.685 3.685 0 0 1-.274-.722l-.002-.005v-.006c0-.062.018-.147.041-.237.024-.092.056-.195.087-.293.032-.099.063-.193.086-.27a1.92 1.92 0 0 0 .036-.14.35.35 0 0 0-.06-.045 5.087 5.087 0 0 0-.109.113c-.063.068-.144.155-.227.24a2.9 2.9 0 0 1-.252.233.82.82 0 0 1-.115.078.24.24 0 0 1-.11.034h-.005l-.005-.002a1.387 1.387 0 0 1-.657-.389c-.142.05-.305.169-.44.282a3.478 3.478 0 0 0-.24.224l-.003.004-.056.059-.023-.076a.776.776 0 0 1-.037-.36.725.725 0 0 1 .138-.312c.144-.198.392-.405.724-.694l.005-.004.005-.002a.984.984 0 0 1 .23-.06c.098-.017.212-.033.322-.047.11-.015.217-.03.3-.044a1.111 1.111 0 0 0 .128-.03l.006-.004a.27.27 0 0 0 .036-.074 6.862 6.862 0 0 1-.57-.287 2.646 2.646 0 0 1-.286-.183.642.642 0 0 1-.094-.085c-.022-.025-.043-.058-.043-.093 0-.202.004-.461.178-.678-.116-.178-.386-.42-.716-.633l-.058-.037.056-.04a.683.683 0 0 1 .39-.139.942.942 0 0 1 .388.09c.13.055.268.132.418.213.112.061.233.126.364.187l.134.06.016.007.008.015c.104.205.197.483.283.712.044.115.086.22.128.298.021.04.042.071.061.095.015.018.028.03.04.037l.01.005.013.006.005.007.004.002a.167.167 0 0 0 .041.003 1.022 1.022 0 0 0 .487-.173c.087-.21.12-.564.118-.993a13.96 13.96 0 0 0-.1-1.427c-.112-.98-.286-1.904-.343-2.114l-.006-.018a.124.124 0 0 1-.004-.017c-.111-.27-.313-.542-.567-.825-.256-.284-.563-.577-.88-.888-.244-.24-.494-.492-.73-.758-.179.42-.405.668-.559.899-.08.12-.142.238-.172.378-.03.139-.03.304.016.52l.009.038-.037.015c-.381.15-.644.27-.84.356-.194.084-.328.137-.446.146-.122.01-.222-.026-.348-.105-.121-.076-.275-.197-.502-.362-.97-.139-1.602-.342-2.136-.495-.536-.152-.973-.253-1.566-.19h-.012l-.01-.004a.292.292 0 0 1-.12-.102.445.445 0 0 1-.07-.15l-.006-.026.019-.018c.055-.055.108-.103.155-.146.048-.043.09-.08.128-.116a.468.468 0 0 0 .141-.197c.02-.066.015-.149-.033-.272a2.783 2.783 0 0 0-.251-.462c-.15.095-.263.167-.355.218a.87.87 0 0 1-.265.108.915.915 0 0 1-.282.001c-.11-.012-.251-.035-.443-.061l-.006-.001-.006-.002c-.188-.077-.324-.125-.427-.162a1.187 1.187 0 0 1-.225-.098.289.289 0 0 1-.116-.144c-.025-.06-.046-.143-.077-.256l-.02-.075.076.017c.282.062.428.123.704.09.023-.142.038-.25.062-.33.027-.09.068-.153.149-.191.075-.035.179-.046.324-.052.139-.005.329-.006.577-.012l.002-.017a.324.324 0 0 0-.006-.052c-.26-.075-.448-.123-.585-.16a1.828 1.828 0 0 1-.288-.091.212.212 0 0 1-.072-.054.17.17 0 0 1-.034-.074.628.628 0 0 1-.01-.084c-.003-.031-.006-.068-.012-.11v-.01c.007-.15.023-.206.057-.258.028-.041.06-.073.107-.179-.091-.077-.135-.124-.22-.174-.091-.054-.23-.109-.521-.19l-.075-.02.053-.057a1.07 1.07 0 0 1 .178-.16.313.313 0 0 1 .173-.05c.062-.002.135.01.23.024.073.011.16.025.27.038l.116.013h.004c.273.049.493.113.71.286.213.168.42.437.678.887a.272.272 0 0 0 .052-.008c.003-.034.008-.084.012-.145.006-.079.015-.175.029-.274a2.12 2.12 0 0 1 .058-.293.69.69 0 0 1 .11-.238l.008-.01.011-.004a.586.586 0 0 1 .152-.035 2.71 2.71 0 0 1 .4-.006c.147-.275.106-.54.093-.827l-.004-.091.076.05c.24.156.342.285.386.425a.9.9 0 0 1 .033.21c.005.072.008.146.02.232v.01c-.01.142-.018.26-.023.361-.006.1-.01.184-.016.255a.93.93 0 0 1-.067.328 1.01 1.01 0 0 1-.209.276c-.102.107-.236.238-.432.445a7.309 7.309 0 0 1 .204.723c.014.06.025.116.03.155.032.01.079.019.14.028.078.013.176.024.289.035.224.022.502.04.788.057.52.03 1.068.056 1.366.085-.072-.185-.086-.407-.051-.776.04-.42.146-1.038.313-2.02v-.004c.097-.393.16-.67.22-.87.06-.202.12-.336.211-.444.09-.107.21-.185.384-.28.175-.098.405-.214.728-.401.052-.03.169-.073.308-.122l.473-.166a6.07 6.07 0 0 0 .428-.166.873.873 0 0 0 .144-.08c-.057-.184-.1-.39-.146-.607a8.326 8.326 0 0 0-.169-.694c-.143-.472-.37-.949-.824-1.342l-.002-.002-.002-.002c-.108-.12-.228-.334-.327-.54a3.896 3.896 0 0 1-.187-.454L34.24 43.85l-.014.018h-.023c-.099 0-.18-.015-.234-.076-.05-.058-.065-.147-.07-.261l-.007-.073a.992.992 0 0 0-.03-.17.23.23 0 0 0-.085-.129.485.485 0 0 0-.21-.07 3.134 3.134 0 0 0-.39-.027c-.255.402-.341.56-.635.905-.122.144-.199.205-.3.206a.582.582 0 0 1-.15-.027c-.042-.011-.09-.025-.15-.037.002.175.012.599.018 1.002.003.229.005.45.002.615a3.664 3.664 0 0 1-.007.2.545.545 0 0 1-.014.084.052.052 0 0 1-.037.031.996.996 0 0 1-.148.018 4.7 4.7 0 0 1-.468.005 1.18 1.18 0 0 1-.092-.009.273.273 0 0 1-.068-.016l-.028-.012v-1.783a.316.316 0 0 0-.048.037 1.35 1.35 0 0 0-.136.157c-.045.058-.092.123-.132.172a.726.726 0 0 1-.06.066.17.17 0 0 1-.062.041l-.026.008-.02-.019a.256.256 0 0 1-.044-.067.953.953 0 0 1-.085-.282v-.01l.004-.01c.058-.128.099-.233.133-.324.035-.09.064-.17.1-.246.072-.15.168-.282.376-.474v-.908c-.04-.01-.075-.013-.108-.018a.264.264 0 0 1-.127-.044.355.355 0 0 1-.105-.15 2.423 2.423 0 0 1-.106-.324l-.003-.01.002-.008a.29.29 0 0 0-.008-.142.082.082 0 0 0-.048-.046.471.471 0 0 0-.1-.024.673.673 0 0 1-.132-.033.446.446 0 0 0-.111-.009c-.051 0-.11.004-.171.008-.12.009-.251.022-.326.02l-.069-.002.026-.063c.08-.192.145-.286.228-.336a.404.404 0 0 1 .127-.046c.045-.01.088-.017.143-.031.386-.15.584-.126.89-.166v-5.696l-.025.03a.187.187 0 0 1-.12.07.515.515 0 0 1-.208-.035 5.82 5.82 0 0 1-.377-.139c-.444.282-.457.51-.633.717l-.038.045-.035-.047a.722.722 0 0 1-.148-.336.638.638 0 0 1 .035-.3c.032-.094.08-.181.13-.264.05-.084.1-.16.14-.237.21-.398.398-.573.608-.678.104-.051.212-.085.326-.12.107-.034.22-.07.347-.125v-.051a3.092 3.092 0 0 0-.33-.078c-.133-.026-.275-.053-.396-.088l-.021-.007-.009-.02c-.033-.08-.078-.162-.115-.272a1.923 1.923 0 0 1-.086-.456 1.061 1.061 0 0 0-.356-.088 2.748 2.748 0 0 0-.204 0 8.739 8.739 0 0 1-.326.006h-.075l.033-.067c.06-.121.101-.207.142-.267a.294.294 0 0 1 .148-.123c.058-.021.132-.03.23-.04.102-.01.235-.025.42-.057h.007c.294 0 .598-.08.94.136V30.9h-.187c-.374.005-.65.033-.906.127-.254.094-.491.255-.784.531-.292.277-.638.668-1.11 1.22l-.04.047-.035-.052c-.395-.61-.743-1.525-.98-2.476-.236-.95-.363-1.942-.312-2.704l.006-.084.068.049c1.295.925 2.04 1.393 2.783 1.631.456.146.912.206 1.497.23v-.748l.035-.01a.374.374 0 0 1 .058-.007l.089-.005a6.102 6.102 0 0 1 .561.004.414.414 0 0 1 .062.009l.035.009v.765l.452.001h.046v.047c0 .393.006 1.11 0 1.382v.046h-.046c-.161 0-.311 0-.452-.002v1.923l.05.03.076.05a.44.44 0 0 0 .03.016 7.42 7.42 0 0 1 .144-.735.954.954 0 0 1 .051-.134.1.1 0 0 1 .028-.031c.137-.09.354-.157.558-.186a.387.387 0 0 0 .046-.104c.016-.054.03-.12.042-.196.012-.076.024-.16.036-.25.012-.09.025-.186.042-.284l.008-.046.046.008a.42.42 0 0 1 .263.14c.06.07.092.158.113.246.02.087.03.18.038.263.01.085.018.159.037.214l.003.008v.009c-.006.183.002.303.003.405a.719.719 0 0 1-.04.275 1.516 1.516 0 0 1-.197.336c-.1.139-.242.322-.441.579.053.06.098.1.137.123a.299.299 0 0 0 .126.042c.081.009.194-.005.34.053l.018.007.008.016c.09.191.276.316.643.501.36.182.886.418 1.634.83a1.78 1.78 0 0 1 .084-.206.639.639 0 0 1 .168-.225l.177-.155c.875-.756 1.552-1.267 2.187-1.61a5.24 5.24 0 0 1 1.938-.61l.143-.017c.204-.026.298-.048.365-.107a.442.442 0 0 0 .096-.133c.029-.056.058-.126.095-.215a1.215 1.215 0 0 0-.116-.012 9.992 9.992 0 0 0-.467-.01c-.177 0-.363 0-.513-.002l-.194-.005a.68.68 0 0 1-.117-.013l-.047-.012.015-.047c.034-.11.115-.232.193-.345.054-.078.106-.153.147-.22-.811-.027-1.184-.034-1.39-.067a.59.59 0 0 1-.236-.08c-.058-.037-.113-.088-.188-.148l-.008-.007-.005-.01a.204.204 0 0 1-.014-.108.353.353 0 0 1 .03-.108.277.277 0 0 1 .063-.088.13.13 0 0 1 .087-.037h.015l.009.002.008.004c.096.056.152.1.195.128a.356.356 0 0 0 .135.059c.063.014.155.023.314.032.08.004.175.009.291.013l.415.016h.01a.369.369 0 0 1-.08-.135.925.925 0 0 1-.023-.102l-.03-.155a7.362 7.362 0 0 0-.156-.62l-.009-.03.025-.02a43.67 43.67 0 0 0 .916-.744l.117-.102.03-.03v-.01c-.01-.072-.2-1.502-.231-1.758l-.006-.047.047-.005Zm.223 1.919a22.54 22.54 0 0 1-.454.382c-.224.183-.458.369-.56.449.082.284.125.47.15.597.014.066.022.117.03.157a.34.34 0 0 0 .11.226c.028.03.065.07.114.12.049.052.11.117.185.2l.02.022-.011.028a.787.787 0 0 1-.028.054l.007.007h-.01c-.048.085-.115.179-.177.268a1.714 1.714 0 0 0-.16.268c.012.001.027.003.044.003.05.003.116.004.19.005.15.002.334.002.512.003.178 0 .35.003.472.01.06.003.112.008.146.015a.135.135 0 0 1 .05.019.052.052 0 0 1 .016.073 3.226 3.226 0 0 1-.113.255.533.533 0 0 1-.117.161c-.092.081-.216.105-.416.13-.761.081-1.38.255-2.047.616-.668.361-1.387.912-2.347 1.753l-.001.001-.002.001a.544.544 0 0 0-.143.195 2.11 2.11 0 0 0-.125.338 9.44 9.44 0 0 0-.201.938c-.06.343-.119.702-.184 1.022a4.235 4.235 0 0 1-.204.736c.11.001.233-.003.354-.007a2.9 2.9 0 0 1 .402.007c.015.002.03.01.039.024a.062.062 0 0 1 .008.032.16.16 0 0 1-.007.044c-.01.03-.026.071-.049.121a8.204 8.204 0 0 1-.209.419c-.182.346-.44.812-.71 1.29-.54.956-1.128 1.965-1.246 2.172l-.01.017-.02.006a.213.213 0 0 1-.1-.01.806.806 0 0 1-.11-.041.74.74 0 0 1-.188-.115l-.014-.014v-.02c0-.432 0-.726-.005-.937a1.989 1.989 0 0 0-.041-.43.877.877 0 0 0-.122-.257c-.06-.096-.142-.222-.252-.426a4.85 4.85 0 0 1-.275-.262c-.067-.068-.107-.111-.145-.14a.204.204 0 0 0-.114-.043.94.94 0 0 0-.165.005c.054.116.115.18.177.278.072.111.134.25.164.526l.002.023-.018.017a.934.934 0 0 0-.25.32 1.22 1.22 0 0 0-.049.132 1.374 1.374 0 0 1-.04.117c.002.008.006.02.013.036l.044.089a7 7 0 0 0 .133.237c.099.17.203.338.233.39l.01.015-.004.018a.135.135 0 0 1-.027.053.258.258 0 0 1-.04.04.263.263 0 0 1-.087.047l-.006.002h-.006a.095.095 0 0 1-.034-.008.977.977 0 0 1-.105-.063 5.46 5.46 0 0 1-.385-.31 1.377 1.377 0 0 1-.125-.12l-.01-.013v-7.018l.067.035c.03.015.161.094.295.176.134.083.277.173.329.21l.04.03-.032.038c-.087.107-.15.182-.196.24a.397.397 0 0 0-.072.111.024.024 0 0 0 0 .015.07.07 0 0 0 .014.02c.02.02.052.042.103.08.11 0 .321.015.448.041a.108.108 0 0 1 .03.011c.01.005.02.012.032.02.023.015.053.036.088.063.07.053.165.128.274.218.22.18.505.42.795.666.524.445 1.062.907 1.267 1.07l.012-.051.042-.216.106-.613c.075-.434.163-.914.243-1.198-.744-.41-1.263-.642-1.626-.825-.355-.18-.568-.314-.677-.527-.122-.045-.198-.03-.3-.042a.393.393 0 0 1-.164-.054.745.745 0 0 1-.186-.172l-.023-.029.295-.381.19-.254c.102-.143.156-.235.185-.315a.629.629 0 0 0 .034-.241c-.001-.095-.008-.22-.003-.402a1.239 1.239 0 0 1-.039-.225c-.009-.085-.018-.171-.036-.252a.484.484 0 0 0-.093-.206.31.31 0 0 0-.161-.1c-.013.08-.024.158-.034.233-.012.09-.024.175-.037.253a1.669 1.669 0 0 1-.044.208.427.427 0 0 1-.073.15l-.012.015-.018.002c-.201.025-.411.09-.537.172 0 0 0 .002-.002.003a.82.82 0 0 0-.04.111 6.23 6.23 0 0 0-.145.757v.002l-.002.003a.063.063 0 0 1-.04.048.084.084 0 0 1-.05 0 .327.327 0 0 1-.076-.036l-.08-.051a.986.986 0 0 0-.067-.041l-.025-.014V30.91l-.291-.003-.361-.005v1.656l-.075-.056c-.34-.256-.616-.17-.955-.17-.185.032-.32.046-.42.057a.968.968 0 0 0-.209.035.2.2 0 0 0-.102.088 1.72 1.72 0 0 0-.102.187c.1 0 .18-.003.248-.005.083-.002.15-.003.21 0 .125.006.226.032.413.104l.027.01.003.03c.017.22.049.36.084.463.034.099.068.163.103.244.111.031.24.056.368.081.134.027.269.054.374.092l.03.011v.18l-.027.012c-.143.063-.27.103-.385.14a2.123 2.123 0 0 0-.312.115c-.188.093-.363.25-.567.637-.041.08-.095.162-.142.242a1.374 1.374 0 0 0-.123.246.547.547 0 0 0-.03.258.58.58 0 0 0 .094.24c.123-.175.203-.43.637-.699l.02-.012.022.009c.18.07.304.117.393.145a.44.44 0 0 0 .168.03c.024-.002.038-.013.062-.039.024-.026.058-.07.11-.118l.079-.07v5.998l-.04.006c-.352.052-.521.015-.912.167l-.003.001h-.003c-.058.016-.11.025-.149.033a.314.314 0 0 0-.099.035c-.047.029-.096.085-.16.226l.246-.018c.061-.005.123-.008.177-.008a.68.68 0 0 1 .11.006l.029.007h.002l.002.001a.566.566 0 0 0 .116.029c.039.007.084.014.122.03.04.017.077.046.098.096a.366.366 0 0 1 .014.179c.039.142.07.238.1.303.029.067.053.097.075.113.02.015.044.02.084.027.039.005.092.01.156.03l.033.01v1.019l-.015.014c-.213.194-.303.32-.37.46-.034.07-.062.146-.097.238a5.794 5.794 0 0 1-.13.319.36.36 0 0 0 .01.058.965.965 0 0 0 .064.175l.005.009a.685.685 0 0 0 .05-.056c.04-.048.083-.108.131-.17a1.38 1.38 0 0 1 .147-.168.372.372 0 0 1 .076-.057.147.147 0 0 1 .089-.019l.04.006v1.817l.015.003a3.437 3.437 0 0 0 .313.011 4.48 4.48 0 0 0 .335-.019l.005-.036c.003-.046.005-.113.007-.194.002-.164 0-.384-.003-.613-.006-.454-.02-.942-.02-1.06v-.055l.055.01c.092.015.161.035.216.05a.505.505 0 0 0 .124.023c.054 0 .106-.028.23-.173.293-.346.374-.497.64-.917l.015-.023h.026c.181.005.321.013.43.03.108.016.19.043.25.086a.322.322 0 0 1 .12.178c.015.053.025.116.033.187l.008.074v.003c.004.116.02.175.047.205.022.026.061.042.141.044l4.808-5.936.02-.024.028.008h.004l.006.003a.059.059 0 0 1 .034.04.064.064 0 0 1-.002.037l-.003.007-.004.006-.002.002-.004.004-.015.019-.057.071c-.05.061-.12.15-.207.256l-.65.803c-.47.58-.976 1.204-1.145 1.407.03.105.103.292.194.483.099.205.214.408.312.517.47.41.704.902.849 1.383.072.24.123.48.17.702.048.223.09.43.148.61l.003.011a.076.076 0 0 1-.017.057.2.2 0 0 1-.044.04.964.964 0 0 1-.14.073 6.22 6.22 0 0 1-.435.169c-.162.058-.335.117-.474.166a2.54 2.54 0 0 0-.292.115c-.323.187-.559.306-.73.4-.172.097-.278.167-.357.26-.079.093-.134.212-.193.41-.059.199-.121.47-.218.866-.167.983-.272 1.596-.312 2.011-.04.415-.013.623.075.8l.04.079-.087-.011c-.265-.032-.866-.06-1.441-.093a23.278 23.278 0 0 1-.792-.057 5.259 5.259 0 0 1-.295-.035.932.932 0 0 1-.188-.044l-.03-.012v-.031c0-.024-.01-.085-.028-.169a6.995 6.995 0 0 0-.07-.28 4.68 4.68 0 0 0-.14-.454l-.014-.029.022-.023c.204-.216.353-.362.453-.467a.957.957 0 0 0 .192-.25.844.844 0 0 0 .059-.296l.015-.253c.006-.1.013-.218.024-.359-.013-.087-.016-.165-.02-.233a.82.82 0 0 0-.03-.188c-.03-.098-.097-.198-.27-.322.017.256.038.53-.123.809l-.015.026-.03-.003a2.588 2.588 0 0 0-.412.004.557.557 0 0 0-.115.024.632.632 0 0 0-.087.196 2.028 2.028 0 0 0-.056.28c-.013.096-.021.19-.027.269-.006.077-.01.143-.016.178l-.003.027-.025.01a.361.361 0 0 1-.14.024h-.027l-.014-.024c-.262-.461-.466-.724-.669-.884-.2-.158-.401-.219-.667-.267-.168-.017-.293-.036-.389-.05a1.392 1.392 0 0 0-.214-.025.22.22 0 0 0-.125.037.66.66 0 0 0-.105.09c.242.07.374.123.468.178.101.06.16.124.259.205l.027.022-.014.032c-.06.142-.103.187-.128.225-.02.03-.035.064-.042.208l.01.11a.577.577 0 0 0 .01.072.08.08 0 0 0 .014.035.122.122 0 0 0 .042.03c.047.022.128.046.27.084.106.028.244.064.423.114l.192.055.028.008.005.028a.53.53 0 0 1 .013.098.226.226 0 0 1-.014.074l-.01.033-.033.001c-.272.008-.465.008-.612.014-.148.005-.233.017-.288.043-.049.022-.077.058-.099.133-.024.078-.038.188-.065.352l-.005.033-.034.005c-.29.042-.457-.011-.697-.068.021.076.036.129.053.17.02.049.043.076.08.1.042.027.103.051.206.089.101.037.238.085.425.161.193.026.328.049.436.06a.826.826 0 0 0 .253 0 .79.79 0 0 0 .237-.097c.097-.054.218-.132.39-.24l.04-.025.025.038c.142.22.234.386.285.52a.508.508 0 0 1 .035.33.557.557 0 0 1-.166.238l-.13.119a4.424 4.424 0 0 0-.132.123.34.34 0 0 0 .047.093.213.213 0 0 0 .07.065c.604-.06 1.053.043 1.588.196.538.153 1.165.355 2.135.493l.012.002.01.007c.236.172.386.29.505.365.117.073.197.1.29.091.1-.008.22-.053.416-.139.189-.082.443-.197.807-.342a1.258 1.258 0 0 1-.008-.521c.033-.155.102-.284.185-.41.165-.248.384-.482.558-.905a5.021 5.021 0 0 1-.877-1.318l-.002-.006v-.006c-.008-.06-.026-.166-.048-.304a11.034 11.034 0 0 1-.068-.474c-.04-.343-.061-.727.01-.984l.002-.007.004-.007c.464-.68.965-1.068 1.442-1.51.478-.443.94-.948 1.34-1.869l.012-.028h.043c.002 0 .012-.001.023.002.014.005.022.014.024.016l.006.007.023.023-.013.03c-.44.96-.949 1.504-1.444 1.962-.494.457-.966.822-1.349 1.433a.925.925 0 0 0-.044.292 3.36 3.36 0 0 0 .019.421c.028.307.083.653.128.965.357.811 1.014 1.491 1.645 2.111.315.31.624.605.882.893.259.287.47.57.587.857l.004.008v.011a.407.407 0 0 1 .007.021c.06.217.234 1.146.346 2.128.056.492.097.999.1 1.438.003.436-.03.814-.129 1.041l-.005.012-.01.007a1.1 1.1 0 0 1-.553.2.253.253 0 0 1-.066-.007.102.102 0 0 1-.046-.025.245.245 0 0 1-.075-.063.68.68 0 0 1-.07-.11 2.745 2.745 0 0 1-.134-.31c-.086-.23-.174-.49-.272-.687a5.853 5.853 0 0 1-.49-.244c-.152-.082-.285-.156-.41-.21a.851.851 0 0 0-.349-.081.56.56 0 0 0-.279.083c.324.216.594.464.703.652l.017.03-.022.025c-.17.192-.178.43-.178.643 0 .001.004.012.021.032a.55.55 0 0 0 .08.072c.07.054.169.115.276.176.16.091.34.18.471.242l.114.051h.001l.001.001c.02.01.028.028.03.039a.093.093 0 0 1 .002.03.365.365 0 0 1-.036.104.18.18 0 0 1-.03.041v.001l-.002.001a.112.112 0 0 1-.033.02 1.175 1.175 0 0 1-.15.037c-.084.016-.192.03-.302.045-.11.015-.223.03-.319.047a.974.974 0 0 0-.2.05c-.334.29-.57.487-.704.673a.632.632 0 0 0-.121.272.622.622 0 0 0 .012.24l.013-.013c.045-.043.108-.102.18-.164.144-.121.335-.26.503-.31l.03-.008.02.024c.15.18.403.325.62.38a.168.168 0 0 0 .06-.022.728.728 0 0 0 .102-.07 2.8 2.8 0 0 0 .243-.224c.082-.084.161-.17.226-.239l.084-.089a.504.504 0 0 1 .058-.053l.016-.01.018.002h.003a.139.139 0 0 1 .013.004.464.464 0 0 1 .126.091l.014.014v.02a.369.369 0 0 1-.012.078c-.007.03-.017.066-.029.105-.024.079-.055.175-.087.273a5.708 5.708 0 0 0-.085.287 1.01 1.01 0 0 0-.038.21c.024.103.122.418.265.695.073.142.155.27.243.356.073.071.144.107.212.106a6.659 6.659 0 0 1-.056-.365 2.87 2.87 0 0 1-.02-.256.794.794 0 0 1 .016-.208l.005-.02.019-.01c.232-.116.37-.21.446-.296a.27.27 0 0 0 .075-.24c-.014-.09-.062-.19-.123-.322-.06-.13-.13-.287-.182-.482l-.008-.028.022-.02c.229-.197.403-.315.546-.373.144-.06.259-.058.362-.014.099.042.184.121.273.203.087.081.184.17.31.246a.419.419 0 0 0 .085-.036.606.606 0 0 0 .07-.047c-.055-.47.002-1.312.07-2.129.069-.836.149-1.646.136-2.025-.003-.215.009-.315.056-.388a.534.534 0 0 1 .086-.092c.033-.03.073-.066.12-.121l.002-.002a.26.26 0 0 0 .042-.078c.016-.04.031-.09.046-.147a4.963 4.963 0 0 0 .11-.82 1.23 1.23 0 0 0-.01-.264v-.004l-.006-.01a.439.439 0 0 0-.036-.04 2.237 2.237 0 0 0-.123-.115l-.138-.117a2.498 2.498 0 0 1-.096-.083v-.001a.076.076 0 0 1-.016-.026 1.002 1.002 0 0 1-.023-.09 5.53 5.53 0 0 1-.036-.218 44.98 44.98 0 0 1-.23-1.887V49.2a52.212 52.212 0 0 0-.166-3.577 11 11 0 0 0-.038-.349v-.002l-.002-.004-.001-.008-.002-.006a8.067 8.067 0 0 0-.082-.226c-.043-.113-.092-.234-.112-.287a.06.06 0 0 1 .02-.072.059.059 0 0 1 .075.007l.007.007.003.008.002.002.003.008.011.028a7.466 7.466 0 0 1 .11.28l.082.226.001.005.001.005c.054.436.107 1.23.162 2.114.606.98 1.265 2.074 2.097 2.837.831.763 1.833 1.19 3.128.84.988-.391 1.532-.954 1.798-1.595.266-.644.255-1.375.118-2.108-.137-.733-.399-1.463-.627-2.104-.114-.32-.22-.618-.297-.882-.077-.263-.127-.496-.127-.685v-.03l.027-.013 2.215-1.02-.01-.037a2.324 2.324 0 0 0-.033-.1c-.56.073-.948-.043-1.287-.146-.346-.106-.634-.196-1.012-.076l-.056.018-.005-.058v-.004l-.002-.012-.003-.042a1.696 1.696 0 0 1-.005-.114v-.03l.028-.013 3.166-1.404-.016-.052a4.69 4.69 0 0 0-.034-.107c-.547.139-.957.028-1.386-.057-.438-.086-.905-.146-1.584.105l-.075.027.04-.26.004-.024.023-.01.008-.005.024-.01c.02-.01.051-.023.09-.04l.33-.15 1.06-.48c.795-.364 1.698-.78 2.167-1.012a.972.972 0 0 0-.04-.129.263.263 0 0 0-.014-.027c-.6.15-.932.076-1.278-.002-.345-.077-.706-.159-1.38-.023l-.125.025.078-.1c.361-.458.772-.902 1.185-1.347.414-.446.831-.892 1.206-1.357.749-.93 1.326-1.926 1.375-3.117.028-1.021-.317-1.796-.84-2.323a2.913 2.913 0 0 0-1.94-.84c-.705-.03-1.405.193-1.912.671-.507.477-.827 1.213-.768 2.217l.001.018-.01.014a7.931 7.931 0 0 0-1.1 1.864.393.393 0 0 0 .062.043 3.242 3.242 0 0 1 .892-.748.613.613 0 0 1 .093-.042.135.135 0 0 1 .04-.007c.009 0 .034.002.049.023l.005.01.002.004v.003a.543.543 0 0 1 .01.111l-.003.15c-.004.107-.01.21-.01.251v.01l-.005.01c-.083.172-.25.418-.457.708-.209.29-.458.628-.71.986-.495.706-.988 1.483-1.17 2.13a.408.408 0 0 0 .114.035c.161-.261.418-.534.72-.806.314-.281.68-.564 1.046-.834.365-.269.736-.53 1.053-.76.314-.23.578-.434.747-.6.094-.305.123-.5.115-.675-.008-.177-.055-.335-.119-.57a.07.07 0 0 1 .003-.048.07.07 0 0 1 .033-.033.136.136 0 0 1 .066-.01.336.336 0 0 1 .097.024l.028.015.012.008.005.013c.13.313.42.6.51 1.524a.457.457 0 0 0 .064-.004.097.097 0 0 0 .047-.018.664.664 0 0 0 .03-.09 3.67 3.67 0 0 0 .046-.182c.032-.144.067-.326.1-.518a7.81 7.81 0 0 0 .12-1.017c-.148-.412-.246-.688-.328-.877-.083-.19-.147-.283-.22-.336-.075-.053-.166-.07-.32-.093-.154-.022-.36-.049-.651-.126l-.03-.007-.005-.03c-.105-.67.137-1.169.547-1.47.408-.3.979-.402 1.528-.295.55.106 1.083.423 1.417.967.333.545.463 1.31.217 2.31v.003l-.002.002c-.227.597-.445 1.028-.989 1.58-.541.551-1.406 1.222-2.925 2.303l-.002.001c-1.361.882-2.147 1.721-2.546 2.52-.397.798-.41 1.56-.217 2.29.194.732.595 1.434 1.028 2.11.43.672.894 1.32 1.204 1.941 1.381 1.984 1.126 3.502.255 4.172-.87.667-2.317.46-3.25-.938-.498-.721-1.068-2.034-1.607-3.245a34.36 34.36 0 0 0-.777-1.663 7.45 7.45 0 0 0-.349-.616 1.89 1.89 0 0 0-.304-.382l-.008-.007-.004-.009a.181.181 0 0 1-.01-.045 4.652 4.652 0 0 1-.017-.267 25.3 25.3 0 0 1-.01-.661c-.002-.536.003-1.237.011-1.941.016-1.41.043-2.838.043-3.012v-.062l.06.017c.079.021.156.061.233.096.062.029.128.055.201.072-.005-.34.127-.723.322-1.145.206-.447.49-.95.767-1.495.556-1.095 1.095-2.383.999-3.855l-.001-.016.009-.013c.042-.06.093-.118.144-.176.052-.059.105-.118.153-.184a.91.91 0 0 0 .186-.512v-.004a.364.364 0 0 0-.015-.196.222.222 0 0 0-.098-.106c-.086-.05-.212-.068-.36-.079l-.002.003-.017-.005-.021-.001a.22.22 0 0 1-.025-.003l-.04-.008a42.15 42.15 0 0 1-.564-.124c-.352-.08-.812-.186-1.273-.294-.86-.2-1.72-.404-1.888-.442a1.082 1.082 0 0 1-.045.044Zm-8.55 12.279c.02.022.057.057.104.098a5.406 5.406 0 0 0 .377.303.906.906 0 0 0 .082.05.208.208 0 0 0 .069-.05v-.002c-.04-.067-.132-.219-.22-.37a6.487 6.487 0 0 1-.181-.334.308.308 0 0 1-.024-.07l-.002-.014.005-.012c.017-.04.03-.079.044-.123.014-.043.029-.09.051-.141.044-.099.116-.207.257-.336-.03-.247-.085-.368-.147-.463-.063-.098-.145-.186-.21-.352l-.021-.057.06-.006a1.35 1.35 0 0 1 .248-.011.297.297 0 0 1 .16.062c.046.034.093.084.156.15.049.049.11.11.19.184l.087.078.006.006.004.007c.11.205.192.329.253.428.062.1.105.176.132.283a2 2 0 0 1 .045.45c.006.21.005.499.005.919a.77.77 0 0 0 .28.13c.143-.252.709-1.224 1.231-2.15a55.7 55.7 0 0 0 .71-1.288c.091-.172.163-.314.207-.413.018-.04.03-.072.039-.095a3.395 3.395 0 0 0-.344-.002c-.146.005-.3.012-.43.007l-.07-.003.03-.064c.074-.156.136-.375.193-.63-.166-.126-.752-.63-1.315-1.108-.29-.246-.574-.486-.793-.665a9.407 9.407 0 0 0-.272-.216 1.7 1.7 0 0 0-.112-.077 2.91 2.91 0 0 0-.445-.04h-.016l-.013-.009c-.05-.038-.096-.07-.125-.098a.15.15 0 0 1-.036-.055.116.116 0 0 1-.001-.07.465.465 0 0 1 .088-.144l.165-.202a10.441 10.441 0 0 0-.501-.311v6.826ZM26.84 27.683c-.036.738.088 1.681.314 2.591.229.918.561 1.798.934 2.395.451-.526.788-.906 1.076-1.178.297-.282.545-.451.816-.551.27-.1.56-.128.937-.133.189-.002.401.001.644.005.232.004.492.007.79.006.003-.286 0-.907-.001-1.288-1.27 0-2.02-.012-2.77-.252-.746-.239-1.488-.702-2.74-1.595Zm11.435 2.832a.05.05 0 0 0-.02.012.187.187 0 0 0-.04.058.262.262 0 0 0-.022.079c-.002.02 0 .038.003.05.077.063.12.102.17.134.047.03.102.051.199.067.19.03.531.038 1.276.063a16.653 16.653 0 0 0-.201-.21c-.313-.012-.532-.02-.689-.029a2.181 2.181 0 0 1-.33-.034.445.445 0 0 1-.166-.073c-.046-.03-.093-.067-.18-.117Zm2.055-3.509.22 1.678c.853.202 2.953.688 3.78.88.145-.187.797-1.044.985-1.294a.448.448 0 0 0-.227-.069c-.103 0-.227.04-.367.165l-.042.038-.03-.047c-.138-.221-.276-.285-.385-.279-.11.007-.212.088-.271.199-.06.111-.071.24-.02.33.048.088.164.159.397.136l.025-.003.016.02c.012.015.02.034.025.052a.099.099 0 0 1-.004.062l-.006.013-.012.007a.969.969 0 0 1-.33.143 1.097 1.097 0 0 1-.51-.042c-.212-.047-.337-.101-.43-.193-.092-.09-.152-.212-.243-.377l-.011-.02.009-.02a.134.134 0 0 1 .08-.07l.03-.012.022.024c.125.138.24.166.33.147a.313.313 0 0 0 .209-.19.312.312 0 0 0-.01-.284c-.05-.081-.158-.15-.356-.152h-.044l-.003-.043c-.016-.23-.154-.352-.303-.377a.371.371 0 0 0-.398.225l-.021.045-.044-.024c-.17-.09-.295-.081-.377-.033a.322.322 0 0 0-.147.249.31.31 0 0 0 .093.267c.069.059.186.089.366.026l.038-.013.02.035v.002l.003.005.008.016.02.045.013.032-.027.022a.927.927 0 0 1-.37.195c-.14.034-.297.032-.49-.012-.232-.056-.378-.097-.486-.17-.11-.073-.175-.177-.257-.342l-.006-.012.001-.013a.095.095 0 0 1 .025-.057.114.114 0 0 1 .055-.03l.021-.006.018.013c.19.136.324.132.41.08.09-.054.145-.172.15-.299.005-.127-.042-.247-.134-.309-.09-.06-.242-.074-.472.048l-.048.026-.019-.05c-.014-.041-.047-.146-.125-.237a.413.413 0 0 0-.344-.146Zm-8.809 1.732a6.562 6.562 0 0 0-.315.009H31.2v.676c.2.007.416.01.652.012v-.688h-.01a6.103 6.103 0 0 0-.319-.009Z" clip-rule="evenodd"/>
  <path fill="#000" fill-rule="evenodd" d="M40.533 8.39h1.314v1.2h-1.314l-.002 1.77a2.436 2.436 0 0 1 1.715 1.682h.01v.037a2.365 2.365 0 0 1 .068.805 2.37 2.37 0 0 1-.061.376l-.005.02a2.414 2.414 0 0 1-1.283 1.562c1.656-.217 2.86-.351 3.728-.381.462-.016.83-.002 1.12.045.29.047.506.129.66.252a.72.72 0 0 1 .059.051c1.706 0 2.983.014 3.923.089.942.074 1.555.21 1.925.464a.997.997 0 0 1 .385.479c.073.192.094.416.078.676-.031.508-.205 1.169-.427 2.02l.025.006.02.005a1.25 1.25 0 0 1 .07.019l.028.008a2.24 2.24 0 0 1 .079.025l.02.007.05.017.027.01.034.013.03.012.138.06.039.019-.015.04c-.154.412-.475 1.598-.785 2.854-.292 1.183-.574 2.422-.699 3.13 5.173-4.172 10.422-6.777 12.164-7.6l.123-.058-.061.121c-.892 1.77-4 7.895-8.37 13.029-.219 5.392-.847 10.287-2.465 14.771a30.336 30.336 0 0 1-1.124 2.703l1.46 1.452.93.926.301.301.079.078a67.423 67.423 0 0 0 2.928-3.46l.032-.042 1.37 1.363-.04.033a67.792 67.792 0 0 0-5.346 4.66l7.687 7.646a1.937 1.937 0 0 1 1.876.495 1.92 1.92 0 0 1 0 2.72 1.94 1.94 0 0 1-2.66.068L60.3 64.9a1.892 1.892 0 0 1-.484-1.881l-7.684-7.65a67.882 67.882 0 0 0-4.686 5.333l-.033.041-1.372-1.366.041-.033a65.609 65.609 0 0 0 3.467-2.904l-1.656-1.652c-2.055 2.489-4.66 4.838-7.958 7.07l-.026.018-.026-.018c-3.362-2.264-6.004-4.647-8.077-7.173l-.98.978c-.213.21-.416.414-.566.563l-.18.18-.033.032a66.338 66.338 0 0 0 3.467 2.906l.042.033-1.373 1.366-.032-.04a67.54 67.54 0 0 0-4.687-5.333l-7.683 7.649a1.892 1.892 0 0 1-.487 1.879c-.753.75-1.975.75-2.728 0a1.917 1.917 0 0 1 0-2.72 1.937 1.937 0 0 1 1.875-.494l7.685-7.646a67.45 67.45 0 0 0-5.345-4.661l-.041-.033 1.368-1.363.033.042a67.404 67.404 0 0 0 2.93 3.463l.072-.073.285-.283a3592.57 3592.57 0 0 1 2.54-2.525 30.189 30.189 0 0 1-1.057-2.566c-1.615-4.487-2.234-9.388-2.446-14.796-4.363-5.13-7.472-11.247-8.364-13.018l-.06-.12.122.057c1.74.823 6.993 3.424 12.167 7.598-.125-.708-.406-1.947-.698-3.128-.31-1.256-.63-2.442-.785-2.854l-.015-.04.039-.019c.114-.053.23-.098.347-.135l.008-.002.052-.016.027-.007.034-.01.043-.01.004-.001c-.246-.927-.406-1.62-.409-2.139 0-.264.039-.486.131-.672.093-.186.238-.332.44-.446.402-.227 1.035-.332 1.96-.388.923-.055 2.146-.061 3.738-.084a.853.853 0 0 1 .117-.096c.17-.115.398-.19.697-.23.3-.04.675-.046 1.137-.025.81.037 1.897.16 3.34.342l.297.038a2.412 2.412 0 0 1-1.272-1.558h-.003l-.008-.037v-.004l-.003-.01-.008-.04v-.006a2.379 2.379 0 0 1-.054-.493l-.001-.052c0-.122.017-.253.036-.356.013-.076.03-.152.05-.225l.003-.013a2.425 2.425 0 0 1 1.72-1.687V9.59H37.98v-1.2h1.313V7h1.24v1.39Zm16.96 39.733a67.514 67.514 0 0 1-2.903 3.428l.002.002-.031.033-.001.001-.004.004-.013.014-.051.055-.19.202c-.16.17-.38.407-.628.668a85.66 85.66 0 0 1-1.498 1.554 87.357 87.357 0 0 1-1.57 1.502 233.495 233.495 0 0 1-.882.821l-.055.052-.015.013-.003.003-.001.001-.034.031a65.655 65.655 0 0 1-3.434 2.878l1.223 1.218a68.02 68.02 0 0 1 4.693-5.332l.034-.034 7.79 7.755-.009.027a1.8 1.8 0 0 0 .453 1.815 1.844 1.844 0 0 0 2.598 0 1.827 1.827 0 0 0 0-2.588 1.843 1.843 0 0 0-1.81-.464l-.026.008-7.76-7.718-.033-.033.034-.033a67.868 67.868 0 0 1 5.345-4.668l-1.221-1.215ZM20.88 49.337a67.549 67.549 0 0 1 5.346 4.668l.034.033-7.791 7.751-.027-.007a1.843 1.843 0 0 0-1.81.464 1.824 1.824 0 0 0 0 2.587c.717.713 1.88.713 2.596 0a1.799 1.799 0 0 0 .455-1.813l-.008-.027 7.756-7.722.034-.033.033.034a67.605 67.605 0 0 1 4.694 5.332l1.223-1.218a66.37 66.37 0 0 1-3.434-2.88l-.034-.03-.001-.002-.004-.003-.015-.013-.055-.052-.205-.19-.677-.631a83.267 83.267 0 0 1-1.57-1.502 81.634 81.634 0 0 1-1.498-1.554 112.27 112.27 0 0 1-.628-.668l-.19-.202-.05-.055-.014-.014-.003-.003v-.002h-.001l-.003-.003h-.002a67.477 67.477 0 0 1-2.931-3.46l-1.22 1.215Zm3.585-23.411c.004 1.817.03 3.59.097 5.302l.005.136-.003-.004c.216 5.356.836 10.207 2.435 14.648a30.1 30.1 0 0 0 1.04 2.529l.003-.003.028.061c.04.087.08.175.122.263.346.72.724 1.428 1.135 2.126a29.632 29.632 0 0 0 2.52 3.602l.027.033h-.001c2.062 2.515 4.69 4.889 8.036 7.145 3.855-2.613 6.758-5.386 8.941-8.354a30.06 30.06 0 0 0 1.245-1.836 29.284 29.284 0 0 0 2.694-5.58c1.768-4.898 2.352-10.291 2.511-16.299a190.307 190.307 0 0 0 .051-3.77H24.465ZM51.713 48.82a26.233 26.233 0 0 1-1.497 2.736 28.986 28.986 0 0 1-2.262 3.16l1.665 1.662a15.063 15.063 0 0 0 .246-.228c.173-.16.412-.383.676-.631a86.923 86.923 0 0 0 1.569-1.5l.16-.162c.394-.398.903-.933 1.336-1.39a199.005 199.005 0 0 0 .817-.87l.038-.04-.082-.082-.302-.302-.93-.926-1.434-1.427Zm-23.702-.124c-.289.285-.98.973-1.618 1.607l-.898.894c-.12.118-.217.216-.285.284-.032.03-.057.056-.075.074a24.723 24.723 0 0 1 .227.242c.16.171.381.407.628.668.494.523 1.09 1.146 1.496 1.552a87.66 87.66 0 0 0 1.569 1.5 198.42 198.42 0 0 0 .88.82l.043.04.035-.036.18-.18.566-.563.988-.985a28.883 28.883 0 0 1-2.517-3.61 25.517 25.517 0 0 1-1.22-2.307Zm35.556-30.39c-1.853.882-6.97 3.457-12.015 7.524h3.895v.047l-.005.754a145.346 145.346 0 0 1-.092 4.47c4.226-4.993 7.256-10.893 8.217-12.794Zm-47.32 0c.96 1.903 3.992 7.796 8.213 12.786a146.87 146.87 0 0 1-.093-5.213v-.047h.004v-.003h3.895c-5.047-4.07-10.168-6.641-12.02-7.522Zm23.98.6a2.015 2.015 0 0 0-.845.051 1.454 1.454 0 0 0-.16.058c-.204.09-.364.22-.447.392-.163.337-.038.866.76 1.6l.037.033-.196.192-.032-.036c-.35-.39-.653-.618-.91-.73-.254-.113-.46-.108-.621-.035-.163.075-.288.223-.373.415a1.646 1.646 0 0 0-.128.656c0 .232.043.464.128.655.085.192.21.34.373.415.161.074.367.078.622-.034.256-.112.559-.342.909-.73l.032-.037.035.035.125.122.021.02-.008.027c-.056.187-.238.595-.46.995-.111.2-.233.4-.355.572-.12.17-.244.313-.359.399l-.005.004-.007.003c-.851.302-1.74.34-2.633 0l-.007-.003-.006-.005a2.18 2.18 0 0 1-.319-.348 7.267 7.267 0 0 1-.365-.521 7.42 7.42 0 0 1-.32-.545 2.148 2.148 0 0 1-.18-.422l-.006-.026.018-.018.11-.108.034-.03.031.031c.668.665 1.15.763 1.456.62.31-.146.475-.554.475-.978 0-.424-.165-.832-.476-.978-.306-.143-.787-.045-1.455.62l-.033.033-.175-.174.033-.033c.68-.685.766-1.18.6-1.495-.171-.321-.62-.491-1.083-.491-.113 0-.225.01-.333.03a1.493 1.493 0 0 0-.317.097l-.05.022a.81.81 0 0 0-.376.342c-.163.315-.072.81.617 1.495l.033.033-.175.174-.033-.033c-.668-.665-1.149-.763-1.455-.62-.311.146-.476.554-.476.978 0 .424.165.832.476.978.306.143.787.045 1.455-.62l.035-.035.033.037a.748.748 0 0 0 .048.047l.059.058.018.018-.006.026c-.05.203-.227.594-.432.964a6.197 6.197 0 0 1-.32.522 1.73 1.73 0 0 1-.3.35l-.004.004-.006.003a3.757 3.757 0 0 1-1.458.26c-.495-.005-.968-.097-1.316-.261l-.004-.002-.004-.003a.715.715 0 0 1-.091-.089 3.583 3.583 0 0 1-.128-.15 10.61 10.61 0 0 1-.325-.432 8.89 8.89 0 0 1-.6-.928l-.016-.03.024-.025.137-.136.034-.034.033.035c.722.754 1.244.88 1.576.736a.783.783 0 0 0 .383-.403 1.52 1.52 0 0 0 .132-.635c0-.455-.179-.893-.515-1.04-.332-.147-.854-.023-1.576.727l-.033.034-.2-.198.025-.033c.308-.407.431-.744.43-1.007a.673.673 0 0 0-.33-.585 1.032 1.032 0 0 0-.19-.093c-.295-.11-.684-.126-1.087-.035l-.044.01c-.153.037-.308.09-.459.157.162.452.474 1.608.774 2.824.304 1.231.598 2.528.715 3.221h22.94c.058-.346.16-.844.287-1.408a85.061 85.061 0 0 1 .54-2.265 55.714 55.714 0 0 1 .548-2.019c.043-.142.08-.262.113-.352-.47-.211-.97-.273-1.366-.197a1.308 1.308 0 0 0-.365.128l-.016.009a.673.673 0 0 0-.363.605c-.002.264.121.6.43 1.007l.023.033-.028.028-.17.17-.034-.034c-.721-.75-1.243-.874-1.576-.728-.336.148-.514.586-.514 1.041 0 .225.044.45.13.635.088.185.216.33.384.403.332.144.854.018 1.576-.736l.033-.035.195.195-.016.03a8.882 8.882 0 0 1-.6.928c-.116.162-.23.313-.326.432a3.6 3.6 0 0 1-.127.15.722.722 0 0 1-.091.09l-.005.003-.005.002a3.778 3.778 0 0 1-2.758 0l-.006-.003-.006-.004a1.735 1.735 0 0 1-.3-.35 6.17 6.17 0 0 1-.32-.522c-.205-.37-.382-.76-.433-.964l-.006-.026.019-.019h.001l.003-.003.01-.01.034-.034.06-.059.033-.033.033.033c.668.665 1.15.763 1.456.62.31-.146.476-.554.476-.978 0-.424-.166-.832-.476-.978-.307-.143-.788-.045-1.456.62l-.033.033-.175-.174.034-.033c.688-.686.78-1.18.616-1.495a.839.839 0 0 0-.426-.366l-.038-.015-.031-.012-.026-.01a1.712 1.712 0 0 0-.54-.088h-.044a1.842 1.842 0 0 0-.46.068l-.02.005c-.256.079-.468.22-.573.418-.167.316-.082.81.6 1.495l.031.032-.031.033-.07.07-.029.028a.432.432 0 0 0-.008.008l-.003.003-.033.032-.033-.032c-.667-.665-1.149-.763-1.455-.62-.31.146-.476.554-.476.978 0 .424.165.832.476.978.306.143.788.045 1.455-.62l.033-.033.033.033.05.05c.023.02.046.043.059.057l.019.018-.006.026c-.05.203-.228.594-.433.964a6.197 6.197 0 0 1-.32.522 1.73 1.73 0 0 1-.299.35l-.007.006-.008.002c-.96.302-1.796.317-2.751 0l-.008-.002-.006-.005a1.844 1.844 0 0 1-.359-.399 6.09 6.09 0 0 1-.354-.571c-.222-.4-.405-.809-.46-.996l-.008-.026.02-.02c.026-.026.094-.094.126-.124l.035-.033.032.035c.35.39.653.618.909.73.254.112.46.108.622.034.162-.074.288-.223.373-.415.085-.192.128-.423.128-.656 0-.232-.043-.464-.128-.655-.085-.192-.21-.34-.373-.415-.161-.073-.367-.077-.622.035-.256.113-.56.342-.909.73l-.033.037-.035-.034-.16-.158.036-.033c.799-.734.924-1.263.76-1.6-.082-.171-.243-.303-.447-.392a1.617 1.617 0 0 0-.391-.11Zm-7.02-.537c-1.553.362-2.937.946-4.059 1.877a.846.846 0 0 1 .006.087c.002.284-.127.629-.424 1.03l.075.075c.71-.725 1.262-.884 1.648-.714.387.17.57.657.57 1.126 0 .237-.046.474-.14.674a.875.875 0 0 1-.43.45c-.386.167-.938.006-1.648-.723l-.079.078c.124.23.354.578.577.887.116.16.229.31.323.427.047.059.089.108.124.147a.674.674 0 0 0 .074.074c.332.155.789.245 1.272.25.482.005.987-.074 1.414-.25.078-.064.173-.18.276-.327.104-.15.213-.33.315-.514.196-.354.362-.718.416-.916a10.018 10.018 0 0 0-.039-.038l-.017-.017c-.657.642-1.17.773-1.528.605-.36-.168-.53-.623-.53-1.062 0-.439.17-.894.53-1.062.358-.167.87-.037 1.528.605l.043-.043c-.666-.675-.792-1.203-.601-1.57a.914.914 0 0 1 .438-.392c-.046-.272-.09-.526-.133-.764Zm13.334-.016a29.99 29.99 0 0 0-.124.748l.037.015a.932.932 0 0 1 .472.41c.191.367.066.894-.6 1.57l.043.042c.657-.642 1.17-.772 1.528-.605.36.168.53.623.53 1.062 0 .439-.17.894-.53 1.062-.358.168-.871.037-1.529-.605l-.027.027-.029.028c.055.197.221.562.417.916.102.184.211.364.315.514.103.148.199.263.277.326.89.355 1.901.314 2.673 0a.67.67 0 0 0 .075-.073 9.148 9.148 0 0 0 .446-.574 9.22 9.22 0 0 0 .577-.887l-.079-.078c-.71.729-1.262.89-1.647.723a.875.875 0 0 1-.431-.45c-.094-.2-.14-.437-.14-.674 0-.469.183-.956.57-1.126.386-.17.938-.011 1.648.714l.075-.075c-.297-.401-.426-.746-.424-1.03 0-.028.002-.056.005-.082-.937-.865-2.246-1.477-4.008-1.872-.04-.01-.08-.018-.12-.026Zm-7.295-.548c-1.683.014-3.317.09-4.827.33.037.266.083.568.13.912.295.08.55.238.678.478.195.367.076.895-.583 1.57l.043.043c.657-.642 1.17-.772 1.528-.605.36.168.53.623.53 1.062 0 .439-.17.894-.53 1.062-.358.168-.87.037-1.528-.605l-.056.055c.027.092.085.223.165.376a7.577 7.577 0 0 0 .676 1.052c.115.148.22.264.299.328.864.327 1.725.291 2.553-.001.102-.078.217-.21.334-.375.119-.166.239-.363.349-.562.21-.38.382-.762.443-.95a8.139 8.139 0 0 1-.07-.069c-.34.373-.643.601-.907.717-.274.12-.508.121-.7.034-.19-.087-.328-.257-.419-.462a1.738 1.738 0 0 1-.136-.693c0-.244.045-.488.136-.694.091-.205.23-.375.42-.461.19-.088.425-.087.699.033.264.116.566.345.907.717l.056-.055c-.772-.721-.935-1.283-.745-1.676.095-.197.276-.341.494-.436.043-.019.087-.035.133-.05l-.072-1.075Zm1.258 1.069c.052.016.103.035.151.056.218.095.4.24.495.436.19.393.026.955-.746 1.676l.056.055c.341-.372.644-.601.908-.718.273-.12.508-.12.699-.034.19.087.328.257.42.462.09.206.136.45.136.693 0 .244-.045.488-.136.694-.092.205-.23.375-.42.462-.191.087-.425.087-.699-.033-.264-.116-.567-.345-.908-.717l-.07.069c.062.188.233.57.444.95.11.2.23.396.349.563.117.165.232.297.333.374.929.306 1.741.292 2.677 0 .077-.064.172-.178.274-.325.104-.15.213-.33.315-.514.195-.354.361-.719.416-.916l-.038-.038-.018-.018c-.657.643-1.17.773-1.528.606-.36-.168-.53-.623-.53-1.062 0-.439.17-.894.53-1.062.358-.167.871-.037 1.528.605a.405.405 0 0 1 .007-.006l.036-.037c-.658-.676-.778-1.203-.583-1.57.12-.225.35-.377.621-.461.046-.349.094-.656.133-.926-1.363-.205-2.95-.311-4.784-.332l-.069 1.068Zm6.286-2.063a4.795 4.795 0 0 1-.013.145c-.03.275-.089.594-.155.955l-.064.35c.041.008.083.017.123.027 1.744.39 3.056.995 4.005 1.852a.758.758 0 0 1 .305-.44l.009-.006a.832.832 0 0 1 .036-.024l.003-.002a1 1 0 0 1 .046-.027l.003-.002a.585.585 0 0 1 .05-.026c.182-.733.314-1.272.333-1.672.01-.2-.01-.363-.063-.494a.653.653 0 0 0-.273-.315c-.268-.168-.72-.25-1.434-.288-.703-.038-1.651-.033-2.91-.033Zm-13.811 0c-1.232 0-2.164-.008-2.858.026-.705.035-1.155.113-1.425.278a.656.656 0 0 0-.276.313 1.16 1.16 0 0 0-.068.495c.016.401.145.946.33 1.69.225.112.39.286.45.525 1.13-.923 2.514-1.501 4.06-1.861-.1-.55-.18-1.006-.208-1.378a4.081 4.081 0 0 1-.005-.088Zm.185-.906c-1.552.021-2.746.028-3.65.082-.927.056-1.54.16-1.92.376a.951.951 0 0 0-.402.407c-.083.168-.122.375-.12.63.002.505.158 1.188.405 2.118.15-.03.297-.048.44-.051.24-.006.465.027.657.1-.175-.706-.3-1.24-.316-1.64a1.25 1.25 0 0 1 .076-.535.748.748 0 0 1 .313-.356c.293-.18.766-.257 1.47-.292.696-.034 1.63-.027 2.858-.027a2.468 2.468 0 0 1 .009-.277c0-.006 0-.013.002-.02a1.041 1.041 0 0 1 .178-.515Zm13.46-.002a.814.814 0 0 1 .093.166c.075.178.094.395.081.648 1.254 0 2.203-.004 2.908.034.712.038 1.187.12 1.479.302.148.092.249.21.31.36.06.148.08.324.07.533-.02.397-.146.925-.32 1.62a1.708 1.708 0 0 1 .708-.097h.02c.117.007.239.023.361.048.223-.856.395-1.507.425-2.005.016-.252-.005-.462-.072-.637a.904.904 0 0 0-.35-.435c-.347-.238-.938-.374-1.88-.448-.92-.074-2.167-.088-3.834-.089Zm-11.43-.35a6.495 6.495 0 0 0-1.121.024c-.292.04-.505.11-.656.214a.79.79 0 0 0-.078.06l-.038.039a.666.666 0 0 0-.06.069c-.099.134-.15.306-.167.524a2.583 2.583 0 0 0-.003.28l.001.033.006.096c.04.542.194 1.26.351 2.203.075-.029.153-.052.234-.07.007 0 .013-.002.02-.004l.035-.006c.24-.046.497-.044.733.007-.099-.715-.196-1.263-.205-1.667-.005-.21.013-.386.07-.53a.637.637 0 0 1 .296-.337c.142-.08.33-.126.572-.149.243-.023.543-.021.91 0 .725.04 1.721.155 3.075.308l-.045-.677c-1.747-.225-3.017-.376-3.93-.418Zm10.614.046c-.282-.046-.643-.06-1.102-.044-.913.031-2.205.18-4.014.42l-.044.683c1.373-.17 2.374-.287 3.096-.322.367-.017.663-.014.901.015.237.028.42.082.557.168.278.176.347.473.329.891-.018.403-.119.94-.21 1.626.144-.035.296-.052.446-.052h.016c.188 0 .375.028.544.084.066-.435.139-.826.203-1.174.066-.362.123-.677.154-.949.045-.403.03-.7-.09-.915a.646.646 0 0 0-.107-.14l-.039-.039a.888.888 0 0 0-.023-.02c-.137-.108-.335-.186-.617-.232Zm-5.236.398a2.452 2.452 0 0 1-1.348-.007V16a38.523 38.523 0 0 1 .046.697l.002.055h-.002l.14 2.1a2.009 2.009 0 0 1 .844-.038l.039.007a2.618 2.618 0 0 1 .084.017l.026.006.008.002.184-2.857-.023.007Zm4.062.446a5.48 5.48 0 0 0-.885-.014c-.721.035-1.725.152-3.11.324l-.06.96c1.834.02 3.422.127 4.79.332.034-.243.06-.455.068-.639.018-.41-.052-.66-.285-.808-.12-.075-.288-.127-.518-.155Zm-8.545-.011a6.222 6.222 0 0 0-.896 0c-.235.022-.41.067-.536.137a.544.544 0 0 0-.254.29c-.05.127-.068.29-.063.493.004.195.03.423.066.69 1.515-.24 3.152-.316 4.834-.33l-.064-.97c-1.364-.154-2.362-.27-3.087-.31Zm1.57-2.151a2.322 2.322 0 0 0 1.512 1.595l.01.003.027.007h.001l.001.001h.006v.002a2.443 2.443 0 0 0 .575.103h.118l.002-.001a2.43 2.43 0 0 0 .66-.091l.01-.003a.233.233 0 0 0 .009-.003h.002v-.001l.005-.001.009-.003a2.324 2.324 0 0 0 1.555-1.608h-4.502Zm2.25-2.905a2.65 2.65 0 0 0-.352.034 7.17 7.17 0 0 0-.149.023l-.022.004v1.701h-1.74l-.002.013-.002.007a2.283 2.283 0 0 0-.011 1.007l.005.022h4.547l.003-.016a3.656 3.656 0 0 0 .045-.295 2.31 2.31 0 0 0-.053-.719l-.006-.02h-1.736v-1.7l-.023-.004a7.318 7.318 0 0 0-.15-.023 2.841 2.841 0 0 0-.354-.035Zm-.617.08a2.332 2.332 0 0 0-1.62 1.589h1.62v-1.59Zm1.237 1.587h1.62a2.342 2.342 0 0 0-1.62-1.586v1.586Zm-1.142-4.56h-1.312v1.014h1.313v1.845h.004l.151-.025a2.86 2.86 0 0 1 .366-.035 2.9 2.9 0 0 1 .367.035l.152.024.01.002.001-1.8.001-.046h1.314V8.483h-1.315v-1.39h-1.051v1.39Z" clip-rule="evenodd"/>
</svg>
