<svg xmlns="http://www.w3.org/2000/svg" fill="none" viewBox="0 0 80 80">
  <path fill="#EE5335" d="M0 12C0 5.373 5.373 0 12 0h56c6.627 0 12 5.373 12 12v56c0 6.627-5.373 12-12 12H12C5.373 80 0 74.627 0 68V12Z"/>
  <path fill="#000" d="M15.873 30.9c2.778 0 5.503 2.201 5.503 5.714a1.482 1.482 0 0 1-2.963 0c0-1.778-1.297-2.752-2.54-2.752-.741 0-1.424.217-1.898.63-.436.378-.853 1.055-.853 2.333v6.667c0 .925.415 1.512.982 1.917.625.449 1.38.623 1.769.623.41 0 1.094-.158 1.64-.566.482-.36.9-.935.9-1.974v-.952h-1.905a1.482 1.482 0 0 1 0-2.963h3.387c.818 0 1.481.663 1.481 1.482v2.433c0 2.03-.905 3.464-2.09 4.349-1.121.835-2.447 1.154-3.413 1.154-.986 0-2.348-.355-3.495-1.177-1.206-.864-2.219-2.288-2.219-4.326v-6.667c0-2.002.694-3.547 1.872-4.57 1.14-.99 2.573-1.356 3.842-1.356Z"/>
  <path fill="#000" fill-rule="evenodd" d="M29.206 35.344c1.428 0 2.801.626 3.808 1.53 1.005.903 1.8 2.23 1.8 3.76v6.88a1.482 1.482 0 0 1-2.79.692c-.902.517-1.906.79-2.818.79-1.17-.001-2.55-.425-3.663-1.294-1.156-.903-2.05-2.318-2.05-4.21v-2.857c0-1.597.835-2.932 1.882-3.825 1.043-.89 2.434-1.466 3.831-1.466Zm0 2.963c-.613 0-1.338.271-1.91.758-.565.482-.84 1.05-.84 1.57v2.857c0 .86.374 1.456.911 1.875.58.453 1.316.665 1.84.665.49 0 1.192-.217 1.757-.681.528-.435.888-1.04.888-1.859v-2.857c0-.48-.263-1.058-.818-1.557-.554-.498-1.245-.771-1.828-.771Z" clip-rule="evenodd"/>
  <path fill="#000" d="M39.349 31.485a1.482 1.482 0 0 1 2.662.896v15.133a1.482 1.482 0 0 1-2.963 0V36.666a1.482 1.482 0 0 1-2.028-2.111l2.329-3.07Z"/>
  <path fill="#000" fill-rule="evenodd" d="M51.005 30.9c2.778 0 5.503 2.201 5.503 5.714v6.878c0 2.03-.905 3.464-2.09 4.349-1.12.835-2.447 1.154-3.413 1.154-.986 0-2.349-.355-3.495-1.177-1.206-.864-2.219-2.288-2.219-4.326v-6.667c0-2.002.694-3.547 1.872-4.57 1.14-.99 2.573-1.356 3.842-1.356Zm0 2.962c-.742 0-1.424.217-1.899.63-.435.378-.852 1.055-.852 2.333v6.667c0 .925.416 1.512.982 1.917.626.448 1.38.623 1.769.623.41 0 1.094-.158 1.64-.566.482-.36.9-.935.9-1.974v-6.878c0-1.778-1.297-2.752-2.54-2.752Z" clip-rule="evenodd"/>
  <path fill="#000" d="M29.523 30.477a1.481 1.481 0 1 1 0 2.962 1.481 1.481 0 0 1 0-2.962Z"/>
  <path fill="#fff" d="M48.677 61.799a1.482 1.482 0 1 1 0 2.965 1.482 1.482 0 0 1 0-2.965Zm-9.841-.635a1.481 1.481 0 1 1 0 2.963 1.481 1.481 0 0 1 0-2.963Zm19.154-2.857a1.482 1.482 0 1 1-.001 2.963 1.482 1.482 0 0 1 0-2.963Zm-27.937-1.905a1.482 1.482 0 1 1 0 2.963 1.482 1.482 0 0 1 0-2.963Zm34.921-5.079a1.482 1.482 0 1 1 0 2.963 1.482 1.482 0 0 1 0-2.963Zm3.492-9.418a1.482 1.482 0 1 1 0 2.964 1.482 1.482 0 0 1 0-2.964Zm-.741-9.842a1.481 1.481 0 1 1 0 2.963 1.481 1.481 0 0 1 0-2.963Zm-4.762-8.783a1.481 1.481 0 1 1 0 2.963 1.481 1.481 0 0 1 0-2.963Zm-7.937-5.925a1.481 1.481 0 1 1 0 2.962 1.481 1.481 0 0 1 0-2.962Zm-9.735-2.117a1.481 1.481 0 1 1 0 2.963 1.481 1.481 0 0 1 0-2.963Z"/>
</svg>
