<svg preserveAspectRatio="xMidYMid meet" width="100%" height="100%" overflow="visible" style="display: block;" viewBox="0 0 59.7881 49.5234" fill="none" xmlns="http://www.w3.org/2000/svg">
<g id="Logo">
<g id="Union">
<path d="M5.71387 15.6611C8.49232 15.6611 11.2168 17.8628 11.2168 21.376C11.2165 22.1938 10.5532 22.8572 9.73535 22.8574C8.91731 22.8574 8.25417 22.194 8.25391 21.376C8.25391 19.5981 6.95657 18.624 5.71387 18.624C4.97229 18.624 4.28969 18.841 3.81543 19.2529C3.37975 19.6315 2.96294 20.309 2.96289 21.5869V28.2539C2.96292 29.1791 3.37815 29.7652 3.94434 30.1709C4.57013 30.6192 5.32446 30.7939 5.71387 30.7939C6.1233 30.7939 6.80798 30.6353 7.35449 30.2275C7.83553 29.8686 8.25388 29.293 8.25391 28.2539V27.3018H6.34863C5.53062 27.3017 4.86739 26.6383 4.86719 25.8203C4.86719 25.0022 5.5305 24.3389 6.34863 24.3389H9.73535C10.5534 24.339 11.2168 25.0022 11.2168 25.8203V28.2539C11.2168 30.2834 10.3115 31.7181 9.12598 32.6025C8.00585 33.4382 6.68006 33.7568 5.71387 33.7568C4.72767 33.7568 3.3654 33.4015 2.21875 32.5801C1.01263 31.716 3.38236e-05 30.2914 0 28.2539V21.5869C5.16963e-05 19.5847 0.694073 18.0401 1.87207 17.0166C3.01155 16.0266 4.44502 15.6611 5.71387 15.6611Z" fill="var(--fill-0, black)"/>
<path fill-rule="evenodd" clip-rule="evenodd" d="M19.0469 20.1055C20.4749 20.1055 21.848 20.7317 22.8545 21.6357C23.8601 22.5391 24.6552 23.8659 24.6553 25.3965V32.2754C24.655 33.0934 23.9919 33.7568 23.1738 33.7568C22.606 33.7567 22.1128 33.4368 21.8643 32.9678C20.9632 33.485 19.9591 33.7568 19.0469 33.7568C17.8775 33.7568 16.4966 33.3332 15.3838 32.4639C14.2277 31.5607 13.333 30.1453 13.333 28.2539V25.3965C13.3331 23.7992 14.1685 22.4642 15.2158 21.5713C16.2588 20.6822 17.6497 20.1056 19.0469 20.1055ZM19.0469 23.0684C18.4337 23.0685 17.7083 23.3398 17.1377 23.8262C16.5717 24.3088 16.296 24.8777 16.2959 25.3965V28.2539C16.2959 29.1137 16.671 29.7094 17.208 30.1289C17.788 30.582 18.5233 30.7939 19.0469 30.7939C19.5376 30.7939 20.2399 30.5769 20.8047 30.1123C21.333 29.6777 21.6924 29.0721 21.6924 28.2539V25.3965C21.6923 24.9166 21.4301 24.3385 20.875 23.8398C20.3206 23.3419 19.6294 23.0684 19.0469 23.0684Z" fill="var(--fill-0, black)"/>
<path d="M29.1895 16.2471C29.5739 15.7405 30.239 15.5358 30.8418 15.7383C31.4447 15.9411 31.8515 16.5064 31.8516 17.1426V32.2754C31.8513 33.0933 31.1881 33.7567 30.3701 33.7568C29.5521 33.7568 28.8889 33.0934 28.8887 32.2754V21.4277C28.3759 21.7849 27.6712 21.7896 27.1465 21.3916C26.4949 20.8971 26.3672 19.9682 26.8613 19.3164L29.1895 16.2471Z" fill="var(--fill-0, black)"/>
<path fill-rule="evenodd" clip-rule="evenodd" d="M40.8457 15.6611C43.6242 15.6611 46.3486 17.8628 46.3486 21.376V28.2539C46.3486 30.2832 45.4442 31.7181 44.2588 32.6025C43.1386 33.4382 41.8119 33.7568 40.8457 33.7568C39.8595 33.7567 38.4971 33.4015 37.3506 32.5801C36.1445 31.716 35.1319 30.2913 35.1318 28.2539V21.5869C35.1319 19.5849 35.8261 18.0401 37.0039 17.0166C38.1433 16.0267 39.577 15.6612 40.8457 15.6611ZM40.8457 18.624C40.1042 18.6241 39.4214 18.841 38.9473 19.2529C38.5116 19.6315 38.0948 20.309 38.0947 21.5869V28.2539C38.0948 29.1792 38.5108 29.7652 39.0771 30.1709C39.7027 30.619 40.4562 30.7938 40.8457 30.7939C41.2551 30.7939 41.9398 30.6352 42.4863 30.2275C42.9674 29.8686 43.3857 29.2931 43.3857 28.2539V21.376C43.3857 19.5981 42.0884 18.624 40.8457 18.624Z" fill="var(--fill-0, black)"/>
<path d="M19.3643 15.2383C20.1825 15.2383 20.8457 15.9015 20.8457 16.7197C20.8455 17.5378 20.1823 18.2012 19.3643 18.2012C18.5464 18.201 17.883 17.5376 17.8828 16.7197C17.8828 15.9017 18.5462 15.2385 19.3643 15.2383Z" fill="var(--fill-0, black)"/>
</g>
<g id="Union_2">
<path d="M38.5176 46.5605C39.3357 46.5605 39.9999 47.2239 40 48.042C40 48.8602 39.3358 49.5234 38.5176 49.5234C37.6996 49.5232 37.0361 48.86 37.0361 48.042C37.0362 47.224 37.6996 46.5608 38.5176 46.5605Z" fill="var(--fill-0, white)"/>
<path d="M28.6768 45.9258C29.4949 45.9258 30.1582 46.589 30.1582 47.4072C30.1582 48.2254 29.495 48.8887 28.6768 48.8887C27.8586 48.8887 27.1953 48.2254 27.1953 47.4072C27.1953 46.5891 27.8586 45.9258 28.6768 45.9258Z" fill="var(--fill-0, white)"/>
<path d="M47.8301 43.0684C48.6482 43.0684 49.3114 43.7317 49.3115 44.5498C49.3115 45.368 48.6483 46.0312 47.8301 46.0312C47.012 46.0312 46.3486 45.368 46.3486 44.5498C46.3488 43.7318 47.012 43.0684 47.8301 43.0684Z" fill="var(--fill-0, white)"/>
<path d="M19.8936 41.1641C20.7118 41.1641 21.375 41.8273 21.375 42.6455C21.3749 43.4636 20.7117 44.127 19.8936 44.127C19.0755 44.1269 18.4122 43.4636 18.4121 42.6455C18.4121 41.8274 19.0754 41.1641 19.8936 41.1641Z" fill="var(--fill-0, white)"/>
<path d="M54.8145 36.085C55.6326 36.085 56.2959 36.7482 56.2959 37.5664C56.2957 38.3844 55.6325 39.0478 54.8145 39.0479C53.9964 39.0479 53.3333 38.3844 53.333 37.5664C53.333 36.7482 53.9963 36.085 54.8145 36.085Z" fill="var(--fill-0, white)"/>
<path d="M58.3066 26.667C59.1247 26.6671 59.7881 27.3303 59.7881 28.1484C59.7878 28.9664 59.1246 29.6298 58.3066 29.6299C57.4886 29.6299 56.8254 28.9664 56.8252 28.1484C56.8252 27.3302 57.4884 26.667 58.3066 26.667Z" fill="var(--fill-0, white)"/>
<path d="M57.5654 16.8252C58.3836 16.8252 59.0469 17.4885 59.0469 18.3066C59.0469 19.1248 58.3836 19.7881 57.5654 19.7881C56.7474 19.7879 56.084 19.1247 56.084 18.3066C56.084 17.4886 56.7474 16.8253 57.5654 16.8252Z" fill="var(--fill-0, white)"/>
<path d="M52.8037 8.04199C53.6219 8.04199 54.2851 8.70531 54.2852 9.52344C54.2852 10.3416 53.6219 11.0049 52.8037 11.0049C51.9856 11.0048 51.3223 10.3416 51.3223 9.52344C51.3224 8.70534 51.9856 8.04204 52.8037 8.04199Z" fill="var(--fill-0, white)"/>
<path d="M44.8672 2.11621C45.6854 2.11621 46.3486 2.77947 46.3486 3.59766C46.3486 4.41586 45.6854 5.0791 44.8672 5.0791C44.049 5.07905 43.3857 4.41582 43.3857 3.59766C43.3858 2.77951 44.049 2.11626 44.8672 2.11621Z" fill="var(--fill-0, white)"/>
<path d="M35.1318 0C35.95 1.34025e-05 36.6133 0.663254 36.6133 1.48145C36.6132 2.29954 35.95 2.96288 35.1318 2.96289C34.3137 2.96289 33.6505 2.29955 33.6504 1.48145C33.6504 0.663246 34.3136 0 35.1318 0Z" fill="var(--fill-0, white)"/>
</g>
</g>
</svg>
