<svg preserveAspectRatio="xMidYMid meet" width="100%" height="100%" overflow="visible" style="display: block;" viewBox="0 0 44.8628 60" fill="none" xmlns="http://www.w3.org/2000/svg">
<g id="Logo">
<path d="M5.54834 12.8213C5.7555 12.8341 5.95026 12.9258 6.09229 13.0771C6.23429 13.2285 6.31335 13.4282 6.31299 13.6357C6.31262 13.8432 6.23278 14.0425 6.09034 14.1934C5.94777 14.3442 5.75262 14.4352 5.54541 14.4473C5.43467 14.4537 5.32347 14.4374 5.21924 14.3994C5.11508 14.3614 5.01957 14.3027 4.93897 14.2266C4.85831 14.1503 4.79434 14.058 4.75049 13.9561C4.70664 13.854 4.68389 13.7439 4.68409 13.6328C4.6843 13.5219 4.70736 13.4123 4.75147 13.3105C4.79569 13.2087 4.85993 13.116 4.94092 13.04C5.02186 12.9641 5.11777 12.9058 5.22217 12.8682C5.32653 12.8306 5.43763 12.8145 5.54834 12.8213Z" fill="var(--fill-0, black)"/>
<path fill-rule="evenodd" clip-rule="evenodd" d="M13.2378 3.1416C12.7193 5.22887 11.6645 5.69386 10.8179 6.06738C10.2085 6.33544 9.70165 6.56838 9.271 7.42383C9.73902 7.63656 10.1601 7.93996 10.5103 8.31641C10.8605 8.69304 11.1328 9.13573 11.311 9.61816C11.6509 10.4693 12.1977 12.2976 12.0952 15.1611C12.0394 16.3214 11.8365 17.4699 11.4917 18.5791C11.4375 18.7637 11.3291 19.0117 11.1929 19.3047C10.9439 19.8408 10.6362 20.5088 10.563 21.3555C10.5367 21.6498 10.6594 21.969 10.9478 22.3613C11.2134 22.673 11.5619 22.9036 11.9526 23.0264C12.1562 23.0923 12.3003 23.104 12.687 23.1289L15.4409 23.1436V17.3672H30.228V23.2139L31.2036 23.2217C31.2882 23.2247 32.0109 23.2656 34.1548 23.2656C39.3314 23.2656 44.8628 26.1105 44.8628 34.0967C44.8627 38.2347 42.9463 43.2525 33.8179 43.6611C32.6504 43.715 30.7727 43.7081 30.7495 43.708L30.7476 43.71H30.2251V46.2617C32.6962 46.3745 35.7418 46.8195 37.728 49.0547C39.3276 50.8535 40.2646 54.2466 39.9731 55.8564C39.8354 56.6148 39.4535 56.9595 39.1577 57.1162C38.9264 57.2377 38.6947 57.2919 38.4605 57.292C37.8263 57.292 37.1624 56.911 36.3774 56.457C35.0591 55.7027 33.1253 54.605 30.2251 54.3984V60H15.439V54.3047L10.8735 54.2861C8.55476 54.2861 0.973248 53.6105 0.973149 44.9199C0.973149 41.7486 1.80913 39.311 3.45557 37.6748C5.85639 35.293 9.22709 35.3105 10.6772 35.3252L15.439 35.2842V32.2637L12.6314 32.2773C7.94404 32.2261 4.03708 30.2557 1.89405 26.8691C0.326759 24.3908 -0.259182 21.1051 0.104008 16.8281C0.184416 15.0001 0.682528 13.2141 1.56006 11.6084C2.75822 9.4714 4.3503 8.02832 6.29248 7.31055C6.77945 7.13126 7.29746 7.0506 7.81592 7.07227C8.50585 5.48588 9.44973 5.06786 10.2261 4.72656C10.9759 4.39559 11.4708 4.1785 11.8149 2.79004L13.2378 3.1416ZM17.3481 58.0938H28.3218V54.3564C26.1596 54.3477 21.3658 54.3301 17.3481 54.3125V58.0938ZM10.9087 37.2314L10.6636 37.2295C9.3349 37.209 6.63508 37.2048 4.79834 39.0254C3.52411 40.2925 2.8794 42.2761 2.8794 44.9199C2.87949 51.6535 8.4742 52.3799 10.8794 52.3799C10.9474 52.3802 27.2496 52.4502 29.273 52.4502C33.2278 52.4502 35.7945 53.9268 37.3267 54.8057C37.5917 54.9594 37.8975 55.1358 38.1333 55.2529C38.1611 54.2173 37.5268 51.6933 36.3052 50.3193C35.0586 48.919 33.1322 48.2695 29.8599 48.1494C28.2129 48.0205 21.841 47.9619 12.3276 47.9766H12.0054C9.69699 47.9765 8.31983 46.8251 8.31983 44.8975C8.32002 41.725 11.1285 41.7246 12.1831 41.7246C12.7587 41.7246 13.2233 41.7295 13.9263 41.7354L15.4409 41.7471V37.1914L10.9087 37.2314ZM17.3481 32.252V46.0752C21.3878 46.0811 25.7862 46.106 28.3218 46.1777V32.1953L17.3481 32.252ZM12.186 43.6289C10.5925 43.6289 10.2262 43.8665 10.2261 44.8975C10.2261 45.2783 10.2259 46.0722 12.0054 46.0723H15.4419V43.6543L13.9097 43.6396C13.2112 43.6338 12.7542 43.6289 12.186 43.6289ZM9.54932 10.3398C9.14354 9.24571 7.99652 8.71732 6.95655 9.09375C5.4478 9.65184 4.19187 10.8072 3.22803 12.5283C2.48666 13.8886 2.06859 15.4014 2.00538 16.9492C1.6758 20.8368 2.16755 23.7359 3.50342 25.8525L3.50538 25.8506C5.29684 28.6806 8.62657 30.3291 12.6401 30.373L31.1948 30.2764C31.2339 30.2781 33.4219 30.333 33.9849 30.333C34.9077 30.333 35.7471 30.6704 36.3491 31.2783C36.9731 31.9096 37.2988 32.7725 37.2886 33.7686C37.265 35.7677 35.9391 37.1112 33.9868 37.1113L30.7583 37.1172H30.228V41.8037L30.7495 41.8027C30.7763 41.8028 32.5984 41.8128 33.6802 41.7617C37.6922 41.5816 42.9583 40.5942 42.9585 34.0967C42.9585 25.8165 36.2225 25.171 34.1567 25.1709C31.8979 25.1709 31.1541 25.124 31.1392 25.123L12.6255 25.0303C12.1377 25.001 11.7974 24.9795 11.3726 24.8359C10.649 24.6162 9.95893 24.1498 9.44776 23.5303C8.84299 22.7145 8.60011 21.9598 8.66748 21.1865C8.77155 20.009 9.18901 19.1034 9.46729 18.5059C9.55217 18.3171 9.62943 18.1644 9.66455 18.0371C9.96489 17.0783 10.1432 16.0855 10.1939 15.082C10.2861 12.4849 9.77637 10.8994 9.54932 10.3398ZM30.228 32.1865V35.2109H30.7612L33.9868 35.2051C35.1274 35.2049 35.3749 34.4129 35.3823 33.748C35.3882 33.2707 35.2537 32.8808 34.9946 32.6172C34.75 32.3711 34.4009 32.2393 33.9849 32.2393C33.4123 32.2392 31.2003 32.1813 31.1743 32.1807L30.228 32.1865ZM17.3481 19.2725V23.1514L28.3218 23.2051V19.2725H17.3481Z" fill="var(--fill-0, black)"/>
<path fill-rule="evenodd" clip-rule="evenodd" d="M22.8335 0C24.7933 0.00271752 26.6723 0.782216 28.0581 2.16797C29.4439 3.55374 30.2233 5.43281 30.2261 7.39258C30.2234 9.35238 29.4439 11.2314 28.0581 12.6172C26.6723 14.003 24.7934 14.7834 22.8335 14.7861C20.8736 14.7834 18.9947 14.003 17.6089 12.6172C16.2231 11.2314 15.4436 9.35239 15.4409 7.39258C15.4437 5.43281 16.2231 3.55374 17.6089 2.16797C18.9947 0.782223 20.8737 0.00271254 22.8335 0ZM22.8335 1.9043C21.3791 1.90623 19.9851 2.48642 18.9565 3.51465C17.928 4.54296 17.3485 5.93716 17.3462 7.3916C17.3474 8.84655 17.926 10.2415 18.9546 11.2705C19.9833 12.2995 21.3784 12.8783 22.8335 12.8799C24.2882 12.8783 25.6828 12.3 26.7114 11.2715C27.7401 10.2428 28.3193 8.84739 28.3208 7.39258C28.3192 5.93774 27.74 4.54254 26.7114 3.51367C25.6828 2.485 24.2882 1.90624 22.8335 1.9043Z" fill="var(--fill-0, black)"/>
</g>
</svg>
