<svg xmlns="http://www.w3.org/2000/svg" fill="none" viewBox="0 0 80 80">
  <path fill="#fff" d="M0 12C0 5.373 5.373 0 12 0h56c6.627 0 12 5.373 12 12v56c0 6.627-5.373 12-12 12H12C5.373 80 0 74.627 0 68V12Z"/>
  <path fill="#000" d="M23.548 22.821a.816.816 0 1 1-.101 1.628.816.816 0 0 1 .101-1.628Z"/>
  <path fill="#000" fill-rule="evenodd" d="M31.238 13.142c-.519 2.087-1.573 2.552-2.42 2.925-.61.268-1.116.501-1.547 1.357a3.895 3.895 0 0 1 2.04 2.194c.34.851.887 2.68.784 5.543a13.738 13.738 0 0 1-.603 3.418 5.854 5.854 0 0 1-.3.726c-.248.536-.556 1.204-.629 2.05-.026.295.096.614.385 1.006.265.312.614.543 1.005.665.203.066.347.078.734.103l2.754.015v-5.777h14.787v5.847l.976.008c.084.003.807.044 2.95.044 5.177 0 10.709 2.845 10.709 10.83 0 4.139-1.917 9.157-11.045 9.565a79.264 79.264 0 0 1-3.069.047l-.001.002h-.523v2.552c2.471.112 5.517.557 7.503 2.793 1.6 1.798 2.537 5.192 2.245 6.801-.138.759-.52 1.104-.815 1.26a1.476 1.476 0 0 1-.697.176c-.635 0-1.299-.381-2.084-.835-1.318-.754-3.252-1.852-6.152-2.059V70H33.44v-5.695l-4.566-.019c-2.318 0-9.9-.675-9.9-9.366 0-3.171.836-5.609 2.483-7.245 2.4-2.382 5.771-2.364 7.221-2.35l4.762-.04v-3.021l-2.808.013c-4.687-.05-8.594-2.021-10.737-5.408-1.567-2.478-2.153-5.764-1.79-10.04a11.98 11.98 0 0 1 1.456-5.22c1.198-2.138 2.79-3.58 4.733-4.299a3.935 3.935 0 0 1 1.523-.238c.69-1.586 1.634-2.004 2.41-2.345.75-.331 1.245-.549 1.589-1.937l1.423.352Zm4.11 54.952h10.974v-3.738c-2.162-.008-6.956-.026-10.974-.043v3.78Zm-6.44-20.863-.244-.002c-1.33-.02-4.029-.024-5.866 1.796-1.274 1.267-1.919 3.251-1.919 5.895 0 6.733 5.595 7.46 8 7.46.068 0 16.37.07 18.394.07 3.955 0 6.521 1.477 8.054 2.356.265.153.57.33.806.447.028-1.036-.606-3.56-1.828-4.934-1.246-1.4-3.173-2.05-6.445-2.17-1.647-.129-8.019-.187-17.532-.172h-.323c-2.308 0-3.685-1.152-3.685-3.08 0-3.172 2.808-3.172 3.863-3.172.576 0 1.04.005 1.743.01l1.515.012v-4.556l-4.532.04Zm6.44-4.979v13.823c4.04.006 8.438.031 10.974.103V42.195l-10.974.057Zm-5.162 11.377c-1.593 0-1.96.238-1.96 1.269 0 .38 0 1.174 1.78 1.174h3.436v-2.418l-1.532-.014c-.699-.006-1.156-.011-1.724-.011Zm-2.637-33.29c-.405-1.093-1.552-1.622-2.593-1.245-1.508.558-2.764 1.713-3.728 3.434a10.1 10.1 0 0 0-1.223 4.421c-.33 3.888.163 6.787 1.498 8.903l.002-.001c1.792 2.83 5.122 4.478 9.135 4.522l18.555-.097a200.3 200.3 0 0 0 2.79.057c.923 0 1.762.337 2.364.945.624.632.95 1.495.94 2.49-.024 2-1.35 3.343-3.302 3.343l-3.229.006h-.53v4.687l.521-.001c.027 0 1.85.01 2.931-.041 4.012-.18 9.278-1.168 9.279-7.665 0-8.28-6.737-8.926-8.802-8.926-2.26 0-3.003-.047-3.018-.048l-18.514-.093c-.487-.029-.828-.05-1.252-.194a4.09 4.09 0 0 1-1.925-1.306c-.605-.816-.848-1.57-.78-2.344.104-1.177.521-2.083.8-2.68.084-.189.161-.342.197-.469.3-.959.478-1.951.529-2.955.092-2.597-.418-4.183-.645-4.742Zm20.679 21.848v3.024h.533l3.226-.006c1.14 0 1.388-.792 1.395-1.457.006-.477-.128-.867-.387-1.13-.245-.247-.594-.379-1.01-.379-.573 0-2.785-.058-2.81-.058l-.947.006Zm-12.88-12.914v3.878l10.974.054v-3.932H35.348Z" clip-rule="evenodd"/>
  <path fill="#000" fill-rule="evenodd" d="M40.834 10a7.403 7.403 0 0 1 7.392 7.393 7.403 7.403 0 0 1-7.392 7.393 7.404 7.404 0 0 1-7.393-7.393A7.403 7.403 0 0 1 40.833 10Zm0 1.904a5.496 5.496 0 0 0-5.488 5.488 5.493 5.493 0 0 0 5.488 5.488 5.493 5.493 0 0 0 5.487-5.487 5.496 5.496 0 0 0-5.487-5.489Z" clip-rule="evenodd"/>
</svg>
