<svg xmlns="http://www.w3.org/2000/svg" fill="none" viewBox="0 0 80 80">
  <g clip-path="url(#a)">
    <path fill="#000" d="M0 12C0 5.373 5.373 0 12 0h56c6.627 0 12 5.373 12 12v56c0 6.627-5.373 12-12 12H12C5.373 80 0 74.627 0 68V12Z"/>
    <path fill="#fff" d="M15.417 32.917c6.104 0 6.375 4.208 6.375 5.5h-3.98c-.11-.708-.52-2.125-2.395-2.125-2.146 0-2.792 1.354-2.792 4.188 0 2.833.563 4.145 2.792 4.145 1.783 0 2.465-1.486 2.583-2.23h-3v-2.458h6.688v7.646h-3.063l-.292-3.416c-.604 3.458-3.583 4.416-6.437 3.458-2.854-.958-3.292-3.959-3.292-6.917 0-2.958.397-7.791 6.813-7.791Z"/>
    <path fill="#fff" fill-rule="evenodd" d="M50.833 37.833c.333-.77 1.13-2.103 3.647-2.103 3.52 0 4.895 2.416 4.895 5.937 0 3.833-1.77 6.27-4.895 6.27-2.5 0-3.584-1.5-3.813-2.25l-.272 1.896H47.02V32.125h3.813v5.708Zm2.313.959c-1.542 0-2.396 1.396-2.396 2.875 0 1.666.708 3 2.395 3 1.688 0 2.313-1.271 2.313-3 0-1.73-.77-2.875-2.313-2.875Z" clip-rule="evenodd"/>
    <path fill="#fff" d="M37.313 42.375c0 1.083.583 2.167 1.937 2.167s1.813-1.626 1.813-2.459v-6.125h3.895v11.625h-3.313l-.353-2.083c-.23 1-1.396 2.355-3.73 2.355-3.708 0-4.062-3.043-4.062-4.647v-7.25h3.813v6.417Zm27.562 5.208h-3.917V32.125h3.917v15.458ZM32.042 39.75h-2.105c-1.75 0-2.229 1.5-2.229 2.125v5.688H23.77V35.957h3.085l.562 2.625c.474-2.551 2.367-2.775 3.168-2.791h1.457v3.958Z"/>
    <path fill="#FF8C31" d="M67.625 43.875h3.75v3.708h-3.75z"/>
    <path fill="#FF8AFD" d="M61.834 0h18.167v18.167H61.834z"/>
    <path fill="#007DF9" d="M54.834 0h7v7h-7zM16.375 72.167h7.833V80h-7.833z"/>
    <path fill="#FF8C31" d="M0 63.625h16.375V80H0z"/>
  </g>
  <defs>
    <clipPath id="a">
      <path fill="#fff" d="M0 12C0 5.373 5.373 0 12 0h56c6.627 0 12 5.373 12 12v56c0 6.627-5.373 12-12 12H12C5.373 80 0 74.627 0 68V12Z"/>
    </clipPath>
  </defs>
</svg>
