<svg preserveAspectRatio="xMidYMid meet" width="100%" height="100%" overflow="visible" style="display: block;" viewBox="0 0 41.5925 52.3673" fill="none" xmlns="http://www.w3.org/2000/svg">
<path id="Logo" d="M5.76461 0V3.99424H2.37716V0H0V10.3791H2.37716V6.10273H5.76461V10.3791H8.15662V0H5.76461ZM36.8724 8.33V0H34.4953V10.3791H40.9582V8.33H36.8724ZM20.5824 19.7348C18.1904 19.7348 16.5115 21.7542 16.5115 24.6497C16.5115 27.5452 18.1755 29.5645 20.5824 29.5645C22.9893 29.5645 24.6533 27.5452 24.6533 24.6497C24.6533 21.7542 22.9744 19.7348 20.5824 19.7348ZM23.4053 24.6497C23.4053 26.4167 22.6624 28.4955 20.5824 28.4955C18.5024 28.4955 17.7595 26.4315 17.7595 24.6497C17.7595 22.8827 18.5024 20.8039 20.5824 20.8039C22.6624 20.8039 23.4053 22.8827 23.4053 24.6497ZM4.36803 19.72C2.76345 19.72 1.90173 20.7148 1.47087 21.4721V20.0021H0.341716V29.2973H1.54515V24.6349C1.54515 23.3876 2.19887 20.8188 4.23431 20.8188C6.31433 20.8188 6.59661 22.6006 6.59661 24.5309V29.2973H7.80005V24.5309C7.81491 22.1403 7.3989 19.72 4.36803 19.72ZM19.8047 8.3894V6.01364H23.1773V4.08333H19.8047V1.9897H24.3659V0H17.4721V10.3791H24.4996V8.3894H19.8047ZM36.8568 46.1261V43.7503H40.2294V41.82H36.8568V39.7264H41.418V37.7367H34.5242V48.1158H41.5517V46.1261H36.8568ZM2.08757 40.7409V38.3206H0.958417V47.6158H2.16185V42.0327L6.21788 39.1224V37.7861L2.08757 40.7409ZM25.2313 37.7861L23.0473 39.3452C22.3936 38.5136 21.3833 38.0533 20.2542 38.0533C18.2336 38.0533 16.7478 39.5085 16.7478 41.513C16.7478 43.087 17.669 44.3491 19.125 44.8094L16.7478 47.4079C16.1535 48.0909 15.901 48.6403 15.901 49.2936C15.901 51.1645 17.5501 52.3673 20.0907 52.3673C22.6016 52.3673 24.2953 51.1348 24.2953 49.2936C24.2953 47.4376 22.6462 46.2348 20.0907 46.2348C19.8381 46.2348 19.5113 46.2645 19.2587 46.3091L20.4473 44.9727C22.3639 44.8688 23.7456 43.4285 23.7456 41.513C23.7456 41.0973 23.6862 40.6964 23.5673 40.3548C23.5673 40.34 23.5525 40.3252 23.5525 40.3103L25.2165 39.1076V37.7861H25.2313ZM20.1204 47.3188C21.9182 47.3188 23.0919 48.0909 23.0919 49.3085C23.0919 50.5261 21.933 51.313 20.1204 51.313C18.3227 51.313 17.1638 50.5261 17.1638 49.3085C17.1638 48.1503 18.397 47.3188 20.1204 47.3188ZM20.2542 43.9036C18.9467 43.9036 17.9959 42.8939 17.9959 41.5279C17.9959 40.147 18.9467 39.1521 20.2542 39.1521C21.5616 39.1521 22.5125 40.147 22.5125 41.5279C22.5125 42.8939 21.5616 43.9036 20.2542 43.9036ZM38.2496 23.4612C37.269 23.1197 36.2439 22.7633 36.2439 22.0952C36.2439 21.3824 36.8679 21.0558 37.6256 21.0558C38.4279 21.0558 38.9627 21.7239 38.9627 22.3179V22.4367H41.3696V22.3476C41.3696 20.4173 39.8542 19.1255 37.5959 19.1255C35.3227 19.1255 33.8964 20.2836 33.8964 22.1545C33.8964 24.3373 35.8427 24.8867 37.2987 25.4064C38.2644 25.7627 39.3193 26.0448 39.3193 26.6982C39.3193 27.3812 38.8142 27.8861 37.7444 27.8861C36.7787 27.8861 36.125 27.3218 36.125 26.4903V26.3715H33.6438V26.4903C33.6438 28.6433 35.1741 29.9203 37.7296 29.9203C40.181 29.9203 41.5925 28.7918 41.5925 26.7279C41.5925 24.5897 39.7353 23.9809 38.2496 23.4612Z" fill="var(--fill-0, white)"/>
</svg>
