<svg preserveAspectRatio="xMidYMid meet" width="100%" height="100%" overflow="visible" style="display: block;" viewBox="0 0 80 58" fill="none" xmlns="http://www.w3.org/2000/svg">
<g id="Illustration">
<path id="Vector" d="M46.0547 25.3437C21.5234 17.5312 7.10938 19.8359 0 25.3437V58H80V43.0781C73.8672 37.1406 70.5859 33.1562 46.0547 25.3437Z" fill="var(--fill-0, #FFEAB6)"/>
<g id="Union">
<path d="M57.4375 45.6641C57.4375 48.0587 53.9222 50 49.5859 50C45.2496 50 41.7344 48.0587 41.7344 45.6641V41.8359H57.4375C57.4375 41.8359 57.4375 44.1377 57.4375 45.6641Z" fill="var(--fill-0, #343435)"/>
<path d="M70.1719 26.0166C70.1716 27.4831 67.8282 28.6719 64.9375 28.6719C62.0468 28.6719 59.7034 27.4831 59.7031 26.0166V23.6719H70.1719C70.1719 23.6719 70.1719 25.0818 70.1719 26.0166Z" fill="var(--fill-0, #343435)"/>
<path d="M38.2969 19.1416C38.2966 20.6081 35.9532 21.7969 33.0625 21.7969C30.1718 21.7969 27.8284 20.6081 27.8281 19.1416V16.7969H38.2969C38.2969 16.7969 38.2969 18.2068 38.2969 19.1416Z" fill="var(--fill-0, #343435)"/>
</g>
<ellipse id="Ellipse" cx="49.5859" cy="41.8359" rx="7.85156" ry="4.33594" fill="var(--fill-0, #DBBEFF)"/>
<g id="Union_2">
<path d="M64.9375 21.0156C67.8284 21.0156 70.1719 22.2049 70.1719 23.6719C70.1719 25.1389 67.8284 26.3281 64.9375 26.3281C62.0466 26.3281 59.7031 25.1389 59.7031 23.6719C59.7031 22.2049 62.0466 21.0156 64.9375 21.0156Z" fill="var(--fill-0, #FECA47)"/>
<path d="M33.0625 14.1406C35.9534 14.1406 38.2969 15.3299 38.2969 16.7969C38.2969 18.2639 35.9534 19.4531 33.0625 19.4531C30.1716 19.4531 27.8281 18.2639 27.8281 16.7969C27.8281 15.3299 30.1716 14.1406 33.0625 14.1406Z" fill="var(--fill-0, #FECA47)"/>
</g>
<path id="Union_3" d="M52.0469 2.38574C52.0468 2.86588 51.5429 3.28298 50.7969 3.50391V6.10938L69.1133 9.83789C69.6628 9.94989 70.0171 10.4866 69.9053 11.0361C69.7934 11.5856 69.2575 11.9408 68.708 11.8291L65.0537 11.085L70.1719 23.6719L70.0996 23.7012L65.0156 11.1992V26.3281H64.9375V11.0605L64.9092 11.0557L59.7812 23.6719L59.709 23.6426L64.832 11.04L50.7969 8.18262V23.3623C51.3632 23.7577 51.7344 24.4132 51.7344 25.1562V39.6094C51.7344 40.8175 50.755 41.7968 49.5469 41.7969C48.3388 41.7968 47.3594 40.8175 47.3594 39.6094V25.1562C47.3594 24.4132 47.7306 23.7577 48.2969 23.3623V7.67383L33.2988 4.62109L38.2969 16.7969L38.2246 16.8262L33.2061 4.60254L33.1406 4.58887V19.4531H33.0625V4.57324L33.0029 4.56152L27.9062 16.7969L27.834 16.7666L32.9248 4.54492L30.7764 4.1084C30.2269 3.99647 29.8716 3.46067 29.9834 2.91113C30.0953 2.3615 30.632 2.0063 31.1816 2.11816L48.2969 5.60059V3.47949C47.5941 3.25305 47.1251 2.84889 47.125 2.38574V1.25H52.0469C52.0469 1.25 52.0469 1.93294 52.0469 2.38574Z" fill="var(--fill-0, #F07C14)"/>
<ellipse id="Ellipse_2" cx="49.5859" cy="1.28906" rx="2.46094" ry="1.28906" fill="var(--fill-0, #DBBEFF)"/>
<ellipse id="Ellipse_3" cx="69.1562" cy="10.8984" rx="0.976562" ry="0.78125" transform="rotate(90 69.1562 10.8984)" fill="var(--fill-0, #FECA47)"/>
</g>
</svg>
