<svg preserveAspectRatio="xMidYMid meet" width="100%" height="100%" overflow="visible" style="display: block;" viewBox="0 0 58.5591 60" fill="none" xmlns="http://www.w3.org/2000/svg">
<g id="Logo">
<path id="Vector" d="M46.9098 0.961411H11.4734C5.57054 0.961411 0.801372 5.76847 0.801372 11.6939V35.0229C0.801372 40.9483 5.59009 45.7358 11.4734 45.7358H16.5553C16.7898 45.7358 16.9853 45.932 16.9853 46.1674V57.6848C16.9853 59.0386 18.6467 59.7057 19.5653 58.705L31.586 45.8731C31.6641 45.775 31.7814 45.7358 31.8987 45.7358H46.8707C52.7736 45.7358 57.5427 40.9287 57.5427 35.0229V11.6939C57.6014 5.76847 52.8127 0.961411 46.9098 0.961411Z" fill="var(--fill-0, white)"/>
<path id="Vector_2" d="M21.5003 41.7332C21.5003 41.4781 21.3049 41.2623 21.0703 41.2623H16.1448C10.4374 41.2623 5.80509 36.2001 5.80509 29.9804V5.41532C5.80509 4.3558 5.94191 3.33553 6.17646 2.37412C2.97095 4.21846 0.801372 7.69132 0.801372 11.6939V35.0229C0.801372 40.9483 5.59009 45.7358 11.4734 45.7358H16.5553C16.7898 45.7358 16.9853 45.932 16.9853 46.1674V57.6848C16.9853 59.0386 18.6467 59.7057 19.5653 58.7051L21.4612 56.6645L21.5003 41.7332Z" fill="var(--fill-0, #DAE4E9)"/>
<path id="Vector_3" d="M41.1829 14.8725C38.4661 12.1452 34.0683 12.1452 31.371 14.8725L29.8464 16.4029C29.475 16.7757 28.8886 16.7757 28.5173 16.4029L27.0122 14.8921C24.2954 12.1648 19.8976 12.1648 17.2003 14.8921C14.4834 17.6194 14.4834 22.034 17.2003 24.7417L28.5173 36.102C28.8886 36.4748 29.475 36.4748 29.8464 36.102L41.2025 24.7024C43.8998 22.0144 43.8998 17.5997 41.1829 14.8725Z" fill="var(--fill-0, black)"/>
<path id="Vector_4" d="M41.1829 14.8725C38.4661 12.1452 34.0683 12.1452 31.371 14.8725L29.8464 16.4029C29.475 16.7757 28.8886 16.7757 28.5173 16.4029L27.0122 14.8921C24.2954 12.1648 19.8976 12.1648 17.2003 14.8921C14.4834 17.6194 14.4834 22.034 17.2003 24.7417L28.5173 36.102C28.8886 36.4748 29.475 36.4748 29.8464 36.102L41.2025 24.7024C43.8998 22.0144 43.8998 17.5997 41.1829 14.8725Z" fill="var(--fill-0, #E95769)"/>
<path id="Vector_5" d="M23.9827 24.2119C21.2658 21.4846 18.5685 18.4238 21.6176 15.363C22.9663 14.0092 24.3345 14.3427 26.6995 14.3427C21.9499 12.3022 19.7021 13.0674 17.8844 14.8921C15.1675 17.6194 15.1675 22.034 17.8844 24.7417L29.2014 36.102C29.5728 36.4748 29.8268 36.1217 30.1787 35.7685L33.4624 32.688L23.9827 24.2119Z" fill="var(--fill-0, #E53950)"/>
<path id="Vector_6" d="M46.988 0H32.0746H11.532C11.2584 0 10.9847 0.0196206 10.7111 0.0392413C10.6329 0.0392413 10.5743 0.0392414 10.4961 0.058862C10.2615 0.0784827 10.0074 0.0981033 9.75334 0.137345C9.67515 0.156965 9.59697 0.156965 9.51879 0.176586C9.34288 0.215827 9.16696 0.235448 8.99105 0.274689C8.89332 0.29431 8.7956 0.313931 8.69787 0.353172C8.48286 0.412034 8.2874 0.470896 8.0724 0.529758C7.95513 0.568999 7.81831 0.608241 7.70103 0.647482C7.58376 0.686723 7.46648 0.725965 7.36875 0.784827C7.1733 0.863309 6.95829 0.941792 6.76283 1.0399C6.66511 1.07914 6.56738 1.138 6.46965 1.17724C6.33283 1.2361 6.21555 1.31458 6.07873 1.37345C5.92237 1.45193 5.78555 1.55003 5.62918 1.62852C5.49236 1.707 5.35554 1.8051 5.21872 1.88358C5.12099 1.94245 5.04281 2.00131 4.94508 2.07979C4.84735 2.13865 4.76917 2.19751 4.67144 2.25638C4.65189 2.276 4.63235 2.276 4.63235 2.29562C3.63551 3.0412 2.7755 3.94375 2.07185 4.96403C2.05231 4.98365 2.03276 5.00327 2.01321 5.02289C1.93503 5.14061 1.85685 5.27796 1.77866 5.39568C1.73957 5.45455 1.70048 5.51341 1.68094 5.57227C1.60275 5.70961 1.52457 5.84696 1.44639 5.96468C1.4073 6.04317 1.3682 6.10203 1.32911 6.18051C1.21184 6.39634 1.11411 6.63179 0.996834 6.84761C0.957743 6.96534 0.918651 7.04382 0.87956 7.14192C0.820922 7.27927 0.781831 7.39699 0.723193 7.53434C0.684102 7.65206 0.625465 7.7894 0.586373 7.90713C0.527736 8.08371 0.469098 8.2603 0.430007 8.43689C0.390915 8.57423 0.351824 8.69196 0.332278 8.8293C0.293186 8.9274 0.273641 9.02551 0.254095 9.14323C0.215003 9.35906 0.156366 9.57489 0.13682 9.79071C0.117275 9.88882 0.0977288 9.9673 0.0977288 10.0458C0.0781831 10.2224 0.0586373 10.399 0.0390915 10.5755C0.0390915 10.6736 0.0195457 10.7521 0.0195457 10.8502C-1.89316e-08 11.0857 0 11.3211 0 11.5566C0 11.5762 0 11.5958 0 11.6154V34.9444C0 41.3407 5.17963 46.5402 11.5515 46.5402H16.2034V57.6063C16.2034 58.5873 16.7898 59.4506 17.7085 59.8234C18.0017 59.9411 18.2948 60 18.588 60C19.233 60 19.8585 59.7449 20.3081 59.2544L32.2114 46.5598H47.0076C53.3795 46.5598 58.5591 41.3604 58.5591 34.964V11.6154C58.5396 5.19948 53.3599 0 46.988 0ZM56.7805 34.9444C56.7805 40.3597 52.3827 44.7744 46.988 44.7744H32.016C31.6446 44.7744 31.3123 44.9313 31.0582 45.1864L19.0376 58.0183C18.7835 58.293 18.4707 58.2145 18.3535 58.1753C18.2362 58.136 17.9626 57.9791 17.9626 57.6063V46.0889C17.9626 45.363 17.3762 44.7744 16.653 44.7744H11.5711C6.17646 44.7744 1.77866 40.3597 1.77866 34.9444V11.6154C1.77866 11.4585 1.79821 11.2819 1.79821 11.1249C1.79821 10.9483 1.81776 10.7521 1.8373 10.5755C1.85685 10.4774 1.85685 10.3793 1.87639 10.3009C1.89594 10.1831 1.91549 10.0458 1.93503 9.92806C1.95458 9.84957 1.95458 9.79071 1.97412 9.71223C2.01321 9.47678 2.07185 9.24133 2.15003 9.00589C2.15003 8.96665 2.16958 8.94702 2.16958 8.90778C2.20867 8.77044 2.24776 8.63309 2.3064 8.49575C2.3064 8.47613 2.32595 8.45651 2.32595 8.43689C2.42367 8.1622 2.5214 7.88751 2.63868 7.63244C2.63868 7.63244 2.63868 7.61282 2.65822 7.61282C2.85368 7.20078 3.06869 6.78875 3.30323 6.41596C3.30323 6.39634 3.32278 6.39634 3.32278 6.37672C4.02643 5.25834 4.96463 4.29693 6.03964 3.55134C6.09828 3.5121 6.17646 3.45324 6.2351 3.414C6.35237 3.33551 6.4501 3.27665 6.56738 3.19817C6.62601 3.15893 6.7042 3.11969 6.76283 3.08044C6.93875 2.98234 7.13421 2.88424 7.31012 2.78613C7.3883 2.74689 7.44694 2.72727 7.52512 2.68803C7.70103 2.60955 7.87694 2.53107 8.05286 2.4722C8.15058 2.43296 8.22877 2.39372 8.3265 2.3741C8.42423 2.33486 8.5415 2.29562 8.65877 2.25638C8.81514 2.19751 8.99105 2.15827 9.14742 2.11903C9.24515 2.09941 9.32333 2.07979 9.42106 2.06017C9.57743 2.02093 9.71425 2.00131 9.87061 1.96207C9.9488 1.94245 10.0074 1.94245 10.0856 1.92283C10.3006 1.88358 10.5156 1.86396 10.7306 1.84434C10.7893 1.84434 10.8479 1.84434 10.9065 1.82472C11.1411 1.8051 11.3756 1.8051 11.5906 1.8051H32.0355H47.0271C52.4217 1.8051 56.8195 6.21975 56.8195 11.6351V34.9444H56.7805Z" fill="var(--fill-0, black)"/>
<path id="Vector_7" d="M38.0165 26.6645C37.6647 27.0176 37.6647 27.567 38.0165 27.9202C38.3683 28.2734 38.9156 28.2734 39.2674 27.9202L41.8866 25.291C44.9357 22.2302 44.9357 17.2466 41.8866 14.1857C38.8374 11.1249 33.8728 11.1249 30.8237 14.1857L29.2991 15.7161C29.2991 15.7161 29.2796 15.7358 29.26 15.7358C29.2405 15.7358 29.2209 15.7161 29.2209 15.7161L27.7159 14.2054C24.6668 11.1445 19.7021 11.1445 16.653 14.2054C13.6039 17.2662 13.6039 22.2498 16.653 25.3106L27.97 36.671C28.3218 37.0242 28.7714 37.2008 29.26 37.2008C29.7487 37.2008 30.1982 37.0046 30.55 36.671L39.8147 27.3708C40.1666 27.0176 40.1666 26.4683 39.8147 26.1151C39.4629 25.7619 38.9156 25.7619 38.5638 26.1151L29.2796 35.4153C29.2796 35.4153 29.26 35.4349 29.2405 35.4349C29.2209 35.4349 29.2014 35.4153 29.2014 35.4153L17.8844 24.0549C15.5193 21.6808 15.5193 17.8156 17.8844 15.4415C20.2494 13.0674 24.0999 13.0674 26.465 15.4415L27.97 16.9522C28.3218 17.3054 28.7714 17.482 29.26 17.482C29.7487 17.482 30.1982 17.2858 30.55 16.9522L32.0746 15.4218C34.4396 13.0477 38.2902 13.0477 40.6552 15.4218C43.0202 17.7959 43.0202 21.6612 40.6552 24.0353L38.0165 26.6645Z" fill="var(--fill-0, black)"/>
</g>
</svg>
