<svg xmlns="http://www.w3.org/2000/svg" fill="none" viewBox="0 0 80 80">
  <path fill="#fff" d="M0 12C0 5.373 5.373 0 12 0h56c6.627 0 12 5.373 12 12v56c0 6.627-5.373 12-12 12H12C5.373 80 0 74.627 0 68V12Z"/>
  <path fill="#F07C14" d="M27.68 13.12c-.8-.32-1.6-.64-2.4-.64-1.44 0-2.56.48-3.36 1.28a3.94 3.94 0 0 0-1.44 3.04v46.24c0 .8.16 1.6.64 2.24.48.64.96 1.12 1.76 1.6.8.32 1.6.64 2.4.64 1.28 0 2.4-.48 3.36-1.28a3.94 3.94 0 0 0 1.44-3.04V16.96c0-.8-.16-1.6-.64-2.24-.48-.64-.96-1.28-1.76-1.6ZM58.4 60 46.08 39.2l11.2-19.04c.64-1.12.96-2.4.8-3.52 0-1.28-.48-2.24-1.44-2.88-.8-.8-1.92-1.12-3.36-1.12-.96 0-1.76.32-2.56.64-.64.48-1.28 1.28-1.92 2.24L35.04 39.68l14.72 24.8c.64.96 1.12 1.76 1.92 2.24.8.48 1.44.8 2.4.8 1.28 0 2.4-.32 3.2-1.12.8-.8 1.28-1.76 1.44-2.88.16-1.12.48-2.4-.32-3.52Z"/>
</svg>
