<svg xmlns="http://www.w3.org/2000/svg" fill="none" viewBox="0 0 80 80">
  <path fill="#F8F4EC" d="M0 12C0 5.373 5.373 0 12 0h56c6.627 0 12 5.373 12 12v56c0 6.627-5.373 12-12 12H12C5.373 80 0 74.627 0 68V12Z"/>
  <path fill="#404040" d="M63.713 28.333c.687-3.07.129-6.18-1.536-8.54-1.46-2.068-3.635-3.386-6.125-3.713-2.635-.344-5.273.435-7.238 2.143-1.644 1.43-3.602 4.168-3.602 9.112v8.147c-.076.023-7.591 1.973-9.414 2.497V19.103h-6.323v21.009a39.02 39.02 0 0 0-2.166.949c-5.676 2.696-9.048 6.269-10.022 10.61-.687 3.07-.129 6.181 1.536 8.537 1.46 2.068 3.635 3.386 6.125 3.714.41.052.819.078 1.225.078a9.169 9.169 0 0 0 6.016-2.225c1.644-1.43 3.602-4.168 3.602-9.112v-8.137c.076-.023.156-.046.232-.072l.003.01c1.255-.367 7.482-1.964 9.176-2.445V60.78H63.28v-6.262H51.522V39.912c5.808-2.32 10.887-5.762 12.19-11.58Zm-12.184-.995c0-2.028.515-3.592 1.45-4.404a2.77 2.77 0 0 1 1.838-.67c.155 0 .294.01.406.026.733.095 1.328.464 1.774 1.093.65.922.848 2.23.544 3.589-.58 2.594-2.932 4.548-6.016 6.085v-5.719h.004ZM29.475 52.663c0 2.029-.515 3.592-1.45 4.404-.815.71-1.756.706-2.245.645-.733-.095-1.328-.465-1.773-1.093-.65-.923-.849-2.232-.545-3.59.571-2.542 2.939-4.499 6.016-6.043v5.677h-.003Z"/>
</svg>
