<svg xmlns="http://www.w3.org/2000/svg" fill="none" viewBox="0 0 80 80">
  <path fill="#fff" d="M0 12C0 5.373 5.373 0 12 0h56c6.627 0 12 5.373 12 12v56c0 6.627-5.373 12-12 12H12C5.373 80 0 74.627 0 68V12Z"/>
  <path fill="#FFEAB6" d="M46.055 47.343c-24.532-7.812-38.946-5.507-46.055 0V80h80V65.078c-6.133-5.938-9.414-9.922-33.945-17.735Z"/>
  <path fill="#343435" d="M57.438 67.664c0 2.395-3.516 4.336-7.852 4.336s-7.852-1.941-7.852-4.336v-3.828h15.703v3.828Zm12.734-19.647c0 1.466-2.344 2.655-5.234 2.655-2.891 0-5.235-1.189-5.235-2.655v-2.345h10.469v2.345Zm-31.875-6.875c0 1.466-2.344 2.655-5.234 2.655-2.891 0-5.235-1.189-5.235-2.655v-2.345h10.469v2.345Z"/>
  <ellipse cx="49.586" cy="63.836" fill="#DBBEFF" rx="7.852" ry="4.336"/>
  <path fill="#FECA47" d="M64.938 43.016c2.89 0 5.234 1.189 5.234 2.656s-2.344 2.656-5.234 2.656c-2.891 0-5.235-1.19-5.235-2.656 0-1.467 2.344-2.656 5.234-2.656ZM33.063 36.14c2.89 0 5.234 1.19 5.234 2.657s-2.344 2.656-5.234 2.656c-2.891 0-5.235-1.19-5.235-2.656 0-1.467 2.344-2.656 5.235-2.656Z"/>
  <path fill="#F07C14" d="M52.047 24.386c0 .48-.504.897-1.25 1.118v2.605l18.316 3.729a1.016 1.016 0 0 1-.405 1.991l-3.654-.744 5.118 12.587-.072.03-5.084-12.503v15.13h-.079V33.06l-.028-.004-5.128 12.616-.072-.03 5.123-12.602-14.035-2.857v15.18c.566.395.937 1.05.937 1.793V61.61a2.188 2.188 0 0 1-4.375 0V47.156c0-.743.372-1.398.938-1.794V29.674L33.299 26.62l4.998 12.176-.072.03-5.019-12.224-.065-.014v14.864h-.078v-14.88l-.06-.012-5.097 12.236-.072-.03 5.09-12.222-2.148-.437a1.016 1.016 0 1 1 .406-1.99L48.297 27.6v-2.12c-.703-.227-1.172-.631-1.172-1.094V23.25h4.922v1.136Z"/>
  <ellipse cx="49.586" cy="23.289" fill="#DBBEFF" rx="2.461" ry="1.289"/>
  <ellipse cx="69.156" cy="32.898" fill="#FECA47" rx=".977" ry=".781" transform="rotate(90 69.156 32.898)"/>
  <path fill="#F07C14" d="M9.92 8h12.16C23.136 8 24 8.864 24 9.92v12.16c0 1.056-.864 1.92-1.92 1.92H9.92A1.926 1.926 0 0 1 8 22.08V9.92C8 8.864 8.864 8 9.92 8Z"/>
  <path fill="#fff" d="M13.536 10.624c-.16-.064-.32-.128-.48-.128-.288 0-.512.096-.672.256a.788.788 0 0 0-.288.608v9.248c0 .16.032.32.128.448s.192.224.352.32c.16.064.32.128.48.128.256 0 .48-.096.672-.256a.788.788 0 0 0 .288-.608v-9.248c0-.16-.032-.32-.128-.448s-.192-.256-.352-.32ZM19.68 20l-2.464-4.16 2.24-3.808c.128-.224.192-.48.16-.704 0-.256-.096-.448-.288-.576-.16-.16-.384-.224-.672-.224-.192 0-.352.064-.512.128-.128.096-.256.256-.384.448l-2.752 4.832 2.944 4.96c.128.192.224.352.384.448.16.096.288.16.48.16.256 0 .48-.064.64-.224a.993.993 0 0 0 .288-.576c.032-.224.096-.48-.064-.704Z"/>
</svg>
