<svg xmlns="http://www.w3.org/2000/svg" fill="none" viewBox="0 0 80 80">
  <path fill="#fff" d="M0 12C0 5.373 5.373 0 12 0h56c6.627 0 12 5.373 12 12v56c0 6.627-5.373 12-12 12H12C5.373 80 0 74.627 0 68V12Z"/>
  <path fill="#fff" d="M57.91 10.96H22.473c-5.903 0-10.672 4.808-10.672 10.733v23.33c0 5.925 4.789 10.712 10.672 10.712h5.082c.235 0 .43.197.43.432v11.517c0 1.354 1.662 2.021 2.58 1.02l12.02-12.831a.388.388 0 0 1 .314-.138H57.87c5.902 0 10.672-4.807 10.672-10.713V21.693c.058-5.925-4.73-10.732-10.633-10.732Z"/>
  <path fill="#DAE4E9" d="M32.5 51.733c0-.255-.195-.47-.43-.47h-4.925c-5.708 0-10.34-5.063-10.34-11.283V15.415c0-1.06.137-2.08.371-3.041a10.728 10.728 0 0 0-5.375 9.32v23.329c0 5.925 4.789 10.713 10.672 10.713h5.082c.235 0 .43.196.43.431v11.518c0 1.353 1.662 2.02 2.58 1.02l1.896-2.04.04-14.932Z"/>
  <path fill="#000" d="M52.183 24.873c-2.717-2.728-7.115-2.728-9.812 0l-1.525 1.53a.93.93 0 0 1-1.329 0l-1.505-1.51c-2.717-2.728-7.114-2.728-9.812 0-2.717 2.726-2.717 7.141 0 9.849l11.317 11.36a.93.93 0 0 0 1.33 0l11.355-11.4c2.698-2.688 2.698-7.102-.02-9.83Z"/>
  <path fill="#E95769" d="M52.183 24.873c-2.717-2.728-7.115-2.728-9.812 0l-1.525 1.53a.93.93 0 0 1-1.329 0l-1.505-1.51c-2.717-2.728-7.114-2.728-9.812 0-2.717 2.726-2.717 7.141 0 9.849l11.317 11.36a.93.93 0 0 0 1.33 0l11.355-11.4c2.698-2.688 2.698-7.102-.02-9.83Z"/>
  <path fill="#E53950" d="M34.983 34.212c-2.717-2.727-5.415-5.788-2.365-8.85 1.348-1.353 2.716-1.02 5.081-1.02-4.75-2.04-6.997-1.275-8.815.55-2.716 2.727-2.716 7.142 0 9.85l11.317 11.36c.372.373.626.02.978-.334l3.283-3.08-9.48-8.476Z"/>
  <path fill="#000" d="M57.988 10H22.532c-.274 0-.547.02-.82.04-.08 0-.138 0-.216.019-.234.02-.489.04-.743.078-.078.02-.156.02-.234.04-.176.039-.352.058-.528.098-.098.02-.195.039-.293.078-.215.059-.41.118-.626.177-.117.039-.254.078-.371.118-.117.039-.235.078-.332.137-.196.078-.41.157-.606.255-.098.04-.196.098-.293.137-.137.06-.254.138-.391.196-.157.079-.294.177-.45.256-.137.078-.274.176-.41.255a2.362 2.362 0 0 0-.274.196c-.098.059-.176.117-.274.176-.02.02-.039.02-.039.04a11.424 11.424 0 0 0-2.56 2.668l-.059.059c-.078.118-.156.255-.234.373a.796.796 0 0 0-.098.176 6.866 6.866 0 0 1-.235.393c-.039.078-.078.137-.117.215-.117.216-.215.452-.332.668-.04.117-.078.196-.117.294-.06.137-.098.255-.157.392-.039.118-.098.255-.137.373a5.414 5.414 0 0 0-.156.53c-.04.137-.078.255-.098.392a1.519 1.519 0 0 0-.078.314c-.039.216-.098.432-.117.648-.02.098-.04.176-.04.255l-.058.53c0 .098-.02.176-.02.274-.019.236-.019.471-.019.707v23.388c0 6.396 5.18 11.595 11.552 11.595h4.651v11.066a2.38 2.38 0 0 0 1.506 2.217c.293.118.586.177.879.177.645 0 1.27-.255 1.72-.746L43.211 56.56h14.797c6.371 0 11.551-5.2 11.551-11.596V21.615C69.54 15.2 64.36 10 57.988 10Zm9.793 34.944c0 5.416-4.398 9.83-9.793 9.83H43.016c-.371 0-.704.157-.958.412l-12.02 12.832c-.255.275-.567.197-.684.157a.587.587 0 0 1-.391-.569V56.09c0-.726-.587-1.315-1.31-1.315h-5.082c-5.395 0-9.792-4.414-9.792-9.83v-23.33c0-.156.02-.333.02-.49 0-.177.019-.373.038-.55.02-.098.02-.196.04-.274.019-.118.038-.255.058-.373.02-.078.02-.137.04-.216.038-.235.097-.47.175-.706 0-.04.02-.059.02-.098.039-.138.078-.275.136-.412 0-.02.02-.04.02-.06.098-.274.195-.549.313-.804 0 0 0-.02.02-.02.195-.411.41-.823.644-1.196 0-.02.02-.02.02-.04a9.833 9.833 0 0 1 2.717-2.825c.058-.039.137-.098.195-.137.117-.079.215-.137.332-.216.059-.04.137-.078.196-.118.176-.098.371-.196.547-.294.078-.04.137-.059.215-.098.176-.079.352-.157.528-.216.098-.039.176-.078.273-.098.098-.04.215-.078.333-.118.156-.059.332-.098.488-.137.098-.02.176-.04.274-.059.156-.04.293-.059.45-.098.078-.02.136-.02.215-.04.215-.038.43-.058.645-.078.058 0 .117 0 .175-.02.235-.019.47-.019.685-.019h35.436c5.395 0 9.793 4.415 9.793 9.83v23.31h-.04Z"/>
  <path fill="#000" d="M49.017 36.664a.879.879 0 0 0 0 1.256.87.87 0 0 0 1.25 0l2.62-2.63c3.049-3.06 3.049-8.044 0-11.105a7.812 7.812 0 0 0-11.063 0l-1.525 1.53s-.02.02-.039.02c-.02 0-.039-.02-.039-.02l-1.505-1.51a7.812 7.812 0 0 0-11.063 0c-3.05 3.06-3.05 8.044 0 11.105L38.97 46.67c.352.354.801.53 1.29.53s.938-.196 1.29-.53l9.265-9.3a.88.88 0 0 0 0-1.255.871.871 0 0 0-1.251 0l-9.284 9.3s-.02.02-.04.02c-.019 0-.039-.02-.039-.02l-11.317-11.36c-2.365-2.375-2.365-6.24 0-8.614a6.059 6.059 0 0 1 8.581 0l1.505 1.51c.352.354.801.53 1.29.53s.938-.196 1.29-.53l1.525-1.53a6.059 6.059 0 0 1 8.58 0c2.365 2.375 2.365 6.24 0 8.614l-2.638 2.629Z"/>
</svg>
