<svg preserveAspectRatio="xMidYMid meet" width="100%" height="100%" overflow="visible" style="display: block;" viewBox="0 0 47 48" fill="none" xmlns="http://www.w3.org/2000/svg">
<path id="Logo" d="M46.7128 12.3329C47.3996 9.26385 46.8416 6.15225 45.1774 3.7932C43.7178 1.72536 41.5419 0.406775 39.0522 0.0795828C36.4172 -0.263968 33.7791 0.514748 31.8142 2.22269C30.17 3.65252 28.2119 6.39111 28.2119 11.335V19.482C28.1359 19.505 20.6207 21.4551 18.7981 21.9786V3.10283H12.4747V24.1117C11.7384 24.4095 11.0153 24.7236 10.3086 25.0606C4.63255 27.7567 1.26126 31.3296 0.287177 35.6715C-0.399631 38.7405 0.158401 41.8522 1.82259 44.2079C3.28206 46.2758 5.45805 47.5943 7.94773 47.9215C8.35717 47.9738 8.76661 48 9.17277 48C11.3851 48 13.528 47.2181 15.1889 45.7752C16.8334 44.3453 18.7915 41.6067 18.7915 36.6628V28.5256C18.8673 28.5026 18.9466 28.4798 19.0225 28.4536L19.0258 28.4634C20.2805 28.097 26.5081 26.5003 28.202 26.0193V44.7804H46.2803V38.518H34.522V23.9123C40.33 21.5924 45.4086 18.1504 46.7128 12.3329ZM34.5286 11.3382C34.5286 9.30966 35.0437 7.74569 35.9781 6.93424C36.6055 6.39111 37.3055 6.2635 37.8172 6.2635C37.9724 6.2635 38.1111 6.27333 38.2234 6.28968C38.9564 6.38457 39.5509 6.75429 39.9966 7.3825C40.6472 8.30517 40.8452 9.61394 40.5415 10.9718C39.9603 13.5664 37.6093 15.5198 34.5253 17.0575V11.3382H34.5286ZM12.4747 36.6628C12.4747 38.6915 11.9596 40.2554 11.0252 41.0668C10.2096 41.7768 9.26851 41.7735 8.77982 41.7115C8.04679 41.6166 7.45244 41.2469 7.00668 40.6186C6.35618 39.696 6.15806 38.3871 6.46185 37.0292C7.03309 34.4871 9.4006 32.5304 12.478 30.9862V36.6628H12.4747Z" fill="var(--fill-0, #404040)"/>
</svg>
