<svg xmlns="http://www.w3.org/2000/svg" fill="none" viewBox="0 0 80 80">
  <path fill="#fff" d="M0 12C0 5.373 5.373 0 12 0h56c6.627 0 12 5.373 12 12v56c0 6.627-5.373 12-12 12H12C5.373 80 0 74.627 0 68V12Z"/>
  <path fill="#97D5EF" d="M15.345 51.742A29.174 29.174 0 0 0 13.279 63H10V16h5.345v35.742Z"/>
  <path fill="#FACA67" d="M21.552 42.21a28.93 28.93 0 0 0-5.345 7.582V16h5.345v26.21Z"/>
  <path fill="#2E2855" d="M27.758 37.414a28.454 28.454 0 0 0-5.344 3.953V16h5.344v21.414Z"/>
  <path fill="#EF7F74" d="M41.638 33.732C57.347 33.732 70 46.688 70 62.57c0 .144-.001.288-.003.43h-4.829c.003-.142.004-.286.004-.43 0-13.309-10.581-24.016-23.534-24.016S18.104 49.26 18.104 62.569c0 .144.001.288.004.43h-4.829a30.818 30.818 0 0 1-.003-.43c0-15.88 12.653-28.837 28.362-28.837Z"/>
  <path fill="#F9CEC2" d="M41.638 39.414c12.655 0 22.845 10.405 22.845 23.156 0 .144-.002.287-.005.43H59.65c.003-.143.005-.286.005-.43 0-10.165-8.105-18.335-18.017-18.335-9.913 0-18.017 8.17-18.017 18.335 0 .144.001.287.005.43h-4.829a24.634 24.634 0 0 1-.004-.43c0-12.75 10.19-23.156 22.845-23.156Z"/>
  <path fill="#134C45" d="M41.638 45.268c9.57 0 17.328 7.746 17.328 17.302 0 .144-.002.287-.006.43h-4.83c.006-.143.008-.286.008-.43 0-6.894-5.596-12.482-12.5-12.482-6.903 0-12.5 5.588-12.5 12.482 0 .144.003.287.007.43h-4.83a17.597 17.597 0 0 1-.005-.43c0-9.556 7.758-17.302 17.328-17.302Z"/>
</svg>
