<svg preserveAspectRatio="xMidYMid meet" width="100%" height="100%" overflow="visible" style="display: block;" viewBox="0 0 60 47.0001" fill="none" xmlns="http://www.w3.org/2000/svg">
<g id="Logo">
<path id="Subtract" d="M5.34483 35.7419C4.01039 39.0879 3.27586 42.7438 3.27586 46.5696C3.27586 46.7133 3.27716 46.8568 3.27923 47H0V0H5.34483V35.7419Z" fill="var(--fill-0, #97D5EF)"/>
<path id="Subtract_2" d="M11.5517 26.2105C9.39049 28.4159 7.57881 30.9743 6.20691 33.7917V0H11.5517V26.2105Z" fill="var(--fill-0, #FACA67)"/>
<path id="Subtract_3" d="M17.7586 21.4137C15.8245 22.5194 14.032 23.8492 12.4138 25.3675V0H17.7586V21.4137Z" fill="var(--fill-0, #2E2855)"/>
<path id="Subtract_4" d="M31.6379 17.7326C47.3465 17.7326 60 30.6884 60 46.5696C60 46.7133 59.9987 46.8568 59.9966 47H55.1684C55.1708 46.8568 55.1724 46.7134 55.1724 46.5696C55.1724 33.2606 44.591 22.5531 31.6379 22.5531C18.6849 22.5531 8.10343 33.2606 8.10343 46.5696C8.10343 46.7134 8.10502 46.8568 8.10748 47H3.27922C3.27715 46.8568 3.27585 46.7133 3.27585 46.5696C3.27585 30.6884 15.9293 17.7326 31.6379 17.7326Z" fill="var(--fill-0, #EF7F74)"/>
<path id="Subtract_5" d="M31.6379 23.4139C44.2927 23.4139 54.4827 33.8193 54.4827 46.5696C54.4827 46.7134 54.4809 46.8569 54.4784 47H49.6501C49.6533 46.857 49.6552 46.7135 49.6552 46.5696C49.6552 36.4052 41.5506 28.2345 31.6379 28.2345C21.7252 28.2345 13.6207 36.4052 13.6207 46.5696C13.6207 46.7135 13.6225 46.857 13.6257 47H8.79747C8.79489 46.8569 8.79309 46.7134 8.79309 46.5696C8.79309 33.8193 18.9831 23.4139 31.6379 23.4139Z" fill="var(--fill-0, #F9CEC2)"/>
<path id="Subtract_6" d="M31.6379 29.2674C41.2077 29.2674 48.9655 37.0139 48.9655 46.5696C48.9655 46.7135 48.9636 46.857 48.9601 47H44.1305C44.1354 46.8571 44.1379 46.7136 44.1379 46.5696C44.1379 39.6761 38.5415 34.0879 31.6379 34.0879C24.7344 34.0879 19.1379 39.6761 19.1379 46.5696C19.1379 46.7136 19.1405 46.8571 19.1453 47H14.3157C14.3122 46.857 14.3103 46.7135 14.3103 46.5696C14.3103 37.0139 22.0682 29.2674 31.6379 29.2674Z" fill="var(--fill-0, #134C45)"/>
</g>
</svg>
