<svg xmlns="http://www.w3.org/2000/svg" fill="none" viewBox="0 0 80 80">
  <path fill="#fff" d="M0 12C0 5.373 5.373 0 12 0h56c6.627 0 12 5.373 12 12v56c0 6.627-5.373 12-12 12H12C5.373 80 0 74.627 0 68V12Z"/>
  <path fill="#274247" d="M69.233 33.387a29.822 29.822 0 0 1-3.418 21.958 29.962 29.962 0 0 1-17.668 13.538 30.045 30.045 0 0 1-22.155-2.363 29.913 29.913 0 0 1-14.396-16.96L37.12 34.895l3.94 14.713 28.173-16.22Z"/>
  <path fill="#274247" d="M31.854 11.117a30.044 30.044 0 0 1 22.154 2.364A29.912 29.912 0 0 1 68.404 30.44L42.933 45.107l-3.954-14.72-28.211 16.226a29.823 29.823 0 0 1 3.418-21.958 29.961 29.961 0 0 1 17.668-13.538Z"/>
</svg>
