<svg xmlns="http://www.w3.org/2000/svg" fill="none" viewBox="0 0 80 80">
  <path fill="#2E0A52" d="M0 12C0 5.373 5.373 0 12 0h56c6.627 0 12 5.373 12 12v56c0 6.627-5.373 12-12 12H12C5.373 80 0 74.627 0 68V12Z"/>
  <path fill="#FFB350" fill-opacity=".24" d="M52.636 48.821c.547-.071.97-.295 1.267-.67.295-.409.383-1.01.266-1.803-.35-2.076-1.008-3.876-1.975-5.4-.968-1.524-2.489-3.179-4.563-4.963-1.935-1.634-3.353-3.049-4.254-4.245-.9-1.196-1.427-2.491-1.579-3.886-.25-2.291.795-3.59 3.135-3.894 1.398-.182 2.5.029 3.305.631.802.57 1.259 1.368 1.37 2.398l.178 2.048c.061.564.313 1.037.755 1.417.408.35 1.023.473 1.843.366.942-.122 1.639-.516 2.09-1.181.418-.694.565-1.606.442-2.735-.181-1.66-.71-3.123-1.588-4.39-.912-1.296-2.173-2.26-3.783-2.892-1.61-.633-3.524-.804-5.742-.515-3.008.391-5.255 1.408-6.74 3.049-1.52 1.612-2.135 3.746-1.845 6.403.228 2.092.92 3.921 2.077 5.488 1.158 1.567 2.808 3.137 4.952 4.71 1.807 1.314 3.19 2.397 4.145 3.25.956.851 1.671 1.617 2.145 2.296.441.65.834 1.424 1.178 2.322.307.836.727 1.438 1.26 1.806.5.339 1.053.47 1.66.39Zm3.03 11.678c1.337-.174 2.311-.704 2.923-1.592.582-.884.802-1.974.661-3.269-.163-1.494-.673-2.64-1.53-3.437-.888-.794-2.031-1.1-3.429-.918-1.337.174-2.3.67-2.889 1.487-.623.788-.858 1.88-.706 3.274.166 1.528.695 2.705 1.587 3.532.888.794 2.015 1.102 3.383.923Z"/>
  <path fill="#FFB350" fill-opacity=".65" d="M56.425 47.692c-.6.026-1.09-.135-1.471-.483-.382-.385-.572-1.015-.571-1.892.049-2.302.474-4.365 1.276-6.19.801-1.823 2.179-3.892 4.132-6.205 1.826-2.124 3.13-3.916 3.912-5.374.781-1.458 1.144-2.953 1.088-4.484-.093-2.515-1.423-3.716-3.992-3.603-1.534.067-2.688.501-3.46 1.302-.774.764-1.14 1.711-1.098 2.841l.132 2.24c.023.62-.174 1.175-.59 1.668-.384.455-1.027.703-1.927.742-1.034.046-1.847-.247-2.438-.879-.56-.669-.862-1.623-.907-2.862-.068-1.823.272-3.499 1.017-5.028.778-1.568 1.984-2.844 3.618-3.829 1.635-.984 3.67-1.53 6.105-1.637 3.302-.145 5.883.527 7.742 2.015 1.89 1.45 2.89 3.634 2.997 6.55.084 2.296-.373 4.397-1.372 6.303-.999 1.906-2.53 3.908-4.59 6.007-1.74 1.756-3.057 3.182-3.953 4.28-.895 1.099-1.544 2.058-1.948 2.88-.373.782-.673 1.69-.903 2.722-.198.958-.556 1.686-1.072 2.183-.484.46-1.06.704-1.727.733Zm-1.42 13.151c-1.469.065-2.602-.324-3.402-1.165-.766-.843-1.175-1.975-1.227-3.396-.06-1.64.308-2.97 1.106-3.992.831-1.022 2.014-1.567 3.548-1.634 1.468-.065 2.584.288 3.347 1.058.795.731 1.221 1.863 1.278 3.394.061 1.676-.323 3.044-1.152 4.103-.832 1.022-1.998 1.566-3.499 1.632Z"/>
  <path fill="#fff" d="M23.242 22.327V35.71h-3.404v-5.372h-4.152v5.372H12.28V22.327h3.405v5.03h4.152v-5.03h3.404Zm13.866 0L32.886 35.71h-4.36l-4.238-13.382h3.648l2.779 9.662 2.762-9.662h3.63Zm8.808 11.2h-4.343l-.66 2.182h-3.578l4.464-13.382h3.926l4.447 13.382h-3.596l-.66-2.183Zm-.851-2.848-1.32-4.328-1.303 4.328h2.623Zm-29.38 9.157v2.182h3.91v2.829h-3.91v2.41h4.43v2.98h-7.834V36.855h7.835v2.98h-4.43ZM28 50.237l-2.433-4.935h-.364v4.935h-3.405V36.855h5.368c.984 0 1.818.19 2.501.57.683.367 1.199.88 1.546 1.537.348.646.521 1.373.521 2.183 0 .911-.231 1.715-.695 2.41-.451.684-1.117 1.172-1.997 1.463l2.762 5.22H28Zm-2.797-7.479h1.685c.463 0 .81-.12 1.042-.36.232-.24.348-.589.348-1.044 0-.43-.122-.765-.365-1.006-.232-.253-.574-.38-1.025-.38h-1.685v2.79Zm-10.782 8.3v9.517H12v-9.516h2.421Zm9.445 9.517h-2.42l-3.225-5.318v5.318H15.8v-9.516h2.421l3.224 5.385V51.06h2.421v9.516Zm9.446 0h-2.421l-3.224-5.318v5.318h-2.421v-9.516h2.42l3.225 5.385V51.06h2.421v9.516Zm6.889-1.553h-3.088l-.47 1.553h-2.545l3.175-9.516h2.792l3.162 9.516H40.67l-.47-1.553Zm-.605-2.024-.94-3.078-.926 3.078h1.866Zm10.325-5.94v2.106h-3.483v1.674h2.569v2.011h-2.57v3.726h-2.42v-9.516h5.904Zm14.888 9.517-1.73-3.51h-.26v3.51H60.4v-9.516h3.817c.7 0 1.293.135 1.778.405a2.6 2.6 0 0 1 1.1 1.093c.247.459.37.976.37 1.552 0 .648-.164 1.22-.494 1.715-.32.485-.794.832-1.42 1.039l1.964 3.712H64.81Zm-1.99-5.318h1.199c.33 0 .576-.086.741-.257.165-.17.247-.418.247-.742 0-.306-.086-.545-.26-.716-.164-.18-.407-.27-.728-.27H62.82v1.985Z"/>
</svg>
