<svg preserveAspectRatio="xMidYMid meet" width="100%" height="100%" overflow="visible" style="display: block;" viewBox="0 0 60.0004 60.0003" fill="none" xmlns="http://www.w3.org/2000/svg">
<g id="Logo">
<path d="M59.2326 23.3869C60.965 30.8721 59.7408 38.7356 55.8147 45.3449C51.8885 51.9541 45.5615 56.8023 38.1467 58.883C30.7319 60.9636 22.7982 60.1174 15.9924 56.5197C9.18669 52.9219 4.03148 46.8486 1.59592 39.5607L27.1203 24.8937L31.0608 39.6066L59.2326 23.3869Z" fill="var(--fill-0, #274247)"/>
<path d="M21.8537 1.11733C29.2685 -0.963323 37.2023 -0.11713 44.008 3.48061C50.8137 7.07838 55.969 13.1517 58.4045 20.4396L32.9328 35.1066L28.9787 20.3869L0.767799 36.6134C-0.964522 29.1282 0.259651 21.2647 4.18577 14.6554C8.1119 8.04615 14.4389 3.19802 21.8537 1.11733Z" fill="var(--fill-0, #274247)"/>
</g>
</svg>
