<svg preserveAspectRatio="xMidYMid meet" width="100%" height="100%" overflow="visible" style="display: block;" viewBox="0 0 60 46.85" fill="none" xmlns="http://www.w3.org/2000/svg">
<g id="Logo">
<path id="Vector" d="M40.6358 34.8213C41.1829 34.7501 41.6053 34.5266 41.9034 34.1511C42.198 33.7423 42.2865 33.1414 42.1694 32.3485C41.8196 30.2724 41.1612 28.4723 40.1937 26.9479C39.2262 25.4239 37.7052 23.7696 35.6308 21.9854C33.6961 20.3514 32.2781 18.9363 31.3773 17.7401C30.4765 16.544 29.9501 15.2487 29.798 13.8541C29.5482 11.5629 30.5931 10.2651 32.9331 9.96047C34.3309 9.77854 35.4324 9.98875 36.2378 10.5911C37.0396 11.1603 37.4965 11.9596 37.6088 12.9889L37.7857 15.037C37.8473 15.6015 38.0992 16.0738 38.5412 16.4541C38.9493 16.8051 39.5635 16.9272 40.3839 16.8204C41.3261 16.6978 42.0229 16.304 42.4741 15.639C42.8917 14.9448 43.0387 14.0333 42.9157 12.9043C42.7347 11.2441 42.2054 9.78069 41.3277 8.5142C40.4159 7.21848 39.1551 6.25443 37.5454 5.62207C35.9353 4.9897 34.0213 4.81791 31.803 5.10665C28.7947 5.49824 26.5477 6.51474 25.0625 8.15616C23.5432 9.76831 22.9283 11.9026 23.2179 14.559C23.446 16.6509 24.1385 18.4803 25.2954 20.0472C26.4526 21.6141 28.103 23.1841 30.2469 24.7573C32.0543 26.0712 33.436 27.1541 34.3918 28.0062C35.3475 28.8584 36.0629 29.6242 36.5375 30.3034C36.9783 30.9532 37.3707 31.7271 37.7154 32.6251C38.0222 33.4607 38.442 34.0628 38.9754 34.4313C39.4747 34.7702 40.028 34.9004 40.6358 34.8213ZM43.6656 46.4997C45.0028 46.3257 45.9772 45.7948 46.5893 44.9069C47.171 44.0229 47.3911 42.9336 47.25 41.6384C47.0871 40.1442 46.5771 38.9985 45.7195 38.2008C44.8318 37.4071 43.6889 37.1011 42.2911 37.283C40.9541 37.4571 39.9912 37.953 39.4021 38.7705C38.7793 39.5586 38.5438 40.6502 38.6959 42.0446C38.8624 43.5723 39.3914 44.7494 40.2829 45.5763C41.1707 46.3701 42.2982 46.6777 43.6656 46.4997Z" fill="var(--fill-0, #FFB350)" fill-opacity="0.24"/>
<path id="Vector_2" d="M44.425 33.692C43.8247 33.7183 43.3343 33.5574 42.9538 33.209C42.5721 32.8243 42.3819 32.1937 42.3831 31.3172C42.432 29.0151 42.8574 26.9518 43.659 25.1278C44.4606 23.3036 45.8379 21.2351 47.7908 18.9222C49.6171 16.7975 50.9211 15.006 51.7027 13.5478C52.4844 12.0897 52.8472 10.5951 52.7909 9.06418C52.6984 6.54911 51.3678 5.34797 48.7992 5.46079C47.2649 5.52817 46.1115 5.96217 45.3388 6.76281C44.5651 7.52696 44.199 8.47403 44.2407 9.60401L44.3731 11.8435C44.3959 12.4631 44.1993 13.0194 43.783 13.5123C43.3987 13.9673 42.7564 14.2146 41.8557 14.2542C40.8217 14.2996 40.0089 14.0067 39.4178 13.3755C38.8586 12.7064 38.5561 11.7521 38.5106 10.5128C38.4436 8.6903 38.7829 7.01423 39.5285 5.48462C40.306 3.91706 41.512 2.64104 43.1464 1.65651C44.7807 0.672008 46.8156 0.126281 49.2508 0.0193205C52.5531 -0.125723 55.1337 0.545892 56.9928 2.03413C58.8836 3.48448 59.8828 5.66767 59.9901 8.58369C60.0745 10.8801 59.6174 12.9812 58.6182 14.8871C57.6192 16.7929 56.089 18.7951 54.0279 20.8936C52.2883 22.6495 50.9707 24.0764 50.0756 25.1745C49.1804 26.2726 48.531 27.232 48.1268 28.0532C47.7545 28.836 47.4538 29.7437 47.2245 30.7761C47.0258 31.7341 46.6684 32.4616 46.1522 32.9589C45.6679 33.4185 45.0921 33.6627 44.425 33.692ZM43.0042 46.8431C41.5366 46.9076 40.4029 46.5192 39.6036 45.678C38.8376 44.8354 38.4283 43.7033 38.3761 42.2818C38.3158 40.6415 38.6845 39.3111 39.4822 38.2902C40.3134 37.2679 41.4962 36.7231 43.0305 36.6558C44.4981 36.5912 45.6139 36.9438 46.3771 37.7135C47.1726 38.4452 47.5983 39.5768 47.6548 41.1075C47.7164 42.7844 47.3324 44.152 46.5027 45.2109C45.6715 46.2329 44.5053 46.7771 43.0042 46.8431Z" fill="var(--fill-0, #FFB350)" fill-opacity="0.65"/>
<path id="Vector_3" d="M11.2423 8.3269V21.7092H7.83756V16.3373H3.68581V21.7092H0.28103V8.3269H3.68581V13.3571H7.83756V8.3269H11.2423ZM25.1075 8.3269L20.8863 21.7092H16.5261L12.2875 8.3269H15.9355L18.7149 17.9887L21.4769 8.3269H25.1075ZM33.916 19.5262H29.5733L28.9131 21.7092H25.3346L29.799 8.3269H33.725L38.1721 21.7092H34.5762L33.916 19.5262ZM33.0648 16.6789L31.7448 12.3511L30.4418 16.6789H33.0648ZM3.68581 25.8353V28.0182H7.59436V30.8464H3.68581V33.2572H8.11551V36.2372H0.28103V22.855H8.11551V25.8353H3.68581ZM15.9995 36.2372L13.5675 31.3021H13.2027V36.2372H9.79795V22.855H15.1657C16.1501 22.855 16.9839 23.0448 17.6672 23.4245C18.3504 23.7915 18.8658 24.304 19.2132 24.962C19.5607 25.6073 19.7344 26.3352 19.7344 27.1448C19.7344 28.0562 19.5027 28.8597 19.0395 29.5556C18.5879 30.239 17.9219 30.7263 17.0418 31.0174L19.8039 36.2372H15.9995ZM13.2027 28.7583H14.8877C15.351 28.7583 15.6984 28.6381 15.93 28.3979C16.1617 28.1573 16.2775 27.8092 16.2775 27.3538C16.2775 26.9235 16.1559 26.5883 15.9127 26.3477C15.6811 26.0946 15.3394 25.968 14.8877 25.968H13.2027V28.7583ZM2.42118 37.0583V46.5745H0V37.0583H2.42118ZM11.8665 46.5745H9.44529L6.22117 41.2564V46.5745H3.79999V37.0583H6.22117L9.44529 42.444V37.0583H11.8665V46.5745ZM21.3122 46.5745H18.891L15.6668 41.2564V46.5745H13.2457V37.0583H15.6668L18.891 42.444V37.0583H21.3122V46.5745ZM28.2008 45.0222H25.1126L24.6431 46.5745H22.0984L25.2732 37.0583H28.065L31.2273 46.5745H28.6702L28.2008 45.0222ZM27.5956 42.9975L26.6567 39.9201L25.7301 42.9975H27.5956ZM37.921 37.0583V39.164H34.4376V40.8379H37.0069V42.8492H34.4376V46.5745H32.0163V37.0583H37.921ZM52.8086 46.5745L51.0791 43.0651H50.8196V46.5745H48.3986V37.0583H52.2156C52.9157 37.0583 53.5086 37.1932 53.9944 37.4634C54.4802 37.7244 54.8469 38.0887 55.0938 38.5567C55.3408 39.0157 55.4643 39.5331 55.4643 40.1089C55.4643 40.7568 55.2997 41.3282 54.9703 41.8232C54.6492 42.3091 54.1757 42.6555 53.5498 42.8626L55.5139 46.5745H52.8086ZM50.8196 41.2564H52.018C52.3473 41.2564 52.5943 41.1709 52.7592 40.9999C52.9239 40.8289 53.0062 40.5814 53.0062 40.2576C53.0062 39.9514 52.9198 39.713 52.7467 39.5421C52.582 39.3621 52.3391 39.2722 52.018 39.2722H50.8196V41.2564Z" fill="var(--fill-0, white)"/>
</g>
</svg>
