<svg xmlns="http://www.w3.org/2000/svg" fill="none" viewBox="0 0 80 80">
  <path fill="#fff" d="M0 12C0 5.373 5.373 0 12 0h56c6.627 0 12 5.373 12 12v56c0 6.627-5.373 12-12 12H12C5.373 80 0 74.627 0 68V12Z"/>
  <path fill="#000" fill-rule="evenodd" d="M48.284 32.213c3.679 0 6.123 2.67 6.123 6 0 0 0 .589-.049 1.128h-9c.075 1.408 1.296 2.314 3.16 2.314 1.223 0 2.075-.38 2.902-1.151l2.049 1.947c-1.58 1.617-3.309 2.156-5.123 2.156-3.877 0-6.519-2.413-6.519-6.11v-.1h.013c0-3.771 2.74-6.184 6.444-6.184Zm0 2.878c-1.53 0-2.79.87-2.877 1.971h5.457c0-1.077-1.16-1.971-2.58-1.971Zm-22.815-2.792c1.814 0 3.21.722 3.544 1.75v-1.542h3.518v11.806h-3.518V42.77c-.334 1.005-1.73 1.753-3.544 1.753-3.383 0-5.902-2.695-5.902-6.112 0-3.392 2.532-6.111 5.902-6.111Zm.642 3.172c-1.703 0-3.025 1.286-3.025 2.95 0 1.666 1.322 2.953 3.025 2.953 1.729 0 3.123-1.287 3.123-2.952s-1.395-2.951-3.123-2.951Zm42.655-3.172c1.814 0 3.21.722 3.543 1.75v-1.542h3.518v11.806H72.31V42.77c-.334 1.005-1.729 1.752-3.543 1.753-3.383 0-5.902-2.695-5.902-6.112 0-3.392 2.531-6.111 5.902-6.111Zm.641 3.172c-1.703 0-3.024 1.286-3.024 2.95 0 1.666 1.32 2.953 3.024 2.953 1.729 0 3.124-1.287 3.124-2.952s-1.396-2.951-3.124-2.951Z" clip-rule="evenodd"/>
  <path fill="#000" d="M40.716 32.262c.333 0 .728.048.926.073v3.282a5.506 5.506 0 0 0-1.185-.122c-2.012 0-3.185 1.152-3.185 3.074l.024 5.769h-3.543V32.519h3.543v1.617c.543-1.2 1.79-1.874 3.42-1.874Zm19.185.258h2.618v3.159H59.9v8.646h-3.42V35.68H54.9v-3.16h1.58V28h3.42v4.52Z"/>
  <path fill="#FF893D" fill-rule="evenodd" d="M16.123 47.154c.765 0 1.383.613 1.383 1.433 0 .833-.617 1.445-1.383 1.445-.543 0-.839-.256-.975-.489V51h-.407v-3.76h.407v.404c.136-.232.432-.49.975-.49Zm-.012.38c-.592 0-1.025.453-1.025 1.066 0 .612.445 1.065 1.025 1.065.568 0 .988-.453.988-1.065 0-.613-.42-1.066-.988-1.066Zm10.012-.244-.209.269c.271.257.456.625.456 1.053 0 .833-.654 1.444-1.456 1.445-.26 0-.494-.061-.704-.171l-.223.305-.283-.22.21-.306a1.404 1.404 0 0 1-.457-1.065c0-.833.655-1.433 1.457-1.433.26 0 .506.061.716.184l.197-.27.296.208Zm-1.691 2.277c.135.062.297.098.482.098.605 0 1.049-.453 1.049-1.065a1.06 1.06 0 0 0-.272-.736l-1.26 1.703Zm.47-2.033c-.606 0-1.05.453-1.05 1.066 0 .294.11.563.284.747l1.26-1.703a1.05 1.05 0 0 0-.495-.11Zm29.728-.244-.21.269c.271.257.457.625.457 1.053 0 .833-.655 1.444-1.457 1.445-.26 0-.494-.061-.704-.171l-.222.305-.284-.22.21-.306a1.405 1.405 0 0 1-.457-1.065c0-.833.654-1.433 1.457-1.433.26 0 .506.061.716.184l.197-.27.297.208Zm-1.692 2.277c.148.062.31.098.482.098.605 0 1.049-.453 1.049-1.065a1.06 1.06 0 0 0-.272-.736l-1.259 1.703Zm.482-2.033c-.605 0-1.05.453-1.05 1.066 0 .294.111.563.284.747l1.26-1.703a1.048 1.048 0 0 0-.494-.11Zm-33.951-.367c.543 0 .84.257.975.49v-.405h.408v2.72h-.408v-.405c-.136.233-.432.49-.975.49-.766 0-1.383-.613-1.383-1.446-.012-.844.618-1.444 1.383-1.444Zm0 .367c-.568 0-.988.453-.988 1.066 0 .612.42 1.065.988 1.065.592 0 1.025-.453 1.025-1.065 0-.613-.433-1.066-1.025-1.066Zm18.444 2.438h-.407v-.405c-.136.233-.432.49-.975.49-.765 0-1.382-.612-1.383-1.445 0-.845.618-1.445 1.383-1.445.543 0 .839.257.975.49v-1.445h.407v3.76Zm-1.382-2.438c-.568 0-.988.453-.988 1.066 0 .612.42 1.065.988 1.065.593 0 1.025-.453 1.025-1.065 0-.613-.432-1.066-1.025-1.066Zm25.802-.367c.543 0 .84.257.976.49v-.405h.407v2.72h-.407v-.405c-.136.233-.433.49-.976.49-.765 0-1.383-.612-1.383-1.445 0-.845.618-1.445 1.383-1.445Zm0 .367c-.568 0-.987.453-.987 1.066 0 .612.42 1.065.987 1.065.593 0 1.025-.453 1.025-1.065 0-.613-.432-1.066-1.025-1.066Zm-18.42.111c.136-.233.433-.49.976-.49.765 0 1.382.612 1.383 1.432 0 .833-.618 1.445-1.383 1.445-.543 0-.84-.256-.976-.489v.403h-.407V46.2h.407v1.446Zm.976-.11c-.593 0-1.025.452-1.025 1.065 0 .612.432 1.065 1.025 1.065.568 0 .988-.453.988-1.065 0-.613-.42-1.066-.988-1.066Z" clip-rule="evenodd"/>
  <path fill="#FF893D" d="M71.469 48.87c0 .513.297.783.741.783.457 0 .753-.27.753-.784v-1.617h.407v1.629c0 .76-.494 1.151-1.173 1.151-.642 0-1.136-.38-1.136-1.114V47.24h.408v1.63Z"/>
  <path fill="#FF893D" fill-rule="evenodd" d="M30.234 47.167c.766 0 1.26.6 1.26 1.347v.171h-2.223c.025.6.408.98.976.98.395 0 .617-.135.839-.38l.272.258c-.345.38-.716.477-1.11.477-.816 0-1.384-.55-1.384-1.396v-.012c0-.881.593-1.445 1.37-1.445Zm0 .367c-.493 0-.913.356-.938.809h1.765a.822.822 0 0 0-.827-.809Zm9.742-.367c.765 0 1.258.6 1.258 1.347v.171h-2.221c.025.6.407.98.974.98.395 0 .618-.135.84-.38l.272.258c-.346.38-.717.477-1.112.477-.814 0-1.383-.551-1.383-1.396v-.012c0-.882.594-1.445 1.372-1.445Zm0 .367c-.494 0-.914.356-.939.809h1.766a.822.822 0 0 0-.827-.809Zm8.247-.367c.765 0 1.258.6 1.258 1.347v.171H47.26c.025.6.408.98.975.98.395 0 .618-.135.84-.38l.272.258c-.346.38-.717.477-1.112.477-.814 0-1.382-.551-1.382-1.396v-.012c0-.882.593-1.445 1.37-1.445Zm0 .367c-.494 0-.914.356-.939.809h1.766a.822.822 0 0 0-.827-.809Z" clip-rule="evenodd"/>
  <path fill="#FF893D" d="M75.013 47.154a.92.92 0 0 1 .814.478l-.308.196a.551.551 0 0 0-.495-.306c-.296 0-.456.172-.456.368 0 .257.235.342.568.465.58.208.864.416.864.894 0 .453-.333.771-.987.771-.494 0-.902-.22-1.05-.673l.321-.135c.111.27.358.44.703.44.432 0 .593-.183.593-.403 0-.282-.234-.405-.654-.552-.444-.159-.766-.355-.766-.783 0-.453.347-.76.853-.76Zm-41.556.037c.63 0 1.012.417 1.012 1.029v1.739h-.395v-1.653c0-.453-.271-.735-.716-.735-.456 0-.778.306-.778.76v1.615h-.407V47.24h.407v.453c.136-.294.457-.502.877-.502Zm24.889.061h.604v.368h-.604v2.339h-.407V47.62h-.346v-.368h.345v-1.04h.408v1.04Zm7.271 2.07.889-2.082h.42l-1.173 2.719h-.272l-1.185-2.719h.42l.901 2.082Zm-42.716-2.131c.062 0 .136 0 .173.012v.429a1.472 1.472 0 0 0-.271-.025c-.42 0-.742.307-.742.76v1.58h-.407V47.24h.407v.453c.136-.294.433-.502.84-.502Zm5.408 0c.061 0 .135 0 .172.012v.429a1.471 1.471 0 0 0-.271-.025c-.42 0-.741.307-.741.76v1.58h-.408V47.24h.408v.453c.136-.294.432-.502.84-.502Zm23.098 0c.062 0 .136 0 .173.012v.429a1.473 1.473 0 0 0-.271-.025c-.42 0-.74.307-.74.76v1.58h-.409V47.24h.408v.453c.136-.293.432-.502.84-.502Zm5.42 0c.062 0 .136 0 .173.012v.429a1.472 1.472 0 0 0-.272-.025c-.42 0-.74.307-.74.76v1.58h-.408V47.24h.407v.453c.136-.294.433-.502.84-.502Zm13.359 0c.061 0 .135 0 .172.012v.429a1.481 1.481 0 0 0-.271-.025c-.42 0-.741.307-.741.76v1.58h-.407V47.24h.407v.453c.135-.294.432-.502.84-.502Zm-56.457 1.531H11.69v-.367h2.037v.367Z"/>
  <path fill="#FF893D" fill-rule="evenodd" d="M19.543 45.905c.284 0 .531.233.531.527a.525.525 0 0 1-.531.526.524.524 0 0 1-.53-.526c0-.282.234-.527.53-.527Zm0 .282c-.136 0-.259.11-.259.245a.27.27 0 0 0 .259.258c.136 0 .247-.124.247-.258a.247.247 0 0 0-.247-.245Z" clip-rule="evenodd"/>
  <path fill="#FF893D" d="m10.086 33.022 3.235 6.405 3.222-6.405 3.704.011-5.321 11.794-3.259-.012-3.877-8.659v8.671H4.271V33.01H7.79l2.296.013Zm-4.073-4.985c1.11 0 2.011.87 2.011 1.996 0 1.102-.9 1.972-2.011 1.972-1.087 0-2.013-.87-2.013-1.972 0-1.127.926-1.996 2.013-1.996Z"/>
</svg>
