<svg preserveAspectRatio="xMidYMid meet" width="100%" height="100%" overflow="visible" style="display: block;" viewBox="0 0 72 23" fill="none" xmlns="http://www.w3.org/2000/svg">
<g id="Logo">
<g id="Union">
<path fill-rule="evenodd" clip-rule="evenodd" d="M44.2842 4.21289C47.963 4.21301 50.4071 6.88283 50.4072 10.2139C50.4072 10.2139 50.4078 10.802 50.3584 11.3408H41.3584C41.4325 12.7492 42.6544 13.6553 44.5186 13.6553C45.7408 13.6553 46.5928 13.2755 47.4199 12.5039L49.4688 14.4512C47.8885 16.0678 46.1605 16.6074 44.3457 16.6074C40.4693 16.6074 37.8273 14.1945 37.8271 10.4961V10.3975H37.8398C37.84 6.62555 40.5806 4.21289 44.2842 4.21289ZM44.2842 7.09082C42.7535 7.09082 41.4939 7.96042 41.4072 9.0625H46.8643C46.864 7.98498 45.7037 7.09092 44.2842 7.09082Z" fill="var(--fill-0, black)"/>
<path fill-rule="evenodd" clip-rule="evenodd" d="M21.4688 4.29883C23.2835 4.29883 24.6793 5.0211 25.0127 6.0498V4.50684H28.5312V16.3135H25.0127V14.7695C24.6794 15.7738 23.2836 16.5215 21.4688 16.5215C18.0863 16.5213 15.5675 13.8269 15.5674 10.4102C15.5674 7.01784 18.0986 4.29902 21.4688 4.29883ZM22.1113 7.4707C20.4077 7.4707 19.0861 8.75645 19.0859 10.4219C19.0859 12.0875 20.4076 13.374 22.1113 13.374C23.8396 13.3739 25.2344 12.0874 25.2344 10.4219C25.2342 8.75653 23.8395 7.47083 22.1113 7.4707Z" fill="var(--fill-0, black)"/>
<path fill-rule="evenodd" clip-rule="evenodd" d="M64.7656 4.29883C66.5802 4.29888 67.9751 5.02121 68.3086 6.0498V4.50684H71.8271V16.3135H68.3086V14.7695C67.9753 15.7738 66.5803 16.5214 64.7656 16.5215C61.383 16.5215 58.8643 13.827 58.8643 10.4102C58.8643 7.01772 61.3953 4.29883 64.7656 4.29883ZM65.4072 7.4707C63.7037 7.47079 62.383 8.75651 62.3828 10.4219C62.3828 12.0874 63.7036 13.3739 65.4072 13.374C67.1356 13.374 68.5312 12.0875 68.5312 10.4219C68.531 8.75645 67.1355 7.4707 65.4072 7.4707Z" fill="var(--fill-0, black)"/>
<path d="M36.7158 4.26172C37.0489 4.26172 37.4439 4.31045 37.6416 4.33496V7.61719C37.3084 7.54378 36.9135 7.49513 36.457 7.49512C34.4447 7.49512 33.2715 8.64655 33.2715 10.5693L33.2959 16.3379H29.7529V4.51953H33.2959V6.13574C33.8391 4.93559 35.0863 4.26179 36.7158 4.26172Z" fill="var(--fill-0, black)"/>
<path d="M55.9014 4.51953H58.5186V7.67871H55.9014V16.3252H52.4814V7.67871H50.9014V4.51953H52.4814V0H55.9014V4.51953Z" fill="var(--fill-0, black)"/>
</g>
<g id="Union_2">
<path fill-rule="evenodd" clip-rule="evenodd" d="M12.123 19.1543C12.8884 19.1543 13.5057 19.7666 13.5059 20.5869C13.5059 21.4197 12.8885 22.0322 12.123 22.0322C11.5804 22.0321 11.2843 21.7755 11.1484 21.543V23H10.7412V19.2402H11.1484V19.6445C11.2842 19.4119 11.5801 19.1544 12.123 19.1543ZM12.1113 19.5342C11.5187 19.5342 11.0859 19.9873 11.0859 20.5996C11.086 21.2119 11.5311 21.665 12.1113 21.665C12.6791 21.6649 13.0986 21.2119 13.0986 20.5996C13.0986 19.9873 12.6791 19.5343 12.1113 19.5342Z" fill="var(--fill-0, #FF893D)"/>
<path fill-rule="evenodd" clip-rule="evenodd" d="M22.123 19.2891L21.9141 19.5586C22.1855 19.8158 22.3701 20.1838 22.3701 20.6123C22.3699 21.4447 21.7162 22.0564 20.9141 22.0566C20.6549 22.0566 20.4198 21.9959 20.21 21.8857L19.9873 22.1914L19.7041 21.9717L19.9141 21.665C19.6301 21.4079 19.457 21.0405 19.457 20.5996C19.457 19.7668 20.1116 19.167 20.9141 19.167C21.1731 19.1671 21.4201 19.2282 21.6299 19.3506L21.8271 19.0811L22.123 19.2891ZM20.4316 21.5674C20.5674 21.6286 20.7289 21.665 20.9141 21.665C21.5187 21.6648 21.9629 21.2118 21.9629 20.5996C21.9629 20.3057 21.8642 20.048 21.6914 19.8643L20.4316 21.5674ZM20.9014 19.5342C20.2964 19.5342 19.8516 19.9873 19.8516 20.5996C19.8516 20.8935 19.9629 21.163 20.1357 21.3467L21.3955 19.6445C21.2597 19.5711 21.0865 19.5342 20.9014 19.5342Z" fill="var(--fill-0, #FF893D)"/>
<path fill-rule="evenodd" clip-rule="evenodd" d="M50.6299 19.2891L50.4199 19.5586C50.6915 19.8158 50.877 20.1837 50.877 20.6123C50.8767 21.4448 50.2222 22.0565 49.4199 22.0566C49.1607 22.0566 48.9257 21.996 48.7158 21.8857L48.4941 22.1914L48.21 21.9717L48.4199 21.665C48.136 21.4079 47.9629 21.0405 47.9629 20.5996C47.9629 19.7668 48.6175 19.167 49.4199 19.167C49.6791 19.167 49.9259 19.2281 50.1357 19.3506L50.333 19.0811L50.6299 19.2891ZM48.9385 21.5674C49.0865 21.6285 49.2472 21.665 49.4199 21.665C50.0248 21.6649 50.4687 21.2119 50.4688 20.5996C50.4688 20.3057 50.3701 20.048 50.1973 19.8643L48.9385 21.5674ZM49.4199 19.5342C48.815 19.5342 48.3701 19.9873 48.3701 20.5996C48.3701 20.8935 48.4815 21.163 48.6543 21.3467L49.9131 19.6445C49.7774 19.5712 49.6049 19.5342 49.4199 19.5342Z" fill="var(--fill-0, #FF893D)"/>
<path fill-rule="evenodd" clip-rule="evenodd" d="M15.4688 19.167C16.0118 19.167 16.3085 19.4236 16.4443 19.6562V19.252H16.8516V21.9717H16.4443V21.5674C16.3085 21.8 16.0118 22.0566 15.4688 22.0566C14.7035 22.0564 14.0859 21.444 14.0859 20.6113C14.0738 19.7667 14.7036 19.1672 15.4688 19.167ZM15.4688 19.5342C14.901 19.5344 14.4814 19.9874 14.4814 20.5996C14.4815 21.2118 14.9011 21.6648 15.4688 21.665C16.0613 21.665 16.4941 21.2119 16.4941 20.5996C16.4941 19.9873 16.0613 19.5342 15.4688 19.5342Z" fill="var(--fill-0, #FF893D)"/>
<path fill-rule="evenodd" clip-rule="evenodd" d="M33.9131 21.9717H33.5059V21.5674C33.37 21.7999 33.074 22.0565 32.5312 22.0566C31.766 22.0566 31.1487 21.4449 31.1484 20.6123C31.1484 19.7673 31.7658 19.167 32.5312 19.167C33.0739 19.1671 33.37 19.4237 33.5059 19.6562V18.2119H33.9131V21.9717ZM32.5312 19.5342C31.9633 19.5342 31.543 19.9873 31.543 20.5996C31.543 21.212 31.9634 21.665 32.5312 21.665C33.1236 21.6648 33.5557 21.2118 33.5557 20.5996C33.5557 19.9874 33.1236 19.5344 32.5312 19.5342Z" fill="var(--fill-0, #FF893D)"/>
<path fill-rule="evenodd" clip-rule="evenodd" d="M58.333 19.167C58.876 19.167 59.1727 19.4236 59.3086 19.6562V19.252H59.7158V21.9717H59.3086V21.5674C59.1727 21.8 58.876 22.0566 58.333 22.0566C57.5679 22.0565 56.9504 21.4447 56.9502 20.6123C56.9502 19.7674 57.5677 19.1672 58.333 19.167ZM58.333 19.5342C57.7653 19.5344 57.3457 19.9874 57.3457 20.5996C57.3457 21.2118 57.7653 21.6649 58.333 21.665C58.9256 21.665 59.3584 21.212 59.3584 20.5996C59.3584 19.9873 58.9256 19.5342 58.333 19.5342Z" fill="var(--fill-0, #FF893D)"/>
<path fill-rule="evenodd" clip-rule="evenodd" d="M39.9131 19.6445C40.0489 19.4119 40.3456 19.1544 40.8887 19.1543C41.654 19.1543 42.2713 19.7666 42.2715 20.5869C42.2715 21.4197 41.6541 22.0322 40.8887 22.0322C40.3456 22.0322 40.0489 21.7756 39.9131 21.543V21.9463H39.5059V18.1992H39.9131V19.6445ZM40.8887 19.5342C40.2962 19.5343 39.8643 19.9873 39.8643 20.5996C39.8643 21.2119 40.2962 21.6649 40.8887 21.665C41.4566 21.665 41.8769 21.2119 41.877 20.5996C41.877 19.9873 41.4566 19.5342 40.8887 19.5342Z" fill="var(--fill-0, #FF893D)"/>
<path d="M67.4688 20.8691C67.4688 21.3834 67.7655 21.6533 68.21 21.6533C68.6667 21.6533 68.9628 21.3834 68.9629 20.8691V19.252H69.3701V20.8809C69.3701 21.6402 68.8763 22.0322 68.1973 22.0322C67.5554 22.0321 67.0615 21.6527 67.0615 20.918V19.2402H67.4688V20.8691Z" fill="var(--fill-0, #FF893D)"/>
<path fill-rule="evenodd" clip-rule="evenodd" d="M26.2344 19.167C26.9997 19.167 27.4941 19.7667 27.4941 20.5137C27.4941 20.5137 27.4941 20.5998 27.4941 20.6855H25.2715C25.2963 21.2855 25.6792 21.665 26.2471 21.665C26.642 21.665 26.8638 21.53 27.0859 21.2852L27.3584 21.543C27.0128 21.9226 26.6421 22.0205 26.2471 22.0205C25.4323 22.0205 24.8643 21.4691 24.8643 20.624V20.6123C24.8643 19.7306 25.4567 19.1671 26.2344 19.167ZM26.2344 19.5342C25.7406 19.5343 25.3206 19.8897 25.2959 20.3428H27.0615C27.0615 19.9019 26.6912 19.5342 26.2344 19.5342Z" fill="var(--fill-0, #FF893D)"/>
<path fill-rule="evenodd" clip-rule="evenodd" d="M35.9756 19.167C36.7408 19.1671 37.2343 19.7668 37.2344 20.5137C37.2344 20.5137 37.2344 20.5998 37.2344 20.6855H35.0127C35.0375 21.2854 35.4197 21.6649 35.9873 21.665C36.3824 21.665 36.6049 21.5301 36.8271 21.2852L37.0986 21.543C36.753 21.9224 36.3823 22.0205 35.9873 22.0205C35.1727 22.0204 34.6045 21.469 34.6045 20.624V20.6123C34.6045 19.7305 35.1978 19.167 35.9756 19.167ZM35.9756 19.5342C35.4818 19.5342 35.0618 19.8896 35.0371 20.3428H36.8027C36.8027 19.902 36.4322 19.5343 35.9756 19.5342Z" fill="var(--fill-0, #FF893D)"/>
<path fill-rule="evenodd" clip-rule="evenodd" d="M44.2227 19.167C44.9878 19.1672 45.4814 19.7668 45.4814 20.5137C45.4814 20.5137 45.4814 20.5998 45.4814 20.6855H43.2588C43.2836 21.2855 43.6667 21.6649 44.2344 21.665C44.6294 21.665 44.852 21.5301 45.0742 21.2852L45.3457 21.543C45.0001 21.9225 44.6294 22.0205 44.2344 22.0205C43.4197 22.0204 42.8516 21.469 42.8516 20.624V20.6123C42.8516 19.7305 43.4449 19.167 44.2227 19.167ZM44.2227 19.5342C43.7288 19.5342 43.3089 19.8896 43.2842 20.3428H45.0498C45.0498 19.902 44.6793 19.5344 44.2227 19.5342Z" fill="var(--fill-0, #FF893D)"/>
<path d="M71.0127 19.1543C71.3705 19.1544 71.6544 19.3381 71.8271 19.6318L71.5186 19.8281C71.4321 19.6444 71.2343 19.5215 71.0244 19.5215C70.7283 19.5216 70.5684 19.6938 70.5684 19.8896C70.5686 20.1465 70.8026 20.2321 71.1357 20.3545C71.716 20.5627 72 20.7714 72 21.249C71.9998 21.7019 71.6666 22.0204 71.0127 22.0205C70.5189 22.0205 70.111 21.7998 69.9629 21.3467L70.2842 21.2119C70.3953 21.4812 70.6418 21.6522 70.9873 21.6523C71.4192 21.6523 71.5799 21.4693 71.5801 21.249C71.5801 20.9673 71.3455 20.8442 70.9258 20.6973C70.4816 20.5381 70.1603 20.3424 70.1602 19.9141C70.1602 19.4609 70.5065 19.1543 71.0127 19.1543Z" fill="var(--fill-0, #FF893D)"/>
<path d="M29.457 19.1914C30.0865 19.1915 30.4687 19.6076 30.4688 20.2197V21.959H30.0742V20.3057C30.0742 19.8526 29.8026 19.5714 29.3584 19.5713C28.9016 19.5713 28.5801 19.877 28.5801 20.3301V21.9463H28.1729V19.2402H28.5801V19.6934C28.7159 19.3994 29.0373 19.1914 29.457 19.1914Z" fill="var(--fill-0, #FF893D)"/>
<path d="M54.3457 19.252H54.9502V19.6201H54.3457V21.959H53.9385V19.6201H53.5928V19.252H53.9385V18.2119H54.3457V19.252Z" fill="var(--fill-0, #FF893D)"/>
<path d="M61.6172 21.3223L62.5059 19.2402H62.9258L61.7529 21.959H61.4814L60.2959 19.2402H60.7158L61.6172 21.3223Z" fill="var(--fill-0, #FF893D)"/>
<path d="M18.9014 19.1914C18.9631 19.1914 19.0372 19.1909 19.0742 19.2031V19.6318C19.0125 19.6196 18.9137 19.6074 18.8027 19.6074C18.383 19.6074 18.0615 19.914 18.0615 20.3672V21.9463H17.6543V19.2402H18.0615V19.6934C18.1973 19.3994 18.494 19.1914 18.9014 19.1914Z" fill="var(--fill-0, #FF893D)"/>
<path d="M24.3086 19.1914C24.3703 19.1914 24.4444 19.1909 24.4814 19.2031V19.6318C24.4197 19.6196 24.321 19.6074 24.21 19.6074C23.7902 19.6074 23.4688 19.914 23.4688 20.3672V21.9463H23.0615V19.2402H23.4688V19.6934C23.6045 19.3994 23.9012 19.1914 24.3086 19.1914Z" fill="var(--fill-0, #FF893D)"/>
<path d="M47.4072 19.1914C47.4688 19.1914 47.543 19.191 47.5801 19.2031V19.6318C47.5183 19.6196 47.4196 19.6074 47.3086 19.6074C46.8889 19.6075 46.5684 19.9141 46.5684 20.3672V21.9463H46.1602V19.2402H46.5684V19.6934C46.7042 19.3995 47 19.1915 47.4072 19.1914Z" fill="var(--fill-0, #FF893D)"/>
<path d="M52.8271 19.1914C52.8888 19.1914 52.9629 19.1909 53 19.2031V19.6318C52.9383 19.6196 52.8396 19.6074 52.7285 19.6074C52.3088 19.6074 51.9873 19.914 51.9873 20.3672V21.9463H51.5801V19.2402H51.9873V19.6934C52.1231 19.3994 52.4198 19.1914 52.8271 19.1914Z" fill="var(--fill-0, #FF893D)"/>
<path d="M66.1855 19.1914C66.2472 19.1914 66.3214 19.1909 66.3584 19.2031V19.6318C66.2968 19.6196 66.1978 19.6075 66.0869 19.6074C65.6672 19.6074 65.3457 19.914 65.3457 20.3672V21.9463H64.9385V19.2402H65.3457V19.6934C65.4815 19.3994 65.7781 19.1914 66.1855 19.1914Z" fill="var(--fill-0, #FF893D)"/>
<path d="M9.72852 20.7217H7.69141V20.3545H9.72852V20.7217Z" fill="var(--fill-0, #FF893D)"/>
<path fill-rule="evenodd" clip-rule="evenodd" d="M15.543 17.9053C15.8269 17.9053 16.0741 18.1378 16.0742 18.4316C16.0742 18.7256 15.8393 18.958 15.543 18.958C15.2468 18.9579 15.0127 18.7255 15.0127 18.4316C15.0128 18.1501 15.2469 17.9054 15.543 17.9053ZM15.543 18.1865C15.4073 18.1867 15.2843 18.2971 15.2842 18.4316C15.2842 18.5663 15.4073 18.6893 15.543 18.6895C15.6788 18.6895 15.79 18.5664 15.79 18.4316C15.7899 18.297 15.6787 18.1865 15.543 18.1865Z" fill="var(--fill-0, #FF893D)"/>
<path d="M6.08594 5.02148L9.32129 11.4268L12.543 5.02148L16.2471 5.0332L10.9258 16.8271L7.66699 16.8154L3.79004 8.15625V16.8271H0.271484V5.00879H3.79004L6.08594 5.02148Z" fill="var(--fill-0, #FF893D)"/>
<path d="M2.0127 0.0371094C3.12365 0.0372919 4.02441 0.906591 4.02441 2.0332C4.02431 3.13524 3.12358 4.0047 2.0127 4.00488C0.926337 4.00488 0.000104874 3.13535 0 2.0332C0 0.906473 0.926275 0.0371094 2.0127 0.0371094Z" fill="var(--fill-0, #FF893D)"/>
</g>
</g>
</svg>
