<svg xmlns="http://www.w3.org/2000/svg" fill="none" viewBox="0 0 80 80">
  <path fill="#FBD7B8" d="M0 12C0 5.373 5.373 0 12 0h56c6.627 0 12 5.373 12 12v56c0 6.627-5.373 12-12 12H12C5.373 80 0 74.627 0 68V12Z"/>
  <path fill="#000" d="M61.934 13.327c0-.35-.145-.587-.356-.72-.217-.138-.536-.185-.907-.078-.17.048-.413.186-.71.396-.292.206-.614.465-.937.734-.318.264-.648.546-.932.78-.284.233-.548.439-.75.556-.2.116-.388.18-.57.14-.181-.039-.292-.169-.358-.246-.077-.091-.124-.152-.197-.202a.547.547 0 0 0-.326-.084c-.376 0-.575.106-.682.224-.112.123-.164.298-.164.504 0 .088.02.18.05.276.014.049.03.096.048.144.016.046.035.097.05.144.014.047.03.101.036.157a.412.412 0 0 1-.024.21c-.08.193-.276.223-.401.223-.368 0-.985.164-1.554.563-.118.084-.276.258-.465.5-.186.238-.382.515-.58.789a8.79 8.79 0 0 1-.581.735 1.92 1.92 0 0 1-.282.26.608.608 0 0 1-.345.129.721.721 0 0 1-.35-.117 2.856 2.856 0 0 1-.336-.24c-.232-.19-.5-.439-.761-.679a11.527 11.527 0 0 0-.755-.653 2.215 2.215 0 0 0-.3-.198.404.404 0 0 0-.157-.057c-.212 0-.457.115-.738.388-.279.271-.568.674-.865 1.191-.313.545-.616.883-1.013 1.07-.387.183-.83.206-1.372.206-.519 0-.847.102-1.043.258-.184.147-.286.371-.286.713 0 .31.178.596.415.97.22.346.492.77.492 1.277 0 .482-.16.815-.459 1.009-.275.178-.625.206-.931.206a1.49 1.49 0 0 1-.624-.168 2.882 2.882 0 0 1-.605-.399 2.531 2.531 0 0 1-.487-.544c-.125-.195-.218-.42-.218-.65 0-.354.015-.672-.02-.915a.554.554 0 0 0-.065-.22c-.011-.017-.014-.02-.036-.02-.08 0-.14.012-.194.034a.781.781 0 0 0-.208.137c-.182.155-.408.41-.81.845-.384.416-.651.728-.785.934.145.01.302.04.438.116a.649.649 0 0 1 .26.262.85.85 0 0 1 .091.405c0 .308-.131.615-.314.832a.935.935 0 0 1-.486.32c.31.024.652.063 1.042.063.368 0 .643-.117.98-.255.337-.139.722-.292 1.255-.292.488 0 .851.044 1.099.16.13.06.238.144.312.26.074.116.1.244.1.37a.526.526 0 0 1-.13.315c-.064.082-.15.165-.247.244a4.85 4.85 0 0 1-.747.49c-.567.307-1.291.59-1.837.59-.403 0-.799.205-1.1.5-.306.301-.47.653-.47.897 0 .194-.032.35-.083.483-.051.13-.118.23-.173.31-.106.15-.168.232-.168.422 0 .256-.167.422-.313.522-.146.1-.327.172-.455.225l-.038.017c.118.08.213.163.278.254.087.12.135.281.06.443a.555.555 0 0 1-.306.263 1.537 1.537 0 0 1-.408.096c-.087.01-.235.063-.434.171a5.54 5.54 0 0 0-.642.42 7.87 7.87 0 0 0-1.243 1.146.882.882 0 0 0-.219.434.99.99 0 0 0 .034.404c.02.075.043.15.068.233.025.081.052.17.074.26.044.183.074.39.036.617-.039.235-.177.495-.342.743-.17.255-.387.523-.613.782-.453.516-.959 1.009-1.227 1.279-.27.272-.622.64-.874.988-.127.175-.22.333-.268.462-.052.137-.034.19-.027.2.061.108.12.23.124.355a.41.41 0 0 1-.17.344 1.73 1.73 0 0 1-.277.16 5.114 5.114 0 0 0-.367.199c-.312.188-.883.511-1.306.841-.216.169-.363.317-.427.429a.196.196 0 0 0-.026.065c.003.004.009.01.02.019.166.116.29.236.361.365.077.139.094.29.032.432a.575.575 0 0 1-.25.262 1.04 1.04 0 0 1-.277.103 1.963 1.963 0 0 0-.159.102 8.744 8.744 0 0 0-.419.323c-.333.27-.75.63-1.158 1.007a17.24 17.24 0 0 0-1.097 1.092 4.26 4.26 0 0 0-.34.42.999.999 0 0 0-.094.17v.025c-.013.352-.222.699-.47.973-.264.29-.61.54-.95.676-.295.119-.913.425-1.605.748-.676.315-1.42.643-1.927.78-.464.124-.708.3-.795.44-.038.061-.044.111-.034.155.01.049.046.119.14.202a.671.671 0 0 1 .248.53.785.785 0 0 1-.211.49c-.227.255-.61.438-.982.438-.297 0-.76.015-1.215.03-.45.015-.894.03-1.141.03a.228.228 0 0 0-.09.033 1.035 1.035 0 0 0-.19.14 2.93 2.93 0 0 0-.456.547c-.304.459-.533 1.018-.533 1.466 0 .276-.028.483-.074.656-.047.172-.109.3-.163.41-.055.11-.098.193-.13.302a1.553 1.553 0 0 0-.056.454c0 .5-.135.857-.215 1.113-.08.258-.093.375-.003.52a.67.67 0 0 1 .08.546c-.043.16-.136.302-.218.415-.093.13-.164.213-.23.315-.062.097-.079.154-.079.188l.001.007a.603.603 0 0 0 .03.098c.027.064.066.142.118.235.105.188.242.403.39.65.145.242.295.505.41.765.112.258.2.533.2.796 0 .27-.085.472-.216.632-.122.149-.281.256-.4.34-.13.092-.228.167-.298.264a.65.65 0 0 0-.114.403c0 .333.259.54.67.795.185.115.406.243.573.389.172.15.328.355.328.638 0 .247-.093.454-.211.63-.114.17-.266.33-.395.474-.272.303-.482.576-.482.96 0 .433.149.915.513 1.288.36.37.958.656 1.904.656.985 0 1.711-.09 2.288-.284a3.244 3.244 0 0 0 1.403-.914 28.124 28.124 0 0 1 1.776-1.754c.332-.296.664-.568.96-.767.147-.1.29-.184.423-.245a.997.997 0 0 1 .401-.105c.412 0 .72.175.949.452.219.265.366.62.489.99.11.332.27.476.359.508.035.013.05.007.06 0 .016-.009.056-.043.09-.144.092-.28.686-1.795 1.264-3.305.29-.759.58-1.52.802-2.133.112-.306.206-.574.277-.786.072-.217.113-.359.125-.422.118-.652.238-2.095.238-2.872 0-.386-.06-1.034-.12-2.165a88.528 88.528 0 0 1-.122-4.879c0-1.826.742-2.96 1.715-3.623.953-.649 2.102-.829 2.929-.81.025-.003.1-.032.178-.248.075-.205.118-.495.133-.808.014-.311 0-.628-.032-.878a2.283 2.283 0 0 0-.057-.305.599.599 0 0 0-.028-.08l-.005-.011a.376.376 0 0 1-.087-.187.733.733 0 0 1-.007-.175c.008-.113.035-.248.071-.392a9.23 9.23 0 0 1 .35-1.029c.298-.75.697-1.586.981-2.03.23-.36.278-.814.242-1.253-.036-.436-.15-.825-.21-1.039a.396.396 0 0 1 .033-.318.427.427 0 0 1 .221-.174c.071-.027.15-.042.22-.053.071-.01.153-.02.228-.028.328-.04.62-.097.791-.313.237-.298.73-.988 1.232-1.684.495-.685 1.002-1.381 1.254-1.666.468-.529.966-1.262.966-2.267 0-1.17.518-2.072 1.02-2.703.299-.376.754-.51 1.146-.587.19-.038.41-.069.572-.098.177-.032.32-.066.427-.114a2.61 2.61 0 0 0 .793-.539c.235-.243.392-.534.392-.878 0-.21.004-.392.026-.537a.707.707 0 0 1 .181-.41.699.699 0 0 1 .407-.181c.145-.022.325-.026.534-.026.502 0 .95.269 1.312.491.19.117.358.223.519.302.16.079.292.118.405.118.281 0 .529-.089.708-.28.18-.193.32-.52.32-1.056 0-.601.109-1.08.325-1.415.224-.348.556-.528.943-.528a.464.464 0 0 0 .27-.106c.11-.08.214-.182.353-.31.26-.238.615-.533 1.147-.494.313.022.554.228.736.468.184.243.337.56.468.89.132.332.248.691.351 1.022.106.336.197.638.285.873.098.263.376.42.782.487a3.38 3.38 0 0 0 1.11-.03l.033-.01.121-.033a4.4 4.4 0 0 1 .394-.082c.152-.024.324-.042.487-.035.158.006.34.035.485.133.096.064.231.17.358.262.135.098.278.196.421.272.145.076.273.12.377.126a.277.277 0 0 0 .231-.083c.453-.455 1.46-1.876 1.993-3.78.567-2.028 1.835-2.985 2.844-3.492.565-.284 1.11-.207 1.577-.006.458.198.86.523 1.159.762.353.285.614.76.787 1.248.174.493.27 1.037.27 1.493 0 .374-.06 1.013-.008 1.709.038.509.135.988.333 1.348.575-1.78 1.475-2.535 1.71-2.888l.015-.021a.373.373 0 0 1 .333-.16c.122.01.225.076.295.13.144.112.306.301.452.468.157.178.313.35.469.472a.951.951 0 0 0 .192.122 1.565 1.565 0 0 0-.003-.166 3.2 3.2 0 0 0-.207-.868c-.076-.203-.23-.434-.462-.692a8.033 8.033 0 0 0-.855-.8c-.67-.554-1.493-1.125-2.28-1.673l.245-.417c1.27.638 2.366.295 2.726.071l.03-.018.033-.01a.417.417 0 0 0 .157-.105c.07-.067.147-.161.224-.28.153-.236.295-.549.387-.88.092-.333.13-.668.093-.953-.038-.283-.147-.496-.332-.628-.492-.348-.825-.46-1.11-.472-.297-.013-.57.077-.976.202-.352.11-.802.404-1.282.723a15.38 15.38 0 0 1-.689.443 2.75 2.75 0 0 1-.636.294c-.35.095-.71.11-.965-.147-.193-.194-.275-.496-.298-.87a1.431 1.431 0 0 1-.216.225c-.246.207-.595.375-.94.375a.688.688 0 0 1-.507-.236c-.112-.119-.202-.271-.273-.39a1.499 1.499 0 0 0-.203-.288.25.25 0 0 0-.064-.047 1.7 1.7 0 0 0 .04.072c.051.088.145.232.201.34.03.058.062.127.08.198a.405.405 0 0 1-.024.278c-.048.096-.261.633-.6 1.123-.332.481-.848 1.015-1.55 1.015-.556 0-.931-.288-1.163-.63a2.18 2.18 0 0 1-.346-.989l-.001-.01v-.01c0-.382.207-.795.465-1.183.264-.397.613-.814.953-1.208.344-.4.676-.774.925-1.104.124-.164.221-.31.287-.434a.631.631 0 0 0 .089-.262Zm3.867.243c-.21 0-.41.116-.603.304-.197.19-.342.406-.477.577-.01.01-.033.06-.035.184a2.12 2.12 0 0 0 .046.414c.045.232.11.461.163.645.143-.287.391-.48.645-.62.192-.107.4-.192.58-.268.187-.08.34-.147.453-.223.05-.034.073-.077.066-.16a.81.81 0 0 0-.153-.366 1.424 1.424 0 0 0-.35-.353c-.134-.094-.252-.134-.335-.134ZM36.979 26.14l.002.05a.422.422 0 0 0 .05-.014c.077-.026.171-.075.272-.134.112-.066.182-.114.277-.17a.89.89 0 0 1 .398-.111c.048-.004.097-.005.148-.005a1.955 1.955 0 0 0-.708.051.923.923 0 0 0-.343.157c-.07.058-.096.113-.096.177Zm25.438-12.813c0 .165-.064.334-.145.488a3.775 3.775 0 0 1-.329.502c-.261.346-.609.738-.944 1.128-.34.395-.671.79-.917 1.16-.248.374-.38.679-.384.904.02.201.098.5.263.744.163.24.402.418.764.418.446 0 .836-.347 1.154-.806.287-.417.462-.845.545-1.024a.57.57 0 0 0-.033-.074c-.052-.099-.113-.187-.19-.319a1.625 1.625 0 0 1-.096-.187.618.618 0 0 1-.053-.227.37.37 0 0 1 .12-.285.489.489 0 0 1 .279-.113c.226-.025.4.07.527.194.117.114.208.266.28.385.08.132.141.234.21.307.063.066.11.085.157.085.2 0 .443-.106.63-.262a.818.818 0 0 0 .193-.226c.038-.07.034-.107.032-.117-.045-.167-.156-.522-.222-.86a2.589 2.589 0 0 1-.055-.513c.002-.155.028-.341.14-.482.106-.133.293-.403.52-.623.229-.222.543-.44.938-.44.219 0 .433.097.61.22.18.126.347.295.472.477.124.18.22.392.238.603a.636.636 0 0 1-.28.603c-.158.106-.353.19-.534.266-.189.08-.37.155-.533.245-.32.178-.517.386-.517.744 0 .483.08.692.163.776.061.061.185.106.5.022.133-.036.306-.12.515-.244.207-.122.431-.272.667-.429.457-.304.973-.648 1.407-.782.38-.117.74-.24 1.139-.223.41.018.832.18 1.368.56.327.233.483.589.532.96.05.37-.003.775-.107 1.149a3.765 3.765 0 0 1-.447 1.015 2.11 2.11 0 0 1-.297.367.916.916 0 0 1-.326.21c-.327.193-.964.404-1.754.34.402.29.793.584 1.144.874.345.285.657.57.908.85.249.278.449.562.554.846.153.408.219.745.237 1.005.018.252-.008.451-.06.573l-.055.13-.14.015c-.278.032-.524-.107-.715-.258a4.312 4.312 0 0 1-.532-.532c-.162-.184-.283-.324-.38-.4-.362.489-1.225 1.217-1.731 3.137l-.103.392-.296-.277c-.525-.493-.694-1.303-.748-2.014-.053-.713.007-1.44.007-1.746 0-.395-.085-.884-.243-1.331-.16-.453-.382-.828-.633-1.03-.306-.246-.66-.528-1.047-.695-.38-.164-.77-.208-1.171-.006-.925.465-2.075 1.33-2.595 3.188-.554 1.982-1.602 3.476-2.116 3.993a.758.758 0 0 1-.603.224c-.202-.012-.4-.09-.571-.181a3.977 3.977 0 0 1-.481-.309c-.15-.11-.256-.193-.342-.25a.49.49 0 0 0-.236-.053 2.072 2.072 0 0 0-.393.03 3.92 3.92 0 0 0-.457.102l-.029.008-.006.002h-.002l-.012.005-.013.002c-.32.065-.822.11-1.29.035-.459-.074-.966-.28-1.159-.795-.093-.25-.19-.571-.293-.898a14.25 14.25 0 0 0-.34-.987c-.125-.316-.259-.586-.403-.777-.147-.195-.276-.27-.386-.278-.314-.023-.534.138-.787.37-.117.108-.256.244-.398.346a.939.939 0 0 1-.55.196c-.217 0-.4.092-.537.306-.146.226-.248.599-.248 1.151 0 .618-.163 1.08-.451 1.388-.29.31-.676.434-1.06.434a1.42 1.42 0 0 1-.616-.167c-.188-.092-.38-.214-.56-.325-.378-.232-.715-.42-1.06-.42a3.38 3.38 0 0 0-.462.02c-.103.016-.13.039-.137.046-.008.008-.03.035-.045.138a3.41 3.41 0 0 0-.02.465c0 .506-.236.913-.53 1.217a3.098 3.098 0 0 1-.943.644 2.363 2.363 0 0 1-.538.149c-.199.035-.369.057-.564.095-.377.075-.678.184-.862.415-.465.584-.914 1.382-.914 2.399 0 1.18-.589 2.026-1.088 2.59-.231.262-.721.932-1.224 1.628-.495.687-.999 1.393-1.245 1.702-.312.391-.806.455-1.112.492-.084.01-.151.017-.213.027a1.223 1.223 0 0 0-.06.01c.065.23.17.618.206 1.053.04.487-.004 1.066-.317 1.556-.26.406-.646 1.21-.938 1.947a8.73 8.73 0 0 0-.331.97 1.778 1.778 0 0 0-.058.342.536.536 0 0 1 .058.102c.02.046.038.097.053.15.029.105.052.234.07.373.036.28.052.624.036.962-.016.335-.063.68-.162.953-.092.253-.272.55-.612.567h-.017c-.764-.02-1.812.148-2.66.726-.836.569-1.503 1.55-1.503 3.221a88 88 0 0 0 .12 4.852c.06 1.1.121 1.79.121 2.192 0 .802-.122 2.274-.245 2.959a4.334 4.334 0 0 1-.143.49c-.072.217-.169.49-.28.798a148.41 148.41 0 0 1-.806 2.14c-.585 1.527-1.169 3.018-1.257 3.285a.726.726 0 0 1-.299.407.543.543 0 0 1-.473.04c-.29-.104-.522-.415-.654-.812-.119-.359-.243-.641-.402-.832a.7.7 0 0 0-.577-.277.55.55 0 0 0-.201.061c-.1.046-.22.115-.354.206a9.21 9.21 0 0 0-.909.727 27.91 27.91 0 0 0-1.743 1.722c-.448.483-.95.826-1.603 1.044-.647.217-1.431.309-2.44.309-1.048 0-1.78-.32-2.25-.802a2.326 2.326 0 0 1-.65-1.627c0-.587.333-.983.605-1.286.143-.16.263-.288.353-.421a.633.633 0 0 0 .129-.358c0-.082-.04-.165-.163-.272-.128-.112-.3-.212-.508-.34-.374-.232-.9-.57-.9-1.21 0-.29.078-.512.207-.69.122-.168.282-.283.409-.373.137-.098.234-.166.305-.252a.473.473 0 0 0 .106-.324c0-.163-.056-.366-.159-.6a6.469 6.469 0 0 0-.38-.71c-.139-.23-.289-.467-.399-.664a2.688 2.688 0 0 1-.143-.288.788.788 0 0 1-.067-.289.85.85 0 0 1 .157-.451c.072-.113.178-.246.244-.337a.87.87 0 0 0 .143-.258.184.184 0 0 0-.024-.161c-.212-.341-.134-.65-.048-.923.086-.275.193-.556.193-.967 0-.247.028-.434.076-.593.046-.157.11-.278.16-.38.052-.104.096-.196.129-.32.033-.123.057-.288.057-.529 0-.584.285-1.239.615-1.736.167-.252.354-.476.537-.64a1.48 1.48 0 0 1 .283-.204.679.679 0 0 1 .318-.091c.236 0 .669-.015 1.125-.03.451-.016.924-.031 1.231-.031a.887.887 0 0 0 .62-.275c.067-.075.089-.14.09-.182.001-.033-.008-.084-.083-.15a.874.874 0 0 1-.294-.463.688.688 0 0 1 .097-.518c.185-.296.575-.515 1.079-.65.46-.125 1.166-.434 1.849-.752.668-.311 1.318-.633 1.628-.758.264-.106.552-.311.773-.553.226-.249.344-.495.344-.679 0-.086.03-.166.058-.229a1.4 1.4 0 0 1 .12-.206c.095-.14.227-.3.38-.471.306-.342.715-.743 1.129-1.125.415-.382.84-.75 1.181-1.027a9.22 9.22 0 0 1 .444-.341c.06-.043.115-.08.163-.108a.556.556 0 0 1 .163-.07.53.53 0 0 0 .151-.054.2.2 0 0 0 .038-.027l-.004-.008a.72.72 0 0 0-.215-.203.506.506 0 0 1-.224-.35.6.6 0 0 1 .086-.373c.114-.2.329-.398.551-.572.453-.353 1.06-.697 1.353-.874.16-.096.295-.164.4-.216.084-.043.134-.069.167-.089a.913.913 0 0 0-.048-.094c-.115-.202-.074-.43-.006-.612.07-.19.193-.389.33-.578.276-.381.65-.772.923-1.046.276-.277.767-.755 1.206-1.256.22-.25.421-.502.574-.731.158-.236.246-.424.268-.553a1.031 1.031 0 0 0-.03-.421 4.329 4.329 0 0 0-.066-.233 5.353 5.353 0 0 1-.074-.256 1.47 1.47 0 0 1-.043-.6c.035-.223.137-.446.327-.672a8.35 8.35 0 0 1 1.324-1.222c.24-.18.481-.338.7-.457.212-.116.427-.206.611-.227.123-.014.216-.037.278-.062l.01-.005a1.036 1.036 0 0 0-.204-.151.609.609 0 0 1-.227-.212.332.332 0 0 1-.041-.192.335.335 0 0 1 .068-.171.582.582 0 0 1 .195-.153 2.6 2.6 0 0 1 .202-.092c.145-.06.273-.113.369-.179.096-.065.102-.104.102-.12 0-.357.15-.55.255-.701a.958.958 0 0 0 .118-.207.828.828 0 0 0 .05-.307c0-.423.258-.892.616-1.244.364-.357.875-.638 1.438-.638.421 0 1.057-.234 1.607-.533a4.43 4.43 0 0 0 .67-.437 1.33 1.33 0 0 0 .176-.17.282.282 0 0 0 .024-.036.175.175 0 0 0-.024-.087.231.231 0 0 0-.107-.08c-.145-.068-.417-.115-.896-.115-.433 0-.743.12-1.071.255-.328.135-.687.292-1.164.292-.435 0-.832-.048-1.128-.07a2.696 2.696 0 0 0-.376-.008.43.43 0 0 0-.185.043c-.056.034-.182.115-.28.173a2.008 2.008 0 0 1-.364.176c-.114.038-.293.078-.455-.011-.183-.101-.233-.3-.233-.486 0-.24.117-.424.273-.552.15-.124.342-.202.526-.25.362-.096.783-.102 1.015-.04.046.013.154-.007.282-.158.12-.142.2-.34.2-.518a.37.37 0 0 0-.034-.175.165.165 0 0 0-.069-.068c-.077-.043-.201-.06-.38-.06a.426.426 0 0 1-.233-.061.325.325 0 0 1-.15-.252.491.491 0 0 1 .04-.22c.025-.061.06-.125.1-.19.158-.249.46-.599.85-1.021.384-.416.641-.706.852-.886.11-.093.22-.167.34-.216a.974.974 0 0 1 .375-.07c.19 0 .339.09.435.23.085.126.124.282.145.427.04.289.025.669.025.984 0 .103.043.235.14.387.096.15.234.3.394.437a2.4 2.4 0 0 0 .501.331c.17.082.314.12.415.12.298 0 .522-.033.67-.129.123-.08.236-.232.236-.6 0-.343-.182-.648-.415-1.016-.216-.34-.491-.751-.491-1.23 0-.448.14-.831.469-1.094.318-.254.775-.364 1.343-.364.547 0 .889-.028 1.167-.16.267-.126.508-.366.8-.873.306-.534.622-.981.947-1.297.323-.315.683-.524 1.074-.524.134 0 .266.05.38.11.118.062.243.147.368.242.25.19.527.441.79.683.268.246.521.482.738.658.109.088.202.155.277.2a.457.457 0 0 0 .104.049.282.282 0 0 0 .067-.039c.056-.04.125-.104.207-.192.163-.178.348-.423.545-.694.194-.265.398-.554.59-.8.188-.241.385-.47.57-.598.602-.425 1.27-.628 1.744-.65a1.435 1.435 0 0 1-.156-.67c0-.28.07-.59.29-.832.225-.246.57-.382 1.04-.382.255 0 .447.065.597.168.14.096.236.22.294.29.07.081.086.084.09.085.005.001.06.01.227-.086.164-.095.4-.276.686-.512.287-.235.6-.503.93-.778.325-.27.66-.539.967-.756.301-.213.601-.394.855-.467.474-.136.941-.092 1.298.135.364.23.581.63.581 1.131Z"/>
  <path fill="#FAF8F6" d="M14.139 18.003a.97.97 0 0 1 .966.972.97.97 0 0 1-.966.971h-3.867a.97.97 0 0 1-.967-.971.97.97 0 0 1 .966-.972h3.868Zm19.336-3.643a.97.97 0 0 1 .966.971.97.97 0 0 1-.966.972H10.27a.97.97 0 0 1-.966-.972.97.97 0 0 1 .966-.972h23.204Zm-21.873-3.644a.97.97 0 0 1 .966.972.97.97 0 0 1-.966.971h-1.33a.97.97 0 0 1-.967-.972.97.97 0 0 1 .966-.971h1.33Z"/>
  <path fill="#ED7F17" d="M14.985 17.153c1.001 0 1.813.816 1.813 1.822a1.818 1.818 0 0 1-1.813 1.822 1.818 1.818 0 0 1-1.813-1.822c0-1.007.812-1.822 1.813-1.822Zm19.335-3.765c1.001 0 1.813.816 1.813 1.822a1.817 1.817 0 0 1-1.813 1.821 1.817 1.817 0 0 1-1.812-1.821c0-1.006.811-1.822 1.812-1.822ZM13.293 9.744c1.001 0 1.813.816 1.813 1.822a1.817 1.817 0 0 1-1.813 1.822 1.817 1.817 0 0 1-1.813-1.822c0-1.006.812-1.822 1.813-1.822Z"/>
  <rect width="16" height="16" x="56" y="56" fill="#fff" rx="2"/>
  <path fill="#EE7C22" d="M65.966 58.349c0-.478.546-.682 1.109-.682.544 0 1.107.204 1.107.681v7.978c0 2.847-1.807 3.905-4.091 3.905-2.3 0-4.091-1.058-4.091-3.905v-7.977c0-.478.546-.682 1.108-.682.545 0 1.108.204 1.108.681v7.978c0 1.33.699 1.96 1.875 1.96 1.177 0 1.875-.63 1.875-1.96v-7.977Z"/>
</svg>
