<svg preserveAspectRatio="xMidYMid meet" width="100%" height="100%" overflow="visible" style="display: block;" viewBox="0 0 47.9994 56.0547" fill="none" xmlns="http://www.w3.org/2000/svg">
<g id="Illustrasjon">
<path id="Union" d="M25.6251 9.27929C31.883 9.27931 38.0126 11.7752 42.3985 16.7109C50.7893 26.1552 49.6184 40.954 39.7833 49.7666C35.0899 53.9728 29.2682 56.0547 23.5538 56.0547C17.2959 56.0547 11.1664 53.5588 6.78039 48.623C-1.61039 39.1799 -0.439511 24.3809 9.39562 15.5683C14.0891 11.3622 19.9107 9.27929 25.6251 9.27929Z" fill="var(--fill-0, #F07C14)"/>
<path id="Vector" d="M21.7208 52.9933C18.6752 52.9933 15.7422 52.392 13.0052 51.2049C10.1728 49.9774 7.69455 48.1825 5.63961 45.869C1.7495 41.491 -0.132215 35.7834 0.34092 29.7974C0.815139 23.8071 3.59007 18.255 8.15578 14.164C12.4995 10.2719 18.031 8.12802 23.7314 8.12802C26.777 8.12802 29.71 8.72922 32.447 9.91641C35.2793 11.1438 37.7576 12.9387 39.8126 15.2522C43.7027 19.6303 45.5844 25.3379 45.1113 31.3238C44.637 37.3141 41.8621 42.8663 37.2964 46.9573C32.9526 50.8494 27.4212 52.9933 21.7208 52.9933Z" fill="var(--fill-0, white)"/>
<path id="Subtract" fill-rule="evenodd" clip-rule="evenodd" d="M23.7339 7.85741C29.8087 7.85751 35.7561 10.2792 40.0142 15.0713C48.1603 24.2393 47.0242 38.6052 37.4761 47.1601C32.9192 51.2435 27.2677 53.2645 21.7212 53.2646C15.6462 53.2646 9.69624 50.843 5.43801 46.0508C-2.70917 36.8827 -1.57218 22.5158 7.97805 13.9619C12.5351 9.8785 18.1873 7.85741 23.7339 7.85741ZM23.7339 8.40136C18.0996 8.40136 12.6314 10.5197 8.33743 14.3672C6.05626 16.4121 4.22478 18.8237 2.89309 21.5361C1.60794 24.154 0.840184 26.9416 0.612819 29.8193C0.385477 32.6959 0.707831 35.5175 1.5718 38.206C2.46503 40.9869 3.90211 43.5044 5.84329 45.6885C7.87116 47.9715 10.3183 49.7439 13.1138 50.956C15.8172 52.1279 18.7135 52.7217 21.7222 52.7217C27.3553 52.7216 32.8228 50.6023 37.1167 46.7549C39.3979 44.7099 41.2294 42.2984 42.5611 39.5859C43.8462 36.9681 44.614 34.1804 44.8413 31.3027C45.0686 28.4263 44.7462 25.6054 43.8824 22.917C42.9891 20.136 41.5521 17.6177 39.6109 15.4336C37.582 13.1507 35.1367 11.3781 32.3413 10.166C29.638 8.99409 26.7426 8.40141 23.7339 8.40136Z" fill="var(--fill-0, #F07C14)"/>
<path id="Union_2" fill-rule="evenodd" clip-rule="evenodd" d="M12.7933 22.1133C12.8596 22.1133 12.9253 22.1338 12.9798 22.1719L17.3577 25.2393L20.7405 27.5117C21.2257 27.1343 21.8339 26.9082 22.4954 26.9082C23.1351 26.9083 23.7235 27.1214 24.2005 27.4766L27.7142 23.3262C27.8302 23.1891 28.0355 23.1728 28.1722 23.2891C28.3088 23.4057 28.3254 23.6118 28.2093 23.749L24.677 27.9209C25.1047 28.424 25.3645 29.0755 25.3645 29.7891C25.3645 30.068 25.322 30.3368 25.2483 30.5918C26.6192 30.7472 27.5378 31.1821 28.2552 31.7861C28.7484 32.2015 29.1335 32.6858 29.4974 33.1719C29.8431 33.6337 30.1661 34.0925 30.5599 34.5371L30.6399 34.626L30.6526 34.6416L32.7913 37.2988C32.8451 37.3583 32.8753 37.4367 32.8753 37.5186C32.8753 37.6568 32.7883 37.7811 32.6585 37.8271C32.549 37.8657 32.4287 37.8425 32.3421 37.7695L28.0579 34.6016L24.3587 31.9756C23.8572 32.4069 23.2077 32.6698 22.4954 32.6699C21.9402 32.6699 21.4238 32.5084 20.9847 32.2344C20.9787 32.243 20.974 32.2526 20.9671 32.2607L17.2864 36.6094C17.1703 36.7465 16.9651 36.7639 16.8284 36.6475C16.6922 36.5308 16.6755 36.3246 16.7913 36.1875L20.4729 31.8389C20.474 31.8377 20.4748 31.8361 20.4759 31.835C19.9514 31.313 19.6264 30.5894 19.6263 29.7891C19.6263 29.5537 19.6563 29.3254 19.7093 29.1064C18.6353 28.9339 17.8618 28.5614 17.2337 28.0596C16.73 27.657 16.3325 27.1825 15.9563 26.7061C15.575 26.2231 15.2183 25.7433 14.7757 25.2822C14.7713 25.2776 14.7671 25.2724 14.763 25.2676L12.5452 22.6504C12.4636 22.5537 12.4445 22.4179 12.4974 22.3027C12.5504 22.1875 12.6669 22.1135 12.7933 22.1133ZM24.9827 31.2187C24.9283 31.314 24.8685 31.4052 24.804 31.4932L28.4329 34.0693L28.4388 34.0723L30.7142 35.7559L30.1526 35.0576C29.6983 34.5577 29.33 34.0349 28.9778 33.5644C28.6185 33.0845 28.2702 32.6508 27.8372 32.2861C27.2053 31.7541 26.3623 31.3427 24.9827 31.2187ZM15.2522 24.8389C15.7193 25.3268 16.1011 25.8397 16.4651 26.3008C16.8366 26.7712 17.1959 27.1955 17.638 27.5488C18.1876 27.988 18.8887 28.3352 19.9388 28.4834C20.0302 28.3032 20.1384 28.1333 20.264 27.9775L16.9964 25.7822C16.9948 25.7811 16.9931 25.7794 16.9915 25.7783L14.6692 24.1514L15.2522 24.8389Z" fill="var(--fill-0, #F07C14)"/>
<path id="Subtract_2" d="M22.2369 27.3428C22.3431 27.3428 22.4494 27.355 22.5534 27.3789C22.9615 27.4713 23.3083 27.736 23.527 28.124C23.7489 28.5186 23.8136 28.9928 23.7086 29.458C23.5246 30.2765 22.8438 30.8709 22.0914 30.8711C21.9854 30.8711 21.8789 30.8598 21.775 30.8359C21.3669 30.7435 21.0201 30.478 20.8014 30.0898C20.5795 29.6952 20.5147 29.2211 20.6198 28.7559C20.8038 27.9374 21.4846 27.3429 22.2369 27.3428Z" fill="var(--fill-0, white)"/>
<path id="Union_3" fill-rule="evenodd" clip-rule="evenodd" d="M22.8195 11.3613C33.3135 11.3613 41.8214 19.9039 41.8214 30.4414C41.8212 40.9787 33.3134 49.5205 22.8195 49.5205C12.3257 49.5203 3.81868 40.9786 3.81848 30.4414C3.81848 19.904 12.3255 11.3615 22.8195 11.3613ZM22.6066 11.6894V13.9834L22.6056 14C22.5973 14.0821 22.5284 14.1463 22.4445 14.1465C22.3604 14.1465 22.2907 14.0822 22.2823 14L22.2814 13.9834V11.6953C12.712 11.9673 4.94405 19.4671 4.20129 28.9502H6.4093C6.49887 28.9502 6.57124 29.0234 6.57141 29.1133C6.57141 29.2033 6.49897 29.2763 6.4093 29.2764H4.18079C4.15728 29.6616 4.14368 30.0502 4.14368 30.4414C4.14371 32.0586 4.34725 33.6279 4.73059 35.125L6.74231 34.418C6.82694 34.3883 6.91972 34.4336 6.94934 34.5185C6.97885 34.6035 6.93431 34.6968 6.84973 34.7266L4.81555 35.4404C6.02063 39.8259 8.77158 43.5667 12.4435 46.0351C12.4465 46.0274 12.448 46.0191 12.4523 46.0117L13.5997 44.0166C13.6446 43.9386 13.7438 43.912 13.8214 43.957C13.8991 44.0021 13.9258 44.1017 13.881 44.1797L12.7335 46.1748C12.7259 46.188 12.7137 46.1968 12.7032 46.207C15.6185 48.0971 19.0912 49.1943 22.8195 49.1943C29.34 49.1943 35.0785 45.838 38.4191 40.7529L36.5353 39.6601C36.4577 39.6151 36.431 39.5154 36.4757 39.4375C36.5205 39.3596 36.6197 39.333 36.6974 39.3779L38.5968 40.4785C40.432 37.5762 41.4961 34.1338 41.4962 30.4414C41.4962 20.084 33.1342 11.6875 22.8195 11.6875C22.7484 11.6875 22.6774 11.6886 22.6066 11.6894Z" fill="var(--fill-0, black)"/>
<g id="Union_4">
<path d="M33.8298 1.85748C33.9442 1.71915 34.1488 1.69991 34.2868 1.81452C34.4249 1.92943 34.4442 2.13578 34.3298 2.27448L31.1901 6.07916C31.0757 6.21778 30.8712 6.23687 30.7331 6.12213C30.595 6.00722 30.5757 5.80185 30.6901 5.66315L33.8298 1.85748Z" fill="var(--fill-0, #F07C14)"/>
<path d="M28.0339 0.220766C28.092 0.0504096 28.2773 -0.0406215 28.447 0.0176411C28.6164 0.0760103 28.7069 0.261482 28.6491 0.431704L27.2409 4.56354C27.1827 4.73369 26.9984 4.82487 26.8288 4.76666C26.6592 4.70841 26.5689 4.52292 26.6266 4.3526L28.0339 0.220766Z" fill="var(--fill-0, #F07C14)"/>
<path d="M21.7751 0.0078755C21.9501 -0.0310451 22.1239 0.0801642 22.1628 0.255922L23.029 4.16998C23.0676 4.34564 22.9568 4.51961 22.7819 4.55866C22.6068 4.5977 22.4331 4.48643 22.3942 4.31061L21.528 0.397524C21.4891 0.221701 21.6 0.0469474 21.7751 0.0078755Z" fill="var(--fill-0, #F07C14)"/>
</g>
</g>
</svg>
