<svg xmlns="http://www.w3.org/2000/svg" fill="none" viewBox="0 0 80 80">
  <path fill="#fff" d="M0 12C0 5.373 5.373 0 12 0h56c6.627 0 12 5.373 12 12v56c0 6.627-5.373 12-12 12H12C5.373 80 0 74.627 0 68V12Z"/>
  <path fill="#F07C14" d="M51.626 25.225c6.258 0 12.387 2.495 16.773 7.431 8.39 9.444 7.22 24.243-2.615 33.056C61.09 69.918 55.269 72 49.554 72c-6.258 0-12.387-2.496-16.773-7.432-8.39-9.443-7.22-24.242 2.615-33.054 4.694-4.206 10.515-6.29 16.23-6.29Z"/>
  <path fill="#fff" d="M47.721 68.939a21.77 21.77 0 0 1-8.716-1.789 20.895 20.895 0 0 1-7.365-5.336c-3.89-4.378-5.772-10.085-5.299-16.071.474-5.99 3.25-11.543 7.815-15.634 4.344-3.892 9.875-6.036 15.576-6.036 3.045 0 5.978.601 8.715 1.789a20.895 20.895 0 0 1 7.366 5.336c3.89 4.377 5.772 10.085 5.299 16.071-.475 5.99-3.25 11.543-7.815 15.634-4.344 3.892-9.876 6.036-15.576 6.036Z"/>
  <path fill="#F07C14" fill-rule="evenodd" d="M49.734 23.803c6.075 0 12.023 2.422 16.28 7.214 8.147 9.168 7.01 23.534-2.537 32.088-4.557 4.084-10.209 6.105-15.755 6.105-6.075 0-12.025-2.422-16.284-7.214-8.147-9.168-7.01-23.535 2.54-32.089 4.558-4.083 10.21-6.104 15.756-6.104Zm0 .544c-5.634 0-11.102 2.118-15.396 5.965a23.505 23.505 0 0 0-5.444 7.17 22.8 22.8 0 0 0-2.28 8.283 21.69 21.69 0 0 0 .958 8.386 20.743 20.743 0 0 0 4.272 7.483 20.641 20.641 0 0 0 7.27 5.267 21.513 21.513 0 0 0 8.609 1.766c5.633 0 11.1-2.12 15.394-5.967a23.505 23.505 0 0 0 5.445-7.169 22.8 22.8 0 0 0 2.28-8.283 21.687 21.687 0 0 0-.96-8.386 20.746 20.746 0 0 0-4.27-7.483 20.65 20.65 0 0 0-7.27-5.268 21.505 21.505 0 0 0-8.608-1.764Z" clip-rule="evenodd"/>
  <path fill="#F07C14" fill-rule="evenodd" d="M38.794 38.059c.066 0 .132.02.186.058l4.378 3.068 3.383 2.272a2.848 2.848 0 0 1 3.46-.035l3.514-4.15a.324.324 0 0 1 .458-.038.327.327 0 0 1 .037.46l-3.532 4.172a2.875 2.875 0 0 1 .57 2.671c1.372.156 2.29.59 3.008 1.194.493.416.878.9 1.242 1.386.346.462.669.92 1.062 1.365l.08.09.013.015 2.139 2.657a.328.328 0 0 1-.133.529.324.324 0 0 1-.316-.058l-4.285-3.168-3.699-2.626a2.848 2.848 0 0 1-3.374.259c-.006.008-.01.018-.017.026l-3.681 4.349a.325.325 0 1 1-.495-.422l3.681-4.349.003-.004a2.878 2.878 0 0 1-.766-2.728c-1.074-.173-1.848-.545-2.476-1.047-.504-.403-.901-.877-1.277-1.354-.382-.483-.738-.962-1.18-1.424l-.014-.014-2.217-2.617a.328.328 0 0 1-.048-.348.327.327 0 0 1 .296-.19Zm12.19 9.105a2.887 2.887 0 0 1-.18.274l3.63 2.577.005.003 2.276 1.683-.562-.698c-.454-.5-.822-1.023-1.175-1.493-.359-.48-.707-.914-1.14-1.279-.632-.532-1.475-.943-2.855-1.067Zm-9.731-6.38c.467.488.849 1.001 1.213 1.462.371.47.73.895 1.172 1.248.55.44 1.251.787 2.301.935.092-.18.2-.35.325-.506l-3.267-2.196c-.002 0-.003-.002-.005-.003l-2.322-1.627.583.687Z" clip-rule="evenodd"/>
  <path fill="#fff" d="M48.237 43.288c.106 0 .213.012.316.036.409.093.755.357.974.745.222.395.287.87.182 1.334-.184.819-.865 1.413-1.617 1.413-.106 0-.213-.01-.317-.035a1.498 1.498 0 0 1-.974-.746 1.874 1.874 0 0 1-.181-1.334c.184-.818.865-1.413 1.617-1.413Z"/>
  <path fill="#000" fill-rule="evenodd" d="M48.82 27.307c10.494 0 19.002 8.542 19.002 19.08 0 10.537-8.508 19.079-19.002 19.079s-19.001-8.542-19.001-19.08c0-10.537 8.507-19.08 19-19.08Zm-.213.328v2.294l-.001.016a.163.163 0 0 1-.161.147.163.163 0 0 1-.162-.147l-.001-.016V27.64c-9.57.272-17.338 7.771-18.08 17.255h2.208a.163.163 0 0 1 0 .326h-2.23a18.861 18.861 0 0 0 .55 5.849l2.012-.708a.164.164 0 0 1 .107.309l-2.034.714a18.782 18.782 0 0 0 7.628 10.594c.003-.007.004-.016.009-.023l1.147-1.995a.162.162 0 0 1 .222-.06.163.163 0 0 1 .06.223l-1.148 1.995c-.008.013-.02.022-.03.032A18.532 18.532 0 0 0 48.82 65.14c6.52 0 12.259-3.357 15.6-8.442l-1.884-1.093a.164.164 0 0 1-.06-.222.162.162 0 0 1 .222-.06l1.9 1.1a18.72 18.72 0 0 0 2.899-10.036c0-10.358-8.362-18.754-18.677-18.754l-.213.002Z" clip-rule="evenodd"/>
  <path fill="#F07C14" d="M59.83 17.803a.324.324 0 0 1 .457-.043.328.328 0 0 1 .043.46l-3.14 3.804a.324.324 0 0 1-.457.043.327.327 0 0 1-.043-.459l3.14-3.805Zm-5.796-1.637a.325.325 0 1 1 .615.211l-1.408 4.132a.324.324 0 1 1-.614-.211l1.407-4.132Zm-6.259-.213a.325.325 0 0 1 .388.248l.866 3.914a.325.325 0 1 1-.635.14l-.866-3.912a.327.327 0 0 1 .247-.39Z"/>
  <rect width="16" height="16" x="8" y="8" fill="#EE7C22" rx="2"/>
  <path fill="#fff" d="M17.966 10.348c0-.477.546-.681 1.109-.681.544 0 1.107.204 1.107.681v7.978c0 2.847-1.807 3.905-4.091 3.905-2.3 0-4.091-1.058-4.091-3.905v-7.978c0-.477.546-.681 1.108-.681.545 0 1.108.204 1.108.681v7.978c0 1.33.699 1.96 1.875 1.96 1.177 0 1.875-.63 1.875-1.96v-7.978Z"/>
</svg>
