<svg preserveAspectRatio="xMidYMid meet" width="100%" height="100%" overflow="visible" style="display: block;" viewBox="0 0 62.262 60.3614" fill="none" xmlns="http://www.w3.org/2000/svg">
<g id="Illustrasjon">
<path id="Vector" d="M52.6288 3.58316C52.6288 3.23359 52.4837 2.99604 52.2732 2.8624C52.0562 2.72473 51.7376 2.67765 51.366 2.78435C51.1967 2.83298 50.9537 2.97094 50.6559 3.18121C50.3644 3.38707 50.0426 3.64588 49.7192 3.91454C49.4009 4.179 49.0718 4.4611 48.7875 4.69448C48.5035 4.9276 48.2392 5.13338 48.0367 5.25086C47.8372 5.36664 47.6494 5.4299 47.4676 5.39093C47.2862 5.352 47.1752 5.22211 47.1097 5.14482C47.0326 5.05376 46.9856 4.99268 46.9123 4.9426C46.8484 4.899 46.7535 4.85839 46.5865 4.85839C46.21 4.85839 46.0114 4.9651 45.9037 5.08315C45.7922 5.20543 45.7406 5.38079 45.7406 5.5871C45.7406 5.67431 45.7598 5.76583 45.7895 5.86297C45.8042 5.91126 45.8208 5.95846 45.838 6.00672C45.8545 6.05295 45.873 6.10399 45.8879 6.15106C45.9026 6.1976 45.9177 6.25225 45.9246 6.30786C45.9313 6.36209 45.9331 6.43925 45.9002 6.51803C45.8197 6.71062 45.6242 6.74089 45.4989 6.74089C45.131 6.74089 44.5139 6.90436 43.9456 7.30414C43.8274 7.38736 43.6694 7.56157 43.4798 7.80441C43.2943 8.04217 43.0987 8.31874 42.8993 8.5923C42.7035 8.86104 42.5035 9.12781 42.3192 9.32813C42.2272 9.42815 42.1321 9.51936 42.0372 9.58716C41.9476 9.65118 41.828 9.71644 41.6923 9.71644C41.5639 9.71644 41.4391 9.65667 41.342 9.59961C41.2365 9.53757 41.1223 9.45303 41.0062 9.35884C40.7741 9.17067 40.5063 8.92106 40.2452 8.68114C39.9797 8.43717 39.7197 8.20188 39.4903 8.02763C39.3757 7.9406 39.275 7.87364 39.1902 7.82932C39.1007 7.78258 39.0514 7.77322 39.0337 7.77322C38.821 7.77322 38.5763 7.88764 38.2954 8.16058C38.0164 8.43169 37.7274 8.83495 37.4303 9.35208C37.1173 9.89697 36.8141 10.2344 36.4174 10.4218C36.0305 10.6045 35.5867 10.6273 35.0458 10.6273C34.5264 10.6273 34.198 10.7299 34.0028 10.8858C33.8186 11.0328 33.7165 11.2569 33.7165 11.5989C33.7165 11.9089 33.8942 12.195 34.1316 12.5689C34.3516 12.9152 34.6228 13.3385 34.6228 13.8458C34.6228 14.3279 34.464 14.661 34.1643 14.8546C33.8892 15.0324 33.5391 15.0603 33.2331 15.0603C33.0315 15.0603 32.8129 14.9912 32.6093 14.8931C32.402 14.7931 32.1923 14.6542 32.0043 14.4941C31.8167 14.3342 31.6445 14.1478 31.5175 13.9498C31.3921 13.7543 31.2996 13.53 31.2995 13.2992C31.2995 12.9459 31.3139 12.6277 31.2794 12.3847C31.2622 12.2642 31.2367 12.1967 31.2146 12.1643C31.203 12.1473 31.1999 12.1455 31.1787 12.1455C31.0978 12.1455 31.0389 12.1567 30.9842 12.1789C30.9272 12.2021 30.8623 12.2422 30.7759 12.3157C30.5942 12.4702 30.368 12.7259 29.9661 13.1608C29.5822 13.5763 29.315 13.8886 29.1812 14.0947C29.3259 14.1054 29.483 14.1341 29.6194 14.2102C29.7232 14.2682 29.8151 14.3533 29.879 14.4726C29.9419 14.59 29.9702 14.7266 29.9702 14.8781C29.9702 15.1863 29.8389 15.4926 29.6562 15.7093C29.5373 15.8504 29.3667 15.9849 29.1697 16.029C29.4798 16.0534 29.822 16.0926 30.2119 16.0926C30.5805 16.0926 30.8555 15.9761 31.193 15.8374C31.5295 15.699 31.914 15.5461 32.4476 15.5461C32.9351 15.5461 33.2983 15.5902 33.5458 15.705C33.6754 15.7651 33.7839 15.8493 33.8578 15.9656C33.9318 16.082 33.9582 16.2101 33.9582 16.3355C33.9581 16.4673 33.8856 16.5789 33.8287 16.651C33.7642 16.7327 33.6777 16.8153 33.581 16.8951C33.3863 17.0557 33.123 17.2273 32.8344 17.3841C32.2671 17.6923 31.5432 17.9751 30.9974 17.9751C30.5941 17.9751 30.1983 18.1796 29.8974 18.4751C29.5911 18.776 29.4264 19.1273 29.4264 19.3718C29.4264 19.566 29.3954 19.7214 29.3439 19.8545C29.2932 19.9857 29.226 20.0852 29.1713 20.1638C29.0656 20.3156 29.0035 20.3964 29.0035 20.5863C29.0034 20.8429 28.8358 21.0091 28.6899 21.1088C28.5442 21.2083 28.3629 21.2809 28.2354 21.3342C28.2221 21.3398 28.2093 21.3454 28.1971 21.3506C28.3148 21.4303 28.4105 21.5141 28.4754 21.6045C28.5618 21.725 28.6104 21.8858 28.5352 22.0478C28.4704 22.1872 28.3396 22.2656 28.2295 22.3111C28.1119 22.3596 27.9708 22.3899 27.8217 22.4065C27.7338 22.4163 27.5864 22.4696 27.387 22.578C27.1941 22.683 26.9735 22.8279 26.7456 22.9978C26.2888 23.3384 25.8199 23.7662 25.5021 24.1437C25.3603 24.3122 25.3031 24.4543 25.2836 24.5781C25.2635 24.705 25.2799 24.8334 25.3177 24.9818C25.3367 25.0567 25.3599 25.1318 25.3853 25.2149C25.41 25.2958 25.4368 25.3839 25.4589 25.4746C25.5036 25.6574 25.5333 25.8642 25.4956 26.0915C25.4565 26.3272 25.3184 26.587 25.153 26.8349C24.9833 27.0893 24.7661 27.3582 24.5398 27.6164C24.0877 28.1324 23.5817 28.6255 23.3133 28.8953C23.0423 29.1676 22.6914 29.5358 22.439 29.8837C22.312 30.0587 22.219 30.2165 22.1707 30.3459C22.1197 30.4827 22.1375 30.5349 22.1438 30.5461C22.2053 30.6542 22.2641 30.776 22.2681 30.901C22.2731 31.0611 22.1909 31.1717 22.0984 31.2448C22.0216 31.3055 21.9154 31.3575 21.8212 31.4048C21.7177 31.4568 21.5965 31.5179 21.4541 31.6037C21.1424 31.7917 20.5718 32.1151 20.1486 32.4451C19.9327 32.6134 19.7848 32.7614 19.7213 32.8734C19.7006 32.91 19.6959 32.9309 19.6948 32.9391C19.698 32.9428 19.7041 32.9491 19.716 32.9575C19.8812 33.0737 20.005 33.1938 20.0766 33.3229C20.1534 33.4615 20.17 33.6136 20.1085 33.7547C20.0529 33.8826 19.9485 33.9656 19.8575 34.0171C19.769 34.0672 19.671 34.1001 19.5808 34.1197C19.5767 34.1217 19.5672 34.1265 19.5514 34.1358C19.5198 34.1545 19.4766 34.1831 19.4218 34.222C19.3129 34.2995 19.1698 34.4097 19.0032 34.5448C18.6707 34.8144 18.2535 35.1753 17.8452 35.5518C17.4362 35.9289 17.0402 36.3178 16.7482 36.6437C16.6018 36.8072 16.4859 36.9498 16.4081 37.0642C16.3691 37.1214 16.3431 37.1668 16.3276 37.2003C16.3189 37.2192 16.3156 37.2299 16.3145 37.2335L16.3141 37.259C16.3013 37.6106 16.0927 37.9575 15.8434 38.2315C15.5802 38.5208 15.2337 38.7714 14.8939 38.908C14.5995 39.0263 13.9811 39.3331 13.2894 39.6553C12.6131 39.9703 11.8691 40.2987 11.3621 40.4353C10.8985 40.5601 10.6547 40.7356 10.5677 40.8751C10.529 40.9371 10.5235 40.9871 10.533 41.031C10.5436 41.0797 10.5792 41.1496 10.6732 41.2323C10.8399 41.3789 10.9283 41.5633 10.9218 41.7636C10.9156 41.9543 10.8247 42.1221 10.7098 42.252C10.4834 42.5081 10.1008 42.6903 9.72854 42.6903C9.43138 42.6903 8.96774 42.7053 8.513 42.7205C8.06251 42.7356 7.61891 42.751 7.37205 42.751C7.36661 42.751 7.33812 42.7542 7.28283 42.7841C7.22985 42.8128 7.16553 42.8589 7.09283 42.9239C6.94749 43.0541 6.78674 43.2439 6.63659 43.4702C6.33187 43.9296 6.10318 44.4892 6.10317 44.9371C6.10317 45.2123 6.075 45.42 6.02882 45.5924C5.98257 45.7651 5.92048 45.8931 5.8662 46.0022C5.8115 46.1122 5.76875 46.1958 5.73614 46.305C5.70426 46.4118 5.68021 46.5511 5.68021 46.7589C5.68021 47.2589 5.54527 47.6156 5.46518 47.8717C5.38459 48.1294 5.37231 48.2467 5.46223 48.3913C5.57713 48.576 5.58935 48.7646 5.54237 48.9378C5.49899 49.0976 5.40652 49.2396 5.32463 49.3533C5.23138 49.4827 5.16043 49.566 5.09486 49.668C5.03265 49.7648 5.01557 49.8218 5.01555 49.8559C5.01555 49.8559 5.01556 49.8582 5.01626 49.863C5.01701 49.8682 5.01844 49.8754 5.02086 49.8848C5.0258 49.9042 5.03412 49.9293 5.04694 49.9609C5.07285 50.0246 5.11221 50.1026 5.16401 50.1954C5.26941 50.384 5.40636 50.5989 5.55488 50.8464C5.69952 51.0874 5.84957 51.3506 5.96367 51.6111C6.0764 51.8685 6.16358 52.1441 6.16359 52.4064C6.16359 52.6758 6.07954 52.8783 5.9481 53.0389C5.82659 53.1874 5.66677 53.2947 5.54768 53.3792C5.41799 53.4712 5.32063 53.5458 5.25052 53.6425C5.18628 53.7311 5.13641 53.8511 5.1364 54.046C5.1364 54.3785 5.39525 54.5865 5.80683 54.8411C5.99175 54.9555 6.21239 55.0832 6.37908 55.2293C6.55082 55.3798 6.70738 55.585 6.7074 55.8677C6.7074 56.1151 6.61383 56.3217 6.49603 56.4971C6.38201 56.6668 6.23025 56.8277 6.10151 56.9715C5.82958 57.2751 5.6198 57.5475 5.61978 57.9324C5.61978 58.3652 5.768 58.847 6.13208 59.2196C6.493 59.5889 7.09042 59.8756 8.0367 59.8756C9.02155 59.8756 9.74753 59.7852 10.3243 59.592C10.8949 59.4009 11.3295 59.1057 11.7271 58.6776C12.1528 58.2192 12.8384 57.5147 13.5034 56.9232C13.8354 56.6279 14.1674 56.3561 14.4624 56.1568C14.6099 56.0572 14.753 55.9722 14.8859 55.9115C15.0147 55.8526 15.1537 55.807 15.2875 55.807C15.6993 55.807 16.0065 55.9821 16.2359 56.2588C16.4553 56.5233 16.6027 56.8789 16.7252 57.2484C16.8354 57.5805 16.9954 57.725 17.0839 57.757C17.1192 57.7698 17.1347 57.7634 17.1448 57.7573C17.1606 57.7478 17.1999 57.7137 17.2334 57.6128C17.3263 57.3325 17.9201 55.8177 18.4985 54.308C18.7892 53.5492 19.0775 52.7878 19.3005 52.175C19.4121 51.8684 19.5068 51.6003 19.5771 51.389C19.6495 51.1716 19.6907 51.0297 19.7022 50.9663C19.8201 50.3147 19.94 48.872 19.94 48.0949C19.94 47.7084 19.8808 47.0609 19.8195 45.9296C19.7589 44.8098 19.6983 43.2416 19.6983 41.0507C19.6983 39.2246 20.4404 38.0902 21.4132 37.4278C22.3659 36.7792 23.5155 36.5989 24.3423 36.6175C24.3676 36.6146 24.4418 36.5861 24.5204 36.37C24.595 36.1646 24.6386 35.875 24.6533 35.5612C24.6677 35.2507 24.6532 34.9342 24.621 34.6838C24.6049 34.5582 24.5851 34.4544 24.5642 34.3788C24.5537 34.341 24.5441 34.3145 24.5367 34.2978C24.5343 34.2926 24.5324 34.2893 24.5313 34.2874C24.4755 34.2251 24.4539 34.1523 24.4447 34.1009C24.4343 34.0429 24.4339 33.9822 24.4376 33.9258C24.4451 33.8124 24.4718 33.6775 24.5087 33.534C24.5831 33.2447 24.71 32.881 24.8589 32.5049C25.156 31.7548 25.5554 30.9187 25.8394 30.4746C26.0701 30.1139 26.1171 29.6604 26.0813 29.2216C26.0458 28.7856 25.9317 28.3972 25.8708 28.1829C25.8437 28.0877 25.8398 27.9722 25.904 27.8651C25.9634 27.7659 26.0565 27.7169 26.1255 27.6907C26.1962 27.6639 26.2747 27.6488 26.3453 27.6381C26.4167 27.6272 26.498 27.6184 26.5731 27.6094C26.9014 27.5701 27.1926 27.5126 27.3646 27.2965C27.6016 26.9988 28.0945 26.3082 28.5963 25.6129C29.0908 24.9277 29.5982 24.2317 29.85 23.947C30.3178 23.418 30.8161 22.6847 30.8162 21.6794C30.8162 20.5102 31.334 19.6076 31.8359 18.9771C32.1353 18.601 32.5899 18.4669 32.9827 18.3895C33.1731 18.352 33.392 18.3209 33.5542 18.2919C33.7317 18.2601 33.8733 18.2262 33.9808 18.1782C34.2341 18.065 34.5377 17.8833 34.7743 17.6387C35.0093 17.3958 35.1666 17.1042 35.1666 16.7606C35.1666 16.55 35.17 16.3691 35.192 16.2232C35.2141 16.0762 35.2599 15.9285 35.3734 15.8145C35.4868 15.7005 35.6337 15.6546 35.7799 15.6323C35.9252 15.6102 36.1051 15.6068 36.3146 15.6068C36.8159 15.6068 37.2649 15.8754 37.6266 16.098C37.8172 16.2152 37.9839 16.3209 38.1453 16.3998C38.306 16.4784 38.4373 16.5177 38.5503 16.5177C38.8314 16.5177 39.0789 16.4288 39.2578 16.2374C39.4376 16.045 39.5775 15.7174 39.5775 15.1817C39.5775 14.5805 39.6868 14.1023 39.9034 13.7667C40.1278 13.4191 40.4596 13.2385 40.8464 13.2385C40.9284 13.2385 41.0119 13.2068 41.1164 13.1324C41.2269 13.0536 41.3301 12.9509 41.469 12.8236C41.7297 12.5848 42.084 12.29 42.6159 12.3282C42.9291 12.3507 43.1704 12.5563 43.3519 12.7964C43.5358 13.0396 43.6889 13.3576 43.8201 13.6872C43.9522 14.0191 44.0677 14.3779 44.1716 14.7092C44.277 15.045 44.3687 15.3471 44.4564 15.5821C44.5544 15.8448 44.8323 16.0027 45.2382 16.0683C45.6294 16.1315 46.0649 16.0941 46.348 16.0383C46.356 16.0359 46.3671 16.0327 46.3809 16.0287C46.41 16.0203 46.4515 16.0087 46.5023 15.9957C46.6034 15.9698 46.7433 15.9377 46.8963 15.9134C47.0481 15.8893 47.2201 15.8717 47.3836 15.8783C47.541 15.8846 47.7229 15.9142 47.8686 16.0119C47.9638 16.0756 48.0998 16.1816 48.2259 16.2736C48.3608 16.3721 48.5044 16.4701 48.6473 16.5453C48.7926 16.6218 48.9199 16.6653 49.024 16.6718C49.118 16.6776 49.1905 16.6541 49.2555 16.5887C49.7086 16.1334 50.7151 14.7129 51.2481 12.8083C51.8155 10.7809 53.0834 9.82366 54.0917 9.31698C54.6571 9.03287 55.203 9.10993 55.6697 9.31093C56.1277 9.50819 56.5301 9.83361 56.8281 10.0732C57.1814 10.3572 57.4424 10.8318 57.6149 11.3203C57.7893 11.8143 57.8856 12.3579 57.8856 12.8134C57.8856 13.1875 57.8252 13.8271 57.8774 14.5228C57.9156 15.0314 58.0127 15.5104 58.2104 15.8711C58.7857 14.0902 59.6855 13.336 59.9202 12.9822L59.9347 12.9616C60.0102 12.8599 60.1252 12.7914 60.2682 12.8022C60.3904 12.8114 60.4928 12.8774 60.5631 12.9319C60.7075 13.0438 60.8688 13.2331 61.0152 13.3993C61.1724 13.5778 61.328 13.7492 61.4839 13.8721C61.5566 13.9295 61.6206 13.9689 61.6766 13.9941C61.6782 13.948 61.6779 13.8928 61.6733 13.8281C61.6585 13.6197 61.6038 13.3288 61.4659 12.9594C61.3905 12.7572 61.2353 12.5254 61.0047 12.2681C60.776 12.0129 60.4839 11.7443 60.149 11.4676C59.4785 10.9136 58.6567 10.3427 57.8689 9.7946L58.1146 9.3777C59.3849 10.016 60.4801 9.67299 60.84 9.4491L60.8699 9.4306L60.9036 9.42135C60.9334 9.41318 60.9871 9.3851 61.0601 9.31579C61.1307 9.2487 61.2073 9.15447 61.284 9.03624C61.4374 8.79971 61.5789 8.48684 61.671 8.1556C61.7635 7.82318 61.8021 7.48764 61.7643 7.20273C61.7268 6.91994 61.6178 6.70672 61.4321 6.57496C60.9405 6.2262 60.6072 6.11548 60.3223 6.10303C60.0255 6.09006 59.7527 6.17939 59.3464 6.30501C58.9946 6.41381 58.544 6.7089 58.0644 7.02803C57.832 7.1827 57.5957 7.34051 57.3756 7.47054C57.1583 7.59888 56.9388 7.71131 56.7397 7.76492C56.3891 7.85934 56.0296 7.87383 55.7739 7.61749C55.5811 7.42418 55.4991 7.12156 55.476 6.74788C55.414 6.82923 55.3402 6.90505 55.2602 6.97252C55.0141 7.18002 54.6648 7.34814 54.3207 7.34814C54.0969 7.34814 53.9321 7.2378 53.8132 7.11212C53.7008 6.99326 53.6112 6.84058 53.54 6.7225C53.461 6.59139 53.401 6.49667 53.3368 6.43417C53.3132 6.41121 53.2926 6.39633 53.2733 6.38697C53.2846 6.40872 53.298 6.43255 53.3132 6.45861C53.3646 6.54679 53.4584 6.69058 53.5143 6.79805C53.5446 6.85635 53.576 6.92528 53.5934 6.99672C53.6101 7.06561 53.6219 7.17043 53.5701 7.27449C53.5223 7.37068 53.3088 7.9079 52.971 8.39744C52.6386 8.8791 52.1222 9.41281 51.4204 9.41281C50.8644 9.41281 50.4889 9.12489 50.2569 8.7829C50.0309 8.44966 49.9336 8.05785 49.9108 7.79421L49.9098 7.78366V7.77322C49.9098 7.39182 50.1174 6.97868 50.3754 6.59073C50.6396 6.19336 50.9887 5.77683 51.3282 5.38251C51.6724 4.98283 52.0043 4.60851 52.2531 4.27889C52.377 4.11472 52.4743 3.96921 52.5399 3.84421C52.6077 3.71479 52.6288 3.63063 52.6288 3.58316ZM56.4959 3.82606C56.2861 3.82606 56.0871 3.94218 55.8933 4.12992C55.6968 4.3204 55.5514 4.53606 55.4157 4.70646C55.4069 4.71762 55.3831 4.76698 55.3814 4.89113C55.3798 5.00652 55.3975 5.14918 55.4278 5.30518C55.4727 5.53631 55.5381 5.76575 55.5908 5.94979C55.7331 5.663 55.9814 5.47012 56.2355 5.3289C56.4269 5.22246 56.6355 5.13723 56.8148 5.06144C57.0023 4.9822 57.1545 4.91451 57.2682 4.83835C57.3177 4.80516 57.3408 4.76176 57.3342 4.67847C57.3265 4.58233 57.2764 4.45234 57.1807 4.31317C57.0871 4.17682 56.9622 4.05008 56.8315 3.95937C56.6973 3.86616 56.5791 3.82606 56.4959 3.82606ZM27.6742 16.3962C27.6742 16.4167 27.6753 16.4327 27.6766 16.445C27.6891 16.4424 27.7054 16.4384 27.7261 16.4315C27.8035 16.4055 27.8974 16.3571 27.9986 16.2976C28.1099 16.2321 28.1802 16.1842 28.2749 16.1271C28.3972 16.0534 28.5389 16.0261 28.6736 16.0164C28.721 16.0129 28.7703 16.0115 28.821 16.0116C28.6652 15.9883 28.3776 15.993 28.1134 16.0631C27.965 16.1025 27.8468 16.1569 27.7705 16.2195C27.6999 16.2774 27.6742 16.3331 27.6742 16.3962ZM53.1122 3.58316C53.1122 3.74821 53.0484 3.9164 52.9675 4.07062C52.8844 4.22932 52.7693 4.39883 52.6383 4.57244C52.3772 4.91839 52.0294 5.31073 51.6938 5.70049C51.3536 6.09558 51.0229 6.49128 50.7773 6.86056C50.5288 7.23434 50.3968 7.53932 50.3934 7.76432C50.4129 7.96624 50.491 8.26554 50.6564 8.50928C50.8191 8.74924 51.058 8.927 51.4204 8.927C51.8666 8.927 52.2566 8.58007 52.5737 8.12049C52.8613 7.70371 53.0364 7.27586 53.1191 7.09694C53.1134 7.08049 53.1031 7.05638 53.0859 7.02328C53.0342 6.92392 52.9731 6.83618 52.8961 6.70424C52.8621 6.64583 52.8271 6.58149 52.8001 6.51696C52.7742 6.45516 52.7479 6.37521 52.7469 6.28924C52.7457 6.19413 52.7766 6.08663 52.8681 6.00435C52.9502 5.9305 53.0537 5.90246 53.146 5.89215C53.3726 5.86685 53.5463 5.96187 53.6731 6.08536C53.7902 6.19933 53.8813 6.35133 53.9533 6.4707C54.0332 6.60312 54.0946 6.70474 54.1635 6.77753C54.2259 6.84351 54.2726 6.86234 54.3207 6.86234C54.5203 6.86234 54.7634 6.75716 54.9495 6.60034C55.0404 6.52364 55.1061 6.44401 55.143 6.37511C55.181 6.30426 55.1775 6.26732 55.1749 6.25722C55.1305 6.09097 55.0188 5.73538 54.9534 5.39828C54.9203 5.22789 54.8958 5.04793 54.898 4.88437C54.9001 4.72963 54.9263 4.54364 55.0383 4.40295C55.1444 4.26971 55.3313 3.99956 55.5577 3.78016C55.7869 3.55801 56.1015 3.34025 56.4959 3.34025C56.7148 3.34025 56.929 3.43667 57.1063 3.55979C57.2872 3.68541 57.4531 3.85472 57.5785 4.03717C57.7019 4.21679 57.799 4.42841 57.8159 4.63969C57.8338 4.86379 57.7587 5.0937 57.5363 5.24267C57.3781 5.34868 57.1829 5.43282 57.0022 5.50918C56.8133 5.58899 56.6329 5.66319 56.4694 5.75409C56.1495 5.93195 55.9521 6.13999 55.9521 6.49798C55.9521 6.98073 56.0322 7.19029 56.1152 7.27354C56.1767 7.33521 56.3006 7.38016 56.6146 7.2956C56.7479 7.25971 56.9211 7.1755 57.1306 7.05175C57.3372 6.92969 57.5617 6.77992 57.7975 6.62299C58.2545 6.3189 58.7707 5.97478 59.2043 5.84068C59.5836 5.7234 59.9452 5.60019 60.3433 5.61758C60.7532 5.63549 61.1752 5.79805 61.7108 6.17799C62.0387 6.41058 62.1941 6.76668 62.2434 7.13857C62.2925 7.50834 62.2404 7.91292 62.1365 8.28642C62.0323 8.6611 61.8716 9.02003 61.689 9.30156C61.5977 9.44233 61.4976 9.56874 61.3922 9.66888C61.2981 9.75827 61.1882 9.83748 61.066 9.87904C60.7395 10.0719 60.1022 10.2831 59.3122 10.218C59.7143 10.5085 60.1048 10.8022 60.4561 11.0925C60.801 11.3775 61.1131 11.6631 61.364 11.943C61.613 12.2208 61.8128 12.5052 61.9186 12.7888C62.0708 13.1966 62.1369 13.5334 62.1554 13.7936C62.1732 14.0456 62.1475 14.2448 62.0957 14.3664L62.0402 14.4966L61.9002 14.5122C61.6228 14.5432 61.3762 14.4047 61.1854 14.2542C60.9901 14.1001 60.8073 13.8961 60.6533 13.7214C60.4917 13.5379 60.3705 13.3981 60.2733 13.3211C59.9117 13.8106 59.048 14.5384 58.5423 16.4584L58.4389 16.8507L58.1437 16.5738C57.6185 16.0812 57.4488 15.2712 57.3954 14.5593C57.3419 13.8462 57.4023 13.1195 57.4023 12.8134C57.4023 12.4188 57.3173 11.93 57.1594 11.4827C56.9995 11.03 56.7772 10.6544 56.5262 10.4526C56.22 10.2064 55.8671 9.92455 55.4792 9.75747C55.1 9.59413 54.7093 9.54975 54.3079 9.75143C53.3827 10.2164 52.2338 11.0809 51.7135 12.9399C51.1589 14.9217 50.111 16.416 49.5973 16.9323C49.4207 17.1098 49.2061 17.1699 48.9943 17.1567C48.7925 17.1442 48.595 17.0663 48.4231 16.9757C48.2488 16.884 48.0827 16.7695 47.9419 16.6668C47.7924 16.5577 47.6866 16.4739 47.6005 16.4162C47.565 16.3924 47.4901 16.3688 47.3643 16.3638C47.2445 16.3589 47.1069 16.3717 46.9716 16.3932C46.8377 16.4144 46.7132 16.443 46.6217 16.4665C46.5762 16.4781 46.5393 16.4884 46.5142 16.4956C46.5017 16.4993 46.492 16.5022 46.4858 16.5041C46.4826 16.505 46.4803 16.5056 46.4789 16.5061C46.4782 16.5063 46.4778 16.5065 46.4775 16.5065L46.4773 16.5067V16.5065L46.4652 16.5105L46.4527 16.513C46.1313 16.5776 45.6297 16.6236 45.1614 16.5479C44.7034 16.4739 44.1957 16.2674 44.0037 15.7528C43.9101 15.502 43.8131 15.1817 43.7107 14.8552C43.6069 14.5243 43.4959 14.1809 43.3712 13.8676C43.2455 13.552 43.1116 13.2817 42.967 13.0904C42.8199 12.8959 42.6911 12.8206 42.5814 12.8127C42.2673 12.7902 42.0477 12.9509 41.7947 13.1827C41.6768 13.2907 41.5383 13.4271 41.3958 13.5286C41.2473 13.6345 41.0665 13.7243 40.8464 13.7243C40.6289 13.7243 40.4471 13.8169 40.3089 14.031C40.163 14.2571 40.0609 14.6292 40.0609 15.1817C40.0609 15.7998 39.8986 16.2615 39.6102 16.5701C39.3208 16.8798 38.9339 17.0035 38.5503 17.0035C38.331 17.0035 38.1223 16.9288 37.9338 16.8366C37.7458 16.7447 37.5538 16.6227 37.3743 16.5122C36.9958 16.2794 36.6593 16.0926 36.3146 16.0926C36.1013 16.0926 35.9564 16.0967 35.8524 16.1125C35.7494 16.1282 35.7225 16.1506 35.7151 16.1581C35.7077 16.1656 35.6855 16.1926 35.6699 16.2959C35.6542 16.4004 35.65 16.5461 35.65 16.7606C35.65 17.2671 35.4145 17.6738 35.1208 17.9774C34.8288 18.2793 34.4677 18.4923 34.1772 18.6221C34.0128 18.6955 33.822 18.7375 33.6389 18.7702C33.4405 18.8057 33.2704 18.8278 33.0756 18.8662C32.698 18.9406 32.3973 19.0494 32.2133 19.2806C31.7484 19.8646 31.2995 20.6624 31.2995 21.6794C31.2995 22.86 30.7102 23.7056 30.2113 24.2697C29.9798 24.5315 29.4901 25.2019 28.9877 25.8981C28.4925 26.5843 27.9884 27.2904 27.742 27.6C27.4307 27.9911 26.9363 28.0551 26.6302 28.0917C26.5467 28.1017 26.4789 28.1091 26.4176 28.1184C26.3943 28.1219 26.3745 28.1254 26.3577 28.1289C26.4227 28.3582 26.5276 28.7469 26.5631 29.1818C26.6028 29.6691 26.5591 30.2479 26.2461 30.7373C25.9863 31.1434 25.6002 31.9469 25.3081 32.6846C25.1625 33.0524 25.0439 33.3946 24.9767 33.6556C24.9428 33.7873 24.9246 33.8887 24.9201 33.9579C24.919 33.9748 24.9188 33.9876 24.919 33.9968C24.9452 34.0319 24.9641 34.0685 24.9777 34.0989C24.9982 34.1449 25.0153 34.1962 25.0298 34.2487C25.059 34.3541 25.0825 34.4823 25.1004 34.6216C25.1362 34.901 25.1519 35.2459 25.1362 35.5839C25.1206 35.9185 25.0735 36.2644 24.9745 36.5367C24.8825 36.7895 24.7028 37.0871 24.3623 37.1033L24.3535 37.1038L24.3448 37.1035C23.5815 37.0841 22.5336 37.2518 21.6844 37.83C20.8496 38.3983 20.1817 39.3791 20.1817 41.0507C20.1817 43.2321 20.242 44.7914 20.3022 45.9032C20.3618 47.0035 20.4234 47.6919 20.4234 48.0949C20.4234 48.8966 20.3016 50.3688 20.1778 51.0532C20.1591 51.1568 20.1059 51.3317 20.0355 51.5432C19.9631 51.7607 19.8666 52.0336 19.7544 52.3419C19.5299 52.9587 19.2404 53.7231 18.9495 54.4824C18.3648 56.0089 17.7803 57.5001 17.692 57.7664C17.6348 57.9387 17.5382 58.0868 17.3935 58.174C17.2431 58.2647 17.0735 58.2696 16.9201 58.2141C16.6309 58.1095 16.3981 57.7986 16.2666 57.402C16.1475 57.0428 16.023 56.7607 15.8647 56.5698C15.7165 56.3911 15.5402 56.2928 15.2875 56.2928C15.255 56.2928 15.1901 56.3062 15.086 56.3538C14.9859 56.3995 14.867 56.4688 14.7322 56.5599C14.4627 56.742 14.1488 56.9978 13.8237 57.287C13.1746 57.8644 12.5006 58.5567 12.0804 59.0091C11.6321 59.4919 11.1301 59.8342 10.4772 60.0529C9.8304 60.2696 9.0458 60.3614 8.0367 60.3614C6.98902 60.3614 6.25714 60.0409 5.78724 59.56C5.32054 59.0824 5.1364 58.4712 5.1364 57.9324C5.13642 57.3458 5.47043 56.9501 5.74228 56.6465C5.88542 56.4867 6.0056 56.3592 6.0955 56.2253C6.18162 56.0971 6.22401 55.9848 6.22401 55.8677C6.224 55.7862 6.18417 55.703 6.06139 55.5954C5.93354 55.4834 5.76138 55.3834 5.55358 55.2549C5.17968 55.0237 4.65302 54.685 4.65302 54.046C4.65302 53.7551 4.73155 53.5334 4.85989 53.3564C4.98237 53.1875 5.14185 53.0724 5.26893 52.9822C5.40662 52.8845 5.50362 52.8171 5.5747 52.7303C5.63583 52.6556 5.68021 52.562 5.68021 52.4064C5.6802 52.2436 5.62388 52.0409 5.52136 51.8068C5.42022 51.5759 5.28323 51.3344 5.14088 51.0972C5.00241 50.8665 4.85232 50.6297 4.74247 50.4332C4.68667 50.3333 4.63631 50.2353 4.59944 50.1446C4.56437 50.0583 4.53217 49.9567 4.53217 49.8559C4.53218 49.6775 4.61331 49.522 4.68889 49.4044C4.76116 49.292 4.86772 49.1589 4.93306 49.0683C5.00976 48.9618 5.05703 48.8798 5.07598 48.8101C5.0913 48.7536 5.0884 48.7069 5.05226 48.6488C4.84007 48.3076 4.91842 47.9996 5.00399 47.726C5.09007 47.4507 5.19682 47.1697 5.19682 46.7589C5.19683 46.5114 5.22565 46.3242 5.27306 46.1654C5.31976 46.009 5.38275 45.8875 5.43379 45.7849C5.48523 45.6815 5.52891 45.5895 5.56196 45.4661C5.59508 45.3425 5.61978 45.1782 5.61978 44.9371C5.6198 44.3528 5.9047 43.6978 6.2344 43.2008C6.40144 42.949 6.58818 42.7251 6.77136 42.5611C6.8629 42.4792 6.95818 42.4081 7.05388 42.3563C7.14729 42.3058 7.25666 42.2652 7.37205 42.2652C7.60857 42.2652 8.04111 42.2504 8.49695 42.2351C8.94855 42.22 9.42148 42.2045 9.72854 42.2045C9.96054 42.2045 10.2123 42.0832 10.3485 41.9293C10.4148 41.8543 10.4372 41.7906 10.4386 41.7479C10.4397 41.7148 10.4298 41.6639 10.3548 41.5979C10.2072 41.4681 10.0993 41.3125 10.0608 41.1342C10.0212 40.9513 10.061 40.773 10.1582 40.6171C10.3431 40.3207 10.7338 40.1015 11.237 39.9659C11.6968 39.8421 12.4029 39.5328 13.0861 39.2146C13.7539 38.9036 14.4044 38.5815 14.7143 38.4569C14.9787 38.3506 15.2666 38.1456 15.4868 37.9036C15.7128 37.6552 15.8313 37.4084 15.8313 37.225C15.8313 37.1389 15.8604 37.0583 15.8891 36.996C15.9198 36.9294 15.9615 36.8598 16.009 36.79C16.1042 36.65 16.2362 36.4891 16.389 36.3186C16.6955 35.9765 17.104 35.5759 17.5183 35.1939C17.9332 34.8113 18.3582 34.4436 18.6997 34.1667C18.8702 34.0285 19.0222 33.9111 19.1428 33.8253C19.2029 33.7826 19.2582 33.7456 19.3058 33.7174C19.3439 33.6948 19.4059 33.6597 19.4696 33.6469C19.5261 33.6356 19.5802 33.6165 19.6203 33.5938C19.6399 33.5827 19.6514 33.5732 19.6581 33.567C19.657 33.5648 19.6559 33.5622 19.6543 33.5593C19.6333 33.5214 19.5759 33.4517 19.4389 33.3554C19.3205 33.2721 19.2341 33.1547 19.2148 33.0048C19.1968 32.8644 19.2432 32.7357 19.3015 32.633C19.4155 32.4318 19.6302 32.2344 19.8523 32.0612C20.3052 31.708 20.9129 31.3634 21.2054 31.1871C21.3651 31.0908 21.5008 31.0227 21.605 30.9704C21.6891 30.9281 21.7396 30.9018 21.7719 30.8818C21.7632 30.8613 21.7488 30.8306 21.7242 30.7873C21.6096 30.5858 21.6502 30.357 21.718 30.1753C21.7887 29.9858 21.9109 29.7869 22.0483 29.5975C22.3246 29.2168 22.6988 28.8258 22.9716 28.5517C23.247 28.2749 23.738 27.7964 24.1771 27.2953C24.3965 27.0449 24.5984 26.7939 24.7516 26.5643C24.9091 26.3283 24.9975 26.1403 25.0189 26.0116C25.0416 25.8746 25.026 25.7398 24.9895 25.5905C24.971 25.5151 24.9482 25.4395 24.9231 25.3575C24.8987 25.2776 24.8719 25.1905 24.8494 25.1022C24.8041 24.9242 24.7713 24.7223 24.8061 24.502C24.8413 24.2785 24.9427 24.0563 25.1332 23.83C25.48 23.4181 25.978 22.9654 26.4577 22.6077C26.6981 22.4284 26.9382 22.2697 27.1569 22.1507C27.3691 22.0353 27.5843 21.9442 27.7683 21.9237C27.8911 21.91 27.9841 21.8871 28.0459 21.8617C28.0496 21.8602 28.0529 21.8585 28.0562 21.857C28.0203 21.8201 27.9569 21.7688 27.8519 21.7055C27.7684 21.6551 27.6773 21.588 27.6252 21.4936C27.5959 21.4405 27.5769 21.3747 27.5838 21.3016C27.5905 21.2299 27.6202 21.1724 27.6519 21.1307C27.7087 21.0558 27.7903 21.0077 27.8469 20.9778C27.9098 20.9447 27.9827 20.9137 28.0494 20.8858C28.1939 20.8253 28.3223 20.7726 28.4182 20.707C28.5139 20.6417 28.5201 20.6029 28.5201 20.5863C28.5201 20.2297 28.6694 20.0371 28.7752 19.8852C28.8262 19.812 28.8648 19.7522 28.8934 19.6784C28.9212 19.6065 28.943 19.5115 28.943 19.3718C28.943 18.9483 29.2013 18.4797 29.5597 18.1278C29.9234 17.7705 30.434 17.4893 30.9974 17.4893C31.4184 17.4893 32.054 17.2558 32.6045 16.9568C32.8748 16.81 33.1101 16.6551 33.2741 16.5197C33.3567 16.4516 33.4147 16.3936 33.4499 16.3492C33.463 16.3326 33.4702 16.3209 33.4742 16.3141C33.4717 16.2705 33.4616 16.2447 33.4505 16.2271C33.4375 16.2067 33.41 16.1771 33.3433 16.1461C33.1981 16.0788 32.9268 16.0319 32.4476 16.0319C32.0144 16.0319 31.704 16.1521 31.3759 16.287C31.0487 16.4215 30.6892 16.5784 30.2119 16.5784C29.7773 16.5784 29.3801 16.5312 29.0841 16.5094C28.9313 16.4982 28.808 16.4936 28.7083 16.5009C28.607 16.5082 28.5523 16.5265 28.5236 16.5438C28.4672 16.5778 28.3412 16.659 28.2429 16.7168C28.1345 16.7806 28.0055 16.8499 27.879 16.8923C27.7653 16.9304 27.5859 16.9705 27.4247 16.8815C27.2417 16.7804 27.1908 16.5811 27.1908 16.3962C27.1908 16.1557 27.3085 15.9714 27.4646 15.8433C27.6148 15.7199 27.8064 15.6422 27.9902 15.5934C28.352 15.4975 28.7738 15.4918 29.0056 15.5543C29.0517 15.5667 29.1594 15.5469 29.2873 15.3952C29.4067 15.2536 29.4868 15.0557 29.4869 14.8781C29.4869 14.7867 29.4699 14.7334 29.4535 14.7028C29.4381 14.6741 29.4167 14.6529 29.3845 14.635C29.3078 14.5921 29.1829 14.5745 29.0035 14.5745C28.9376 14.5745 28.8499 14.5645 28.7707 14.5136C28.6775 14.4537 28.6297 14.359 28.6219 14.2618C28.6152 14.1784 28.6379 14.1011 28.6613 14.0424C28.6862 13.9803 28.7213 13.9163 28.7615 13.8524C28.9189 13.6028 29.2213 13.2529 29.6118 12.8303C29.9954 12.4151 30.2527 12.1242 30.4637 11.9448C30.5736 11.8513 30.6824 11.7775 30.8029 11.7286C30.9257 11.6787 31.0481 11.6597 31.1787 11.6597C31.369 11.6597 31.517 11.7488 31.613 11.8893C31.6985 12.0144 31.7372 12.1709 31.7578 12.316C31.7988 12.6044 31.7829 12.9846 31.7829 13.2992C31.7829 13.4024 31.8263 13.5348 31.9237 13.6866C32.0195 13.8359 32.157 13.9873 32.3168 14.1234C32.4763 14.2593 32.6518 14.3747 32.8184 14.455C32.9886 14.5371 33.1325 14.5745 33.2331 14.5745C33.5313 14.5745 33.7552 14.5415 33.903 14.446C34.0263 14.3664 34.1394 14.2137 34.1394 13.8458C34.1394 13.5029 33.9575 13.1974 33.7242 12.8302C33.5085 12.4905 33.2331 12.0784 33.2331 11.5989C33.2331 11.1516 33.3727 10.7683 33.7021 10.5054C34.0204 10.2513 34.4775 10.1415 35.0458 10.1415C35.5924 10.1415 35.9341 10.1133 36.2119 9.98211C36.4798 9.85555 36.7205 9.61604 37.0116 9.10918C37.3188 8.57454 37.634 8.12751 37.9593 7.81141C38.2826 7.49717 38.6421 7.28742 39.0337 7.28742C39.167 7.28742 39.299 7.33868 39.413 7.39819C39.5316 7.46014 39.6565 7.54502 39.7818 7.64015C40.032 7.83024 40.3082 8.08076 40.5714 8.3226C40.839 8.56846 41.0924 8.80467 41.3097 8.98085C41.4182 9.06882 41.5108 9.13612 41.5861 9.18034C41.6478 9.21659 41.6803 9.22663 41.6902 9.22945C41.6975 9.22684 41.719 9.21836 41.7571 9.19114C41.8133 9.151 41.8825 9.08707 41.9642 8.99829C42.1273 8.82097 42.3125 8.57534 42.5094 8.30516C42.7028 8.03979 42.9075 7.75084 43.0996 7.5047C43.2877 7.26365 43.4847 7.03554 43.6685 6.90622C44.2715 6.48203 44.9384 6.27912 45.4133 6.25698C45.4045 6.23144 45.3945 6.20328 45.3829 6.17075C45.3655 6.12178 45.3456 6.06552 45.3273 6.00566C45.2909 5.88651 45.2573 5.74273 45.2572 5.5871C45.2572 5.30762 45.3266 4.99704 45.5473 4.75497C45.772 4.50868 46.1172 4.37259 46.5865 4.37259C46.8426 4.37259 47.0337 4.43814 47.1839 4.54065C47.3246 4.63669 47.4199 4.76159 47.4778 4.82993C47.5473 4.91203 47.5643 4.915 47.5685 4.91592C47.5729 4.91683 47.6288 4.92658 47.795 4.83017C47.9588 4.73511 48.1948 4.55374 48.4817 4.31815C48.7684 4.0828 49.0809 3.81458 49.4112 3.5401C49.7365 3.26984 50.0704 3.00107 50.3781 2.78376C50.6796 2.57086 50.9795 2.39 51.2331 2.31717C51.7074 2.18099 52.1743 2.225 52.5314 2.45167C52.8948 2.68238 53.1122 3.08258 53.1122 3.58316Z" fill="var(--fill-0, black)"/>
<g id="Union">
<path d="M4.83398 8.25879C5.36786 8.25879 5.8007 8.69393 5.80078 9.23047C5.80078 9.76707 5.36792 10.2021 4.83398 10.2021H0.966797C0.433059 10.2019 0 9.76693 0 9.23047C8.23383e-05 8.69407 0.43311 8.25902 0.966797 8.25879H4.83398Z" fill="var(--fill-0, #FAF8F6)"/>
<path d="M24.1699 4.61523C24.7037 4.61539 25.1366 5.05049 25.1367 5.58691C25.1367 6.12342 24.7037 6.55844 24.1699 6.55859H0.966797C0.433059 6.55837 0 6.12338 0 5.58691C9.41222e-05 5.05053 0.433117 4.61546 0.966797 4.61523H24.1699Z" fill="var(--fill-0, #FAF8F6)"/>
<path d="M2.29688 0.97168C2.83058 0.971871 3.26357 1.40696 3.26367 1.94336C3.26367 2.47985 2.83064 2.91485 2.29688 2.91504H0.966797C0.433059 2.91481 0 2.47982 0 1.94336C0.000104625 1.40698 0.433123 0.971907 0.966797 0.97168H2.29688Z" fill="var(--fill-0, #FAF8F6)"/>
</g>
<g id="Union_2">
<path d="M5.68066 7.40918C6.68152 7.40943 7.49308 8.22456 7.49316 9.23047C7.49316 10.2364 6.68157 11.0525 5.68066 11.0527C4.67954 11.0527 3.86719 10.2366 3.86719 9.23047C3.86727 8.22441 4.67959 7.40918 5.68066 7.40918Z" fill="var(--fill-0, #ED7F17)"/>
<path d="M25.0156 3.64355C26.0167 3.64359 26.8281 4.45971 26.8281 5.46582C26.828 6.47185 26.0167 7.28707 25.0156 7.28711C24.0146 7.28711 23.2032 6.47187 23.2031 5.46582C23.2031 4.45969 24.0145 3.64355 25.0156 3.64355Z" fill="var(--fill-0, #ED7F17)"/>
<path d="M3.98828 0C4.9894 0 5.80078 0.816132 5.80078 1.82227C5.8007 2.82833 4.98935 3.64355 3.98828 3.64355C2.98725 3.64351 2.17587 2.8283 2.17578 1.82227C2.17578 0.81616 2.9872 4.58965e-05 3.98828 0Z" fill="var(--fill-0, #ED7F17)"/>
</g>
</g>
</svg>
