<svg xmlns="http://www.w3.org/2000/svg" fill="none" viewBox="0 0 80 80">
  <path fill="#fff" d="M0 12C0 5.373 5.373 0 12 0h56c6.627 0 12 5.373 12 12v56c0 6.627-5.373 12-12 12H12C5.373 80 0 74.627 0 68V12Z"/>
  <path fill="#F07C21" fill-rule="evenodd" d="M32.615 53.138a1.366 1.366 0 0 1 1.32 1.32v5.766a1.32 1.32 0 0 1-1.32 1.32H26.85a1.32 1.32 0 0 1-1.32-1.32v-5.766a1.32 1.32 0 0 1 1.32-1.32h5.765Zm-4.446 5.696h3.126v-3.126h-3.126v3.126Zm15.213-5.696a1.28 1.28 0 0 1 1.32 1.32v5.766a1.322 1.322 0 0 1-1.32 1.32h-5.765a1.321 1.321 0 0 1-1.32-1.32v-5.766a1.32 1.32 0 0 1 1.32-1.32h5.765Zm-4.376 5.696h3.126v-3.126h-3.126v3.126Zm15.213-16.532a1.32 1.32 0 0 1 1.32 1.32v16.532a1.321 1.321 0 0 1-1.32 1.32h-5.766a1.32 1.32 0 0 1-1.32-1.32V43.621a1.319 1.319 0 0 1 1.32-1.32h5.766Zm-4.446 16.532H52.9V44.941h-3.126v13.893ZM32.615 42.302a1.365 1.365 0 0 1 1.32 1.32v5.765a1.32 1.32 0 0 1-1.32 1.32H26.85a1.321 1.321 0 0 1-1.32-1.32V43.62a1.32 1.32 0 0 1 1.32-1.32h5.765Zm-4.446 5.766h3.126V44.94h-3.126v3.127Zm15.213-5.766a1.28 1.28 0 0 1 1.231.807c.065.163.095.337.09.512v5.766a1.321 1.321 0 0 1-1.321 1.32h-5.765a1.321 1.321 0 0 1-1.32-1.32V43.62a1.319 1.319 0 0 1 1.32-1.32h5.765Zm-4.376 5.766h3.126V44.94h-3.126v3.127Zm-6.391-16.603a1.42 1.42 0 0 1 1.32 1.32v5.766a1.32 1.32 0 0 1-1.32 1.32H26.85a1.32 1.32 0 0 1-1.32-1.32v-5.766a1.321 1.321 0 0 1 1.32-1.32h5.765Zm-4.446 5.766h3.126v-3.126h-3.126v3.126Zm15.213-5.766a1.32 1.32 0 0 1 1.32 1.32v5.766a1.32 1.32 0 0 1-1.32 1.32h-5.765a1.321 1.321 0 0 1-1.32-1.32v-5.766a1.32 1.32 0 0 1 1.32-1.32h5.765Zm-4.376 5.766h3.126v-3.126h-3.126v3.126Zm15.213-5.766a1.367 1.367 0 0 1 1.32 1.32v5.766a1.322 1.322 0 0 1-1.32 1.32h-5.766a1.32 1.32 0 0 1-1.32-1.32v-5.766a1.32 1.32 0 0 1 1.32-1.32h5.766Zm-4.446 2.64v3.126H52.9v-3.126h-3.126Zm4.446-17.575a1.305 1.305 0 0 1 1.32 1.25v9.865a1.322 1.322 0 0 1-1.32 1.319h-27.37a1.32 1.32 0 0 1-1.32-1.32V17.85a1.321 1.321 0 0 1 1.32-1.32h27.37Zm-26.05 9.725h11.532l7.224-7.155h-5.557l-5.488 5.488c-.246.226-.57.35-.903.348a1.15 1.15 0 0 1-.903-.348 1.39 1.39 0 0 1 0-1.876l3.613-3.612h-9.518v7.155Zm15.213 0h9.517V19.1h-2.362l-7.155 7.155Z" clip-rule="evenodd"/>
  <path fill="#F07C21" fill-rule="evenodd" d="M55.54 10a6.42 6.42 0 0 1 6.459 6.53v44.944a6.524 6.524 0 0 1-6.53 6.53H25.53a6.522 6.522 0 0 1-6.53-6.53V16.53A6.524 6.524 0 0 1 25.53 10h30.01Zm-30.01 2.64a3.885 3.885 0 0 0-3.89 3.89v44.944a3.885 3.885 0 0 0 3.89 3.89h30.01a3.882 3.882 0 0 0 3.889-3.89h-.07V16.53a3.887 3.887 0 0 0-3.89-3.89H25.53Z" clip-rule="evenodd"/>
</svg>
