<svg preserveAspectRatio="xMidYMid meet" width="100%" height="100%" overflow="visible" style="display: block;" viewBox="0 0 43 58.004" fill="none" xmlns="http://www.w3.org/2000/svg">
<g id="Logo">
<path fill-rule="evenodd" clip-rule="evenodd" d="M13.6152 43.1378C13.9617 43.1491 14.2909 43.2921 14.5361 43.5372C14.7812 43.7823 14.9233 44.1117 14.9346 44.4581V50.2238C14.9345 50.5737 14.7963 50.9099 14.5488 51.1574C14.3012 51.4048 13.9652 51.5431 13.6152 51.5431H7.84961C7.49959 51.5431 7.16352 51.4048 6.91602 51.1574C6.66852 50.9099 6.52933 50.5737 6.5293 50.2238V44.4581C6.5293 44.1081 6.66852 43.772 6.91602 43.5245C7.16353 43.277 7.49956 43.1378 7.84961 43.1378H13.6152ZM9.16895 48.8341H12.2949V45.7081H9.16895V48.8341Z" fill="var(--fill-0, #F07C21)"/>
<path fill-rule="evenodd" clip-rule="evenodd" d="M24.3818 43.1378C24.5568 43.1319 24.7317 43.1624 24.8945 43.2267C25.0573 43.2909 25.2055 43.3881 25.3291 43.5118C25.4528 43.6355 25.5491 43.7837 25.6133 43.9464C25.6775 44.1092 25.7081 44.2833 25.7022 44.4581V50.2238C25.7021 50.5737 25.5629 50.9099 25.3154 51.1574C25.068 51.4047 24.7318 51.5431 24.3818 51.5431H18.6172C18.2673 51.5431 17.9312 51.4047 17.6836 51.1574C17.4361 50.9099 17.2969 50.5737 17.2969 50.2238V44.4581C17.2969 44.108 17.4361 43.772 17.6836 43.5245C17.9312 43.2772 18.2673 43.1378 18.6172 43.1378H24.3818ZM20.0059 48.8341H23.1318V45.7081H20.0059V48.8341Z" fill="var(--fill-0, #F07C21)"/>
<path fill-rule="evenodd" clip-rule="evenodd" d="M35.2188 32.3019C35.392 32.3019 35.5636 32.3362 35.7236 32.4025C35.8838 32.4688 36.0298 32.566 36.1523 32.6886C36.2748 32.8111 36.3722 32.9564 36.4385 33.1163C36.5048 33.2764 36.539 33.4479 36.5391 33.6212V50.1544C36.539 50.3277 36.5048 50.4993 36.4385 50.6593C36.3722 50.8193 36.2748 50.9645 36.1523 51.087C36.0298 51.2096 35.8838 51.3069 35.7236 51.3732C35.5636 51.4394 35.392 51.4738 35.2188 51.4738H29.4531C29.1032 51.4737 28.768 51.3345 28.5205 51.087C28.273 50.8396 28.1339 50.5044 28.1338 50.1544V33.6212C28.1339 33.2712 28.273 32.936 28.5205 32.6886C28.768 32.4411 29.1032 32.3019 29.4531 32.3019H35.2188ZM30.7734 48.8341H33.8994V34.9415H30.7734V48.8341Z" fill="var(--fill-0, #F07C21)"/>
<path fill-rule="evenodd" clip-rule="evenodd" d="M13.6152 32.3019C13.9617 32.3132 14.291 32.4553 14.5361 32.7003C14.7812 32.9454 14.9232 33.2748 14.9346 33.6212V39.3868C14.9346 39.7368 14.7963 40.0729 14.5488 40.3204C14.3012 40.5679 13.9652 40.7072 13.6152 40.7072H7.84961C7.49956 40.7072 7.16353 40.5679 6.91602 40.3204C6.66856 40.0729 6.5293 39.7368 6.5293 39.3868V33.6212C6.52936 33.2714 6.66879 32.936 6.91602 32.6886C7.16353 32.4411 7.49956 32.3019 7.84961 32.3019H13.6152ZM9.16895 38.0675H12.2949V34.9415H9.16895V38.0675Z" fill="var(--fill-0, #F07C21)"/>
<path fill-rule="evenodd" clip-rule="evenodd" d="M24.3818 32.3019C24.5568 32.296 24.7317 32.3255 24.8945 32.3898C25.0573 32.454 25.2054 32.5512 25.3291 32.6749C25.4528 32.7986 25.5491 32.9468 25.6133 33.1095C25.6776 33.2722 25.708 33.4463 25.7022 33.6212V39.3868C25.7022 39.7368 25.5629 40.0728 25.3154 40.3204C25.0679 40.5679 24.7319 40.7072 24.3818 40.7072H18.6172C18.2673 40.7072 17.9312 40.5679 17.6836 40.3204C17.4361 40.0728 17.2969 39.7368 17.2969 39.3868V33.6212C17.2969 33.2713 17.4362 32.936 17.6836 32.6886C17.9312 32.4411 18.2672 32.3019 18.6172 32.3019H24.3818ZM20.0059 38.0675H23.1318V34.9415H20.0059V38.0675Z" fill="var(--fill-0, #F07C21)"/>
<path fill-rule="evenodd" clip-rule="evenodd" d="M13.6152 21.465C13.9575 21.4883 14.2799 21.6346 14.5225 21.8771C14.7652 22.1198 14.9114 22.4429 14.9346 22.7853V28.5509C14.9345 28.9006 14.7961 29.2361 14.5488 29.4835C14.3012 29.731 13.9652 29.8702 13.6152 29.8702H7.84961C7.49956 29.8702 7.16353 29.731 6.91602 29.4835C6.66877 29.2361 6.52942 28.9006 6.5293 28.5509V22.7853C6.5293 22.4353 6.66863 22.0992 6.91602 21.8517C7.16353 21.6042 7.49956 21.465 7.84961 21.465H13.6152ZM9.16895 27.2306H12.2949V24.1046H9.16895V27.2306Z" fill="var(--fill-0, #F07C21)"/>
<path fill-rule="evenodd" clip-rule="evenodd" d="M24.3818 21.465C24.7319 21.465 25.0679 21.6042 25.3154 21.8517C25.5629 22.0992 25.7022 22.4352 25.7022 22.7853V28.5509C25.702 28.9007 25.5628 29.236 25.3154 29.4835C25.0679 29.731 24.7319 29.8702 24.3818 29.8702H18.6172C18.2672 29.8702 17.9312 29.731 17.6836 29.4835C17.4362 29.236 17.297 28.9007 17.2969 28.5509V22.7853C17.2969 22.4352 17.4361 22.0992 17.6836 21.8517C17.9312 21.6042 18.2672 21.465 18.6172 21.465H24.3818ZM20.0059 27.2306H23.1318V24.1046H20.0059V27.2306Z" fill="var(--fill-0, #F07C21)"/>
<path fill-rule="evenodd" clip-rule="evenodd" d="M35.2188 21.465C35.5651 21.4766 35.8946 21.6193 36.1397 21.8644C36.3846 22.1094 36.5275 22.4389 36.5391 22.7853V28.5509C36.539 28.7241 36.5048 28.8957 36.4385 29.0558C36.3722 29.2158 36.2748 29.361 36.1523 29.4835C36.0298 29.606 35.8838 29.7033 35.7236 29.7697C35.5636 29.8359 35.392 29.8702 35.2188 29.8702H29.4531C29.1032 29.8702 28.768 29.7309 28.5205 29.4835C28.273 29.236 28.1339 28.9007 28.1338 28.5509V22.7853C28.1338 22.4352 28.2729 22.0992 28.5205 21.8517C28.768 21.6043 29.1033 21.465 29.4531 21.465H35.2188ZM30.7734 24.1046V27.2306H33.8994V24.1046H30.7734Z" fill="var(--fill-0, #F07C21)"/>
<path fill-rule="evenodd" clip-rule="evenodd" d="M35.2188 6.5304C35.5581 6.52648 35.8856 6.6545 36.1318 6.88783C36.3782 7.12123 36.5246 7.44134 36.5391 7.7804V17.6447C36.539 17.818 36.5047 17.9895 36.4385 18.1495C36.3722 18.3096 36.2747 18.4548 36.1523 18.5773C36.0297 18.6999 35.8837 18.7971 35.7236 18.8634C35.5636 18.9297 35.392 18.964 35.2188 18.964H7.84961C7.49956 18.964 7.16353 18.8248 6.91602 18.5773C6.66878 18.3299 6.52938 17.9945 6.5293 17.6447V7.84974C6.52931 7.49972 6.66851 7.16365 6.91602 6.91615C7.16353 6.66865 7.49958 6.5304 7.84961 6.5304H35.2188ZM9.16895 16.255H20.7012L27.9248 9.09974H22.3682L16.8799 14.588C16.6337 14.8138 16.3106 14.9384 15.9766 14.9357C15.8101 14.9468 15.643 14.9214 15.4873 14.8615C15.3314 14.8015 15.1904 14.708 15.0742 14.588C14.84 14.332 14.7101 13.9975 14.71 13.6505C14.71 13.3034 14.8399 12.9681 15.0742 12.712L18.6865 9.09974H9.16895V16.255ZM24.3818 16.255H33.8994V9.09974H31.5371L24.3818 16.255Z" fill="var(--fill-0, #F07C21)"/>
<path fill-rule="evenodd" clip-rule="evenodd" d="M36.5391 0.000130565C37.3946 -0.00532934 38.2426 0.160506 39.0332 0.487435C39.8241 0.814512 40.5417 1.29703 41.1436 1.9054C41.7454 2.51375 42.2195 3.23615 42.5381 4.0304C42.8567 4.82469 43.0136 5.67474 42.999 6.5304V51.4738C43 52.3314 42.8316 53.1812 42.5039 53.9738C42.1761 54.7665 41.6954 55.4873 41.0889 56.0939C40.4824 56.7003 39.7623 57.1811 38.9697 57.5089C38.1773 57.8367 37.3274 58.005 36.4697 58.004H6.5293C5.67168 58.005 4.82183 57.8367 4.0293 57.5089C3.23678 57.1811 2.5166 56.7003 1.91016 56.0939C1.30362 55.4873 0.822917 54.7665 0.495122 53.9738C0.167429 53.1812 -0.00100092 52.3314 4.47649e-06 51.4738V6.5304C-0.00100099 5.6727 0.167382 4.82303 0.495122 4.0304C0.822917 3.23772 1.30362 2.51684 1.91016 1.91029C2.51659 1.30389 3.23681 0.823016 4.0293 0.495248C4.82183 0.167512 5.67168 -0.000814617 6.5293 0.000130565H36.5391ZM6.5293 2.63978C6.01838 2.63902 5.51224 2.73956 5.04004 2.9347C4.56782 3.12988 4.13868 3.41618 3.77735 3.77747C3.41608 4.13875 3.12977 4.568 2.93457 5.04017C2.73936 5.5125 2.63883 6.01932 2.63965 6.5304V51.4738C2.63883 51.9849 2.73936 52.4917 2.93457 52.964C3.12977 53.4363 3.41604 53.8654 3.77735 54.2267C4.13868 54.588 4.56781 54.8743 5.04004 55.0695C5.51224 55.2646 6.01838 55.3652 6.5293 55.3644H36.5391C37.0501 55.3653 37.5561 55.2646 38.0283 55.0695C38.5006 54.8743 38.9297 54.588 39.291 54.2267C39.6524 53.8653 39.9396 53.4364 40.1348 52.964C40.33 52.4917 40.4296 51.9849 40.4287 51.4738H40.3594V6.5304C40.3602 6.01932 40.2597 5.5125 40.0645 5.04017C39.8693 4.56801 39.583 4.13875 39.2217 3.77747C38.8604 3.41616 38.4312 3.12988 37.959 2.9347C37.4867 2.73955 36.9807 2.63902 36.4697 2.63978H6.5293Z" fill="var(--fill-0, #F07C21)"/>
</g>
</svg>
