<svg preserveAspectRatio="xMidYMid meet" width="100%" height="100%" overflow="visible" style="display: block;" viewBox="0 0 38.44 55.04" fill="none" xmlns="http://www.w3.org/2000/svg">
<path id="Logo" d="M7.2 0.639999C6.4 0.319999 5.6 0 4.8 0C3.36 0 2.24 0.48 1.44 1.28C0.479999 2.08 0 3.2 0 4.32V50.56C0 51.36 0.159999 52.16 0.639999 52.8C1.12 53.44 1.6 53.92 2.4 54.4C3.2 54.72 4 55.04 4.8 55.04C6.08 55.04 7.2 54.56 8.16 53.76C9.12 52.96 9.6 51.84 9.6 50.72V4.48C9.6 3.68 9.44 2.88 8.96 2.24C8.48 1.6 8 0.959999 7.2 0.639999ZM37.92 47.52L25.6 26.72L36.8 7.68C37.44 6.56 37.76 5.28 37.6 4.16C37.6 2.88 37.12 1.92 36.16 1.28C35.36 0.48 34.24 0.16 32.8 0.16C31.84 0.16 31.04 0.48 30.24 0.8C29.6 1.28 28.96 2.08 28.32 3.04L14.56 27.2L29.28 52C29.92 52.96 30.4 53.76 31.2 54.24C32 54.72 32.64 55.04 33.6 55.04C34.88 55.04 36 54.72 36.8 53.92C37.6 53.12 38.08 52.16 38.24 51.04C38.4 49.92 38.72 48.64 37.92 47.52Z" fill="var(--fill-0, white)"/>
</svg>
