<svg preserveAspectRatio="xMidYMid meet" width="100%" height="100%" overflow="visible" style="display: block;" viewBox="0 0 69.4004 24.7002" fill="none" xmlns="http://www.w3.org/2000/svg">
<g id="Logo">
<path d="M32.8955 9.30078C35.7685 9.30079 37.7931 10.5398 38.9033 11.5186L37.5977 13.8682C36.4875 12.9546 34.8546 12.041 32.8955 12.041C30.8716 12.0411 30.0227 12.8239 30.0225 13.7373C30.0225 16.6085 39.4258 13.7377 39.4258 20.0674C39.4258 23.1996 36.7482 24.7002 32.8301 24.7002C29.6958 24.7001 27.4752 23.5911 26.2998 22.6123L27.6719 20.1328C28.9126 21.1767 30.8061 21.9599 32.8955 21.96C35.3115 21.96 36.2264 21.1115 36.2266 20.1328C36.2266 17.1311 26.8877 19.8714 26.8877 13.8027C26.8878 10.9317 29.3041 9.30086 32.8955 9.30078Z" fill="var(--fill-0, white)"/>
<path fill-rule="evenodd" clip-rule="evenodd" d="M48.1113 9.30078C52.4212 9.3008 55.9471 12.7587 55.9473 17C55.9473 21.2415 52.4213 24.7002 48.1113 24.7002C43.8014 24.7002 40.2754 21.2415 40.2754 17C40.2756 12.7587 43.8015 9.30083 48.1113 9.30078ZM48.1113 12.2373C45.4994 12.2373 43.4094 14.3248 43.4092 17C43.4092 19.6754 45.4992 21.7636 48.1113 21.7637C50.7234 21.7637 52.8135 19.6102 52.8135 17C52.8133 14.39 50.7233 12.2373 48.1113 12.2373Z" fill="var(--fill-0, white)"/>
<path d="M62.8701 9.30078C65.7432 9.30086 67.7678 10.5398 68.8779 11.5186L67.5713 13.8682C66.4612 12.9547 64.8289 12.0411 62.8701 12.041C60.846 12.041 59.9963 12.8239 59.9961 13.7373C59.9961 16.6085 69.4004 13.7377 69.4004 20.0674C69.4004 23.1995 66.7228 24.7002 62.8047 24.7002C59.6702 24.7002 57.4499 23.5911 56.2744 22.6123L57.6455 20.1328C58.8863 21.1769 60.7805 21.96 62.8701 21.96C65.2859 21.9599 66.2001 21.1115 66.2002 20.1328C66.2002 17.1311 56.8623 19.8714 56.8623 13.8027C56.8624 10.9317 59.2785 9.30078 62.8701 9.30078Z" fill="var(--fill-0, white)"/>
<path d="M6.60938 0.419922C6.60938 0.419922 8.22851 1.76669 8.22852 3.58398C8.22845 4.72794 7.95842 5.80474 7.14941 6.6123L6.00293 7.75684C5.3286 8.42982 4.7209 8.83347 4.65332 9.84277V13.0068C4.65342 13.2764 4.8567 14.2854 6.00293 14.4873V10.9873C6.00303 8.22783 9.30705 6.41024 11.0605 6.41016V24.5166H9.57715V8.3623C8.63302 8.56423 7.3517 9.70847 7.35156 10.9199V15.9014H6.00293C5.59847 15.9014 5.1936 15.7664 4.92383 15.6318C4.38441 15.3627 4.04708 14.9586 3.77734 14.6221C3.30601 13.9501 3.23752 13.211 3.2373 13.1416V9.43945C3.3047 9.17039 3.30475 8.9684 3.37207 8.7666C3.57435 8.02641 4.11391 7.62224 4.7207 7.08398L6.1377 5.60254C6.67685 5.06422 6.8788 4.25696 6.87891 3.65137C6.8789 3.38215 6.74428 2.84337 6.54199 2.50684L1.4834 7.55469C1.41613 7.55536 1.34864 7.68994 1.34863 7.82422V15.4971C1.34863 15.5645 1.34947 15.9007 1.55176 16.1699C2.09132 17.0449 4.24894 19.6027 5.46289 21.4199C6.40706 22.7661 5.73242 24.4492 5.73242 24.4492H4.31641C4.31641 24.4492 4.51855 23.7757 4.51855 23.1699C4.45082 21.6892 0.877885 17.7188 0.472656 17.1797C0.0680075 16.7085 0 16.3043 0 15.9678V7.75684C0 7.21838 0.000681102 6.94884 0.337891 6.6123C0.745142 6.27303 6.59493 0.434342 6.60938 0.419922Z" fill="var(--fill-0, white)"/>
<path d="M22.8633 6.67969C23.2003 7.01615 23.2002 7.28584 23.2002 7.82422V16.0352C23.2002 16.3717 23.133 16.776 22.7285 17.2471C22.3239 17.7855 18.7492 21.7565 18.6816 23.2373C18.6816 23.8413 18.8826 24.5127 18.8838 24.5166H17.4678C17.466 24.5122 16.7944 22.8317 17.7373 21.4873C18.9513 19.67 21.1099 17.1123 21.6494 16.2373C21.8514 15.9683 21.8516 15.632 21.8516 15.5645V7.82422C21.8516 7.68982 21.7841 7.55511 21.7168 7.55469L16.6582 2.50684C16.4559 2.84338 16.3213 3.38218 16.3213 3.65137C16.3214 4.25708 16.5241 5.06422 17.0635 5.60254L18.4795 7.08398C19.0189 7.62227 19.5585 8.02638 19.7607 8.7666C19.8281 8.96841 19.8281 9.17037 19.8955 9.43945V13.1416C19.8953 13.211 19.8277 13.9501 19.3564 14.6221C19.0867 14.9585 18.7493 15.3626 18.21 15.6318C17.9403 15.7664 17.5354 15.9013 17.1309 15.9014H15.7812V10.9199C15.7811 9.70847 14.4998 8.56423 13.5557 8.3623V24.5166H12.1396V6.41016C13.8931 6.41016 17.1981 8.22776 17.1982 10.9873V14.4873C18.3441 14.2853 18.5468 13.2763 18.5469 13.0068V9.84277C18.4793 8.83361 17.8725 8.42965 17.1982 7.75684L16.0518 6.6123C15.2425 5.80471 14.9727 4.72806 14.9727 3.58398C14.9727 1.76669 16.5908 0.419922 16.5908 0.419922L22.8633 6.67969Z" fill="var(--fill-0, white)"/>
<path d="M61.2285 5.17676V0.238281H62.1094V7.2002L56.6465 2.02344V6.96191H55.7656V0L61.2285 5.17676Z" fill="var(--fill-0, white)"/>
<path d="M65.8398 0.178711C67.0732 0.178839 68.0128 0.833433 68.3652 1.19043L67.9834 1.875C67.5136 1.45854 66.7502 0.982574 65.8105 0.982422C64.6358 0.982427 64.165 1.51818 64.165 2.05371C64.1658 3.68938 68.6006 2.3514 68.6006 5.05859C68.6004 6.39708 67.5429 7.1112 65.8105 7.11133C64.3714 7.11132 63.4894 6.57571 63.0195 6.15918L63.4316 5.41504C63.9309 5.86126 64.7827 6.24805 65.8398 6.24805C67.1315 6.24795 67.6599 5.7427 67.6602 5.11816C67.6601 3.39255 63.2549 4.76024 63.2549 2.1123C63.2551 0.922491 64.2247 0.178711 65.8398 0.178711Z" fill="var(--fill-0, white)"/>
<path d="M28.5107 3.54102L32.1523 0.238281H33.415L30.4492 2.91602L33.5625 6.96191H32.4463L29.7734 3.54102L28.5107 4.67188V6.96191H27.6006V0.238281H28.5107V3.54102Z" fill="var(--fill-0, white)"/>
<path d="M35.207 6.96191H34.2969V0.238281H35.207V6.96191Z" fill="var(--fill-0, white)"/>
<path fill-rule="evenodd" clip-rule="evenodd" d="M39.8184 0.238281C41.169 0.238482 42.0789 1.1309 42.0791 2.23145C42.0791 3.27277 41.257 4.10606 40.0234 4.19531L42.1377 6.93262H41.0518L38.9658 4.19531H37.4385V6.96191H36.5283V0.238281H39.8184ZM37.4385 3.42188H39.7295C40.5518 3.42188 41.1396 2.94549 41.1396 2.23145C41.1395 1.51758 40.5517 1.04199 39.7295 1.04199H37.4385V3.42188Z" fill="var(--fill-0, white)"/>
<path d="M43.9297 3.54102L47.6006 0.238281H48.834L45.8682 2.91602L49.0107 6.96191H47.8945L45.2217 3.54102L43.9297 4.67188V6.96191H43.0488V0.238281H43.9297V3.54102Z" fill="var(--fill-0, white)"/>
<path d="M54.5029 1.10156H50.6553V3.21387H54.3262V4.0166H50.6553V6.12891H54.5029V6.96191H49.7451V0.238281H54.5029V1.10156Z" fill="var(--fill-0, white)"/>
<path fill-rule="evenodd" clip-rule="evenodd" d="M11.6006 0.0166016C13.2189 0.0168291 14.4998 1.29508 14.5674 2.91016C14.5674 4.52541 13.2864 5.80449 11.668 5.80469C10.0494 5.80469 8.76759 4.52553 8.76758 2.91016C8.76775 1.29493 10.0495 0.0166016 11.6006 0.0166016ZM11.6006 1.42969C10.7914 1.42969 10.1164 2.03533 10.1162 2.91016C10.1162 3.71784 10.7913 4.3916 11.6006 4.3916C12.4097 4.39136 13.084 3.7177 13.084 2.91016C13.0838 2.10275 12.4096 1.42993 11.6006 1.42969Z" fill="var(--fill-0, white)"/>
</g>
</svg>
