<svg xmlns="http://www.w3.org/2000/svg" fill="none" viewBox="0 0 80 80">
  <path fill="#312959" d="M0 12C0 5.373 5.373 0 12 0h56c6.627 0 12 5.373 12 12v56c0 6.627-5.373 12-12 12H12C5.373 80 0 74.627 0 68V12Z"/>
  <path fill="#fff" d="M38.195 36.9c2.873 0 4.898 1.24 6.008 2.218l-1.306 2.35c-1.11-.914-2.743-1.827-4.702-1.827-2.024 0-2.873.783-2.873 1.696 0 2.871 9.404 0 9.404 6.33 0 3.132-2.678 4.633-6.596 4.633-3.134 0-5.355-1.11-6.53-2.088l1.372-2.48c1.24 1.044 3.134 1.828 5.223 1.828 2.416 0 3.331-.849 3.331-1.828 0-3.001-9.339-.261-9.339-6.33 0-2.87 2.417-4.502 6.008-4.502Z"/>
  <path fill="#fff" fill-rule="evenodd" d="M53.411 36.9c4.31 0 7.836 3.458 7.836 7.7 0 4.241-3.526 7.7-7.836 7.7-4.31 0-7.836-3.459-7.836-7.7 0-4.242 3.526-7.7 7.836-7.7Zm0 2.937c-2.612 0-4.702 2.087-4.702 4.763 0 2.675 2.09 4.763 4.702 4.763s4.702-2.153 4.702-4.763-2.09-4.763-4.702-4.763Z" clip-rule="evenodd"/>
  <path fill="#fff" d="M68.17 36.9c2.873 0 4.898 1.24 6.008 2.218l-1.307 2.35c-1.11-.914-2.742-1.827-4.701-1.827-2.024 0-2.874.782-2.874 1.696 0 2.871 9.404 0 9.404 6.33 0 3.132-2.677 4.633-6.596 4.633-3.134 0-5.354-1.11-6.53-2.088l1.371-2.48c1.241 1.044 3.135 1.828 5.225 1.828 2.416 0 3.33-.849 3.33-1.828 0-3.001-9.338-.261-9.338-6.33 0-2.87 2.416-4.502 6.008-4.502Zm-56.26-8.88s1.618 1.346 1.618 3.164c0 1.144-.27 2.22-1.079 3.028l-1.146 1.144c-.675.673-1.282 1.077-1.35 2.086v3.164c0 .27.204 1.279 1.35 1.48v-3.5c0-2.759 3.304-4.576 5.057-4.576v18.106h-1.483V35.962c-.944.202-2.226 1.346-2.226 2.557v4.982h-1.348c-.405 0-.81-.135-1.08-.27-.539-.269-.876-.673-1.146-1.01a3.142 3.142 0 0 1-.54-1.48V37.04c.068-.269.068-.471.135-.673.202-.74.742-1.144 1.348-1.682l1.418-1.482c.539-.538.74-1.345.74-1.951 0-.27-.134-.808-.336-1.145l-5.059 5.048c-.067.001-.135.136-.135.27v7.673c0 .067.001.403.204.672.54.876 2.697 3.433 3.91 5.25.945 1.347.27 3.03.27 3.03H9.616s.202-.674.202-1.28c-.067-1.48-3.64-5.45-4.046-5.99-.404-.47-.472-.875-.472-1.212v-8.21c0-.539 0-.809.338-1.145.407-.34 6.257-6.178 6.271-6.193Zm16.253 6.26c.337.336.337.605.337 1.144v8.21c0 .337-.067.742-.472 1.213-.404.538-3.979 4.51-4.047 5.99 0 .604.201 1.275.203 1.28h-1.416c-.002-.005-.674-1.686.27-3.03 1.213-1.817 3.372-4.375 3.911-5.25.202-.27.202-.605.202-.673v-7.74c0-.135-.067-.27-.134-.27l-5.059-5.048c-.202.337-.337.876-.337 1.145 0 .606.203 1.413.742 1.951l1.416 1.482c.54.538 1.08.942 1.282 1.682.067.202.067.404.134.673v3.702c0 .07-.067.809-.539 1.48-.27.337-.607.741-1.146 1.01-.27.135-.675.27-1.08.27h-1.349V38.52c0-1.212-1.281-2.356-2.226-2.558v16.154H17.44V34.01c1.754 0 5.059 1.817 5.059 4.577v3.5a1.58 1.58 0 0 0 1.349-1.48v-3.165c-.068-1.009-.675-1.413-1.349-2.086l-1.146-1.144c-.81-.808-1.08-1.884-1.08-3.028 0-1.818 1.619-3.165 1.619-3.165l6.272 6.26Zm38.365-1.504v-4.938h.881V34.8l-5.463-5.177v4.939h-.88V27.6l5.462 5.176Zm4.612-4.998c1.233 0 2.173.655 2.525 1.012l-.382.685c-.47-.417-1.233-.893-2.173-.893-1.174 0-1.645.536-1.645 1.071 0 1.636 4.435.298 4.435 3.005 0 1.339-1.057 2.053-2.79 2.053-1.439 0-2.32-.536-2.79-.952l.411-.744c.5.446 1.352.833 2.409.833 1.291 0 1.82-.506 1.82-1.13 0-1.726-4.405-.358-4.405-3.006 0-1.19.97-1.934 2.585-1.934ZM33.81 31.14l3.642-3.302h1.263l-2.966 2.678 3.113 4.046h-1.116l-2.673-3.421-1.263 1.13v2.29h-.91v-6.723h.91v3.303Zm6.697 3.422h-.91v-6.724h.91v6.724Z"/>
  <path fill="#fff" fill-rule="evenodd" d="M45.118 27.838c1.35 0 2.26.892 2.26 1.993 0 1.041-.821 1.875-2.055 1.964l2.114 2.737h-1.085l-2.086-2.737h-1.528v2.767h-.91v-6.724h3.29Zm-2.38 3.183h2.291c.823 0 1.41-.476 1.41-1.19s-.587-1.19-1.41-1.19h-2.29v2.38Z" clip-rule="evenodd"/>
  <path fill="#fff" d="m49.23 31.14 3.67-3.302h1.234l-2.966 2.678 3.142 4.046h-1.116l-2.672-3.421-1.292 1.13v2.29h-.881v-6.723h.88v3.303Zm10.573-2.439h-3.848v2.113h3.671v.802h-3.67v2.112h3.847v.834h-4.758v-6.724h4.758v.863Z"/>
  <path fill="#fff" fill-rule="evenodd" d="M16.9 27.616c1.619 0 2.9 1.279 2.967 2.894a2.876 2.876 0 0 1-2.9 2.894 2.876 2.876 0 0 1-2.9-2.894c0-1.616 1.282-2.894 2.833-2.894Zm0 1.413c-.809 0-1.484.606-1.484 1.48 0 .808.675 1.482 1.484 1.482.81 0 1.484-.674 1.484-1.481 0-.808-.675-1.48-1.484-1.48Z" clip-rule="evenodd"/>
</svg>
