<svg preserveAspectRatio="xMidYMid meet" width="100%" height="100%" overflow="visible" style="display: block;" viewBox="0 0 71.145 61.3445" fill="none" xmlns="http://www.w3.org/2000/svg">
<path id="Logo" d="M35.0944 0C38.6261 3.88828 41.6271 8.2164 44.0677 12.8374C45.3774 9.69031 46.1679 6.33384 46.3472 2.94334L56.7872 3.48866C56.4978 8.96177 55.0425 14.3383 52.6205 19.2429C57.0227 18.2803 60.8821 16.4568 63.6103 13.6358L71.145 20.8411C65.4608 26.7184 57.6293 29.3124 50.2959 30.1465C52.4511 40.4362 52.1737 51.2276 49.1906 61.3445L39.1598 58.4207C41.49 50.5182 41.8342 42.0818 40.3889 33.9525C34.7272 38.1534 28.074 40.9868 22.8417 43.6439L22.8389 43.6453C16.7964 46.7104 11.748 50.015 8.79891 54.5867L0 48.9741C4.54244 41.9325 11.7715 37.5898 18.0872 34.386L20.5425 33.1611C23.1974 31.8543 25.6788 30.6729 28.0027 29.4334C26.7556 29.3289 25.5484 29.2338 24.3942 29.1691C17.2187 28.7668 10.6002 29.2712 5.23266 32.0243L0.440156 22.786C8.33819 18.735 17.2565 18.358 24.9834 18.7912C28.9144 19.0117 32.4363 19.3846 35.8186 19.6749C33.6185 15.0587 30.7769 10.7557 27.3361 6.96753L35.0944 0Z" fill="var(--fill-0, #05240F)"/>
</svg>
