<svg xmlns="http://www.w3.org/2000/svg" fill="none" viewBox="0 0 80 80">
  <path fill="#fff" d="M0 12C0 5.373 5.373 0 12 0h56c6.627 0 12 5.373 12 12v56c0 6.627-5.373 12-12 12H12C5.373 80 0 74.627 0 68V12Z"/>
  <path fill="#D52B1E" d="M23.953 48.724v3.205h3.203v3.204h-3.203v3.205H20.75v-3.205h-3.203v-3.204h3.203v-3.205h3.203Z"/>
  <path fill="#000" d="M67 65H13.218v-.873H67V65Z"/>
  <path fill="#000" fill-rule="evenodd" d="m37.905 51.339-.333.493c.385.333.603.82.603 1.423 0 1.282-.942 1.89-1.877 1.89s-.603-.057-.853-.192l-.358.526-.365-.294.327-.482c-.39-.314-.628-.8-.628-1.435 0-1.135.769-1.884 1.877-1.884 1.107 0 .627.058.877.192l-.006-.007.346-.506.39.276Zm-1.985 2.876a.54.54 0 0 0 .371.13c.5 0 .8-.43.8-1.058 0-.628-.03-.391-.108-.557h-.02c-.002-.002-1.01 1.437-1.043 1.485Zm.371-2.043c-.583 0-.8.583-.8 1.083s.038.41.134.577h.013c.002.003 1.05-1.525 1.05-1.525a.633.633 0 0 0-.397-.135Zm18.469-.795c1.153 0 1.838.757 1.838 1.84l.007.006c0 1.32-.936 1.922-1.903 1.922s-1.864-.692-1.864-1.858c0-1.166.769-1.91 1.922-1.91Zm-.027.802c-.505 0-.736.55-.736 1.083 0 .621.256 1.082.736 1.083.48 0 .712-.436.712-1.083 0-.648-.206-1.083-.712-1.083Z" clip-rule="evenodd"/>
  <path fill="#000" d="M61.447 51.384c.89 0 .795.096 1.019.205l-.198.775a1.757 1.757 0 0 0-.783-.205c-.307 0-.428.11-.428.295 0 .186.14.257.583.41.685.237.973.584.98 1.116 0 .672-.532 1.166-1.563 1.166-1.032 0-.89-.103-1.166-.25l.198-.801v-.013c.205.128.635.275.968.275.332 0 .48-.115.48-.3 0-.186-.11-.276-.532-.41-.743-.25-1.03-.655-1.025-1.084 0-.673.577-1.18 1.467-1.18Z"/>
  <path fill="#000" fill-rule="evenodd" d="M42.383 49.833v4.152c0 .404.013.834.032 1.078h-.993l-.05-.533h-.014c-.23.404-.66.61-1.127.61-.852 0-1.538-.731-1.538-1.846-.006-1.218.75-1.917 1.615-1.917.864 0 .788.154.948.404h.013v-1.955h1.12l-.006.007Zm-1.787 2.403c-.506 0-.775.455-.775 1.026 0 .57.301.993.769.993.467 0 .582-.218.646-.538.02-.084.033-.16.033-.257v-.474h-.007a2.08 2.08 0 0 0-.013-.199c-.064-.301-.308-.55-.653-.55Zm4.299-.859c1.255 0 1.607.904 1.607 1.795 0 .89-.019.359-.038.442h-2.32l-.005.006c.038.462.493.687 1.018.687s.692-.052.993-.148l.147.756c-.365.147-.82.218-1.3.218-1.224 0-1.922-.705-1.922-1.833 0-1.128.564-1.923 1.82-1.923Zm-.07.744c-.52 0-.661.43-.693.73h1.326c0-.275-.115-.73-.634-.73Z" clip-rule="evenodd"/>
  <path fill="#000" d="M49.808 52.294h.02c.108-.192.23-.366.338-.545l1.128-1.647h1.377l-1.64 2.115 1.73 2.852h-1.314l-1.217-2.14-.428.525v1.621h-1.115v-4.967l.006-.006h1.115v2.192Z"/>
  <path fill="#000" fill-rule="evenodd" d="M31.788 50.063c.596 0 1.249.11 1.607.391.295.237.456.584.456 1.04 0 .454-.45 1.069-.878 1.223v.02c.346.14.538.473.66.928.153.558.307 1.205.403 1.398H32.89c-.084-.142-.199-.545-.346-1.154-.135-.621-.346-.788-.8-.795h-.34v1.955h-1.115v-4.896l.006-.007a9.996 9.996 0 0 1 1.493-.102Zm.128.834c-.275 0-.429.02-.506.038V52.3h.442c.557 0 .89-.282.89-.711 0-.43-.307-.686-.826-.692Z" clip-rule="evenodd"/>
  <path fill="#000" d="M59.275 51.377c.346 0 .154 0 .238.014v1.05c-.084-.012-.18-.032-.301-.032-.41 0-.692.218-.769.565-.012.07-.02.16-.02.249v1.827h-1.12v-2.416l-.007.013c0-.532-.012-.878-.031-1.186h.966l.038.66h.033c.185-.525.627-.744.973-.744ZM67 43.111H13.218v-.873H67v.873Z"/>
  <path fill="#000" fill-rule="evenodd" d="M21.291 30.885a.9.9 0 0 1 .191 1.78l2.203 5.48h-1.059l-.307-.765h-2.056l-.308.764h-1.057l2.2-5.479a.901.901 0 0 1 .193-1.78Zm-.634 5.512h1.268l-.634-1.576-.634 1.577Zm.634-4.967a.355.355 0 1 0 .001.71.355.355 0 0 0-.001-.71Zm8.755 2.238h2.509v-1.474h.981v5.95h-.981v-1.501h-2.51v1.502h-.982v-5.95h.983v1.473Zm0 1.992h2.509v-1.01h-2.51v1.01Zm10.984 2.485h-1.058l-.307-.765h-2.057l-.307.764h-1.059l2.395-5.956 2.393 5.956Zm-3.027-1.748h1.267l-.633-1.576-.634 1.577Z" clip-rule="evenodd"/>
  <path fill="#000" d="M44.255 37.161h2.236v.983h-3.218v-5.95h.982v4.967Zm6.361-4.967c.96 0 1.875.632 1.875 1.72h-.982c0-.404-.324-.737-.893-.737-.568 0-.907.346-.907.75 0 .386.313.713.88.723v-.007c.954 0 1.875.631 1.875 1.736 0 1.091-.905 1.765-1.875 1.766-.97 0-1.861-.66-1.861-1.751h.981c0 .438.335.767.88.767.544 0 .893-.343.893-.782 0-.418-.323-.743-.866-.754v.008c-.944 0-1.888-.605-1.889-1.705 0-1.087.929-1.734 1.89-1.734Zm8.529.983h-3v1.5h2.51v.983h-2.51v1.501h3v.983h-3.98v-5.95h3.98v.983Zm6.465 3.263v-4.246h.98v5.95h-1.008l-2.945-4.246v4.246h-.983v-5.95h1.01l2.945 4.245Z"/>
  <path fill="#000" fill-rule="evenodd" d="m14.326 32.198.801.003c.29 0 .759.052 1.174.284.448.251.817.71.817 1.43 0 .715-.366 1.18-.808 1.44a2.423 2.423 0 0 1-1.183.305h-1.009v2.477h-.982v-5.943h.491l.7.004Zm-.208 2.48h1.009c.191 0 .471-.045.685-.171.185-.108.324-.272.324-.593 0-.318-.136-.471-.315-.571-.212-.119-.493-.158-.694-.158-.22 0-.524-.003-.808-.004l-.2-.001v1.498Z" clip-rule="evenodd"/>
  <path fill="#000" d="M14.964 20.745 20.102 15h2.635l-5.348 5.98 4.892 5.81h-2.567l-3.649-4.331-1.101 1.232v3.099H13V15h1.964v5.745Zm19.818.159-1.405 1.406-1.404-1.406 1.404-1.405 1.405 1.405Z"/>
  <path fill="#000" fill-rule="evenodd" d="M33.373 15c3.243 0 5.863 2.645 5.863 5.895 0 3.25-2.62 5.895-5.863 5.895-3.243 0-5.864-2.644-5.864-5.895 0-3.25 2.62-5.895 5.864-5.895Zm0 1.965c-2.149 0-3.9 1.755-3.9 3.93 0 2.176 1.751 3.93 3.9 3.93s3.9-1.754 3.9-3.93c0-2.175-1.751-3.93-3.9-3.93ZM49.151 15c.806 0 1.814.142 2.655.644.905.54 1.557 1.47 1.557 2.822 0 1.38-.707 2.294-1.617 2.807-.31.176-.641.303-.972.395l3.208 5.122h-2.317l-3.077-4.912h-1.143v4.912h-1.964v-6.877h1.876l-1.876-2.995V15h3.67Zm.507 4.886c.411-.045.813-.15 1.123-.325.372-.21.62-.51.62-1.095 0-.614-.25-.925-.601-1.135-.417-.248-1.024-.366-1.649-.366H47.83l1.83 2.92Z" clip-rule="evenodd"/>
  <path fill="#000" d="M63.346 15c1.9 0 3.654 1.293 3.654 3.439h-1.964c0-.839-.639-1.474-1.69-1.474-1.05 0-1.719.66-1.719 1.5 0 .814.637 1.448 1.719 1.448 1.86.012 3.654 1.25 3.654 3.411 0 2.144-1.78 3.466-3.682 3.466-1.9 0-3.654-1.293-3.654-3.438h1.963c0 .838.64 1.473 1.691 1.473 1.05 0 1.718-.66 1.718-1.5 0-.814-.636-1.447-1.718-1.447-1.86-.012-3.654-1.251-3.654-3.412 0-2.144 1.78-3.466 3.682-3.466Z"/>
</svg>
