<svg preserveAspectRatio="xMidYMid meet" width="100%" height="100%" overflow="visible" style="display: block;" viewBox="0 0 72 72" fill="none" xmlns="http://www.w3.org/2000/svg">
<g id="Logo">
<path d="M62.9541 52.7885C57.5803 61.398 48.1964 67.2465 37.4164 67.7197V38.0444L62.9541 52.7885Z" fill="var(--fill-0, white)"/>
<path d="M29.1144 51.3746C31.2627 51.6582 33.3463 52.3429 35.056 53.5279V66.8656C24.9642 68.8131 15.1084 58.3672 16.6429 55.1803C17.1512 54.1791 18.2425 53.3066 19.6838 52.6372C19.6695 52.8996 19.6435 53.1533 19.6042 53.3957C19.4074 54.6091 19.4843 56.2859 20.0599 57.7042C20.6475 59.1519 21.826 60.4539 23.8272 60.4917C27.239 60.556 30.5706 58.2818 30.5706 54.8852C30.5706 53.5155 29.992 52.3512 29.1144 51.3746Z" fill="var(--fill-0, white)"/>
<path fill-rule="evenodd" clip-rule="evenodd" d="M18.1773 40.8984C19.4756 39.8362 19.8887 42.0197 19.7117 43.377L19.7039 43.4416C19.5501 44.8153 20.0603 47.3533 23.4297 48.7475L23.5897 48.8144C26.9423 50.2251 29.7445 52.1548 29.7445 54.8852L29.7439 54.9501C29.701 57.6911 26.9462 59.7241 23.8429 59.6656C20.7639 59.6075 20.0867 55.8323 20.404 53.6315L20.4199 53.5279C20.774 51.3443 20.1734 48.451 19.2986 46.3279C18.733 44.9552 18.2022 44.1759 17.5281 43.6721C16.5793 42.9631 15.7987 42.793 15.8756 42.1377C15.9936 41.1345 16.95 41.9025 18.1773 40.8984ZM21.246 53.6459C20.8526 55.7311 21.1398 59.6892 25.4362 58.8393C24.1575 58.4066 21.5293 56.762 21.246 53.6459Z" fill="var(--fill-0, white)"/>
<path d="M64.1286 21.259C66.4418 25.6641 67.7508 30.6792 67.7508 36C67.7508 41.3208 66.4418 46.3358 64.1286 50.7408L38.5965 35.9999L64.1286 21.259Z" fill="var(--fill-0, white)"/>
<path d="M15.0491 43.7311C15.0491 44.8057 14.2176 45.4399 13.5787 45.6786C13.5812 45.6842 13.5835 45.6899 13.5859 45.6956C15.9205 45.2092 16.7561 46.3737 16.5836 48.0984C16.4066 49.8688 14.7541 50.518 13.3967 50.577C12.0393 50.6361 10.0918 49.9279 10.1508 47.9803C10.2064 46.145 11.3102 45.5152 13.0671 45.6956C12.6934 44.9352 12.1054 44.3987 11.8466 44.2208C11.7392 44.1469 11.7119 43.9999 11.7858 43.8925C11.8596 43.7851 12.0066 43.7578 12.114 43.8317C12.409 44.0344 13.0104 44.5816 13.4272 45.3637C13.5434 44.6244 14.007 43.7312 15.0491 43.7311Z" fill="var(--fill-0, white)"/>
<path fill-rule="evenodd" clip-rule="evenodd" d="M22.4852 37.6525C28.0918 36.9443 30.5115 37.7705 32.2229 39.659C33.5921 41.1698 34.682 43.5934 35.0557 44.6164V50.1639C34.3475 49.6918 33.8164 47.6262 33.5803 46.6229C29.3902 46.8 27.0295 45.9148 26.0262 45.0885C25.023 44.2623 22.4852 42.1377 22.4852 37.6525ZM31.4046 40.0658C31.3033 39.8985 31.0855 39.845 30.9182 39.9463C29.4535 40.9735 28.3297 42.4675 27.9803 44.2533C27.8927 44.7015 28.5877 44.8375 28.6754 44.3893C28.9554 42.9582 29.8145 41.6729 30.9601 40.7834C31.1789 40.6136 31.6159 40.415 31.4046 40.0658ZM29.7591 39.1302C30.1148 38.8663 29.7746 38.29 29.3902 38.5377C28.8115 38.8882 28.3099 39.3948 27.8642 39.8958C27.0618 40.7975 26.1425 42.1602 25.6827 43.9994C25.572 44.4424 26.259 44.6141 26.3697 44.1711C26.7952 42.4694 27.6464 41.2058 28.3932 40.3665C28.8098 39.8983 29.2729 39.5159 29.7594 39.1302H29.7591ZM24.3148 39.0689C23.9888 39.0689 23.7246 39.3331 23.7246 39.659C23.7246 39.985 23.9888 40.2492 24.3148 40.2492C24.6407 40.2492 24.9049 39.985 24.9049 39.659C24.9049 39.3331 24.6407 39.0689 24.3148 39.0689Z" fill="var(--fill-0, white)"/>
<path d="M7.78382 33.7634C8.78727 33.2773 9.98461 33.6518 10.5402 34.5963C10.5211 34.6105 10.5016 34.6243 10.482 34.6379C10.5058 34.6363 10.5297 34.6351 10.5534 34.6343C10.7075 35.7192 10.0045 36.7581 8.91678 37.0033C8.87073 37.0137 8.82465 37.0223 8.77869 37.0296L8.05943 37.9353C8.01888 37.9863 7.94459 37.995 7.89356 37.9545C7.84253 37.9139 7.83406 37.8396 7.87454 37.7886L8.50862 36.9899C8.42132 36.2038 8.78079 35.4499 9.40631 35.014C8.72015 35.0581 8.04203 34.7651 7.60631 34.2163L5.91501 33.9433C5.85068 33.9329 5.80688 33.8723 5.81726 33.808C5.82766 33.7436 5.88836 33.7 5.9527 33.7103L7.46419 33.9544C7.56333 33.8828 7.66995 33.8185 7.78382 33.7634Z" fill="var(--fill-0, white)"/>
<path d="M8.20293 32.7585C8.21781 32.695 8.28126 32.6557 8.34471 32.6705L9.74716 32.9994C9.84433 32.9518 9.94632 32.911 10.0528 32.8779C11.091 32.5557 12.1887 33.0698 12.6213 34.038C12.623 34.0379 12.6246 34.0377 12.6263 34.0376C12.6276 34.0441 12.6286 34.0507 12.6299 34.0572C12.638 34.0759 12.646 34.0947 12.6536 34.1137C12.6493 34.1159 12.645 34.1181 12.6407 34.1203C12.8037 35.1675 12.1624 36.1951 11.1168 36.4895C11.0661 36.5038 11.0153 36.5161 10.9645 36.5264L10.1832 37.562C10.1439 37.614 10.0699 37.6243 10.0179 37.585C9.96589 37.5458 9.95551 37.4718 9.99475 37.4197L10.7054 36.4779C10.5751 35.6381 10.9621 34.8111 11.66 34.3648C10.8839 34.3681 10.1555 33.9427 9.7822 33.25L8.29088 32.9003C8.22742 32.8854 8.18806 32.8219 8.20293 32.7585Z" fill="var(--fill-0, white)"/>
<path d="M11.0087 32.1623C11.0319 32.1014 11.1002 32.0708 11.1611 32.094L12.2331 32.5018C12.2901 32.4822 12.3484 32.4649 12.408 32.45C13.4896 32.1794 14.585 32.7906 14.9358 33.8287C14.9198 33.8361 14.9036 33.8432 14.8873 33.8503C14.9281 34.9182 14.1599 35.8671 13.0804 36.0295L12.223 36.9929C12.1796 37.0416 12.105 37.0459 12.0563 37.0026C12.0076 36.9592 12.0033 36.8846 12.0466 36.8359L12.7433 36.0533C12.718 36.053 12.6927 36.0525 12.6675 36.0514C12.6121 35.1864 13.0892 34.3915 13.837 34.0174C13.0582 33.9427 12.3651 33.4388 12.0671 32.6912L11.0771 32.3146C11.0162 32.2914 10.9856 32.2232 11.0087 32.1623Z" fill="var(--fill-0, white)"/>
<path d="M5.82948 36.0106C6.40927 35.0582 7.61841 34.724 8.59726 35.2165C8.5509 35.3405 8.49236 35.462 8.42102 35.5792C7.8542 36.5102 6.68609 36.8505 5.71952 36.405C5.33676 36.5786 4.96674 36.7551 4.60939 36.9328C4.55105 36.9619 4.48018 36.9381 4.45113 36.8798C4.42209 36.8215 4.44591 36.7506 4.50426 36.7216C4.90793 36.5208 5.32784 36.3216 5.76401 36.1263C5.78453 36.0874 5.80627 36.0487 5.82948 36.0106Z" fill="var(--fill-0, white)"/>
<path d="M13.5137 31.7938C13.542 31.7351 13.6126 31.7105 13.6713 31.7387L14.5328 32.1538C14.5926 32.1361 14.6536 32.1208 14.7158 32.1081C15.763 31.8954 16.7864 32.4924 17.1373 33.4692C17.1457 33.4689 17.154 33.4685 17.1624 33.4683C17.1674 33.5061 17.1712 33.5438 17.1742 33.5815C17.1759 33.5872 17.1778 33.5928 17.1794 33.5985C17.1781 33.5991 17.1768 33.5995 17.1755 33.6C17.2486 34.6369 16.5512 35.5968 15.5056 35.8232C15.4558 35.834 15.4059 35.8428 15.3562 35.8499L14.5359 36.8052C14.4934 36.8547 14.4189 36.8604 14.3695 36.8179C14.32 36.7755 14.3143 36.7009 14.3568 36.6515L15.096 35.7906C15.0164 34.9513 15.444 34.1551 16.1561 33.7479C15.347 33.6661 14.6387 33.1215 14.3648 32.335L13.5688 31.9514C13.5101 31.9231 13.4854 31.8525 13.5137 31.7938Z" fill="var(--fill-0, white)"/>
<path d="M15.9434 31.5752C15.9753 31.5183 16.0473 31.4981 16.1041 31.53L17.1835 32.1358C17.197 32.1335 17.2107 32.1313 17.2244 32.1292C18.3154 31.9678 19.3351 32.6666 19.5962 33.7151C19.5982 33.7153 19.6002 33.7156 19.6022 33.7159C19.602 33.7227 19.6016 33.7296 19.6014 33.7364C19.6024 33.7407 19.6036 33.7451 19.6046 33.7494C19.6034 33.7498 19.6021 33.7502 19.6009 33.7506C19.5572 34.8305 18.6996 35.721 17.5982 35.7833C17.5326 35.787 17.4676 35.7875 17.4033 35.7853L16.5331 36.5177C16.4833 36.5596 16.4088 36.5532 16.3668 36.5034C16.3248 36.4535 16.3312 36.379 16.3811 36.337L17.2017 35.6464C17.2684 34.8273 17.8038 34.1294 18.5514 33.8399C17.7214 33.7012 17.0293 33.0748 16.8327 32.2256C16.8386 32.2235 16.8445 32.2215 16.8504 32.2195L15.9886 31.7358C15.9318 31.7039 15.9115 31.632 15.9434 31.5752Z" fill="var(--fill-0, white)"/>
<path d="M23.8237 26.8474C23.8784 26.812 23.9515 26.8276 23.9869 26.8823L24.6464 27.9016C24.6955 27.9118 24.7446 27.9237 24.7937 27.9375C25.8078 28.2229 26.4415 29.1978 26.3304 30.2114C26.337 30.2119 26.3436 30.2129 26.3501 30.2145C29.4291 30.9897 33.0608 32.5924 35.1504 35.3983C35.1893 35.4506 35.1785 35.5245 35.1263 35.5635C35.0965 35.5857 35.0596 35.5916 35.0262 35.583C35.0048 35.5885 34.9817 35.5883 34.9591 35.5808C31.1053 34.2863 27.867 33.8673 25.5939 33.7716C24.4573 33.7237 23.5619 33.7567 22.9516 33.8015C22.6465 33.8239 22.4126 33.8493 22.2554 33.869C22.1768 33.8788 22.1174 33.8872 22.0779 33.8932C22.0582 33.8961 22.0434 33.8984 22.0336 33.9C22.0288 33.9007 22.0251 33.9014 22.0228 33.9018C22.0217 33.902 22.0208 33.9022 22.0203 33.9023C22.02 33.9023 22.0198 33.9022 22.0197 33.9023L22.0196 33.9024C22.0113 33.9038 22.0031 33.9042 21.995 33.9039C21.8482 34.8984 21.0091 35.6777 19.9685 35.7145C19.8564 35.7184 19.746 35.7134 19.6381 35.7004L18.8821 36.3377C18.8323 36.3797 18.7578 36.3734 18.7158 36.3236C18.6738 36.2737 18.6801 36.1992 18.73 36.1572L19.5941 35.4287C19.7175 34.7075 20.206 34.1057 20.8684 33.8285C20.1112 33.6039 19.5221 32.9665 19.3804 32.1626L18.5135 31.4895C18.462 31.4495 18.4527 31.3754 18.4926 31.3239C18.5326 31.2724 18.6067 31.2631 18.6582 31.303L19.6172 32.0474C19.6669 32.0408 19.7172 32.0358 19.7681 32.0326C20.8195 31.9674 21.7393 32.6785 21.9691 33.672C21.9724 33.6711 21.9758 33.6704 21.9792 33.6698L21.9818 33.6848C21.9796 33.672 21.9792 33.6701 21.9792 33.6698L21.9796 33.6697C21.9798 33.6696 21.9801 33.6695 21.9805 33.6694C21.9812 33.6693 21.9823 33.6692 21.9837 33.669C21.9865 33.6685 21.9905 33.6679 21.9958 33.667C22.0065 33.6653 22.0222 33.6628 22.0429 33.6597C22.0842 33.6535 22.1456 33.6448 22.2261 33.6347C22.3871 33.6146 22.6251 33.5889 22.9344 33.5661C23.5531 33.5207 24.4576 33.4875 25.6039 33.5357C27.8394 33.6298 30.995 34.0339 34.7453 35.2613C32.6749 32.6902 29.2462 31.1871 26.2925 30.4435C26.2876 30.4422 26.2829 30.4406 26.2783 30.4389C25.8115 31.3292 24.7623 31.7878 23.7678 31.479C23.6607 31.4458 23.5581 31.4046 23.4604 31.3567L22.5365 31.7087C22.4756 31.732 22.4075 31.7014 22.3843 31.6405C22.3611 31.5796 22.3916 31.5115 22.4525 31.4882L23.5087 31.0858C23.8632 30.4458 24.5229 30.0389 25.2397 29.9959C24.599 29.534 24.2535 28.7378 24.3851 27.9322L23.7887 27.0106C23.7533 26.9559 23.769 26.8828 23.8237 26.8474Z" fill="var(--fill-0, white)"/>
<path d="M37.4164 4.28019C48.1963 4.75342 57.5803 10.6019 62.9541 19.2113L37.4164 33.9555V4.28019Z" fill="var(--fill-0, white)"/>
<path d="M21.3344 26.2433C21.3833 26.2001 21.4579 26.2048 21.501 26.2536L22.32 27.1818C22.3335 27.1841 22.3471 27.1864 22.3606 27.189C23.4438 27.3968 24.1756 28.3929 24.076 29.4688C24.0779 29.4697 24.0797 29.4706 24.0816 29.4715C24.0791 29.478 24.0765 29.4844 24.074 29.4909C24.0735 29.4953 24.0732 29.4997 24.0727 29.504C24.0714 29.504 24.0701 29.5039 24.0688 29.5039C23.671 30.5088 22.5676 31.0664 21.5074 30.7616C21.4444 30.7435 21.3828 30.7226 21.3228 30.6992L20.2597 31.1034C20.1988 31.1265 20.1306 31.0958 20.1074 31.0349C20.0843 30.974 20.115 30.9058 20.1759 30.8826L21.1784 30.5016C21.5117 29.7505 22.2474 29.2685 23.0488 29.242C22.311 28.8372 21.8644 28.0172 21.9592 27.1507C21.9654 27.1507 21.9716 27.1508 21.9778 27.1509L21.3239 26.4098C21.2808 26.361 21.2856 26.2864 21.3344 26.2433Z" fill="var(--fill-0, white)"/>
<path d="M18.9687 25.6477C19.0148 25.6016 19.0895 25.6016 19.1356 25.6477L19.8118 26.3238C19.874 26.3268 19.9367 26.3325 19.9996 26.3411C21.0583 26.4859 21.8273 27.3873 21.8362 28.4252C21.8442 28.4276 21.8522 28.43 21.8602 28.4325C21.8524 28.47 21.8435 28.5071 21.8339 28.5438C21.8336 28.5496 21.8335 28.5554 21.8332 28.5612C21.8318 28.5612 21.8305 28.5612 21.8291 28.5613C21.5559 29.5642 20.5807 30.2401 19.519 30.1086C19.4684 30.1024 19.4184 30.0943 19.3691 30.0846L18.2795 30.7156C18.2231 30.7483 18.1508 30.729 18.1181 30.6726C18.0855 30.6162 18.1048 30.544 18.1611 30.5114L19.1431 29.9428C19.3449 29.1242 20.0115 28.5137 20.8181 28.3644C20.0814 28.0201 19.5925 27.2723 19.5936 26.4395L18.9687 25.8146C18.9226 25.7685 18.9226 25.6938 18.9687 25.6477Z" fill="var(--fill-0, white)"/>
<path fill-rule="evenodd" clip-rule="evenodd" d="M28.2098 18.7672C28.4459 17.3508 29.3902 15.2262 30.3344 15.4623C31.0897 15.6512 30.4918 17.2722 30.0984 18.059C30.8853 17.5082 32.5535 16.5482 32.9311 17.1148C33.4032 17.8229 32.2229 18.5312 31.5148 19.7115C33.4032 19.5227 34.6623 20.4197 35.0557 20.8918V30.3344C34.1114 29.3902 32.931 28.682 31.0426 28.4459C29.1542 28.2098 27.5016 27.2656 27.2656 25.6131C27.0295 23.9607 27.5017 21.6 29.3902 20.4197C28.446 20.1836 26.7935 20.1836 26.3213 20.1836C25.8492 20.1836 25.6131 19.9476 24.4328 21.6C23.2525 23.2525 18.5311 23.0164 19.9475 20.6557C21.0807 18.7672 22.623 18.6098 23.2525 18.7672C22.9377 18.5311 22.3554 17.823 22.5443 16.8787C22.7803 15.6984 24.4328 15.4623 25.377 16.4066C26.3213 17.3508 27.2656 18.7672 28.2098 18.7672ZM30.3345 20.6557C27.8391 21.0123 26.7935 25.8492 28.9181 27.0295C28.21 25.6131 27.7378 23.0164 30.3345 20.6557Z" fill="var(--fill-0, white)"/>
<path d="M16.4825 25.1688C16.5245 25.1189 16.599 25.1125 16.6488 25.1545L17.5263 25.8933C17.5866 25.8937 17.6473 25.8965 17.7085 25.9021C18.8188 26.0036 19.6511 26.9421 19.6395 28.0379C19.6219 28.0396 19.6042 28.0409 19.5865 28.0422C19.2725 29.0638 18.2343 29.7059 17.1618 29.5029L16.0342 30.1294C15.9773 30.161 15.9055 30.1404 15.8738 30.0835C15.8421 30.0265 15.8626 29.9546 15.9196 29.9229L16.8355 29.414C16.8117 29.4055 16.788 29.3966 16.7647 29.3873C16.9978 28.5525 17.7106 27.9596 18.54 27.8533C17.8296 27.5257 17.3417 26.8214 17.3071 26.0175L16.4968 25.3351C16.447 25.2931 16.4406 25.2186 16.4825 25.1688Z" fill="var(--fill-0, white)"/>
<path d="M13.6372 24.8053C13.6722 24.7504 13.7451 24.7342 13.8 24.7691L15.0153 25.5425C15.1227 25.5297 15.2325 25.5249 15.344 25.5289C16.4303 25.5673 17.2968 26.4147 17.3856 27.4714C17.3872 27.4718 17.3889 27.4723 17.3905 27.4727C17.3895 27.4794 17.3884 27.486 17.3874 27.4926C17.3889 27.5129 17.3902 27.5332 17.3912 27.5536C17.3864 27.5544 17.3815 27.5549 17.3768 27.5556C17.185 28.5979 16.2406 29.3564 15.1563 29.2892C15.1036 29.2859 15.0516 29.2806 15.0002 29.2736L13.921 29.9932C13.8667 30.0294 13.7934 30.0147 13.7573 29.9605C13.7211 29.9063 13.7358 29.833 13.79 29.7968L14.7717 29.1422C14.9259 28.3066 15.5641 27.6537 16.37 27.4628C15.6364 27.2096 15.0895 26.5676 14.9657 25.7906L13.6734 24.9683C13.6184 24.9333 13.6022 24.8603 13.6372 24.8053Z" fill="var(--fill-0, white)"/>
<path d="M11.0388 25.0087C11.0699 24.9514 11.1415 24.9301 11.1988 24.9612L12.5451 25.6903C12.6624 25.6555 12.7843 25.6301 12.91 25.6156C14.0176 25.4881 15.0242 26.2367 15.2368 27.3117C15.2142 27.3188 15.1913 27.3254 15.1683 27.3317C15.1913 27.3381 15.2142 27.3448 15.2368 27.3519C15.0241 28.4269 14.0175 29.1754 12.9098 29.0478C12.863 29.0424 12.8167 29.0354 12.7709 29.0271L11.793 29.6448C11.7379 29.6796 11.6649 29.6631 11.6301 29.608C11.5954 29.5529 11.6118 29.48 11.6669 29.4451L12.529 28.9006C12.706 28.1297 13.2943 27.5367 14.0286 27.3317C13.3664 27.1469 12.8229 26.6465 12.5927 25.9846L11.0864 25.1686C11.0291 25.1376 11.0078 25.066 11.0388 25.0087Z" fill="var(--fill-0, white)"/>
<path d="M10.3233 27.092C11.1849 26.3843 12.4367 26.4678 13.1981 27.2559C13.1134 27.3576 13.0181 27.4529 12.912 27.54C12.0697 28.2318 10.8547 28.1675 10.0893 27.428C9.67071 27.4654 9.26319 27.5099 8.86721 27.5597C8.80256 27.5679 8.74351 27.522 8.73535 27.4574C8.72723 27.3927 8.77305 27.3337 8.8377 27.3255C9.28506 27.2692 9.74722 27.2197 10.2234 27.1794C10.2556 27.1494 10.2888 27.1202 10.3233 27.092Z" fill="var(--fill-0, white)"/>
<path d="M13.3377 19.0033C13.3377 17.3508 15.4623 16.4066 16.8787 16.6426C18.2951 16.8787 18.0589 18.2951 17.3507 18.2951C16.6425 18.2951 15.4623 19.0033 16.6425 19.4754C17.8228 19.9475 17.6702 20.5213 17.1148 20.8918C16.2365 21.4777 16.1705 20.4197 15.9344 19.9475C15.6984 19.4754 15.2262 19.4754 14.7541 19.9475C14.282 20.4197 13.3377 20.6557 13.3377 19.0033Z" fill="var(--fill-0, white)"/>
<path fill-rule="evenodd" clip-rule="evenodd" d="M35.0557 10.5049C30.5705 10.2689 25.6131 12.6295 23.9607 13.5738C22.6387 14.3292 21.6787 13.4164 21.3639 12.8656C21.1279 13.4164 20.5613 14.4708 20.1836 14.282C19.7115 14.0459 19.9475 12.8656 19.7115 12.3934C19.4754 11.9213 18.7673 11.2131 19.0033 10.977C19.2393 10.741 20.4197 10.9771 21.1279 11.2131C21.6 8.38034 23.0164 7.43606 26.0852 6.01967C28.5403 4.88656 33.0885 4.60328 35.0557 4.60328V10.5049ZM28.6819 6.25574C22.3082 6.25575 20.4196 11.6852 22.3081 11.6852C23.2523 11.6852 23.7245 6.96394 28.6819 6.25574Z" fill="var(--fill-0, white)"/>
<path fill-rule="evenodd" clip-rule="evenodd" d="M36 0C55.8822 0 72 16.1177 72 36C72 55.8822 55.8822 72 36 72C16.1177 72 0 55.8822 0 36C0 16.1177 16.1177 0 36 0ZM36 1.29836C16.8348 1.29836 1.29836 16.8348 1.29836 36C1.29836 55.1652 16.8348 70.7016 36 70.7016C55.1652 70.7016 70.7016 55.1652 70.7016 36C70.7016 16.8348 55.1652 1.29836 36 1.29836Z" fill="var(--fill-0, white)"/>
</g>
</svg>
