<svg xmlns="http://www.w3.org/2000/svg" fill="none" viewBox="0 0 80 80">
  <path fill="#0E4E7A" d="M0 12C0 5.373 5.373 0 12 0h56c6.627 0 12 5.373 12 12v56c0 6.627-5.373 12-12 12H12C5.373 80 0 74.627 0 68V12Z"/>
  <path fill="#fff" d="M66.954 56.788c-5.374 8.61-14.758 14.459-25.538 14.932V42.044L66.954 56.79Zm-33.84-1.413c2.149.283 4.232.968 5.942 2.153v13.338c-10.092 1.947-19.948-8.499-18.413-11.686.508-1 1.6-1.873 3.04-2.543a7.21 7.21 0 0 1-.079.759c-.197 1.213-.12 2.89.456 4.308.588 1.448 1.766 2.75 3.767 2.788 3.412.064 6.744-2.21 6.744-5.607 0-1.37-.579-2.534-1.457-3.51Z"/>
  <path fill="#fff" fill-rule="evenodd" d="M22.177 44.898c1.299-1.062 1.712 1.122 1.535 2.479l-.008.065c-.154 1.373.356 3.911 3.726 5.306l.16.066c3.352 1.411 6.155 3.34 6.155 6.071l-.001.065c-.043 2.741-2.798 4.774-5.901 4.716-3.08-.058-3.756-3.834-3.439-6.034l.016-.104c.354-2.184-.247-5.077-1.121-7.2-.566-1.373-1.097-2.152-1.77-2.656-.95-.709-1.73-.879-1.653-1.534.118-1.003 1.074-.235 2.301-1.24Zm3.069 12.748c-.393 2.085-.106 6.043 4.19 5.193-1.279-.432-3.907-2.077-4.19-5.193Z" clip-rule="evenodd"/>
  <path fill="#fff" d="M68.129 25.259A31.614 31.614 0 0 1 71.75 40c0 5.32-1.31 10.336-3.622 14.74L42.596 40 68.13 25.259ZM19.05 47.731c0 1.075-.832 1.709-1.471 1.948l.007.017c2.335-.487 3.17.678 2.998 2.402-.177 1.77-1.83 2.42-3.187 2.479-1.358.06-3.305-.65-3.246-2.597.055-1.835 1.16-2.465 2.916-2.284-.374-.76-.962-1.297-1.22-1.475a.236.236 0 0 1 .267-.39c.295.203.896.75 1.313 1.533.116-.74.58-1.633 1.622-1.633Z"/>
  <path fill="#fff" fill-rule="evenodd" d="M26.485 41.653c5.607-.709 8.026.117 9.738 2.006 1.37 1.51 2.459 3.934 2.833 4.957v5.548c-.709-.472-1.24-2.538-1.476-3.541-4.19.177-6.55-.708-7.554-1.534-1.003-.827-3.54-2.951-3.54-7.436Zm8.92 2.413a.354.354 0 0 0-.487-.12c-1.465 1.028-2.588 2.522-2.938 4.307-.087.449.608.584.695.136.28-1.43 1.14-2.716 2.285-3.606.219-.17.656-.368.445-.717Zm-1.646-.936c.356-.264.016-.84-.369-.592-.578.35-1.08.857-1.526 1.358a9.725 9.725 0 0 0-2.181 4.103c-.111.443.576.615.687.172a9.02 9.02 0 0 1 2.023-3.804c.417-.469.88-.851 1.366-1.237Zm-5.444-.061a.59.59 0 1 0 0 1.18.59.59 0 0 0 0-1.18Z" clip-rule="evenodd"/>
  <path fill="#fff" d="M11.784 37.763a2.125 2.125 0 0 1 2.756.833 2.19 2.19 0 0 1-.058.042l.071-.004a2.125 2.125 0 0 1-1.774 2.396l-.72.905a.118.118 0 0 1-.184-.146l.634-.8a2.127 2.127 0 0 1 .897-1.975 2.128 2.128 0 0 1-1.8-.798l-1.691-.273a.118.118 0 1 1 .038-.233l1.511.244c.1-.071.206-.136.32-.19Z"/>
  <path fill="#fff" d="M12.203 36.758a.118.118 0 0 1 .142-.088l1.402.33a2.125 2.125 0 0 1 2.874 1.039l.005-.001.004.02.024.056-.013.006a2.125 2.125 0 0 1-1.676 2.406l-.782 1.036a.118.118 0 0 1-.188-.142l.71-.942c-.13-.84.257-1.667.955-2.113a2.128 2.128 0 0 1-1.878-1.115l-1.491-.35a.118.118 0 0 1-.088-.142Z"/>
  <path fill="#fff" d="M15.009 36.162a.118.118 0 0 1 .152-.068l1.072.408a2.125 2.125 0 0 1 2.703 1.327 2.372 2.372 0 0 1-.049.021 2.125 2.125 0 0 1-1.807 2.18l-.857.963a.118.118 0 0 1-.176-.157l.696-.783c-.025 0-.05 0-.075-.002a2.126 2.126 0 0 1 1.169-2.034 2.127 2.127 0 0 1-1.77-1.326l-.99-.376a.118.118 0 0 1-.068-.153ZM9.83 40.01a2.125 2.125 0 0 1 2.767-.793 2.125 2.125 0 0 1-2.878 1.188c-.382.174-.752.35-1.11.528a.118.118 0 1 1-.105-.211c.404-.201.824-.4 1.26-.596.02-.039.042-.077.065-.115Z"/>
  <path fill="#fff" d="M17.514 35.794a.118.118 0 0 1 .157-.055l.862.415a2.125 2.125 0 0 1 2.604 1.315h.025c.005.037.01.075.012.112l.005.017-.003.002a2.125 2.125 0 0 1-1.82 2.25l-.82.955a.118.118 0 1 1-.18-.154l.74-.86a2.127 2.127 0 0 1 1.06-2.043 2.127 2.127 0 0 1-1.791-1.413l-.796-.384a.118.118 0 0 1-.055-.157Z"/>
  <path fill="#fff" d="M19.943 35.575a.118.118 0 0 1 .161-.045l1.08.606.04-.007a2.125 2.125 0 0 1 2.372 1.586h.006v.021c0 .005.002.01.003.013l-.004.002a2.125 2.125 0 0 1-2.198 2.034l-.87.733a.118.118 0 0 1-.152-.181l.82-.69a2.127 2.127 0 0 1 1.35-1.807 2.126 2.126 0 0 1-1.718-1.614l.017-.007-.861-.483a.118.118 0 0 1-.046-.16Z"/>
  <path fill="#fff" d="M27.824 30.847a.118.118 0 0 1 .163.035l.66 1.02a2.125 2.125 0 0 1 1.684 2.31.12.12 0 0 1 .02.002c3.078.776 6.71 2.378 8.8 5.184a.118.118 0 0 1-.125.185.118.118 0 0 1-.067-.002c-3.854-1.295-7.092-1.714-9.365-1.81a23.09 23.09 0 0 0-2.642.03 13.727 13.727 0 0 0-.918.099l-.011.002h-.003a.12.12 0 0 1-.025.002 2.125 2.125 0 0 1-2.357 1.796l-.756.638a.118.118 0 1 1-.152-.18l.864-.73a2.129 2.129 0 0 1 1.274-1.6 2.127 2.127 0 0 1-1.488-1.665l-.866-.673a.118.118 0 0 1 .144-.187l.96.744a2.125 2.125 0 0 1 2.352 1.625.113.113 0 0 1 .01-.002l.002.015-.003-.015h.002l.003-.001.012-.002.047-.007.183-.025c.161-.02.4-.046.708-.069a23.35 23.35 0 0 1 2.67-.03c2.235.094 5.391.498 9.141 1.725-2.07-2.57-5.499-4.074-8.452-4.818a.157.157 0 0 1-.015-.004 2.125 2.125 0 0 1-2.818.918l-.924.352a.118.118 0 1 1-.084-.22l1.057-.403a2.128 2.128 0 0 1 1.73-1.09 2.126 2.126 0 0 1-.854-2.064l-.596-.921a.118.118 0 0 1 .035-.164ZM41.416 8.28c10.78.473 20.164 6.322 25.538 14.931L41.416 37.956V8.28Z"/>
  <path fill="#fff" d="M25.334 30.243a.118.118 0 0 1 .167.01l.819.929.04.007a2.125 2.125 0 0 1 1.716 2.28l.006.002-.008.02-.001.013h-.004a2.125 2.125 0 0 1-2.746 1.195l-1.063.404a.118.118 0 0 1-.084-.22l1.002-.381a2.127 2.127 0 0 1 1.87-1.26 2.126 2.126 0 0 1-1.089-2.091h.019l-.654-.741a.118.118 0 0 1 .01-.167Z"/>
  <path fill="#fff" d="M22.969 29.648a.118.118 0 0 1 .167 0l.676.676a2.125 2.125 0 0 1 2.024 2.101l.024.007a2.253 2.253 0 0 1-.026.112v.017h-.005a2.124 2.124 0 0 1-2.46 1.524l-1.09.63a.118.118 0 0 1-.118-.204l.982-.568a2.127 2.127 0 0 1 1.675-1.579 2.127 2.127 0 0 1-1.224-1.924l-.625-.625a.118.118 0 0 1 0-.167Z"/>
  <path fill="#fff" fill-rule="evenodd" d="M32.21 22.767c.236-1.416 1.18-3.54 2.124-3.305.756.19.158 1.81-.236 2.597.787-.55 2.456-1.51 2.833-.944.472.708-.708 1.416-1.416 2.597 1.888-.19 3.147.708 3.54 1.18v9.442c-.944-.944-2.124-1.652-4.012-1.888-1.889-.236-3.541-1.18-3.777-2.833-.236-1.652.236-4.013 2.124-5.193-.944-.236-2.596-.236-3.069-.236-.472 0-.708-.236-1.888 1.416s-5.902 1.416-4.485-.944c1.133-1.889 2.675-2.046 3.305-1.889-.315-.236-.898-.944-.709-1.888.236-1.18 1.889-1.417 2.833-.472.944.944 1.889 2.36 2.833 2.36Zm2.124 1.889c-2.495.356-3.54 5.193-1.416 6.373-.708-1.416-1.18-4.013 1.416-6.373Z" clip-rule="evenodd"/>
  <path fill="#fff" d="M20.483 29.169a.118.118 0 0 1 .166-.015l.877.74a2.125 2.125 0 0 1 2.113 2.145l-.052.003a2.124 2.124 0 0 1-2.425 1.46l-1.128.627a.118.118 0 0 1-.114-.206l.915-.509a2.063 2.063 0 0 1-.07-.027 2.126 2.126 0 0 1 1.775-1.534 2.127 2.127 0 0 1-1.233-1.836l-.81-.682a.118.118 0 0 1-.014-.166Z"/>
  <path fill="#fff" d="M17.637 28.805a.118.118 0 0 1 .163-.036l1.215.774a2.124 2.124 0 0 1 2.37 1.929h.005c0 .007-.002.014-.003.02l.004.062c-.005 0-.01 0-.014.002A2.125 2.125 0 0 1 19 33.274l-1.079.72a.118.118 0 1 1-.131-.197l.982-.655a2.127 2.127 0 0 1 1.598-1.68 2.128 2.128 0 0 1-1.404-1.671l-1.293-.823a.118.118 0 0 1-.036-.163Z"/>
  <path fill="#fff" d="M15.039 29.009a.118.118 0 0 1 .16-.048l1.346.73a2.125 2.125 0 0 1 2.692 1.621 1.929 1.929 0 0 1-.069.02l.069.02a2.125 2.125 0 0 1-2.466 1.675l-.978.618a.118.118 0 0 1-.126-.2l.862-.544a2.126 2.126 0 0 1 1.5-1.57 2.129 2.129 0 0 1-1.436-1.346l-1.507-.816a.118.118 0 0 1-.047-.16Z"/>
  <path fill="#fff" d="M14.323 31.092a2.125 2.125 0 0 1 2.875.164 2.125 2.125 0 0 1-3.109.172 34.14 34.14 0 0 0-1.222.132.118.118 0 0 1-.03-.234c.448-.057.91-.106 1.386-.147.033-.03.066-.059.1-.087Zm3.015-8.089c0-1.652 2.124-2.596 3.54-2.36 1.417.236 1.18 1.652.473 1.652-.709 0-1.889.708-.709 1.18 1.18.473 1.028 1.046.473 1.417-.878.586-.944-.472-1.18-.944-.237-.473-.709-.473-1.18 0-.473.472-1.417.708-1.417-.945Z"/>
  <path fill="#fff" fill-rule="evenodd" d="M39.056 14.505c-4.485-.236-9.443 2.124-11.095 3.069-1.322.755-2.282-.158-2.597-.708-.236.55-.803 1.605-1.18 1.416-.473-.236-.236-1.416-.473-1.889-.236-.472-.944-1.18-.708-1.416s1.417 0 2.125.236c.472-2.833 1.888-3.777 4.957-5.193 2.455-1.133 7.004-1.417 8.97-1.417v5.902Zm-6.374-4.25c-6.374 0-8.262 5.43-6.374 5.43.944 0 1.416-4.721 6.374-5.43Z" clip-rule="evenodd"/>
  <path fill="#fff" fill-rule="evenodd" d="M40 4c19.882 0 36 16.118 36 36S59.882 76 40 76 4 59.882 4 40 20.118 4 40 4Zm0 1.298C20.835 5.298 5.298 20.835 5.298 40S20.835 74.702 40 74.702 74.702 59.165 74.702 40 59.165 5.298 40 5.298Z" clip-rule="evenodd"/>
</svg>
