<svg preserveAspectRatio="xMidYMid meet" width="100%" height="100%" overflow="visible" style="display: block;" viewBox="0 0 46.4601 59.0327" fill="none" xmlns="http://www.w3.org/2000/svg">
<g id="Logo">
<path id="Vector" d="M32.414 2.59922C32.414 2.59922 31.3827 2.25631 31.3827 3.33403V21.5083C31.3827 22.1452 31.8247 22.733 32.4632 22.978L45.3797 26.9459C45.3797 26.9459 46.4601 27.2888 46.4601 26.1621V8.52669C46.4601 7.88985 46.0181 7.30201 45.4288 7.05707L32.414 2.59922Z" fill="var(--fill-0, #B39AC1)"/>
<path id="Vector_2" d="M38.0619 37.7721L21.4129 32.5795C20.7744 32.3835 20.3815 31.7957 20.3324 31.1588L20.2833 7.69389C20.2833 7.05705 19.8413 6.4692 19.252 6.22427L1.03136 0.0518601C1.03136 0.0518601 0 -0.291052 0 0.78667V46.051C0 46.7368 0.442009 47.3247 1.03136 47.5206L38.0128 58.9837C38.0128 58.9837 39.0933 59.3266 39.0933 58.1999V39.1928C39.0933 38.5559 38.7004 38.0171 38.0619 37.7721Z" fill="var(--fill-0, #410464)"/>
</g>
</svg>
