<svg xmlns="http://www.w3.org/2000/svg" fill="none" viewBox="0 0 80 80">
  <path fill="#fff" d="M0 12C0 5.373 5.373 0 12 0h56c6.627 0 12 5.373 12 12v56c0 6.627-5.373 12-12 12H12C5.373 80 0 74.627 0 68V12Z"/>
  <path fill="#B39AC1" d="M49.414 12.696s-1.031-.342-1.031.735v18.175c0 .636.442 1.224 1.08 1.47l12.917 3.967s1.08.343 1.08-.784V18.624c0-.637-.442-1.225-1.031-1.47l-13.015-4.458Z"/>
  <path fill="#410464" d="m55.062 47.869-16.65-5.193c-.638-.196-1.03-.784-1.08-1.42l-.049-23.465c0-.637-.442-1.225-1.031-1.47l-18.22-6.173S17 9.806 17 10.883v45.265c0 .685.442 1.273 1.031 1.47L55.013 69.08s1.08.343 1.08-.784V49.29c0-.636-.393-1.175-1.031-1.42Z"/>
</svg>
