<svg xmlns="http://www.w3.org/2000/svg" fill="none" viewBox="0 0 80 80">
  <path fill="#FFFEE8" d="M0 12C0 5.373 5.373 0 12 0h56c6.627 0 12 5.373 12 12v56c0 6.627-5.373 12-12 12H12C5.373 80 0 74.627 0 68V12Z"/>
  <path fill="#05240F" d="M39.138 9.08a62.472 62.472 0 0 1 8.973 12.836c1.31-3.147 2.1-6.503 2.28-9.894l10.44.546c-.29 5.473-1.745 10.85-4.167 15.754 4.402-.963 8.261-2.786 10.99-5.607l7.535 7.205c-5.685 5.877-13.516 8.471-20.85 9.306 2.156 10.29 1.878 21.08-1.105 31.198L43.204 67.5c2.33-7.903 2.674-16.34 1.228-24.468-5.661 4.2-12.315 7.034-17.547 9.691l-.003.001c-6.042 3.066-11.09 6.37-14.04 10.942l-8.799-5.613c4.543-7.041 11.772-11.384 18.088-14.588l2.455-1.225c2.655-1.307 5.136-2.488 7.46-3.727-1.247-.105-2.454-.2-3.608-.265-7.176-.402-13.794.102-19.162 2.855l-4.792-9.238c7.898-4.05 16.816-4.428 24.543-3.995 3.93.22 7.453.594 10.835.884-2.2-4.616-5.042-8.92-8.483-12.707l7.759-6.968Z"/>
</svg>
