<svg preserveAspectRatio="xMidYMid meet" width="100%" height="100%" overflow="visible" style="display: block;" viewBox="0 0 133.916 63.967" fill="none" xmlns="http://www.w3.org/2000/svg">
<g id="Illustrasjon">
<g id="Union">
<path d="M122.235 63.4335C121.967 63.5761 121.694 63.7116 121.416 63.8398L121.198 63.372C121.467 63.2479 121.732 63.1165 121.991 62.9784L122.235 63.4335Z" fill="var(--fill-0, #F07C14)"/>
<path d="M7.98145 63.4169L7.62891 63.7958C7.42316 63.6068 7.22024 63.4138 7.02051 63.2177L7.38574 62.8505C7.58132 63.0426 7.78002 63.2319 7.98145 63.4169Z" fill="var(--fill-0, #F07C14)"/>
<path d="M125.247 61.3798C124.784 61.7735 124.301 62.1434 123.798 62.4872L123.504 62.0614C123.991 61.7282 124.46 61.3696 124.91 60.9872L125.247 61.3798Z" fill="var(--fill-0, #F07C14)"/>
<path d="M5.19824 60.3993C5.53506 60.8308 5.88648 61.2515 6.25098 61.6601L5.86328 62.0028C5.49112 61.5857 5.13201 61.1564 4.78809 60.7157L5.19824 60.3993Z" fill="var(--fill-0, #F07C14)"/>
<path d="M127.779 58.7694C127.397 59.2427 126.996 59.6982 126.575 60.1327L126.201 59.7743C126.61 59.3513 127.002 58.908 127.375 58.4462L127.779 58.7694Z" fill="var(--fill-0, #F07C14)"/>
<path d="M3.35547 57.6825C3.63045 58.1538 3.92245 58.6174 4.23047 59.0712L3.80078 59.3603C3.48621 58.8968 3.18726 58.4238 2.90625 57.9423L3.35547 57.6825Z" fill="var(--fill-0, #F07C14)"/>
<path d="M129.599 55.6464L129.824 55.7753C129.521 56.3006 129.199 56.8129 128.86 57.3105L128.431 57.0214C128.762 56.5346 129.077 56.0324 129.374 55.5175L129.599 55.6464Z" fill="var(--fill-0, #F07C14)"/>
<path d="M1.90918 54.7421C2.11244 55.2463 2.33571 55.7458 2.57812 56.2382L2.1123 56.4648C1.8644 55.9612 1.63586 55.4498 1.42773 54.9335L1.90918 54.7421Z" fill="var(--fill-0, #F07C14)"/>
<path d="M131.179 52.4286L131.418 52.5263C131.187 53.0846 130.939 53.6353 130.675 54.1757L130.208 53.9501C130.468 53.4197 130.711 52.8787 130.938 52.33L131.179 52.4286Z" fill="var(--fill-0, #F07C14)"/>
<path d="M0.932617 51.622C1.05072 52.151 1.19323 52.6781 1.35742 53.2011L0.861328 53.3544C0.692963 52.8181 0.548094 52.2768 0.426758 51.7333L0.932617 51.622Z" fill="var(--fill-0, #F07C14)"/>
<path d="M132.354 49.0429L132.604 49.1132C132.439 49.6916 132.258 50.2674 132.061 50.8368L131.815 50.7519L131.569 50.6679C131.764 50.1078 131.943 49.5419 132.105 48.9726L132.354 49.0429Z" fill="var(--fill-0, #F07C14)"/>
<path d="M0.518555 48.3876C0.535211 48.929 0.579322 49.4718 0.649414 50.0136L0.134766 50.079C0.0625925 49.5211 0.0171833 48.9619 0 48.4032L0.518555 48.3876Z" fill="var(--fill-0, #F07C14)"/>
<path d="M133.41 45.5946C133.307 46.1841 133.188 46.7748 133.054 47.3642L132.801 47.3075L132.548 47.2499C132.681 46.6694 132.797 46.0875 132.898 45.5068L133.41 45.5946Z" fill="var(--fill-0, #F07C14)"/>
<path d="M0.506836 45.0976L0.761719 45.1454C0.661793 45.6794 0.592891 46.2178 0.552734 46.7587L0.293945 46.7402L0.0351562 46.7206C0.0766902 46.1612 0.148409 45.604 0.251953 45.0507L0.506836 45.0976Z" fill="var(--fill-0, #F07C14)"/>
<path d="M133.843 42.0116C133.803 42.6054 133.747 43.2052 133.674 43.8085L133.416 43.7782L133.158 43.747C133.23 43.1525 133.286 42.5612 133.325 41.9765L133.843 42.0116Z" fill="var(--fill-0, #F07C14)"/>
<path d="M1.72461 42.0419C1.50237 42.5432 1.31147 43.0516 1.15234 43.5653L0.65625 43.414C0.821256 42.8812 1.01854 42.3538 1.24902 41.8339L1.72461 42.0419Z" fill="var(--fill-0, #F07C14)"/>
<path d="M3.37305 39.2402C3.04072 39.6832 2.73957 40.1353 2.46875 40.5946L2.02148 40.3339C2.30205 39.8581 2.61337 39.3898 2.95703 38.9316L3.37305 39.2402Z" fill="var(--fill-0, #F07C14)"/>
<path d="M133.912 39.3036C133.918 39.602 133.918 39.9035 133.914 40.2069L133.396 40.2011C133.397 40.052 133.398 39.9036 133.397 39.7558L133.393 39.3134C133.387 39.0269 133.377 38.738 133.363 38.4482L133.623 38.4364L133.882 38.4237C133.896 38.7185 133.907 39.0121 133.912 39.3036Z" fill="var(--fill-0, #F07C14)"/>
<path d="M5.74414 36.706C5.55177 36.8738 5.3622 37.0455 5.17676 37.2216L4.99316 37.3993C4.79529 37.5929 4.60445 37.7892 4.4209 37.9872L4.22949 37.8124L4.03906 37.6376C4.22845 37.4332 4.42502 37.2307 4.62891 37.0312L4.81836 36.8485C5.00922 36.6673 5.20449 36.4899 5.40234 36.3173L5.74414 36.706Z" fill="var(--fill-0, #F07C14)"/>
<path d="M133.514 34.9237C133.608 35.5072 133.686 36.0899 133.747 36.6689L133.23 36.7226C133.17 36.1531 133.095 35.58 133.002 35.0058L133.514 34.9237Z" fill="var(--fill-0, #F07C14)"/>
<path d="M9.09473 34.3573C8.49797 34.6925 7.91727 35.0551 7.35742 35.4462L7.05859 35.0243C7.63297 34.623 8.22803 34.2512 8.83887 33.9081L9.09473 34.3573Z" fill="var(--fill-0, #F07C14)"/>
<path d="M11.8545 32.7636L11.9463 33.0048C11.9218 33.0141 11.8964 33.023 11.8711 33.0321C11.5541 33.1593 11.24 33.2935 10.9287 33.4335L10.8213 33.1991L10.7148 32.9638C11.0339 32.8202 11.356 32.6829 11.6807 32.5527L11.6895 32.5497C11.7132 32.5412 11.7372 32.5317 11.7617 32.5224L11.8545 32.7636Z" fill="var(--fill-0, #F07C14)"/>
<path d="M132.767 31.4853C132.923 32.0529 133.063 32.6232 133.188 33.1943L132.68 33.3036C132.558 32.7414 132.42 32.1797 132.267 31.621L132.517 31.5527L132.767 31.4853Z" fill="var(--fill-0, #F07C14)"/>
<path d="M12.083 32.6777L12.1719 32.9198C12.148 32.9284 12.1232 32.9379 12.0986 32.9472L12.0068 32.705L11.9141 32.4648C11.9403 32.4548 11.9678 32.4443 11.9951 32.4345L12.083 32.6777Z" fill="var(--fill-0, #F07C14)"/>
<path d="M131.646 28.1464C131.865 28.6918 132.067 29.2443 132.254 29.8007L131.762 29.9638C131.578 29.4166 131.379 28.8738 131.164 28.3378L131.646 28.1464Z" fill="var(--fill-0, #F07C14)"/>
<path d="M130.14 24.9589C130.424 25.4728 130.691 25.9975 130.942 26.5302L130.707 26.6396L130.473 26.7499C130.226 26.2269 129.963 25.7119 129.685 25.2079L129.912 25.0839L130.14 24.9589Z" fill="var(--fill-0, #F07C14)"/>
<path d="M83.2236 25.2431C82.9086 25.303 82.5904 25.3536 82.2695 25.3944C81.9752 25.4318 81.6886 25.4554 81.4092 25.4638L81.3936 24.9472C81.6557 24.9393 81.9258 24.9181 82.2041 24.8827C82.5139 24.8433 82.8212 24.7943 83.126 24.7362L83.2236 25.2431Z" fill="var(--fill-0, #F07C14)"/>
<path d="M78.2656 24.3222C78.7424 24.5439 79.2491 24.7135 79.79 24.8202L79.7393 25.0732L79.6895 25.3261C79.1059 25.2109 78.5598 25.0284 78.0469 24.79L78.2656 24.3222Z" fill="var(--fill-0, #F07C14)"/>
<path d="M86.9043 24.1376C86.3094 24.3752 85.7064 24.5915 85.0938 24.7782L84.9414 24.2851C85.5381 24.1032 86.1276 23.8921 86.7109 23.6591L86.9043 24.1376Z" fill="var(--fill-0, #F07C14)"/>
<path d="M75.6748 22.4062C76.0595 22.8031 76.4621 23.1668 76.8877 23.4872L76.5752 23.8993C76.1245 23.56 75.7011 23.1776 75.3008 22.7646L75.6748 22.4062Z" fill="var(--fill-0, #F07C14)"/>
<path d="M128.223 21.9931C128.576 22.4624 128.914 22.9467 129.234 23.4433L129.016 23.5819L128.797 23.7216C128.483 23.2353 128.154 22.7616 127.808 22.3027L128.015 22.1474L128.223 21.9931Z" fill="var(--fill-0, #F07C14)"/>
<path d="M90.248 22.2958L90.3682 22.5243C89.8031 22.8159 89.2332 23.1004 88.6582 23.371L88.5479 23.1386L88.4365 22.9052C89.0041 22.6381 89.5676 22.356 90.1289 22.0663L90.248 22.2958Z" fill="var(--fill-0, #F07C14)"/>
<path d="M93.7246 20.748C93.1673 21.0399 92.6098 21.3385 92.0498 21.6376L91.8047 21.1825C92.3635 20.884 92.9228 20.584 93.4824 20.2909L93.7246 20.748Z" fill="var(--fill-0, #F07C14)"/>
<path d="M73.6279 19.8359C73.9434 20.2938 74.2663 20.7411 74.6016 21.1679L74.1924 21.4853C73.8488 21.0478 73.5199 20.5918 73.2002 20.1278L73.4141 19.9823L73.6279 19.8359Z" fill="var(--fill-0, #F07C14)"/>
<path d="M125.873 19.3466C126.3 19.7533 126.71 20.1791 127.103 20.622L126.714 20.9638C126.331 20.5314 125.931 20.116 125.515 19.7196L125.873 19.3466Z" fill="var(--fill-0, #F07C14)"/>
<path d="M97.0908 19.12L96.2637 19.4931C95.9789 19.6224 95.6941 19.7559 95.4102 19.8935L95.1826 19.4296C95.4699 19.2904 95.7586 19.1547 96.0479 19.0234C96.3225 18.8987 96.5992 18.7736 96.8779 18.6493L97.0908 19.12Z" fill="var(--fill-0, #F07C14)"/>
<path d="M72.71 18.455L72.2744 18.7353C71.9692 18.264 71.6714 17.7974 71.3711 17.3368L71.8066 17.0556C72.1068 17.5158 72.4079 17.9888 72.71 18.455Z" fill="var(--fill-0, #F07C14)"/>
<path d="M123.09 17.1474C123.589 17.4694 124.07 17.8154 124.534 18.1825L124.211 18.5859C123.76 18.2289 123.292 17.8927 122.808 17.58L123.09 17.1474Z" fill="var(--fill-0, #F07C14)"/>
<path d="M100.43 17.706C99.8654 17.93 99.3059 18.1606 98.7529 18.3954L98.5488 17.9208C99.1051 17.6846 99.6687 17.4523 100.237 17.2265L100.43 17.706Z" fill="var(--fill-0, #F07C14)"/>
<path d="M103.753 16.2275L103.833 16.4735C103.259 16.6593 102.688 16.8556 102.122 17.0614L101.944 16.5771C102.516 16.3693 103.093 16.1701 103.673 15.9823L103.753 16.2275Z" fill="var(--fill-0, #F07C14)"/>
<path d="M119.893 15.5204C120.178 15.6303 120.462 15.7483 120.745 15.8749C121.017 15.9966 121.285 16.1242 121.549 16.2587L121.312 16.7187C121.056 16.5882 120.796 16.4636 120.532 16.3456C120.258 16.2228 119.982 16.1075 119.705 16.0009L119.893 15.5204Z" fill="var(--fill-0, #F07C14)"/>
<path d="M70.3721 14.9882C70.5401 15.2086 70.7054 15.4356 70.8691 15.6669L70.4443 15.9638C70.2837 15.7368 70.1217 15.5154 69.958 15.3007C69.8875 15.208 69.8162 15.1149 69.7451 15.0224L69.9512 14.8652L70.1572 14.7089C70.2289 14.8022 70.3011 14.895 70.3721 14.9882Z" fill="var(--fill-0, #F07C14)"/>
<path d="M107.316 15.5107C106.731 15.6422 106.146 15.7906 105.564 15.9521L105.426 15.455C106.015 15.2915 106.607 15.1413 107.202 15.0077L107.316 15.5107Z" fill="var(--fill-0, #F07C14)"/>
<path d="M116.334 14.5605C116.938 14.6587 117.54 14.7874 118.138 14.9482L118.003 15.4462C117.422 15.2901 116.837 15.1657 116.25 15.0702L116.334 14.5605Z" fill="var(--fill-0, #F07C14)"/>
<path d="M110.875 14.9316C110.279 14.9889 109.682 15.0681 109.087 15.1659L109.003 14.6562C109.609 14.5566 110.216 14.4764 110.824 14.4179L110.875 14.9316Z" fill="var(--fill-0, #F07C14)"/>
<path d="M112.661 14.3105C113.275 14.2985 113.889 14.3117 114.502 14.3525L114.468 14.8671C113.871 14.8273 113.271 14.8154 112.671 14.8271L112.661 14.3105Z" fill="var(--fill-0, #F07C14)"/>
<path d="M69.5029 13.8759L69.7236 14.1523L69.3164 14.4706C69.2445 14.3798 69.1716 14.2895 69.0986 14.1991C68.92 13.9782 68.7428 13.76 68.5674 13.5448L68.9707 13.2196C69.1468 13.4356 69.3242 13.6547 69.5029 13.8759Z" fill="var(--fill-0, #F07C14)"/>
<path d="M66.7549 10.6552C67.1389 11.0609 67.5149 11.4835 67.8887 11.9198L67.4941 12.2548C67.1243 11.8231 66.7538 11.4069 66.377 11.0087L66.5664 10.8319L66.7549 10.6552Z" fill="var(--fill-0, #F07C14)"/>
<path d="M64.2148 8.37394C64.6772 8.71406 65.1164 9.07706 65.5391 9.45988L65.1895 9.84171C64.7785 9.46942 64.3529 9.11756 63.9062 8.78898L64.2148 8.37394Z" fill="var(--fill-0, #F07C14)"/>
<path d="M61.2324 6.68058C61.777 6.9092 62.289 7.16255 62.7744 7.43839L62.5176 7.88566C62.0499 7.61988 61.5558 7.37578 61.0303 7.15519L61.2324 6.68058Z" fill="var(--fill-0, #F07C14)"/>
<path d="M57.9492 5.69816C58.5347 5.81347 59.0884 5.9496 59.6143 6.10538L59.4668 6.59953C58.9573 6.44858 58.4189 6.31634 57.8486 6.20402L57.8984 5.95109L57.9492 5.69816Z" fill="var(--fill-0, #F07C14)"/>
<path d="M56.2598 5.43449L56.1992 5.94718C55.9278 5.91514 55.6492 5.88638 55.3643 5.86222L55.4082 5.34855C55.6987 5.37317 55.9825 5.40176 56.2598 5.43449Z" fill="var(--fill-0, #F07C14)"/>
</g>
<path id="Vector" d="M60.5237 22.9967C60.423 26.9627 59.0807 30.7986 56.6847 33.9702C56.6792 33.9752 56.6747 33.9812 56.6712 33.9879C56.4443 34.2312 56.2132 34.4743 55.9776 34.709C52.1777 38.5032 47.0131 40.6338 41.6288 40.6283H41.5738C38.4966 40.6283 35.4208 40.6386 32.348 40.6386C29.923 40.6386 27.4698 40.7859 25.0684 40.4366C24.2962 40.3262 23.5669 40.0829 22.7768 40.118C19.7648 40.2567 17.6955 43.092 16.268 45.3846C16.2492 45.4142 16.2239 45.4397 16.1939 45.4582C16.1832 45.4321 16.1782 45.4039 16.1791 45.3757C16.3688 41.9197 15.6158 38.346 13.883 35.3356C13.8519 35.2764 13.8193 35.2203 13.7866 35.1659C12.8216 33.5441 11.5365 32.1508 10.7094 30.448C7.79841 24.4279 8.2488 17.3347 11.8981 11.7267C15.5474 6.11871 21.8691 2.80513 28.583 2.98114L41.7903 3.33498C52.4216 3.6202 60.8084 12.4224 60.5237 22.9967Z" fill="var(--fill-0, #FAD7B7)"/>
<path id="Vector_2" d="M41.6279 0L41.883 0.00168011C47.2414 0.0681806 52.3658 2.21428 56.1593 5.98824C60.0133 9.82206 62.1779 15.0216 62.1769 20.4429L62.1759 20.6801C62.1252 25.6523 60.2455 30.4368 56.8891 34.1284L56.8847 34.1374L56.8603 34.1633C56.6327 34.4077 56.3987 34.6531 56.16 34.8908L56.1603 34.8911C52.3719 38.674 47.2443 40.8241 41.883 40.8851L41.6276 40.8864H41.5732C40.0347 40.8864 38.4964 40.8889 36.9587 40.8915C35.421 40.894 33.8837 40.8968 32.3472 40.8968C29.9437 40.8968 27.4566 41.0449 25.0306 40.6919V40.6922C24.6387 40.6361 24.2407 40.5435 23.8806 40.4765C23.5099 40.4075 23.1529 40.3591 22.7874 40.3753L22.7877 40.3757C21.3657 40.4412 20.1517 41.143 19.106 42.1307C18.0589 43.1196 17.1989 44.3782 16.4877 45.5205L16.4864 45.5225C16.4476 45.5836 16.3945 45.6369 16.3303 45.6767C16.1803 45.77 15.9907 45.7742 15.8367 45.6862C15.6826 45.5984 15.5899 45.4331 15.5955 45.2571C15.6963 41.6533 14.8101 37.9647 12.9266 34.8857L12.9235 34.8807L12.9208 34.8757C12.8921 34.8236 12.8593 34.7701 12.8266 34.7218L12.8242 34.7184L12.8222 34.7151C12.2981 33.8877 11.6941 33.1219 11.0941 32.3266C10.4977 31.5361 9.90884 30.7212 9.43872 29.8162V29.8159C6.15165 23.4785 6.4223 15.8954 10.1529 9.80578C13.8835 3.71616 20.535 0.000146363 27.7046 0H41.6279ZM27.3772 0.518817C20.514 0.63009 14.1758 4.23122 10.5962 10.0743C6.9598 16.01 6.69564 23.4016 9.89953 29.579C10.3484 30.4431 10.9147 31.2294 11.509 32.0171C12.098 32.7979 12.719 33.5854 13.2566 34.4331C13.298 34.4942 13.3393 34.5614 13.3759 34.6277C15.2885 37.7589 16.1945 41.4897 16.1168 45.1368C16.8206 44.0144 17.6866 42.7594 18.7485 41.7564C19.8473 40.7187 21.1738 39.9334 22.7637 39.8602H22.7644C23.1889 39.8414 23.5915 39.8976 23.9759 39.9691C24.371 40.0426 24.724 40.1267 25.1043 40.1811L25.1049 40.1814C27.4814 40.5274 29.9007 40.3807 32.3472 40.3807C33.8832 40.3807 35.4202 40.3779 36.958 40.3753C38.4956 40.3728 40.0342 40.3703 41.5732 40.3703H41.6279C46.9435 40.3757 52.0417 38.2724 55.7928 34.5269V34.5265C56.0209 34.2993 56.2457 34.0634 56.4671 33.8259C56.4747 33.8157 56.4827 33.8056 56.4918 33.796C59.8231 30.139 61.6655 25.3785 61.658 20.4435V20.4432C61.659 15.1588 59.5492 10.0902 55.7924 6.35316C52.0947 2.67449 47.0996 0.582647 41.8766 0.517809L41.6276 0.516129H27.7046L27.3772 0.518817Z" fill="var(--fill-0, #333333)"/>
<g id="Union_2">
<path d="M32.6191 26.498C32.7623 26.4982 32.8779 26.6143 32.8779 26.7568C32.8777 26.899 32.7621 27.0144 32.6191 27.0146H17.6543C17.5111 27.0146 17.3948 26.8991 17.3945 26.7568C17.3945 26.6142 17.511 26.498 17.6543 26.498H32.6191Z" fill="var(--fill-0, white)"/>
<path d="M51.9805 26.498C52.1238 26.498 52.2402 26.6142 52.2402 26.7568C52.24 26.8991 52.1236 27.0146 51.9805 27.0146H37.0156C36.8726 27.0144 36.7571 26.899 36.7568 26.7568C36.7568 26.6143 36.8725 26.4981 37.0156 26.498H51.9805Z" fill="var(--fill-0, white)"/>
<path d="M32.6191 24.1669C32.7623 24.1671 32.8779 24.2833 32.8779 24.4257C32.8777 24.5679 32.7622 24.6833 32.6191 24.6835H17.6543C17.5111 24.6835 17.3947 24.5681 17.3945 24.4257C17.3945 24.2832 17.511 24.1669 17.6543 24.1669H32.6191Z" fill="var(--fill-0, white)"/>
<path d="M51.9805 24.1669C52.1238 24.1669 52.2402 24.2832 52.2402 24.4257C52.2401 24.5681 52.1236 24.6835 51.9805 24.6835H37.0156C36.8726 24.6834 36.757 24.568 36.7568 24.4257C36.7568 24.2833 36.8725 24.1671 37.0156 24.1669H51.9805Z" fill="var(--fill-0, white)"/>
<path d="M32.6191 21.5575C32.7621 21.5577 32.8777 21.6732 32.8779 21.8153C32.8779 21.9578 32.7623 22.0739 32.6191 22.0741H17.6543C17.511 22.0741 17.3945 21.9579 17.3945 21.8153C17.3948 21.673 17.5112 21.5575 17.6543 21.5575H32.6191Z" fill="var(--fill-0, white)"/>
<path d="M51.9805 21.5575C52.1236 21.5575 52.24 21.673 52.2402 21.8153C52.2402 21.9579 52.1238 22.0741 51.9805 22.0741H37.0156C36.8725 22.074 36.7568 21.9578 36.7568 21.8153C36.7571 21.6731 36.8726 21.5577 37.0156 21.5575H51.9805Z" fill="var(--fill-0, white)"/>
<path d="M32.6191 19.2284C32.7622 19.2286 32.8779 19.3439 32.8779 19.4862C32.8779 19.6287 32.7623 19.7439 32.6191 19.7441H17.6543C17.511 19.7441 17.3945 19.6288 17.3945 19.4862C17.3946 19.3438 17.511 19.2284 17.6543 19.2284H32.6191Z" fill="var(--fill-0, white)"/>
<path d="M51.9805 19.2284C52.1237 19.2284 52.2402 19.3438 52.2402 19.4862C52.2402 19.6288 52.1238 19.7441 51.9805 19.7441H37.0156C36.8725 19.7439 36.7568 19.6287 36.7568 19.4862C36.7569 19.3439 36.8725 19.2286 37.0156 19.2284H51.9805Z" fill="var(--fill-0, white)"/>
<path d="M32.6191 16.6191C32.7623 16.6192 32.8779 16.7345 32.8779 16.8769C32.8779 17.0192 32.7623 17.1345 32.6191 17.1347H17.6543C17.511 17.1347 17.3946 17.0194 17.3945 16.8769C17.3945 16.7343 17.511 16.6191 17.6543 16.6191H32.6191Z" fill="var(--fill-0, white)"/>
<path d="M51.9805 16.6191C52.1238 16.6191 52.2402 16.7343 52.2402 16.8769C52.2402 17.0194 52.1237 17.1347 51.9805 17.1347H37.0156C36.8725 17.1345 36.7569 17.0193 36.7568 16.8769C36.7568 16.7344 36.8725 16.6192 37.0156 16.6191H51.9805Z" fill="var(--fill-0, white)"/>
<path d="M32.6191 14.289C32.7623 14.2892 32.8779 14.4054 32.8779 14.5478C32.8777 14.69 32.7621 14.8054 32.6191 14.8056H17.6543C17.5111 14.8056 17.3948 14.6901 17.3945 14.5478C17.3945 14.4052 17.511 14.289 17.6543 14.289H32.6191Z" fill="var(--fill-0, white)"/>
<path d="M51.9805 14.289C52.1238 14.289 52.2402 14.4052 52.2402 14.5478C52.24 14.6901 52.1236 14.8056 51.9805 14.8056H37.0156C36.8726 14.8054 36.7571 14.69 36.7568 14.5478C36.7568 14.4053 36.8725 14.2891 37.0156 14.289H51.9805Z" fill="var(--fill-0, white)"/>
</g>
<path id="Vector_3" d="M32.0085 43.692C32.0085 43.692 26.813 43.1921 27.3748 37.942C27.9366 32.6919 28.9579 32.9293 33.6242 30.7458C33.6242 30.7458 37.4352 30.7281 38.498 31.8648C39.5607 33.0015 40.1775 30.7502 40.1775 30.7502C40.1775 30.7502 45.1432 24.5374 51.3422 25.8436C57.5413 27.1499 46.5038 32.0948 46.5038 32.0948C46.5038 32.0948 39.3815 32.1921 41.224 34.8208C41.224 34.8208 42.2958 36.7979 41.6789 38.4447C41.0625 40.0915 41.0697 42.7338 40.6622 42.8102C40.2547 42.8869 34.1726 44.2051 34.1726 44.2051L32.0085 43.692Z" fill="var(--fill-0, white)"/>
<g id="Union_3">
<path d="M51.2724 25.9482C51.7999 25.9528 52.3257 26.0148 52.8398 26.1328C57.9448 27.9286 61.409 34.3976 64.5321 35.3896C64.769 35.4646 65.0097 35.5281 65.2528 35.5791C67.6688 36.0933 70.3712 35.5335 72.7694 35.3818C74.3492 35.2814 75.9707 35.3175 77.4989 35.7392C77.6885 35.7908 77.8832 35.8546 78.0732 35.9238H78.0819C80.2164 36.6863 82.3177 38.3772 82.8398 40.624C83.425 43.1141 81.5206 45.4439 79.373 46.4228C78.0284 46.9523 76.8736 47.2492 75.7519 47.2861C75.1648 47.3054 74.577 47.248 74.0048 47.1152C72.3226 46.748 70.5587 45.7368 68.2245 43.9502L68.1698 43.9091C66.1555 42.3742 63.7228 40.2644 60.5507 37.5029C60.4455 37.4117 60.3338 37.3098 60.2138 37.208C59.9039 36.9413 59.5857 36.6653 59.2626 36.3808C57.9259 35.1896 56.4656 34.1425 54.9071 33.2568C54.8701 33.2347 54.8328 33.2203 54.7958 33.1982C54.6474 33.1112 54.4923 33.0322 54.3398 32.9541C53.9967 32.778 53.6414 32.6262 53.2773 32.499C52.3844 32.1814 51.4442 32.0123 50.496 31.999L49.914 32.0136C42.4031 32.2333 40.748 33.9707 40.748 33.9707C41.5121 35.0073 41.9815 36.2291 42.1064 37.5087C41.4868 37.4083 40.8686 37.6 40.7616 38.2812C40.6329 39.117 40.4383 39.8835 39.6571 40.3759C39.1812 40.6529 38.6183 40.7424 38.079 40.6279C38.079 40.6279 38.0679 40.6279 38.0634 40.6279C37.9065 40.5822 37.7538 40.5454 37.6191 40.5175C37.5591 40.5035 37.5005 40.4851 37.4433 40.4628C35.869 39.8924 34.9498 40.1138 35.2489 41.79C35.6004 43.7607 33.0141 44.0191 31.3095 43.7158C28.302 42.3698 27.479 37.1184 29.8622 33.8837C29.923 33.8012 29.9908 33.7134 30.0605 33.625C30.1301 33.5365 30.2096 33.4556 30.2792 33.373C30.457 33.181 30.6466 33 30.8466 32.831C30.9163 32.772 30.9859 32.7107 31.0585 32.6562C31.1311 32.6016 31.2348 32.5223 31.3222 32.4589C31.4074 32.3915 31.4972 32.3297 31.5907 32.2744C33.2208 31.2079 35.2202 30.8543 37.12 31.2959C37.8782 31.5637 38.5902 31.9463 39.2304 32.4306C39.2344 32.4245 39.2942 32.3341 39.4101 32.1748C39.6887 32.3387 39.9566 32.5197 40.2128 32.7168C40.2267 32.6957 44.7367 25.8704 51.2724 25.9482Z" fill="var(--fill-0, #F07C14)"/>
<path d="M99.0985 24.4785C99.6099 23.7873 100.54 23.5501 101.322 23.9121C101.525 24.0048 101.707 24.1365 101.858 24.2988C101.968 24.7641 101.887 25.2533 101.633 25.6591L99.536 29.1289L94.0614 36.4531L93.3319 33.1211C93.3434 32.6372 93.5018 32.1682 93.786 31.7753L98.581 25.1211L99.0985 24.4785Z" fill="var(--fill-0, #F07C14)"/>
<path d="M121.795 24.9375C122.604 24.6445 123.508 24.9567 123.96 25.6855C124.057 25.8381 124.129 26.0051 124.175 26.1796C124.044 26.7102 123.676 27.1524 123.176 27.3789L119.017 29.3496L109.757 32.7275L110.646 29.6533C110.922 29.2507 111.316 28.9416 111.774 28.7685L119.818 25.7041L121.795 24.9375Z" fill="var(--fill-0, #F07C14)"/>
</g>
<path id="Union_4" fill-rule="evenodd" clip-rule="evenodd" d="M98.4404 23.4714C99.0289 22.6916 100.086 22.4267 100.976 22.8376L101.103 22.9021C101.393 23.0605 101.641 23.2869 101.824 23.5632L101.864 23.6267C102.273 24.2905 102.271 25.1293 101.855 25.7937L99.8389 29.1374L106.141 41.155L110.441 29.1286C110.525 28.8962 110.643 28.6779 110.791 28.4802C111.098 28.0347 111.533 27.6922 112.04 27.4997L119.728 24.5817L119.729 24.5837L121.705 23.8122L121.708 23.8112L121.71 23.8103C122.755 23.4295 123.916 23.9379 124.339 24.9616C124.761 25.9839 124.296 27.1551 123.287 27.6159L119.245 29.53L113.091 59.1862L113.089 59.1931L113.087 59.2009C112.572 61.1027 111.215 62.6036 109.479 63.3493H127.034V63.8659H35.6582C35.4082 63.963 35.1288 63.9947 34.8457 63.9411L34.4482 63.8659H1.06445V63.3493H16.4443V60.4626L14.3203 60.0612C13.5186 59.9095 12.9922 59.1399 13.1445 58.3425C13.2971 57.5451 14.0705 57.0223 14.8721 57.1735L35.3984 61.0524C36.2 61.2041 36.7262 61.9739 36.5742 62.7712C36.5331 62.9866 36.4453 63.1818 36.3252 63.3493H42.6494L42.5068 63.323C41.1462 63.03 40.1227 61.9808 39.8037 60.738C38.2167 60.3847 36.7871 59.8631 35.6602 59.0915L34.8516 58.5515C32.9488 57.3184 30.9331 56.2664 28.8311 55.4099L28.3486 55.2185C28.0503 55.102 27.8139 55.0126 27.6523 54.9528C27.6283 54.9439 27.6056 54.935 27.585 54.9274C27.2987 55.2827 26.8806 55.5171 26.4385 55.6501C25.9333 55.802 25.3712 55.8312 24.873 55.7517L24.3467 56.8327C24.0385 57.4638 23.2871 57.7448 22.6377 57.4714C22.2888 57.3246 22.0203 57.0357 21.8994 56.6784C21.7785 56.3211 21.8171 55.9291 22.0059 55.6022L22.3281 55.0427C22.3399 55.0122 22.3528 54.9824 22.3672 54.9538L22.5 54.6843C21.5601 53.917 21.404 52.65 21.7041 51.5778C22.0241 50.4166 22.6035 49.5976 23.3594 49.0456C24.1117 48.4963 25.0197 48.2249 25.9766 48.1247C27.8808 47.9255 30.0479 48.3976 31.7363 48.7868L32.498 48.9743C34.2678 49.4274 36.0069 49.9937 37.7031 50.6716C38.1062 50.8318 38.5065 51.0061 38.9033 51.1784C39.3013 51.3512 39.696 51.5225 40.0938 51.6814C40.8038 51.9649 41.5154 52.2041 42.249 52.3327L41.6006 45.7478L41.5957 45.7663L39.9463 45.2771C39.7386 45.4447 39.4971 45.6159 39.2207 45.7722C38.0838 46.415 36.3853 46.8117 34.1318 45.9079L34.1279 45.9069L34.125 45.906C33.0356 45.4351 32.0432 44.7686 31.1953 43.9421C30.8271 43.8724 30.4987 43.7794 30.2461 43.6687C28.312 42.8212 27.2616 40.5071 27.2305 38.1237C27.1998 35.7746 28.1543 33.2608 30.3398 31.8386C30.3654 31.8209 30.3919 31.8048 30.418 31.7888C30.4357 31.7776 30.4529 31.7656 30.4707 31.7546C33.248 29.9346 36.6945 30.3033 39.167 32.0661C39.1852 32.0407 39.2052 32.0134 39.2266 31.9841C39.3655 31.7933 39.5705 31.5217 39.8369 31.197C40.3695 30.5477 41.1494 29.683 42.1367 28.82C44.1061 27.0986 46.9325 25.3588 50.2979 25.4011C53.6837 25.4438 56.4068 27.662 58.6982 29.9421C59.2735 30.5145 59.8256 31.0954 60.3555 31.6501C60.8865 32.206 61.3944 32.736 61.8867 33.2116C62.8792 34.1704 63.7752 34.8772 64.6162 35.1442C65.8665 35.5411 67.2289 35.5824 68.623 35.4987C69.3193 35.4569 70.0183 35.3841 70.7129 35.3112C71.4054 35.2385 72.0947 35.1654 72.7617 35.1237L73.0615 35.1062C74.5617 35.0285 76.108 35.0851 77.5781 35.4909L78.0244 35.6286C80.2601 36.3838 82.5339 38.1514 83.0977 40.5642L83.125 40.6911C83.3885 41.997 83.0159 43.2464 82.3135 44.2849C82.0679 44.6479 81.7801 44.986 81.4639 45.2946C84.8442 44.1099 89.0665 43.988 92.9775 44.9704C93.9789 45.2219 94.962 45.5471 95.9072 45.946L92.6934 33.0134C92.6338 32.7699 92.6098 32.5183 92.6221 32.2683C92.6332 31.7346 92.8041 31.2162 93.1143 30.78L93.1152 30.778L97.9102 24.1306L98.1514 24.3024L97.9209 24.1208L98.4404 23.4714ZM16.9629 63.3493H31.7158L16.9629 60.5603V63.3493ZM14.7754 57.6804C14.2551 57.5822 13.7532 57.9218 13.6543 58.4392C13.5555 58.9565 13.897 59.4559 14.417 59.5544L34.4941 63.3493H35.5508C35.8088 63.2208 36.0064 62.9792 36.0645 62.6755C36.1571 62.1903 35.8624 61.7204 35.3965 61.5827L35.3008 61.5603L14.7754 57.6804ZM53.3809 58.9138C53.2632 60.8727 52.0706 62.5432 50.3809 63.3493H61.6426C58.5705 62.6093 55.7195 61.0906 53.3809 58.9138ZM123.858 25.1569C123.541 24.3901 122.672 24.0094 121.889 24.2946L119.916 25.0661L119.835 24.861L119.912 25.0651L112.226 27.9821C111.817 28.1372 111.466 28.4125 111.219 28.7712L111.216 28.7761L111.213 28.78C111.093 28.9387 110.998 29.1148 110.931 29.3015L105.781 43.7019L105.784 43.7038L105.655 44.0573V44.0593C104.487 47.1642 103.836 49.6215 103.479 51.2995C103.398 51.6789 103.332 52.0188 103.278 52.3171C103.297 52.3517 103.317 52.3857 103.335 52.4206L103.253 52.4626C103.201 52.7598 103.162 53.0118 103.133 53.2165C103.102 53.4329 103.083 53.5969 103.071 53.7058C103.065 53.7601 103.062 53.8011 103.06 53.8278C103.058 53.841 103.057 53.8508 103.057 53.8571C103.056 53.8601 103.056 53.8625 103.056 53.864V53.8659C103.053 53.8657 103.029 53.8643 102.797 53.8474C102.538 53.8285 102.538 53.8279 102.538 53.8278L102.539 53.8249C102.539 53.8228 102.539 53.819 102.539 53.8151C102.54 53.8074 102.541 53.7963 102.542 53.7819C102.545 53.7524 102.55 53.7083 102.556 53.6511C102.568 53.5365 102.588 53.3665 102.619 53.1442C102.648 52.9413 102.686 52.6944 102.736 52.405C100.742 48.8066 96.9848 46.5089 92.8506 45.4704C88.6191 44.4075 84.0358 44.6745 80.6328 46.1774L79.9902 46.4528C79.8367 46.5166 79.6845 46.5758 79.5352 46.6345C79.4804 46.6602 79.4262 46.6867 79.3711 46.7106L79.3672 46.7116L79.3633 46.7136L79.1455 46.8005C79.0298 46.8463 78.9149 46.8891 78.7969 46.9274C78.7602 46.9424 78.7221 46.9559 78.6836 46.9675L78.6426 46.9812C78.5168 47.0214 78.3846 47.0658 78.2539 47.112L78.2461 47.0905C77.4885 47.3226 76.7755 47.471 76.0771 47.5231C77.1297 48.7204 81.49 54.2695 80.5811 63.3493H106.97C109.599 63.3488 111.899 61.5942 112.584 59.07L118.764 29.3005L118.79 29.1745L123.064 27.1501L123.067 27.1481C123.826 26.8037 124.175 25.9241 123.858 25.1569ZM52.873 49.5026C48.4485 44.6749 43.4402 46.8269 42.2871 47.4216L43.4775 59.5007L42.9609 59.5515L42.752 57.4323C41.8073 57.3164 40.8915 57.8282 40.5049 58.7019L40.501 58.7106C39.6595 60.4298 40.7998 62.4861 42.707 62.8366L42.7988 62.8522L42.8008 62.8532C44.553 63.1364 46.323 63.3006 48.0977 63.3483C50.7354 63.3455 52.873 61.2184 52.873 58.5944V49.5026ZM30.9639 49.1403C29.4008 48.7945 27.6087 48.4732 26.0303 48.6384C25.133 48.7323 24.322 48.9826 23.666 49.4616C23.0141 49.9378 22.4964 50.6539 22.2041 51.7155L22.2031 51.7165C21.948 52.6279 22.0882 53.5987 22.7393 54.2048L24.5508 50.5759C25.0704 49.5223 26.0919 48.8023 27.2637 48.6647L27.2793 48.6638H27.3389V49.1794H27.3125C26.3208 49.3 25.4568 49.9107 25.0166 50.8034L22.832 55.1823C22.8226 55.201 22.8142 55.2212 22.8076 55.2399L22.7998 55.2624L22.7881 55.2829L22.4561 55.8601C22.3414 56.0587 22.3173 56.2963 22.3906 56.5134C22.4549 56.7034 22.5882 56.8624 22.7627 56.9587L22.8398 56.9958C23.235 57.1621 23.6924 56.991 23.8799 56.6071L25.5303 53.2185C25.4903 53.1407 25.4583 53.0584 25.4336 52.9733C25.3313 52.6219 25.3725 52.245 25.5498 51.9245L25.585 51.8649C25.7652 51.5747 26.048 51.3607 26.3789 51.2653L29.9541 50.2331L30.0996 50.7292L26.5234 51.7614C26.3024 51.8251 26.1158 51.9733 26.0049 52.1735C25.9077 52.3492 25.8757 52.5515 25.9121 52.7468L25.9316 52.8308C25.9955 53.0503 26.1444 53.236 26.3457 53.3464C26.5473 53.4568 26.7858 53.4824 27.0068 53.4187L29.5264 52.694L29.5986 52.9421L29.6709 53.1892L27.9463 53.6853C27.9729 53.9525 27.9373 54.2213 27.8428 54.4724C28.0066 54.533 28.2424 54.6216 28.5381 54.737L29.0273 54.9323C31.4644 55.9253 33.7872 57.1775 35.9551 58.6667C36.9607 59.3552 38.2466 59.8429 39.7109 60.1862C39.6645 59.6247 39.7613 59.0415 40.0342 58.4841C40.5 57.4424 41.574 56.8173 42.7002 56.9069L42.3018 52.863C41.465 52.7323 40.6692 52.4678 39.9004 52.1608C39.4941 51.9986 39.092 51.8233 38.6953 51.6511C38.2974 51.4783 37.904 51.3078 37.5098 51.1511L36.7891 50.8708C35.1023 50.2327 33.3755 49.704 31.6191 49.2888L30.9639 49.1403ZM25.1113 55.2624C25.4945 55.3017 25.9125 55.2679 26.2881 55.155C26.724 55.0239 27.076 54.7961 27.2676 54.4841C27.3848 54.2852 27.4413 54.0588 27.4365 53.8317L27.1504 53.9147C26.7972 54.0166 26.4178 53.975 26.0957 53.7985C26.0233 53.7589 25.956 53.7119 25.8926 53.6608L25.1113 55.2624ZM100.757 23.3064C100.087 22.9973 99.2922 23.1973 98.8516 23.7858L98.8486 23.7897L98.8457 23.7927L98.3271 24.4411L98.3252 24.4392L93.5381 31.0778C93.2868 31.4312 93.1484 31.8517 93.1406 32.2849V32.2897L93.1396 32.2937C93.1299 32.494 93.1488 32.6947 93.1963 32.8894L96.5068 46.2106C99.1117 47.4193 101.382 49.2166 102.881 51.6286C102.909 51.4897 102.938 51.3444 102.971 51.1931C103.333 49.4916 103.99 47.0105 105.167 43.8825L105.903 41.819L99.2441 29.1198L101.413 25.5251L101.416 25.5212C101.738 25.0071 101.728 24.353 101.392 23.8483L101.391 23.8474C101.235 23.6118 101.014 23.4244 100.757 23.3064ZM50.292 25.9177C47.1116 25.8776 44.4052 27.5236 42.4785 29.2077C41.518 30.0474 40.7585 30.8902 40.2393 31.5231C39.9798 31.8395 39.7803 32.1032 39.6465 32.2868C39.622 32.3204 39.6001 32.3515 39.5801 32.3796C40.0198 32.7377 40.4227 33.1424 40.7773 33.5896C40.8224 33.5538 40.875 33.515 40.9355 33.4733C41.2091 33.2852 41.65 33.0423 42.3379 32.7985C43.7125 32.3116 46.0832 31.816 50.1045 31.7419V31.7458C51.5159 31.7051 52.9328 31.9965 54.2324 32.6189L54.459 32.7312L54.4609 32.7321C54.5319 32.7696 54.609 32.809 54.6875 32.8503L54.9248 32.9792L54.9346 32.9851C54.9399 32.9884 54.9473 32.9927 54.9658 33.0017C54.9805 33.0088 55.0071 33.0224 55.0352 33.0388C56.6077 33.9325 58.0822 34.9882 59.4316 36.1901L59.9102 36.6091L60.3809 37.0153L60.3818 37.0163L60.7148 37.3083L60.7188 37.3112C63.8885 40.073 66.3161 42.1711 68.3223 43.7058L68.3779 43.7468L68.3799 43.7487C71.5197 46.1486 73.5654 47.0959 75.7383 47.0251C76.8347 46.99 77.9779 46.6898 79.3271 46.1608C80.3186 45.693 81.2523 44.9289 81.8828 43.9968C82.526 43.0459 82.847 41.9351 82.6162 40.7917L82.5918 40.6804C82.0493 38.3596 79.7078 36.6194 77.4395 35.988C76.0446 35.6029 74.5604 35.5457 73.0889 35.6218L72.7949 35.6384C72.1409 35.6793 71.463 35.7509 70.7676 35.8239C70.0743 35.8967 69.3639 35.9708 68.6543 36.0134C67.2363 36.0985 65.7987 36.0611 64.458 35.6355C63.4906 35.3282 62.5195 34.5421 61.5254 33.5817C61.0245 33.0978 60.5088 32.5607 59.9785 32.0056C59.4473 31.4494 58.9006 30.874 58.3311 30.3073C56.0423 28.0299 53.4516 25.9576 50.292 25.9177ZM41.835 37.4812C41.2765 32.2676 35.1052 29.3288 30.749 32.1921L30.7412 32.197L30.7324 32.2019C30.6718 32.2357 30.6105 32.2771 30.5547 32.323L30.543 32.3317L30.4863 32.3737C30.3995 32.4381 30.3145 32.5 30.2305 32.5651C29.9624 32.7755 29.7114 33.0073 29.4795 33.2565C29.4093 33.3349 29.3387 33.418 29.2705 33.4987C29.2074 33.5735 29.1439 33.6598 29.082 33.7439L29.0771 33.7399C28.154 35.0013 27.729 36.5832 27.749 38.1169C27.7778 40.3232 28.7204 42.3337 30.3008 43.1237L30.4561 43.197L30.583 43.2478C31.2538 43.498 32.4424 43.6497 33.4365 43.4802C33.9653 43.3899 34.4029 43.2143 34.6797 42.9499C34.9417 42.6994 35.084 42.3463 34.9873 41.822V41.82C34.9099 41.3839 34.906 41.0142 34.9893 40.7155C35.0755 40.4067 35.255 40.1757 35.5225 40.0427C35.7789 39.9152 36.0886 39.8912 36.417 39.9265C36.748 39.9621 37.1228 40.0608 37.5273 40.2058L37.7617 40.2829C38.2922 40.4389 38.7113 40.4367 39.041 40.3532C39.4176 40.2578 39.7022 40.0497 39.917 39.8034C40.1332 39.5553 40.2769 39.2707 40.3662 39.0339C40.4106 38.9162 40.4403 38.8124 40.459 38.7351C40.48 38.6481 40.4824 38.6139 40.4824 38.6247H41.001C41.001 38.6811 40.985 38.7688 40.9639 38.8562C40.9404 38.9532 40.9037 39.0773 40.8516 39.2155C40.7477 39.4909 40.5768 39.8348 40.3086 40.1423C40.0386 40.4518 39.6677 40.727 39.1699 40.8532C38.6722 40.9793 38.071 40.9501 37.3516 40.6911C36.9683 40.5538 36.6362 40.4687 36.3613 40.4392C36.0843 40.4094 35.8875 40.4387 35.7549 40.5046C35.6332 40.5651 35.5408 40.6686 35.4893 40.8532C35.435 41.0477 35.4276 41.3315 35.498 41.7292L35.5176 41.8552C35.599 42.4752 35.4122 42.9653 35.0391 43.322C34.6558 43.6882 34.1013 43.8905 33.5244 43.989C33.0646 44.0674 32.5674 44.0815 32.0889 44.0524C32.7641 44.6152 33.5177 45.0807 34.3281 45.4314C36.425 46.2715 37.958 45.8924 38.9648 45.323C39.4729 45.0356 39.8529 44.6961 40.1055 44.4284C40.2314 44.295 40.3252 44.1798 40.3867 44.0993C40.4173 44.0592 40.4406 44.0274 40.4551 44.0065C40.4623 43.9962 40.4675 43.9879 40.4707 43.9831C40.4722 43.9809 40.473 43.9791 40.4736 43.9782L40.9121 44.2556L40.9111 44.2565C40.9107 44.2572 40.9098 44.2585 40.9092 44.2595C40.9077 44.2617 40.9058 44.2655 40.9033 44.2692C40.8983 44.2768 40.891 44.2873 40.8818 44.3005C40.8633 44.3271 40.8353 44.3644 40.7998 44.4108C40.7288 44.5038 40.624 44.6329 40.4844 44.781C40.456 44.811 40.4238 44.8402 40.3926 44.8718L41.5479 45.2136L41.1367 41.0349L41.1348 41.0231V41.0105C41.1337 39.7757 41.3804 38.5805 41.835 37.4812ZM46.9258 32.4284C44.8163 32.6274 43.4202 32.963 42.5117 33.2849C41.8599 33.5158 41.4612 33.7395 41.2305 33.8981C41.1714 33.9388 41.1225 33.9743 41.084 34.0056C41.6206 34.7853 42.017 35.6751 42.2266 36.6521C43.1978 34.8368 44.7697 33.3544 46.7461 32.5026C46.8055 32.4764 46.866 32.4533 46.9258 32.4284Z" fill="var(--fill-0, #333333)"/>
</g>
</svg>
