<svg xmlns="http://www.w3.org/2000/svg" fill="none" viewBox="0 0 80 80">
  <g clip-path="url(#a)">
    <path fill="#fff" d="M0 12C0 5.373 5.373 0 12 0h56c6.627 0 12 5.373 12 12v56c0 6.627-5.373 12-12 12H12C5.373 80 0 74.627 0 68V12Z"/>
    <path fill="#F07C14" d="M138.33 79.52c-.268.142-.541.278-.819.406l-.218-.468c.269-.124.533-.255.793-.394l.244.456Zm-114.254-.017-.352.379a25.292 25.292 0 0 1-.609-.578l.366-.368c.195.193.394.382.595.567Zm117.266-2.037c-.463.394-.947.763-1.449 1.107l-.294-.425c.487-.334.956-.692 1.406-1.075l.337.393Zm-120.049-.981c.337.432.688.853 1.053 1.261l-.388.343a25.539 25.539 0 0 1-1.075-1.287l.41-.317Zm122.581-1.629c-.382.473-.784.928-1.204 1.363l-.374-.359c.409-.423.801-.866 1.174-1.328l.404.324ZM19.45 73.769c.275.47.567.934.875 1.388l-.43.29a24.615 24.615 0 0 1-.894-1.419l.45-.26Zm126.243-2.037.226.13a24.204 24.204 0 0 1-.964 1.535l-.43-.29c.332-.486.646-.989.944-1.504l.224.13Zm-127.689-.904c.203.504.426 1.004.669 1.496l-.466.227a22.596 22.596 0 0 1-.684-1.532l.48-.19Zm129.269-2.313.24.097a29.143 29.143 0 0 1-.743 1.65l-.467-.226c.26-.53.503-1.071.73-1.62l.24.099Zm-130.246-.807c.118.529.261 1.056.425 1.58l-.496.152a19.835 19.835 0 0 1-.434-1.62l.505-.112Zm131.422-2.579.25.07a31.897 31.897 0 0 1-.544 1.724l-.245-.085-.246-.084c.194-.56.374-1.126.536-1.695l.249.07Zm-131.836-.655c.017.541.061 1.084.131 1.626l-.514.065a17.171 17.171 0 0 1-.135-1.676l.518-.015Zm132.892-2.794c-.103.59-.222 1.18-.357 1.77l-.252-.056-.253-.058c.132-.58.249-1.163.35-1.743l.512.088Zm-132.903-.496.254.047a14.67 14.67 0 0 0-.209 1.614l-.258-.019-.26-.02a15.23 15.23 0 0 1 .218-1.67l.255.048Zm133.336-3.086a33.98 33.98 0 0 1-.169 1.797l-.258-.03-.258-.032c.072-.594.128-1.186.167-1.77l.518.035Zm-132.118.03c-.223.501-.414 1.01-.573 1.523l-.496-.151c.165-.533.362-1.06.593-1.58l.475.208Zm1.648-2.802a14.69 14.69 0 0 0-.904 1.355l-.448-.261c.28-.476.592-.944.936-1.402l.416.308Zm130.539.064c.005.298.005.6.002.903l-.519-.006c.002-.149.003-.297.002-.445l-.005-.443a28.119 28.119 0 0 0-.029-.865l.26-.011.259-.013c.014.294.024.588.03.88ZM21.839 52.792c-.192.168-.382.34-.567.516l-.184.177c-.198.194-.389.39-.572.588l-.192-.175-.19-.174c.19-.205.386-.407.59-.607l.19-.182c.19-.182.385-.36.583-.532l.342.389Zm127.769-1.782c.094.583.173 1.166.234 1.745l-.517.054a32.15 32.15 0 0 0-.228-1.717l.511-.082ZM25.19 50.443a20.92 20.92 0 0 0-1.738 1.09l-.299-.423c.575-.401 1.17-.773 1.78-1.116l.256.45Zm2.76-1.593.091.24-.075.028c-.317.127-.631.261-.943.401l-.107-.234-.106-.235c.319-.144.64-.281.965-.411l.01-.003.071-.028.093.242Zm120.911-1.279c.156.568.297 1.138.421 1.71l-.508.109a31.36 31.36 0 0 0-.413-1.683l.25-.068.25-.068ZM28.178 48.764l.089.242-.074.027-.091-.242-.093-.24.08-.03.089.243Zm119.563-4.532c.219.546.421 1.098.608 1.655l-.493.163a30.348 30.348 0 0 0-.597-1.626l.482-.192Zm-1.507-3.187c.284.514.552 1.038.803 1.571l-.235.11-.235.11a26.953 26.953 0 0 0-.788-1.542l.228-.124.227-.125Zm-46.916.285c-.315.06-.633.11-.954.15a8.94 8.94 0 0 1-.86.07l-.016-.517c.262-.008.533-.029.81-.064.31-.04.618-.089.923-.147l.097.507Zm-4.958-.922c.477.222.984.392 1.525.498l-.051.253-.05.253a7.177 7.177 0 0 1-1.642-.536l.218-.468Zm8.639-.184c-.595.237-1.198.454-1.811.64l-.152-.493a22.385 22.385 0 0 0 1.77-.626l.193.479ZM91.77 38.492c.384.397.787.76 1.212 1.081l-.312.412c-.45-.339-.874-.721-1.275-1.134l.374-.359Zm52.547-.412a24 24 0 0 1 1.012 1.45l-.219.138-.218.14c-.314-.487-.644-.96-.99-1.42l.207-.155.208-.154Zm-37.974.302.12.228a52.39 52.39 0 0 1-1.71.847l-.11-.232-.112-.234a51.14 51.14 0 0 0 1.693-.839l.119.23Zm3.476-1.548c-.557.292-1.114.59-1.674.89l-.246-.455c.559-.299 1.119-.599 1.678-.892l.242.457Zm-20.096-.912c.315.458.638.905.973 1.332l-.409.317a26.982 26.982 0 0 1-.992-1.357l.214-.146.214-.146Zm52.245-.489c.427.406.837.832 1.229 1.275l-.388.342a20.115 20.115 0 0 0-1.2-1.244l.359-.373Zm-28.782-.227-.828.373c-.284.13-.569.263-.853.4l-.228-.463c.288-.14.576-.275.866-.407.274-.124.551-.25.83-.374l.213.471Zm-24.381-.665-.436.28c-.305-.47-.603-.938-.903-1.398l.435-.281c.3.46.602.933.904 1.399Zm50.38-1.308c.499.322.98.669 1.444 1.036l-.323.403a17.826 17.826 0 0 0-1.404-1.006l.283-.433Zm-22.661.559a76.26 76.26 0 0 0-1.676.69l-.204-.475a76.253 76.253 0 0 1 1.688-.694l.192.479Zm3.324-1.479.08.247c-.574.185-1.145.382-1.711.587l-.178-.484a51.029 51.029 0 0 1 1.729-.595l.08.245Zm16.139-.707a17.262 17.262 0 0 1 1.657.739l-.238.46a16.503 16.503 0 0 0-1.606-.718l.187-.48Zm-49.52-.532c.168.22.333.448.497.679l-.425.297a23.255 23.255 0 0 0-.7-.942l.207-.157.206-.156.215.28Zm36.944.523c-.586.131-1.17.28-1.752.441l-.138-.497a36.595 36.595 0 0 1 1.776-.447l.114.503Zm9.018-.951c.604.099 1.205.227 1.803.388l-.134.498a17.718 17.718 0 0 0-1.753-.376l.084-.51Zm-5.459.372c-.596.057-1.193.136-1.788.234l-.084-.51c.606-.1 1.213-.18 1.821-.238l.051.514Zm1.786-.622c.614-.012 1.228.002 1.841.043l-.035.514a20.907 20.907 0 0 0-1.796-.04l-.01-.517Zm-43.158-.434.22.276-.407.319-.218-.272-.53-.654.402-.325c.177.216.354.435.533.656Zm-2.748-3.221c.384.406.76.829 1.133 1.265l-.394.335c-.37-.432-.74-.848-1.117-1.246l.19-.177.188-.177Zm-2.54-2.281c.462.34.901.703 1.324 1.086l-.35.382a16.302 16.302 0 0 0-1.283-1.053l.309-.415Zm-2.983-1.693c.545.228 1.057.482 1.542.757l-.257.448c-.467-.266-.962-.51-1.487-.73l.202-.475Zm-3.283-.983c.585.116 1.14.252 1.665.407l-.148.495a17.577 17.577 0 0 0-1.618-.396l.05-.253.05-.253Zm-1.689-.264-.061.513a25.69 25.69 0 0 0-.835-.085l.044-.513c.29.024.574.053.852.085Z"/>
    <path fill="#FAD7B7" d="M76.618 39.083a19.004 19.004 0 0 1-3.852 10.991c-.227.243-.458.486-.694.721a20.28 20.28 0 0 1-14.349 5.92h-.055c-3.077 0-6.153.01-9.225.01-2.425 0-4.879.147-7.28-.202-.772-.11-1.502-.354-2.291-.319-3.013.139-5.082 2.974-6.51 5.267a.235.235 0 0 1-.074.073.201.201 0 0 1-.014-.082c.19-3.456-.564-7.03-2.296-10.04a3.455 3.455 0 0 0-.097-.17c-.965-1.622-2.25-3.015-3.077-4.718a19.078 19.078 0 0 1 1.189-18.721c3.649-5.608 9.97-8.922 16.685-8.746l13.207.354c10.631.285 19.018 9.088 18.733 19.662Z"/>
    <path fill="#333" d="m57.723 16.086.255.002a20.606 20.606 0 0 1 14.276 5.986 20.383 20.383 0 0 1 6.018 14.455l-.001.237a20.297 20.297 0 0 1-5.287 13.448l-.004.01-.025.025c-.227.245-.462.49-.7.728a20.538 20.538 0 0 1-14.277 5.994l-.256.001h-.054c-1.538 0-3.077.003-4.614.005-1.538.003-3.075.006-4.612.006-2.403 0-4.89.148-7.316-.205-.392-.056-.79-.149-1.15-.216a4.779 4.779 0 0 0-1.094-.1c-1.421.065-2.636.767-3.681 1.755-1.047.989-1.907 2.247-2.618 3.39l-.002.001a.482.482 0 0 1-.89-.265c.1-3.604-.786-7.292-2.67-10.371l-.003-.005-.002-.005a2.02 2.02 0 0 0-.095-.154l-.002-.004-.002-.003c-.524-.827-1.128-1.593-1.728-2.389-.596-.79-1.185-1.605-1.655-2.51a20.348 20.348 0 0 1 .714-20.01c3.73-6.09 10.382-9.806 17.552-9.806h13.923Zm-14.25.519c-6.864.111-13.202 3.712-16.782 9.555a19.835 19.835 0 0 0-.697 19.505c.45.864 1.016 1.65 1.61 2.438.589.78 1.21 1.568 1.748 2.416.04.061.082.128.119.195 1.912 3.13 2.818 6.862 2.74 10.509.705-1.123 1.57-2.378 2.632-3.38 1.1-1.038 2.426-1.824 4.016-1.897a5.31 5.31 0 0 1 1.212.109c.395.074.748.158 1.128.212 2.377.346 4.797.2 7.243.2 1.536 0 3.073-.003 4.61-.006 1.538-.002 3.077-.005 4.616-.005h.055a20.018 20.018 0 0 0 14.165-5.843 26.49 26.49 0 0 0 .699-.731 19.782 19.782 0 0 0 5.166-13.352 19.868 19.868 0 0 0-5.866-14.09 20.086 20.086 0 0 0-13.916-5.836l-.249-.002H43.8l-.328.003Z"/>
    <path fill="#fff" d="M48.714 42.584a.259.259 0 1 1 0 .517H33.749a.26.26 0 0 1-.26-.258.26.26 0 0 1 .26-.259h14.965Zm19.361 0a.26.26 0 0 1 .26.259.26.26 0 0 1-.26.258H53.11a.259.259 0 1 1 0-.517h14.965Zm-19.361-2.331a.259.259 0 1 1 0 .517H33.749a.259.259 0 0 1-.26-.258.26.26 0 0 1 .26-.26h14.965Zm19.361 0a.26.26 0 0 1 .26.259.26.26 0 0 1-.26.258H53.11a.258.258 0 1 1 0-.517h14.965Zm-19.361-2.609a.259.259 0 1 1 0 .516H33.749a.26.26 0 0 1-.26-.259.26.26 0 0 1 .26-.257h14.965Zm19.361 0a.26.26 0 0 1 .26.257.26.26 0 0 1-.26.26H53.11a.259.259 0 1 1 0-.517h14.965Zm-19.361-2.329a.258.258 0 1 1 0 .515H33.749a.259.259 0 0 1-.26-.258.26.26 0 0 1 .26-.258h14.965Zm19.361 0c.144 0 .26.115.26.257a.259.259 0 0 1-.26.258H53.11a.258.258 0 1 1 0-.515h14.965Zm-19.361-2.61a.258.258 0 1 1 0 .516H33.749a.259.259 0 0 1-.26-.258.26.26 0 0 1 .26-.258h14.965Zm19.361 0c.144 0 .26.115.26.258a.259.259 0 0 1-.26.258H53.11a.258.258 0 1 1 0-.516h14.965Zm-19.361-2.33a.259.259 0 1 1 0 .517H33.749a.26.26 0 0 1-.26-.258.26.26 0 0 1 .26-.259h14.965Zm19.361 0a.26.26 0 0 1 .26.259.26.26 0 0 1-.26.258H53.11a.259.259 0 1 1 0-.517h14.965Z"/>
    <path fill="#fff" d="M48.103 59.778s-5.195-.5-4.633-5.75c.562-5.25 1.583-5.013 6.25-7.196 0 0 3.81-.018 4.873 1.119 1.063 1.136 1.68-1.115 1.68-1.115s4.965-6.213 11.164-4.907c6.2 1.307-4.838 6.252-4.838 6.252s-7.123.097-5.28 2.726c0 0 1.072 1.977.455 3.624-.617 1.646-.61 4.289-1.017 4.365-.407.077-6.49 1.395-6.49 1.395l-2.164-.513Z"/>
    <path fill="#F07C14" d="M67.367 42.034a7.298 7.298 0 0 1 1.568.185c5.105 1.796 8.569 8.265 11.692 9.257.237.075.478.138.72.19 2.417.514 5.12-.046 7.517-.198 1.58-.1 3.202-.064 4.73.357.19.052.384.116.574.185h.009c2.134.763 4.236 2.453 4.758 4.7.585 2.49-1.32 4.82-3.467 5.8-1.345.529-2.5.826-3.621.862a6.745 6.745 0 0 1-1.747-.17c-1.682-.368-3.446-1.379-5.78-3.166l-.055-.04c-2.015-1.535-4.447-3.645-7.62-6.407-.105-.091-.216-.193-.336-.295-.31-.266-.628-.542-.951-.827a25.437 25.437 0 0 0-4.356-3.124c-.037-.022-.074-.037-.111-.059-.149-.087-.304-.166-.456-.244a8.386 8.386 0 0 0-1.063-.455 8.664 8.664 0 0 0-2.781-.5l-.582.015c-7.51.22-9.166 1.957-9.166 1.957a7.13 7.13 0 0 1 1.358 3.538c-.62-.1-1.237.091-1.344.773-.13.835-.324 1.602-1.105 2.094a2.222 2.222 0 0 1-1.578.252h-.016a5.779 5.779 0 0 0-.444-.11 1.31 1.31 0 0 1-.176-.055c-1.574-.57-2.493-.349-2.194 1.327.351 1.971-2.235 2.23-3.94 1.926-3.007-1.346-3.83-6.597-1.447-9.832.061-.083.129-.17.198-.259.07-.088.15-.17.22-.252.177-.192.367-.373.567-.542.07-.059.139-.12.212-.175l.263-.197c.085-.067.175-.13.269-.184a7.148 7.148 0 0 1 5.529-.979c.758.268 1.47.65 2.11 1.135.004-.006.064-.097.18-.256.279.164.547.345.803.542.014-.021 4.524-6.846 11.06-6.769Zm47.827-1.469a1.817 1.817 0 0 1 2.223-.567c.203.093.384.225.536.387.11.465.029.955-.225 1.36l-2.097 3.47-5.475 7.324-.729-3.332a2.39 2.39 0 0 1 .454-1.345l4.795-6.655.518-.642Zm22.696.459a1.819 1.819 0 0 1 2.38 1.242c-.131.53-.499.973-.999 1.2l-4.159 1.97-9.26 3.378.889-3.075c.276-.402.67-.711 1.128-.884l8.044-3.065 1.977-.766Z"/>
    <path fill="#333" fill-rule="evenodd" d="M114.535 39.557a2.083 2.083 0 0 1 2.535-.633l.127.064c.291.159.539.385.722.661l.04.064a2.052 2.052 0 0 1-.009 2.167l-2.016 3.343 6.301 12.018 4.301-12.026a2.47 2.47 0 0 1 .35-.649 2.662 2.662 0 0 1 1.249-.98l7.687-2.918.001.002 1.977-.772h.003l.002-.002a2.076 2.076 0 0 1 2.629 1.152 2.056 2.056 0 0 1-1.052 2.654l-4.042 1.914-6.154 29.656-.002.007-.002.008a6.314 6.314 0 0 1-3.608 4.148h17.555v.517H51.753c-.25.097-.53.129-.813.075l-.397-.075H17.159v-.517h15.38V76.55l-2.124-.402a1.47 1.47 0 0 1-1.176-1.719 1.477 1.477 0 0 1 1.728-1.168l20.526 3.878a1.471 1.471 0 0 1 1.176 1.72 1.46 1.46 0 0 1-.25.577h6.325l-.142-.026a3.578 3.578 0 0 1-2.704-2.585c-1.587-.353-3.016-.875-4.143-1.647l-.809-.54a36.162 36.162 0 0 0-6.02-3.141l-.483-.192a43.85 43.85 0 0 0-.696-.265l-.067-.026c-.287.356-.705.59-1.147.723a3.604 3.604 0 0 1-1.565.102l-.527 1.08a1.329 1.329 0 0 1-2.447-.154 1.314 1.314 0 0 1 .107-1.076l.322-.56a.971.971 0 0 1 .039-.088l.133-.27c-.94-.767-1.096-2.034-.796-3.106.32-1.161.9-1.98 1.655-2.532.752-.55 1.66-.821 2.617-.921 1.904-.2 4.072.273 5.76.662l.762.187a42.23 42.23 0 0 1 5.205 1.698c.403.16.803.334 1.2.506.398.173.793.345 1.19.503.71.284 1.422.523 2.156.652l-.649-6.585-.005.018-1.649-.489c-.208.168-.45.339-.726.495-1.136.643-2.835 1.04-5.088.136l-.004-.001-.003-.001a9.727 9.727 0 0 1-2.93-1.964 4.538 4.538 0 0 1-.95-.273c-1.933-.848-2.984-3.162-3.015-5.545-.03-2.35.924-4.863 3.11-6.285.025-.018.052-.034.078-.05l.052-.034c2.778-1.82 6.224-1.452 8.697.311l.06-.082c.138-.19.343-.462.61-.787a20.274 20.274 0 0 1 2.3-2.377c1.969-1.721 4.795-3.461 8.16-3.419 3.386.043 6.11 2.261 8.401 4.541.575.572 1.127 1.153 1.657 1.708a55.723 55.723 0 0 0 1.531 1.562c.993.958 1.889 1.665 2.73 1.932 1.25.397 2.613.438 4.007.355a47.163 47.163 0 0 0 2.09-.188c.692-.072 1.381-.146 2.048-.187l.3-.018c1.5-.078 3.047-.02 4.517.385l.446.138c2.236.755 4.51 2.522 5.073 4.935l.028.127c.263 1.306-.11 2.555-.812 3.594a6.54 6.54 0 0 1-.85 1.01c3.381-1.185 7.603-1.307 11.514-.325 1.002.252 1.985.577 2.93.976L108.788 49.1a2.633 2.633 0 0 1-.071-.745 2.663 2.663 0 0 1 .492-1.488l.001-.002 4.795-6.647.241.171-.23-.181.519-.65ZM33.058 79.435H47.81l-14.752-2.789v2.79Zm-2.188-5.669a.954.954 0 1 0-.358 1.874l20.077 3.795h1.056a.952.952 0 0 0-.154-1.766l-.096-.023-20.525-3.88ZM69.476 75a5.271 5.271 0 0 1-3 4.435h11.261A18.475 18.475 0 0 1 69.476 75Zm70.477-33.757a1.555 1.555 0 0 0-1.97-.862l-1.972.771-.081-.205.077.204-7.687 2.917a2.15 2.15 0 0 0-1.007.79l-.002.004-.003.004a1.97 1.97 0 0 0-.283.522l-5.149 14.4.003.002-.129.353v.002c-1.169 3.105-1.819 5.562-2.177 7.24-.081.38-.146.72-.2 1.018l.057.104-.082.042a21.02 21.02 0 0 0-.182 1.243l-.012.122a.399.399 0 0 1-.003.03l-.001.006v.002l-.258-.019-.259-.02.001-.002v-.01a.26.26 0 0 1 .003-.033l.013-.13a19.414 19.414 0 0 1 .181-1.247c-1.994-3.598-5.751-5.896-9.886-6.935-4.231-1.063-8.814-.795-12.217.707l-.643.276c-.154.064-.306.123-.455.181-.055.026-.11.053-.164.077h-.004l-.004.003-.218.087c-.115.045-.23.088-.348.126a1.286 1.286 0 0 1-.114.04l-.04.014c-.126.04-.259.085-.39.131l-.007-.022a9.845 9.845 0 0 1-2.17.433c1.053 1.197 5.414 6.747 4.505 15.826h26.388a5.813 5.813 0 0 0 5.615-4.279l6.179-29.77.027-.126 4.274-2.024.003-.002a1.54 1.54 0 0 0 .791-1.991ZM68.968 65.589c-4.425-4.828-9.433-2.676-10.586-2.081l1.19 12.079-.516.05-.21-2.119a2.168 2.168 0 0 0-2.246 1.27l-.004.009c-.842 1.719.299 3.775 2.206 4.126l.092.015.002.001c1.752.283 3.522.448 5.296.495 2.638-.002 4.776-2.13 4.776-4.754v-9.09Zm-21.91-.363c-1.563-.346-3.355-.667-4.933-.502-.897.094-1.708.345-2.364.824-.652.476-1.17 1.192-1.462 2.254h-.001c-.255.912-.115 1.883.536 2.489l1.811-3.63a3.475 3.475 0 0 1 2.713-1.91l.016-.001h.06v.515h-.027a2.956 2.956 0 0 0-2.296 1.624l-2.184 4.38a.49.49 0 0 0-.025.057l-.008.022-.011.02-.332.578a.796.796 0 0 0 .306 1.099l.078.037a.809.809 0 0 0 1.04-.389l1.65-3.389a1.373 1.373 0 0 1 .02-1.294l.035-.06c.18-.29.463-.503.794-.599l3.575-1.032.145.496-3.576 1.032a.86.86 0 0 0-.611.985l.02.085a.863.863 0 0 0 1.075.588l2.52-.725.071.248.073.247-1.725.496c.027.267-.009.536-.103.787.163.061.4.15.695.265l.49.195a36.676 36.676 0 0 1 6.927 3.735c1.006.688 2.291 1.176 3.756 1.52a3.238 3.238 0 0 1 .323-1.703 2.687 2.687 0 0 1 2.666-1.577l-.398-4.044c-.837-.13-1.633-.395-2.402-.702-.406-.162-.808-.338-1.205-.51a41.072 41.072 0 0 0-1.185-.5l-.721-.28a41.775 41.775 0 0 0-5.17-1.582l-.655-.149Zm-5.852 6.122c.383.04.801.006 1.177-.107.436-.131.788-.359.98-.67.117-.2.173-.426.168-.653l-.286.083a1.392 1.392 0 0 1-1.258-.254l-.78 1.601Zm75.646-31.956a1.564 1.564 0 0 0-1.906.48l-.003.004-.003.003-.518.648-.002-.002-4.787 6.639c-.251.353-.39.774-.398 1.207v.005l-.001.004c-.009.2.01.4.057.595l3.311 13.322c2.604 1.208 4.875 3.005 6.374 5.418.027-.14.057-.285.089-.436.363-1.701 1.02-4.182 2.197-7.31l.736-2.064-6.659-12.7 2.169-3.594.003-.004a1.541 1.541 0 0 0-.025-1.673h-.001a1.521 1.521 0 0 0-.633-.542Zm-50.465 2.612c-3.18-.04-5.887 1.605-7.814 3.29a19.747 19.747 0 0 0-2.832 3.079l-.066.093c.44.358.842.762 1.197 1.21.045-.036.098-.075.158-.117.274-.188.715-.43 1.403-.674 1.374-.487 3.745-.983 7.766-1.057v.004a8.959 8.959 0 0 1 4.128.873l.227.112.002.001c.07.038.148.077.226.118l.237.13.01.005a25.706 25.706 0 0 1 4.497 3.205l.479.42.47.405.002.001.333.292.004.003c3.17 2.762 5.597 4.86 7.603 6.395l.056.04.002.003c3.14 2.4 5.185 3.347 7.358 3.276 1.096-.035 2.24-.335 3.589-.864.991-.468 1.925-1.232 2.556-2.164.643-.951.964-2.062.733-3.205l-.025-.112c-.542-2.32-2.883-4.06-5.152-4.692-1.395-.385-2.879-.442-4.35-.366l-.294.016c-.654.041-1.332.113-2.028.186-.693.073-1.403.147-2.113.19-1.418.084-2.856.047-4.196-.379-.968-.307-1.939-1.093-2.933-2.053a56.242 56.242 0 0 1-1.547-1.576c-.531-.557-1.078-1.132-1.647-1.699-2.289-2.277-4.88-4.35-8.04-4.39ZM57.93 53.567c-.559-5.213-6.73-8.152-11.086-5.289l-.008.005-.009.005c-.06.034-.122.075-.178.12l-.011.01-.057.042c-.087.064-.172.126-.256.191a6.46 6.46 0 0 0-.75.691c-.07.079-.142.162-.21.243a4.62 4.62 0 0 0-.188.245l-.005-.004c-.923 1.261-1.348 2.843-1.328 4.377.029 2.206.971 4.217 2.551 5.007l.156.073.127.05c.67.251 1.86.403 2.853.233.53-.09.967-.266 1.243-.53.262-.25.405-.604.308-1.128v-.002c-.077-.436-.081-.806.002-1.105.086-.308.266-.54.533-.672.257-.128.566-.152.895-.116.33.035.706.134 1.11.279l.234.077c.53.156.95.154 1.28.07.376-.095.661-.303.876-.55a2.54 2.54 0 0 0 .449-.77c.044-.117.074-.22.093-.298.02-.087.023-.121.023-.11h.519c0 .056-.016.144-.037.231-.024.097-.06.221-.113.36a3.05 3.05 0 0 1-.543.926c-.27.31-.64.585-1.138.711-.498.126-1.1.097-1.819-.162a4.45 4.45 0 0 0-.99-.252c-.277-.03-.474 0-.606.066-.122.06-.214.164-.266.348-.054.195-.062.478.009.876l.02.126c.08.62-.106 1.11-.48 1.467-.383.366-.937.569-1.514.667a6.38 6.38 0 0 1-1.435.063 9.212 9.212 0 0 0 2.239 1.38c2.097.84 3.63.46 4.637-.11a4.898 4.898 0 0 0 1.14-.894 4.174 4.174 0 0 0 .35-.422l.015-.023.003-.005.439.278h-.001l-.002.004-.006.01-.021.03a4.642 4.642 0 0 1-.398.48c-.028.031-.06.06-.092.092l1.156.342-.412-4.18-.002-.01v-.014a9.205 9.205 0 0 1 .7-3.529Zm5.09-5.053c-2.109.2-3.505.535-4.414.857-.651.23-1.05.454-1.28.613a2.4 2.4 0 0 0-.147.108c.536.78.933 1.67 1.142 2.646a9.29 9.29 0 0 1 4.52-4.15c.06-.026.12-.049.18-.074Z" clip-rule="evenodd"/>
    <rect width="16" height="16" x="8" y="8" fill="#EE7C22" rx="2"/>
    <path fill="#fff" d="M17.966 10.348c0-.477.546-.681 1.109-.681.544 0 1.107.204 1.107.681v7.978c0 2.847-1.807 3.905-4.091 3.905-2.3 0-4.091-1.058-4.091-3.905v-7.978c0-.477.546-.681 1.108-.681.545 0 1.108.204 1.108.681v7.978c0 1.33.699 1.96 1.875 1.96 1.177 0 1.875-.63 1.875-1.96v-7.978Z"/>
  </g>
  <defs>
    <clipPath id="a">
      <path fill="#fff" d="M0 12C0 5.373 5.373 0 12 0h56c6.627 0 12 5.373 12 12v56c0 6.627-5.373 12-12 12H12C5.373 80 0 74.627 0 68V12Z"/>
    </clipPath>
  </defs>
</svg>
