<svg preserveAspectRatio="xMidYMid meet" width="100%" height="100%" overflow="visible" style="display: block;" viewBox="0 0 54 50" fill="none" xmlns="http://www.w3.org/2000/svg">
<g id="Logo">
<path id="Union" d="M10.9531 33.7236V36.9287H14.1562V40.1328H10.9531V43.3379H7.75V40.1328H4.54688V36.9287H7.75V33.7236H10.9531Z" fill="var(--fill-0, #D52B1E)"/>
<g id="Union_2">
<path d="M54 50H0.217773V49.127H54V50Z" fill="var(--fill-0, black)"/>
<path fill-rule="evenodd" clip-rule="evenodd" d="M24.9053 36.3389L24.5723 36.832C24.9566 37.1652 25.1747 37.6526 25.1748 38.2549C25.1748 39.5366 24.233 40.1454 23.2979 40.1455C22.3626 40.1455 22.6951 40.0877 22.4453 39.9531L22.0869 40.4795L21.7217 40.1846L22.0488 39.7031C21.6581 39.3891 21.4209 38.9021 21.4209 38.2676C21.4211 37.1334 22.1898 36.3838 23.2979 36.3838C24.4054 36.3838 23.9255 36.4417 24.1748 36.5762L24.1689 36.5693L24.5146 36.0635L24.9053 36.3389ZM22.9199 39.2148C23.0216 39.3069 23.1529 39.3447 23.291 39.3447C23.7907 39.3447 24.0918 38.9152 24.0918 38.2871C24.0918 37.6592 24.0603 37.896 23.9834 37.7295H23.9639C23.9609 37.7275 22.9537 39.1666 22.9199 39.2148ZM23.291 37.1719C22.7083 37.172 22.4903 37.7551 22.4902 38.2549C22.4902 38.7548 22.5289 38.6654 22.625 38.832H22.6377C22.6399 38.8352 23.6885 37.3066 23.6885 37.3066C23.5796 37.2233 23.4512 37.1719 23.291 37.1719Z" fill="var(--fill-0, black)"/>
<path fill-rule="evenodd" clip-rule="evenodd" d="M41.7598 36.377C42.9127 36.3771 43.5977 37.1338 43.5977 38.2168L43.6045 38.2227C43.6045 39.5428 42.6693 40.1454 41.7021 40.1455C40.7349 40.1455 39.8379 39.4535 39.8379 38.2871C39.8379 37.1207 40.6067 36.377 41.7598 36.377ZM41.7334 37.1787C41.2277 37.1791 40.9971 37.7299 40.9971 38.2617C40.9971 38.8831 41.2533 39.3444 41.7334 39.3447C42.2138 39.3447 42.4453 38.9089 42.4453 38.2617C42.4453 37.6144 42.2395 37.1787 41.7334 37.1787Z" fill="var(--fill-0, black)"/>
<path d="M48.4473 36.3838C49.3377 36.3838 49.2416 36.4799 49.4658 36.5889L49.2676 37.3643C49.1074 37.2745 48.7928 37.1592 48.4854 37.1592C48.1781 37.1593 48.0566 37.2683 48.0566 37.4541C48.0567 37.6399 48.1977 37.7105 48.6396 37.8643C49.325 38.1014 49.6127 38.4476 49.6191 38.9795C49.6191 39.6523 49.0879 40.1455 48.0566 40.1455C47.0253 40.1455 47.1661 40.0429 46.8906 39.8955L47.0889 39.0947V39.082C47.2939 39.2102 47.7235 39.3574 48.0566 39.3574C48.3894 39.3574 48.5369 39.2423 48.5371 39.0566C48.5371 38.8708 48.4277 38.7811 48.0049 38.6465C47.262 38.3965 46.9741 37.9919 46.9805 37.5625C46.9807 36.8898 47.5571 36.3838 48.4473 36.3838Z" fill="var(--fill-0, black)"/>
<path fill-rule="evenodd" clip-rule="evenodd" d="M29.3828 34.833V38.9854C29.3828 39.3891 29.3958 39.819 29.415 40.0625H28.4219L28.3711 39.5303H28.3584C28.1278 39.934 27.6981 40.1396 27.2305 40.1396C26.3787 40.1394 25.6935 39.4088 25.6934 38.2939C25.687 37.0763 26.4429 36.377 27.3076 36.377C28.1724 36.377 28.0957 36.5313 28.2559 36.7812H28.2686V34.8262H29.3896L29.3828 34.833ZM27.5957 37.2363C27.0898 37.2365 26.8213 37.6914 26.8213 38.2617C26.8213 38.832 27.1223 39.2549 27.5898 39.2549C28.0571 39.2548 28.1723 39.037 28.2363 38.7168C28.2555 38.6335 28.2686 38.5561 28.2686 38.46V37.9863H28.2617C28.2617 37.9286 28.2554 37.8448 28.249 37.7871C28.1849 37.486 27.9415 37.2363 27.5957 37.2363Z" fill="var(--fill-0, black)"/>
<path fill-rule="evenodd" clip-rule="evenodd" d="M31.8945 36.377C33.1499 36.377 33.502 37.2811 33.502 38.1719C33.502 39.0627 33.4831 38.5309 33.4639 38.6143H31.1445L31.1387 38.6201C31.1771 39.0816 31.6319 39.3066 32.1572 39.3066C32.6823 39.3066 32.8494 39.2553 33.1504 39.1592L33.2969 39.915C32.9318 40.0623 32.4773 40.1328 31.9971 40.1328C30.7735 40.1328 30.0752 39.4278 30.0752 38.2998C30.0753 37.1719 30.639 36.377 31.8945 36.377ZM31.8242 37.1211C31.3053 37.1211 31.1639 37.5503 31.1318 37.8516H32.458C32.458 37.576 32.3428 37.1213 31.8242 37.1211Z" fill="var(--fill-0, black)"/>
<path d="M36.8076 37.2939H36.8271C36.936 37.1017 37.0571 36.9284 37.166 36.749L38.2939 35.1016H39.6709L38.0312 37.2168L39.7607 40.0693H38.4473L37.2305 37.9287L36.8018 38.4541V40.0752H35.6865V35.1084L35.6934 35.1016H36.8076V37.2939Z" fill="var(--fill-0, black)"/>
<path fill-rule="evenodd" clip-rule="evenodd" d="M18.7881 35.0635C19.3836 35.0635 20.0368 35.1723 20.3955 35.4541C20.6902 35.6912 20.8506 36.0381 20.8506 36.4932C20.8503 36.9482 20.4017 37.563 19.9727 37.7168V37.7363C20.3185 37.8773 20.5111 38.2101 20.6328 38.665C20.7865 39.2226 20.94 39.8702 21.0361 40.0625H19.8896C19.8064 39.9215 19.6912 39.5178 19.5439 38.9092C19.4094 38.2876 19.1978 38.1207 18.7432 38.1143H18.4033V40.0693H17.2891V35.1729L17.2949 35.166C17.6537 35.1083 18.1923 35.0635 18.7881 35.0635ZM18.916 35.8965C18.6408 35.8965 18.4871 35.9163 18.4102 35.9355V37.2998H18.8516C19.4089 37.2998 19.7422 37.0182 19.7422 36.5889C19.7422 36.1595 19.4348 35.9029 18.916 35.8965Z" fill="var(--fill-0, black)"/>
<path d="M46.2754 36.377C46.6213 36.377 46.4294 36.3778 46.5127 36.3906V37.4414C46.4295 37.4286 46.3335 37.4092 46.2119 37.4092C45.8019 37.4092 45.5202 37.6275 45.4434 37.9736C45.4306 38.044 45.4238 38.1332 45.4238 38.2227V40.0498H44.3027V37.6338L44.2959 37.6465C44.2959 37.1147 44.2839 36.7685 44.2646 36.4609H45.2314L45.2695 37.1211H45.3018C45.4875 36.5957 45.9295 36.3771 46.2754 36.377Z" fill="var(--fill-0, black)"/>
<path d="M54 28.1113H0.217773V27.2383H54V28.1113Z" fill="var(--fill-0, black)"/>
<path fill-rule="evenodd" clip-rule="evenodd" d="M8.29102 15.8848C8.78802 15.8848 9.19043 16.2878 9.19043 16.7852C9.19033 17.2166 8.88727 17.5771 8.48242 17.665L10.6846 23.1445H9.62598L9.31934 22.3799H7.2627L6.95508 23.1445H5.89746L8.09863 17.665C7.69403 17.5769 7.39073 17.2164 7.39062 16.7852C7.39062 16.2877 7.79396 15.8848 8.29102 15.8848ZM7.65723 21.3975H8.9248L8.29102 19.8213L7.65723 21.3975ZM8.29102 16.4297C8.09521 16.4297 7.93652 16.5892 7.93652 16.7852C7.93664 16.981 8.09528 17.1396 8.29102 17.1396C8.4867 17.1396 8.64539 16.981 8.64551 16.7852C8.64551 16.5892 8.48678 16.4297 8.29102 16.4297Z" fill="var(--fill-0, black)"/>
<path fill-rule="evenodd" clip-rule="evenodd" d="M17.0459 18.668H19.5547V17.1943H20.5361V23.1445H19.5547V21.6426H17.0459V23.1445H16.0635V17.1943H17.0459V18.668ZM17.0459 20.6602H19.5547V19.6504H17.0459V20.6602Z" fill="var(--fill-0, black)"/>
<path fill-rule="evenodd" clip-rule="evenodd" d="M28.0303 23.1445H26.9717L26.665 22.3799H24.6084L24.3008 23.1445H23.2422L25.6367 17.1875L28.0303 23.1445ZM25.0029 21.3975H26.2695L25.6367 19.8213L25.0029 21.3975Z" fill="var(--fill-0, black)"/>
<path d="M31.2549 22.1611H33.4912V23.1445H30.2725V17.1943H31.2549V22.1611Z" fill="var(--fill-0, black)"/>
<path d="M37.6162 17.1943C38.5755 17.1944 39.4912 17.8263 39.4912 18.9141H38.5088C38.5088 18.5096 38.1854 18.1768 37.6162 18.1768C37.0479 18.1768 36.709 18.5225 36.709 18.9277C36.7092 19.3134 37.0223 19.6402 37.5889 19.6504V19.6426C38.543 19.6427 39.4636 20.2744 39.4639 21.3789C39.4639 22.47 38.5587 23.1444 37.5889 23.1445C36.6199 23.1445 35.7277 22.4854 35.7275 21.3936H36.709C36.7091 21.8318 37.0442 22.1611 37.5889 22.1611C38.1326 22.1611 38.4824 21.818 38.4824 21.3789C38.4822 20.9606 38.1589 20.6356 37.6162 20.625V20.6328C36.6719 20.6328 35.7277 20.0278 35.7275 18.9277C35.7275 17.8407 36.656 17.1943 37.6162 17.1943Z" fill="var(--fill-0, black)"/>
<path d="M46.1455 18.1768H43.1455V19.6777H45.6543V20.6602H43.1455V22.1611H46.1455V23.1445H42.1641V17.1943H46.1455V18.1768Z" fill="var(--fill-0, black)"/>
<path d="M52.6094 21.4395V17.1943H53.5908V23.1445H52.582L49.6367 18.8984V23.1445H48.6543V17.1943H49.6641L52.6094 21.4395Z" fill="var(--fill-0, black)"/>
<path fill-rule="evenodd" clip-rule="evenodd" d="M1.32617 17.1982C1.61042 17.2001 1.91076 17.2012 2.12695 17.2012C2.41627 17.2012 2.88563 17.253 3.30078 17.4854C3.74908 17.7364 4.11816 18.1954 4.11816 18.9141C4.11806 19.6299 3.75213 20.0945 3.30957 20.3545C2.89655 20.597 2.4266 20.6602 2.12695 20.6602H1.11816V23.1367H0.135742L0.136719 17.1943H0.626953C0.774458 17.1943 1.04329 17.1964 1.32617 17.1982ZM1.11816 19.6777H2.12695C2.31807 19.6777 2.59847 19.6325 2.8125 19.5068C2.99698 19.3985 3.13565 19.235 3.13574 18.9141C3.13574 18.5956 3.00015 18.4429 2.82129 18.3428C2.60939 18.2243 2.32837 18.1846 2.12695 18.1846C1.90692 18.1846 1.60289 18.1825 1.31934 18.1807C1.25056 18.1802 1.18303 18.1801 1.11816 18.1797V19.6777Z" fill="var(--fill-0, black)"/>
<path d="M1.96387 5.74512L7.10254 0H9.7373L4.38867 5.98047L9.28125 11.79H6.71387L3.06543 7.45898L1.96387 8.69141V11.79H0V0H1.96387V5.74512Z" fill="var(--fill-0, black)"/>
<path d="M21.7822 5.9043L20.377 7.30957L18.9727 5.9043L20.377 4.49902L21.7822 5.9043Z" fill="var(--fill-0, black)"/>
<path fill-rule="evenodd" clip-rule="evenodd" d="M20.373 0C23.6164 0.000174165 26.2363 2.64496 26.2363 5.89551C26.2362 9.14592 23.6163 11.7899 20.373 11.79C17.1296 11.79 14.509 9.14602 14.5088 5.89551C14.5088 2.64485 17.1295 0 20.373 0ZM20.373 1.96484C18.2243 1.96484 16.4727 3.71979 16.4727 5.89551C16.4728 8.07108 18.2244 9.8252 20.373 9.8252C22.5216 9.82502 24.2723 8.07097 24.2725 5.89551C24.2725 3.7199 22.5217 1.96502 20.373 1.96484Z" fill="var(--fill-0, black)"/>
<path fill-rule="evenodd" clip-rule="evenodd" d="M36.1514 0C36.957 4.77972e-05 37.9646 0.1417 38.8057 0.643555C39.7113 1.18399 40.3632 2.11451 40.3633 3.46582C40.3633 4.84603 39.6561 5.75991 38.7461 6.27344C38.4357 6.44858 38.1049 6.57614 37.7744 6.66797L40.9824 11.79H38.665L35.5879 6.87793H34.4453V11.79H32.4814V4.91309H34.3574L32.4814 1.91797V0H36.1514ZM36.6582 4.88574C37.0691 4.84065 37.4706 4.7368 37.7812 4.56152C38.153 4.35177 38.4004 4.05058 38.4004 3.46582C38.4003 2.85248 38.1518 2.54109 37.7998 2.33105C37.3834 2.08271 36.7761 1.96489 36.1514 1.96484H34.8291L36.6582 4.88574Z" fill="var(--fill-0, black)"/>
<path d="M50.3457 0C52.2458 0.000112458 53.9998 1.29291 54 3.43848H52.0361C52.0359 2.60012 51.3973 1.96494 50.3457 1.96484C49.2958 1.96484 48.6271 2.62579 48.627 3.46582C48.627 4.27879 49.2644 4.91309 50.3457 4.91309C52.2068 4.92521 54 6.16336 54 8.32422C54 10.4685 52.2204 11.79 50.3184 11.79C48.418 11.79 46.6641 10.4974 46.6641 8.35156H48.627C48.627 9.19016 49.2665 9.8252 50.3184 9.8252C51.3683 9.82512 52.0361 9.16436 52.0361 8.32422C52.0361 7.51131 51.3995 6.87802 50.3184 6.87793C48.4572 6.8659 46.6641 5.62676 46.6641 3.46582C46.6642 1.3217 48.4437 0 50.3457 0Z" fill="var(--fill-0, black)"/>
</g>
</g>
</svg>
