<svg xmlns="http://www.w3.org/2000/svg" fill="none" viewBox="0 0 80 80">
  <path fill="#C30000" d="M0 12C0 5.373 5.373 0 12 0h56c6.627 0 12 5.373 12 12v56c0 6.627-5.373 12-12 12H12C5.373 80 0 74.627 0 68V12Z"/>
  <path fill="#fff" fill-rule="evenodd" d="M69.512 31h-6.243s-.43 0-.582.385l-3.455 10.723-3.452-10.723C55.628 31 55.195 31 55.195 31H43.19c-.26 0-.477.22-.477.482v3.641c0-2.888-3.032-4.123-4.807-4.123-3.975 0-6.636 2.655-7.465 6.69-.045-2.677-.265-3.636-.976-4.619-.327-.481-.799-.886-1.313-1.22-1.059-.63-2.01-.851-4.053-.851h-2.4s-.433 0-.586.385L18.93 36.87v-5.388a.484.484 0 0 0-.476-.482h-5.552s-.428 0-.584.385l-2.27 5.704s-.226.57.292.57h2.134v10.868c0 .27.21.483.477.483h5.503a.48.48 0 0 0 .476-.483V37.659h2.145c1.231 0 1.492.034 1.97.26.29.11.55.334.69.592.291.554.364 1.219.364 3.18v6.836c0 .27.213.483.477.483h5.275s.597 0 .832-.597l1.17-2.929c1.554 2.207 4.112 3.526 7.292 3.526h.695s.6 0 .837-.597l2.036-5.112v5.226c0 .27.218.483.477.483h5.385s.594 0 .833-.597c0 0 2.154-5.42 2.162-5.461h.003c.083-.451-.48-.451-.48-.451h-1.921v-9.302l6.047 15.214a.936.936 0 0 0 .831.597h6.362s.598 0 .834-.597l6.704-16.83c.232-.583-.44-.583-.44-.583ZM42.713 42.5h-3.617c-1.44 0-2.61-1.181-2.61-2.643 0-1.459 1.17-2.648 2.61-2.648h1.012c1.436 0 2.605 1.19 2.605 2.648v2.644Z" clip-rule="evenodd"/>
</svg>
