<svg xmlns="http://www.w3.org/2000/svg" fill="none" viewBox="0 0 80 80">
  <g clip-path="url(#a)">
    <path fill="#F4F4F3" d="M0 12C0 5.373 5.373 0 12 0h56c6.627 0 12 5.373 12 12v56c0 6.627-5.373 12-12 12H12C5.373 80 0 74.627 0 68V12Z"/>
    <path fill="#E83E4C" d="M0 0h80v80H0z"/>
    <path fill="#2791AC" d="M33.642 71.825c14.75 1.027 31.703-2.706 38.358-4.97-1.905-5.634-3.977-14.166-4.888-19.882-.791-4.964.24-17.641-1.243-23.444-2.9-11.347-6.047-16.4-32.475-15.407C6.965 9.117 9.038 25.85 9.038 31.07c0 5.22 1.49 15.572 2.566 24.436 1.077 8.864 4.228 15.08 22.038 16.32Z"/>
    <path fill="url(#b)" d="M33.277 8.122c26.508-.994 29.666 4.06 32.574 15.407 1.487 5.803.453 18.48 1.246 23.444.914 5.716 2.992 14.249 4.903 19.882-6.034 2.047-20.51 5.294-34.162 5.14-3.97-.482-7.099-.967-8.797-1.327-3.906-.829-12.05-4.06-13.13-12.592-1.08-8.533-2.659-20.545-2.825-26.012-.166-5.468-1.246-17.811 12.631-22.036a94.414 94.414 0 0 1 7.327-1.896l.233-.01Z"/>
    <path fill="#5FC0C3" d="M16.218 34.642c.136-.713.85-1.187 1.595-1.057.745.13 1.24.813 1.104 1.527-.454 2.394.063 4.356.578 6.243.192.702-.247 1.419-.98 1.602-.733.183-1.483-.237-1.674-.938-.515-1.888-1.197-4.356-.623-7.377Zm15.063-23.599c.733-.183 1.483.237 1.674.938.192.702-.247 1.419-.98 1.602-7.138 1.786-13.051 6.895-13.207 14.673-.015.725-.64 1.301-1.398 1.287-.758-.014-1.36-.613-1.345-1.337.187-9.288 7.305-15.174 15.256-17.163Z"/>
    <path fill="#125175" d="M46.082 55.197c-2.902.129-5.93-1.824-7.082-2.846C40.976 54.541 42.87 56 46.823 56c3.952 0 3.348-1.953 2.717-2.773-1.235-1.605-1.955-1.453-1.318-.584 1.071 1.46 1.153 2.408-2.14 2.554Z"/>
    <ellipse cx="48.749" cy="38.917" fill="#fff" rx="5.552" ry="7.595" transform="rotate(-3.463 48.75 38.917)"/>
    <path fill="#E4E5E4" d="M45.02 33.098a11.733 11.733 0 0 0-.392 3.854c.294 4.868 3.37 8.643 6.87 8.432.13-.008.26-.022.39-.04-.77.677-1.683 1.094-2.679 1.154-3.06.185-5.747-3.059-6-7.246-.15-2.455.572-4.689 1.81-6.154Z"/>
    <path fill="#D3CFCA" d="M43.821 35.147c-.13.828-.175 1.702-.12 2.602.294 4.867 3.368 8.641 6.866 8.431-.43.18-.884.29-1.358.318-3.06.185-5.747-3.059-6-7.246-.091-1.49.14-2.9.612-4.105Z"/>
    <path fill="#030405" fill-rule="evenodd" d="M48.758 35.2c1.264-.019 2.317 1.863 2.352 4.203.036 2.34-.96 4.253-2.222 4.272-1.21.019-2.225-1.703-2.342-3.902.129.082.269.13.417.14.714.04 1.346-.849 1.412-1.988.055-.95-.3-1.773-.835-2.044.349-.425.766-.674 1.218-.68Zm.682 4.828c-.35.021-.605.48-.572 1.025.032.545.342.97.691.948.35-.02.606-.48.573-1.024-.033-.545-.343-.97-.692-.949Z" clip-rule="evenodd"/>
    <path fill="#125175" d="M46.64 29.805c-.159-.716-.398-2.071-.418-3.205-.005-.292.34-.408.534-.19 2.691 3.027 5.942 6.142 7.59 7.684.259.242.028.623-.296.481-2.678-1.169-5.812-3.407-7.295-4.587a.318.318 0 0 1-.114-.183Z"/>
    <path fill="#2387CE" d="M46.327 26.362a.31.31 0 0 1 .428.048c2.692 3.027 5.942 6.142 7.59 7.684.173.161.128.383-.016.472-3.031-2.612-6.045-5.963-8.002-8.204Z"/>
    <ellipse cx="38.453" cy="39.882" fill="#fff" rx="6.403" ry="8.865" transform="rotate(-15.268 38.453 39.882)"/>
    <path fill="#E4E5E4" d="M33.667 32.91c-.773 2.022-.885 4.656-.15 7.348 1.385 5.075 5.257 8.442 8.66 7.541a4.737 4.737 0 0 1-1.388.635c-3.412.931-7.222-2.143-8.511-6.866-.926-3.391-.3-6.71 1.39-8.658Z"/>
    <path fill="#D2CEC9" d="M31.892 37.477c.02 1.005.166 2.05.452 3.1 1.39 5.092 5.545 8.393 9.28 7.373.231-.063.456-.141.673-.234-.455.324-.96.568-1.508.718-3.412.931-7.222-2.143-8.511-6.866a11.662 11.662 0 0 1-.386-4.091Z"/>
    <path fill="#030405" fill-rule="evenodd" d="M38.105 36.592c1.158-.07 2.2 1.597 2.33 3.724.128 2.127-.706 3.908-1.864 3.978-1.131.068-2.153-1.52-2.32-3.576a.929.929 0 0 0 .487.107c.747-.045 1.295-1.031 1.224-2.203-.042-.702-.298-1.312-.656-1.677.24-.21.509-.336.799-.353Zm.797 4.234c-.35.021-.606.48-.573 1.025.033.545.343.97.692.948.349-.02.605-.48.572-1.025-.033-.545-.342-.97-.692-.948Z" clip-rule="evenodd"/>
    <path fill="#125175" d="M38.908 28.654 37.45 27.13a.333.333 0 0 0-.516.042l-6.622 9.663c-.218.318.187.69.486.447l8.079-6.598a.333.333 0 0 0 .122-.259v-1.541a.334.334 0 0 0-.092-.23Z"/>
    <path fill="#2487CE" d="M36.935 27.172a.333.333 0 0 1 .515-.042l.25.26-7.092 9.97c-.247.015-.468-.272-.295-.525l6.622-9.663Z"/>
  </g>
  <defs>
    <radialGradient id="b" cx="0" cy="0" r="1" gradientTransform="matrix(0 32.0001 -29.5001 0 42.5 40)" gradientUnits="userSpaceOnUse">
      <stop stop-color="#91D4D6"/>
      <stop offset="1" stop-color="#1AB6BA"/>
    </radialGradient>
    <clipPath id="a">
      <path fill="#fff" d="M0 12C0 5.373 5.373 0 12 0h56c6.627 0 12 5.373 12 12v56c0 6.627-5.373 12-12 12H12C5.373 80 0 74.627 0 68V12Z"/>
    </clipPath>
  </defs>
</svg>
