<svg xmlns="http://www.w3.org/2000/svg" fill="none" viewBox="0 0 80 80">
  <path fill="#fff" d="M0 12C0 5.373 5.373 0 12 0h56c6.627 0 12 5.373 12 12v56c0 6.627-5.373 12-12 12H12C5.373 80 0 74.627 0 68V12Z"/>
  <path fill="#000" d="M38.111 18.969s-2.379-.113-2.832-.34c-.453-.113-1.246-.565-1.246-.792-.113-.226 0-.792.566-.565.454.226.68.565 1.7.679.453 0 1.133.113 1.246.113l.566.905ZM18.06 22.703c.453-.68 3.172-3.734 4.192-4.413.68-.34 1.812-.226 1.812-.226v3.734c-.113 0-.68-.114-1.246-.227s-2.152.227-2.152.227l-.454.679c1.247-.227 1.813.339 1.813.339 0 .226.34 1.132.567 1.245.226.113 1.472.113 1.472.113v.566c-.793.113-1.926.679-2.152 1.018-.68.566-1.133 1.584-1.133 1.584l-.113.905.226.227s.567-.68.793-.906c.567-.452 1.02.227 1.246.34.227.113.567-.34.794-.566.226-.226.34-.113.34-.113V40.24c-1.134-.226-2.267.227-2.493.34-.34.226-.567.792-.567.792.227 0 1.36-.113 1.587 0 .226.113.68 1.245.793 1.358.113.113.793.113.793.113v1.584c0 .113-.34.34-.567.679-.34.34-.793 2.15-.793 2.15l.34.678s.227-.565.34-.678c.226-.566.68-.566.68-.566v4.073h1.36v-4.186s.566.226.566.113c.226-.113 1.132-2.376 1.36-2.376.112-.113 1.019.113 1.019.113l.566 1.923h.34l9.403-13.238.68.566-3.852 5.43c.567.793 1.02 1.245 1.36 1.924.453 1.245.793 2.942.906 3.055 0 .114.113.227-.113.227-1.02.452-4.192 3.055-4.419 3.168-.34.226-1.586 1.131-1.7 1.584-.679 2.037-.792 7.242-.679 7.92.113.566.793 1.245.793 1.245s-.226.113-.68.227c-.34.113-1.472 1.357-1.586 1.584-.793 1.018-3.399 3.62-3.625 3.62-.793.114-1.586-.226-1.586-.226 0-.113 0-1.244-.113-1.47 0-.114-.114-.793-.227-.906-.34-.453-.68-1.131-.793-1.245-.113-.113-1.246-.905-1.246-.905l-.907.113c.114 0 .567.566.793.792.227.34.114.792.114.792-.34.227-.567.906-.567 1.019 0 .113 1.36 1.47 1.36 1.47l-.34.34c-.113.113-.906-.452-1.36-.679-.566-.226-.453-.113-.566-.226-.113 0-1.246.226-1.473.34-.226 0-1.36 1.018-1.36 1.018v.679s.34-.227.567-.34c.227-.113.567-.226.906-.226.34 0 .227.226.34.34.114.339.567.791.793.905.227.113 2.04-.227 2.04-.227l.226.34a3.366 3.366 0 0 0-1.473 1.245c-.113.339.454 1.131.454 1.131v.113c0 .453-1.133 1.132-1.133 1.132.113 0 .566.113.566.113s.114.113.227 0c.566-.227 1.02-.34 1.36-.566l1.132-1.132s.227-.905.227-1.131c.113-.34.453-.34 1.246-.226.453.113.566.113.68.34 0 .112.113.339.113.565 0 .34.227 1.018.227 1.018h.34s1.359-1.923 1.699-2.036c.34-.114 6.004-4.413 6.004-4.413.453.113.907 0 1.246-.114.793-.452 1.473-1.357 1.473-1.357s-.113-.905-.113-1.358c-.113-1.019.226-1.245.453-1.697.227-.566 1.02-1.358 1.36-1.698.113-.113.34-.226.34-.226s-1.473-1.81-1.813-2.263c-.68-.679-.453-1.584-.34-2.037 1.246-4.3 1.926-7.128 1.926-7.355V41.6l.906.679v1.358c0 .566-.793 3.508-1.02 4.186-.453 1.924-1.132 3.734-.906 4.3.567 1.018 2.832 3.395 3.512 3.734.907.453 5.778.226 6.231.226 3.286.453 3.4.566 3.626.906.226.34 2.266 2.602 2.719 3.055 1.02.905 2.605 3.62 2.605 3.62l-1.246.34c-.906-1.132-1.813-1.471-2.152-1.697-1.02-.68-2.153-.113-2.493-.113-.68 0-1.133.678-1.133.678.567-.113 1.247.114 1.473.227.227.226.227.905.453 1.018.227.113 1.473.113 1.473.113v.453s.113 0 0 .113c-.113 0-1.586.113-2.04.34-.452.113-.452.339-.792.565-.34.34-1.133 1.81-1.133 1.81l.226.566c.114-.34 1.36-1.131 1.36-1.018.34.453.793.566 1.133.566.793-.113 1.813-1.584 1.813-1.584l.453.226s-.453.679-.567.792c-.793.792-.226 2.716-.226 2.716.226.113.566.226.566.226-.34-.566.567-1.584.567-1.584.566.226 1.132 0 1.246-.113.453-.34.453-2.263.453-2.263l2.266-.68 2.832.567.113-.453-.453-.453c-.793-1.131-1.02-1.47-1.133-1.923-.793-1.697-3.625-6.676-3.625-6.79 0-.112.113-.565 0-1.018-.113-.34-1.02-1.697-1.586-2.036-.567-.453-1.473-.453-1.586-.566-1.586-.905-2.946-2.037-3.172-2.263-.567-.792-2.833-3.168-3.173-3.508-.34-.34-2.605-2.15-2.605-2.15l1.02-.34s2.039 1.698 2.379 1.924c.906.68 2.379 1.584 2.832 1.924 4.192 2.715 6.344 2.829 6.57 2.829 3.06.34 4.419-1.471 4.532-1.698.793-.905 1.926-3.168.114-5.883-.453-.68-2.38-3.621-2.38-3.621l4.192-2.376v-.566l-1.7.452s-1.358-.113-1.812-.226c-.453-.113-.453 0-.453 0l-1.133.34-.113-.566 5.438-3.055.113-.68s-1.7.567-1.926.567c-.226 0-1.586-.227-2.152-.34-.567-.113-.793 0-.793 0l-1.36.34v-.566l6.458-3.395.226-.565-2.039.452s-1.813-.452-1.926-.34c-.113 0-1.36.227-1.36.227s-.113.113-.113 0c0-.34 2.153-3.168 2.38-3.395 1.02-1.131 2.152-2.828 2.265-3.168 2.493-4.073.907-6.676.68-7.128-2.04-3.395-5.551-2.603-6.118-2.49-3.285 1.019-3.398 4.413-3.398 4.64 0 .226-.114.452-.454.792-.793.792-2.265 3.734-2.265 3.734.113 0 .566 0 .68-.113.113-.114 1.359-1.358 1.585-1.471.227-.114.227.226.114.565-.227 1.471-1.133 2.716-1.586 3.169-1.133 1.584-2.606 4.978-2.606 4.978l.68-.113c1.246-1.924 5.438-4.526 5.55-4.752.794-.792.114-3.621.114-3.621l.68.34c.113.226.34 1.018.34 1.697.113.679-.114 1.81-.114 1.81l.567-.453c.227-.339 1.246-3.507.566-5.544-.226-.679-2.152-1.471-2.152-1.471-.227-.905.453-1.924.793-2.15 2.719-1.924 4.871 0 5.438 1.358 1.473 3.055-1.586 6.563-2.153 7.128-1.926 1.81-6.004 5.658-6.457 6.224-3.172 3.62-1.7 5.657-1.246 6.563.68 1.357 4.531 4.752 5.438 5.544 1.246 1.132 2.265 2.49 2.492 3.168.906 3.508-2.606 4.074-3.965 3.734-2.946-.679-7.477-4.526-8.27-4.978-2.946-1.924-3.512-1.358-3.626-1.698-.34-2.15-.566-9.505-.566-9.505 0-.226.34-.113.453 0 .34.114.453.227.453.114 0-.227-.113-1.697.113-2.037.34-.679.793-1.81 1.02-2.263 1.246-2.716 2.266-4.865 2.492-6.11.227-1.584 0-3.734 0-3.734.34-.34 1.133-1.584 1.247-1.697.113-.227 0-1.584 0-1.584-.227-.227-.794-.34-.907-.34h-.226l2.039-3.055c-.227-.113-.34-.113-.566-.113-.454 0-.907.452-.907.452-.34-.565-.793-.565-.906-.565-1.02.113-.793 1.018-.793 1.018.34.792 1.133.453 1.246.453l.113.113-.68.679-2.718-.566s-.114-.679-.114-.792v-.113c.114 0 .453.226.68.226.453.113.793-.453.793-.679 0-1.131-1.02-.905-1.02-.905a.736.736 0 0 0-.68-.792c-.68-.113-.906.566-.906.566-.226-.114-.34-.114-.34-.114-.792-.226-1.02.453-1.02.68.114 1.13 1.247.791 1.247.791l.113.114-.453.678-2.832-.565-.34-.906.113-.113c.114.114.114.227.453.227.794.113.907-.453.907-.68.113-1.357-1.586-.791-1.586-.791-.68-.792-1.133-.566-1.133-.566l.793 3.62s-2.04 2.15-2.153 2.377c-.113.226.34 1.47.34 1.47l.907 1.245-.68 1.019 3.738.453-.453 1.244s-4.418 1.019-5.324 1.584c-1.36.905-2.266 2.15-3.06 3.168-.453.566-1.585 5.092-2.832 7.355h2.266l-4.305 8.6-.68-.227s.227-2.036.227-2.15c0-.226-.34-1.47-.34-1.583-.227-.453-1.246-1.585-1.246-1.585l-.68-.113c.34.34.453 1.132.567 1.584.113.453-.227.453-.454.792-.226.34-.113.566-.113.566l.68 1.698-.453.113c-.34-.566-.68-.68-.68-.68V25.646l.906.565-.453.793 1.473.339 3.399 3.055 1.36-3.507-3.513-1.924-.453-.905-1.133.226c0-.113-.34-.453-.34-.453.567-.566 1.36-1.47 1.36-1.81.113-.566.113-.679.113-1.245 0-.566-.227-1.47-.34-1.584-.113-.226-.68-.792-.566-.566.226.792-.34 1.81-.34 1.81s-.227.114-.567.227c-.34.113-.34.226-.34.226l-.34 1.81-.453-.452v-4.526h.793V14.67h-.793v-1.245h-1.36v1.245h-1.698c-2.606-.453-6.005-3.508-6.798-4.073.113 7.015 3.059 12.107 3.059 12.107Zm25.037-4.187.227 1.019-3.512-.34-.113-1.018 3.398.34Zm-3.398-2.036-.227-.793 1.36-1.357 7.25 1.244s.34 0 .227.114c-.114 0-1.246.792-1.246.792s-2.38-1.132-4.532-.906c0 0 .453.792-.793 1.245-.227.113-1.36.34-1.36-.679l-.68.34Zm8.383.339c.113 0 .567-.453.793-.453.227 0 .567.227.567.227v.565c-.114.453-.68.906-.68.906-.34-.906-.68-1.132-.793-1.132 0 .113 0-.113.113-.113ZM33.92 29.945s1.472-3.621 2.266-3.848c.793-.226 1.246-.452 2.945-.905l-.34.905s-1.926.453-2.379.793c-.34.339-1.586 2.941-1.586 3.055h-.906Zm-8.497 14.03v-.905s.566-.113.68-.113c.113 0 .113 0 .113.113s.113.453.113.453l-.906.452Z"/>
</svg>
