<svg preserveAspectRatio="xMidYMid meet" width="100%" height="100%" overflow="visible" style="display: block;" viewBox="0 0 49.3076 60" fill="none" xmlns="http://www.w3.org/2000/svg">
<path id="Logo" d="M23.1115 8.96889C23.1115 8.96889 20.7323 8.85568 20.2792 8.62938C19.826 8.51623 19.033 8.06368 19.033 7.83738C18.9197 7.61107 19.033 7.04532 19.5995 7.27162C20.0526 7.49792 20.2792 7.83735 21.2988 7.9505C21.752 7.9505 22.4317 8.06362 22.545 8.06362L23.1115 8.96889ZM3.05895 12.7028C3.51212 12.0239 6.23105 8.96878 7.25068 8.28987C7.93042 7.95042 9.06331 8.06362 9.06331 8.06362V11.7977C8.95002 11.7977 8.38359 11.6844 7.81713 11.5713C7.25068 11.4581 5.66457 11.7977 5.66457 11.7977L5.21138 12.4765C6.45758 12.2502 7.02415 12.8159 7.02415 12.8159C7.02415 13.0422 7.36402 13.9475 7.5906 14.0607C7.81719 14.1738 9.06331 14.1738 9.06331 14.1738V14.7396C8.27027 14.8527 7.13733 15.4185 6.91075 15.758C6.231 16.3237 5.77783 17.342 5.77783 17.342L5.66457 18.2472L5.89123 18.4735C5.89123 18.4735 6.45764 17.7946 6.68422 17.5683C7.25068 17.1157 7.70381 17.7946 7.9304 17.9077C8.15698 18.0209 8.49694 17.5683 8.72352 17.342C8.9501 17.1157 9.06331 17.2288 9.06331 17.2288V30.2412C7.9304 30.0149 6.79754 30.4676 6.57095 30.5807C6.23108 30.807 6.0045 31.3727 6.0045 31.3727C6.23108 31.3727 7.36402 31.2596 7.5906 31.3727C7.81719 31.4859 8.2703 32.6175 8.38359 32.7306C8.49688 32.8438 9.17657 32.8437 9.17657 32.8437C9.17657 32.8437 9.17657 34.2016 9.17657 34.4279C9.17657 34.541 8.8367 34.7673 8.61012 35.1068C8.27024 35.4462 7.81713 37.2567 7.81713 37.2567L8.15706 37.9355C8.15706 37.9355 8.38356 37.3698 8.49685 37.2567C8.72344 36.6909 9.17657 36.6909 9.17657 36.6909V40.7643H10.5362V36.5776C10.5362 36.5776 11.1026 36.8041 11.1026 36.6909C11.3292 36.5778 12.2355 34.3146 12.4621 34.3146C12.5753 34.2015 13.4817 34.4279 13.4817 34.4279L14.0482 36.3514H14.3881L23.7912 23.1128L24.4709 23.6785L20.6191 29.1097C21.1856 29.9018 21.6387 30.3544 21.9786 31.0333C22.4317 32.278 22.7716 33.9752 22.8849 34.0884C22.8849 34.2015 22.9981 34.3146 22.7715 34.3146C21.7519 34.7672 18.5799 37.3698 18.3533 37.4829C18.0134 37.7092 16.7672 38.6144 16.6539 39.067C15.9742 41.1038 15.8608 46.3087 15.9741 46.9876C16.0873 47.5534 16.7672 48.2323 16.7672 48.2323C16.7672 48.2323 16.5406 48.3454 16.0875 48.4585C15.7476 48.5717 14.6146 49.8163 14.5014 50.0426C13.7083 51.061 11.1025 53.6636 10.8759 53.6636C10.0829 53.7767 9.28998 53.4372 9.28998 53.4372C9.28998 53.324 9.28986 52.1926 9.17657 51.9663C9.17657 51.8532 9.06334 51.1742 8.95005 51.061C8.61017 50.6084 8.27035 49.9296 8.15706 49.8164C8.04377 49.7033 6.91075 48.9111 6.91075 48.9111L6.0045 49.0243C6.11779 49.0243 6.5709 49.5901 6.79748 49.8164C7.02406 50.1559 6.91075 50.6084 6.91075 50.6084C6.57087 50.8347 6.34429 51.5136 6.34429 51.6268C6.34429 51.7399 7.70387 53.0978 7.70387 53.0978C7.70387 53.0978 7.47723 53.324 7.36394 53.4372C7.25065 53.5503 6.45766 52.9846 6.0045 52.7583C5.43804 52.532 5.55133 52.6452 5.43804 52.5321C5.32475 52.5321 4.19178 52.7583 3.9652 52.8714C3.73862 52.8714 2.60576 53.8898 2.60576 53.8898V54.5687C2.60576 54.5687 2.94563 54.3425 3.17221 54.2293C3.3988 54.1162 3.73859 54.0029 4.07846 54.0029C4.41834 54.0029 4.3051 54.2293 4.41839 54.3424C4.53168 54.6819 4.98479 55.1344 5.21138 55.2476C5.43796 55.3607 7.25068 55.0213 7.25068 55.0213L7.4772 55.3608C6.68416 55.7003 6.23108 56.266 6.0045 56.6055C5.89121 56.9449 6.45769 57.737 6.45769 57.737V57.8501C6.45769 58.3027 5.32478 58.9816 5.32478 58.9816C5.43807 58.9816 5.89123 59.0947 5.89123 59.0947C5.89123 59.0947 6.00447 59.2079 6.11776 59.0947C6.68422 58.8684 7.13733 58.7553 7.4772 58.529C7.93037 58.0764 8.61012 57.3975 8.61012 57.3975C8.61012 57.3975 8.83678 56.4923 8.83678 56.266C8.95007 55.9265 9.28992 55.9266 10.083 56.0397C10.5361 56.1529 10.6494 56.1528 10.7627 56.3791C10.7627 56.4922 10.8759 56.7185 10.8759 56.9448C10.8759 57.2843 11.1026 57.9632 11.1026 57.9632H11.4424C11.4424 57.9632 12.8019 56.0397 13.1418 55.9266C13.4816 55.8134 19.1463 51.5137 19.1463 51.5137C19.5994 51.6268 20.0526 51.5137 20.3924 51.4005C21.1855 50.9479 21.8653 50.0426 21.8653 50.0426C21.8653 50.0426 21.752 49.1375 21.752 48.6849C21.6387 47.6665 21.9785 47.4402 22.2051 46.9876C22.4317 46.4219 23.2248 45.6298 23.5647 45.2904C23.678 45.1772 23.9045 45.064 23.9045 45.064C23.9045 45.064 22.4317 43.2536 22.0918 42.801C21.4121 42.122 21.6387 41.2169 21.752 40.7643C22.9982 36.4646 23.6779 33.6358 23.6779 33.4095C23.6779 33.07 23.6779 31.5991 23.6779 31.5991L24.5843 32.278C24.5843 32.278 24.5843 33.07 24.5843 33.6357C24.5843 34.2015 23.7912 37.1435 23.5647 37.8224C23.1115 39.746 22.4317 41.5563 22.6583 42.1221C23.2247 43.1404 25.4905 45.5167 26.1703 45.8561C27.0766 46.3087 31.9481 46.0824 32.4013 46.0824C35.6868 46.535 35.8001 46.6482 36.0267 46.9876C36.2533 47.3271 38.2926 49.59 38.7457 50.0426C39.7654 50.9479 41.3514 53.6636 41.3514 53.6636L40.1052 54.0029C39.1988 52.8714 38.2925 52.532 37.9526 52.3057C36.933 51.6268 35.8001 52.1925 35.4603 52.1925C34.7805 52.1925 34.3273 52.8714 34.3273 52.8714C34.8938 52.7583 35.5735 52.9847 35.8 53.0978C36.0266 53.3241 36.0267 54.0029 36.2532 54.1161C36.4798 54.2292 37.7261 54.2293 37.7261 54.2293V54.6818C37.7261 54.6818 37.8394 54.6819 37.7261 54.7951C37.6128 54.7951 36.1399 54.9081 35.6868 55.1344C35.2336 55.2476 35.2337 55.4739 34.8938 55.7002C34.5539 56.0397 33.7609 57.5106 33.7609 57.5106L33.9874 58.0763C34.1007 57.7369 35.347 56.9449 35.347 57.0581C35.6869 57.5107 36.14 57.6239 36.4799 57.6239C37.2729 57.5107 38.2925 56.0397 38.2925 56.0397L38.7457 56.266C38.7457 56.266 38.2926 56.9449 38.1793 57.0581C37.3862 57.8502 37.9526 59.7736 37.9526 59.7736C38.1792 59.8868 38.5191 60 38.5191 60C38.1792 59.4342 39.0855 58.4159 39.0855 58.4159C39.652 58.6422 40.2184 58.4159 40.3317 58.3027C40.7849 57.9633 40.7849 56.0397 40.7849 56.0397L43.0507 55.3608L45.883 55.9266L45.9963 55.474L45.5432 55.0213C44.7502 53.8898 44.5236 53.5504 44.4103 53.0978C43.6173 51.4005 40.7849 46.4219 40.7849 46.3087C40.7849 46.1956 40.8982 45.743 40.7849 45.2904C40.6716 44.9509 39.7652 43.593 39.1988 43.2536C38.6323 42.801 37.7261 42.801 37.6128 42.6878C36.0267 41.7826 34.6672 40.6511 34.4406 40.4248C33.8741 39.6328 31.6083 37.2566 31.2684 36.9172C30.9285 36.5777 28.6628 34.7673 28.6628 34.7673L29.6824 34.4279C29.6824 34.4279 31.7216 36.1251 32.0615 36.3514C32.9678 37.0303 34.4406 37.9355 34.8938 38.2749C39.0856 40.9905 41.238 41.1037 41.4646 41.1037C44.5235 41.4431 45.883 39.6327 45.9963 39.4064C46.7893 38.5012 47.9223 36.2382 46.1097 33.5226C45.6565 32.8437 43.7304 29.9018 43.7304 29.9018L47.9223 27.5256V26.9598L46.2229 27.4124C46.2229 27.4124 44.8635 27.2993 44.4103 27.1862C43.9571 27.073 43.9571 27.1862 43.9571 27.1862L42.8242 27.5256L42.7109 26.9598L48.1488 23.9048L48.2621 23.2259C48.2621 23.2259 46.5628 23.7917 46.3362 23.7917C46.1096 23.7917 44.7501 23.5653 44.1836 23.4521C43.6172 23.339 43.3907 23.4521 43.3907 23.4521L42.0311 23.7917V23.2259L48.4888 19.8314L48.7153 19.2656L46.6761 19.7182C46.6761 19.7182 44.8634 19.2656 44.7501 19.3787C44.6368 19.3787 43.3907 19.605 43.3907 19.605C43.3907 19.605 43.2774 19.7181 43.2774 19.605C43.2774 19.2655 45.4299 16.4367 45.6565 16.2104C46.6761 15.0789 47.809 13.3818 47.9223 13.0423C50.4147 8.96886 48.8286 6.36633 48.602 5.91373C46.5628 2.51919 43.0507 3.31131 42.4843 3.42446C39.1988 4.44282 39.0855 7.83732 39.0855 8.06362C39.0855 8.28993 38.9722 8.51617 38.6323 8.85563C37.8393 9.64768 36.3665 12.5897 36.3665 12.5897C36.4798 12.5897 36.9331 12.5897 37.0464 12.4765C37.1597 12.3634 38.4057 11.1187 38.6323 11.0055C38.8589 10.8924 38.859 11.2318 38.7457 11.5713C38.5191 13.0422 37.6128 14.287 37.1596 14.7396C36.0267 16.3237 34.5539 19.7182 34.5539 19.7182L35.2336 19.605C36.4798 17.6814 40.6716 15.079 40.7849 14.8527C41.5779 14.0606 40.8982 11.2319 40.8982 11.2319L41.578 11.5713C41.6913 11.7976 41.9178 12.5896 41.9178 13.2685C42.0311 13.9475 41.8045 15.0789 41.8045 15.0789L42.371 14.6264C42.5976 14.287 43.6172 11.1187 42.9375 9.08201C42.7109 8.4031 40.7849 7.61099 40.7849 7.61099C40.5583 6.70578 41.2381 5.6874 41.578 5.46109C44.297 3.53753 46.4495 5.46118 47.0159 6.81899C48.4887 9.87407 45.4298 13.3817 44.8634 13.9474C42.9374 15.7578 38.859 19.605 38.4058 20.1707C35.2336 23.7916 36.7065 25.8283 37.1596 26.7336C37.8394 28.0914 41.6912 31.4859 42.5975 32.278C43.8437 33.4095 44.8634 34.7672 45.09 35.4461C45.9964 38.9538 42.4843 39.5196 41.1248 39.1802C38.1792 38.5013 33.6475 34.6541 32.8545 34.2015C29.9089 32.2779 29.3425 32.8437 29.2292 32.5042C28.8894 30.3544 28.6628 22.9995 28.6628 22.9995C28.6628 22.7732 29.0027 22.8864 29.116 22.9995C29.4558 23.1127 29.569 23.2259 29.569 23.1128C29.569 22.8865 29.4558 21.4155 29.6824 21.076C30.0223 20.3971 30.4754 19.2656 30.7019 18.813C31.9481 16.0973 32.9678 13.9475 33.1944 12.7028C33.421 11.1187 33.1944 8.96889 33.1944 8.96889C33.5343 8.62943 34.3273 7.38477 34.4406 7.27162C34.5539 7.04532 34.4406 5.68748 34.4406 5.68748C34.214 5.46118 33.6475 5.34797 33.5342 5.34797C33.4209 5.34797 33.421 5.34797 33.421 5.34797H33.3077L35.347 2.29295C35.1204 2.17979 35.0071 2.17982 34.7805 2.17982C34.3274 2.17982 33.8741 2.63232 33.8741 2.63232C33.5343 2.06656 33.0811 2.06656 32.9678 2.06656C31.9481 2.17971 32.1748 3.08495 32.1748 3.08495C32.5147 3.87701 33.3077 3.53758 33.421 3.53758L33.5342 3.6507L32.8545 4.32958L30.1355 3.76383C30.1355 3.76383 30.0222 3.08498 30.0222 2.97182C30.0222 2.85867 30.0222 2.8587 30.0222 2.8587C30.1355 2.8587 30.4754 3.08495 30.7019 3.08495C31.1551 3.1981 31.4951 2.63237 31.4951 2.40607C31.4951 1.27456 30.4754 1.50081 30.4754 1.50081C30.4754 0.821899 29.909 0.708803 29.7957 0.708803C29.1159 0.595652 28.8893 1.27456 28.8893 1.27456C28.6627 1.16141 28.5495 1.16144 28.5495 1.16144C27.7565 0.935133 27.5299 1.61401 27.5299 1.84031C27.6431 2.97182 28.776 2.63232 28.776 2.63232L28.8893 2.74558L28.4361 3.42446L25.6038 2.8587L25.264 1.95344L25.3773 1.84031C25.4906 1.95347 25.4906 2.06656 25.8305 2.06656C26.6235 2.17971 26.7367 1.61398 26.7367 1.38768C26.85 0.0298689 25.1508 0.59568 25.1508 0.59568C24.471 -0.196378 24.0179 0.0299242 24.0179 0.0299242L24.8108 3.6507C24.8108 3.6507 22.7716 5.80055 22.6583 6.02685C22.545 6.25315 22.9982 7.49787 22.9982 7.49787L23.9045 8.7425L23.2247 9.76089L26.9634 10.2135L26.5102 11.4582C26.5102 11.4582 22.0919 12.4765 21.1856 13.0423C19.8261 13.9475 18.9197 15.1921 18.1266 16.2104C17.6735 16.7762 16.5405 21.3022 15.2943 23.5653H17.5602L13.2552 32.1649L12.5753 31.9385C12.5753 31.9385 12.802 29.9017 12.802 29.7886C12.802 29.5623 12.4621 28.3177 12.4621 28.2046C12.2355 27.752 11.2159 26.6204 11.2159 26.6204L10.5362 26.5073C10.876 26.8468 10.9893 27.6387 11.1026 28.0913C11.2159 28.5439 10.876 28.544 10.6494 28.8835C10.4228 29.2229 10.5362 29.4492 10.5362 29.4492L11.2159 31.1465L10.7627 31.2596C10.4228 30.6938 10.083 30.5807 10.083 30.5807V15.6447L10.9893 16.2104L10.5362 17.0026L12.0089 17.342L15.4076 20.3971L16.7672 16.8895L13.2552 14.9658L12.802 14.0607L11.6691 14.2869C11.6691 14.1738 11.3291 13.8343 11.3291 13.8343C11.8956 13.2685 12.6887 12.3634 12.6887 12.0239C12.802 11.4582 12.802 11.345 12.802 10.7793C12.802 10.2135 12.5753 9.30829 12.4621 9.19513C12.3488 8.96883 11.7823 8.40308 11.8956 8.62938C12.1222 9.42144 11.5558 10.4398 11.5558 10.4398C11.5558 10.4398 11.3292 10.553 10.9893 10.6662C10.6495 10.7793 10.6494 10.8924 10.6494 10.8924L10.3095 12.7028L9.85643 12.2502V7.72412H10.6494V4.66909H9.85643V3.42446H8.49685V4.66909H6.79748C4.19178 4.21649 0.79304 1.16144 0 0.59568C0.113291 7.61105 3.05895 12.7028 3.05895 12.7028ZM28.0963 8.51626L28.3228 9.53464L24.8108 9.19513L24.6976 8.17675L28.0963 8.51626ZM24.6976 6.47948L24.4709 5.68748L25.8305 4.32958L33.0812 5.57436C33.0812 5.57436 33.421 5.57433 33.3077 5.68748C33.1944 5.68748 32.0615 6.47948 32.0615 6.47948C32.0615 6.47948 29.6824 5.34805 27.5299 5.57436C27.5299 5.57436 27.9829 6.36639 26.7367 6.81899C26.5102 6.93214 25.3773 7.15847 25.3773 6.14011L24.6976 6.47948ZM33.0812 6.81899C33.1945 6.81899 33.6476 6.36636 33.8741 6.36636C34.1007 6.36636 34.4406 6.5926 34.4406 6.5926C34.4406 6.81891 34.4406 7.15836 34.4406 7.15836C34.3273 7.61096 33.7609 8.06362 33.7609 8.06362C33.421 7.15842 33.0811 6.93211 32.9678 6.93211C32.9678 7.04526 32.9679 6.81899 33.0812 6.81899ZM18.9197 19.9445C18.9197 19.9445 20.3925 16.3236 21.1856 16.0973C21.9786 15.871 22.4317 15.6448 24.1311 15.1922L23.7912 16.0973C23.7912 16.0973 21.8653 16.55 21.4121 16.8895C21.0722 17.2289 19.826 19.8313 19.826 19.9445H18.9197ZM10.4229 33.9752V33.07C10.4229 33.07 10.9893 32.9569 11.1026 32.9569C11.2159 32.9569 11.2159 32.9568 11.2159 33.07C11.2159 33.1831 11.3291 33.5226 11.3291 33.5226L10.4229 33.9752Z" fill="var(--fill-0, black)"/>
</svg>
