<svg xmlns="http://www.w3.org/2000/svg" fill="none" viewBox="0 0 80 80">
  <path fill="#fff" d="M0 12C0 5.373 5.373 0 12 0h56c6.627 0 12 5.373 12 12v56c0 6.627-5.373 12-12 12H12C5.373 80 0 74.627 0 68V12Z"/>
  <path fill="#6895DA" d="M39.415 71.324c3.21.2 7.078-.474 8.61-.836 3.177.585 8.862 3.344 11.286 4.18 2.425.836 4.096-.752 4.765-1.923.67-1.17-.668-5.768-.25-10.45 3.51-2.34 4.263-4.68 5.851-6.77 1.589-2.09 4.682-10.952 4.431-19.897-.25-8.945-3.706-14.906-5.852-17.472-.997-1.193-3.594-3.511-8.276-6.688-4.681-3.177-11.452-5.601-16.385-6.27-4.932-.669-13.459-.418-18.726 1.505-5.266 1.923-9.948 6.103-12.038 9.363-1.44 2.245-5.35 8.61-6.603 17.054-1.104 7.438-.586 11.286.667 15.047.828 2.485 2.592 6.855 7.942 11.871s11.37 7.608 14.713 8.945c3.344 1.338 5.852 2.09 9.865 2.341Z"/>
  <circle cx="68.507" cy="40.477" r=".836" fill="#fff"/>
  <circle cx="66.692" cy="41.014" r=".418" fill="#fff"/>
  <circle cx="67.197" cy="38.206" r="1.416" fill="#FFCBB6"/>
  <circle cx="63.908" cy="43.007" r="1.416" fill="#FFCBB6"/>
  <circle cx="40.169" cy="63.089" r="1.416" fill="#FFCBB6"/>
  <circle cx="67.264" cy="38.218" r=".572" fill="#fff"/>
  <circle cx="63.975" cy="43.02" r=".572" fill="#fff"/>
  <circle cx="40.088" cy="63.088" r=".572" fill="#fff"/>
  <circle cx="38.205" cy="65.034" r=".727" fill="#fff"/>
  <circle cx="17.19" cy="40.433" r=".727" fill="#D9E5F6"/>
  <circle cx="39.996" cy="65.62" r=".405" fill="#fff"/>
  <circle cx="18.981" cy="41.019" r=".405" fill="#D9E5F6"/>
  <circle cx="28.511" cy="37.264" r="5.517" fill="#F3F0EF"/>
  <circle cx="47.897" cy="37.264" r="5.517" fill="#F3F0EF"/>
  <circle cx="28.66" cy="37.414" r="3.14" fill="#141C32"/>
  <circle cx="48.152" cy="37.414" r="3.14" fill="#141C32"/>
  <path fill="#141C32" d="M32.514 51.651a.752.752 0 0 1 .893.58c.672 3.158 3.128 5.24 6.107 5.24 2.973 0 5.42-2.151 6.004-5.17a.753.753 0 1 1 1.477.285c-.708 3.663-3.724 6.389-7.48 6.389-3.76 0-6.775-2.648-7.58-6.431a.752.752 0 0 1 .58-.893Z"/>
  <path fill="#D9E5F6" fill-rule="evenodd" d="M52.52 23.7c6.974.088 12.6 5.768 12.6 12.763l-.001.165c-.089 6.974-5.77 12.6-12.764 12.6l-.165-.002c-6.919-.087-12.51-5.68-12.598-12.598l-.001-.092c-.987-.4-1.857-.22-2.459.029v.063c-.089 6.974-5.77 12.6-12.764 12.6l-.165-.002c-6.919-.087-12.51-5.68-12.598-12.598l-.002-.165c0-7.05 5.716-12.765 12.765-12.765l.165.001c6.423.082 11.703 4.907 12.496 11.133a4.76 4.76 0 0 1 2.668-.026c.812-6.267 6.17-11.108 12.658-11.108l.165.001Zm-28.152 1.67c-6.126 0-11.092 4.967-11.092 11.093s4.966 11.093 11.092 11.093c6.127 0 11.093-4.967 11.093-11.093S30.495 25.37 24.368 25.37Zm27.987 0c-6.126 0-11.092 4.967-11.092 11.093s4.966 11.093 11.092 11.093 11.093-4.967 11.093-11.093S58.48 25.37 52.355 25.37Z" clip-rule="evenodd"/>
</svg>
