<svg preserveAspectRatio="xMidYMid meet" width="100%" height="100%" overflow="visible" style="display: block;" viewBox="0 0 60 50" fill="none" xmlns="http://www.w3.org/2000/svg">
<g id="Logo">
<path d="M4.36916 4.32628C9.22374 -0.479683 16.5847 -1.2779 22.2832 1.91352C21.5536 1.72508 20.7795 1.62509 19.9864 1.62506C14.9542 1.62506 10.8797 5.66417 10.8796 10.6398C10.8796 13.6679 12.6314 16.1497 14.7001 17.9779C15.9067 19.0598 17.2703 20.2413 17.2827 20.2521L22.8988 25.2911C27.5755 29.3935 29.378 33.9982 29.3971 39.4009V44.7353L29.4032 44.7224V49.9931L29.3971 50L4.36916 25.2154C-1.45639 19.448 -1.45639 10.0936 4.36916 4.32628Z" fill="var(--fill-0, #DBCFC9)"/>
<path d="M34.7206 3.74849C39.3087 -0.316274 48.568 -2.32059 55.631 4.32628C61.4563 10.0935 61.4563 19.4481 55.631 25.2154L30.5962 49.9931C30.5963 46.6195 31.9352 43.3777 34.3275 40.9715L50.2435 24.945C52.4135 22.6708 53.695 19.5549 53.5428 16.1438C53.2573 9.94301 48.155 4.92926 41.8916 4.69052C37.0117 4.50216 32.5126 7.17847 30.5771 11.1426C30.6088 10.3071 31.2434 6.83307 34.7206 3.74849Z" fill="var(--fill-0, #DBCFC9)"/>
</g>
</svg>
