<svg xmlns="http://www.w3.org/2000/svg" fill="none" viewBox="0 0 80 80">
  <path fill="#212529" d="M0 12C0 5.373 5.373 0 12 0h56c6.627 0 12 5.373 12 12v56c0 6.627-5.373 12-12 12H12C5.373 80 0 74.627 0 68V12Z"/>
  <path fill="#DBCFC9" d="M14.37 19.326c4.854-4.806 12.215-5.604 17.913-2.413a9.202 9.202 0 0 0-2.297-.288c-5.032 0-9.106 4.04-9.106 9.015 0 3.028 1.751 5.51 3.82 7.338a232.754 232.754 0 0 0 2.583 2.274l5.616 5.04c4.676 4.102 6.479 8.706 6.498 14.109v5.334l.006-.013v5.271l-.006.007L14.37 40.215a14.668 14.668 0 0 1 0-20.889Zm30.35-.578c4.589-4.064 13.848-6.069 20.911.578a14.669 14.669 0 0 1 0 20.89L40.596 64.992c0-3.373 1.34-6.615 3.732-9.021l15.915-16.027a11.921 11.921 0 0 0 3.3-8.801c-.286-6.201-5.388-11.215-11.651-11.453-4.88-.189-9.38 2.488-11.315 6.452.032-.836.666-4.31 4.144-7.395Z"/>
</svg>
