<svg xmlns="http://www.w3.org/2000/svg" fill="none" viewBox="0 0 80 80">
  <path fill="#ECDFDA" d="M0 12C0 5.373 5.373 0 12 0h56c6.627 0 12 5.373 12 12v56c0 6.627-5.373 12-12 12H12C5.373 80 0 74.627 0 68V12Z"/>
  <path fill="#fff" d="M70.858 30.827c-1.45-3.38-4.463-5.283-8.12-5.778-9.57-1.297-19.346-1.522-28.989-1.276-6.44.164-12.984-.137-19.357 1.005-5.234.938-5.645 3.481-6.046 8.164-.305 3.563-.297 7.094.412 10.399.556 2.59 2.129 5.32 4.452 6.739 1.793 1.095 4.248 1.983 6.255 2.583 1.575.47 2.519 2.183 3.736 3.06 4.54 3.273 3.63-4.742 6.519-5.133 12.258-1.663 23.382.46 36.995-1.477 2.535-.361 4.606-2.99 5.144-5.56.77-3.686.454-9.334-1.001-12.726Z"/>
  <path fill="#000" d="M16.863 43.611c.07.042.142.08.214.118l-1.518 1.518a8.486 8.486 0 0 1-.189-.143l1.493-1.493Zm-.877-.683c.056.056.113.11.17.162l-1.443 1.442a8.382 8.382 0 0 1-.166-.165l1.439-1.44Z"/>
  <path fill="#000" fill-rule="evenodd" d="M42.968 33.447c1.13-.309 2.016.626 2.702 1.567.545-.774 1.28-1.444 2.218-1.524 1.191-.102 2.048.981 2.124 2.08.085 1.224-.736 2.215-1.448 3.111-.707.89-1.383 1.806-2.062 2.718-.3.403-.783.495-1.176.152a12.722 12.722 0 0 1-2.277-2.612c-.553-.847-1.013-1.798-1.243-2.786-.24-1.035-.031-2.38 1.162-2.706Zm.39 1.434c-.165.028-.176.49-.153.658.134.96.644 1.896 1.17 2.692.4.606.869 1.163 1.383 1.675a93.85 93.85 0 0 1 1.88-2.45c.427-.535 1.36-1.75.647-2.364-.703-.606-1.688 1.23-1.916 1.689-.258.52-.992.429-1.293 0-.29-.415-.575-.844-.901-1.232-.148-.175-.535-.716-.816-.668Z" clip-rule="evenodd"/>
  <path fill="#000" d="M37.92 38.435c.235-.331.65-.488 1.025-.269.328.192.502.695.269 1.025-.989 1.395-2.73 2.474-4.472 2.446-.807-.012-1.632-.2-2.315-.644-.646-.42-1.138-1.007-1.544-1.655-.514-.82.783-1.572 1.293-.756.6.957 1.375 1.54 2.566 1.557 1.188.018 2.497-.743 3.178-1.704Zm-1.691-4.518c.411-.019.738.357.748.749.019.694.036 1.389.054 2.083.011.42-.352.731-.749.75-.411.018-.738-.358-.749-.75l-.053-2.083c-.011-.42.352-.731.749-.75Zm-3.191.094c.39-.017.774.356.75.749-.042.654-.041 1.31.002 1.963.027.419-.361.731-.75.749-.423.018-.722-.357-.748-.75a15.248 15.248 0 0 1-.002-1.962c.026-.42.322-.73.748-.749Z"/>
  <path fill="#000" fill-rule="evenodd" d="M34.212 27.685c5.31-.061 10.622-.043 15.931.073 2.69.059 5.38.143 8.068.252 1.315.053 2.637.082 3.948.19 1.197.097 2.425.328 3.408 1.063.957.715 1.632 1.732 2.162 2.79a13.03 13.03 0 0 1 1.182 3.518c.142.789.195 1.593.301 2.387.125.94.266 1.88.276 2.83.026 2.458-1.05 4.732-3.538 5.461-1.263.37-2.585.559-3.889.718a90.035 90.035 0 0 1-4.026.38c-5.471.418-10.964.474-16.448.35-5.343-.121-10.68-.413-16.016-.71-.074 1.961.013 3.941-.348 5.877-.034.184-.22.311-.39.337-.204.03-.351-.071-.468-.224a39.552 39.552 0 0 0-1.797-2.21c-.705-.8-1.45-1.575-2.281-2.247-.789-.638-1.648-1.043-2.604-1.366-1.115-.376-2.237-.732-3.16-1.49-.8-.655-1.354-1.548-1.747-2.493-.39-.94-.614-1.941-.762-2.946a39.104 39.104 0 0 1-.35-3.805 64.337 64.337 0 0 1-.066-2.037c-.01-.593-.036-1.191.013-1.783.07-.83.272-1.66.707-2.38.6-.99 1.597-1.663 2.717-1.93.33-.08.672-.13 1.012-.14.675-.022 1.35-.045 2.026-.07a671.67 671.67 0 0 1 16.14-.395ZM23.934 50.919c.18.22.358.442.533.665.047-.43.076-.86.095-1.294l-.628.629Zm-.716-.846c.192.218.38.44.566.663l.791-.79c.014-.418.02-.836.025-1.254l-1.382 1.381Zm-.747-.813c.2.208.398.421.591.637l1.542-1.541c.005-.419.011-.837.025-1.254L22.47 49.26Zm23.512-20.635a506.27 506.27 0 0 0-15.555.055c-2.639.048-5.278.114-7.916.193-2.133.064-4.265.171-6.398.214-.235.005-.468.03-.698.078-.868.181-1.81.75-2.277 1.51-.292.477-.467 1.027-.551 1.604l1.747-1.747.005.327-1.793 1.794c-.033.414-.03.832-.022 1.25l1.843-1.842.009.323-1.844 1.843c.01.4.017.8.03 1.199l1.854-1.854.013.319-1.856 1.855c.015.392.034.782.056 1.174l1.855-1.855c.005.104.01.21.017.315l-1.854 1.853c.024.382.05.763.085 1.145l1.84-1.842.023.31-1.835 1.835c.036.367.079.734.13 1.1l1.8-1.8.028.303-1.786 1.786c.052.34.114.689.19 1.04l1.721-1.722.039.293-1.7 1.699c.077.321.166.642.273.957l1.598-1.599c.018.095.037.187.056.276l-1.568 1.568c.11.292.234.578.378.85l1.451-1.45c.03.085.062.164.095.237l-1.428 1.427c.341.588.78 1.108 1.35 1.505.305.212.63.382.967.529l1.583-1.583c.08.03.162.058.245.087l-1.594 1.594c.297.119.6.223.904.325l1.608-1.608.247.085-1.607 1.606c.306.102.613.204.909.32l1.59-1.59.235.098-1.59 1.59c.285.12.558.256.822.405l1.612-1.611c.073.035.147.072.222.11l-1.624 1.624c.252.15.496.315.735.494l3.457-3.458.306.026-3.575 3.575c.227.178.45.368.667.562l4.046-4.046.31.023-4.182 4.18c.213.197.422.398.625.604l2.335-2.335c.007-.14-.005-.295.048-.427a.4.4 0 0 1 .434-.306l.239.013 1.647-1.647.31.021-1.643 1.643 1.164.065 1.634-1.633.312.02-1.631 1.63 1.165.064 1.627-1.626.314.018-1.626 1.625 1.167.062 1.625-1.624.316.016-1.626 1.625 1.168.06 1.628-1.627.317.015-1.63 1.629 1.172.058 1.633-1.633.318.013-1.635 1.635c.392.019.783.037 1.175.054l1.639-1.639.319.013-1.64 1.64 1.177.052 1.645-1.646.32.012-1.647 1.647 1.183.047 1.65-1.651.322.011-1.652 1.651c.396.015.792.028 1.188.041l1.653-1.653.322.01-1.654 1.654c.397.013.795.025 1.193.035l1.653-1.652.323.009-1.653 1.652 1.2.03 1.648-1.649.323.009-1.646 1.646c.402.009.805.015 1.207.022l1.638-1.638.324.008-1.634 1.634c.405.006.81.01 1.215.014l1.62-1.62.325.006-1.616 1.616c.408.003.817.004 1.225.004l1.596-1.595.326.006-1.59 1.59c.41-.001.822-.002 1.233-.005l1.564-1.564.327.006-1.556 1.555c.415-.004.83-.01 1.244-.016l1.522-1.521.327.004-1.511 1.511c.419-.008.837-.017 1.256-.028l1.47-1.469.328.003-1.456 1.457c.423-.012.847-.026 1.27-.042l1.406-1.405.33.002-1.392 1.39c.43-.016.858-.035 1.286-.056l1.333-1.332.332-.001-1.316 1.316c.434-.022.868-.047 1.302-.073l1.263-1.263c.152-.007.27-.054.419-.087l-1.328 1.328c.44-.028.88-.058 1.32-.091l1.505-1.506.396-.063-1.542 1.542c.447-.035.893-.072 1.34-.112l1.658-1.658.391-.06-1.684 1.685c.454-.042.908-.087 1.361-.134h.002l1.767-1.767.39-.058-1.784 1.784c.47-.053.94-.111 1.409-.18l1.815-1.815.388-.057-1.81 1.811a25.556 25.556 0 0 0 1.519-.29l1.727-1.727.387-.056-1.678 1.678c.94-.242 1.826-.602 2.406-1.438 1.214-1.751.847-3.991.584-5.97-.095-.711-.143-1.434-.265-2.14a12.18 12.18 0 0 0-1.102-3.378c-.479-.956-1.08-1.948-1.98-2.564-.945-.647-2.106-.788-3.222-.854-2.639-.157-5.285-.236-7.927-.316a439.833 439.833 0 0 0-7.806-.167Z" clip-rule="evenodd"/>
</svg>
