<svg preserveAspectRatio="xMidYMid meet" width="100%" height="100%" overflow="visible" style="display: block;" viewBox="0 0 60 42" fill="none" xmlns="http://www.w3.org/2000/svg">
<g id="Logo">
<path d="M57.863 28.7258C58.4045 28.791 58.9083 29.0331 59.2946 29.4137C59.6808 29.7942 59.9269 30.2918 59.9942 30.8266C60.0205 31.2219 59.9571 31.6181 59.8086 31.9861L59.8472 32.001C59.7899 32.149 59.7176 32.291 59.6315 32.4248C58.6408 34.6176 55.6782 37.878 50.7162 39.7726C46.3234 41.4505 41.8144 42 37.7906 42C30.3894 42 24.6317 40.1392 24.2619 40.0174C23.6466 39.8142 23.1373 39.3782 22.8476 38.8047C22.558 38.2313 22.5111 37.5673 22.7167 36.9595C22.9224 36.3516 23.3647 35.8487 23.9454 35.5626C24.5258 35.2766 25.1974 35.2297 25.8126 35.4327C25.9324 35.4729 38.1522 39.3886 48.952 35.2634C53.7747 33.422 55.1599 30.53 55.2833 30.2591C55.4787 29.756 55.8386 29.3316 56.306 29.0538C56.7734 28.776 57.3216 28.6607 57.863 28.7258Z" fill="var(--fill-0, white)"/>
<path d="M2.43068 9.93948C3.07291 9.93551 3.69151 10.1808 4.15194 10.623C4.27174 10.7414 16.7045 22.9641 26.9447 26.6315C38.3769 30.7247 43.8931 27.3072 43.9642 27.2618C44.2264 27.0802 44.5228 26.952 44.8355 26.8838C45.1481 26.8157 45.4712 26.809 45.7863 26.8647C46.1015 26.9204 46.4034 27.0374 46.6727 27.2086C46.9419 27.3797 47.1742 27.6022 47.3563 27.8623C47.7257 28.3912 47.8687 29.0432 47.7533 29.6756C47.6379 30.308 47.2734 30.8693 46.7403 31.2376C46.5498 31.3725 43.4122 33.4746 37.3002 33.4746C34.1064 33.4746 30.1013 32.9002 25.2771 31.1737C14.0074 27.1372 1.22837 14.5717 0.689026 14.0366C0.24213 13.5807 -0.00548342 12.9687 9.21583e-05 12.3341C0.00578548 11.6996 0.264341 11.0924 0.719073 10.6443C1.17375 10.1964 1.78857 9.94358 2.43068 9.93948Z" fill="var(--fill-0, white)"/>
<path fill-rule="evenodd" clip-rule="evenodd" d="M34.9168 0.2322C37.2902 -0.234079 39.7508 0.00522326 41.9864 0.920025C44.2221 1.83492 46.1332 3.38509 47.4775 5.37279C48.8216 7.36032 49.5391 9.69686 49.539 12.0871C49.5355 15.291 48.245 18.3629 45.9516 20.6284C43.6582 22.8939 40.5489 24.1684 37.3056 24.1719C34.8857 24.1721 32.5196 23.4639 30.5074 22.1361C28.4953 20.8083 26.9266 18.9206 26.0004 16.7123C25.0742 14.5039 24.8319 12.0732 25.3039 9.72866C25.7759 7.38427 26.9411 5.23062 28.652 3.54036C30.3631 1.85015 32.5435 0.698551 34.9168 0.2322ZM37.3056 4.83509C35.8537 4.83509 34.4339 5.26068 33.2267 6.05742C32.0194 6.85425 31.0781 7.98725 30.5224 9.31234C29.9669 10.6374 29.8218 12.0955 30.105 13.5021C30.3882 14.9087 31.0873 16.2007 32.1139 17.2149C33.1405 18.229 34.4489 18.9197 35.873 19.1996C37.297 19.4794 38.7735 19.3364 40.1149 18.7875C41.4562 18.2386 42.6028 17.3085 43.4094 16.1161C44.2159 14.9236 44.6467 13.5212 44.6467 12.0871C44.6444 10.1647 43.87 8.32183 42.494 6.96245C41.1179 5.60306 39.2517 4.8374 37.3056 4.83509Z" fill="var(--fill-0, white)"/>
</g>
</svg>
