<svg xmlns="http://www.w3.org/2000/svg" fill="none" viewBox="0 0 80 80">
  <path fill="#fff" d="M0 12C0 5.373 5.373 0 12 0h56c6.627 0 12 5.373 12 12v56c0 6.627-5.373 12-12 12H12C5.373 80 0 74.627 0 68V12Z"/>
  <path fill="#F4DC75" d="M10 10h46.531v51.594H10z"/>
  <path fill="#131A27" fill-rule="evenodd" d="M51.927 21.5c4.163 0 7.343.452 9.54 1.357 2.22.881 4.197 2.47 5.931 4.767C69.133 29.921 70 32.74 70 36.08c0 2.343-.463 4.629-1.388 6.856-.925 2.227-2.231 3.978-3.92 5.254-1.688 1.276-3.33 2.123-4.925 2.54-1.573.418-4.047.627-7.424.627H44.54V69H33.265V21.5h18.662Zm-7.77 21.227h7.215c2.752 0 4.683-.638 5.793-1.914 1.11-1.276 1.665-2.738 1.665-4.385 0-1.925-.624-3.456-1.873-4.593-1.226-1.137-3.099-1.705-5.62-1.705h-7.18v12.597Z" clip-rule="evenodd"/>
</svg>
