<svg preserveAspectRatio="xMidYMid meet" width="100%" height="100%" overflow="visible" style="display: block;" viewBox="0 0 60 60" fill="none" xmlns="http://www.w3.org/2000/svg">
<g id="Logo">
<path id="Exclude" d="M37.7245 0C41.6931 6.3598e-07 44.9102 3.21424 44.9102 7.1792V30.3321C44.9102 34.2971 41.6931 37.5113 37.7245 37.5113H20.793C20.7074 37.5113 20.6246 37.5419 20.5596 37.5974L10.4674 46.2168C9.24551 47.2603 7.36068 46.3963 7.35553 44.7903L7.33352 37.8691C7.33289 37.6713 7.17206 37.5122 6.97432 37.5027C3.16252 37.3201 8.2679e-08 34.2385 0 30.3321V7.1792C0 3.21424 3.21712 0 7.18563 0H37.7245ZM11.2275 14.9866C9.14408 14.9866 7.45509 16.674 7.45509 18.7556C7.45509 20.8373 9.14408 22.5247 11.2275 22.5247C13.311 22.5247 15 20.8373 15 18.7556C15 16.674 13.311 14.9866 11.2275 14.9866ZM22.4551 14.9866C20.3716 14.9866 18.6826 16.674 18.6826 18.7556C18.6826 20.8373 20.3716 22.5247 22.4551 22.5247C24.5386 22.5247 26.2275 20.8373 26.2275 18.7556C26.2275 16.674 24.5386 14.9866 22.4551 14.9866ZM33.6826 14.9866C31.5992 14.9866 29.9102 16.674 29.9102 18.7556C29.9102 20.8373 31.5992 22.5247 33.6826 22.5247C35.7661 22.5247 37.4551 20.8373 37.4551 18.7556C37.4551 16.674 35.7661 14.9866 33.6826 14.9866Z" fill="var(--fill-0, #EE2D26)"/>
<path id="Subtract" opacity="0.74" d="M52.8143 22.4799C56.7828 22.4799 60 25.6941 60 29.6591V45.3187C60 49.2249 56.8377 52.3065 53.026 52.4893C52.8281 52.4988 52.6672 52.6581 52.6667 52.856L52.6541 58.1164C52.6502 59.715 50.7813 60.5831 49.5555 59.5556L41.2362 52.5818C41.1715 52.5276 41.0897 52.4979 41.0052 52.4979H29.5509C25.5824 52.4979 22.3652 49.2836 22.3652 45.3187V41.1009H37.7245C43.6773 41.1009 48.503 36.2795 48.503 30.3321V22.4799H52.8143Z" fill="var(--fill-0, #99D9E8)"/>
</g>
</svg>
