<svg xmlns="http://www.w3.org/2000/svg" fill="none" viewBox="0 0 80 80">
  <path fill="#F47B40" d="M0 12C0 5.373 5.373 0 12 0h56c6.627 0 12 5.373 12 12v56c0 6.627-5.373 12-12 12H12C5.373 80 0 74.627 0 68V12Z"/>
  <path fill="#fff" d="M67.863 47.726a2.458 2.458 0 0 1 1.432.688c.386.38.632.878.7 1.413.025.395-.038.791-.186 1.16l.038.014c-.057.148-.13.29-.215.424-.991 2.193-3.954 5.453-8.916 7.348C56.323 60.45 51.814 61 47.791 61c-7.402 0-13.16-1.86-13.53-1.983a2.439 2.439 0 0 1-1.413-1.212 2.39 2.39 0 0 1-.131-1.846 2.427 2.427 0 0 1 1.228-1.396 2.474 2.474 0 0 1 1.868-.13c.12.04 12.34 3.956 23.139-.17 4.823-1.841 6.208-4.733 6.331-5.004a2.425 2.425 0 0 1 1.023-1.205 2.472 2.472 0 0 1 1.557-.328Z"/>
  <path fill="#fff" d="M12.43 28.94a2.463 2.463 0 0 1 1.722.683c.12.118 12.553 12.341 22.793 16.009 11.432 4.093 16.948.675 17.02.63a2.446 2.446 0 0 1 1.821-.397 2.418 2.418 0 0 1 1.57.998 2.41 2.41 0 0 1-.616 3.375c-.19.135-3.328 2.237-9.44 2.237-3.194 0-7.199-.575-12.023-2.301-11.27-4.037-24.049-16.602-24.588-17.137A2.402 2.402 0 0 1 10 31.334a2.403 2.403 0 0 1 .72-1.69 2.456 2.456 0 0 1 1.71-.704Z"/>
  <path fill="#fff" fill-rule="evenodd" d="M44.917 19.232a12.377 12.377 0 0 1 7.07.688 12.207 12.207 0 0 1 5.49 4.453 11.982 11.982 0 0 1 2.062 6.714 12.024 12.024 0 0 1-3.587 8.541 12.345 12.345 0 0 1-15.444 1.508A12.12 12.12 0 0 1 36 35.712a11.95 11.95 0 0 1-.696-6.983 12.042 12.042 0 0 1 3.348-6.189 12.284 12.284 0 0 1 6.265-3.308Zm2.389 4.603a7.408 7.408 0 0 0-4.08 1.222 7.275 7.275 0 0 0-2.704 3.255 7.171 7.171 0 0 0-.417 4.19 7.225 7.225 0 0 0 2.009 3.713 7.371 7.371 0 0 0 3.759 1.985c1.424.28 2.9.136 4.242-.413a7.325 7.325 0 0 0 3.294-2.67 7.191 7.191 0 0 0 1.238-4.03 7.215 7.215 0 0 0-2.153-5.125 7.397 7.397 0 0 0-5.188-2.127Z" clip-rule="evenodd"/>
</svg>
