<svg xmlns="http://www.w3.org/2000/svg" fill="none" viewBox="0 0 80 80">
  <path fill="#4C796D" d="M0 12C0 5.373 5.373 0 12 0h56c6.627 0 12 5.373 12 12v56c0 6.627-5.373 12-12 12H12C5.373 80 0 74.627 0 68V12Z"/>
  <path fill="#fff" d="M35.185 71.402a22.84 22.84 0 0 1-18.647-18.644l18.647 18.644Zm-3.654-20.901-3.063 5.427a1.18 1.18 0 0 0-.015 1.158 1.185 1.185 0 0 0 .983.615h9.028v13.701l-22.41-22.405L16 47.17c.155-3.387.978-6.71 2.419-9.78L31.53 50.502Zm29.343-13.057a25.788 25.788 0 0 1 2.418 9.672l-.054 1.881-22.41 22.405V57.54h9.028a1.185 1.185 0 0 0 .968-1.72l-3.063-5.373h-.054l13.167-13.003Zm1.988 15.314a22.836 22.836 0 0 1-18.648 18.644l18.54-18.698.108.054Z"/>
  <path fill="#fff" d="M38.303 33.414a5.59 5.59 0 0 1 6.274 7.234 5.588 5.588 0 0 1-2.298 2.975 1.075 1.075 0 0 0-.376 1.451l.645 1.074 2.15 3.87 1.236 2.149 1.773 3.116h-4.89l.054.054H31.263l1.773-3.17 1.183-2.15 2.203-3.869.537-1.074a1.074 1.074 0 0 0-.376-1.451 5.587 5.587 0 0 1-1.988-7.521 5.591 5.591 0 0 1 3.708-2.688Z"/>
  <path fill="#fff" d="M33.09 34.49a7.844 7.844 0 0 0 1.558 10.477l-1.934 3.385-13.257-13.2a91.465 91.465 0 0 1 5.25-9.045l8.383 8.382Zm21.55-8.544a93.41 93.41 0 0 1 5.212 9.134v.054l-13.22 13.164-1.934-3.439a7.898 7.898 0 0 0 1.504-10.477l8.438-8.436Zm-35.183 9.205-.018.036v-.053l.018.017Zm19.007-13.396v9.242a7.97 7.97 0 0 0-3.762 1.665L28.36 26.27l-2.31-2.311c1.612-2.418 3.332-4.729 4.944-6.878l1.236-1.611 6.234 6.286Zm9.888-4.621c1.613 2.149 3.332 4.46 4.944 6.878l-2.257 2.257h.054l-6.449 6.393c-1.128-.86-2.419-1.45-3.816-1.665V21.81l6.288-6.287 1.236 1.612Zm-9.888 1.451-1.183-1.236-1.612-1.612h-.054l-1.88-1.988L38.463 8v10.585ZM40.774 8c1.651 1.884 3.264 3.8 4.837 5.749l-1.934 1.935-1.666 1.61-1.237 1.237V8Z"/>
</svg>
