<svg preserveAspectRatio="xMidYMid meet" width="100%" height="100%" overflow="visible" style="display: block;" viewBox="0 0 54 60" fill="none" xmlns="http://www.w3.org/2000/svg">
<path id="Logo" d="M54 25.447C54 22.6657 52.9273 20.0528 50.9826 18.0881C49.038 16.1234 46.4518 15.0396 43.6989 15.0396C40.946 15.0396 38.5214 16.0641 36.5964 17.9247L36.5866 17.9149L18.8792 35.805C17.5665 33.3158 17.9437 30.1435 20.0157 28.0452C20.5006 27.5552 21.0834 26.9862 21.1128 26.9564L34.9652 12.961C36.3858 11.5259 37.1646 9.62058 37.1646 7.59155C37.1646 5.56252 36.3809 3.65721 34.9652 2.22203C33.5447 0.786867 31.6589 0 29.6506 0C27.6423 0 25.7565 0.79182 24.3359 2.22203C22.8959 3.677 21.4264 5.20125 21.4264 5.20125L3.42024 23.3933C-1.14008 28.0006 -1.14008 35.4982 3.42024 40.1055C7.57888 44.3072 14.1132 44.6783 18.6931 41.2141C22.7097 44.0696 28.3085 43.6836 31.8989 40.0561L38.4626 33.4246C39.6921 32.1824 41.3281 31.4946 43.0719 31.4946C44.1643 31.4946 45.2125 31.7618 46.1481 32.2666L29.0873 49.459C27.9313 50.6268 27.2945 52.1758 27.2945 53.8238C27.2945 55.4718 27.9313 57.0257 29.0873 58.1887C30.2384 59.3566 31.7765 60 33.4075 60C35.0388 60 36.5768 59.3566 37.7279 58.1937L50.3557 45.4355C53.9266 41.8278 54.3134 36.2207 51.541 32.1676C53.1233 30.2919 53.9854 27.9363 53.9854 25.447M16.0333 38.4427C12.9621 40.4668 8.79856 40.1254 6.1045 37.4035C3.01857 34.2857 3.01857 29.2131 6.1045 26.0954L24.1253 7.88848C24.1253 7.88848 25.585 6.37413 27.0153 4.92906C27.7207 4.21643 28.6563 3.82546 29.6555 3.82546C30.6548 3.82546 31.5903 4.21643 32.2957 4.92906C33.001 5.6417 33.388 6.58693 33.388 7.5965C33.388 8.60607 33.001 9.5513 32.2957 10.2639L18.4677 24.2346C18.4677 24.2346 17.8506 24.8334 17.3411 25.3481C15.3966 27.3128 14.3238 29.9257 14.3238 32.707C14.3238 34.7806 14.9214 36.7602 16.0284 38.4477M43.0817 27.674C40.3338 27.674 37.7425 28.7579 35.798 30.7226L29.2342 37.3539C27.1574 39.4523 24.0224 39.8334 21.5537 38.5021L39.0896 20.7852C40.319 19.5431 41.9551 18.8601 43.694 18.8601C45.4328 18.8601 47.0738 19.5431 48.3033 20.7902C50.6447 23.1557 50.821 26.8822 48.8519 29.4606C47.162 28.2976 45.1684 27.674 43.0817 27.674ZM47.6911 42.7383L35.0632 55.4965C34.1816 56.3873 32.6484 56.3873 31.7715 55.4965C31.3306 55.0511 31.0906 54.4622 31.0906 53.8337C31.0906 53.2052 31.3306 52.6162 31.7715 52.1708L48.8323 34.9786C50.1499 37.4678 49.7678 40.645 47.6911 42.7383Z" fill="var(--fill-0, #115E67)"/>
</svg>
