<svg xmlns="http://www.w3.org/2000/svg" fill="none" viewBox="0 0 80 80">
  <path fill="#fff" d="M0 12C0 5.373 5.373 0 12 0h56c6.627 0 12 5.373 12 12v56c0 6.627-5.373 12-12 12H12C5.373 80 0 74.627 0 68V12Z"/>
  <path fill="#115E67" d="M67 35.447c0-2.781-1.073-5.394-3.017-7.359a10.18 10.18 0 0 0-7.284-3.048c-2.753 0-5.178 1.024-7.103 2.885l-.01-.01-17.707 17.89c-1.313-2.49-.935-5.661 1.137-7.76.485-.49 1.067-1.059 1.097-1.089l13.852-13.995a7.578 7.578 0 0 0 2.2-5.37 7.599 7.599 0 0 0-2.2-5.369A7.423 7.423 0 0 0 42.651 10a7.444 7.444 0 0 0-5.315 2.222 364.2 364.2 0 0 0-2.91 2.98L16.42 33.392c-4.56 4.608-4.56 12.105 0 16.712a11.621 11.621 0 0 0 15.273 1.11A10.236 10.236 0 0 0 44.9 50.055l6.564-6.631a6.443 6.443 0 0 1 4.609-1.93 6.45 6.45 0 0 1 3.076.772l-17.06 17.192a6.164 6.164 0 0 0-1.794 4.365c0 1.648.637 3.202 1.793 4.365A6.03 6.03 0 0 0 46.407 70c1.632 0 3.17-.643 4.32-1.806l12.629-12.759c3.57-3.607 3.957-9.214 1.185-13.267a10.365 10.365 0 0 0 2.444-6.721M29.033 48.443a7.872 7.872 0 0 1-9.928-1.04c-3.086-3.117-3.086-8.19 0-11.308l18.02-18.206s1.46-1.515 2.89-2.96a3.685 3.685 0 0 1 2.64-1.104c1 0 1.935.391 2.64 1.104a3.762 3.762 0 0 1 1.093 2.667c0 1.01-.387 1.955-1.092 2.668l-13.828 13.97s-.617.6-1.127 1.114a10.394 10.394 0 0 0-3.017 7.359c0 2.074.597 4.053 1.704 5.74m27.054-10.773a10.19 10.19 0 0 0-7.284 3.049l-6.564 6.63a6.473 6.473 0 0 1-7.68 1.15L52.09 30.784a6.436 6.436 0 0 1 4.604-1.925c1.739 0 3.38.683 4.61 1.93 2.34 2.366 2.517 6.092.548 8.67a10.132 10.132 0 0 0-5.77-1.786Zm4.61 15.064-12.63 12.758c-.881.891-2.415.891-3.291 0a2.344 2.344 0 0 1-.681-1.662c0-.629.24-1.218.68-1.663l17.061-17.192c1.318 2.489.936 5.666-1.14 7.76Z"/>
</svg>
