<svg xmlns="http://www.w3.org/2000/svg" fill="none" viewBox="0 0 80 80">
  <path fill="#fff" d="M0 12C0 5.373 5.373 0 12 0h56c6.627 0 12 5.373 12 12v56c0 6.627-5.373 12-12 12H12C5.373 80 0 74.627 0 68V12Z"/>
  <path fill="#EE2D26" d="M47.724 10a7.182 7.182 0 0 1 7.186 7.18v23.152a7.182 7.182 0 0 1-7.185 7.18H30.793a.36.36 0 0 0-.233.085l-10.093 8.62c-1.221 1.043-3.106.18-3.111-1.427l-.023-6.92a.373.373 0 0 0-.359-.367C13.162 47.32 10 44.239 10 40.333V17.178A7.182 7.182 0 0 1 17.186 10h30.538ZM21.229 24.987a3.77 3.77 0 0 0-3.773 3.769 3.77 3.77 0 0 0 3.773 3.769A3.77 3.77 0 0 0 25 28.755a3.77 3.77 0 0 0-3.773-3.768Zm11.227 0a3.77 3.77 0 0 0-3.772 3.769 3.77 3.77 0 0 0 3.772 3.769 3.77 3.77 0 0 0 3.773-3.77 3.77 3.77 0 0 0-3.773-3.768Zm11.228 0a3.77 3.77 0 0 0-3.773 3.769 3.77 3.77 0 0 0 3.773 3.769 3.77 3.77 0 0 0 3.772-3.77 3.77 3.77 0 0 0-3.772-3.768Z"/>
  <path fill="#99D9E8" d="M62.814 32.48A7.182 7.182 0 0 1 70 39.659v15.66c0 3.906-3.162 6.987-6.974 7.17a.373.373 0 0 0-.36.367l-.012 5.26c-.004 1.599-1.873 2.467-3.099 1.44l-8.319-6.974a.36.36 0 0 0-.23-.084H39.55a7.182 7.182 0 0 1-7.186-7.18V51.1h15.36c5.952 0 10.778-4.82 10.778-10.768V32.48h4.311Z" opacity=".74"/>
</svg>
