<svg preserveAspectRatio="xMidYMid meet" width="100%" height="100%" overflow="visible" style="display: block;" viewBox="0 0 67.2243 21.4202" fill="none" xmlns="http://www.w3.org/2000/svg">
<g id="Logo">
<g id="Union">
<path d="M3.38256 0.900141C5.31367 -0.603651 7.1258 0.0705703 7.40307 0.808345C7.58773 1.45364 7.07966 1.72993 6.34057 1.77612C5.60127 1.82222 5.00012 2.37579 4.81518 3.2517C4.63033 4.12783 5.6118 5.27698 7.07983 6.48022C8.37353 7.54079 9.29768 9.56936 8.51244 11.6902C7.83872 13.5092 5.73966 14.1346 4.35326 14.0886C2.96687 14.0425 1.21097 12.7508 1.02612 12.1052C0.841435 11.4599 1.16428 10.9993 1.85717 10.907C2.5503 10.8148 3.42844 11.3217 3.7058 11.8289C3.98307 12.3361 5.36927 12.0594 5.87768 11.1833C6.38602 10.3072 6.15488 8.55529 4.16772 6.89526C2.18062 5.23521 1.48784 2.37571 3.38256 0.900141Z" fill="var(--fill-0, black)"/>
<path d="M45.113 0.393306C45.4833 0.393268 48.9024 0.209123 52.3679 0.347407C52.8842 0.368012 53.4314 1.13085 53.4314 1.49975C53.4314 1.86856 52.9231 2.55979 52.5535 2.6062C52.2577 2.64309 50.1807 2.62157 49.1794 2.6062C49.2256 7.63242 49.2019 13.2043 49.1335 13.4431C49.0411 13.7658 48.8561 14.0425 48.2556 14.0886C48.0207 14.1067 46.8781 13.4102 46.5915 12.9812C46.4991 12.8417 46.3605 12.058 46.4529 10.8142C46.4939 10.2601 46.4843 4.91176 46.4997 2.5603C46.0068 2.5603 44.9647 2.53229 44.7429 2.42163C44.4658 2.28293 44.1883 1.68409 44.1882 1.26928C44.1181 0.854276 44.7433 0.393306 45.113 0.393306Z" fill="var(--fill-0, black)"/>
<path fill-rule="evenodd" clip-rule="evenodd" d="M57.7751 0.393306C58.0985 0.162913 59.0687 0.531202 59.3464 0.669673C59.6242 0.809424 60.7792 2.88283 61.1951 3.94311C61.5278 4.79152 62.2878 7.03304 62.6267 8.0476C63.3659 8.13979 64.0135 8.60065 64.4294 8.96948C64.8453 9.33833 64.7991 10.0761 64.5681 10.2146C64.3828 10.325 63.7512 10.2912 63.4587 10.2605C63.6436 10.7831 64.0967 11.9949 64.4294 12.6589C64.8453 13.4889 64.6605 13.8114 64.2908 13.9958C63.9208 14.18 62.9506 13.9953 62.3962 13.2117C61.9527 12.5844 61.4108 11.0145 61.1951 10.3074C60.8405 10.2766 59.9925 10.1875 59.4382 10.0769C58.8836 9.96638 57.8212 9.96877 57.3591 9.98413C57.0356 10.9372 56.3051 12.9445 55.9724 13.3503C55.5567 13.8571 55.0946 13.9962 54.7712 13.8581C54.4478 13.7192 53.7554 12.6137 53.7546 12.4285C53.7546 12.244 54.9094 8.92424 55.5564 7.12573C56.2032 5.32791 57.4512 0.672598 57.7751 0.393306ZM59.1609 5.14233C59.0129 5.62212 58.4215 7.24863 58.1443 8.0017L60.4548 8.0476C59.9003 6.47988 59.2533 5.37288 59.1609 5.14233Z" fill="var(--fill-0, black)"/>
<path d="M34.4841 0.347407C34.7629 0.301321 39.8879 0.315687 40.5378 0.439204C41.5083 0.623657 42.0632 1.17752 42.0632 1.59252C42.0629 2.00723 41.6007 2.32955 41.2312 2.37573C40.8615 2.42184 38.458 2.42239 38.2732 2.4685C38.1812 2.65295 38.4119 2.92968 38.4119 3.11401C38.4119 3.30685 38.5045 12.5525 38.5046 12.7507C38.5046 12.9352 38.5043 13.3967 38.2732 13.7195C38.0421 14.042 37.2573 13.7657 36.8874 13.4431C36.5177 13.1203 36.1941 12.6129 36.1941 12.0134V2.23803C35.5164 2.23803 34.0502 2.22803 33.6062 2.19116C33.0518 2.14506 32.6353 1.26983 32.5427 0.992915C32.4029 0.670127 34.2068 0.393519 34.4841 0.347407Z" fill="var(--fill-0, black)"/>
<path d="M27.321 0.531001C27.3681 0.208847 28.2913 0.347206 28.6609 0.393306C29.0306 0.439418 29.9086 1.40798 29.9548 1.82299C30.0011 2.23969 30.0938 5.55771 30.0476 7.26342C30.0014 8.96956 29.0304 12.2896 27.9675 13.1658C26.9047 14.0419 24.8717 14.0422 23.3005 12.8435C21.7293 11.6446 21.0355 9.24655 20.8044 6.98706C20.5734 4.72757 20.8969 1.68416 20.9431 1.08471C20.9893 0.485298 21.0825 0.347407 21.406 0.347407C21.6377 0.278824 22.7919 0.992921 23.0691 1.45385C23.3463 1.91519 23.2543 5.09641 23.3005 7.44799C23.3459 9.75471 23.9934 10.8602 24.5017 11.4597C25.1061 12.1724 25.7495 11.4603 26.2117 10.6765C26.6738 9.89262 27.1358 7.95557 27.2283 7.17163C27.3207 6.38772 27.2748 0.853786 27.321 0.531001Z" fill="var(--fill-0, black)"/>
<path d="M13.5027 0.300532C13.7799 0.314047 14.7046 0.485285 14.8435 0.900141C14.9821 1.31513 15.0746 4.26634 15.1208 5.51147C15.1578 6.50749 15.1513 10.3691 15.1667 12.1521C15.8599 12.2136 17.4407 12.4565 17.8474 12.5671C18.3554 12.7056 18.5863 13.28 18.3093 13.5349C18.0291 13.7925 15.5374 13.7197 14.6589 13.6736C13.7809 13.6275 12.8321 13.4928 12.6247 13.2585C12.44 13.0496 12.3288 12.4494 12.3015 11.3894C12.2553 9.59058 12.4867 3.02128 12.533 0.854243C12.5448 0.29936 12.9484 0.254489 13.5027 0.300532Z" fill="var(--fill-0, black)"/>
</g>
<path id="Vector" d="M66.7407 20.7285C66.9717 20.4519 67.3876 19.5757 67.1566 19.253C66.9718 19.0685 63.8292 19.0685 52.3222 19.1146C40.8151 19.1607 19.4184 18.7457 15.7214 18.7457C12.0243 18.7457 1.81125 19.0224 1.34912 19.0224C0.886985 19.0224 0.101383 19.8985 0.00895678 20.4519C-0.0834694 21.0052 0.563514 21.2819 0.840792 21.1897C1.11807 21.0974 15.9063 21.0513 27.9217 21.1897C39.9371 21.328 64.9384 21.4202 65.4005 21.4202C65.8626 21.4202 66.5096 21.0052 66.7407 20.7285Z" fill="var(--fill-0, #DB333E)"/>
</g>
</svg>
