<svg xmlns="http://www.w3.org/2000/svg" fill="none" viewBox="0 0 80 80">
  <g clip-path="url(#a)">
    <path fill="#fff" d="M0 12C0 5.373 5.373 0 12 0h56c6.627 0 12 5.373 12 12v56c0 6.627-5.373 12-12 12H12C5.373 80 0 74.627 0 68V12Z"/>
    <path fill="#FFCEBD" d="M69.488 33.218C72.534 31.62 76.7 33.59 80 35.987V80H0V41.504c5.437.303 8.855 3.44 10.79 7.156 2.14-1.116 6.977-.651 9.768 2.977 4.986-6.4 13.178-3.287 16.651-.93 1.892-4.063 6.94-11.591 12-9.21 8.26-6.4 14.543.558 16.651 4.837-.682-3.38-.911-10.735 3.628-13.116ZM12 23.45c.186-1.736 1.544-5.041 5.488-4.372 4.93.838 5.582 8.187 5.396 12.28-.15 3.274-1.179 6.015-1.675 6.976-.65 0-3.628-1.86-7.907-2.883-4.279-1.024-7.349-3.814-7.442-7.814-.074-3.2 4.062-4.124 6.14-4.186Z"/>
    <path fill="#FFA383" d="M80 80H0v-1.56c4.79-4.716 6.223-7.142 10.977-6.896 4.316.223 8.248 4.124 9.674 6.046.434-1.395 1.954-4.558 4.558-6.046C17.674 65.869 17.07 51.86 34 58c16.93 6.14 19.581-.038 22-3.666 2.419-3.627 9.023-2.604 14.512-.744 1.265-1.116 4.186-1.891 5.488-2.14-1.92-4.814-3.626-15.7 4-22.383V80ZM62.14 5.125c2.604-1.581 5.86-.093 7.162 2.046 3.628-.558 5.816.421 6.698 2.698 1.116 2.884-1.023 6.14-4.372 6.977-3.349.837-5.21 1.21-6.419 1.767-1.209.559-3.22 2.326-3.72 1.675-.524-.68-1.024-1.489-.559-3.256.465-1.767-1.023-4.372-1.116-6.046-.093-1.675-.28-4.28 2.325-5.86Z"/>
    <path fill="#15E1FF" d="M18.394 7.64a5.782 5.782 0 0 1-.079-1.65c.149-1.484.92-2.77 2.04-3.728a5.444 5.444 0 0 1 1.511-.917 5.484 5.484 0 0 1 2.582-.363 6.618 6.618 0 0 1 1.313.001c.48-.038.96-.012 1.434.064h2.665c.494 0 .979.083 1.46.187 1.176-.24 2.356-.31 3.557-.292.834.013 1.834.062 2.481.154.129.015.259.02.388.02.945-.181 1.893-.135 2.8-.024 1.327-.014 2.637.49 3.658 1.328.854.463 1.578 1.114 2.41 1.608 1.205.33 2.221 1.064 3.077 1.955.517.26.98.602 1.407.992 1.04.75 2.068 1.616 2.92 2.581.286.16.56.342.82.539 1.022.768 2.024 1.688 2.7 2.785.642 1.045.969 2.26.844 3.49.062.874.11 1.761-.024 2.632-.01.886.01 1.775.063 2.66a9.378 9.378 0 0 1-.013 3.406 5.84 5.84 0 0 1-.033.92l.001.006c.125 1.065.014 2.148-.004 3.217.064.349.115.7.16 1.052.04.332.143 1.164.143 1.643v2.49a5.415 5.415 0 0 1-.235 3.973c-.818 1.759-2.57 3.19-4.457 3.67.63.536 1.242 1.094 1.874 1.627a5.27 5.27 0 0 1 1.845 2.432 5.19 5.19 0 0 1 .938 2.342c.02.152.03.302.038.45.147.739.011 1.488.021 2.234.098.5.131 1.009.148 1.517.01.33.012.657.012.863.008.044.052 1.045.035 1.418a6.002 6.002 0 0 1-.08.736v.11l-.007.235c.064.4.121.988.005 1.731a6.51 6.51 0 0 1-.057.793c.023.457.058.914.088 1.371.056.881.043 1.771.052 2.653l.002.13c.008.758.016 1.517-.013 2.274-.024.613-.138 1.209-.227 1.814.123.705.135 1.425.121 2.138-.015.849-.053 1.71-.233 2.542a6.647 6.647 0 0 1-.314 2.504c-.73 2.189-2.887 3.79-5.158 4.036a5.86 5.86 0 0 1-2.191.248 5.462 5.462 0 0 1-1.4.11c-.848.184-1.73.328-2.598.328-.774 0-1.55-.144-2.298-.337a5.744 5.744 0 0 1-1.842-.159 8.679 8.679 0 0 1-2.437-.095 5.86 5.86 0 0 1-.955-.037 5.774 5.774 0 0 1-1.282-.055 5.209 5.209 0 0 1-1.878-.32 8.106 8.106 0 0 1-1.908-.333 5.63 5.63 0 0 1-3.764-2.107 59.637 59.637 0 0 1-3.023-2.368c-1.224-1.02-2.589-1.888-3.75-2.982-1.173-.564-2.27-1.521-3.19-2.44-.96-.96-2.057-2.532-2.057-3.942 0-1-.168-3.995-.168-3.995.284-3.84 3.602-5.258 6.957-5.013.012-.29.026-.58.062-.868-.106-1.026-.172-2.019-.072-3.051.025-.255.06-.548.103-.843-.678-.25-1.374-.445-2.053-.693-1.972-.28-3.925-1.654-4.824-3.452l-.001-.001c-.544-1.09-.63-2.304-.448-3.49-.172-2.48-.172-4.97-.172-7.455v-.034c0-2.066.018-4.171.222-6.23.074-.74.184-1.476.25-2.216.002-.02.002-.016 0 .005-.023.363.05-.728.086-1.09 0-4.08-.092-8.158-.093-12.236 0-.394.032-.788.054-1.181.032-.56.058-1.123.077-1.684.01-.325-.068-.665-.077-.994-.012-.446-.005-.893-.01-1.34Z"/>
    <path fill="#065E6A" d="M24.093 44.093c-.372 0-1.023-.558-1.116-.744L40.93 6.232c.248.186.763.559.837.559.093 0 1.489 1.023 1.768 1.209.279.186 1.302.837 1.674.837.372 0 1.116.837 1.302 1.116.186.28.652.466.838.466.186 0 .558.465.744.558.186.093 1.953 1.581 2.232 1.953.28.372.745.837 1.117.93.372.093 1.488 1.21 1.581 1.303.093.093.465.558.372.744-.093.186 0 .744 0 .837 0 .093.093 1.395 0 1.581-.093.187 0 4 .093 4.187.093.186.093 1.86-.093 1.86s.093.837 0 1.116c-.093.28-.093.837 0 1.024.093.186-.093 3.162 0 3.348.093.186.28 1.86.28 2.047v3.349c0 .186.278.65.278.837 0 .186-.279.558-.465.651-.186.093-.558.465-.837.465-.28 0-.93.186-1.116.186-.186 0-.744-.186-1.117-.186-.372 0-.465.372-1.023.372-.558 0-1.488-.279-1.767-.186-.28.093-1.675 0-1.86 0-.187 0-.652.372-.745.28-.074-.075-.465-.218-.651-.28.03.155.093.502.093.651 0 .186-.093 2.233 0 2.326.093.093 1.767 1.767 1.953 1.86.187.093 2.791 2.605 3.07 2.605.28 0 .651.558.93.744.28.186 2.326 2.047 2.512 2.14.186.093.186.93.28 1.023.092.093.557.186.464.465-.093.28.186.651.093.837-.093.186-.093 1.768 0 1.954.093.186.093 1.395.093 1.674 0 .28.093 1.117 0 1.21-.093.093 0 1.116-.093 1.302-.093.186.186.558.093.837-.093.28 0 .837-.093.93-.093.093.093 2.233.093 2.419 0 .186.093 4.186 0 4.744-.093.558-.372 2.047-.186 2.326.186.279.093 2.418 0 2.883-.093.466-.279.93-.186 1.117.093.186.093.65 0 .93-.093.279-.651.651-1.023.651-.372 0-.651-.093-.744.093-.093.186-.651.186-.93 0-.28-.186-.559 0-.838.186-.279.186-.744-.186-1.023 0-.279.186-1.767.372-2.047.372-.279 0-1.302-.186-1.58-.372-.28-.186-1.117.186-1.396 0-.28-.186-.837-.279-1.116-.186-.28.093-1.303.186-1.768 0-.465-.186-1.023.093-1.21-.093-.185-.186-.464-.093-.65 0s-.558 0-.652-.093c-.093-.093-.558.186-.65 0-.094-.186-.745-.372-.93-.279-.187.093-1.117 0-1.396-.186-.28-.186-.837.093-1.117-.372-.279-.465-1.116-1.023-1.395-1.21-.279-.185-1.767-1.395-2.326-1.86-.558-.465-3.255-2.511-3.534-2.79-.28-.28-.93-.745-1.21-.838-.279-.093-1.674-1.302-1.86-1.488-.149-.149-.496-.682-.651-.93l7.256-2.605V46.884c-.218-.342-.707-1.024-.93-1.024-.28 0-.745-.279-.931-.372-.186-.093-.465-.279-.651-.279s-.93-.093-1.116-.186c-.186-.093-1.117-.372-1.675-.558-.558-.186-.93-.372-1.302-.372Z"/>
    <path fill="#ED145B" d="M23.349 6.884c-.093-.279-.093-.558.093-.651.093-.081.186-.28.465-.28.28 0 .465.187.651.094s.372-.093.651-.093c.28 0 .558.279.745.093.186-.186.65 0 .837 0h3.07c.186 0 1.116.279 1.58.23.466-.05.373-.044 1.303-.23.93-.186 3.256-.093 3.907 0 .651.093 1.675.093 1.954 0 .279-.093.837 0 1.209 0 .372 0 .465.186.651.093s.372 0 .558.137c.186.136.186.514.093.7-.093.186 0 1.116-.093 1.395-.093.28 0 1.117 0 1.303 0 .186-.279 1.581-.093 1.767.186.186 0 1.489.093 2.047s0 2.79 0 3.255c0 .466-.093 2.884-.186 3.256-.093.372.057 1.86-.093 2.419-.15.558-.186 2.14-.186 2.512 0 .372.093.744 0 .837-.093.093-.186.837-.093 1.116.093.28.093.558 0 .744-.093.186-.186.558-.465.558s-1.395-.093-1.86-.093c-.465 0-.93.28-1.303.28-.372 0-1.209-.373-1.488-.28-.28.093-1.86.186-2.047 0-.186-.186-1.302 0-1.488-.093-.149-.074-.434.031-.558.093a3.494 3.494 0 0 0-.093.745c0 .372.186 1.023.186 1.488 0 .465-.093 2.605 0 2.698.093.093.093 2.325 0 2.604-.093.28 0 1.023 0 1.396 0 .372-.186.837 0 .93.186.093-.186 1.116 0 1.116s1.023.093 2.14 0c1.116-.093 2.976 0 3.72 0 .745 0 .745.093 1.117 0s1.767 0 2.046 0c.28 0 .558.28.558.558 0 .28.093 2.698 0 2.977-.093.28-.279 1.116-.093 1.302.186.186.093.559.186 1.21.093.65.093 3.442.093 3.72v6.047c0 3.721-.186 6.977-.186 7.256 0 .279.093.93-.093 1.023-.186.093-.744.651-1.488.651s-.837-.093-1.116-.093c-.28 0-.745.186-1.303.186h-4.186c-.93 0-1.302-.186-2.046-.186-.744 0-3.442 0-4.093-.186-.651-.186-1.489-.186-2.14-.093s-.93-.186-1.116-.744c-.186-.558.093-2.047 0-2.419-.093-.372 0-.837.186-.837s1.581 0 1.767.093c.186.093 3.721 0 4.186 0 .466 0 .559-.186.652-.279.093-.093.093-.372.093-.465 0-.093 0-4.279.093-4.651.093-.372 0-1.116-.093-1.768-.093-.65.093-2.046.186-2.418.093-.372 0-2.605-.093-2.884-.093-.279-.186-2.79-.186-2.977 0-.186-.652-.372-.93-.372-.28 0-1.861.186-2.698.186-.838 0-1.954-.372-2.419-.279-.465.093-1.023-.093-1.116-.279-.093-.186.186-1.116.093-1.395-.093-.28 0-2.419-.093-2.605-.093-.186-.093-3.535-.093-4.744 0-1.21.186-5.395.186-5.581 0-.186.279-2.326.279-2.605 0-.28.093-1.023.093-1.116V18.14c0-.28-.093-5.116-.093-5.302 0-.186.093-1.582.093-1.86 0-.28.093-1.396 0-1.675-.093-.28 0-2.14-.093-2.419Z"/>
  </g>
  <defs>
    <clipPath id="a">
      <path fill="#fff" d="M0 12C0 5.373 5.373 0 12 0h56c6.627 0 12 5.373 12 12v56c0 6.627-5.373 12-12 12H12C5.373 80 0 74.627 0 68V12Z"/>
    </clipPath>
  </defs>
</svg>
