<svg xmlns="http://www.w3.org/2000/svg" fill="none" viewBox="0 0 80 80">
  <path fill="#EDF9F9" d="M0 12C0 5.373 5.373 0 12 0h56c6.627 0 12 5.373 12 12v56c0 6.627-5.373 12-12 12H12C5.373 80 0 74.627 0 68V12Z"/>
  <path fill="#A0E8EA" d="M40 62.655v-45.31C40 13.288 43.358 10 47.5 10c4.142 0 7.5 3.288 7.5 7.345v45.31C55 66.712 51.642 70 47.5 70c-4.142 0-7.5-3.288-7.5-7.345Z"/>
  <path fill="#2B2E83" d="M25 62.655v-45.31C25 13.288 28.358 10 32.5 10c4.142 0 7.5 3.288 7.5 7.345v45.31C40 66.712 36.642 70 32.5 70c-4.142 0-7.5-3.288-7.5-7.345Z"/>
  <path fill="#A0E8EA" d="M44.74 40c4.01 0 7.26 3.358 7.26 7.5 0 4.142-3.25 7.5-7.26 7.5H24.26C20.25 55 17 51.642 17 47.5c0-4.142 3.25-7.5 7.26-7.5h20.48Z"/>
  <path fill="#2B2E83" d="M54.548 25C58.664 25 62 28.358 62 32.5c0 4.142-3.336 7.5-7.452 7.5H34.452C30.336 40 27 36.642 27 32.5c0-4.142 3.336-7.5 7.452-7.5h20.096Z"/>
</svg>
