<svg preserveAspectRatio="xMidYMid meet" width="100%" height="100%" overflow="visible" style="display: block;" viewBox="0 0 80 79.0606" fill="none" xmlns="http://www.w3.org/2000/svg">
<g id="Logo">
<g id="Intersect">
<path d="M69.4884 32.279C72.534 30.6813 76.699 32.651 80 35.0475V79.0606H0V40.5644C5.43687 40.8678 8.85496 44.0042 10.7907 47.7208C12.9302 46.6046 17.7674 47.0697 20.5581 50.6976C25.5442 44.2976 33.7364 47.4107 37.2093 49.7673C39.1008 45.7053 44.1488 38.1767 49.2093 40.558C57.4697 34.1581 63.7519 41.1162 65.8605 45.3952C65.1783 42.0154 64.9489 34.6604 69.4884 32.279Z" fill="var(--fill-0, #FFCEBD)"/>
<path d="M12 22.5115C12.1861 20.7751 13.5442 17.4697 17.4884 18.1394C22.4186 18.9766 23.0698 26.3255 22.8837 30.4185C22.7349 33.6929 21.7054 36.434 21.2093 37.3952C20.5581 37.3952 17.5814 35.5348 13.3023 34.5115C9.02326 33.4883 5.95349 30.6976 5.86047 26.6976C5.78607 23.4976 9.92249 22.5735 12 22.5115Z" fill="var(--fill-0, #FFCEBD)"/>
</g>
<g id="Intersect_2">
<path d="M80 79.0605H0V77.501C4.79093 72.7847 6.22296 70.3588 10.9767 70.6047C15.293 70.828 19.2248 74.7287 20.6512 76.6512C21.0853 75.2559 22.6047 72.0931 25.2093 70.6047C17.6744 64.9303 17.0698 50.9211 34 57.0607C50.9301 63.2002 53.5814 57.0233 56 53.3954C58.4186 49.7675 65.0233 50.7907 70.5116 52.6512C71.7767 51.5349 74.6977 50.7597 76 50.5117C74.0801 45.6971 72.374 34.8105 80 28.1281V79.0605Z" fill="var(--fill-0, #FFA383)"/>
<path d="M62.1395 4.18609C64.7442 2.60471 68 4.09291 69.3023 6.23242C72.9302 5.67428 75.1185 6.65305 76 8.93009C77.1163 11.8138 74.9767 15.0696 71.6279 15.9068C68.2791 16.744 66.4186 17.1161 65.2093 17.6743C64 18.2324 61.9897 19.9994 61.4884 19.3489C60.965 18.6695 60.4652 17.8605 60.9302 16.0931C61.3953 14.3257 59.907 11.721 59.814 10.0466C59.7209 8.37214 59.5349 5.76748 62.1395 4.18609Z" fill="var(--fill-0, #FFA383)"/>
</g>
<path id="Union" d="M18.3935 6.69992C18.3061 6.2358 18.2531 5.67458 18.3154 5.05148C18.4639 3.56639 19.2345 2.28132 20.3554 1.32297C20.7115 1.01853 21.2109 0.669128 21.8662 0.405977C22.7069 0.0683841 23.5873 -0.0402273 24.4482 0.0426955C24.8827 2.08691e-05 25.326 -0.000636395 25.7607 0.0436721C26.2406 0.00558836 26.7206 0.0311059 27.1953 0.107149H29.8603C30.354 0.107149 30.8384 0.190599 31.3193 0.294649C32.4955 0.054759 33.6762 -0.0152585 34.8769 0.00265647C35.7114 0.0151098 36.7109 0.0644601 37.3583 0.156953C37.4869 0.171675 37.6167 0.175806 37.746 0.176485C38.691 -0.00463617 39.6393 0.0417784 40.5458 0.153047C41.8726 0.138091 43.1832 0.643241 44.204 1.4802C45.0579 1.94356 45.7816 2.59493 46.6132 3.08859C47.819 3.41776 48.8352 4.15206 49.6913 5.04367C50.2081 5.30447 50.6716 5.64527 51.0976 6.03586C52.1378 6.78621 53.1655 7.65143 54.0185 8.61691C54.3042 8.77694 54.5772 8.95818 54.8388 9.155C55.8603 9.92348 56.8622 10.8436 57.537 11.9402C58.1801 12.9852 58.5067 14.2007 58.3818 15.4304C58.4438 16.305 58.4925 17.1918 58.3583 18.0622C58.348 18.9487 58.3679 19.8373 58.4208 20.7224C58.6309 21.8385 58.614 23.0126 58.4081 24.1286C58.421 24.4368 58.4104 24.7421 58.3749 25.0486L58.3759 25.0544C58.5011 26.1193 58.3895 27.2021 58.372 28.2712C58.436 28.6206 58.4871 28.9714 58.5312 29.3239C58.5726 29.6552 58.6746 30.4875 58.6747 30.9665V33.4568C59.102 34.764 59.0216 36.1797 58.4404 37.4294C57.6221 39.1886 55.8702 40.6189 53.9833 41.0993C54.6132 41.6356 55.2246 42.1934 55.8574 42.7263C56.701 43.3315 57.3385 44.1896 57.7021 45.1589C58.1236 45.7431 58.5077 46.5301 58.6396 47.5007C58.6602 47.6523 58.6706 47.8022 58.6777 47.9499C58.8247 48.6894 58.689 49.439 58.6992 50.1843C58.7965 50.6843 58.8302 51.1935 58.8466 51.7019C58.8573 52.0316 58.8588 52.3587 58.8592 52.5644C58.867 52.6087 58.9114 53.6094 58.8945 53.9822C58.8882 54.1197 58.8701 54.3899 58.8134 54.7185C58.8133 54.754 58.8138 54.7914 58.8134 54.8288C58.8127 54.894 58.8093 54.9742 58.8066 55.0632C58.8708 55.4638 58.9282 56.0518 58.8124 56.7947C58.8086 57.0608 58.791 57.324 58.7548 57.5876C58.7781 58.0451 58.8134 58.5017 58.8427 58.9587C58.8992 59.8396 58.8861 60.7298 58.8954 61.612L58.8968 61.7418C58.905 62.4993 58.9132 63.2583 58.8837 64.0154C58.8598 64.6287 58.7455 65.2244 58.6572 65.8298C58.78 66.5342 58.7915 67.2544 58.7783 67.9675C58.7625 68.8162 58.7253 69.6779 58.5449 70.5095C58.5969 71.3531 58.4989 72.2106 58.2314 73.0134C57.5018 75.2022 55.344 76.8033 53.0732 77.0495C52.3653 77.2731 51.6207 77.3514 50.8818 77.2976C50.3284 77.4149 49.8416 77.4256 49.4814 77.4079C48.6339 77.5912 47.7512 77.7351 46.8837 77.7351C46.11 77.7351 45.3337 77.5912 44.5859 77.3982C43.9666 77.4416 43.3454 77.3953 42.7441 77.24C41.9314 77.3152 41.1099 77.2985 40.3066 77.1443C39.987 77.1579 39.67 77.1465 39.3525 77.1071C38.799 77.1454 38.3463 77.0955 38.0703 77.0525C37.4299 77.0614 36.7942 76.9553 36.1923 76.7331C35.5466 76.695 34.9028 76.5897 34.2841 76.3991C32.8063 76.2198 31.4391 75.4713 30.5204 74.2927C29.4852 73.5372 28.4821 72.7454 27.497 71.9245C26.2732 70.9048 24.9083 70.0363 23.747 68.9431C22.5739 68.3788 21.4761 67.4212 20.5576 66.5027C19.5976 65.5426 18.5 63.9709 18.5 62.5607C18.5 61.5607 18.332 58.5652 18.332 58.5652C18.6161 54.7254 21.9335 53.3074 25.289 53.5525C25.3008 53.2619 25.3148 52.9733 25.3505 52.6843C25.2453 51.659 25.1785 50.666 25.2792 49.6335C25.3041 49.3782 25.3389 49.0854 25.3818 48.7907C24.704 48.5407 24.0076 48.3452 23.329 48.0974C21.3569 47.8169 19.4038 46.4433 18.5048 44.6452L18.5038 44.6443C17.9598 43.5552 17.8746 42.3405 18.0556 41.154C17.8837 38.6742 17.8837 36.1846 17.8837 33.6998V33.6657C17.8837 31.5998 17.9021 29.4941 18.1064 27.4362C18.1799 26.6963 18.2903 25.9601 18.3564 25.2195C18.3582 25.1987 18.3578 25.2032 18.3564 25.2243C18.3325 25.588 18.4051 24.497 18.4423 24.1345C18.4423 20.0554 18.3495 15.9764 18.3486 11.8982C18.3486 11.5047 18.3808 11.1102 18.4033 10.7175C18.4353 10.157 18.4607 9.5951 18.4794 9.03391C18.4903 8.70817 18.412 8.36827 18.4033 8.03977C18.3914 7.59325 18.3977 7.14653 18.3935 6.69992Z" fill="var(--fill-0, #15E1FF)"/>
<path id="Vector" d="M24.093 43.1537C23.7209 43.1537 23.0698 42.5955 22.9767 42.4095L40.9302 5.29321C41.1783 5.47926 41.693 5.85135 41.7674 5.85135C41.8605 5.85135 43.2558 6.87461 43.5349 7.06065C43.814 7.2467 44.8372 7.89786 45.2093 7.89786C45.5814 7.89786 46.3256 8.73507 46.5116 9.01414C46.6977 9.29321 47.1628 9.47926 47.3488 9.47926C47.5349 9.47926 47.907 9.94438 48.093 10.0374C48.2791 10.1304 50.0465 11.6188 50.3256 11.9909C50.6047 12.363 51.0698 12.8281 51.4419 12.9211C51.814 13.0141 52.9302 14.1304 53.0233 14.2234C53.1163 14.3165 53.4884 14.7816 53.3954 14.9676C53.3023 15.1537 53.3954 15.7118 53.3954 15.8048C53.3954 15.8979 53.4884 17.2002 53.3954 17.3862C53.3023 17.5723 53.3954 21.3862 53.4884 21.5723C53.5814 21.7583 53.5814 23.4327 53.3954 23.4327C53.2093 23.4327 53.4884 24.27 53.3954 24.549C53.3023 24.8281 53.3023 25.3862 53.3954 25.5723C53.4884 25.7583 53.3023 28.7351 53.3954 28.9211C53.4884 29.1072 53.6744 30.7816 53.6744 30.9676V34.3165C53.6744 34.5025 53.9535 34.9676 53.9535 35.1537C53.9535 35.3397 53.6744 35.7118 53.4884 35.8048C53.3023 35.8979 52.9302 36.27 52.6512 36.27C52.3721 36.27 51.7209 36.456 51.5349 36.456C51.3488 36.456 50.7907 36.27 50.4186 36.27C50.0465 36.27 49.9535 36.642 49.3954 36.642C48.8372 36.642 47.907 36.363 47.6279 36.456C47.3488 36.549 45.9535 36.456 45.7674 36.456C45.5814 36.456 45.1163 36.8281 45.0233 36.7351C44.9488 36.6607 44.5581 36.518 44.3721 36.456C44.4031 36.611 44.4651 36.9583 44.4651 37.1072C44.4651 37.2932 44.3721 39.3397 44.4651 39.4327C44.5581 39.5258 46.2326 41.2002 46.4186 41.2932C46.6047 41.3862 49.2093 43.8979 49.4884 43.8979C49.7674 43.8979 50.1395 44.456 50.4186 44.642C50.6977 44.8281 52.7442 46.6886 52.9302 46.7816C53.1163 46.8746 53.1163 47.7118 53.2093 47.8048C53.3023 47.8979 53.7674 47.9909 53.6744 48.27C53.5814 48.549 53.8605 48.9211 53.7674 49.1072C53.6744 49.2932 53.6744 50.8746 53.7674 51.0606C53.8605 51.2467 53.8605 52.456 53.8605 52.7351C53.8605 53.0141 53.9535 53.8513 53.8605 53.9444C53.7674 54.0374 53.8605 55.0606 53.7674 55.2467C53.6744 55.4327 53.9535 55.8048 53.8605 56.0839C53.7674 56.363 53.8605 56.9211 53.7674 57.0141C53.6744 57.1072 53.8605 59.2467 53.8605 59.4327C53.8605 59.6188 53.9535 63.6188 53.8605 64.1769C53.7674 64.7351 53.4884 66.2234 53.6744 66.5025C53.8605 66.7816 53.7674 68.9211 53.6744 69.3862C53.5814 69.8513 53.3954 70.3165 53.4884 70.5025C53.5814 70.6886 53.5814 71.1537 53.4884 71.4327C53.3954 71.7118 52.8372 72.0839 52.4651 72.0839C52.093 72.0839 51.814 71.9909 51.7209 72.1769C51.6279 72.363 51.0698 72.363 50.7907 72.1769C50.5116 71.9909 50.2326 72.1769 49.9535 72.363C49.6744 72.549 49.2093 72.1769 48.9302 72.363C48.6512 72.549 47.1628 72.7351 46.8837 72.7351C46.6047 72.7351 45.5814 72.549 45.3023 72.363C45.0233 72.1769 44.1861 72.549 43.907 72.363C43.6279 72.1769 43.0698 72.0839 42.7907 72.1769C42.5116 72.27 41.4884 72.363 41.0233 72.1769C40.5581 71.9909 40 72.27 39.814 72.0839C39.6279 71.8979 39.3488 71.9909 39.1628 72.0839C38.9767 72.1769 38.6047 72.0839 38.5116 71.9909C38.4186 71.8979 37.9535 72.1769 37.8605 71.9909C37.7674 71.8048 37.1163 71.6188 36.9302 71.7118C36.7442 71.8048 35.814 71.7118 35.5349 71.5258C35.2558 71.3397 34.6977 71.6188 34.4186 71.1537C34.1395 70.6886 33.3023 70.1304 33.0233 69.9444C32.7442 69.7583 31.2558 68.549 30.6977 68.0839C30.1395 67.6188 27.4419 65.5723 27.1628 65.2932C26.8837 65.0141 26.2326 64.549 25.9535 64.456C25.6744 64.363 24.2791 63.1537 24.093 62.9676C23.9442 62.8188 23.5969 62.2855 23.4419 62.0374L30.6977 59.4327V45.9444C30.4806 45.6033 29.9907 44.9211 29.7674 44.9211C29.4884 44.9211 29.0233 44.642 28.8372 44.549C28.6512 44.456 28.3721 44.27 28.186 44.27C28 44.27 27.2558 44.1769 27.0698 44.0839C26.8837 43.9909 25.9535 43.7118 25.3954 43.5258C24.8372 43.3397 24.4651 43.1537 24.093 43.1537Z" fill="var(--fill-0, #065E6A)"/>
<path id="Vector_2" d="M23.3488 5.94437C23.2558 5.6653 23.2558 5.38623 23.4418 5.2932C23.5349 5.21234 23.6279 5.01413 23.907 5.01413C24.1861 5.01413 24.3721 5.20018 24.5581 5.10717C24.7442 5.01416 24.9302 5.01413 25.2093 5.01413C25.4884 5.01413 25.7674 5.2932 25.9535 5.10717C26.1395 4.92113 26.6047 5.10717 26.7907 5.10717H29.8605C30.0465 5.10717 30.9768 5.38622 31.4419 5.33685C31.907 5.28748 31.814 5.2932 32.7442 5.10717C33.6744 4.92113 36 5.01414 36.6512 5.10717C37.3023 5.2002 38.3256 5.20018 38.6047 5.10717C38.8837 5.01415 39.4419 5.10717 39.814 5.10717C40.1861 5.10717 40.2791 5.2932 40.4651 5.20018C40.6512 5.10716 40.8372 5.20018 41.0233 5.33685C41.2093 5.47352 41.2093 5.85134 41.1163 6.03739C41.0233 6.22344 41.1163 7.15367 41.0233 7.43274C40.9302 7.71181 41.0233 8.54902 41.0233 8.73506C41.0233 8.92111 40.7442 10.3165 40.9302 10.5025C41.1163 10.6886 40.9302 11.9909 41.0233 12.549C41.1163 13.1072 41.0233 15.3397 41.0233 15.8048C41.0233 16.2699 40.9302 18.6886 40.8372 19.0606C40.7442 19.4327 40.8937 20.9211 40.7442 21.4792C40.5946 22.0374 40.5581 23.6188 40.5581 23.9909C40.5581 24.363 40.6512 24.7351 40.5581 24.8281C40.4651 24.9211 40.3721 25.6653 40.4651 25.9444C40.5581 26.2234 40.5581 26.5025 40.4651 26.6886C40.3721 26.8746 40.2791 27.2467 40 27.2467C39.7209 27.2467 38.6047 27.1537 38.1395 27.1537C37.6744 27.1537 37.2093 27.4327 36.8372 27.4327C36.4651 27.4327 35.6279 27.0606 35.3488 27.1537C35.0698 27.2467 33.4884 27.3397 33.3023 27.1537C33.1163 26.9676 32 27.1537 31.814 27.0606C31.6651 26.9862 31.3799 27.0917 31.2558 27.1537C31.2248 27.2777 31.1628 27.6002 31.1628 27.8979C31.1628 28.2699 31.3488 28.9211 31.3488 29.3862C31.3488 29.8513 31.2558 31.9909 31.3488 32.0839C31.4419 32.1769 31.4419 34.4095 31.3488 34.6886C31.2558 34.9676 31.3488 35.7118 31.3488 36.0839C31.3488 36.456 31.1628 36.9211 31.3488 37.0141C31.5349 37.1072 31.1628 38.1304 31.3488 38.1304C31.5349 38.1304 32.3721 38.2234 33.4884 38.1304C34.6047 38.0374 36.4651 38.1304 37.2093 38.1304C37.9535 38.1304 37.9535 38.2234 38.3256 38.1304C38.6977 38.0374 40.093 38.1304 40.3721 38.1304C40.6512 38.1304 40.9302 38.4095 40.9302 38.6885C40.9302 38.9676 41.0233 41.3862 40.9302 41.6653C40.8372 41.9444 40.6512 42.7816 40.8372 42.9676C41.0233 43.1537 40.9302 43.5258 41.0233 44.1769C41.1163 44.8281 41.1163 47.6188 41.1163 47.8979V53.9444C41.1163 57.6653 40.9302 60.9211 40.9302 61.2002C40.9302 61.4792 41.0233 62.1304 40.8372 62.2234C40.6512 62.3165 40.093 62.8746 39.3488 62.8746C38.6047 62.8746 38.5116 62.7816 38.2326 62.7816C37.9535 62.7816 37.4884 62.9676 36.9302 62.9676H32.7442C31.814 62.9676 31.4419 62.7816 30.6977 62.7816C29.9535 62.7816 27.2558 62.7816 26.6047 62.5955C25.9535 62.4095 25.1163 62.4095 24.4651 62.5025C23.814 62.5955 23.5349 62.3165 23.3488 61.7583C23.1628 61.2002 23.4419 59.7118 23.3488 59.3397C23.2558 58.9676 23.3488 58.5025 23.5349 58.5025C23.7209 58.5025 25.1163 58.5025 25.3023 58.5955C25.4884 58.6885 29.0233 58.5955 29.4884 58.5955C29.9535 58.5955 30.0465 58.4095 30.1395 58.3165C30.2326 58.2234 30.2326 57.9444 30.2326 57.8513C30.2326 57.7583 30.2326 53.5723 30.3256 53.2002C30.4186 52.8281 30.3256 52.0839 30.2326 51.4327C30.1395 50.7816 30.3256 49.3862 30.4186 49.0141C30.5116 48.642 30.4186 46.4095 30.3256 46.1304C30.2326 45.8513 30.1395 43.3397 30.1395 43.1537C30.1395 42.9676 29.4884 42.7816 29.2093 42.7816C28.9302 42.7816 27.3488 42.9676 26.5116 42.9676C25.6744 42.9676 24.5581 42.5955 24.093 42.6885C23.6279 42.7816 23.0698 42.5955 22.9768 42.4095C22.8837 42.2234 23.1628 41.2932 23.0698 41.0141C22.9768 40.7351 23.0698 38.5955 22.9768 38.4095C22.8837 38.2234 22.8837 34.8746 22.8837 33.6653C22.8837 32.456 23.0698 28.2699 23.0698 28.0839C23.0698 27.8979 23.3488 25.7583 23.3488 25.4792C23.3488 25.2002 23.4418 24.456 23.4418 24.363V17.2002C23.4418 16.9211 23.3488 12.0839 23.3488 11.8979C23.3488 11.7118 23.4418 10.3165 23.4418 10.0374C23.4418 9.75832 23.5349 8.64204 23.4418 8.36297C23.3488 8.0839 23.4418 6.22344 23.3488 5.94437Z" fill="var(--fill-0, #ED145B)"/>
</g>
</svg>
