<svg xmlns="http://www.w3.org/2000/svg" fill="none" viewBox="0 0 80 80">
  <path fill="#fff" d="M0 12C0 5.373 5.373 0 12 0h56c6.627 0 12 5.373 12 12v56c0 6.627-5.373 12-12 12H12C5.373 80 0 74.627 0 68V12Z"/>
  <path fill="#000" fill-rule="evenodd" d="M3.815 41.853V24.694h39.348V39.04h32.69v9.922H56.638v6.344h-12.91V52.52H21.62V41.852H3.815Z" clip-rule="evenodd"/>
  <path fill="#fff" fill-rule="evenodd" d="M54.696 41.647c.06 0 .106.045.136.135l.347 1.07-.005.003c.02.04.03.074.03.104s-.035.076-.104.136a1.87 1.87 0 0 1-.513.248 1.84 1.84 0 0 1-.542.083.977.977 0 0 1-.286-.03 2.801 2.801 0 0 0-.346-.076c.04.04.095.098.165.173a1.807 1.807 0 0 1 .384.715c.045.16.068.342.068.543 0 .482-.083.883-.249 1.204a2.04 2.04 0 0 1-.685.776 2.837 2.837 0 0 1-1.038.413 6.66 6.66 0 0 1-1.31.122h-.302c-.08 0-.153.002-.218.007a2.668 2.668 0 0 1-.203.007H49.8c-.29 0-.492.06-.603.18a.66.66 0 0 0-.165.467c0 .28.093.462.279.543.185.08.464.12.835.12h1.658c.34 0 .677.028 1.008.083.33.055.623.155.874.3.25.146.453.35.609.61.156.261.233.597.233 1.009 0 .482-.096.888-.286 1.22-.19.33-.456.6-.797.805a3.698 3.698 0 0 1-1.22.445c-.471.09-.989.135-1.551.135-1.275 0-2.234-.138-2.876-.414-.643-.276-.963-.786-.963-1.53 0-.33.057-.591.172-.781.115-.191.256-.34.423-.445.165-.105.34-.18.526-.225.186-.046.354-.083.505-.114v-.226c-.17-.04-.337-.077-.497-.112a1.29 1.29 0 0 1-.436-.182.863.863 0 0 1-.31-.368c-.075-.16-.112-.387-.112-.678 0-.24.04-.436.12-.587a.992.992 0 0 1 .34-.369 1.72 1.72 0 0 1 .504-.218c.181-.06.382-.11.603-.15-.15-.04-.316-.1-.497-.18a1.894 1.894 0 0 1-.948-1.009c-.111-.262-.165-.594-.165-.996 0-.532.082-.981.248-1.347.165-.367.398-.663.7-.889a2.81 2.81 0 0 1 1.1-.482 6.746 6.746 0 0 1 1.446-.142c.24 0 .45.006.625.021.175.015.336.039.481.069.145.03.284.062.414.097l.422.114c.16.03.351.045.572.045.25 0 .492-.03.723-.091.14-.04.276-.09.407-.15.13-.061.25-.115.361-.166a.35.35 0 0 1 .135-.045Zm-4.677 8.42a3.2 3.2 0 0 0-.443.03c-.145.02-.275.067-.39.136a.796.796 0 0 0-.278.287.923.923 0 0 0-.104.465c0 .412.172.68.517.806.345.125.818.19 1.418.19.24 0 .47-.016.69-.046.22-.03.415-.086.585-.166.17-.08.307-.191.412-.331.105-.142.157-.326.157-.557 0-.19-.035-.34-.105-.444a.685.685 0 0 0-.278-.242 1.179 1.179 0 0 0-.404-.105 5.028 5.028 0 0 0-.487-.023h-1.29Zm.562-7.153c-.562 0-.961.13-1.197.389-.236.258-.354.66-.354 1.208 0 .547.118.95.354 1.209.235.258.635.387 1.197.387s.964-.129 1.205-.387c.241-.259.361-.662.361-1.21 0-.546-.12-.949-.36-1.207-.242-.259-.644-.389-1.206-.389Zm-8.795-1.159c.732 0 1.386.096 1.868.286.482.19.858.467 1.13.828.26.341.439.75.534 1.227.095.477.143 1.032.143 1.664v.723a.423.423 0 0 1-.074.234c-.05.075-.132.113-.242.113h-5.044c0 .351.05.63.15.836.1.206.251.388.452.549.372.3.963.452 1.776.452.472 0 .885-.043 1.236-.129.351-.085.642-.163.873-.233a.17.17 0 0 1 .075-.015c.1 0 .17.07.211.211l.195.769c0 .01.003.02.008.03.005.01.007.025.007.045 0 .1-.06.176-.18.226-.262.11-.63.218-1.107.324a7.55 7.55 0 0 1-1.62.158c-.742 0-1.372-.076-1.889-.227-.517-.15-.941-.391-1.272-.723-.331-.33-.573-.755-.723-1.272-.15-.517-.227-1.148-.227-1.89 0-.703.056-1.318.166-1.845.11-.527.307-.964.588-1.31.281-.346.663-.605 1.145-.775.481-.17 1.09-.256 1.821-.256Zm.016 1.386c-.512 0-.887.08-1.122.24-.236.161-.394.433-.475.813-.05.211-.08.427-.09.648l-.031.708 3.373-.016c0-.24-.006-.466-.022-.677a3.58 3.58 0 0 0-.097-.617c-.1-.422-.269-.71-.505-.866-.236-.155-.58-.233-1.031-.233Z" clip-rule="evenodd"/>
  <path fill="#fff" d="M33.504 41.756c.461 0 .875.035 1.241.105.367.07.673.191.92.362.245.17.434.403.565.7.13.296.195.67.195 1.122v5.587l.002-.001c0 .15-.076.225-.227.225h-1.55c-.16 0-.242-.074-.242-.225v-5.316c0-.441-.095-.747-.285-.918-.19-.171-.487-.256-.889-.256-.23 0-.457.014-.677.044-.221.03-.422.061-.603.091-.21.04-.412.08-.602.12v6.236c0 .15-.077.225-.227.225H29.59c-.16 0-.241-.074-.241-.225v-5.317c0-.44-.091-.747-.272-.918-.18-.17-.472-.255-.873-.255-.23 0-.462.014-.692.044-.231.03-.438.061-.618.091-.221.04-.427.08-.618.12v6.235c0 .15-.076.226-.226.226h-1.535c-.171 0-.257-.075-.257-.226v-6.49c0-.291.082-.502.248-.633.165-.13.46-.25.88-.361a11.49 11.49 0 0 1 1.447-.279c.27-.035.542-.063.813-.083.27-.02.527-.03.768-.03.482 0 .889.048 1.22.143.33.096.597.224.798.384.1-.04.26-.09.481-.15.221-.06.472-.118.753-.173.28-.055.582-.103.903-.144.322-.04.634-.06.935-.06Z"/>
  <path fill="#fff" fill-rule="evenodd" d="M68.838 41.723c.555 0 .999.072 1.33.215.331.145.583.342.758.593.174.252.286.543.337.878.05.335.075.696.075 1.084 0 .382-.025.743-.075 1.08-.05.338-.163.63-.337.878a1.746 1.746 0 0 1-.758.587c-.331.144-.775.216-1.33.216s-.997-.072-1.324-.216a1.76 1.76 0 0 1-.754-.587 2.063 2.063 0 0 1-.341-.878 6.848 6.848 0 0 1-.081-1.08c0-.381.027-.75.08-1.084a2.11 2.11 0 0 1 .342-.878 1.75 1.75 0 0 1 .754-.593c.327-.143.769-.215 1.324-.215Zm0 .934c-.268 0-.477.04-.627.116a.709.709 0 0 0-.331.35c-.07.158-.113.35-.13.578a11.39 11.39 0 0 0-.025.792c0 .301.008.567.025.794.017.228.06.418.13.572.07.154.18.27.33.347.151.077.36.115.628.115.267 0 .477-.038.628-.115a.735.735 0 0 0 .336-.347c.073-.154.119-.344.135-.572.017-.227.026-.492.026-.794 0-.3-.009-.565-.025-.792a1.656 1.656 0 0 0-.136-.578.734.734 0 0 0-.336-.35c-.15-.078-.36-.116-.628-.116Z" clip-rule="evenodd"/>
  <path fill="#fff" d="M58.709 45.82c.06 0 .109.016.145.05a.16.16 0 0 1 .056.12v.963c0 .114-.067.171-.201.171h-1.194c-.134 0-.202-.057-.202-.17v-.965c0-.046.019-.087.056-.12a.207.207 0 0 1 .146-.05h1.194Zm4.649-4.097c.315 0 .593.024.833.07.242.048.445.128.613.242.167.114.293.269.377.466.083.197.125.447.125.748v3.725c0 .1-.052.15-.152.15h-1.033c-.107 0-.16-.05-.161-.15V43.43c0-.295-.059-.499-.176-.613-.117-.113-.31-.17-.577-.17-.154 0-.304.01-.451.03-.148.02-.282.04-.403.06-.14.027-.273.054-.4.081v4.156c0 .1-.051.15-.151.15h-1.025c-.113 0-.17-.05-.17-.15v-4.326c0-.195.055-.335.166-.422.11-.087.306-.167.587-.242a8.087 8.087 0 0 1 1.998-.261Z"/>
  <path fill="#fff" fill-rule="evenodd" d="M24.336 30.017c.733 0 1.386.096 1.867.286.481.19.858.466 1.129.827.26.341.44.752.534 1.228a8.59 8.59 0 0 1 .144 1.664v.723-.002c0 .08-.025.159-.075.234-.05.075-.13.113-.242.113H22.65c0 .351.05.63.15.836.1.206.251.388.452.549.371.3.964.452 1.777.452.472 0 .883-.044 1.235-.13.351-.084.643-.162.874-.232a.168.168 0 0 1 .075-.015c.1 0 .17.07.21.21l.197.77c0 .01.002.02.007.03a.1.1 0 0 1 .007.044c0 .101-.06.177-.18.227-.262.11-.631.217-1.107.323a7.543 7.543 0 0 1-1.619.16c-.742 0-1.373-.077-1.89-.227-.517-.15-.94-.392-1.272-.723-.33-.33-.573-.755-.723-1.272-.15-.517-.226-1.147-.226-1.89 0-.703.055-1.318.166-1.845.11-.526.306-.963.587-1.31.28-.346.663-.604 1.145-.774.481-.171 1.09-.256 1.822-.256Zm.016 1.383c-.512 0-.887.081-1.122.242-.236.16-.395.432-.475.812-.05.211-.08.427-.09.648l-.03.708 3.373-.016c0-.24-.007-.466-.022-.677a3.592 3.592 0 0 0-.098-.617c-.101-.422-.269-.71-.505-.866-.236-.156-.58-.234-1.031-.234Z" clip-rule="evenodd"/>
  <path fill="#fff" d="M11.645 30.015c.611 0 1.139.047 1.58.143.442.096.729.158.859.189.12.03.18.1.18.21 0 .02-.005.036-.015.047l-.15.903c-.01.05-.033.086-.068.105a.224.224 0 0 1-.113.03h-.06a19.515 19.515 0 0 0-.722-.136 8.335 8.335 0 0 0-1.22-.105c-.18 0-.36.013-.535.038a1.626 1.626 0 0 0-.482.143.92.92 0 0 0-.346.278c-.086.116-.128.269-.128.46 0 .21.047.376.142.496.095.12.218.214.368.28.15.065.322.112.517.142l.593.09c.3.05.595.114.885.189.29.075.552.195.787.36.234.166.425.398.57.693.145.296.218.691.218 1.183 0 .491-.087.9-.257 1.227a2.07 2.07 0 0 1-.7.783 2.903 2.903 0 0 1-1.04.414c-.396.08-.82.12-1.272.12-.33 0-.647-.017-.948-.052a9.827 9.827 0 0 1-1.453-.28 2.427 2.427 0 0 1-.354-.12c-.03-.02-.062-.04-.097-.06-.035-.02-.053-.07-.053-.15v-.075l.18-.859c.01-.11.066-.166.166-.166h.076l.285.076c.15.04.332.083.543.128.21.046.441.086.692.12.251.036.508.053.769.053.422 0 .77-.073 1.047-.219.275-.145.414-.398.414-.76 0-.22-.036-.393-.105-.519a.697.697 0 0 0-.301-.286 1.647 1.647 0 0 0-.475-.144 38.147 38.147 0 0 1-1.4-.256 2.649 2.649 0 0 1-.844-.33 2.036 2.036 0 0 1-.677-.693c-.186-.3-.28-.712-.28-1.234s.107-.974.32-1.296c.212-.321.478-.568.796-.739a3.17 3.17 0 0 1 1.044-.338 7.444 7.444 0 0 1 1.064-.083Zm6.248-3.222c.15 0 .225.08.225.241v9.095c0 .261.066.437.197.527.13.09.27.136.421.136.11 0 .211-.006.301-.016s.16-.024.211-.045h.06c.08 0 .136.05.167.15l.165.904v.046a.22.22 0 0 1-.054.158c-.035.036-.063.053-.083.053-.07.03-.216.072-.437.128-.22.055-.526.083-.918.083-.682 0-1.194-.176-1.536-.527-.34-.352-.511-.833-.511-1.446v-8.93c0-.17.08-.27.24-.3l1.491-.257h.06Zm13.641.753c.14 0 .211.08.211.241v2.425h2.153c.15 0 .227.075.227.226v1.024c0 .14-.076.21-.227.21h-2.153v4.172c0 .33.078.57.233.715.156.145.43.217.82.217.232 0 .447-.014.648-.045.201-.03.367-.06.497-.09h.06c.09 0 .147.055.167.165l.18.858c0 .02.002.033.007.038.005.005.007.018.007.038 0 .12-.06.196-.18.226-.13.04-.357.098-.678.174a5.408 5.408 0 0 1-1.204.113c-.863 0-1.509-.18-1.936-.542-.427-.361-.64-.97-.64-1.823v-7.755c0-.16.085-.265.256-.316l1.477-.271h.075Zm6.007 0c.14 0 .21.08.211.241v2.425h2.153c.15 0 .227.075.227.226v1.024c0 .14-.076.21-.227.21h-2.153v4.172c0 .33.078.57.233.715.156.145.43.217.822.217.23 0 .445-.014.646-.045.2-.03.367-.06.497-.09h.06c.09 0 .147.055.167.165l.18.858.001.001c0 .02.003.032.008.037.005.005.007.018.007.038 0 .12-.06.196-.18.226-.13.04-.357.098-.678.174a5.411 5.411 0 0 1-1.205.113c-.863 0-1.508-.18-1.935-.542-.427-.361-.64-.97-.64-1.823v-7.755c0-.16.085-.265.255-.316l1.477-.271h.074Z"/>
</svg>
