<svg preserveAspectRatio="xMidYMid meet" width="100%" height="100%" overflow="visible" style="display: block;" viewBox="0 0 72.0367 30.6108" fill="none" xmlns="http://www.w3.org/2000/svg">
<g id="Logo">
<path id="Vector" fill-rule="evenodd" clip-rule="evenodd" d="M0 17.1583V0H39.3473V14.3446H72.0367V24.2669H52.8235V30.6108H39.9139V27.8251H17.8034V17.1576H0V17.1583Z" fill="var(--fill-0, black)"/>
<g id="Union">
<path fill-rule="evenodd" clip-rule="evenodd" d="M50.8806 16.9523C50.9411 16.9523 50.9861 16.998 51.0164 17.088L51.363 18.1573L51.3582 18.1603C51.3782 18.2004 51.3884 18.2346 51.3884 18.2648C51.3884 18.295 51.3537 18.3408 51.2839 18.4005C51.1234 18.5114 50.952 18.5938 50.7712 18.6486C50.5906 18.704 50.4099 18.7316 50.2292 18.7316C50.099 18.7316 50.0029 18.7214 49.9431 18.7013C49.8826 18.6812 49.7676 18.6555 49.5974 18.6261C49.6377 18.6664 49.692 18.7242 49.7625 18.799C49.8322 18.8745 49.9029 18.972 49.9734 19.0929C50.0432 19.213 50.1016 19.3541 50.1462 19.5138C50.1916 19.6744 50.2146 19.8559 50.2146 20.0568C50.2145 20.5382 50.1311 20.9398 49.9656 21.2609C49.8 21.5827 49.5716 21.8404 49.28 22.0363C48.9886 22.2319 48.6427 22.3704 48.2419 22.4503C47.8402 22.531 47.403 22.5714 46.9314 22.5714H46.6306C46.5501 22.5714 46.4775 22.5739 46.4128 22.5782C46.3474 22.5833 46.2795 22.5861 46.2097 22.5861H45.9832C45.6925 22.5861 45.4914 22.6465 45.3806 22.7667C45.27 22.8868 45.2157 23.0421 45.2156 23.2325C45.2156 23.5133 45.3081 23.6949 45.4939 23.7755C45.6797 23.8561 45.9584 23.8956 46.3298 23.8956H47.9871C48.3281 23.8957 48.6639 23.924 48.9949 23.9786C49.3261 24.0341 49.6183 24.134 49.8689 24.2794C50.1192 24.4248 50.3228 24.6284 50.4783 24.8888C50.6338 25.1501 50.7117 25.4858 50.7117 25.8976C50.7117 26.3793 50.6156 26.7861 50.4255 27.1173C50.2348 27.4483 49.969 27.7171 49.6287 27.923C49.2875 28.1288 48.8804 28.2766 48.4089 28.3673C47.9373 28.4573 47.4195 28.5031 46.8572 28.5031C45.5824 28.503 44.6234 28.3647 43.9812 28.089C43.3382 27.8125 43.0183 27.3027 43.0183 26.5597C43.0184 26.2288 43.0751 25.9675 43.1902 25.7775C43.3054 25.5867 43.4467 25.4382 43.613 25.3331C43.7784 25.2275 43.9539 25.1529 44.1394 25.1075C44.3251 25.0622 44.4931 25.0245 44.6443 24.9943V24.7677C44.4737 24.7274 44.3077 24.6907 44.1472 24.6554C43.9868 24.6201 43.8419 24.5594 43.7117 24.4738C43.5806 24.3888 43.4777 24.2662 43.4021 24.1056C43.3265 23.945 43.2888 23.7187 43.2888 23.4279C43.2888 23.1868 43.3301 22.9921 43.4099 22.8409C43.4906 22.6905 43.6026 22.5668 43.7488 22.4718C43.8942 22.3768 44.0629 22.3044 44.2537 22.254C44.4343 22.1936 44.6352 22.1439 44.8562 22.1036C44.7057 22.0633 44.5398 22.0036 44.3591 21.923C44.1683 21.8323 43.9906 21.7073 43.825 21.546C43.6594 21.3855 43.521 21.1747 43.4109 20.9142C43.3 20.6528 43.2458 20.3208 43.2458 19.9191C43.2459 19.3872 43.3283 18.9378 43.4939 18.5714C43.6595 18.2051 43.8925 17.9088 44.1941 17.6827C44.495 17.4567 44.8617 17.2963 45.2937 17.2013C45.725 17.1063 46.2079 17.0587 46.74 17.0587C46.981 17.0587 47.1894 17.0651 47.365 17.0802C47.5405 17.0953 47.7011 17.1183 47.8464 17.1486C47.9918 17.1788 48.1303 17.211 48.2605 17.2462C48.3907 17.2815 48.5313 17.3192 48.6824 17.3595C48.8429 17.3897 49.0337 17.4044 49.2546 17.4044C49.5051 17.4044 49.7462 17.3741 49.9773 17.3136C50.1177 17.2733 50.2535 17.2237 50.3845 17.1632C50.5147 17.1028 50.6351 17.0485 50.7458 16.9982C50.8061 16.9681 50.8504 16.9524 50.8806 16.9523ZM46.2029 25.3732C46.0532 25.3732 45.9052 25.3833 45.7605 25.4034C45.6158 25.4236 45.4851 25.4693 45.3699 25.5392C45.2548 25.609 45.1623 25.7051 45.0925 25.8253C45.0229 25.9454 44.9881 26.1007 44.988 26.2911C44.988 26.7023 45.16 26.9715 45.5056 27.0968C45.8505 27.2221 46.3231 27.2863 46.9236 27.2863C47.1632 27.2862 47.3936 27.2706 47.613 27.2404C47.8326 27.2101 48.0281 27.1552 48.198 27.0753C48.3678 26.9954 48.505 26.8836 48.6101 26.7433C48.7151 26.6022 48.7673 26.4175 48.7673 26.1866C48.7673 25.996 48.7326 25.8474 48.6628 25.7423C48.593 25.6372 48.4997 25.5565 48.3845 25.5011C48.2694 25.4457 48.1349 25.41 47.9802 25.3956C47.8255 25.3805 47.6627 25.3732 47.4929 25.3732H46.2029ZM46.7654 18.2198C46.2038 18.2199 45.8043 18.3501 45.5681 18.6085C45.332 18.867 45.2146 19.2694 45.2146 19.8165C45.2146 20.3637 45.3327 20.767 45.5681 21.0255C45.8035 21.2839 46.2031 21.4132 46.7654 21.4132C47.3277 21.4132 47.7293 21.284 47.9705 21.0255C48.2116 20.767 48.3318 20.3636 48.3318 19.8165C48.3318 19.2695 48.2115 18.867 47.9705 18.6085C47.7293 18.35 47.327 18.2198 46.7654 18.2198Z" fill="var(--fill-0, white)"/>
<path fill-rule="evenodd" clip-rule="evenodd" d="M37.9705 17.0607C38.7027 17.0607 39.3562 17.1567 39.8386 17.3468C40.3202 17.5376 40.6968 17.8135 40.9675 18.1749C41.2288 18.5161 41.4069 18.925 41.5027 19.4015C41.5977 19.8788 41.6453 20.4335 41.6453 21.0656V21.7892C41.6453 21.8697 41.6206 21.9478 41.571 22.0226C41.5207 22.0981 41.4398 22.1358 41.3298 22.1359H36.2849C36.2849 22.4871 36.3352 22.7659 36.4353 22.9718C36.5354 23.1777 36.6866 23.3601 36.8875 23.5206C37.2589 23.8215 37.8504 23.9728 38.6638 23.9728C39.1354 23.9728 39.5478 23.9296 39.8992 23.8439C40.2503 23.759 40.5412 23.681 40.7722 23.6105C40.7923 23.6005 40.818 23.5958 40.8474 23.5958C40.9473 23.596 41.0181 23.6665 41.0583 23.8068L41.2537 24.5753C41.2537 24.5853 41.2565 24.5956 41.2615 24.6056C41.2664 24.6156 41.2683 24.6307 41.2683 24.6505C41.2683 24.7513 41.2079 24.8267 41.0876 24.8771C40.8263 24.9872 40.4577 25.0952 39.9812 25.2003C39.5046 25.3054 38.964 25.3585 38.3621 25.3585C37.6191 25.3585 36.9893 25.2824 36.4724 25.132C35.9555 24.9815 35.5311 24.7405 35.2 24.4093C34.8689 24.0782 34.6278 23.6543 34.4773 23.1368C34.3268 22.6199 34.2507 21.9893 34.2507 21.2462C34.2507 20.5436 34.3066 19.9285 34.4167 19.4015C34.5269 18.8746 34.7232 18.4382 35.0046 18.0919C35.2854 17.7458 35.6669 17.4871 36.1492 17.3165C36.6308 17.1459 37.2384 17.0607 37.9705 17.0607ZM37.9861 18.4464C37.4742 18.4464 37.0995 18.5271 36.864 18.6876C36.6279 18.8481 36.4701 19.1194 36.3894 19.5001C36.339 19.711 36.3087 19.9273 36.2986 20.1476C36.2885 20.3686 36.2784 20.605 36.2683 20.8556L39.6414 20.84C39.6413 20.599 39.635 20.374 39.6199 20.1632C39.6048 19.9523 39.5726 19.7468 39.5222 19.546C39.4214 19.1241 39.2535 18.836 39.0173 18.6798C38.7812 18.5244 38.438 18.4464 37.9861 18.4464Z" fill="var(--fill-0, white)"/>
<path d="M29.6882 17.0616C30.1494 17.0617 30.5632 17.0973 30.9294 17.1671C31.2959 17.2369 31.6022 17.3578 31.8484 17.5284C32.0946 17.699 32.2828 17.9321 32.4138 18.2286C32.5441 18.5253 32.6091 18.8993 32.6091 19.3507V24.9376L32.6111 24.9366C32.611 25.087 32.5349 25.1622 32.3845 25.1622H30.8337C30.6734 25.1621 30.5926 25.0876 30.5925 24.9366V19.6202C30.5925 19.1794 30.4972 18.8736 30.3074 18.7023C30.1166 18.5317 29.8204 18.4464 29.4187 18.4464C29.1876 18.4464 28.9613 18.4611 28.741 18.4913C28.52 18.5216 28.3191 18.5519 28.1384 18.5822C27.9276 18.6225 27.7266 18.6627 27.5359 18.7023V24.9376C27.5357 25.0878 27.4597 25.1632 27.3093 25.1632H25.7742C25.6138 25.1632 25.5331 25.0885 25.533 24.9376V19.6212C25.5329 19.18 25.4422 18.8736 25.2615 18.7023C25.0807 18.5319 24.7891 18.4474 24.3884 18.4474C24.1574 18.4474 23.9264 18.4621 23.696 18.4923C23.4649 18.5225 23.2586 18.5529 23.0779 18.5831C22.8571 18.6234 22.6513 18.6637 22.4607 18.7032V24.9376C22.4607 25.0881 22.3846 25.1642 22.2341 25.1642H20.699C20.5283 25.1642 20.4421 25.0888 20.4421 24.9376V18.4474C20.4422 18.1568 20.5247 17.9456 20.6902 17.8146C20.8558 17.6843 21.1499 17.5641 21.571 17.4532C21.7617 17.4029 21.9828 17.3532 22.2332 17.3029C22.4837 17.2525 22.7459 17.2102 23.0173 17.1749C23.2879 17.1397 23.5592 17.1121 23.8298 17.0919C24.1006 17.0718 24.3572 17.0616 24.5984 17.0616C25.0799 17.0617 25.487 17.1095 25.8181 17.2052C26.1492 17.3009 26.4152 17.4292 26.616 17.589C26.7161 17.5487 26.8766 17.499 27.0974 17.4386C27.3184 17.3781 27.5689 17.3205 27.8503 17.2657C28.1311 17.211 28.4326 17.1625 28.7537 17.1222C29.0748 17.0819 29.3873 17.0616 29.6882 17.0616Z" fill="var(--fill-0, white)"/>
<path fill-rule="evenodd" clip-rule="evenodd" d="M65.0222 17.0284C65.5773 17.0284 66.0211 17.1003 66.3523 17.2443C66.6835 17.3883 66.9359 17.5858 67.1101 17.837C67.2843 18.0883 67.3966 18.3802 67.447 18.715C67.4974 19.0496 67.5222 19.411 67.5222 19.799C67.5222 20.1806 67.4974 20.5413 67.447 20.879C67.3966 21.2173 67.2843 21.5094 67.1101 21.757C66.9359 22.0046 66.6834 22.2006 66.3523 22.3439C66.0211 22.4879 65.5773 22.5597 65.0222 22.5597C64.4674 22.5597 64.0255 22.4878 63.698 22.3439C63.3697 22.1999 63.1183 22.0039 62.9441 21.757C62.77 21.5094 62.6566 21.2164 62.6033 20.879C62.5493 20.5413 62.5222 20.1806 62.5222 19.799C62.5222 19.4175 62.5493 19.0496 62.6033 18.715C62.6565 18.3804 62.7701 18.0882 62.9441 17.837C63.1183 17.5865 63.3697 17.3883 63.698 17.2443C64.0255 17.1003 64.4673 17.0285 65.0222 17.0284ZM65.0222 17.963C64.7545 17.963 64.5457 18.002 64.3953 18.0782C64.245 18.1552 64.1347 18.2721 64.0642 18.4288C63.9936 18.5865 63.9509 18.7794 63.9343 19.007C63.9178 19.2343 63.9089 19.4983 63.9089 19.799C63.9089 20.0999 63.9178 20.3654 63.9343 20.5929C63.9509 20.8203 63.9944 21.0111 64.0642 21.1652C64.1348 21.3192 64.2448 21.4348 64.3953 21.5118C64.5457 21.5888 64.7553 21.627 65.0222 21.6271C65.2892 21.6271 65.499 21.5888 65.6501 21.5118C65.8006 21.4348 65.9126 21.3192 65.9861 21.1652C66.0595 21.0111 66.1053 20.8204 66.1218 20.5929C66.1384 20.3654 66.1472 20.1006 66.1472 19.799C66.1472 19.4983 66.1384 19.2343 66.1218 19.007C66.1053 18.7794 66.0595 18.5865 65.9861 18.4288C65.9119 18.2721 65.8005 18.1552 65.6501 18.0782C65.4997 18.0012 65.2901 17.963 65.0222 17.963Z" fill="var(--fill-0, white)"/>
<path d="M54.8933 21.1251C54.9537 21.1251 55.0021 21.1412 55.0388 21.1749C55.0754 21.2087 55.0944 21.2492 55.0945 21.295V22.2589C55.0945 22.3726 55.0272 22.4298 54.8933 22.4298H53.699C53.5651 22.4298 53.4978 22.3726 53.4978 22.2589V21.295C53.4979 21.2484 53.5162 21.2079 53.5535 21.1749C53.5902 21.1412 53.6386 21.1251 53.699 21.1251H54.8933Z" fill="var(--fill-0, white)"/>
<path d="M59.5427 17.0284C59.8573 17.0285 60.1353 17.0529 60.3757 17.0997C60.6168 17.1465 60.8203 17.2272 60.988 17.3409C61.155 17.4547 61.2815 17.6096 61.365 17.8068C61.4485 18.004 61.49 18.2533 61.49 18.5548V22.2794C61.4899 22.38 61.4386 22.4298 61.3386 22.4298H60.3054C60.1983 22.4298 60.1444 22.3792 60.1443 22.2794V18.7355C60.1443 18.441 60.0859 18.2369 59.9685 18.1232C59.8511 18.0095 59.6591 17.9523 59.3914 17.9523C59.2374 17.9523 59.087 17.9624 58.9402 17.9825C58.7926 18.0027 58.6588 18.0229 58.5378 18.0431C58.3975 18.0697 58.2638 18.0968 58.1365 18.1241V22.2794C58.1365 22.3802 58.0861 22.4298 57.9861 22.4298H56.9617C56.8482 22.4297 56.7917 22.3794 56.7917 22.2794V17.9532C56.7918 17.759 56.8467 17.6185 56.9568 17.5314C57.0669 17.4443 57.2632 17.3643 57.5447 17.2902C57.672 17.2564 57.8173 17.2234 57.9812 17.1896C58.1454 17.1565 58.3168 17.1277 58.4939 17.1046C58.6709 17.0809 58.8504 17.0626 59.031 17.049C59.2116 17.0353 59.3823 17.0284 59.5427 17.0284Z" fill="var(--fill-0, white)"/>
<path fill-rule="evenodd" clip-rule="evenodd" d="M20.5203 5.32239C21.2531 5.32241 21.9058 5.41846 22.3875 5.60852C22.8687 5.79923 23.245 6.07459 23.5164 6.43567C23.777 6.77695 23.9555 7.18754 24.0505 7.66418C24.1455 8.14065 24.1941 8.69543 24.1941 9.32727V10.0509L24.1951 10.049C24.1951 10.1296 24.1693 10.2075 24.1189 10.2823C24.0685 10.3578 23.9885 10.3956 23.8777 10.3956H18.8337C18.8338 10.7469 18.8841 11.0257 18.9841 11.2316C19.0841 11.4373 19.2347 11.6199 19.4353 11.7804C19.8068 12.0814 20.3998 12.2325 21.2126 12.2325C21.6841 12.2325 22.0957 12.1893 22.447 12.1036C22.7984 12.0187 23.0899 11.9408 23.321 11.8702C23.3411 11.8603 23.3663 11.8556 23.3962 11.8556C23.4963 11.8556 23.5669 11.9262 23.6072 12.0665L23.8035 12.8351C23.8035 12.8451 23.8053 12.8554 23.8103 12.8654C23.8153 12.8754 23.8171 12.8903 23.8171 12.9103C23.8171 13.0111 23.7567 13.0864 23.6365 13.1368C23.3751 13.2476 23.0064 13.3543 22.53 13.4601C22.0535 13.5652 21.5137 13.6193 20.9119 13.6193C20.1688 13.6193 19.5382 13.5432 19.0212 13.3927C18.5046 13.2422 18.0808 13.001 17.7498 12.67C17.4186 12.3388 17.1766 11.9145 17.0261 11.3976C16.8757 10.8807 16.8006 10.2508 16.8005 9.50793C16.8005 8.80525 16.8557 8.19023 16.9666 7.66321C17.0767 7.13629 17.2721 6.69992 17.5535 6.35364C17.8343 6.00732 18.2163 5.74889 18.698 5.57825C19.1797 5.40765 19.7874 5.32239 20.5203 5.32239ZM20.5359 6.70618C20.024 6.70618 19.6493 6.78683 19.4138 6.94739C19.1778 7.10793 19.0198 7.37925 18.9392 7.75989C18.8888 7.97079 18.8595 8.18709 18.8494 8.40735C18.8393 8.62839 18.8292 8.8648 18.8191 9.11536L22.1921 9.09973C22.1921 8.85896 22.1858 8.6336 22.1707 8.42297C22.1555 8.21217 22.1224 8.00724 22.072 7.80579C21.9712 7.38387 21.8033 7.09582 21.5671 6.93958C21.331 6.78418 20.9879 6.70618 20.5359 6.70618Z" fill="var(--fill-0, white)"/>
<path d="M7.82886 5.32043C8.44074 5.32045 8.9679 5.36824 9.40991 5.46399C9.85118 5.55973 10.138 5.62223 10.2683 5.65247C10.3882 5.68271 10.4488 5.75353 10.449 5.8634C10.449 5.88356 10.4434 5.89922 10.4333 5.9093L10.283 6.81262C10.2729 6.863 10.2508 6.89865 10.2156 6.91809C10.1803 6.93825 10.1426 6.94836 10.1023 6.94836H10.0417C10.0014 6.93828 9.91617 6.92082 9.78589 6.89563C9.65572 6.87046 9.50049 6.84281 9.32007 6.81262C9.13946 6.7824 8.94119 6.75758 8.72534 6.73743C8.50946 6.71728 8.30112 6.70716 8.10034 6.70715C7.91967 6.70715 7.74082 6.71979 7.56519 6.74426C7.38959 6.76945 7.22913 6.81731 7.08374 6.88782C6.93833 6.95836 6.82202 7.05097 6.73706 7.16614C6.65145 7.28124 6.6092 7.43454 6.60913 7.62512C6.60913 7.83608 6.65667 8.00195 6.75171 8.12219C6.84675 8.24243 6.96914 8.33597 7.1189 8.40149C7.26857 8.46693 7.44151 8.51385 7.63647 8.54407C7.83156 8.5743 8.02912 8.6044 8.22925 8.63391C8.52939 8.6843 8.82394 8.74753 9.11401 8.82239C9.40399 8.89797 9.66581 9.01824 9.90112 9.18372C10.1358 9.34926 10.326 9.58031 10.4714 9.8761C10.6162 10.172 10.6892 10.567 10.6892 11.0587C10.6891 11.5501 10.6022 11.9593 10.4324 12.2853C10.2618 12.6114 10.0288 12.8727 9.73218 13.0685C9.43626 13.2643 9.08984 13.4026 8.69312 13.4825C8.29643 13.5624 7.87205 13.6027 7.42065 13.6027C7.08973 13.6026 6.77386 13.5861 6.47241 13.5509C6.17145 13.5156 5.89736 13.4724 5.65112 13.422C5.40502 13.3716 5.19418 13.322 5.01929 13.2716C4.84369 13.2212 4.72556 13.1817 4.66577 13.1515C4.6356 13.1314 4.6033 13.1111 4.56812 13.0909C4.53284 13.0708 4.51538 13.0212 4.51538 12.9406V12.8654L4.69604 12.007C4.70611 11.8969 4.76124 11.8411 4.86108 11.8409H4.93726C4.97761 11.851 5.07231 11.8769 5.22241 11.9171C5.37289 11.9574 5.55442 11.9997 5.76538 12.045C5.97625 12.0904 6.20661 12.1306 6.45776 12.1652C6.7083 12.2004 6.96498 12.2179 7.22632 12.2179C7.64807 12.2179 7.9968 12.1445 8.27319 11.9991C8.54861 11.8537 8.68723 11.6006 8.68726 11.2394C8.68726 11.0193 8.6515 10.8458 8.58179 10.7198C8.51127 10.5947 8.4112 10.4992 8.28101 10.4337C8.15071 10.3682 7.99211 10.3204 7.8064 10.2902C7.62064 10.2599 7.41636 10.2253 7.19604 10.1857C6.96501 10.1454 6.70178 10.094 6.40601 10.0343C6.11009 9.97382 5.82794 9.86381 5.56226 9.70325C5.2961 9.54272 5.07113 9.31159 4.8855 9.01086C4.69979 8.70998 4.60625 8.29829 4.6062 7.77649C4.6062 7.25449 4.71216 6.80243 4.92456 6.48059C5.13696 6.15948 5.4032 5.91294 5.72144 5.74231C6.03956 5.5718 6.38827 5.45886 6.76538 5.40344C7.14256 5.34875 7.49774 5.32043 7.82886 5.32043Z" fill="var(--fill-0, white)"/>
<path d="M14.0769 2.09875C14.2272 2.09881 14.3025 2.17954 14.3025 2.33997V11.4347C14.3025 11.6961 14.3685 11.8713 14.4988 11.962C14.6291 12.052 14.7695 12.0978 14.9207 12.0978C15.0308 12.0978 15.1315 12.0922 15.2214 12.0822C15.3121 12.0721 15.382 12.0574 15.4324 12.0372H15.4929C15.5728 12.0372 15.6287 12.0875 15.6589 12.1876L15.824 13.0909V13.1368C15.8239 13.2072 15.8048 13.2598 15.7703 13.295C15.735 13.3303 15.7074 13.3478 15.6873 13.3478C15.6166 13.378 15.4708 13.4203 15.2507 13.4757C15.0298 13.5304 14.724 13.5587 14.3328 13.5587C13.6502 13.5587 13.1379 13.3827 12.7966 13.0314C12.4554 12.6801 12.285 12.1986 12.2849 11.5861V2.65637C12.2849 2.48573 12.3656 2.38583 12.5261 2.35559L14.0164 2.09875H14.0769Z" fill="var(--fill-0, white)"/>
<path d="M27.7185 2.85168C27.8588 2.85168 27.9294 2.93254 27.9294 3.0929V5.5177H30.0828C30.2332 5.5177 30.3092 5.59296 30.3093 5.74329V6.7677C30.3092 6.90787 30.2331 6.97864 30.0828 6.97864H27.9294V11.1495C27.9295 11.4806 28.0074 11.719 28.1628 11.8644C28.3183 12.0097 28.5918 12.0821 28.9832 12.0822C29.2142 12.0822 29.4298 12.0674 29.6306 12.0372C29.8315 12.007 29.9974 11.9766 30.1277 11.9464H30.1882C30.2781 11.9464 30.334 12.0016 30.3542 12.1115L30.5349 12.9698C30.5349 12.9898 30.5368 13.0028 30.5417 13.0079C30.5468 13.013 30.5486 13.0259 30.5486 13.046C30.5485 13.1661 30.4881 13.2414 30.3679 13.2716C30.2376 13.3119 30.0112 13.3699 29.6902 13.4454C29.3691 13.521 28.9675 13.5587 28.4861 13.5587C27.6229 13.5587 26.9775 13.3781 26.5505 13.0167C26.1236 12.6553 25.9109 12.0474 25.9109 11.1935V3.4386C25.911 3.27825 25.9957 3.17359 26.1667 3.12317L27.6433 2.85168H27.7185Z" fill="var(--fill-0, white)"/>
<path d="M33.7253 2.85168C33.8657 2.85168 33.9362 2.93254 33.9363 3.0929V5.5177H36.0896C36.24 5.5177 36.3161 5.59296 36.3162 5.74329V6.7677C36.316 6.90787 36.24 6.97864 36.0896 6.97864H33.9363V11.1495C33.9363 11.4806 34.0142 11.719 34.1697 11.8644C34.3252 12.0098 34.5993 12.0822 34.991 12.0822C35.2218 12.0821 35.4368 12.0674 35.6375 12.0372C35.8383 12.007 36.0042 11.9766 36.1345 11.9464H36.1951C36.285 11.9464 36.3409 12.0015 36.3611 12.1115L36.5417 12.9698L36.5427 12.9708C36.5427 12.991 36.5455 13.0029 36.5505 13.0079C36.5556 13.013 36.5574 13.0259 36.5574 13.046C36.5573 13.166 36.4967 13.2414 36.3767 13.2716C36.2464 13.3119 36.0201 13.3698 35.699 13.4454C35.378 13.521 34.9763 13.5587 34.4949 13.5587C33.6318 13.5587 32.9863 13.378 32.5593 13.0167C32.1324 12.6553 31.9187 12.0474 31.9187 11.1935V3.4386C31.9188 3.27822 32.0041 3.17357 32.1746 3.12317L33.6511 2.85168H33.7253Z" fill="var(--fill-0, white)"/>
</g>
</g>
</svg>
