<svg preserveAspectRatio="xMidYMid meet" width="100%" height="100%" overflow="visible" style="display: block;" viewBox="0 0 51.3393 39.1002" fill="none" xmlns="http://www.w3.org/2000/svg">
<g id="Logo">
<path d="M41.8249 34.4215C41.8099 34.3258 41.8774 34.2368 41.9735 34.2245L44.5007 33.8988C44.5935 33.8869 44.6791 33.9507 44.6954 34.0428C45.0013 35.7682 45.4639 36.4426 46.5631 36.4426C47.5951 36.4426 48.1711 35.7002 48.1711 34.8122C48.1711 33.8522 47.6671 32.9277 46.2991 31.9197C45.607 31.4097 45.3195 31.0023 44.6671 30.4426C42.9294 28.9519 42.1335 27.4828 42.1335 25.6828C42.1335 23.0188 43.7836 21.3207 46.6156 21.3207C49.173 21.3207 50.4652 22.795 50.8805 25.3724C50.8962 25.4697 50.8263 25.5599 50.7284 25.5703L48.2044 25.838C48.1116 25.8479 48.0278 25.7822 48.0113 25.6903C47.8221 24.6354 47.3426 23.9861 46.4294 23.9861C45.5174 23.9861 45.0599 24.6633 45.0599 25.5513C45.0599 26.6313 45.9489 27.5648 47.0816 28.6165C47.6111 29.1081 48.1424 29.5583 48.6903 30.073C50.1251 31.4209 51.0381 32.716 51.0381 34.66C51.0381 37.42 49.1791 39.073 46.2991 39.073C43.6364 39.073 42.263 37.2277 41.8249 34.4215Z" fill="var(--fill-0, black)"/>
<path d="M36.7444 21.7849C36.7431 21.6879 36.8213 21.6087 36.9183 21.6087H39.6619C39.7588 21.6087 39.8371 21.6879 39.8358 21.7849L39.8141 23.4477V34.5357C39.8141 37.4877 38.0426 39.1002 35.2586 39.1002C32.4746 39.1002 30.7271 37.4877 30.7271 34.5357V23.4477L30.7054 21.7849C30.7042 21.6879 30.7824 21.6087 30.8793 21.6087H33.5794C33.6764 21.6087 33.7546 21.6879 33.7533 21.7849L33.7316 23.4477V34.417C33.7316 35.761 34.1786 36.4616 35.2586 36.4616C36.3626 36.4616 36.7661 35.761 36.7661 34.417V23.4477L36.7444 21.7849Z" fill="var(--fill-0, black)"/>
<path d="M23.2436 31.7252L21.8217 31.7997V37.1037L21.8432 38.6794C21.8446 38.7763 21.7663 38.8557 21.6693 38.8557H18.926C18.829 38.8557 18.7507 38.7763 18.7521 38.6794L18.7737 37.1037V23.4477L18.752 21.7849C18.7507 21.6879 18.8281 21.6087 18.925 21.6087C19.5563 21.6087 21.7542 21.6087 23.2436 21.6087C27.0836 21.6087 28.0196 23.8452 28.0196 26.6292C28.0196 28.284 27.7338 30.1382 25.9294 31.073L28.3774 38.6281C28.4139 38.7405 28.3301 38.8557 28.212 38.8557H25.4726C25.3954 38.8557 25.3275 38.8048 25.3057 38.7308L23.2436 31.7252ZM21.8217 24.0793V29.2706C21.8217 29.2706 22.5646 29.2706 22.9512 29.2706C24.4755 29.2706 24.9729 28.2469 24.9729 26.573C24.9729 25.2904 24.6072 24.0793 22.9512 24.0793C22.5458 24.0793 21.8217 24.0793 21.8217 24.0793Z" fill="var(--fill-0, black)"/>
<path d="M12.5405 21.7849C12.5392 21.6879 12.6175 21.6087 12.7144 21.6087H15.4145C15.5115 21.6087 15.5897 21.6879 15.5884 21.7849L15.5667 23.4477V37.1037L15.5883 38.6794C15.5896 38.7763 15.5114 38.8557 15.4144 38.8557H12.7145C12.6175 38.8557 12.5393 38.7763 12.5406 38.6794L12.5622 37.1037V23.4477L12.5405 21.7849Z" fill="var(--fill-0, black)"/>
<path d="M5.82581 30.7197L7.50327 21.7506C7.51866 21.6683 7.5905 21.6087 7.67422 21.6087H10.3448C10.455 21.6087 10.5374 21.7099 10.5151 21.8178L7.02006 38.717C7.00336 38.7977 6.93223 38.8557 6.84975 38.8557H4.053C3.97069 38.8557 3.89965 38.7979 3.88278 38.7174L0.345157 21.8182C0.322539 21.7102 0.404996 21.6087 0.51538 21.6087H3.21356C3.29744 21.6087 3.36938 21.6686 3.38459 21.7511L5.03833 30.7197C5.15833 31.5117 5.34581 32.6397 5.39381 33.4317H5.47033C5.51833 32.6397 5.70581 31.5117 5.82581 30.7197Z" fill="var(--fill-0, black)"/>
<path d="M49.8875 9.53252C49.8875 9.62857 49.8096 9.70644 49.7136 9.70644H46.1045V14.6024H51.1654C51.2614 14.6024 51.3393 14.6803 51.3393 14.7763V17.1165C51.3393 17.2126 51.2614 17.2904 51.1654 17.2904H43.2523C43.1553 17.2904 43.0771 17.2111 43.0784 17.1141L43.1 15.5384V1.88244L43.0784 0.30673C43.0771 0.209758 43.1553 0.130435 43.2523 0.130435H50.852C50.9481 0.130435 51.0259 0.208298 51.0259 0.304348V2.64452C51.0259 2.74057 50.9481 2.81843 50.852 2.81843H46.1045V6.97044H49.7136C49.8096 6.97044 49.8875 7.0483 49.8875 7.14435V9.53252Z" fill="var(--fill-0, black)"/>
<path d="M38.3817 0.140978C38.4109 0.0813115 38.4715 0.0434783 38.538 0.0434783H41.231C41.3606 0.0434783 41.4447 0.1802 41.3862 0.295879L38.2555 6.48607L41.8028 17.0612C41.8406 17.1739 41.7568 17.2904 41.6379 17.2904H38.9378C38.8613 17.2904 38.7938 17.2405 38.7715 17.1674L36.3642 9.29042L35.3051 11.2469V15.5384L35.3267 17.1141C35.328 17.2111 35.2498 17.2904 35.1528 17.2904H32.4964C32.3994 17.2904 32.3211 17.2111 32.3225 17.1141L32.3441 15.5384V1.88244L32.3224 0.219661C32.3211 0.122732 32.3993 0.0434783 32.4963 0.0434783H35.1529C35.2498 0.0434783 35.3281 0.122732 35.3268 0.219661L35.3051 1.88244V4.78644C35.3051 5.36244 35.2811 5.85461 35.2571 6.38261H35.3531C35.6411 5.85461 35.8032 5.376 36.0912 4.824L38.3817 0.140978Z" fill="var(--fill-0, black)"/>
<path d="M20.5516 0.219661C20.5503 0.122732 20.6285 0.0434783 20.7255 0.0434783H23.1616C23.2343 0.0434783 23.2993 0.0886682 23.3246 0.156788L26.1611 7.78644C26.5211 8.67444 26.8 9.29844 26.968 9.89844H27.064C27.016 9.27444 26.944 8.33843 26.944 7.66644V1.88244L26.9223 0.219661C26.9211 0.122732 26.9993 0.0434783 27.0962 0.0434783H29.483C29.5799 0.0434783 29.6581 0.122732 29.6569 0.219661L29.6352 1.88244V15.5384L29.6568 17.1141C29.6581 17.2111 29.5798 17.2904 29.4829 17.2904H27.1436C27.0699 17.2904 27.0042 17.2439 26.9796 17.1744L23.9649 8.62644C23.799 8.09477 23.4512 7.11651 23.3273 6.51443H23.2313C23.2793 7.13844 23.2644 8.07444 23.2644 8.74644V15.5384L23.286 17.1141C23.2873 17.2111 23.2091 17.2904 23.1121 17.2904H20.7256C20.6286 17.2904 20.5503 17.2111 20.5517 17.1141L20.5733 15.5384V1.88244L20.5516 0.219661Z" fill="var(--fill-0, black)"/>
<path d="M12.2338 13.4643L11.6851 17.1422C11.6723 17.2274 11.5992 17.2904 11.513 17.2904H9.03214C8.92347 17.2904 8.84142 17.1919 8.8611 17.085L11.98 0.142428C11.9952 0.0599084 12.0672 0 12.1511 0H15.5592C15.6431 0 15.715 0.0599077 15.7302 0.142427L18.8491 17.085C18.8688 17.1919 18.7867 17.2904 18.6781 17.2904H16.1588C16.0724 17.2904 15.9991 17.2271 15.9867 17.1416L15.4512 13.4643H12.2338ZM13.3642 6.46433L12.663 10.8339H15.0164L14.299 6.46433C14.179 5.64833 13.9475 4.30346 13.8995 3.70346H13.7555C13.7315 4.30346 13.4842 5.64833 13.3642 6.46433Z" fill="var(--fill-0, black)"/>
<path d="M8.66122 2.47061C8.66122 2.56666 8.58336 2.64452 8.48731 2.64452H5.91757V15.5384L5.93915 17.1141C5.94048 17.2111 5.86224 17.2904 5.76525 17.2904H3.04588C2.9489 17.2904 2.87065 17.2111 2.87198 17.1141L2.89357 15.5384V2.64452H0.173913C0.0778633 2.64452 0 2.56666 0 2.47061V0.217391C0 0.121342 0.0778635 0.0434783 0.173913 0.0434783H8.48731C8.58336 0.0434783 8.66122 0.121342 8.66122 0.217391V2.47061Z" fill="var(--fill-0, black)"/>
</g>
</svg>
