<svg xmlns="http://www.w3.org/2000/svg" fill="none" viewBox="0 0 80 80">
  <path fill="#F5CCB3" d="M0 12C0 5.373 5.373 0 12 0h56c6.627 0 12 5.373 12 12v56c0 6.627-5.373 12-12 12H12C5.373 80 0 74.627 0 68V12Z"/>
  <path fill="#000" d="M9.786 29.748c1.93-1.504 3.743-.83 4.02-.092.185.645-.323.922-1.062.968-.74.046-1.34.6-1.526 1.475-.185.877.797 2.026 2.265 3.229 1.294 1.06 2.218 3.089 1.432 5.21-.673 1.819-2.772 2.444-4.159 2.398-1.386-.046-3.142-1.338-3.327-1.983-.184-.646.138-1.106.831-1.198.693-.093 1.572.414 1.849.921.277.508 1.663.231 2.172-.645.508-.876.277-2.628-1.71-4.288-1.987-1.66-2.68-4.52-.785-5.995Zm41.73-.507c.37 0 3.79-.184 7.255-.046.516.02 1.063.784 1.063 1.152 0 .37-.508 1.06-.878 1.107-.295.037-2.372.015-3.373 0 .046 5.026.022 10.598-.046 10.837-.093.322-.278.6-.878.645-.235.018-1.378-.678-1.664-1.107-.093-.14-.231-.923-.14-2.167.042-.554.032-5.903.048-8.254-.493 0-1.535-.028-1.757-.139-.277-.138-.555-.737-.555-1.152-.07-.415.555-.876.925-.876Z"/>
  <path fill="#000" fill-rule="evenodd" d="M64.178 29.241c.324-.23 1.294.138 1.572.276.277.14 1.432 2.213 1.848 3.274.333.848 1.093 3.09 1.432 4.104.739.092 1.387.553 1.802.922.416.369.37 1.107.14 1.245-.186.11-.818.077-1.11.046.185.523.638 1.735.97 2.399.416.83.232 1.152-.138 1.337-.37.184-1.34-.001-1.895-.785-.443-.627-.985-2.197-1.2-2.904-.355-.03-1.203-.12-1.758-.23-.554-.111-1.617-.109-2.079-.093-.323.953-1.054 2.96-1.386 3.366-.416.507-.878.646-1.202.508-.323-.14-1.016-1.245-1.016-1.43 0-.184 1.154-3.504 1.801-5.303.647-1.797 1.895-6.453 2.22-6.732Zm1.386 4.749c-.148.48-.74 2.106-1.017 2.86l2.31.045c-.554-1.568-1.2-2.675-1.293-2.905Z" clip-rule="evenodd"/>
  <path fill="#000" d="M40.887 29.195c.279-.046 5.404-.032 6.054.092.97.184 1.525.738 1.525 1.153 0 .415-.462.737-.832.783-.37.047-2.773.047-2.958.093-.092.185.139.461.139.646 0 .192.093 9.438.093 9.636 0 .185 0 .646-.232.97-.23.322-1.016.045-1.386-.277-.37-.323-.693-.83-.693-1.43v-9.775c-.678 0-2.144-.01-2.588-.047-.554-.046-.97-.922-1.063-1.198-.14-.323 1.664-.6 1.941-.646Zm-7.163.184c.047-.323.97-.184 1.34-.138.37.046 1.248 1.015 1.294 1.43.046.416.139 3.734.093 5.44-.047 1.706-1.017 5.026-2.08 5.902-1.063.877-3.096.877-4.667-.322-1.572-1.199-2.265-3.597-2.497-5.856-.23-2.26.093-5.303.14-5.903.045-.599.139-.737.462-.737.232-.069 1.386.646 1.663 1.107.277.46.185 3.642.232 5.994.045 2.306.692 3.412 1.2 4.011.605.713 1.249 0 1.71-.783.463-.784.925-2.72 1.017-3.505.093-.784.047-6.318.093-6.64Zm-13.818-.231c.277.014 1.202.185 1.34.6.14.415.232 3.366.278 4.611.037.996.03 4.858.046 6.64.693.062 2.274.305 2.68.416.509.138.74.713.462.968-.28.257-2.771.184-3.65.138-.878-.046-1.827-.18-2.034-.415-.185-.209-.296-.809-.323-1.869-.047-1.799.185-8.368.231-10.535.012-.555.416-.6.97-.554Z"/>
  <path fill="#DB333E" d="M73.144 49.577c.231-.277.647-1.153.416-1.476-.185-.184-3.328-.184-14.835-.138-11.507.046-32.903-.37-36.6-.37-3.697 0-13.91.277-14.373.277-.462 0-1.247.877-1.34 1.43-.092.553.555.83.832.738.277-.092 15.066-.139 27.081 0 12.015.138 37.017.23 37.479.23.462 0 1.109-.415 1.34-.691Z"/>
</svg>
