<svg preserveAspectRatio="xMidYMid meet" width="100%" height="100%" overflow="visible" style="display: block;" viewBox="0 0 60 49" fill="none" xmlns="http://www.w3.org/2000/svg">
<path id="Logo" fill-rule="evenodd" clip-rule="evenodd" d="M15.5644 0C20.2134 1.15888e-05 23.9623 3.81453 23.9623 8.49511C23.9623 12.2222 21.5852 15.4 18.2695 16.5401C22.1579 17.0441 25.8758 18.9583 28.5947 22.2101C29.1457 22.869 29.6359 23.5595 30.0659 24.2746C30.7348 23.4713 31.3559 22.7255 31.8954 22.0778C34.7496 18.6509 38.7111 16.8323 42.7761 16.5645C39.867 15.9089 37.7125 13.2649 37.7125 10.1357C37.7125 6.51927 40.59 3.55086 44.1844 3.55086C47.7789 3.55088 50.6564 6.51928 50.6564 10.1357C50.6564 13.3352 48.404 16.0274 45.3955 16.6056C49.4423 16.9987 53.3781 18.9179 56.2116 22.3067C61.9595 29.181 61.066 39.4299 54.2159 45.1982C47.3659 50.9665 37.1532 50.0698 31.4053 43.1954C30.8543 42.5365 30.364 41.8459 29.9341 41.1308C29.2651 41.9341 28.6441 42.68 28.1046 43.3276C21.7957 50.9023 10.077 50.6198 3.78839 43.0988C-1.95951 36.2245 -1.066 25.9756 5.78407 20.2073C8.01335 18.3301 10.5988 17.1588 13.2705 16.6697C9.74178 15.6589 7.16645 12.3745 7.16645 8.49511C7.16645 3.81452 10.9153 0 15.5644 0ZM26.6733 23.828C21.8158 18.0186 13.1852 17.2608 7.3963 22.1355C1.60737 27.0102 0.852283 35.6714 5.70976 41.4808C11.044 47.8604 20.9212 48.0275 26.1802 41.7134C30.0898 37.0194 33.9657 32.2953 37.908 27.6289C40.6984 24.2916 45.6565 23.8562 48.982 26.6566C52.3076 29.457 52.7413 34.4326 49.9509 37.7699C48.3931 39.6329 46.1581 40.5913 43.9139 40.5879L43.9178 38.0707C45.451 38.0731 46.9692 37.42 48.0295 36.152C49.9296 33.8795 49.6342 30.4916 47.3698 28.5848C45.1231 26.6929 41.7821 26.9699 39.8741 29.1939C37.1074 32.4612 34.394 35.775 31.6543 39.0651C32.1085 39.9433 32.6652 40.7863 33.3267 41.5775C38.1842 47.3869 46.8148 48.1447 52.6037 43.27C58.3926 38.3953 59.1477 29.7341 54.2902 23.9246C48.956 17.545 39.0788 17.378 33.8198 23.6921C31.9111 25.9837 28.9796 29.5043 26.5253 32.4521C25.0475 34.2269 23.5637 35.9968 22.092 37.7766C19.3016 41.1139 14.3435 41.5493 11.018 38.7489C7.69245 35.9485 7.25867 30.9729 10.0491 27.6356C11.6069 25.7726 13.8419 24.8142 16.0861 24.8176L16.0822 27.3348C14.549 27.3324 13.0308 27.9855 11.9705 29.2535C10.0704 31.526 10.3658 34.9139 12.6302 36.8207C14.8769 38.7126 18.2179 38.4356 20.1259 36.2116C21.632 34.433 23.1093 32.6292 24.6006 30.8381C25.7936 29.4053 27.0994 27.837 28.3456 26.3403C27.8915 25.4622 27.3348 24.6192 26.6733 23.828ZM15.5644 2.51707C12.3226 2.51707 9.67462 5.18239 9.67462 8.49511C9.67462 11.8078 12.3226 14.4731 15.5644 14.4731C18.8061 14.4731 21.4541 11.8078 21.4541 8.49511C21.4541 5.1824 18.8061 2.51708 15.5644 2.51707ZM44.1844 6.06793C42.0153 6.06793 40.2206 7.86885 40.2206 10.1357C40.2206 12.4025 42.0153 14.2035 44.1844 14.2035C46.3536 14.2034 48.1483 12.4025 48.1483 10.1357C48.1483 7.86886 46.3536 6.06794 44.1844 6.06793Z" fill="var(--fill-0, #599D9F)"/>
</svg>
