<svg preserveAspectRatio="xMidYMid meet" width="100%" height="100%" overflow="visible" style="display: block;" viewBox="0 0 60 50" fill="none" xmlns="http://www.w3.org/2000/svg">
<g id="Logo">
<g id="Union">
<path d="M22.5879 45.6729C22.7095 45.6729 22.8056 45.7141 22.876 45.7959C22.9463 45.8758 22.9814 45.9965 22.9814 46.1582V49.4492C22.9814 49.8164 22.8295 50 22.5254 50C22.4495 50 22.3811 49.9886 22.3203 49.9658C22.2596 49.945 22.2025 49.9107 22.1494 49.8633C22.0962 49.8157 22.0466 49.7601 22.001 49.6973C21.9555 49.6328 21.9098 49.5674 21.8643 49.501L20.2754 47.0635V49.5147C20.2754 49.6745 20.2382 49.7951 20.1641 49.877C20.0899 49.9588 19.9948 50 19.8789 50C19.7594 49.9999 19.6639 49.9586 19.5918 49.877C19.5196 49.7932 19.4834 49.6726 19.4834 49.5147V46.2871C19.4834 46.1501 19.4979 46.0419 19.5283 45.9639C19.5644 45.8784 19.6245 45.8091 19.708 45.7559C19.7916 45.7007 19.8825 45.6729 19.9795 45.6729C20.0553 45.6729 20.1198 45.6853 20.1729 45.71C20.228 45.7347 20.2755 45.7687 20.3154 45.8106C20.3572 45.8524 20.3996 45.9062 20.4414 45.9727C20.4851 46.0392 20.5297 46.1085 20.5752 46.1807L22.2031 48.6475V46.1582C22.2031 45.9966 22.2373 45.8758 22.3057 45.7959C22.376 45.7141 22.4701 45.6729 22.5879 45.6729Z" fill="var(--fill-0, #0F565C)"/>
<path fill-rule="evenodd" clip-rule="evenodd" d="M25.7471 45.6729C26.1805 45.6729 26.5525 45.7615 26.8623 45.9385C27.174 46.1135 27.4097 46.3641 27.5693 46.6895C27.7289 47.0129 27.8086 47.3935 27.8086 47.8311C27.8086 48.1544 27.7652 48.4485 27.6777 48.7129C27.5903 48.9773 27.459 49.2064 27.2842 49.4004C27.1093 49.5945 26.8944 49.743 26.6396 49.8457C26.385 49.9484 26.0934 50 25.7646 50C25.4377 50 25.1443 49.9474 24.8857 49.8428C24.6274 49.7362 24.4121 49.5866 24.2393 49.3945C24.0663 49.2024 23.935 48.9713 23.8457 48.7012C23.7583 48.431 23.7139 48.1391 23.7139 47.8252C23.7139 47.5036 23.7603 47.2087 23.8516 46.9404C23.9447 46.6722 24.0781 46.4433 24.2529 46.2549C24.4277 46.0666 24.6408 45.9231 24.8916 45.8242C25.1425 45.7234 25.4278 45.6729 25.7471 45.6729ZM25.7471 46.3467C25.578 46.3467 25.4208 46.3787 25.2764 46.4434C25.1339 46.5062 25.0107 46.599 24.9062 46.7207C24.8037 46.8424 24.7219 46.9983 24.6611 47.1885C24.6022 47.3769 24.5723 47.5893 24.5723 47.8252C24.5723 48.0629 24.6023 48.2777 24.6611 48.4697C24.7219 48.6619 24.8067 48.8218 24.915 48.9492C25.0253 49.0748 25.1504 49.1696 25.291 49.2324C25.4336 49.2952 25.5896 49.3262 25.7588 49.3262C25.9754 49.3262 26.174 49.2724 26.3545 49.1641C26.537 49.0556 26.6816 48.8876 26.7881 48.6611C26.8963 48.4348 26.9502 48.1561 26.9502 47.8252C26.9502 47.5191 26.9014 47.2537 26.8027 47.0293C26.7039 46.8048 26.5613 46.6347 26.377 46.5205C26.1946 46.4046 25.9845 46.3467 25.7471 46.3467Z" fill="var(--fill-0, #0F565C)"/>
<path fill-rule="evenodd" clip-rule="evenodd" d="M30.4238 45.7441C30.6137 45.7442 30.7763 45.7534 30.9111 45.7705C31.046 45.7857 31.1681 45.8177 31.2764 45.8672C31.4074 45.9224 31.5234 46.0018 31.624 46.1045C31.7246 46.2072 31.8003 46.327 31.8516 46.4639C31.9048 46.5989 31.9316 46.7424 31.9316 46.8945C31.9316 47.2065 31.8437 47.4561 31.667 47.6426C31.4921 47.8291 31.2255 47.9611 30.8682 48.0391C31.0183 48.119 31.162 48.2375 31.2988 48.3936C31.4356 48.5495 31.5577 48.7157 31.6641 48.8926C31.7724 49.0676 31.8561 49.2265 31.915 49.3691C31.9758 49.5097 32.0058 49.6069 32.0059 49.6602C32.0059 49.7153 31.9883 49.771 31.9521 49.8262C31.918 49.8793 31.8702 49.9208 31.8096 49.9512C31.7489 49.9835 31.6783 49.9999 31.5986 50C31.5036 50 31.423 49.9773 31.3584 49.9316C31.2938 49.8879 31.2379 49.8312 31.1904 49.7627C31.1448 49.6942 31.0816 49.5939 31.002 49.4609L30.6631 48.8955C30.5415 48.6882 30.4319 48.5303 30.335 48.4219C30.2399 48.3134 30.1428 48.2392 30.0439 48.1992C29.9452 48.1593 29.8209 48.1387 29.6709 48.1387H29.374V49.4834C29.374 49.6604 29.3348 49.7903 29.2568 49.874C29.1789 49.9577 29.0776 50 28.9521 50C28.8174 50 28.7128 49.9564 28.6387 49.8691C28.5645 49.7816 28.5273 49.6527 28.5273 49.4834V46.2637C28.5274 46.0811 28.5687 45.949 28.6504 45.8672C28.7321 45.7856 28.8638 45.7442 29.0459 45.7441H30.4238ZM29.374 47.5313H30.1328C30.336 47.5312 30.5068 47.5137 30.6455 47.4795C30.7842 47.4434 30.8897 47.3835 30.9619 47.2998C31.036 47.2143 31.0732 47.0975 31.0732 46.9492C31.0732 46.8332 31.0442 46.7311 30.9854 46.6436C30.9265 46.5542 30.8447 46.4871 30.7402 46.4434C30.6414 46.4015 30.4461 46.3809 30.1553 46.3809H29.374V47.5313Z" fill="var(--fill-0, #0F565C)"/>
<path d="M34.6631 45.6729C34.9443 45.6729 35.1935 45.7111 35.4102 45.7871C35.6266 45.8612 35.8026 45.9553 35.9375 46.0693C36.0725 46.1835 36.1747 46.3051 36.2432 46.4326C36.3114 46.5598 36.3456 46.6727 36.3457 46.7715C36.3457 46.878 36.3054 46.9698 36.2256 47.0459C36.1477 47.12 36.0536 47.1572 35.9434 47.1572C35.8826 47.1572 35.8236 47.1428 35.7666 47.1143C35.7116 47.0857 35.6649 47.0455 35.627 46.9941C35.5225 46.8307 35.4345 46.7067 35.3623 46.6231C35.2901 46.5394 35.1919 46.4692 35.0684 46.4121C34.9467 46.355 34.7907 46.3272 34.6006 46.3272C34.4048 46.3272 34.2301 46.3612 34.0762 46.4297C33.9222 46.4963 33.7899 46.5943 33.6797 46.7236C33.5714 46.8511 33.4876 47.0079 33.4287 47.1943C33.3717 47.3807 33.3428 47.5872 33.3428 47.8135C33.3428 48.3044 33.4554 48.6828 33.6797 48.9473C33.9058 49.2115 34.2204 49.3437 34.623 49.3438C34.8188 49.3438 35.0028 49.318 35.1738 49.2666C35.3467 49.2153 35.5215 49.142 35.6982 49.0469V48.3672H35.043C34.8853 48.3672 34.7653 48.3434 34.6836 48.2959C34.6038 48.2484 34.5635 48.1677 34.5635 48.0537C34.5635 47.9605 34.5966 47.8831 34.6631 47.8223C34.7314 47.7615 34.8237 47.7306 34.9395 47.7305H35.9004C36.0182 47.7305 36.1185 47.7418 36.2002 47.7627C36.2818 47.7836 36.3471 47.8301 36.3965 47.9024C36.4478 47.9747 36.4736 48.083 36.4736 48.2275V49.0293C36.4736 49.1357 36.4632 49.2215 36.4424 49.2861C36.4215 49.3489 36.3822 49.4066 36.3252 49.458C36.2701 49.5093 36.1986 49.559 36.1113 49.6065C35.8587 49.7433 35.6155 49.8435 35.3818 49.9063C35.1482 49.969 34.8936 50 34.6182 50C34.2969 50 34.0035 49.9505 33.7393 49.8516C33.4751 49.7526 33.2497 49.6092 33.0635 49.4209C32.8772 49.2325 32.7336 49.0036 32.6328 48.7354C32.5341 48.4673 32.4854 48.1677 32.4854 47.8369C32.4854 47.5117 32.533 47.2135 32.6299 46.9434C32.7268 46.6732 32.8694 46.4433 33.0576 46.2549C33.2458 46.0665 33.4752 45.9232 33.7451 45.8242C34.015 45.7234 34.321 45.6729 34.6631 45.6729Z" fill="var(--fill-0, #0F565C)"/>
<path d="M40.0352 45.7441C40.1701 45.7441 40.2703 45.7751 40.335 45.8359C40.4012 45.8948 40.4345 45.9727 40.4346 46.0693C40.4346 46.1682 40.4013 46.2487 40.335 46.3096C40.2703 46.3686 40.1701 46.3984 40.0352 46.3984H38.1279V47.4258H39.8838C40.0129 47.4258 40.1091 47.4549 40.1719 47.5137C40.2365 47.5707 40.2685 47.6471 40.2686 47.7422C40.2686 47.8373 40.2375 47.9157 40.1748 47.9766C40.1121 48.0355 40.0149 48.0645 39.8838 48.0645H38.1279V49.2549H40.1006C40.2336 49.2549 40.3339 49.2868 40.4004 49.3496C40.4686 49.4105 40.5029 49.4921 40.5029 49.5947C40.5029 49.6935 40.4686 49.7742 40.4004 49.8369C40.3339 49.8978 40.2336 49.9287 40.1006 49.9287H37.7998C37.6154 49.9287 37.4821 49.8875 37.4004 49.8057C37.3207 49.7238 37.2813 49.5917 37.2812 49.4092V46.2637C37.2813 46.142 37.2989 46.0429 37.335 45.9668C37.371 45.889 37.4271 45.8331 37.5029 45.7988C37.5809 45.7627 37.68 45.7441 37.7998 45.7441H40.0352Z" fill="var(--fill-0, #0F565C)"/>
<path d="M1.65137 39.2598C1.90779 39.2598 2.12926 39.2918 2.31543 39.3565C2.50356 39.4192 2.65967 39.5038 2.7832 39.6104C2.90664 39.7149 2.99669 39.8255 3.05371 39.9414C3.11072 40.0575 3.13964 40.1709 3.13965 40.2813C3.13965 40.3821 3.10348 40.4739 3.03125 40.5557C2.96093 40.6356 2.87205 40.6748 2.76562 40.6748C2.66875 40.6748 2.59427 40.6511 2.54297 40.6035C2.49366 40.554 2.43961 40.4743 2.38086 40.3643C2.30489 40.2065 2.21375 40.0836 2.10742 39.9961C2.00097 39.9067 1.82946 39.8613 1.59375 39.8613C1.37531 39.8614 1.19839 39.9099 1.06348 40.0068C0.93046 40.102 0.864298 40.2175 0.864258 40.3525C0.86426 40.4362 0.887018 40.5085 0.932617 40.5693C0.978173 40.6301 1.04045 40.6828 1.12012 40.7266C1.19995 40.7703 1.28155 40.8044 1.36328 40.8291C1.44501 40.8538 1.57975 40.89 1.76758 40.9375C2.00315 40.9927 2.21624 41.0536 2.40625 41.1201C2.59824 41.1867 2.76147 41.2682 2.89453 41.3633C3.02929 41.4584 3.13395 41.5792 3.20801 41.7256C3.28392 41.8701 3.32124 42.0479 3.32129 42.2588C3.32129 42.5119 3.25616 42.7397 3.125 42.9414C2.99574 43.1431 2.80559 43.3009 2.55469 43.415C2.30378 43.5292 2.00616 43.5859 1.66211 43.5859C1.24977 43.5859 0.909562 43.5085 0.641602 43.3525C0.451519 43.2403 0.296511 43.0908 0.176758 42.9043C0.0589438 42.716 3.9841e-05 42.5334 0 42.3565C0 42.2537 0.0351682 42.1661 0.105469 42.0938C0.177632 42.0196 0.268798 41.9825 0.378906 41.9824C0.468247 41.9824 0.543664 42.0113 0.604492 42.0684C0.667139 42.1254 0.719996 42.2101 0.763672 42.3223C0.81689 42.4554 0.874727 42.5668 0.935547 42.6563C0.998241 42.7455 1.0853 42.82 1.19727 42.8789C1.30942 42.936 1.45717 42.9639 1.63965 42.9639C1.89049 42.9639 2.09416 42.9061 2.25 42.79C2.4076 42.6721 2.48632 42.5255 2.48633 42.3506C2.48633 42.2118 2.44385 42.0993 2.3584 42.0137C2.27482 41.9262 2.16511 41.8601 2.03027 41.8145C1.89721 41.7688 1.71844 41.7194 1.49414 41.668C1.19383 41.5976 0.941663 41.5161 0.738281 41.4229C0.537051 41.3278 0.376518 41.1996 0.256836 41.0381C0.138984 40.8745 0.08008 40.6713 0.0800781 40.4297C0.0800848 40.1997 0.14233 39.9952 0.267578 39.8164C0.393005 39.6376 0.574977 39.5004 0.8125 39.4053C1.05011 39.3082 1.33012 39.2598 1.65137 39.2598Z" fill="var(--fill-0, #0F565C)"/>
<path fill-rule="evenodd" clip-rule="evenodd" d="M5.66309 39.3311C5.98413 39.3311 6.23139 39.3558 6.4043 39.4053C6.57509 39.4528 6.72229 39.5315 6.8457 39.6416C6.97105 39.7519 7.06623 39.8872 7.13086 40.0469C7.19549 40.2067 7.22852 40.3871 7.22852 40.5869C7.22847 41.0128 7.09692 41.336 6.83496 41.5566C6.57271 41.7754 6.18182 41.8857 5.66309 41.8858H4.88672V43.0693C4.88672 43.2386 4.84733 43.3676 4.76758 43.4551C4.68774 43.5426 4.5865 43.5859 4.46484 43.5859C4.33764 43.5859 4.2351 43.5435 4.15723 43.458C4.07929 43.3705 4.04004 43.2426 4.04004 43.0752V39.8506C4.04004 39.6641 4.08343 39.5311 4.16895 39.4512C4.25446 39.3713 4.38997 39.3311 4.57617 39.3311H5.66309ZM4.88672 41.2461H5.45703C5.65643 41.2461 5.82306 41.2254 5.95605 41.1836C6.09101 41.1417 6.19432 41.0727 6.26465 40.9775C6.33484 40.8824 6.37012 40.7575 6.37012 40.6035C6.37006 40.4192 6.31524 40.2693 6.20703 40.1533C6.08538 40.0296 5.8353 39.9678 5.45703 39.9678H4.88672V41.2461Z" fill="var(--fill-0, #0F565C)"/>
<path d="M8.38867 39.2598C8.51585 39.2598 8.61841 39.3023 8.69629 39.3877C8.77612 39.4714 8.81641 39.6003 8.81641 39.7734V43.0693C8.8164 43.2425 8.77612 43.3724 8.69629 43.458C8.61839 43.5435 8.51591 43.5859 8.38867 43.5859C8.26702 43.5859 8.16577 43.5436 8.08594 43.458C8.0081 43.3705 7.96973 43.2405 7.96973 43.0693V39.7734C7.96973 39.6022 8.00803 39.4733 8.08594 39.3877C8.16387 39.3021 8.26512 39.2598 8.38867 39.2598Z" fill="var(--fill-0, #0F565C)"/>
<path fill-rule="evenodd" clip-rule="evenodd" d="M18.3682 39.2598C18.486 39.2598 18.5842 39.2825 18.6621 39.3281C18.7417 39.3718 18.8051 39.4289 18.8525 39.499C18.902 39.5694 18.9433 39.6457 18.9756 39.7275C19.0098 39.8074 19.0523 39.9149 19.1035 40.0498L20.1953 42.75C20.2808 42.9555 20.3242 43.105 20.3242 43.1983C20.3242 43.2953 20.2829 43.385 20.2012 43.4668C20.1215 43.5464 20.0248 43.5858 19.9111 43.5859C19.8446 43.5859 19.7868 43.5736 19.7393 43.5488C19.692 43.526 19.6523 43.4949 19.6201 43.4551C19.5878 43.4132 19.5527 43.3503 19.5146 43.2666C19.4785 43.181 19.4465 43.1057 19.4199 43.041L19.2207 42.5156H17.5215L17.3213 43.0527C17.2435 43.2617 17.1771 43.4033 17.1221 43.4775C17.067 43.5498 16.9768 43.5859 16.8516 43.5859C16.7453 43.5859 16.651 43.5475 16.5693 43.4697C16.4876 43.3918 16.4463 43.303 16.4463 43.2041C16.4463 43.1471 16.4557 43.0881 16.4746 43.0274C16.4936 42.9665 16.5257 42.8818 16.5693 42.7734L17.6377 40.0557C17.6681 39.9777 17.7043 39.8847 17.7461 39.7764C17.7898 39.666 17.8363 39.5743 17.8838 39.502C17.9331 39.4299 17.9965 39.3718 18.0742 39.3281C18.1541 39.2825 18.2522 39.2598 18.3682 39.2598ZM17.7441 41.8799H18.9922L18.3623 40.1533L17.7441 41.8799Z" fill="var(--fill-0, #0F565C)"/>
<path d="M23.6348 39.2598C23.7068 39.2598 23.7733 39.2775 23.834 39.3135C23.8966 39.3496 23.9453 39.3982 23.9795 39.459C24.0155 39.5178 24.0331 39.5779 24.0332 39.6387C24.0332 39.6805 24.028 39.7269 24.0166 39.7764C24.0052 39.8239 23.9907 39.8715 23.9736 39.919C23.9566 39.9645 23.9399 40.0122 23.9229 40.0615L22.9102 42.7959C22.8741 42.9005 22.8379 43.0006 22.8018 43.0957C22.7657 43.1888 22.7242 43.2716 22.6768 43.3438C22.6293 43.4141 22.5651 43.4719 22.4854 43.5176C22.4074 43.5633 22.3113 43.5859 22.1973 43.5859C22.0833 43.5859 21.9861 43.5632 21.9062 43.5176C21.8285 43.4739 21.7652 43.4159 21.7158 43.3438C21.6683 43.2696 21.626 43.186 21.5898 43.0928C21.5537 42.9995 21.5176 42.9006 21.4814 42.7959L20.4863 40.084C20.4693 40.0347 20.4516 39.9859 20.4326 39.9385C20.4156 39.8911 20.4 39.8401 20.3867 39.7852C20.3753 39.73 20.3701 39.6826 20.3701 39.6445C20.3702 39.5478 20.4087 39.4596 20.4863 39.3799C20.5643 39.3 20.6624 39.2598 20.7803 39.2598C20.9246 39.2598 21.026 39.3043 21.085 39.3936C21.1458 39.4811 21.2078 39.6223 21.2705 39.8164L22.2178 42.6221L23.167 39.7959C23.2163 39.6478 23.2536 39.5454 23.2783 39.4883C23.303 39.4294 23.3435 39.3767 23.4004 39.3311C23.4574 39.2835 23.5359 39.2598 23.6348 39.2598Z" fill="var(--fill-0, #0F565C)"/>
<path d="M27.7715 39.2598C27.8988 39.2598 28.0021 39.3021 28.0801 39.3877C28.1599 39.4714 28.1992 39.6004 28.1992 39.7734V43.0693C28.1992 43.2424 28.1598 43.3724 28.0801 43.458C28.0002 43.5436 27.8969 43.5859 27.7715 43.5859C27.6443 43.5859 27.5428 43.5435 27.4668 43.458C27.3908 43.3705 27.3525 43.2406 27.3525 43.0693V41.6631H25.5244V43.0693C25.5244 43.2424 25.4851 43.3724 25.4053 43.458C25.3255 43.5435 25.2229 43.5858 25.0977 43.5859C24.9703 43.5859 24.868 43.5436 24.792 43.458C24.716 43.3705 24.6777 43.2406 24.6777 43.0693V39.7734C24.6777 39.6022 24.7149 39.4733 24.7891 39.3877C24.8651 39.3021 24.9684 39.2598 25.0977 39.2598C25.2248 39.2599 25.3274 39.3022 25.4053 39.3877C25.4851 39.4714 25.5244 39.6003 25.5244 39.7734V40.9717H27.3525V39.7734C27.3525 39.6022 27.3908 39.4733 27.4668 39.3877C27.5447 39.3023 27.6462 39.2598 27.7715 39.2598Z" fill="var(--fill-0, #0F565C)"/>
<path d="M36.1201 39.2598C36.2416 39.2598 36.3379 39.3002 36.4082 39.3818C36.4785 39.4618 36.5137 39.5834 36.5137 39.7451V43.0352C36.5137 43.4024 36.3617 43.5859 36.0576 43.5859C35.9816 43.5859 35.9133 43.5746 35.8525 43.5518C35.7918 43.5309 35.7348 43.4967 35.6816 43.4492C35.6285 43.4017 35.5788 43.3468 35.5332 43.2842C35.4876 43.2195 35.4421 43.1535 35.3965 43.0869L33.8076 40.6494V43.1016C33.8076 43.2612 33.7704 43.3821 33.6963 43.4639C33.6222 43.5455 33.5269 43.5859 33.4111 43.5859C33.2917 43.5858 33.1961 43.5454 33.124 43.4639C33.0518 43.3802 33.0157 43.2593 33.0156 43.1016V39.8731C33.0156 39.7363 33.0302 39.6288 33.0605 39.5508C33.0966 39.4653 33.1568 39.396 33.2402 39.3428C33.3239 39.2876 33.4148 39.2598 33.5117 39.2598C33.5876 39.2598 33.6519 39.2722 33.7051 39.2969C33.7602 39.3216 33.8078 39.3547 33.8477 39.3965C33.8895 39.4384 33.9318 39.493 33.9736 39.5596C34.0173 39.626 34.0619 39.6954 34.1074 39.7676L35.7354 42.2334V39.7451C35.7354 39.5834 35.7695 39.4618 35.8379 39.3818C35.9082 39.3002 36.0024 39.2598 36.1201 39.2598Z" fill="var(--fill-0, #0F565C)"/>
<path d="M39.4482 39.2598C39.7294 39.2598 39.9787 39.298 40.1953 39.374C40.4118 39.4482 40.5878 39.5422 40.7227 39.6563C40.8575 39.7703 40.9589 39.8912 41.0273 40.0186C41.0958 40.146 41.1299 40.2595 41.1299 40.3584C41.1299 40.4649 41.0906 40.5567 41.0107 40.6328C40.9329 40.7069 40.8386 40.744 40.7285 40.7441C40.6677 40.7441 40.6078 40.7297 40.5508 40.7012C40.4958 40.6726 40.4491 40.6324 40.4111 40.5811C40.3067 40.4175 40.2187 40.2937 40.1465 40.21C40.0743 40.1262 39.9761 40.0561 39.8525 39.999C39.7309 39.942 39.5748 39.9131 39.3848 39.9131C39.1891 39.9131 39.0142 39.9472 38.8604 40.0156C38.7064 40.0822 38.5741 40.1802 38.4639 40.3096C38.3555 40.4371 38.2718 40.5948 38.2129 40.7813C38.156 40.9676 38.1279 41.1742 38.1279 41.4004C38.128 41.8911 38.2397 42.2688 38.4639 42.5332C38.6901 42.7977 39.0052 42.9297 39.4082 42.9297C39.6038 42.9297 39.787 42.9039 39.958 42.8525C40.1309 42.8012 40.3057 42.7279 40.4824 42.6328V41.9541H39.8271C39.6695 41.9541 39.5495 41.9303 39.4678 41.8828C39.3879 41.8353 39.3477 41.7538 39.3477 41.6397C39.3477 41.5465 39.3818 41.47 39.4482 41.4092C39.5167 41.3483 39.6087 41.3174 39.7246 41.3174H40.6855C40.8031 41.3174 40.9028 41.3278 40.9844 41.3486C41.0661 41.3696 41.1322 41.4161 41.1816 41.4883C41.233 41.5606 41.2588 41.6699 41.2588 41.8145V42.6162C41.2588 42.7227 41.2475 42.8084 41.2266 42.8731C41.2057 42.9356 41.1672 42.9927 41.1104 43.044C41.0553 43.0953 40.9838 43.1449 40.8965 43.1924C40.6437 43.3294 40.3998 43.4294 40.166 43.4922C39.9323 43.5549 39.6778 43.5859 39.4023 43.5859C39.0813 43.5859 38.7885 43.5373 38.5244 43.4385C38.2602 43.3396 38.0349 43.1952 37.8486 43.0068C37.6624 42.8185 37.5187 42.5904 37.418 42.3223C37.3191 42.054 37.2695 41.7539 37.2695 41.4229C37.2695 41.0975 37.3181 40.7995 37.415 40.5293C37.512 40.2593 37.6547 40.0301 37.8428 39.8418C38.0308 39.6536 38.2596 39.5101 38.5293 39.4111C38.7992 39.3103 39.1061 39.2598 39.4482 39.2598Z" fill="var(--fill-0, #0F565C)"/>
<path d="M42.5186 39.2598C42.6457 39.2598 42.7483 39.3023 42.8262 39.3877C42.906 39.4714 42.9463 39.6003 42.9463 39.7734V43.0693C42.9463 43.2425 42.906 43.3724 42.8262 43.458C42.7483 43.5435 42.6458 43.5859 42.5186 43.5859C42.397 43.5859 42.2966 43.5435 42.2168 43.458C42.1389 43.3705 42.0996 43.2406 42.0996 43.0693V39.7734C42.0996 39.6022 42.1389 39.4733 42.2168 39.3877C42.2947 39.3023 42.3952 39.2598 42.5186 39.2598Z" fill="var(--fill-0, #0F565C)"/>
<path d="M45.9033 39.2598C46.1846 39.2598 46.4337 39.2979 46.6504 39.374C46.867 39.4482 47.0428 39.5421 47.1777 39.6563C47.3126 39.7703 47.414 39.8912 47.4824 40.0186C47.5509 40.146 47.585 40.2595 47.585 40.3584C47.585 40.4649 47.5456 40.5567 47.4658 40.6328C47.388 40.7069 47.2937 40.7441 47.1836 40.7441C47.1229 40.7441 47.0638 40.7296 47.0068 40.7012C46.9518 40.6727 46.9052 40.6323 46.8672 40.5811C46.7626 40.4174 46.6738 40.2937 46.6016 40.21C46.5293 40.1263 46.4311 40.0561 46.3076 39.999C46.1861 39.9421 46.0306 39.9131 45.8408 39.9131C45.645 39.9131 45.4694 39.9471 45.3154 40.0156C45.1617 40.0822 45.0301 40.1804 44.9199 40.3096C44.8116 40.4371 44.7279 40.5948 44.6689 40.7813C44.612 40.9676 44.583 41.1741 44.583 41.4004C44.583 41.8912 44.6957 42.2688 44.9199 42.5332C45.1461 42.7976 45.4604 42.9297 45.8633 42.9297C46.0589 42.9297 46.2421 42.9039 46.4131 42.8525C46.5861 42.8012 46.7617 42.728 46.9385 42.6328V41.9541H46.2822C46.1245 41.9541 46.0046 41.9304 45.9229 41.8828C45.8431 41.8352 45.8037 41.7538 45.8037 41.6397C45.8038 41.5466 45.837 41.47 45.9033 41.4092C45.9717 41.3483 46.0638 41.3174 46.1797 41.3174H47.1406C47.2585 41.3174 47.3587 41.3277 47.4404 41.3486C47.5219 41.3696 47.5874 41.4162 47.6367 41.4883C47.688 41.5606 47.7139 41.6699 47.7139 41.8145V42.6162C47.7139 42.7227 47.7035 42.8084 47.6826 42.8731C47.6617 42.9358 47.6224 42.9926 47.5654 43.044C47.5103 43.0953 47.439 43.1448 47.3516 43.1924C47.0989 43.3293 46.8558 43.4294 46.6221 43.4922C46.3883 43.555 46.133 43.5859 45.8574 43.5859C45.5363 43.5859 45.2436 43.5373 44.9795 43.4385C44.7153 43.3395 44.49 43.1952 44.3037 43.0068C44.1175 42.8185 43.9738 42.5905 43.873 42.3223C43.7742 42.054 43.7246 41.7539 43.7246 41.4229C43.7246 41.0975 43.7732 40.7995 43.8701 40.5293C43.9671 40.2592 44.1097 40.0301 44.2979 39.8418C44.486 39.6534 44.7154 39.5101 44.9854 39.4111C45.2552 39.3103 45.5612 39.2598 45.9033 39.2598Z" fill="var(--fill-0, #0F565C)"/>
<path d="M51.6201 39.2598C51.7473 39.2598 51.8498 39.3023 51.9277 39.3877C52.0076 39.4714 52.0479 39.6003 52.0479 39.7734V43.0693C52.0478 43.2425 52.0076 43.3724 51.9277 43.458C51.8479 43.5435 51.7455 43.5859 51.6201 43.5859C51.4928 43.5859 51.3905 43.5436 51.3145 43.458C51.2385 43.3705 51.2012 43.2404 51.2012 43.0693V41.6631H49.373V43.0693C49.373 43.2423 49.3336 43.3724 49.2539 43.458C49.1741 43.5436 49.0708 43.5859 48.9453 43.5859C48.8181 43.5859 48.7166 43.5435 48.6406 43.458C48.5646 43.3705 48.5264 43.2406 48.5264 43.0693V39.7734C48.5264 39.6022 48.5636 39.4733 48.6377 39.3877C48.7137 39.3023 48.8162 39.2598 48.9453 39.2598C49.0727 39.2598 49.176 39.3021 49.2539 39.3877C49.3337 39.4714 49.373 39.6004 49.373 39.7734V40.9717H51.2012V39.7734C51.2012 39.6023 51.2385 39.4733 51.3145 39.3877C51.3924 39.3021 51.4947 39.2598 51.6201 39.2598Z" fill="var(--fill-0, #0F565C)"/>
<path d="M59.5664 39.3311C59.7127 39.3311 59.8213 39.3631 59.8916 39.4277C59.9638 39.4924 59.9999 39.5771 60 39.6816C60 39.7862 59.9637 39.8709 59.8916 39.9356C59.8194 39.9983 59.7109 40.0303 59.5664 40.0303H58.6426V43.0693C58.6426 43.2444 58.6033 43.3753 58.5254 43.4609C58.4475 43.5445 58.347 43.5859 58.2236 43.5859C58.0983 43.5859 57.9958 43.5435 57.916 43.458C57.8381 43.3724 57.7988 43.2425 57.7988 43.0693V40.0303H56.875C56.7305 40.0303 56.6231 39.9983 56.5527 39.9356C56.4826 39.8709 56.4473 39.7862 56.4473 39.6816C56.4473 39.5733 56.4835 39.4875 56.5557 39.4248C56.6298 39.3621 56.7363 39.3311 56.875 39.3311H59.5664Z" fill="var(--fill-0, #0F565C)"/>
<path d="M10.168 39.2598C10.2951 39.2598 10.3977 39.3023 10.4756 39.3877C10.5554 39.4714 10.5957 39.6003 10.5957 39.7734V42.8184H12.3115C12.4484 42.8184 12.5537 42.8524 12.626 42.919C12.6998 42.9855 12.7363 43.0693 12.7363 43.1699C12.7363 43.2726 12.7001 43.3563 12.6279 43.4209C12.5557 43.4835 12.4501 43.5147 12.3115 43.5147H10.2676C10.0832 43.5147 9.9499 43.4744 9.86816 43.3926C9.7884 43.3108 9.7491 43.1785 9.74902 42.9961V39.7734C9.74902 39.6022 9.78629 39.4733 9.8623 39.3877C9.94024 39.3021 10.0425 39.2598 10.168 39.2598Z" fill="var(--fill-0, #0F565C)"/>
<path d="M13.6973 39.2598C13.8246 39.2598 13.9279 39.3021 14.0059 39.3877C14.0857 39.4714 14.125 39.6003 14.125 39.7734V42.8184H15.8418C15.9787 42.8184 16.083 42.8524 16.1553 42.919C16.2294 42.9855 16.2666 43.0691 16.2666 43.1699C16.2665 43.2726 16.2304 43.3563 16.1582 43.4209C16.086 43.4836 15.9805 43.5147 15.8418 43.5147H13.7979C13.6136 43.5147 13.4802 43.4743 13.3984 43.3926C13.3187 43.3108 13.2784 43.1785 13.2783 42.9961V39.7734C13.2783 39.6022 13.3165 39.4733 13.3926 39.3877C13.4704 39.3023 13.5721 39.2599 13.6973 39.2598Z" fill="var(--fill-0, #0F565C)"/>
<path d="M31.8633 39.3311C31.9982 39.3311 32.0985 39.361 32.1631 39.4219C32.2296 39.4809 32.2627 39.5592 32.2627 39.6563C32.2627 39.755 32.2293 39.8347 32.1631 39.8955C32.0985 39.9545 31.9982 39.9844 31.8633 39.9844H29.9561V41.0117H31.7119C31.8411 41.0117 31.9373 41.0416 32 41.1006C32.0646 41.1577 32.0967 41.234 32.0967 41.3291C32.0966 41.424 32.0655 41.5017 32.0029 41.5625C31.9402 41.6215 31.8431 41.6514 31.7119 41.6514H29.9561V42.8418H31.9287C32.0618 42.8418 32.162 42.8728 32.2285 42.9356C32.2968 42.9963 32.331 43.0782 32.3311 43.1807C32.3311 43.2796 32.2969 43.3611 32.2285 43.4238C32.162 43.4847 32.0618 43.5147 31.9287 43.5147H29.6279C29.4436 43.5147 29.3103 43.4744 29.2285 43.3926C29.1487 43.3108 29.1094 43.1778 29.1094 42.9951V39.8506C29.1094 39.7289 29.127 39.6298 29.1631 39.5537C29.1992 39.4758 29.2551 39.419 29.3311 39.3848C29.409 39.3486 29.5082 39.3311 29.6279 39.3311H31.8633Z" fill="var(--fill-0, #0F565C)"/>
<path d="M55.7119 39.3311C55.8465 39.3311 55.9461 39.3612 56.0107 39.4219C56.0773 39.4809 56.1104 39.5592 56.1104 39.6563C56.1103 39.7551 56.0772 39.8346 56.0107 39.8955C55.9462 39.9545 55.8467 39.9843 55.7119 39.9844H53.8037V41.0117H55.5605C55.6898 41.0117 55.7859 41.0416 55.8486 41.1006C55.9132 41.1577 55.9453 41.234 55.9453 41.3291C55.9452 41.424 55.914 41.5017 55.8516 41.5625C55.7888 41.6215 55.6917 41.6514 55.5605 41.6514H53.8037V42.8418H55.7773C55.9101 42.8418 56.0097 42.873 56.0762 42.9356C56.1445 42.9964 56.1796 43.0781 56.1797 43.1807C56.1797 43.2796 56.1446 43.361 56.0762 43.4238C56.0097 43.4845 55.9101 43.5146 55.7773 43.5147H53.4766C53.2923 43.5147 53.1589 43.4743 53.0771 43.3926C52.9973 43.3108 52.957 43.1778 52.957 42.9951V39.8506C52.957 39.7289 52.9756 39.6298 53.0117 39.5537C53.0478 39.4757 53.1037 39.419 53.1797 39.3848C53.2576 39.3487 53.3569 39.3311 53.4766 39.3311H55.7119Z" fill="var(--fill-0, #0F565C)"/>
<path d="M40.8164 6.63673C41.1257 6.40466 41.9024 6.27776 42.5654 6.62013C43.3494 6.92399 43.8648 7.31269 44.4658 8.26075C45.1349 9.31616 46.3522 11.1025 46.21 11.2852C46.1093 11.4139 45.6009 10.9191 45.2969 10.4727C44.9926 10.0261 44.2833 9.17385 44.1211 8.99122C44.0222 8.87981 43.8252 8.57967 43.6084 8.31642C43.6415 8.68618 43.5849 9.03517 43.4785 9.36427C44.0162 10.2246 44.8415 10.9881 45.3984 11.4063C46.0473 11.8934 46.7779 12.2789 47.1426 12.3399C47.4828 12.3969 47.4664 12.705 46.4326 12.4209C45.3378 12.1199 44.0244 11.2063 43.1377 10.1367C43.0697 10.2629 42.9984 10.3864 42.9277 10.5059C43.8936 11.5861 44.9031 12.725 45.1348 12.9697C45.4996 13.3553 45.7235 13.6395 45.6826 13.9033C45.638 14.1856 44.7498 13.2331 44.1621 12.665C43.5741 12.0968 42.8638 11.4872 42.7422 11.3858C42.638 11.2989 42.5185 11.2422 42.4229 11.4063C42.0547 12.2946 42.4251 13.2522 43.5332 14.2275C44.7092 15.2627 45.7742 16.439 47.0615 18.7334C47.5601 19.622 48.1966 20.8239 48.46 21.6358C48.7055 22.3927 47.8589 23.036 47.2441 22.3057C46.9858 21.9987 46.5737 21.2811 46.3115 20.8438C45.3383 19.2201 43.7153 17.0488 43.3301 16.7647C42.9449 16.4806 42.4583 16.4403 42.3164 17.252C42.1746 18.0637 42.4391 19.0379 42.1348 20.9658C41.8355 22.8611 41.5461 23.1178 41.3633 24.8633C41.1746 26.665 41.1808 27.1163 41.3633 28.8008C41.5458 30.4854 41.8912 33.1238 41.7695 33.9356C41.6477 34.7473 40.5325 35.1525 40.0459 34.0567C39.5593 32.9601 39.0523 27.9071 39.0117 26.2227C38.9795 24.8829 38.9914 22.6705 39.0117 22.1631C39.0319 21.6558 38.7478 21.1684 38.1396 21.0264C37.5315 20.8845 36.7614 21.0067 36.4775 21.5342C36.1937 22.0618 36.1597 22.8109 36.498 24.0303C36.9035 25.4915 37.6557 26.9937 37.6738 27.8057C37.6941 28.719 36.7526 29.1524 36.1123 28.2119C35.5043 27.3189 34.4089 23.7869 34.2666 22.833C34.1421 21.9981 33.9024 20.7021 34.8145 19.7686C35.7268 18.835 37.43 17.8404 38.5654 15.2022C37.795 14.3092 37.8963 13.355 39.1328 12.9287C37.4705 12.0968 35.5245 11.6299 34.7539 11.3457C33.9834 11.0616 32.6859 10.6961 32.625 10.209C32.5642 9.72195 32.7867 9.45864 33.334 9.6006C33.9923 9.77144 35.0376 10.1281 37.4707 10.6152C39.9036 11.1023 40.5525 10.8585 40.4512 10.3106C39.9038 9.78289 39.8834 8.68693 40.1875 8.15919C40.2213 7.78709 40.3299 7.00205 40.8164 6.63673Z" fill="var(--fill-0, #0F565C)"/>
<path d="M17.5596 6.37306C18.411 6.29188 19.281 6.58362 19.6885 7.73243C20.1343 8.9902 19.4059 10.1268 19.3242 10.4522C19.2431 10.7769 19.3036 11.1219 19.9521 11.0205C20.6009 10.9191 24.9594 9.84358 25.751 9.62013C26.5417 9.39689 27.4948 8.80875 27.8193 9.53907C28.1437 10.2697 26.7451 10.7167 24.7783 11.5488C22.8116 12.381 20.4794 12.8882 20.2158 13.2129C19.9524 13.5377 20.034 14.2073 20.9463 15.5264C21.8587 16.8456 22.1021 17.3124 22.832 17.8604C23.5619 18.4083 25.2644 19.4436 25.4473 20.2959C25.6297 21.1483 25.5082 22.0214 24.8594 24.335C24.4927 25.6427 24.1033 26.5995 23.6631 27.9678C23.2779 29.1652 21.5542 28.8815 22.0811 27.2783C22.2876 26.6501 22.6858 25.6388 22.9941 24.5586C23.7239 22.0018 23.6426 21.1087 23.1562 20.7432C22.6697 20.3779 21.534 19.8298 21.0068 19.708C20.4798 19.5863 20.1757 19.8293 20.2363 20.377C20.2972 20.9249 20.6218 23.9696 20.6826 25.3701C20.7434 26.7705 20.3575 30.7076 19.6885 32.5547C19.0194 34.4017 17.4176 33.7319 17.9854 31.9053C18.553 30.0786 18.4119 27.1764 18.3916 25.8369C18.3713 24.4975 18.1275 22.9959 17.9248 22.2246C17.722 21.4534 17.2785 19.0366 17.2354 18.043C17.1948 17.1097 16.9314 16.2572 16.5869 16.2568C16.2423 16.2568 15.715 16.9067 15.3906 17.4141C15.0662 17.9215 14.2752 19.7079 13.8291 20.7227C13.204 22.1447 12.4908 23.32 11.8623 22.9141C11.1114 22.4286 12.045 20.8438 12.3086 20.2959C12.5722 19.7479 12.917 18.9564 13.4238 17.6983C13.9563 16.3764 14.7212 15.0594 15.5322 14.3897C16.3432 13.7199 17.2354 12.9693 17.2354 12.1777C17.2556 11.4065 16.9919 11.0007 16.708 10.6963C16.4242 10.3918 15.9586 9.47849 15.999 8.46388C16.0396 7.44921 16.7081 6.45448 17.5596 6.37306Z" fill="var(--fill-0, #0F565C)"/>
</g>
<path id="Vector" d="M30.942 1.21777C30.8407 0.669775 30.3743 0 29.8269 0C29.4619 0 29.0361 0.405924 28.8131 0.994514C28.59 1.5831 28.8734 2.4476 28.9753 2.71969C29.0969 3.04443 29.4011 3.53154 29.4822 4.01865C29.5633 4.50576 29.4822 4.64783 29.1578 4.85079C28.9718 4.96715 27.8601 5.58145 27.191 6.83982C26.5219 8.09818 26.1975 9.21447 26.0353 10.3105C25.8731 11.4065 26.1569 11.65 26.4611 11.7109C26.7652 11.7718 27.0969 11.3869 27.1302 11.0005C27.2316 9.82336 27.4546 9.21447 27.6371 8.76796C27.8196 8.32144 28.5089 6.9616 28.8131 6.9413C29.1172 6.921 29.1578 7.32693 29.1578 7.81404C29.1578 8.19966 28.7928 11.1223 28.6103 12.1777C28.4293 13.2246 28.002 14.2682 27.6168 15.8107C27.2183 17.4065 27.3532 19.2611 27.5357 20.3368C27.7235 21.4439 28.2729 24.2409 28.5495 24.7208C28.8536 25.2485 29.8066 25.0049 29.8877 24.4975C29.9464 24.1304 29.7674 23.3061 29.5655 22.3766L29.5633 22.3664C29.3605 21.4328 28.9347 19.6264 29.0969 17.7389C29.2591 15.8513 29.9283 14.9583 30.2527 14.593C30.5771 14.2276 30.8407 14.4103 30.9623 14.6742C31.084 14.938 31.1448 16.2167 31.084 17.8809C31.0232 19.5452 30.9015 21.5749 30.8407 22.0823C30.7798 22.5897 30.5974 23.2594 31.0434 23.6248C31.4895 23.9901 32.0369 23.6654 32.1789 23.4218C32.3208 23.1783 32.4019 22.3055 32.6047 19.6061C32.8074 16.9067 32.7466 14.938 32.6452 13.7202C32.5439 12.5025 32.1586 10.8788 32.0775 10.1887C31.9964 9.49862 31.9153 7.30663 31.895 6.98189C31.8747 6.65715 31.9356 6.55567 32.1383 6.67745C32.3411 6.79923 32.6452 7.10367 32.9291 7.95611C33.213 8.80855 33.1318 9.98573 33.0507 10.7367C32.9696 11.4876 33.8415 11.4471 34.0037 10.8585C34.1659 10.2699 34.3281 9.11299 34.1659 7.93581C34.0037 6.75863 33.5779 6.17004 32.9494 5.56116C32.3208 4.95227 31.7936 4.70872 31.4692 4.40427C31.1448 4.09983 30.7393 3.51124 30.8609 3.00384C30.9826 2.49643 31.0434 1.76577 30.942 1.21777Z" fill="var(--fill-0, #01AA8D)"/>
</g>
</svg>
