<svg xmlns="http://www.w3.org/2000/svg" fill="none" viewBox="0 0 80 80">
  <path fill="#FFFFF8" d="M0 12C0 5.373 5.373 0 12 0h56c6.627 0 12 5.373 12 12v56c0 6.627-5.373 12-12 12H12C5.373 80 0 74.627 0 68V12Z"/>
  <path fill="#0F565C" d="M32.588 60.673a.36.36 0 0 1 .288.123c.07.08.105.2.105.362v3.291c0 .367-.151.551-.456.551a.58.58 0 0 1-.205-.034.503.503 0 0 1-.17-.103 1.053 1.053 0 0 1-.149-.166l-.137-.196-1.589-2.438v2.452c0 .16-.037.28-.11.362a.368.368 0 0 1-.286.123.365.365 0 0 1-.287-.123c-.072-.084-.109-.204-.109-.362v-3.228a.93.93 0 0 1 .045-.323.453.453 0 0 1 .18-.208.485.485 0 0 1 .272-.083.46.46 0 0 1 .193.037.452.452 0 0 1 .142.1.929.929 0 0 1 .126.163c.044.066.089.136.134.208l1.628 2.466v-2.489c0-.161.034-.282.103-.362a.354.354 0 0 1 .282-.123Z"/>
  <path fill="#0F565C" fill-rule="evenodd" d="M35.747 60.673c.434 0 .806.088 1.115.265.312.175.548.426.707.751.16.324.24.705.24 1.142 0 .323-.044.617-.131.882a1.908 1.908 0 0 1-.394.687 1.72 1.72 0 0 1-.644.446 2.324 2.324 0 0 1-.875.154c-.327 0-.62-.053-.88-.157a1.755 1.755 0 0 1-.646-.449 1.923 1.923 0 0 1-.393-.693 2.83 2.83 0 0 1-.132-.876c0-.321.046-.616.138-.885.093-.268.226-.497.4-.685.176-.188.389-.332.64-.43.25-.102.536-.152.855-.152Zm0 .674c-.169 0-.326.032-.47.096a1.033 1.033 0 0 0-.37.278 1.361 1.361 0 0 0-.246.468 2.13 2.13 0 0 0-.089.636c0 .238.03.453.09.645s.145.352.253.48c.11.125.235.22.376.282.143.063.299.094.468.094.216 0 .415-.054.596-.162.182-.108.327-.276.433-.503.108-.226.162-.505.162-.836a1.98 1.98 0 0 0-.147-.796 1.1 1.1 0 0 0-1.056-.682Zm4.677-.603c.19 0 .352.01.487.026a1.197 1.197 0 0 1 .713.334c.1.103.176.223.228.36.053.135.08.278.08.43 0 .313-.088.562-.265.749-.175.186-.442.318-.799.396.15.08.294.198.43.355.138.156.26.322.366.499.108.175.192.334.251.476.06.14.09.238.09.291a.3.3 0 0 1-.053.166.354.354 0 0 1-.142.125.446.446 0 0 1-.211.049.407.407 0 0 1-.24-.068.646.646 0 0 1-.169-.17 7.754 7.754 0 0 1-.188-.301l-.339-.566a3.032 3.032 0 0 0-.328-.473.795.795 0 0 0-.291-.223 1.001 1.001 0 0 0-.373-.06h-.297v1.344c0 .177-.04.307-.117.391a.397.397 0 0 1-.305.126.389.389 0 0 1-.313-.13c-.075-.088-.112-.217-.112-.387v-3.22c0-.182.042-.314.123-.396.082-.081.214-.123.396-.123h1.378Zm-1.05 1.787h.759c.203 0 .374-.017.512-.051a.606.606 0 0 0 .317-.18.517.517 0 0 0 .111-.35.535.535 0 0 0-.333-.507c-.099-.041-.294-.062-.585-.062h-.781v1.15Z" clip-rule="evenodd"/>
  <path fill="#0F565C" d="M44.663 60.673c.281 0 .53.038.747.114.217.074.393.168.528.282.134.114.237.236.305.364.068.127.103.24.103.339 0 .106-.04.198-.12.274a.395.395 0 0 1-.283.111.39.39 0 0 1-.316-.163 3.404 3.404 0 0 0-.265-.371.855.855 0 0 0-.294-.21 1.106 1.106 0 0 0-.467-.086c-.196 0-.37.034-.525.103a1.075 1.075 0 0 0-.396.294 1.342 1.342 0 0 0-.251.47 2.111 2.111 0 0 0-.086.62c0 .49.112.869.337 1.133.226.264.54.397.943.397.196 0 .38-.026.55-.077.174-.052.349-.125.525-.22v-.68h-.655a.728.728 0 0 1-.36-.071c-.08-.048-.12-.128-.12-.242a.3.3 0 0 1 .1-.232.4.4 0 0 1 .277-.092h.96c.118 0 .218.012.3.033.082.02.147.067.197.14a.57.57 0 0 1 .077.325v.801c0 .107-.01.193-.032.257a.404.404 0 0 1-.117.172 1.05 1.05 0 0 1-.214.148 3.38 3.38 0 0 1-.73.3 2.935 2.935 0 0 1-.763.094c-.321 0-.614-.05-.879-.148a1.848 1.848 0 0 1-.675-.431 1.923 1.923 0 0 1-.431-.686 2.585 2.585 0 0 1-.148-.898c0-.325.048-.623.145-.894.097-.27.24-.5.428-.688.188-.189.417-.332.687-.43.27-.102.576-.152.918-.152Zm5.372.071c.135 0 .235.031.3.092.066.059.1.137.1.233 0 .1-.034.18-.1.24-.065.06-.165.09-.3.09h-1.907v1.027h1.756c.129 0 .225.029.288.088a.29.29 0 0 1 .097.228.313.313 0 0 1-.094.235c-.063.059-.16.087-.291.087h-1.756v1.19H50.1c.133 0 .233.033.3.096a.31.31 0 0 1 .102.245.31.31 0 0 1-.103.242c-.066.06-.166.092-.3.092h-2.3c-.185 0-.318-.041-.4-.123-.08-.082-.119-.214-.119-.397v-3.145c0-.122.018-.221.054-.297a.33.33 0 0 1 .168-.168.708.708 0 0 1 .297-.055h2.235ZM11.651 54.26c.257 0 .478.032.664.096.189.063.345.148.468.254.124.105.214.215.27.331a.76.76 0 0 1 .087.34.408.408 0 0 1-.109.275.337.337 0 0 1-.265.119c-.097 0-.172-.024-.223-.072a1.021 1.021 0 0 1-.162-.239 1.067 1.067 0 0 0-.274-.368c-.106-.09-.277-.135-.513-.135-.219 0-.396.049-.53.146-.133.095-.2.21-.2.346 0 .083.023.155.069.216a.567.567 0 0 0 .187.158c.08.043.162.077.243.102.082.025.217.061.405.108.235.056.448.117.638.183.192.067.355.148.489.243s.239.216.313.363c.076.144.113.322.113.533 0 .253-.065.48-.196.682-.13.202-.32.36-.57.474a2.14 2.14 0 0 1-.893.17c-.412 0-.752-.077-1.02-.233a1.377 1.377 0 0 1-.465-.448 1.033 1.033 0 0 1-.177-.548c0-.102.035-.19.105-.262a.366.366 0 0 1 .274-.112c.09 0 .165.03.226.086a.665.665 0 0 1 .159.254c.053.133.11.245.171.334.063.09.15.164.262.223a.98.98 0 0 0 .443.085c.25 0 .454-.058.61-.174a.53.53 0 0 0 .236-.44.456.456 0 0 0-.128-.336.799.799 0 0 0-.328-.2 5.482 5.482 0 0 0-.536-.146c-.3-.07-.552-.152-.756-.245a1.25 1.25 0 0 1-.481-.385 1.015 1.015 0 0 1-.177-.608c0-.23.062-.435.188-.614a1.18 1.18 0 0 1 .544-.41 2.21 2.21 0 0 1 .84-.146Z"/>
  <path fill="#0F565C" fill-rule="evenodd" d="M15.663 54.331c.321 0 .568.025.741.074.171.048.318.127.442.237.125.11.22.245.285.405.064.16.098.34.098.54 0 .426-.132.749-.394.97-.262.218-.653.329-1.172.329h-.776v1.183c0 .17-.04.298-.12.386a.392.392 0 0 1-.302.13.396.396 0 0 1-.308-.127c-.078-.087-.117-.215-.117-.383v-3.224c0-.187.043-.32.129-.4.085-.08.221-.12.407-.12h1.087Zm-.776 1.915h.57c.2 0 .366-.02.5-.062a.586.586 0 0 0 .308-.206.615.615 0 0 0 .105-.375.634.634 0 0 0-.163-.45c-.122-.123-.372-.185-.75-.185h-.57v1.278Z" clip-rule="evenodd"/>
  <path fill="#0F565C" d="M18.389 54.26c.127 0 .23.042.307.128.08.083.12.212.12.385v3.296c0 .173-.04.303-.12.389a.396.396 0 0 1-.307.128.396.396 0 0 1-.303-.128c-.078-.087-.116-.218-.116-.389v-3.296c0-.17.038-.3.116-.385a.39.39 0 0 1 .303-.128Z"/>
  <path fill="#0F565C" fill-rule="evenodd" d="M28.368 54.26c.118 0 .216.023.294.068.08.044.143.1.19.171.05.07.091.147.124.228.034.08.076.188.128.323l1.091 2.7c.086.206.13.355.13.448a.375.375 0 0 1-.124.269.395.395 0 0 1-.29.119.369.369 0 0 1-.29-.13.997.997 0 0 1-.106-.19 8.405 8.405 0 0 1-.095-.225l-.2-.525h-1.698l-.2.537c-.078.209-.145.35-.2.425-.055.072-.145.108-.27.108a.397.397 0 0 1-.283-.116.36.36 0 0 1-.123-.266c0-.057.01-.116.029-.177.019-.06.05-.145.094-.254l1.069-2.717.108-.28c.044-.11.09-.202.138-.274a.56.56 0 0 1 .19-.174.584.584 0 0 1 .294-.068Zm-.624 2.62h1.248l-.63-1.727-.618 1.727Z" clip-rule="evenodd"/>
  <path fill="#0F565C" d="M33.635 54.26c.072 0 .138.017.199.053a.383.383 0 0 1 .145.146.341.341 0 0 1 .054.18.617.617 0 0 1-.016.137 1.361 1.361 0 0 1-.043.143 5.996 5.996 0 0 0-.051.143l-1.013 2.734a10 10 0 0 1-.108.3 1.32 1.32 0 0 1-.125.248.563.563 0 0 1-.48.242.58.58 0 0 1-.29-.068.56.56 0 0 1-.191-.174 1.413 1.413 0 0 1-.126-.251 8.801 8.801 0 0 1-.109-.297l-.995-2.712a3.164 3.164 0 0 0-.053-.146 1.493 1.493 0 0 1-.046-.153.711.711 0 0 1-.017-.14c0-.097.039-.185.116-.265a.394.394 0 0 1 .294-.12c.145 0 .246.044.305.134.06.087.123.228.185.422l.948 2.806.949-2.826c.05-.148.087-.25.111-.308a.4.4 0 0 1 .122-.157.356.356 0 0 1 .235-.071Zm4.137 0c.127 0 .23.042.308.128.08.083.12.212.12.385v3.296c0 .173-.04.303-.12.389a.403.403 0 0 1-.308.128.387.387 0 0 1-.305-.128c-.076-.087-.114-.217-.114-.389v-1.406h-1.829v1.406c0 .173-.039.303-.119.389a.402.402 0 0 1-.307.128.389.389 0 0 1-.306-.128c-.076-.087-.114-.218-.114-.389v-3.296c0-.17.037-.3.111-.385a.392.392 0 0 1 .309-.128c.127 0 .23.042.307.128.08.083.12.212.12.385v1.199h1.828v-1.199c0-.17.038-.3.114-.385a.393.393 0 0 1 .305-.128Zm8.348 0a.36.36 0 0 1 .288.122c.07.08.106.201.106.363v3.29c0 .367-.152.55-.456.55a.578.578 0 0 1-.206-.033.501.501 0 0 1-.17-.103 1.05 1.05 0 0 1-.149-.165l-.136-.197-1.59-2.438v2.453c0 .16-.037.28-.11.362a.368.368 0 0 1-.286.122.364.364 0 0 1-.287-.122c-.072-.084-.108-.205-.108-.362v-3.229c0-.137.014-.244.044-.322a.453.453 0 0 1 .18-.208.485.485 0 0 1 .272-.083.456.456 0 0 1 .336.137.932.932 0 0 1 .126.163c.043.066.088.135.133.208l1.628 2.465v-2.488c0-.162.035-.283.103-.363a.354.354 0 0 1 .282-.122Zm3.328 0c.281 0 .53.038.747.114.217.074.393.168.528.282.135.114.236.235.304.363.069.127.103.24.103.34 0 .106-.04.198-.12.274a.395.395 0 0 1-.282.111.395.395 0 0 1-.317-.163 3.382 3.382 0 0 0-.264-.371.853.853 0 0 0-.294-.211 1.104 1.104 0 0 0-.468-.086c-.196 0-.37.034-.525.103a1.076 1.076 0 0 0-.396.294 1.343 1.343 0 0 0-.251.471 2.116 2.116 0 0 0-.085.62c0 .49.112.868.336 1.132.226.265.541.397.944.397.196 0 .379-.026.55-.078.173-.05.348-.124.524-.22v-.678h-.655a.728.728 0 0 1-.36-.071c-.08-.048-.12-.13-.12-.243a.3.3 0 0 1 .101-.23.4.4 0 0 1 .277-.093h.96c.118 0 .218.01.3.032a.33.33 0 0 1 .197.14c.051.072.077.18.077.325v.802a.854.854 0 0 1-.032.257.4.4 0 0 1-.117.17 1.05 1.05 0 0 1-.213.15 3.388 3.388 0 0 1-.731.3 2.94 2.94 0 0 1-.764.093 2.49 2.49 0 0 1-.878-.148 1.85 1.85 0 0 1-.675-.431 1.919 1.919 0 0 1-.431-.685 2.586 2.586 0 0 1-.148-.9c0-.325.048-.623.145-.893.097-.27.24-.499.428-.687a1.86 1.86 0 0 1 .686-.43c.27-.102.577-.152.92-.152Zm3.071 0c.127 0 .23.042.307.128.08.083.12.212.12.385v3.296c0 .173-.04.303-.12.389a.396.396 0 0 1-.307.128.395.395 0 0 1-.302-.128c-.078-.087-.117-.217-.117-.389v-3.296c0-.17.039-.3.117-.385a.39.39 0 0 1 .302-.128Zm3.384 0c.282 0 .53.038.747.114.217.074.393.168.528.282.135.114.236.235.304.363.069.127.103.24.103.34 0 .106-.04.198-.12.274a.395.395 0 0 1-.281.111.393.393 0 0 1-.317-.163 3.393 3.393 0 0 0-.265-.371.857.857 0 0 0-.294-.211 1.102 1.102 0 0 0-.467-.086c-.196 0-.372.034-.526.103a1.076 1.076 0 0 0-.395.294 1.347 1.347 0 0 0-.251.471 2.115 2.115 0 0 0-.086.62c0 .49.113.868.337 1.132.226.264.54.397.943.397.196 0 .38-.026.55-.078.173-.05.349-.124.526-.22v-.678h-.657a.726.726 0 0 1-.36-.071c-.079-.048-.118-.13-.118-.243a.3.3 0 0 1 .1-.23.4.4 0 0 1 .276-.093h.96c.118 0 .219.01.3.032a.332.332 0 0 1 .197.14c.051.072.077.18.077.325v.802c0 .107-.01.192-.031.257a.4.4 0 0 1-.118.17 1.042 1.042 0 0 1-.213.15 3.387 3.387 0 0 1-.73.3 2.98 2.98 0 0 1-.765.093c-.32 0-.613-.049-.877-.148a1.85 1.85 0 0 1-.676-.431 1.92 1.92 0 0 1-.431-.685 2.589 2.589 0 0 1-.148-.9c0-.325.048-.623.145-.893.097-.27.24-.499.428-.687.188-.189.417-.332.687-.43.27-.102.576-.152.918-.152Zm5.717 0c.127 0 .23.042.308.128.08.083.12.212.12.385v3.296c0 .173-.04.303-.12.389a.401.401 0 0 1-.308.128.389.389 0 0 1-.305-.128c-.076-.087-.114-.218-.114-.389v-1.406h-1.828v1.406c0 .173-.04.303-.12.389a.403.403 0 0 1-.308.128.387.387 0 0 1-.304-.128c-.076-.087-.115-.217-.115-.389v-3.296c0-.17.038-.3.112-.385a.39.39 0 0 1 .307-.128c.128 0 .231.042.309.128.08.083.119.212.119.385v1.199h1.828v-1.199c0-.17.038-.3.114-.385a.394.394 0 0 1 .305-.128Zm7.946.071c.147 0 .255.032.326.097.072.064.108.15.108.254a.323.323 0 0 1-.108.253c-.073.063-.181.095-.326.095h-.923v3.04c0 .174-.04.305-.118.39a.394.394 0 0 1-.301.126.402.402 0 0 1-.308-.128c-.078-.086-.117-.215-.117-.389V55.03h-.924c-.144 0-.252-.032-.322-.095a.33.33 0 0 1-.106-.253c0-.109.037-.195.109-.257a.481.481 0 0 1 .319-.094h2.691Zm-49.398-.071c.127 0 .23.042.308.128.08.083.12.212.12.385v3.045h1.715c.137 0 .243.034.315.1.074.068.11.151.11.252a.321.321 0 0 1-.108.25c-.072.063-.178.095-.317.095h-2.043c-.185 0-.318-.04-.4-.122-.08-.082-.119-.215-.119-.397v-3.223c0-.17.037-.3.113-.385a.394.394 0 0 1 .306-.128Zm3.529 0c.128 0 .23.042.309.128.08.083.119.212.119.385v3.045h1.717c.137 0 .241.034.313.1a.328.328 0 0 1 .112.252.322.322 0 0 1-.109.25c-.072.064-.178.095-.316.095h-2.044c-.184 0-.318-.04-.4-.122-.08-.082-.12-.215-.12-.397v-3.223c0-.17.039-.3.115-.385a.393.393 0 0 1 .304-.128Zm18.166.071c.135 0 .236.03.3.09a.3.3 0 0 1 .1.235.31.31 0 0 1-.1.24c-.064.059-.165.088-.3.088h-1.907v1.028h1.756c.13 0 .225.03.288.089a.29.29 0 0 1 .097.228.311.311 0 0 1-.094.233c-.063.06-.16.09-.291.09h-1.756v1.19h1.973c.133 0 .233.03.3.093a.314.314 0 0 1 .102.246c0 .099-.034.18-.103.243-.066.06-.166.09-.3.09h-2.3c-.184 0-.318-.04-.4-.121-.08-.082-.119-.215-.119-.398v-3.144c0-.122.018-.221.054-.297a.33.33 0 0 1 .168-.17.707.707 0 0 1 .297-.053h2.235Zm23.849 0c.135 0 .234.03.299.09.066.06.1.138.1.235a.31.31 0 0 1-.1.24c-.065.058-.164.088-.3.088h-1.907v1.028h1.757c.129 0 .225.03.288.089a.29.29 0 0 1 .096.228.312.312 0 0 1-.093.233c-.063.06-.16.09-.291.09h-1.757v1.19h1.973c.133 0 .233.03.3.093a.318.318 0 0 1 .103.246c0 .099-.035.18-.104.243-.066.06-.166.09-.299.09h-2.3c-.185 0-.318-.04-.4-.121-.08-.082-.12-.215-.12-.398v-3.144c0-.122.019-.221.055-.297a.33.33 0 0 1 .168-.17.708.708 0 0 1 .297-.053h2.235ZM50.816 21.637c.31-.232 1.086-.36 1.75-.017.783.304 1.299.693 1.9 1.64.669 1.056 1.886 2.842 1.744 3.025-.1.129-.61-.366-.913-.812-.304-.447-1.014-1.3-1.176-1.482-.099-.111-.296-.411-.513-.675.034.37-.023.72-.13 1.048.538.86 1.364 1.624 1.92 2.042.65.487 1.38.873 1.745.934.34.057.323.365-.71.08-1.095-.3-2.409-1.214-3.295-2.283-.068.126-.14.25-.21.369.966 1.08 1.975 2.219 2.207 2.464.365.385.589.67.548.933-.045.283-.933-.67-1.52-1.238a32.836 32.836 0 0 0-1.42-1.28c-.105-.086-.224-.143-.32.021-.368.889.002 1.846 1.11 2.822 1.176 1.035 2.241 2.211 3.529 4.505.498.889 1.135 2.09 1.398 2.903.245.757-.601 1.4-1.216.67-.258-.307-.67-1.025-.932-1.462-.974-1.624-2.597-3.795-2.982-4.08-.385-.283-.872-.324-1.014.488-.141.812.123 1.786-.181 3.714-.3 1.895-.589 2.152-.772 3.897-.188 1.802-.182 2.253 0 3.938.183 1.684.528 4.323.407 5.134-.122.812-1.238 1.218-1.724.122-.487-1.097-.994-6.15-1.034-7.834-.032-1.34-.02-3.553 0-4.06.02-.507-.264-.995-.872-1.137-.608-.142-1.379-.02-1.663.508-.283.528-.317 1.277.021 2.496.406 1.462 1.158 2.964 1.176 3.776.02.913-.921 1.346-1.562.406-.608-.893-1.703-4.425-1.845-5.379-.125-.835-.365-2.131.547-3.064.913-.934 2.616-1.929 3.751-4.567-.77-.893-.669-1.847.568-2.273-1.663-.832-3.608-1.3-4.38-1.583-.77-.284-2.067-.65-2.128-1.137-.06-.487.162-.75.709-.608.658.17 1.704.527 4.137 1.014s3.082.244 2.98-.304c-.547-.528-.568-1.624-.264-2.152.034-.372.143-1.157.63-1.522Zm-23.256-.264c.851-.081 1.721.21 2.129 1.36.445 1.257-.283 2.394-.365 2.72-.08.324-.02.669.628.567.649-.101 5.007-1.176 5.799-1.4.79-.223 1.744-.811 2.068-.08.325.73-1.074 1.177-3.04 2.009-1.967.832-4.3 1.34-4.563 1.664-.264.325-.182.994.73 2.313.913 1.32 1.156 1.786 1.886 2.334s2.432 1.584 2.615 2.436c.183.852.061 1.725-.588 4.039-.366 1.308-.756 2.264-1.196 3.633-.385 1.197-2.109.913-1.582-.69.207-.628.605-1.64.913-2.72.73-2.556.649-3.45.162-3.815-.486-.365-1.622-.913-2.15-1.035-.526-.122-.83.121-.77.669.061.548.386 3.593.447 4.993.06 1.4-.325 5.338-.994 7.185-.67 1.847-2.271 1.177-1.704-.65.568-1.826.427-4.729.407-6.068-.02-1.34-.264-2.841-.467-3.612-.203-.772-.646-3.189-.69-4.182-.04-.933-.304-1.786-.648-1.786-.345 0-.872.65-1.196 1.157-.325.508-1.116 2.294-1.562 3.309-.625 1.422-1.338 2.597-1.967 2.191-.75-.485.183-2.07.447-2.618.263-.548.608-1.34 1.115-2.598.532-1.322 1.297-2.639 2.108-3.308.811-.67 1.703-1.42 1.703-2.212.02-.771-.243-1.177-.527-1.482-.284-.304-.75-1.218-.709-2.232.04-1.015.71-2.01 1.56-2.091Z"/>
  <path fill="#01AA8D" d="M40.942 16.218C40.841 15.67 40.374 15 39.827 15c-.365 0-.79.406-1.014.995-.223.588.06 1.453.162 1.725.122.324.426.812.507 1.299.081.487 0 .629-.324.832-.186.116-1.298.73-1.967 1.989a10.42 10.42 0 0 0-1.156 3.47c-.162 1.097.122 1.34.426 1.4.304.062.636-.323.67-.71.1-1.177.324-1.785.506-2.232.183-.447.872-1.806 1.176-1.827.304-.02.345.386.345.873 0 .386-.365 3.308-.547 4.364-.181 1.047-.609 2.09-.994 3.633-.398 1.596-.264 3.45-.081 4.526.188 1.107.737 3.904 1.014 4.384.304.528 1.257.284 1.338-.223.059-.368-.12-1.192-.322-2.121l-.003-.01c-.202-.934-.628-2.74-.466-4.628.162-1.888.831-2.78 1.156-3.146.324-.365.588-.183.71.081.121.264.182 1.543.121 3.207-.06 1.664-.182 3.694-.243 4.201-.06.508-.243 1.177.203 1.543.446.365.993.04 1.135-.203.142-.244.223-1.116.426-3.816.203-2.7.142-4.668.04-5.886-.1-1.217-.486-2.841-.567-3.531-.081-.69-.163-2.882-.183-3.207-.02-.325.04-.426.243-.305.203.122.507.427.791 1.28.284.851.203 2.029.122 2.78-.081.75.79.71.953.122.162-.59.324-1.746.162-2.923s-.588-1.766-1.216-2.375c-.629-.609-1.156-.852-1.48-1.157-.325-.304-.73-.893-.609-1.4.122-.508.183-1.238.081-1.786Z"/>
</svg>
