<svg xmlns="http://www.w3.org/2000/svg" fill="none" viewBox="0 0 80 80">
  <path fill="#F9F2EA" d="M0 12C0 5.373 5.373 0 12 0h56c6.627 0 12 5.373 12 12v56c0 6.627-5.373 12-12 12H12C5.373 80 0 74.627 0 68V12Z"/>
  <path fill="#599D9F" fill-rule="evenodd" d="M25.564 15c4.65 0 8.398 3.814 8.398 8.495 0 3.727-2.377 6.905-5.693 8.045a16.118 16.118 0 0 1 10.326 5.67c.55.659 1.04 1.35 1.47 2.065l1.83-2.197c2.855-3.427 6.816-5.246 10.881-5.514-2.909-.655-5.064-3.3-5.064-6.428 0-3.617 2.878-6.585 6.472-6.585 3.595 0 6.472 2.968 6.472 6.585 0 3.2-2.252 5.891-5.26 6.47a16.093 16.093 0 0 1 10.816 5.7c5.748 6.875 4.854 17.124-1.996 22.892-6.85 5.768-17.063 4.872-22.81-2.003a16.348 16.348 0 0 1-1.472-2.064l-1.83 2.197c-6.308 7.574-18.027 7.292-24.316-.23-5.748-6.873-4.854-17.122 1.996-22.89a16.092 16.092 0 0 1 7.486-3.538c-3.528-1.011-6.104-4.296-6.104-8.175 0-4.68 3.75-8.495 8.398-8.495Zm11.11 23.828c-4.858-5.81-13.489-6.567-19.278-1.693-5.789 4.875-6.544 13.536-1.686 19.346 5.334 6.38 15.211 6.547 20.47.232 3.91-4.694 7.786-9.418 11.728-14.084a7.841 7.841 0 0 1 11.074-.972c3.326 2.8 3.76 7.776.969 11.113a7.836 7.836 0 0 1-6.037 2.818l.004-2.517a5.33 5.33 0 0 0 4.111-1.919 5.384 5.384 0 0 0-.66-7.567 5.34 5.34 0 0 0-7.495.609c-2.767 3.267-5.48 6.581-8.22 9.871a13.8 13.8 0 0 0 1.673 2.513c4.857 5.809 13.488 6.567 19.277 1.692 5.789-4.875 6.544-13.536 1.686-19.345-5.334-6.38-15.211-6.547-20.47-.233l-7.295 8.76c-1.477 1.775-2.961 3.545-4.433 5.325a7.841 7.841 0 0 1-11.074.972c-3.326-2.8-3.76-7.776-.969-11.113a7.836 7.836 0 0 1 6.037-2.818l-.004 2.517a5.33 5.33 0 0 0-4.111 1.919 5.384 5.384 0 0 0 .66 7.567 5.34 5.34 0 0 0 7.495-.61c1.506-1.778 2.983-3.582 4.475-5.373l3.745-4.498a13.79 13.79 0 0 0-1.673-2.512Zm-11.11-21.31c-3.241 0-5.89 2.664-5.89 5.977s2.649 5.978 5.89 5.978c3.242 0 5.89-2.665 5.89-5.978 0-3.313-2.648-5.978-5.89-5.978Zm28.62 3.55c-2.169 0-3.963 1.8-3.963 4.068 0 2.267 1.794 4.067 3.963 4.067 2.17 0 3.964-1.8 3.964-4.067 0-2.267-1.794-4.068-3.964-4.068Z" clip-rule="evenodd"/>
</svg>
