<svg preserveAspectRatio="xMidYMid meet" width="100%" height="100%" overflow="visible" style="display: block;" viewBox="0 0 48 44" fill="none" xmlns="http://www.w3.org/2000/svg">
<g id="Logo">
<path d="M44.0239 30.1078H47.4969V31.6624H44.0239V38.7562C44.0239 39.3158 44.086 39.8397 44.2095 40.3266C44.3337 40.8135 44.5514 41.2289 44.8613 41.5701C45.1718 41.9115 45.5791 42.1562 46.0859 42.3005C46.5927 42.446 47.2291 42.4553 47.993 42.3323V43.8867C47.0201 44.0521 46.1787 44.0362 45.4649 43.8404C44.7511 43.6433 44.1621 43.3165 43.6967 42.8614C43.2306 42.405 42.8794 41.8255 42.6423 41.1203C42.4046 40.4166 42.2858 39.6281 42.2858 38.7575V23.4784H43.8062L44.0239 30.1078Z" fill="var(--fill-0, #EE805B)"/>
<path fill-rule="evenodd" clip-rule="evenodd" d="M27.3334 27.2195C28.078 27.2195 28.8165 27.328 29.5503 27.5462C30.2842 27.7645 30.9359 28.09 31.5042 28.5252C32.0731 28.9605 32.5325 29.5043 32.8844 30.1578C33.2356 30.8114 33.4126 31.5721 33.4126 32.4439V36.3613H22.9924V38.7876H22.9911C22.9911 39.3896 23.1153 39.9069 23.363 40.3421C23.6114 40.7774 23.9373 41.1399 24.3392 41.4309C24.7432 41.722 25.2026 41.9337 25.7195 42.0686C26.2356 42.2035 26.7739 42.2711 27.3321 42.2711C28.2002 42.2711 29.0175 42.095 29.7827 41.7418C30.548 41.3899 31.0955 40.8501 31.4267 40.1252L32.9772 40.8409C32.7288 41.3595 32.4083 41.8159 32.015 42.2089C31.6217 42.6031 31.1716 42.9299 30.6668 43.1879C30.16 43.4472 29.6231 43.639 29.0542 43.7634C28.4853 43.8877 27.9117 43.9499 27.3334 43.9499C26.5682 43.9499 25.819 43.8414 25.0851 43.6231C24.3513 43.4048 23.6995 43.0794 23.1306 42.6441C22.5624 42.2089 22.1016 41.6651 21.7504 41.0115C21.3985 40.358 21.2229 39.5973 21.2229 38.7254V32.4439C21.2229 31.5734 21.3985 30.8114 21.7504 30.1578C22.1016 29.5043 22.5624 28.9605 23.1306 28.5252C23.6995 28.09 24.3499 27.7632 25.0851 27.5462C25.819 27.328 26.5682 27.2195 27.3334 27.2195ZM27.3334 28.8983C26.7752 28.8983 26.237 28.9658 25.7208 29.1007C25.204 29.2357 24.7392 29.4434 24.3252 29.7225C23.9106 30.003 23.586 30.3602 23.3483 30.7955C23.1113 31.2307 22.9924 31.7388 22.9924 32.3196V34.9007H31.6758V32.3196H31.6744C31.6744 31.7388 31.5509 31.2307 31.3025 30.7955C31.0548 30.3602 30.7289 30.003 30.3263 29.7225C29.9223 29.4434 29.4582 29.2357 28.93 29.1007C28.4025 28.9658 27.8703 28.8983 27.3334 28.8983Z" fill="var(--fill-0, #EE805B)"/>
<path d="M38.3481 23.473C39.0092 23.297 39.7444 23.2507 40.5503 23.3327L40.5497 24.9494C39.2669 24.8052 38.3314 25.0275 37.7425 25.6175C37.1529 26.2089 36.8584 27.1879 36.8584 28.5559V30.1104H40.3313V31.6649H36.8584V43.8072H35.1222V28.5572C35.1222 27.6033 35.2571 26.7804 35.5262 26.0845C35.794 25.39 36.1659 24.8251 36.642 24.3898C37.1175 23.9545 37.6857 23.6489 38.3481 23.473Z" fill="var(--fill-0, #EE805B)"/>
<path d="M19.3775 27.2198C19.5631 27.2198 19.7547 27.2251 19.9511 27.2357C20.148 27.2462 20.3484 27.2621 20.5554 27.282V29.023C20.1627 28.941 19.7901 28.9039 19.4395 28.9145C19.087 28.9251 18.715 28.9714 18.3231 29.0548C17.5168 29.2413 16.8188 29.6091 16.2303 30.1581C15.6405 30.7071 15.3463 31.46 15.3463 32.4125V43.638H13.6085V32.4138C13.6085 31.46 13.805 30.6516 14.1983 29.9888C14.5915 29.326 15.0771 28.7915 15.6563 28.3867C16.2343 27.9818 16.861 27.6868 17.5327 27.5003C18.203 27.3137 18.8192 27.2198 19.3775 27.2198Z" fill="var(--fill-0, #EE805B)"/>
<path d="M1.84445 35.9884H1.84579L10.3118 27.5306H12.4823L5.28702 34.807L12.4204 43.6379H10.2801L4.07707 36.0506L1.84445 38.2891V43.6379H0.107984V23.4148H1.84445V35.9884Z" fill="var(--fill-0, #EE805B)"/>
<path d="M23.9919 0C24.979 0.00136716 25.9156 0.192727 26.7744 0.568614C27.636 0.947238 28.4131 1.47895 29.0825 2.15008C29.7518 2.82122 30.2944 3.61264 30.6911 4.50248C31.0893 5.38684 31.3142 6.36279 31.3578 7.40159V19.0173C31.3578 19.5996 31.1696 20.0725 30.7811 20.4621C30.3926 20.8516 29.9318 21.0402 29.3729 21.0402C28.7921 21.0402 28.3204 20.8516 27.9319 20.4621C27.5447 20.0725 27.3552 19.5996 27.3552 19.0173V7.39751C27.3552 6.93415 27.2625 6.48718 27.0798 6.07165C26.8985 5.66023 26.6531 5.29663 26.3491 4.99182C26.0437 4.68564 25.6865 4.44506 25.2857 4.27421C24.8822 4.10335 24.4446 4.01587 23.9838 4.01587C23.523 4.01587 23.0799 4.10199 22.6668 4.27285C22.2538 4.4437 21.8897 4.68427 21.5844 4.99045C21.2803 5.29526 21.035 5.65748 20.8536 6.07028C20.671 6.4858 20.5783 6.93278 20.5783 7.39613V19.0145C20.5783 19.5969 20.3902 20.0698 20.0016 20.4593C19.6131 20.8489 19.1632 21.0375 18.6274 21.0375C18.0466 21.0375 17.575 20.8489 17.1864 20.4593C16.7979 20.0698 16.6097 19.5969 16.6097 19.0145V7.40027C16.6302 6.40516 16.8333 5.44972 17.211 4.56262C17.5872 3.67689 18.1176 2.89367 18.7855 2.23484C19.4549 1.57464 20.2443 1.04155 21.1304 0.651998C22.0138 0.263808 22.9763 0.0437402 23.9919 0Z" fill="var(--fill-0, #EE805B)"/>
<path d="M12.7658 0C13.3234 9.48696e-07 13.7828 0.194094 14.1714 0.593217C14.5613 0.995077 14.7508 1.46255 14.7494 2.02434V13.6045C14.7276 14.5996 14.5258 15.555 14.1482 16.4421C13.7706 17.3292 13.2443 18.1261 12.5859 18.8082C11.9274 19.4889 11.1394 20.037 10.2451 20.4375C9.35351 20.8366 8.37606 21.0389 7.34128 21.0389C6.35018 21.0389 5.40679 20.8475 4.53566 20.4702C3.66315 20.093 2.89426 19.5626 2.24807 18.8929C1.59914 18.2218 1.06746 17.4235 0.666653 16.5227C0.268573 15.6261 0.0436254 14.6447 0 13.6045V2.02434C0 1.46255 0.189499 0.995077 0.582126 0.593217C0.969296 0.194095 1.441 0 2.02039 0C2.57525 8.54952e-07 3.02922 0.192731 3.40549 0.590486C3.78584 0.992346 3.97126 1.46119 3.97126 2.02434V13.6113C3.97126 14.0993 4.06396 14.5517 4.248 14.9577C4.42931 15.3568 4.67335 15.7191 4.97326 16.0307C5.27864 16.3491 5.63719 16.5979 6.04072 16.7688C6.44289 16.9396 6.8805 17.0271 7.34266 17.0271C7.80344 17.0271 8.2465 16.941 8.65961 16.7701C9.07403 16.5979 9.4394 16.3505 9.74613 16.0307C10.046 15.7177 10.2901 15.3554 10.4714 14.9577C10.6554 14.5517 10.7481 14.0993 10.7481 13.6113V2.02434C10.7481 1.46255 10.9377 0.995077 11.3275 0.593217C11.7147 0.194095 12.1864 0 12.7658 0Z" fill="var(--fill-0, #EE805B)"/>
<path d="M40.6573 0.00134793C41.9483 0.00134811 43.189 0.347159 44.3423 1.02786C45.4806 1.70036 46.4076 2.62163 47.0962 3.76844C47.1097 3.83679 47.1357 3.89009 47.1643 3.92974C47.3156 4.24138 47.392 4.55576 47.392 4.86194C47.392 5.42099 47.1984 5.88163 46.8003 6.27119C46.3995 6.66211 45.9333 6.85209 45.3729 6.85209C44.994 6.85209 44.6599 6.76051 44.3532 6.5719C44.0465 6.38327 43.8215 6.1386 43.6634 5.82149L43.6565 5.80918L43.6484 5.79688C43.3143 5.26927 42.889 4.8387 42.3873 4.51475C41.872 4.18397 41.2899 4.01584 40.656 4.01584C40.1952 4.01584 39.7521 4.10195 39.339 4.27281C38.926 4.4423 38.562 4.68425 38.2566 4.99042C37.9512 5.2966 37.7099 5.66156 37.5409 6.07572C37.3704 6.48988 37.2846 6.93415 37.2846 7.39612V13.6099C37.2846 14.0952 37.3718 14.5462 37.5422 14.9495C37.7113 15.3514 37.9512 15.7149 38.2539 16.0293C38.5592 16.3491 38.926 16.5979 39.3404 16.7688C39.7535 16.9396 40.1966 17.0258 40.6573 17.0258C41.1195 17.0258 41.5571 16.9382 41.9592 16.7674C42.3601 16.5979 42.7227 16.3505 43.039 16.0334C43.3526 15.7176 43.6034 15.3554 43.7847 14.9563C43.9688 14.5503 44.0614 14.0979 44.0614 13.6099V13.3366H43.7888C43.208 13.3366 42.7363 13.1479 42.3478 12.7584C41.9592 12.3688 41.7711 11.8972 41.7711 11.3136C41.7711 10.7777 41.9592 10.3336 42.3451 9.95626C42.7336 9.57627 43.2067 9.39172 43.7888 9.39172H46.0123C46.5931 9.39172 47.0593 9.5749 47.437 9.95357C47.8132 10.3322 47.9972 10.7764 48 11.3136V13.6113C48 15.0397 47.6387 16.3491 46.9285 17.5042C46.2168 18.6619 45.2652 19.5668 44.1037 20.1914C43.6061 20.4511 43.0594 20.6602 42.4773 20.8106C41.8965 20.9623 41.2845 21.0388 40.6587 21.0388C40.033 21.0388 39.4263 20.9623 38.8578 20.812C38.2852 20.6616 37.7195 20.4525 37.1769 20.1914C36.014 19.564 35.0583 18.6591 34.3358 17.5028C33.6133 16.3492 33.2479 15.0397 33.2479 13.6113V7.40157C33.2697 6.42974 33.4769 5.48113 33.8654 4.58309C34.2553 3.68369 34.787 2.88681 35.4441 2.21704C36.1012 1.54727 36.8892 1.00326 37.7863 0.60277C38.6792 0.203644 39.6458 0.00134793 40.6573 0.00134793Z" fill="var(--fill-0, #EE805B)"/>
</g>
</svg>
