<svg xmlns="http://www.w3.org/2000/svg" fill="none" viewBox="0 0 80 80">
  <path fill="#fff" d="M0 12C0 5.373 5.373 0 12 0h56c6.627 0 12 5.373 12 12v56c0 6.627-5.373 12-12 12H12C5.373 80 0 74.627 0 68V12Z"/>
  <path fill="#FFD520" d="m49.216 36.595 1.597-6.71a2.638 2.638 0 0 0-.476-1.382c-1.233-1.608-3.754-.96-5.379-.48-1.036-.902-2.577-.592-3.753-.282-.14.028-.28 0-.336-.113-.056-.112.028-.225.084-.282.392-.282.616-.76.616-1.268 0-.733-.476-1.354-1.148-1.523v-1.466h1.008v-.846h-1.008v-.959h-.84v.959H38.6v.846h.98v1.466a1.572 1.572 0 0 0-1.148 1.523c0 .535.252.986.644 1.268.056.029.084.17.056.254-.056.113-.168.17-.308.113-1.176-.31-2.745-.592-3.81.282-1.624-.451-4.145-1.128-5.378.48a2.64 2.64 0 0 0-.476 1.381l1.597 6.71h18.46v.029Zm-3.25-7.557c.057 0 .113-.028.113-.028 1.064-.17 2.38-.367 3.277.226a.844.844 0 0 0-.504.479c-.028.056-.028.141-.028.197 0 .113 0 .226.056.339a.937.937 0 0 0-.616.112c-.336.226-.504.818-.42 1.467.112.423.308.677.588.79.28.084.56-.057.784-.17-.112.367-.504.705-.868.846-.532.17-1.205.141-1.625-.085-.168-.084-.644-.366-.7-.817.252.169.588.253.896.113.196-.113.392-.339.476-.65.112-.62 0-1.183-.308-1.522-.224-.197-.476-.197-.7-.14a.672.672 0 0 0 .084-.339v-.141c-.056-.31-.252-.536-.504-.592v-.085Zm-4.145 3.553c.532-.282.56-1.071.448-1.579-.056-.31-.224-.536-.364-.62-.196-.141-.448-.113-.616-.085a.904.904 0 0 0 .084-.395c0-.14-.028-.282-.14-.394-.084-.085-.168-.198-.308-.254.056-.113.168-.198.308-.282.364-.141.84-.226 1.317-.226.476 0 .952.085 1.316.226.14.056.252.169.308.282a.686.686 0 0 0-.308.254.677.677 0 0 0-.14.394 1 1 0 0 0 .084.395c-.196-.028-.42-.056-.616.085-.14.113-.308.31-.364.62-.084.536-.056 1.297.448 1.58.336.168.672.027.924-.114-.028.226-.252.536-.42.649a2.486 2.486 0 0 1-1.26.338c-.42 0-.869-.113-1.261-.338-.168-.113-.392-.423-.42-.649.308.113.644.282.98.113Zm-4.65-1.607c-.056-.31-.224-.536-.364-.62-.196-.142-.448-.113-.616-.085a.906.906 0 0 0 .084-.395.532.532 0 0 0-.14-.395c-.084-.084-.168-.197-.308-.253.056-.113.168-.198.308-.282.364-.141.84-.226 1.316-.226.477 0 .953.085 1.317.226a.61.61 0 0 1 .308.282.686.686 0 0 0-.308.253.676.676 0 0 0-.14.395 1 1 0 0 0 .084.395c-.196-.028-.42-.056-.616.084-.14.113-.308.31-.364.62-.084.537-.084 1.298.448 1.58.336.169.672.028.924-.113-.028.226-.252.536-.42.649a2.486 2.486 0 0 1-1.26.338c-.42 0-.869-.113-1.261-.338-.168-.113-.392-.423-.42-.649.28.141.588.282.924.113.56-.282.588-1.043.504-1.58Zm-5.434-.592c-.196-.113-.392-.17-.616-.113.056-.113.056-.226.056-.338 0-.057 0-.141-.028-.198-.084-.254-.28-.395-.504-.48.924-.563 2.213-.366 3.277-.225 0 0 .056 0 .112.028v.142c-.252.056-.448.282-.504.592v.14c0 .142.028.226.084.339-.224-.056-.476-.085-.7.14-.309.34-.449.903-.309 1.523.084.282.253.536.477.65.308.14.644.055.896-.114-.056.451-.532.733-.7.818-.42.226-1.093.254-1.625.085-.336-.113-.756-.48-.868-.846.224.112.504.254.784.169.28-.113.476-.367.588-.79.084-.705-.084-1.269-.42-1.522Zm18.067 9.305a.69.69 0 0 0-.588-.367H30.785c-.28 0-.505.226-.589.367-.112.338 0 .676.168.986l8.432 15.396c.28.423.644 1.156 1.176 1.156.533 0 .897-.733 1.177-1.156l8.431-15.395c.224-.282.337-.62.224-.987Zm-5.21 4.257-3.613 6.57c-.112.198-.392.677-.98.677-.617 0-.869-.48-.981-.705l-3.613-6.57c-.196-.31-.252-.648-.14-.959l.027-.084.029-.056c.14-.226.42-.508.812-.508h7.73c.421 0 .757.31.87.564v.056c.111.367.055.705-.14 1.015Zm-9.86 9.615c.84 1.213.308 2.228-1.092 2.172-1.765-.057-1.513-1.805-1.54-2.228 0 0-.533-.79-1.037-1.55h-6.583c-2.605 0-1.737-1.636-1.288-2.708.224-.564-.14-1.579-1.793-1.579h-4.818c-.392 0-.644-.31-.644-.31l-1.373-1.55h8.712c.336 0 .364-.65-.028-.65h-9.272l-1.429-1.606H24.4c.335-.029.447-.593 0-.649H11.96l-1.26-1.438c-.168-.197-.113-.367.14-.367h15.91c.308.029.364.085.588.508.252.423.84 1.466.98 1.776.169.339.253.593-.083 1.157-.337.564-1.681 2.932-1.933 3.355-.252.395-.56 1.325.476 1.325h4.874c.448 0 .616.085.812.451.308.395 2.27 3.892 2.27 3.892Zm34.51-12.068-1.26 1.438H55.547c-.448.057-.336.592 0 .649h11.849l-1.429 1.607h-9.272c-.392 0-.336.648-.028.648h8.712l-1.373 1.551s-.252.31-.644.31h-4.818c-1.625 0-2.017.987-1.793 1.58.448 1.071 1.317 2.706-1.288 2.706H48.88a51.107 51.107 0 0 0-1.036 1.551c-.028.423.224 2.143-1.541 2.228-1.4.056-1.933-.959-1.092-2.171 0 0 1.96-3.497 2.156-3.863.197-.367.365-.451.813-.451h4.874c1.036 0 .728-.931.476-1.326s-1.597-2.763-1.933-3.355c-.336-.564-.252-.818-.084-1.156.168-.339.756-1.382.98-1.777.253-.394.28-.479.589-.507h15.91c.365 0 .42.17.253.338Z"/>
  <path fill="#46515A" d="m49.72 37.215 1.765-7.275c.028-.592-.224-1.268-.56-1.776-1.485-1.946-4.202-1.269-5.827-.818-.672-.45-1.54-.648-2.549-.507 0 0-.28.056-.504.084.112-.253.168-.564.168-.874a2.15 2.15 0 0 0-1.26-1.974v-.507h.98v-1.805h-.98v-.987h-1.85v.987h-1.008v1.833h1.009v.508a2.195 2.195 0 0 0-1.26 1.973c0 .31.055.592.167.874-.084-.028-.392-.056-.504-.084-.98-.17-1.849.028-2.549.507-1.625-.45-4.314-1.127-5.826.818-.365.48-.588 1.184-.56 1.776l1.764 7.275H49.72v-.028Zm-20.056-8.713c1.232-1.607 3.753-.958 5.378-.479 1.036-.902 2.633-.592 3.81-.282.14.028.252 0 .308-.113.028-.084 0-.225-.056-.254a1.578 1.578 0 0 1 .504-2.791v-1.466h-.98v-.846h.98v-.987h.84v.959h1.009v.846h-1.009v1.466c.673.197 1.149.79 1.149 1.522 0 .508-.252.987-.617 1.27-.055.027-.111.168-.084.281.056.113.197.141.337.113 1.176-.282 2.717-.592 3.753.282 1.625-.451 4.146-1.128 5.378.48.28.394.449.873.477 1.38l-1.597 6.712H30.812l-1.596-6.711c0-.508.168-.987.448-1.382Zm11.12 1.27c.112.253 0 .45-.14.676-.112.17-.308.366-.224.536.028.084.112.14.168.14.14.029.28-.084.42-.197.084-.056.169-.14.253-.169.168-.056.336 0 .42.141.14.254.168.705.056.987-.168.31-.42.197-.729.028-.14-.085-.252-.17-.392-.17-.196 0-.28.34-.28.508-.028.62.392 1.185 1.009 1.467.364.169.812.253 1.26.225.448 0 .897-.084 1.26-.225.617-.282 1.037-.874 1.009-1.467 0-.169-.084-.507-.28-.507-.14 0-.252.084-.392.17-.308.168-.56.281-.728-.03-.112-.253-.084-.732.056-.986a.358.358 0 0 1 .42-.141.661.661 0 0 1 .252.17c.14.112.28.225.42.197.056 0 .14-.057.168-.141.056-.17-.14-.367-.224-.536-.14-.226-.252-.451-.14-.677a.505.505 0 0 1 .42-.197h.084c-.084-.451-.224-1.015-1.148-1.24-.252-.057-.617-.142-1.149-.142-.504 0-.896.085-1.148.141-.925.226-1.065.79-1.149 1.24h.084c.112 0 .252.085.364.198Zm.449-.79c.364-.141.84-.226 1.316-.226.476 0 .953.085 1.317.226.14.056.252.169.308.282a.686.686 0 0 0-.308.253.676.676 0 0 0-.14.395 1 1 0 0 0 .084.395c-.196-.028-.42-.056-.617.085-.14.112-.308.31-.364.62-.084.535-.056 1.297.448 1.579.337.169.673.028.925-.113-.028.226-.252.536-.42.649a2.486 2.486 0 0 1-1.26.338c-.421 0-.87-.113-1.261-.338-.169-.113-.393-.423-.42-.649.28.141.588.282.924.113.532-.282.56-1.072.448-1.58-.056-.31-.224-.535-.364-.62-.196-.14-.448-.112-.616-.084a.906.906 0 0 0 .084-.395.532.532 0 0 0-.14-.395c-.084-.084-.169-.197-.309-.253.112-.113.224-.226.365-.282Zm9.215 10.517v-.028l-.028-.028a1.36 1.36 0 0 0-1.204-.762H30.784c-.56 0-1.008.395-1.176.762l-.028.056-.028.056c-.112.339-.168.875.224 1.523L38.43 56.84c.253.423.645 1.128 1.513 1.128H40c.868-.028 1.289-.733 1.54-1.156l8.684-15.819c.364-.62.336-1.156.224-1.494Zm-.812 1.184L41.205 56.08c-.28.423-.645 1.156-1.177 1.156s-.924-.733-1.176-1.156L30.42 40.683c-.168-.282-.308-.62-.168-.987a.69.69 0 0 1 .588-.366h18.432c.28 0 .532.226.588.366.056.367-.056.705-.224.987Zm-4.902 2.256v-.028a.955.955 0 0 0-.868-.564h-7.731c-.393 0-.7.282-.813.508l-.028.056-.028.084c-.084.31-.028.649.14.96l3.614 6.569c.112.197.392.705.98.705.616 0 .868-.48.98-.677l3.614-6.57c.196-.31.252-.648.168-.987l-.028-.056Zm-.7.648-3.53 6.458c-.112.169-.252.479-.504.479s-.392-.31-.504-.48l-3.558-6.456c-.084-.113-.112-.254-.084-.395.028-.056.14-.17.252-.17h7.732c.112 0 .224.113.252.17.056.113.028.254-.056.395Zm25.882-2.622c-.14-.31-.448-.507-.84-.507h-7.731V19H18.683v21.486h-7.787c-.392 0-.7.197-.84.508-.056.112-.056.225-.056.338 0 .225.084.451.252.648l5.182 5.893c.112.142.504.536 1.149.536h2.1V62h42.69V48.41h2.044c.617 0 1.037-.424 1.149-.537l5.182-5.893a.996.996 0 0 0 .252-.648.784.784 0 0 0-.084-.367Zm-53.333 6.74c-.393 0-.645-.31-.645-.31l-1.372-1.552h8.711c.336 0 .364-.648-.028-.648h-9.271l-1.429-1.608h11.849c.336-.028.448-.592 0-.648H11.96l-1.26-1.438c-.169-.197-.113-.367.14-.367h15.91c.308.029.364.085.588.508.252.423.84 1.466.98 1.776.168.339.252.593-.084 1.156-.336.564-1.68 2.933-1.932 3.356-.253.395-.56 1.325.476 1.325h4.874c.448 0 .616.085.812.451.196.367 2.157 3.863 2.157 3.863.84 1.213.308 2.228-1.093 2.171-1.764-.056-1.512-1.804-1.54-2.227 0 0-.532-.79-1.037-1.551H24.37c-2.605 0-1.737-1.635-1.289-2.707.224-.564-.14-1.579-1.793-1.579h-4.705v.028ZM60.7 61.266H19.356V48.353H21.4c.784 0 1.036.225 1.092.366a.58.58 0 0 1-.028.48c-.224.48-.476 1.1-.476 1.692 0 .31.056.592.252.874.364.563 1.092.846 2.213.846H30.7c.224.338.589.902.729 1.1v.027c0 1.692.728 2.595 2.185 2.65.924.029 1.624-.31 1.988-.93.365-.648.252-1.494-.308-2.284l-2.129-3.778c-.336-.677-.812-.818-1.4-.818h-4.93c.028-.084.056-.197.14-.31l1.26-2.2.673-1.155c.224-.395.308-.705.308-.987 0-.31-.112-.564-.224-.79-.169-.366-.785-1.438-1.009-1.832v-.029c-.28-.479-.56-.79-1.092-.817h-7.535V19.677H60.7v20.809h-7.563c-.532.028-.812.338-1.092.818v.028c-.224.395-.84 1.466-1.009 1.833-.111.253-.224.479-.224.79 0 .281.085.591.309.986l.672 1.156 1.26 2.2c.056.112.113.225.14.31h-4.93c-.588 0-1.064.14-1.4.817l-2.129 3.779c-.56.817-.672 1.635-.308 2.284.336.62 1.064.958 1.989.93 1.456-.056 2.184-.93 2.184-2.65v-.029c.14-.197.505-.76.729-1.1h6.246c1.12 0 1.85-.281 2.213-.845a1.66 1.66 0 0 0 .252-.874c0-.592-.252-1.213-.476-1.692a.58.58 0 0 1-.028-.48c.084-.14.308-.366 1.093-.366H60.7v12.886ZM69.245 41.5l-1.26 1.438h-12.44c-.448.056-.336.592 0 .648h11.85l-1.43 1.608h-9.271c-.392 0-.336.648-.028.648h8.711l-1.372 1.551s-.252.31-.645.31h-4.817c-1.625 0-2.017.987-1.793 1.58.448 1.07 1.316 2.706-1.289 2.706H48.88a51.251 51.251 0 0 0-1.037 1.551c-.028.423.224 2.143-1.54 2.228-1.4.056-1.933-.96-1.093-2.172 0 0 1.961-3.496 2.157-3.863.196-.366.364-.45.812-.45h4.874c1.037 0 .729-.931.477-1.326-.253-.395-1.597-2.763-1.933-3.355-.336-.564-.252-.818-.084-1.156.168-.339.756-1.382.98-1.777.252-.395.28-.48.588-.507h15.91c.365 0 .42.169.253.338ZM35.659 29.77c.112.254 0 .451-.14.677-.112.17-.308.366-.224.536.028.084.112.14.168.14.14.029.28-.084.42-.197.085-.056.169-.14.253-.169.168-.056.336 0 .42.141.14.254.168.705.056.987-.168.31-.42.197-.729.028-.14-.085-.252-.17-.392-.17-.196 0-.28.34-.28.508-.028.62.392 1.185 1.009 1.467.364.169.812.253 1.26.225a3.58 3.58 0 0 0 1.26-.225c.617-.282 1.037-.874 1.009-1.467 0-.169-.084-.507-.28-.507-.14 0-.252.084-.392.17-.308.168-.56.281-.729-.03-.112-.253-.084-.732.056-.986a.358.358 0 0 1 .42-.141.661.661 0 0 1 .253.17c.14.112.28.225.42.197.056 0 .14-.057.168-.141.056-.17-.14-.367-.224-.536-.14-.226-.252-.451-.14-.677a.505.505 0 0 1 .42-.197h.084c-.084-.451-.224-1.015-1.148-1.24-.252-.057-.617-.142-1.149-.142-.504 0-.896.085-1.148.141-.925.226-1.065.79-1.149 1.24h.084c.112 0 .28.085.364.198Zm.477-.79c.364-.14.84-.225 1.316-.225.476 0 .953.085 1.317.226.14.056.252.169.308.282a.686.686 0 0 0-.308.253.677.677 0 0 0-.14.395c0 .141.028.254.084.395-.197-.028-.42-.056-.617.085-.14.112-.308.31-.364.62-.084.535-.084 1.297.448 1.579.337.169.673.028.925-.113-.028.226-.252.536-.42.649a2.487 2.487 0 0 1-1.261.338c-.42 0-.868-.113-1.26-.338-.168-.113-.393-.423-.42-.649.28.141.588.282.924.113.532-.282.56-1.072.448-1.58-.056-.31-.224-.535-.364-.62-.196-.14-.448-.112-.616-.084a.905.905 0 0 0 .084-.395.532.532 0 0 0-.14-.395c-.084-.084-.169-.197-.309-.253.112-.113.224-.226.364-.282Zm-1.99 4.343c.337-.395.477-.902.365-1.353-.084-.31-.448-.17-.644-.029-.169.085-.309.198-.477.141-.112-.028-.196-.169-.224-.253-.112-.339-.056-.762.112-1.015.056-.085.168-.085.28-.085.14 0 .28.113.393.197.168.141.42.282.56.113.14-.17-.028-.395-.168-.564-.112-.17-.224-.31-.224-.508 0-.14.056-.253.168-.338.112-.113.28-.113.28-.113h.056v-.056c0-.226.056-.48.14-.79-.924-.31-1.877-.422-2.997-.366-1.037.113-1.709.536-1.961 1.184 0 0 .336.028.504.113.084.056.336.197.308.48-.028.14-.112.281-.196.422-.084.17-.28.395-.196.536.14.254.392.056.56-.085a1.18 1.18 0 0 1 .309-.169c.084-.028.28-.028.392.113.168.226.224.818.028 1.128-.196.17-.365.056-.589-.056-.168-.057-.28-.142-.448-.17-.084-.028-.252 0-.252.254.028.733.336 1.353 1.009 1.636.868.45 2.156.394 2.913-.367Zm-3.36-.846c.223.113.504.254.784.17.28-.114.476-.367.588-.79.084-.649-.084-1.213-.42-1.466-.196-.113-.392-.17-.616-.113.056-.113.056-.226.056-.339 0-.056 0-.14-.028-.197-.085-.254-.28-.395-.505-.48.925-.563 2.213-.366 3.278-.225 0 0 .056 0 .112.028v.141c-.252.057-.448.282-.505.592v.141c0 .141.028.226.084.339-.224-.057-.476-.085-.7.14-.308.339-.448.903-.308 1.523.084.282.252.536.476.649.308.14.645.056.897-.113-.056.451-.533.733-.7.818-.42.225-1.093.254-1.625.084-.364-.169-.756-.535-.869-.902Zm14.65-2.96h.055s.168 0 .28.112c.112.085.14.198.168.338.029.198-.112.339-.224.508-.112.17-.308.395-.168.564.168.197.392.028.56-.113.113-.084.253-.197.393-.197.084 0 .224 0 .28.084.168.254.196.677.112 1.015-.028.057-.112.226-.224.254-.168.057-.308-.056-.476-.14-.196-.114-.589-.254-.645.027-.112.452.028.96.364 1.354.729.761 2.017.818 2.914.423.672-.31.98-.902 1.008-1.636 0-.253-.168-.281-.252-.253-.168.028-.28.113-.448.169-.224.084-.392.225-.588.056-.197-.31-.14-.902.028-1.128.084-.14.28-.14.392-.112.084.028.196.112.308.169.168.14.42.31.56.084.084-.14-.084-.366-.196-.535-.084-.141-.168-.282-.196-.423-.028-.282.224-.423.308-.48.168-.084.504-.112.504-.112-.252-.677-.896-1.072-1.96-1.185a7.508 7.508 0 0 0-2.998.367c.084.31.14.564.14.79Zm.532-.48c.056 0 .111-.028.111-.028 1.065-.17 2.381-.367 3.278.225a.844.844 0 0 0-.504.48c-.028.056-.028.14-.028.197 0 .113 0 .226.056.338a.937.937 0 0 0-.617.113c-.336.226-.504.818-.42 1.466.112.423.308.677.588.79.28.085.56-.056.785-.17-.112.367-.504.706-.869.847-.532.169-1.204.14-1.624-.085-.168-.084-.644-.366-.7-.817.252.169.588.253.896.112a1.07 1.07 0 0 0 .476-.648c.112-.62 0-1.185-.308-1.523-.224-.197-.476-.197-.7-.14a.674.674 0 0 0 .084-.34v-.14c-.056-.31-.252-.536-.504-.592v-.085Z"/>
  <path fill="#ED1C2E" d="M44.117 43.165c.056.14 0 .282-.085.394l-3.529 6.457c-.112.17-.252.48-.504.48s-.392-.31-.504-.48l-3.558-6.457c-.084-.112-.112-.253-.084-.394.028-.057.14-.17.252-.17h7.731a.35.35 0 0 1 .28.17Zm6.89-.029c-.112.254-.224.48-.224.79 0 .282.084.592.308.987l.673 1.156 1.26 2.2c.056.112.112.225.14.31h-4.93c-.588 0-1.064.14-1.4.817l-2.13 3.779c-.56.817-.672 1.635-.307 2.283.336.62 1.064.96 1.988.93 1.457-.055 2.185-.93 2.185-2.65v-.028c.14-.197.505-.761.728-1.1h6.247c1.12 0 1.849-.281 2.213-.845a1.66 1.66 0 0 0 .252-.874c0-.593-.252-1.213-.476-1.692a.58.58 0 0 1-.028-.48c.084-.14.308-.366 1.092-.366h2.073v12.914H19.355V48.353h2.044c.785 0 1.037.225 1.093.366a.58.58 0 0 1-.028.48c-.224.48-.476 1.1-.476 1.692 0 .31.056.592.252.874.364.564 1.092.846 2.213.846h6.246c.224.338.588.902.728 1.1v.028c0 1.691.729 2.594 2.185 2.65.925.028 1.625-.31 1.989-.93.364-.65.252-1.495-.308-2.285l-2.129-3.778c-.336-.677-.812-.818-1.4-.818h-4.93c.027-.084.056-.197.14-.31l1.26-2.2.672-1.155c.224-.395.309-.705.309-.987 0-.31-.113-.564-.225-.79-.168-.366-.784-1.438-1.008-1.832v-.029c-.28-.479-.56-.79-1.092-.817h-7.535V19.677h41.344v20.809h-7.563c-.532.028-.812.338-1.092.818v.028c-.252.367-.869 1.438-1.037 1.804Zm-.56-3.637v-.028l-.028-.028a1.36 1.36 0 0 0-1.204-.762H30.783c-.56 0-1.008.395-1.176.762l-.028.056-.028.056c-.112.339-.168.875.224 1.523L38.43 56.84c.252.423.644 1.128 1.513 1.128h.056c.868-.028 1.288-.733 1.54-1.156l8.684-15.819c.364-.62.336-1.156.224-1.494Zm1.008-9.53c.028-.593-.224-1.27-.56-1.777-1.484-1.945-4.202-1.269-5.826-.817-.672-.452-1.54-.649-2.55-.508 0 0-.28.056-.503.084.112-.253.168-.563.168-.874 0-.874-.505-1.635-1.26-1.973v-.508h.98v-1.833h-.98v-.987h-1.85v.987h-1.008v1.833h1.008v.508a2.195 2.195 0 0 0-1.26 1.973c0 .31.056.593.168.874-.084-.028-.392-.056-.504-.084-.98-.17-1.849.028-2.55.508-1.624-.452-4.313-1.128-5.826.817-.364.48-.588 1.184-.56 1.777l1.765 7.274H49.69l1.764-7.274Zm-20.812-.734a.844.844 0 0 1 .504.48.485.485 0 0 1 .028.197c0 .113 0 .226-.056.339.224-.029.42 0 .616.112.337.226.505.818.42 1.467-.111.422-.307.676-.588.79-.28.084-.56-.057-.784-.17.112.366.504.705.868.846.533.169 1.205.14 1.625-.085.168-.084.644-.366.7-.817-.252.169-.588.253-.896.112a1.074 1.074 0 0 1-.476-.648c-.112-.62 0-1.184.308-1.523.224-.197.476-.197.7-.14a.673.673 0 0 1-.084-.34v-.14c.056-.31.252-.536.504-.592v-.141c-.056 0-.112-.029-.112-.029-1.064-.084-2.353-.281-3.277.282Zm18.712 0c-.925-.563-2.213-.366-3.278-.225 0 0-.056 0-.112.028v.141c.252.056.448.282.504.592v.141a.674.674 0 0 1-.084.339c.224-.057.477-.085.7.14.309.339.449.903.309 1.523-.084.282-.252.536-.476.649-.309.14-.645.056-.897-.113.056.451.532.733.7.818.42.225 1.093.253 1.625.084.336-.113.757-.48.869-.846-.225.113-.505.254-.785.17-.28-.113-.476-.367-.588-.79-.084-.649.084-1.212.42-1.466.196-.113.392-.17.616-.113-.056-.113-.056-.226-.056-.338 0-.057 0-.141.028-.198.112-.31.28-.451.505-.536Zm-11.177 3.356c-.532-.282-.56-1.072-.448-1.58.056-.31.224-.535.364-.62.196-.14.448-.112.616-.084a.907.907 0 0 1-.084-.395.53.53 0 0 1 .14-.395c.084-.084.168-.197.308-.253-.056-.113-.168-.198-.308-.282a3.787 3.787 0 0 0-1.316-.226c-.477 0-.953.085-1.317.226a.608.608 0 0 0-.308.282.68.68 0 0 1 .308.253c.084.113.14.254.14.395a.999.999 0 0 1-.084.395c.196-.028.42-.056.617.085.14.112.308.31.364.62.084.536.056 1.297-.449 1.579-.336.17-.672.028-.924-.113.028.226.252.536.42.649.392.225.84.338 1.26.338.421 0 .87-.113 1.261-.338.168-.113.392-.423.42-.649-.308.113-.644.254-.98.113Zm5.126 0c-.532-.282-.56-1.072-.448-1.58.056-.31.224-.535.364-.62.196-.14.448-.112.616-.084a.906.906 0 0 1-.084-.395c0-.14.028-.282.14-.395.084-.084.168-.197.308-.253-.056-.113-.168-.198-.308-.282a3.787 3.787 0 0 0-1.316-.226 3.79 3.79 0 0 0-1.317.226.608.608 0 0 0-.308.282.68.68 0 0 1 .308.253c.084.113.14.254.14.395a.999.999 0 0 1-.084.395c.196-.028.42-.056.617.085.14.112.308.31.364.62.084.536.056 1.297-.449 1.579-.336.17-.672.028-.924-.113.028.226.252.536.42.649.392.225.813.338 1.26.338.421 0 .87-.113 1.261-.338.168-.113.393-.423.42-.649-.307.113-.644.282-.98.113Z"/>
</svg>
