<svg preserveAspectRatio="xMidYMid meet" width="100%" height="100%" overflow="visible" style="display: block;" viewBox="0 0 80 54.256" fill="none" xmlns="http://www.w3.org/2000/svg">
<g id="Logo">
<path id="Vector" d="M17.0577 14.4473C17.0352 14.5148 16.6076 14.9648 16.5851 15.2574C16.5851 15.5499 16.5401 15.82 16.4276 16.09C16.2926 16.5176 16.2476 16.9902 16.0675 17.3727C16 17.5302 15.8875 17.6653 15.7975 17.8228C15.7075 17.9803 15.64 18.1378 15.595 18.2954C15.4824 18.6329 15.4374 18.9705 15.4149 19.308C15.4149 19.5106 15.4149 19.7131 15.4149 19.9156C15.3699 20.4107 15.0099 20.8158 14.8073 21.2658C14.7398 21.3783 14.6948 21.5134 14.6498 21.6484C14.3798 22.616 15.0099 23.6512 15.0774 24.6639C15.1899 26.2391 16.6526 28.1744 18.1153 28.6695C18.4079 28.782 18.5429 28.1744 18.8355 27.9719C19.8481 27.3193 18.3854 25.609 18.0703 25.294C17.6203 24.8439 16.4951 24.5963 16.2926 23.9887C16.09 23.3136 16.0675 22.5035 15.9775 21.8059C15.9325 21.4234 17.9128 21.5134 18.2279 21.7609C18.2279 21.2883 17.7778 19.6006 17.6878 19.1505C17.6203 18.3629 17.9578 17.2602 17.9128 16.4726C17.5978 15.5274 19.263 14.7848 19.8481 15.0324C20.9733 15.6399 20.5907 17.0352 20.3882 18.0253C20.1857 18.7454 19.8706 20.1857 19.6906 20.9058C19.5556 21.6034 19.6456 22.8411 19.5556 23.5612C19.4881 24.1913 19.6006 24.3038 19.9381 24.8439C20.5682 25.834 21.7159 25.4965 22.8411 25.609C23.5612 25.609 24.1238 25.9466 24.8439 25.9015C25.564 25.9015 26.3516 25.9916 27.0492 26.1266C27.4993 26.2166 28.3544 26.1266 28.8045 25.879C29.3671 25.609 29.7947 24.4838 29.8397 23.9437C29.9072 23.3136 29.8847 22.661 29.7722 22.0309C29.7497 21.8509 29.7047 21.6709 29.6596 21.5134C29.5471 21.0408 29.2996 20.5682 29.3671 20.0731C29.4346 19.5781 29.5246 19.1055 29.5696 18.6104C29.6146 18.0928 29.7272 17.5978 29.8622 17.1027C29.9297 16.8326 30.0197 15.955 29.9522 16C29.9522 16 30.5598 15.3249 30.9649 15.1449C31.4824 14.9198 31.4599 15.0098 32.0225 14.9198C33.0352 15.2574 32.4501 17.1927 32.2025 17.6653C31.6625 18.7679 31.0099 19.7806 30.9198 21.0858C30.8748 21.7384 31.2349 22.3685 31.2799 23.0211C31.3249 23.7412 31.2799 24.5063 31.2799 25.2264C31.2799 25.834 31.1224 27.0042 31.955 27.0942C32.4051 27.1392 32.8551 26.9817 33.1702 26.6442C33.5077 26.3291 33.7103 25.9015 33.8228 25.4515C33.9128 25.1364 33.9128 24.8439 33.9578 24.5288C33.9803 24.3488 34.0253 24.1688 34.0478 23.9887C34.1153 23.6287 34.1153 23.2911 34.0478 22.9311C33.9353 22.121 33.7778 21.3333 33.6878 20.5232C33.5978 19.8481 33.5528 19.173 33.5753 18.4979C33.5753 18.2954 33.5753 18.1153 33.5978 17.9128C33.6878 17.0577 33.6878 16.1575 33.5528 15.3024C33.0802 12.0844 33.1252 13.1646 32.135 12.3319C31.685 11.9494 31.2574 11.7243 30.7848 11.3418C30.4023 11.0267 30.0872 10.5542 29.8622 10.6442C29.7047 10.6892 28.692 10.1041 28.692 10.2391C28.692 10.6442 28.5795 10.4416 28.5795 10.8467C28.5795 10.9142 28.467 12.467 28.3544 12.467C28.1294 12.467 27.7018 13.2096 27.4993 13.2771C26.8692 13.5021 26.5542 13.3221 25.834 13.1421C25.6315 13.097 25.5865 12.6695 25.4515 12.512C25.2265 12.2644 24.6189 12.512 24.5739 12.4219C24.5739 12.4219 24.5063 12.2194 24.5288 12.1294C24.5288 12.0394 24.3038 11.7018 24.2363 11.5668C24.1688 11.4543 24.1013 11.3193 23.9888 11.2068C23.8312 11.0492 22.571 10.4191 22.5485 10.3741C22.5485 10.3741 21.9409 10.1266 21.6934 10.1491C21.5359 10.1491 21.4009 10.1941 21.2433 10.2166C21.2433 10.2166 20.9508 10.2841 20.8158 10.3291C20.6132 10.4191 18.5654 11.4543 18.5654 11.4543C17.8903 11.6793 17.8003 12.5795 17.5978 13.1421C17.5077 13.3896 17.3727 13.6371 17.2602 13.8847C17.1702 14.0647 17.1252 14.2897 17.0352 14.4923" fill="var(--fill-0, #C3BFB7)"/>
<path id="Vector_2" d="M52.6132 12.2419C52.7257 12.4669 49.1702 11.4093 49.2377 14.8523C49.3052 18.2953 49.8228 18.9254 50.0703 20.8382C50.3178 22.751 50.4304 24.3938 50.1378 24.5963C49.3052 25.1814 47.8425 25.9465 48.4726 26.1266C49.1026 26.3291 48.9001 27.1392 49.9353 26.7117C50.9704 26.2616 50.9479 26.3291 51.218 24.7314C51.4655 23.1336 51.8031 22.0534 51.4655 20.8382C51.1505 19.6231 51.9831 18.5429 52.2306 20.8382C52.4782 23.1336 52.5457 24.6638 52.8607 25.429C53.1758 26.1941 54.706 26.5766 54.7735 26.3291C54.841 26.0816 55.8537 24.1688 56.6863 24.2813C57.519 24.4163 57.3839 22.1209 58.2841 22.301C58.2841 22.301 58.5316 25.3614 59.3643 26.1266C60.1969 26.8917 60.4444 26.5766 61.142 26.1266C61.8396 25.6765 63.8199 19.4205 63.8875 18.2728C63.955 17.1252 65.1027 16.36 63.3699 14.7623C61.6371 13.1645 58.5316 11.7693 56.9339 12.8495C55.3361 13.9297 53.8734 14.5148 53.2883 13.8171C52.7032 13.1195 52.4557 11.9719 52.5907 12.2194" fill="var(--fill-0, #A0ACBC)"/>
<path id="Vector_3" d="M25.8341 5.04079C25.5415 5.04079 25.3165 4.95077 25.0464 4.86075C24.7314 4.72573 24.3488 4.59072 23.8763 4.72574C24.0563 3.53305 24.6414 2.20534 25.609 1.86779C26.4192 1.57524 27.4093 1.57524 28.1969 1.86779C28.0619 1.86779 27.9269 1.8903 27.7694 1.9128C27.4993 1.9128 27.2293 1.95781 27.0042 2.02532C26.5092 2.18284 26.3291 2.29536 26.2616 2.45288C26.1941 2.61041 26.2616 2.74543 26.3066 2.88045C26.3741 3.03797 26.4417 3.26301 26.4191 3.57806C26.4191 3.78059 26.2841 3.91561 26.1716 4.09564C26.0141 4.32067 25.8116 4.61322 25.8341 5.04079ZM24.0563 6.59353C24.0563 6.59353 24.0113 6.59353 23.9888 6.61603C23.9888 6.57103 23.9888 6.52602 23.9663 6.48101C23.9888 6.52602 24.0338 6.54852 24.0563 6.57102M23.6737 6.81856C23.6512 6.84107 23.6287 6.86357 23.6062 6.88607C23.5387 6.68354 23.4712 6.48101 23.4037 6.27848C23.2462 5.82841 23.0886 5.35583 22.9536 4.88326C22.5936 3.53305 22.436 1.77778 23.6512 1.12518C24.1013 0.900141 24.5964 0.900141 25.1365 0.900141C25.4065 0.900141 25.699 0.900141 25.9691 0.900141C26.3066 0.855134 26.6217 0.720108 26.9367 0.607591C27.2968 0.450066 27.6343 0.315049 27.9269 0.337553C28.2869 0.337553 28.692 0.607595 28.872 0.900141C28.9846 1.10267 28.9846 1.3052 28.872 1.53024C28.827 1.59775 28.782 1.66525 28.7145 1.71026C27.7919 1.21518 26.5317 1.19268 25.5415 1.53024C24.1013 2.02531 23.4487 4.32067 23.5162 5.7834C23.5162 6.16596 23.6062 6.50351 23.6962 6.81856M23.7862 7.20113C23.8988 7.58369 23.9888 7.92124 23.9663 8.19128V8.14627V8.10127C23.8988 7.83122 23.8313 7.56118 23.7412 7.29114C23.7412 7.26863 23.7862 7.22363 23.8087 7.20113M23.7187 8.70886C23.6287 8.79887 23.5162 8.88889 23.3587 8.9564C23.3587 8.59634 23.4037 8.16877 23.5162 7.78621C23.5612 7.92123 23.5837 8.05626 23.6062 8.19128V8.23628C23.6512 8.39381 23.6737 8.55133 23.7187 8.70886ZM57.204 8.07876C57.0239 8.50633 56.9339 9.0014 56.9564 9.51899C56.7989 9.38396 56.5964 9.31645 56.3938 9.24894C56.1913 9.18143 55.9663 9.11392 55.9213 9.00141C55.9213 8.91139 56.0563 8.57384 56.1463 8.3713C56.2813 8.07876 56.3938 7.83122 56.3713 7.6512C56.3713 6.90858 55.7412 6.391 55.2011 6.391C54.8636 6.391 54.5035 6.57102 54.436 7.11111C53.9184 7.11111 53.7834 6.99859 53.7384 6.93108C53.6484 6.79606 53.7834 6.45851 53.9409 6.14346C54.0535 5.89592 54.166 5.64838 54.211 5.42334C54.4585 4.20815 53.6034 3.96062 52.9058 3.78059C52.6807 3.71308 52.4557 3.66807 52.2757 3.57806C52.3207 3.35302 52.4332 3.1955 52.6582 3.12799C53.4909 2.83544 55.2686 3.62306 55.6962 4.09564C56.4163 4.90576 56.7089 6.14346 56.9789 7.24613C57.0239 7.44866 57.0689 7.62869 57.1139 7.80872C57.1364 7.89873 57.1589 7.98875 57.1814 8.07876M57.3615 8.73136C57.474 9.29395 57.564 9.87904 57.609 10.4416C57.564 10.4416 57.519 10.4416 57.4965 10.4416C57.3165 9.87904 57.2715 9.27145 57.384 8.73136M23.8087 9.06891C23.9438 9.65401 24.1238 10.1941 24.3938 10.7567C23.9438 10.3966 23.5837 9.94655 23.4487 9.51899C23.4487 9.45147 23.4037 9.38397 23.4037 9.31645C23.5612 9.24894 23.6962 9.15893 23.8087 9.06891ZM27.8594 9.74402C27.5893 9.94655 27.4318 10.2616 27.2968 10.5541C27.0493 11.0717 26.8467 11.5218 26.0366 11.4768C25.699 11.4768 25.339 11.3418 25.0014 11.1617C24.5064 10.3966 24.2813 9.6315 24.0788 8.79887C24.1013 8.75386 24.1463 8.70886 24.1688 8.66385C24.4388 8.19128 24.2813 7.65119 24.1013 7.0436C24.1013 7.02109 24.1013 6.97609 24.0788 6.95359C24.1913 6.88607 24.3263 6.86357 24.4614 6.88607C24.5514 6.88607 24.6189 6.84106 24.6414 6.77355C24.6639 6.70604 24.6414 6.61603 24.5739 6.57102C24.0788 6.27848 23.6962 5.64838 23.8988 5.06329C24.3038 4.92827 24.5964 5.06329 24.9339 5.17581C25.249 5.28833 25.609 5.44585 26.0591 5.35583C26.1041 5.35583 26.1491 5.31083 26.1716 5.28833C26.1941 5.24332 26.2166 5.19831 26.1941 5.1533C26.1266 4.77074 26.2841 4.54571 26.4642 4.29817C26.5992 4.09563 26.7567 3.89311 26.7792 3.60056C26.8242 3.1955 26.7117 2.92545 26.6442 2.74543C26.6442 2.67791 26.5992 2.61041 26.5992 2.5879C26.5992 2.5879 26.6667 2.49789 27.1618 2.34036C27.3418 2.27285 27.5893 2.25035 27.8369 2.25035C28.1294 2.25035 28.4445 2.20534 28.692 2.11533C28.9621 2.29536 29.1871 2.52039 29.3446 2.81294C29.4571 3.01547 29.5471 3.17299 29.6146 3.30801C29.8397 3.69057 29.8622 3.75808 29.8622 4.20815C29.8622 4.34317 29.8622 4.4557 29.8397 4.59072C29.7947 5.01828 29.7272 5.46835 30.2447 6.27848C30.2672 6.4135 30.1997 6.48101 29.9972 6.68354C29.6822 6.95358 29.2096 7.38115 29.5021 8.41631C29.5471 8.55134 29.5696 8.75387 29.5021 8.84388C29.3896 8.9789 29.0071 8.9789 28.6245 8.9789C28.3995 8.9789 28.1744 8.9789 27.9494 8.9789C27.9044 8.9789 27.8594 9.0014 27.8369 9.04641C27.8144 9.09142 27.7919 9.13643 27.7919 9.18143C27.7919 9.38396 27.8369 9.58649 27.8819 9.81153M56.6864 9.74402C56.5963 10.0591 56.5063 10.3066 56.3938 10.5541C56.0113 11.2968 55.2686 12.1519 54.526 12.3094C54.1885 12.3769 53.8959 12.3094 53.6034 12.0844C53.4234 11.9494 53.3333 11.7468 53.1983 11.5443C53.0408 11.2743 52.8608 10.9592 52.5232 10.7342C52.2532 10.5766 51.9606 10.5316 51.6681 10.4866C51.308 10.4416 50.9705 10.3741 50.7454 10.1266C50.4979 9.83404 50.5204 9.49648 50.5654 9.11392C50.6104 8.79888 50.6329 8.48382 50.5204 8.16877C50.4304 7.96624 50.2729 7.87623 50.1378 7.78621C49.9803 7.67369 49.8903 7.62869 49.8903 7.47116C49.8903 7.38115 49.9803 7.29114 50.0928 7.17862C50.1828 7.08861 50.2729 7.02109 50.3404 6.90858C50.5879 6.52602 50.6329 6.23347 50.7004 5.94093C50.7454 5.71589 50.7904 5.46835 50.9255 5.17581C51.038 4.95077 51.173 4.79324 51.308 4.63572C51.5331 4.36568 51.7806 4.09564 51.8481 3.60056C51.8481 3.53305 51.8481 3.46554 51.7806 3.44304C51.5556 3.30801 51.308 3.08298 51.353 2.88045C51.4431 2.43038 52.6357 2.02531 53.2433 1.9353C54.616 1.73277 55.6062 1.9353 56.5288 2.54289C57.4515 3.17299 57.9691 4.00562 58.1716 5.19831V5.24332C58.2616 5.7834 58.3741 6.39099 58.1716 6.88607C58.1041 7.0661 57.9241 7.22363 57.744 7.40366C57.654 7.49367 57.564 7.56118 57.474 7.6512C57.429 7.47117 57.384 7.31364 57.339 7.11111C57.0689 5.98593 56.7314 4.70324 55.9663 3.8256C55.4712 3.26301 53.5584 2.40787 52.5682 2.74543C52.1857 2.88045 51.9606 3.17299 51.9381 3.62306C51.9381 3.69057 51.9606 3.75808 52.0281 3.78059C52.2757 3.91561 52.5682 4.00562 52.8383 4.07313C53.6034 4.27566 54.076 4.45569 53.8959 5.31082C53.8509 5.51336 53.7384 5.7384 53.6484 5.96343C53.4459 6.3685 53.2658 6.77356 53.4684 7.0661C53.6259 7.31364 53.986 7.40365 54.6161 7.38115C54.7061 7.38115 54.7736 7.31364 54.7736 7.22362C54.7736 6.86357 54.9536 6.66104 55.2011 6.66104C55.5387 6.66104 56.0113 7.02109 56.0338 7.58368C56.0338 7.6962 55.9212 7.94374 55.8312 8.16877C55.6287 8.59634 55.5387 8.88889 55.6062 9.06891C55.7187 9.31645 56.0113 9.40647 56.2813 9.49648C56.4388 9.54149 56.5738 9.5865 56.6864 9.67651M27.9269 10.1716C28.0169 10.8917 28.0394 11.6568 27.5443 12.1069C27.2518 12.3769 26.9367 12.4894 26.5992 12.4444C26.2166 12.3994 25.8116 12.1294 25.429 11.7243C25.6315 11.7918 25.8341 11.8368 26.0366 11.8368C27.0718 11.8819 27.3643 11.2518 27.6118 10.7342C27.7019 10.5316 27.7919 10.3291 27.9269 10.1941M57.1139 10.4641C57.0689 10.4641 57.0464 10.5091 57.0239 10.5316C57.0239 10.5767 57.0014 10.6217 57.0239 10.6667C57.2039 11.2068 56.9114 11.9044 56.1913 12.512C55.3587 13.2321 54.2785 13.5471 53.6934 13.2546C53.2658 13.0295 53.1533 12.5345 53.1308 12.0844C53.1983 12.1744 53.2883 12.2644 53.3784 12.3319C53.7384 12.6245 54.1435 12.7145 54.5935 12.6245C55.5612 12.4219 56.3713 11.2968 56.6864 10.6892C56.7989 10.4416 56.9114 10.1941 56.9789 9.90155C57.0014 10.0816 57.0464 10.2616 57.1139 10.4416M60.737 16.5851C60.692 16.7426 60.647 16.9451 60.5795 17.1027C60.377 17.7778 60.2194 18.3629 60.1969 18.7679C60.1744 17.8903 60.2419 16.8776 60.737 16.5626M31.3699 15.4599C31.955 16.4276 31.2349 17.9353 30.6948 19.0605C30.5823 19.308 30.4698 19.5331 30.3798 19.7581C30.3798 18.2504 30.5148 16.5401 31.0099 15.7975C31.1224 15.6399 31.2349 15.5274 31.3699 15.4824M50.7454 16.7876C50.7904 16.7876 50.8805 16.8776 51.038 17.0577C51.398 17.5077 51.5331 18.6329 51.6231 19.3755C51.6231 19.5105 51.6456 19.6231 51.6681 19.7356C51.6906 19.9606 51.7131 20.2082 51.7131 20.4332C51.6681 20.2757 51.6231 20.0956 51.5556 19.9381C51.4655 19.6456 51.353 19.3755 51.2405 19.1055C51.1055 18.7679 50.9705 18.4079 50.858 18.0478C50.7004 17.5527 50.6554 16.9226 50.7229 16.7876M18.9705 15.6174C18.993 15.6174 19.0155 15.6174 19.0605 15.6174C19.3756 15.685 19.5106 16.2475 19.5106 17.2827V17.3277C19.5106 18.2053 19.308 18.993 19.083 19.8031C18.9705 20.2307 18.858 20.6582 18.768 21.1083C18.813 20.0956 18.7455 19.1055 18.6779 18.1603C18.6779 17.8678 18.6329 17.5978 18.6104 17.3277V17.2377C18.5879 16.8776 18.5204 15.9325 18.813 15.6849C18.8355 15.6624 18.8805 15.6174 18.9705 15.6174ZM49.0352 24.6188C48.6976 24.7539 48.2701 24.7989 47.775 24.7764C46.8748 24.7314 45.3221 23.3361 45.2096 22.3685C45.4121 22.3685 45.5921 22.4585 45.7497 22.661C45.7947 22.706 45.8622 22.7286 45.9072 22.7286C45.9747 22.7286 46.0197 22.6835 46.0422 22.616C46.1322 22.301 46.1547 22.0759 46.0422 21.7834C46.0872 21.7609 46.1097 21.7384 46.1097 21.7609C46.2447 21.7834 46.4248 22.346 46.4923 22.571C46.5598 22.7736 46.6048 22.9311 46.6723 23.0436C46.6948 23.0886 46.7623 23.1336 46.8073 23.1336C46.8748 23.1336 46.9198 23.1111 46.9423 23.0661C47.0774 22.8861 47.0999 22.661 47.0999 22.4585C47.1224 22.0985 47.1674 22.0534 47.3249 22.0534C47.4599 22.0534 47.4824 22.121 47.5724 22.301C47.6399 22.5035 47.7525 22.7961 48.18 22.7286C48.2025 22.9086 48.18 23.2236 48.18 23.4487C48.1575 23.9212 48.135 24.2363 48.3376 24.3488C48.4726 24.4163 48.5851 24.3938 48.6526 24.3488C48.9002 24.2363 49.0127 23.8537 49.1252 23.4937C49.1252 23.4937 49.1252 23.4937 49.1252 23.4487C49.1252 23.5837 49.1252 23.7862 49.1252 23.9887C49.1027 24.2138 49.0577 24.4163 49.0127 24.6188M30.1322 21.6034C30.1772 21.9634 30.1997 22.256 30.2447 22.4135C30.2898 22.661 30.4023 22.9761 30.5373 23.3586C30.8524 24.2813 31.2799 25.5415 30.9199 26.0141C30.8298 26.1491 30.6498 26.2166 30.4023 26.2166C30.2447 26.2166 30.1097 26.1941 29.9522 26.1491C29.8622 25.519 29.7947 24.9114 29.7947 24.3713C29.7947 23.4262 29.9072 22.5035 30.1322 21.6034ZM20.7033 26.0816C20.5457 26.1941 20.3882 26.3516 20.2307 26.4866C20.1407 26.3516 19.9831 26.2166 19.7806 26.0366L19.6006 25.9015C19.083 25.474 18.7229 25.2039 18.3629 24.5963C17.9353 23.8762 17.6428 23.5162 16.9002 23.0661C16.7876 22.9986 16.6751 22.9536 16.5626 22.8861C16.1575 22.6835 15.73 22.4585 15.595 22.0985C16.0225 22.1435 16.4726 22.391 16.8777 22.616C17.3952 22.9086 17.8228 23.1786 18.2054 22.9761C18.3854 22.8861 18.5204 22.6835 18.6104 22.3685C18.5654 23.6062 18.858 24.5288 19.4656 25.2264C19.7806 25.5865 20.1857 25.8565 20.6808 26.0816M58.6217 26.6442C58.5542 26.6442 58.4867 26.6442 58.3966 26.6667H58.3516C55.9212 26.9367 55.2686 26.6667 55.1111 26.4641C55.0886 26.4416 55.0661 26.3966 55.0661 26.3291C55.2011 26.2841 55.3362 26.2616 55.4712 26.2166C55.8987 26.1041 56.3263 25.9916 56.7539 25.8565C56.7989 25.8565 56.8439 25.8115 56.8664 25.7665C56.8664 25.7215 56.8664 25.6765 56.8664 25.6315C56.8214 25.519 56.7989 25.4065 56.7539 25.2714C56.7314 25.1814 56.7089 25.0914 56.6864 25.0014C56.7764 25.0239 56.8664 25.0689 56.9564 25.0914C57.5415 25.294 58.2841 25.564 58.7792 24.8664C58.8017 24.8214 58.8242 24.7539 58.7792 24.7089C58.7342 24.5738 58.6667 24.4388 58.6217 24.3263C58.4867 24.0112 58.3516 23.7187 58.3741 23.3812C58.7792 23.5162 59.0492 23.6962 59.1617 23.9437C59.4093 24.4163 59.1618 25.0914 58.8917 25.7665C58.7792 26.0591 58.6667 26.3516 58.5992 26.6442M29.6597 26.3966C29.6597 26.4641 29.6597 26.5541 29.6822 26.6217C29.6822 26.7342 29.7047 26.8467 29.7272 26.9367C27.9494 26.2841 25.6765 26.2841 24.3263 26.2841C23.2011 26.2841 22.256 26.1941 21.5134 25.9916C22.8861 25.339 24.7764 25.3165 26.1266 25.4965C26.3066 25.519 26.4867 25.5415 26.6667 25.564C27.2743 25.6315 27.8819 25.7215 28.4445 25.9015C28.647 25.9691 28.8495 26.0591 29.0746 26.1716C29.2771 26.2616 29.4571 26.3516 29.6597 26.4191M51.6681 21.6484C51.6681 21.8284 51.6456 21.9859 51.6231 22.166C51.6231 22.301 51.6006 22.436 51.5781 22.571C51.5781 22.7961 51.5331 23.0661 51.5331 23.3361C51.4656 24.5513 51.3755 26.1941 50.5429 26.7567C50.1603 27.0042 49.6428 27.0267 48.9902 26.8017C48.6076 26.6667 48.135 26.3966 48.0675 26.1266C48.0225 25.9466 48.0225 25.8565 48.0225 25.834C48.045 25.834 48.1125 25.834 48.18 25.834C48.3601 25.834 48.6301 25.8565 48.8551 25.6765C49.0577 25.5415 49.2152 25.2264 49.3277 24.8664C49.5753 24.7539 49.7778 24.5963 49.9353 24.4163C50.3629 23.9212 50.4979 23.2011 50.3404 22.346C50.2279 21.7159 50.0028 21.0408 49.8003 20.3207C49.1702 18.2504 48.4501 15.9325 49.4627 14.1097C50.0253 13.1195 51.6681 12.0619 52.8158 11.9494C52.7933 12.962 53.1983 13.4121 53.5584 13.5921C54.3685 13.9972 55.6287 13.5021 56.4388 12.8045C57.0239 12.2869 57.384 11.7018 57.429 11.1617C57.474 11.2292 57.519 11.3193 57.5865 11.3868C57.564 11.7243 57.4965 12.0394 57.384 12.3769C56.9564 13.7722 55.9438 14.6498 54.8636 15.5724C54.7286 15.6849 54.5935 15.82 54.436 15.9325C52.5457 17.5752 52.8608 20.1631 53.1308 22.4585C53.1983 23.0886 53.2658 23.6737 53.3108 24.2138V24.3488C53.3558 25.1364 53.4008 25.9015 53.3108 26.6442C53.2208 26.6667 53.1308 26.7117 53.0408 26.7342C52.9058 26.6892 52.8158 26.6442 52.7482 26.5766C52.4557 26.3066 52.4557 25.6315 52.4557 25.1139C52.4557 24.9114 52.4557 24.7314 52.4557 24.5738C52.3432 23.5612 52.2532 22.5935 52.0506 21.6484C52.1182 21.0183 52.1407 20.3657 52.0506 19.7131C52.0506 19.6006 52.0281 19.488 52.0056 19.353C51.8931 18.5204 51.7581 17.3952 51.353 16.8776C51.2405 16.7426 50.9255 16.3376 50.6329 16.4951C50.1829 16.7426 50.5879 18.1603 50.5879 18.1828C50.7004 18.5654 50.8355 18.9029 50.9705 19.263C51.083 19.533 51.173 19.8031 51.263 20.0956C51.443 20.6357 51.5781 21.1533 51.6906 21.6709M57.9466 10.8917C58.6892 11.1392 59.7694 11.7468 60.422 12.1069C60.692 12.2644 60.917 12.3769 61.0971 12.4669C62.3573 13.1195 63.2124 14.1997 63.6625 15.775C64.4276 18.3404 64.5176 22.2335 63.2124 24.7539C62.6948 25.7665 61.2771 27.3643 60.0169 27.6118C59.5668 27.7018 59.1843 27.6118 58.8467 27.3868C58.8467 27.2518 58.8467 27.0942 58.8692 26.9142C59.4318 26.7792 59.8369 26.5541 60.1069 26.1716C60.467 25.6765 60.557 24.9789 60.3544 24.0112C60.1969 23.2461 60.2194 22.5035 60.2644 21.7159C60.2644 21.1758 60.3094 20.6357 60.2644 20.0506C60.2644 19.9606 60.2644 19.8481 60.2419 19.7131C60.2419 19.5556 60.2194 19.353 60.1969 19.1505C60.2194 19.2855 60.2869 19.3755 60.3769 19.443C60.6695 19.6456 61.0971 19.353 61.4121 19.128C62.6273 18.1828 62.4473 15.7525 61.7947 14.5598C61.2096 13.5021 60.3094 12.9395 59.4543 12.3994C59.0492 12.1519 58.6217 11.8819 58.2166 11.5443C58.1041 11.4543 57.9916 11.3418 57.9016 11.2293C57.9016 11.0942 57.9016 10.9592 57.9016 10.8467M22.5935 26.5542C22.346 26.7792 22.031 26.8242 21.6709 26.8917C21.2658 26.9592 20.8383 27.0267 20.4782 27.3868C20.2307 27.6343 20.0957 27.9044 19.9831 28.1294C19.9831 28.0169 20.0282 27.8819 20.0507 27.7693C20.1182 27.5443 20.1857 27.3868 20.2307 27.2518C20.2982 27.1167 20.3432 27.0042 20.3432 26.8917C20.5682 26.6442 20.8158 26.4191 21.0633 26.2616C21.4909 26.3966 21.986 26.5091 22.5711 26.5766M19.6456 28.7595C19.5331 28.872 19.3981 28.9845 19.173 29.0745C19.2855 28.647 19.4656 28.1969 19.7131 27.7693C19.6456 28.1069 19.6231 28.4444 19.6456 28.7595ZM18.7455 29.5246C18.7455 29.5696 18.7455 29.6371 18.7455 29.6821C18.6554 29.6821 18.5654 29.6371 18.4754 29.5921C18.5429 29.5921 18.5879 29.5696 18.6554 29.5471C18.7004 29.5471 18.7229 29.5471 18.768 29.5246M24.3038 30.3797C24.3038 30.4023 24.2588 30.4473 24.1913 30.5373C23.8763 30.9198 22.6611 30.8748 22.076 30.7623C21.2883 30.6273 20.6583 30.2222 20.2982 29.6146C20.1407 29.3671 20.0507 29.1195 20.0056 28.8495C20.0957 28.7145 20.1632 28.557 20.2307 28.3994C20.3432 28.1519 20.4557 27.8819 20.7258 27.6118C20.9958 27.3418 21.3559 27.2743 21.7384 27.2068C22.121 27.1392 22.5711 27.0717 22.9086 26.7342C22.9311 26.8242 22.8636 26.9142 22.7286 27.0942C22.5711 27.2743 22.3235 27.5893 22.6386 27.9044C22.8861 28.1519 23.2012 28.0394 23.4487 27.9269C23.6062 27.8593 23.7862 27.8143 23.8763 27.8594C23.9213 27.8819 23.9888 27.9719 24.0563 28.1744C23.9888 28.2419 23.9213 28.3094 23.8763 28.3769C23.8312 28.4219 23.7862 28.4894 23.7412 28.512C23.6737 28.557 23.6512 28.602 23.6512 28.6695C23.6512 28.737 23.6962 28.782 23.7637 28.8045C23.8087 28.8045 23.8538 28.8495 23.8988 28.872C23.9438 28.8945 24.0113 28.9395 24.0788 28.962C24.0788 29.2996 23.6512 29.5696 23.3137 29.8172C23.1561 29.9297 23.0211 30.0197 22.9311 30.1097C22.8861 30.1547 22.8636 30.2222 22.8861 30.2672C22.9086 30.3122 22.9536 30.3797 22.9986 30.3797C23.1336 30.4023 23.3137 30.3797 23.6062 30.3797C23.8087 30.3572 24.1913 30.3122 24.3263 30.3572M34.7905 31.6174C34.7905 31.6174 34.7455 31.6174 34.723 31.6174C34.6554 31.6399 34.6104 31.7075 34.6104 31.775C34.6104 31.91 34.6104 32.0675 34.6329 32.225C34.6779 32.8326 34.7455 33.5302 34.3404 33.8903C34.1829 33.6202 34.1379 33.1927 34.1154 32.7876C34.0703 32.2475 34.0253 31.6849 33.6428 31.4149C33.3052 31.1674 33.0127 31.0999 32.8102 31.2124C32.4501 31.3924 32.4501 32.0225 32.4501 32.5626C32.4501 32.7876 32.4501 33.1027 32.4051 33.1927C32.2926 33.2827 32.135 33.3502 32.045 33.3052C31.8875 33.2152 31.5499 32.6301 32.045 29.3896C32.075 29.1946 32.0825 29.082 32.0675 29.052C31.73 28.1294 30.9649 27.5218 30.0422 27.1167C30.0197 26.9367 29.9972 26.7792 29.9747 26.5992C29.9747 26.5992 29.9747 26.5541 29.9747 26.5316C30.1097 26.5541 30.2448 26.5766 30.3798 26.5766C30.7398 26.5766 31.0099 26.4641 31.1674 26.2391C31.6175 25.609 31.1674 24.3038 30.8298 23.2686C30.7173 22.9086 30.6048 22.5935 30.5598 22.3685C30.4923 22.0534 30.4248 21.4233 30.3798 20.6582C30.4698 20.4107 30.5598 20.1632 30.6498 19.9156C30.7398 19.7131 30.8523 19.4655 30.9649 19.218C31.55 17.9803 32.3601 16.2925 31.55 15.1899C31.505 15.1449 31.4374 15.1224 31.3924 15.1224C31.1224 15.1674 30.8973 15.3249 30.6948 15.6174C30.0197 16.6076 29.9297 18.9255 30.0197 20.6357C29.6146 21.8284 29.4121 23.1111 29.4121 24.4163C29.4121 24.9339 29.4796 25.474 29.5471 26.0591C29.4121 26.0141 29.2996 25.9466 29.1646 25.879C28.9395 25.789 28.7145 25.6765 28.4895 25.609C27.9044 25.429 27.2518 25.339 26.6442 25.2714C26.4642 25.2714 26.2841 25.2264 26.1041 25.2039C24.2813 24.9564 22.4585 25.1589 21.2433 25.7665C21.1533 25.8115 21.0858 25.8565 21.0183 25.9015C20.4557 25.699 20.0282 25.4065 19.7131 25.0464C19.083 24.3488 18.8355 23.3361 18.9705 21.9634C19.038 21.2433 19.218 20.5907 19.3755 19.9606C19.5781 19.1505 19.8031 18.3179 19.8031 17.3952V17.3502C19.8031 16.7876 19.8031 15.5049 19.083 15.3474C18.813 15.3024 18.6554 15.3924 18.5429 15.4824C18.1153 15.8425 18.1829 16.8551 18.2279 17.3277V17.4177C18.2504 17.6878 18.2729 17.9803 18.2954 18.2503C18.3854 19.443 18.4754 20.6807 18.3404 21.9409C18.2954 22.391 18.1829 22.661 18.0479 22.7286C17.8453 22.8411 17.4628 22.616 17.0577 22.3685C16.5626 22.0759 15.9775 21.7384 15.3924 21.8059C15.3024 21.8059 15.2349 21.8959 15.2349 21.9859C15.2349 22.6385 15.8875 22.9761 16.4051 23.2461C16.5176 23.3136 16.6301 23.3586 16.7201 23.4262C17.4177 23.8537 17.6653 24.1688 18.0703 24.8439C18.4754 25.4965 18.858 25.8115 19.3755 26.2391L19.5556 26.3741C19.8256 26.5992 19.9606 26.7117 19.9831 26.8017C19.3756 27.4993 18.9255 28.3769 18.768 29.2096C18.7004 29.2096 18.6104 29.2546 18.5429 29.2546C18.3854 29.2996 18.2054 29.3221 18.0479 29.3671C17.3052 28.782 16.4501 27.6568 16.09 27.2068L15.9775 27.0717C14.7848 25.519 14.2222 24.0338 14.3123 22.526C14.3798 21.4008 14.6948 20.5457 15.0324 19.6231C15.1674 19.263 15.3024 18.8804 15.4374 18.4754C15.6625 17.7778 15.7975 17.0577 15.91 16.3601C16.045 15.6399 16.18 14.9198 16.4051 14.2222C17.4402 11.0942 20.0056 10.3516 22.7511 9.58649C22.8636 9.56399 22.9761 9.51898 23.0661 9.49648C23.0661 9.56399 23.0886 9.609 23.1111 9.67651C23.3137 10.3516 24.0113 11.0492 24.7764 11.4768C25.0464 11.8819 25.699 12.7145 26.5542 12.827C26.9817 12.8945 27.4093 12.737 27.7694 12.3994C28.4445 11.7918 28.377 10.8242 28.2419 9.99156C28.2869 9.99156 28.3319 9.96905 28.377 9.94655C29.0296 9.81153 30.6723 10.7792 31.3699 11.2518C32.4501 12.0169 33.1252 13.2096 33.3727 14.8523C33.5078 15.73 33.6653 16.5626 33.8003 17.3952C33.9128 18.0253 34.0253 18.6779 34.1379 19.353C34.3404 20.6582 34.3404 22.0309 34.3404 23.3812C34.3404 23.6062 34.3404 23.8537 34.3404 24.0788C34.3404 25.0239 34.3629 25.7665 34.4304 26.4641C34.4529 26.7567 34.5429 27.0492 34.6329 27.3418C34.7454 27.7243 34.8355 28.0844 34.813 28.4444C34.7005 28.4444 34.5429 28.3994 34.3854 28.3769C33.6428 28.2419 32.6076 28.0394 32.4501 28.692C32.3151 29.1871 33.1702 29.4346 33.9578 29.6596C34.2279 29.7271 34.4979 29.8172 34.5879 29.8622C35.308 30.2447 36.7258 31.5949 36.8833 32.6301C36.9283 32.8776 36.8833 33.0802 36.7708 33.2602C36.6357 33.1027 36.5457 32.9226 36.4782 32.7201C36.3657 32.4501 36.2307 32.18 35.9831 31.955C35.9156 31.8875 35.8031 31.91 35.7581 31.955C35.7356 31.9775 35.7131 32 35.6906 32.0225C35.6456 32.0675 35.6231 32.135 35.6456 32.2025C35.6456 32.27 35.6906 32.315 35.7131 32.3826C35.8706 32.8776 36.0281 33.2827 35.9831 33.8003C35.6681 33.8003 35.5331 33.3952 35.353 32.7426C35.2405 32.3601 35.1505 31.9775 34.948 31.775C34.9255 31.73 34.8805 31.73 34.8355 31.73M53.2208 27.1167C53.1308 27.5218 52.9958 27.9269 52.7933 28.3094C52.3432 29.1195 51.6006 29.7721 50.8805 30.4022C50.5654 30.6723 50.2504 30.9423 49.9803 31.2124C48.8101 32.3601 48.0225 33.7103 47.64 35.2855C47.3474 34.903 47.0324 34.5204 46.6723 34.1828C46.7623 33.6878 46.9199 33.1927 47.1449 32.6976C47.73 31.4149 48.7426 30.6273 49.8003 29.7722C50.0928 29.5246 50.4079 29.2771 50.7229 29.0295C51.0155 28.782 51.2855 28.512 51.5331 28.2644C52.0506 27.7693 52.4782 27.3193 53.0633 27.0717C53.1083 27.0717 53.1758 27.0942 53.2208 27.0942M63.5499 35.308C63.5049 35.398 63.2124 35.6006 62.7173 35.5105C62.6948 35.5105 62.6498 35.5105 62.6273 35.5105C62.7848 35.398 62.9423 35.3305 63.0999 35.308C63.3699 35.263 63.5049 35.308 63.5499 35.308ZM32.2476 35.1505C32.2926 35.4205 32.2476 35.6231 32.09 35.7356C31.9325 35.8481 31.7075 35.8706 31.4374 35.8706C31.7075 35.5331 32 35.263 32.2476 35.1505ZM56.3488 43.1617C56.8439 43.1617 57.564 43.4318 57.8341 43.7243C57.9466 43.8594 58.0141 43.9719 58.0591 44.0844C58.0141 44.0844 57.9691 44.0394 57.9016 44.0169C56.6414 43.5668 56.2138 43.3193 56.0788 43.1842C56.1688 43.1617 56.2588 43.1392 56.3488 43.1392M47.82 36.1631C48.6976 37.5809 49.2152 39.1336 49.5077 40.1913C50.0028 42.1041 50.4529 44.1069 50.3179 46.0422C49.8003 45.4571 49.3502 44.872 49.0802 44.0619C49.0352 43.9269 48.9902 43.7918 48.9452 43.6343C48.5176 42.3516 48.0675 41.0464 47.8875 39.7187C47.7075 38.4135 47.685 37.2433 47.8425 36.1406M27.7919 45.8622C27.7469 45.9972 27.7244 46.1322 27.6568 46.2672C27.4318 46.1322 27.4318 46.0647 27.4318 46.0422C27.4318 45.9972 27.4318 45.9747 27.4993 45.9297C27.5668 45.8847 27.6794 45.8622 27.7919 45.8622ZM17.5303 44.557C17.6653 44.8945 17.8003 45.2546 17.8903 45.6146C18.0253 46.0647 18.0478 46.4473 18.0253 46.8073C17.7103 46.7173 17.5078 46.5823 17.3727 46.3797C17.1027 45.9297 17.3052 45.2096 17.5303 44.557ZM20.9058 46.1772C20.8383 46.2447 20.7708 46.2897 20.7033 46.3347C20.0507 46.7848 19.083 46.9198 18.3854 46.8523C18.4079 46.4473 18.3854 45.9972 18.2504 45.5021C18.1154 45.007 17.9128 44.512 17.7103 44.0394C17.7778 43.8368 17.8228 43.6568 17.8453 43.4993C18.2054 41.429 17.2602 39.6062 16.3376 37.8284C15.8875 36.9508 15.4599 36.1181 15.1674 35.263C14.6723 33.7103 14.8298 32.4051 15.6625 31.2349C16.3826 30.2447 17.0577 29.9297 18.0028 29.7046C18.3404 29.9297 18.6554 30.0647 18.9255 30.0422C19.0155 30.0422 19.083 29.9522 19.083 29.8622C19.083 29.7271 19.083 29.5921 19.083 29.4346C19.353 29.3671 19.5556 29.2546 19.7131 29.1421C19.7806 29.3671 19.8706 29.5921 20.0056 29.7947C20.4332 30.4698 21.1308 30.9198 22.0085 31.0774C22.526 31.1674 23.9888 31.3024 24.4388 30.7398C24.5514 30.6048 24.6864 30.4022 24.5964 30.1997C24.4613 29.9522 24.0338 29.9972 23.5387 30.0647C23.9663 29.7496 24.4613 29.3671 24.3713 28.827C24.3713 28.7595 24.3038 28.692 24.2363 28.692C24.1688 28.692 24.1238 28.647 24.0788 28.6245C24.0788 28.6245 24.0788 28.6245 24.0788 28.602C24.1463 28.5345 24.2138 28.4444 24.2813 28.3994C24.3488 28.3544 24.3713 28.2869 24.3713 28.2194C24.3038 27.8819 24.1913 27.6793 24.0113 27.5668C23.7862 27.4318 23.5387 27.5218 23.3137 27.6118C23.0661 27.7018 22.9311 27.7468 22.8411 27.6568C22.7736 27.5893 22.7511 27.5668 22.9536 27.3193C23.0886 27.1617 23.3137 26.8917 23.2011 26.5992C23.5387 26.5992 23.9213 26.6217 24.3038 26.6217C25.6765 26.6217 28.0169 26.6217 29.7497 27.3193C29.9522 28.7595 30.0422 30.1772 29.3221 31.0774C28.872 31.6399 28.1519 31.955 27.1168 32.0675C26.4642 32.135 25.8116 32.0675 25.204 32C24.3488 31.91 23.4712 31.82 22.5486 32.0675C20.8158 32.4951 19.6681 33.1927 19.0605 34.1603C17.8228 36.1181 18.7905 39.1111 19.5781 41.519C19.8031 42.1941 20.0057 42.8467 20.1407 43.3868C20.2082 43.6343 20.2757 43.9269 20.3657 44.2419C20.5232 44.8045 20.7033 45.4796 20.8608 46.1772M28.1519 45.8622C28.5795 45.8847 29.0746 46.0197 29.2996 46.1097C29.8172 46.3347 29.9972 46.6498 30.0197 47.0324C29.9297 47.0098 29.8397 46.9648 29.7722 46.9423C29.6597 46.8973 29.5246 46.8523 29.4121 46.8073C29.3446 46.8073 29.2321 46.7623 29.1196 46.7173C28.827 46.6498 28.377 46.5148 27.9944 46.3797C28.0619 46.1997 28.1294 46.0197 28.1744 45.8397M54.9986 47.0999C54.301 47.1224 54.076 46.4022 53.8509 45.4796C53.8059 45.2996 53.7609 45.097 53.7159 44.962C53.7159 44.8945 53.6259 44.8495 53.5584 44.8495C53.3784 44.8495 53.1533 44.8495 52.9733 45.052C52.9283 44.827 52.9058 44.6245 52.8608 44.3994C52.8158 44.1744 52.7708 43.9719 52.7708 43.8594C52.5682 42.4191 52.3432 41.1364 51.7356 39.8087C51.5781 39.4487 51.308 39.0661 51.038 38.6385C50.4304 37.7159 49.7328 36.6807 49.9578 35.8256C50.0253 35.5105 50.1604 35.3305 50.2954 35.2855C50.4529 35.2405 50.7004 35.398 50.9255 35.6681C51.0605 35.8256 51.1955 36.0281 51.2855 36.2307C51.218 36.4782 51.1955 36.7032 51.218 36.9283C51.218 36.9958 51.218 37.0633 51.218 37.1308C51.218 37.3783 51.218 37.6034 51.5556 37.8059C51.6006 37.8284 51.6456 37.8509 51.6906 37.8059C51.7356 37.8059 51.7806 37.7609 51.8031 37.7159C51.9831 37.2883 51.8706 36.7032 51.6456 36.1857C51.9606 35.128 52.9733 33.7778 54.211 32.8776C55.2686 32.1125 56.2588 31.82 56.9564 32.09C57.7215 32.4051 58.3741 33.0352 59.0042 33.6203C59.4543 34.0478 59.9044 34.4979 60.422 34.8129C60.9845 35.173 61.4796 35.443 61.9522 35.6231C61.4796 36.1406 61.0521 36.8158 60.7145 37.4008C60.557 37.6484 60.422 37.8734 60.3094 38.0309C59.6118 39.0211 58.8017 39.9662 57.8565 40.8664C57.6765 41.0464 57.4965 41.2039 57.339 41.384C56.5964 42.0816 55.8987 42.7567 55.2011 43.5443L55.0886 43.6568C54.6836 44.1069 54.256 44.557 54.256 45.2546C54.256 45.6821 54.4585 46.0197 54.661 46.3347C54.8186 46.5823 54.9536 46.8073 54.9986 47.0774M50.5429 46.8298C50.7679 47.0774 50.993 47.3249 51.218 47.5949C51.0605 47.5949 50.8805 47.5724 50.7229 47.5724C50.6554 47.5724 50.5204 47.5724 50.3854 47.5724C50.4529 47.3249 50.4979 47.0774 50.5429 46.8073M50.0253 47.6399C50.0253 47.6399 49.9803 47.6399 49.9578 47.6399C49.5978 47.685 48.9226 47.775 48.8101 47.7075C48.5176 47.5049 48.5626 46.7848 48.6076 46.2672C48.6076 46.0197 48.6301 45.7947 48.6076 45.6371C48.5401 44.782 48.3826 43.8819 48.2025 43.1617C48.0225 42.4641 47.82 41.7665 47.6174 41.0689C46.9648 38.9311 46.3123 36.7257 46.6048 34.6104C46.9424 34.9705 47.2574 35.353 47.5274 35.7356C47.3024 36.9508 47.3024 38.301 47.5274 39.7862C47.73 41.1364 48.18 42.4641 48.6076 43.7693C48.6526 43.9044 48.6976 44.0619 48.7426 44.1969C49.0577 45.1646 49.6428 45.8397 50.2504 46.5148C50.2054 46.8973 50.1378 47.2574 50.0253 47.6399ZM20.1182 50.2279C20.0732 50.3179 19.9831 50.3854 19.9156 50.4529C19.5556 50.7229 18.8805 50.858 18.5654 50.7904C18.3629 50.7454 18.2279 50.6779 18.1154 50.5879C18.723 50.2954 19.5106 50.0478 20.1182 50.2279ZM29.3221 51.5781C29.2771 51.6231 29.1196 51.7131 28.602 51.7581C27.5893 51.8481 26.8692 51.6456 26.5092 51.173C26.5092 51.173 26.5092 51.173 26.4867 51.1505C26.5317 51.1505 26.5767 51.1505 26.6217 51.1505C27.2743 51.1505 27.7694 51.1505 28.377 51.2405C28.9846 51.3305 29.2546 51.5106 29.3221 51.5781ZM58.0141 44.4444C57.9016 44.647 57.6765 44.872 57.429 45.0745C57.3615 45.1195 57.3165 45.1871 57.249 45.2321C56.0113 46.3797 55.6737 47.7074 56.1238 49.4852C56.3263 50.2053 56.5963 50.6104 57.1364 51.1505C57.2039 51.218 57.2715 51.2855 57.384 51.3755C57.699 51.6456 58.3066 52.1857 58.1491 52.4782C58.0816 52.6132 57.9241 52.7032 57.6765 52.7257C56.6414 52.8608 54.7286 51.9606 54.3685 51.6006C53.9859 51.1955 53.3784 49.4402 53.1083 47.865C53.2658 47.3474 53.1983 46.5148 53.0633 45.5696C53.0633 45.5246 53.0858 45.5021 53.1083 45.4571C53.1758 45.2996 53.2883 45.2096 53.4234 45.1871C53.4459 45.2996 53.4909 45.4346 53.5134 45.5696C53.6934 46.4023 53.9859 47.6399 55.2011 47.4374C55.2911 47.4374 55.3362 47.3474 55.3362 47.2799C55.3362 46.8523 55.1336 46.5148 54.9536 46.1997C54.7736 45.9072 54.5935 45.6371 54.5935 45.2996C54.5935 44.737 54.9311 44.3769 55.3362 43.9269L55.4487 43.8143C55.5612 43.6793 55.6962 43.5443 55.8087 43.4318C56.0338 43.6793 56.6189 43.9719 57.789 44.3769C57.8791 44.4219 57.9691 44.4444 58.0141 44.4669M20.9733 46.5598C21.4234 48.6526 21.6709 50.993 20.6583 52.1407C20.0732 52.7933 17.8903 53.4684 16.9677 53.1308C16.5176 52.9733 16.2926 52.7482 16.2926 52.4782C16.2701 51.9156 17.1027 51.128 17.8003 50.7229C17.9353 50.9029 18.1604 51.038 18.4979 51.1055C18.903 51.1955 19.6681 51.038 20.1182 50.7004C20.3432 50.5204 20.4782 50.3179 20.4782 50.1153C20.4782 50.0478 20.4332 49.9803 20.3657 49.9353C19.7581 49.6653 18.948 49.7778 17.9353 50.2504C17.8903 50.0478 17.8903 49.8003 17.9353 49.5077V49.4177C17.9578 48.8776 18.0704 48.4276 18.1604 48C18.2279 47.73 18.2729 47.4599 18.3179 47.1674C19.083 47.2574 20.1407 47.0999 20.8608 46.6048C20.8833 46.5823 20.9283 46.5598 20.9508 46.5373M53.0633 53.2883C52.4332 53.6484 52.0731 53.4684 51.3755 53.1533L51.263 53.1083C50.4754 52.7482 50.0253 52.5907 49.1027 52.5907C47.9775 52.5907 46.3348 52.5007 45.1421 51.7356C44.8045 51.533 44.1069 50.7229 44.2419 50.3404C44.3995 49.8228 45.5021 49.9353 45.9522 49.9803C46.2898 50.0028 46.6048 50.0703 46.9199 50.1378C48.0675 50.3629 49.1252 50.5654 49.8678 49.0577C50.0478 48.6976 50.1828 48.3151 50.3179 47.9325C50.4979 47.9325 50.6554 47.8875 50.7229 47.91C51.0155 47.91 51.2855 47.9325 51.5331 47.9775C53.3108 50.3404 53.8059 52.0956 53.0633 53.2883ZM32.7426 51.7806C33.8678 51.7806 34.5429 52.0506 34.6104 52.3207C34.6104 52.4107 34.6104 52.7032 33.6878 53.2208C32.5851 53.8284 31.595 54.0084 30.1322 53.8509C29.6146 53.8059 29.0746 53.8059 28.4895 53.8509C27.3868 53.8959 26.2391 53.9184 25.384 53.4459C24.6864 53.0408 24.4839 52.6357 24.6864 51.9606C24.9114 51.218 25.2265 51.128 26.0816 51.128C26.1266 51.218 26.1716 51.2855 26.2391 51.3755C26.6667 51.9606 27.4993 52.2082 28.647 52.0956C29.0971 52.0506 29.6822 51.9606 29.6822 51.6006C29.6822 51.2405 29.0521 51.0155 28.4445 50.903C27.8144 50.7904 27.2518 50.7904 26.6217 50.8129C26.5317 50.8129 26.4192 50.8129 26.3291 50.8129C26.1941 50.3854 26.2616 49.8228 26.5092 49.1477C26.6892 48.6976 26.9592 48.27 27.2293 47.7975C27.4543 47.4374 27.6569 47.0774 27.8369 46.7173C28.1744 46.8523 28.602 46.9648 29.0071 47.0774C29.1196 47.0999 29.2321 47.1449 29.2996 47.1449C29.4121 47.1899 29.5246 47.2124 29.6372 47.2574C29.7497 47.3024 29.8622 47.3474 29.9747 47.3699C29.9297 47.6174 29.8622 47.8875 29.7722 48.2025C29.5921 48.7876 29.4121 49.3727 29.5471 49.9578C29.9747 51.8031 31.7525 51.8031 32.6976 51.7806H32.7426ZM31.0549 54.256C31.9775 54.256 32.8552 54.0759 33.8678 53.5134C34.6779 53.0633 35.0605 52.6357 34.948 52.2307C34.7905 51.6456 33.7103 51.443 32.7426 51.443H32.6976C31.5275 51.443 30.2447 51.308 29.9072 49.8678C29.7947 49.3952 29.9522 48.8326 30.1097 48.2925C30.1997 48.0225 30.2673 47.73 30.3123 47.4599C30.6723 47.5499 31.0324 47.5724 31.3474 47.4149C31.91 47.1449 32.2026 46.4023 32.4276 45.8622L32.4726 45.7722C32.6751 45.2771 32.8552 44.7595 33.0352 44.2644C33.3277 43.4093 33.6428 42.5316 34.0703 41.7215C34.9255 40.0788 35.5556 38.7286 36.0957 37.4459C36.2307 37.1083 36.5232 36.6807 36.8383 36.2307C37.4684 35.3305 38.166 34.3404 37.9635 33.4627H45.1646C45.5697 33.7103 45.9522 33.9803 46.2898 34.2954C45.9072 36.5457 46.6048 38.8861 47.2799 41.1364C47.4824 41.834 47.7075 42.5316 47.865 43.2068C48.045 43.9044 48.18 44.782 48.2475 45.6146C48.2475 45.7496 48.2475 45.9747 48.2475 46.1997C48.2025 46.8523 48.1575 47.6399 48.6076 47.955C48.7876 48.0675 49.1477 48.045 49.9128 47.955C49.8003 48.27 49.6878 48.5851 49.5302 48.8776C48.9227 50.1378 48.09 49.9803 46.9649 49.7778C46.6498 49.7103 46.3123 49.6428 45.9747 49.6203C45.3896 49.5527 44.1519 49.4402 43.9044 50.2053C43.7019 50.8579 44.6245 51.7806 44.9396 51.9831C46.2223 52.7933 47.91 52.8833 49.0802 52.8833C49.9353 52.8833 50.3404 53.0183 51.083 53.3558L51.1955 53.4008C51.9156 53.7159 52.4332 53.9634 53.2208 53.4909C53.2433 53.4909 53.2658 53.4684 53.2883 53.4459C54.121 52.1857 53.7159 50.4304 52.0506 48.09C52.1857 48.1575 52.3207 48.2475 52.4557 48.3601C52.5232 48.4276 52.6357 48.4051 52.7033 48.3601C52.7258 48.3375 52.7483 48.2925 52.7708 48.27C52.7708 48.27 52.7933 48.27 52.8158 48.2475C53.1308 49.8003 53.7159 51.353 54.0985 51.7806C54.5485 52.2532 56.5738 53.1533 57.699 53.0183C58.0366 52.9733 58.2841 52.8383 58.4191 52.6132C58.7117 52.0731 58.0366 51.488 57.5865 51.083C57.4965 50.993 57.4065 50.9255 57.3615 50.8804C56.8664 50.3629 56.5964 50.0253 56.4388 49.3727C56.0113 47.73 56.3263 46.5148 57.4515 45.4571C57.4965 45.4121 57.564 45.3446 57.609 45.2996C57.8791 45.052 58.1491 44.827 58.2616 44.557C58.2841 44.557 58.3291 44.5795 58.3516 44.602C58.9592 44.8945 59.6118 45.1871 60.2869 44.647C60.5795 44.4219 60.827 44.0169 61.0521 43.6118C61.2096 43.3418 61.3671 43.0717 61.5246 42.8917C62.0422 42.2841 62.6048 41.699 63.3024 41.0239C63.6175 40.7089 63.955 40.4163 64.3151 40.0788C66.3404 38.256 68.6357 36.2307 66.9255 33.4627L79.82 33.3502C79.91 33.3502 80 33.2827 80 33.1702C80 33.0577 79.9325 32.9902 79.82 32.9902L66.6104 33.1027C66.5429 33.1027 66.4979 33.1477 66.4529 33.1927C66.4304 33.2602 66.4304 33.3277 66.4529 33.3727C68.2982 36.0281 66.1604 37.9634 64.0675 39.8087C63.7075 40.1238 63.3474 40.4388 63.0324 40.7539C62.3347 41.429 61.7722 42.0366 61.2321 42.6442C61.052 42.8467 60.8945 43.1392 60.7145 43.4093C60.512 43.7693 60.2869 44.1519 60.0394 44.3544C59.5218 44.7595 59.0717 44.557 58.4641 44.2644C58.4191 44.2419 58.3741 44.2194 58.3066 44.1969C58.3066 43.9494 58.2166 43.7018 57.9916 43.4543C57.6765 43.0942 56.8889 42.7792 56.2588 42.7792C56.6639 42.3741 57.0464 41.9916 57.474 41.609C57.654 41.4515 57.8341 41.2714 57.9916 41.0914C58.9367 40.1688 59.7693 39.2011 60.4895 38.1885C60.602 38.0309 60.737 37.8059 60.8945 37.5584C61.2546 36.9958 61.7047 36.2307 62.2222 35.7356C62.3573 35.7806 62.4698 35.8031 62.5823 35.8031C63.1674 35.8931 63.5949 35.6681 63.7525 35.443C63.82 35.3305 63.8425 35.173 63.7525 35.083C63.6625 34.9705 63.4599 34.8354 62.9424 34.9255C62.6498 34.9705 62.3798 35.128 62.1097 35.353C61.6371 35.1955 61.0971 34.9255 60.4895 34.5204C60.0169 34.2053 59.5668 33.7778 59.1393 33.3502C58.4866 32.7201 57.8115 32.0675 56.9789 31.73C56.1688 31.4149 55.0886 31.7075 53.9184 32.5626C52.8383 33.3502 51.7806 34.5879 51.3305 35.7356C51.263 35.6231 51.173 35.488 51.083 35.398C50.7454 35.0155 50.4079 34.8354 50.0928 34.903C49.8003 34.9705 49.6203 35.2405 49.5077 35.6906C49.2602 36.7032 50.0028 37.8059 50.6554 38.7736C50.9255 39.1786 51.173 39.5612 51.3305 39.8987C51.9156 41.1814 52.1407 42.4416 52.3432 43.8594C52.3432 43.9944 52.3882 44.1744 52.4332 44.4219C52.4782 44.692 52.5457 45.0745 52.6132 45.5246C52.4557 46.0872 52.5007 46.9198 52.6582 47.82C52.6132 47.91 52.5682 47.9775 52.5007 48.0225C52.5007 48.0225 52.5007 48.0225 52.4782 48.0225C52.1857 47.82 51.9156 47.7075 51.6231 47.6399C51.6231 47.6399 51.6006 47.6174 51.5781 47.5949C51.263 47.1899 50.9255 46.8298 50.6104 46.4698C50.5654 46.4248 50.5429 46.4023 50.4979 46.3572C50.7229 44.2869 50.2504 42.1491 49.7103 40.0788C49.3952 38.9086 48.8101 37.1758 47.775 35.6456C48.1125 34.0028 48.8777 32.6076 50.0703 31.4374C50.3629 31.1674 50.6554 30.8973 50.9705 30.6273C51.7131 29.9747 52.4782 29.3221 52.9508 28.4444C53.1758 28.0169 53.3333 27.5668 53.4234 27.1392C53.6034 27.1392 53.8059 27.1392 53.9634 27.1167C54.301 27.0492 54.526 26.9367 54.6161 26.7342C54.6386 26.6892 54.6386 26.6217 54.6161 26.5766C54.5935 26.5316 54.526 26.4866 54.481 26.4866C54.121 26.4641 53.8059 26.4866 53.5134 26.5316C53.5809 25.8115 53.5584 25.0689 53.5134 24.3038V24.1688C53.4684 23.6062 53.4009 23.0211 53.3333 22.391C53.0633 20.1857 52.7708 17.6878 54.526 16.1575C54.6611 16.045 54.7961 15.91 54.9536 15.7975C56.0788 14.8298 57.1364 13.9297 57.5865 12.4444C57.654 12.1969 57.7215 11.9494 57.7665 11.7018C57.8115 11.7468 57.879 11.7918 57.9241 11.8368C58.3291 12.1744 58.7792 12.4444 59.1843 12.7145C60.0619 13.2546 60.872 13.7721 61.4121 14.7623C62.0197 15.865 62.1547 18.0928 61.1196 18.8804C60.6245 19.263 60.4895 19.1955 60.4895 19.1955C60.2644 19.038 60.6695 17.6878 60.8045 17.1702C60.9395 16.6751 61.0295 16.4051 61.007 16.27C61.007 16.225 60.9845 16.18 60.9395 16.1575C60.8945 16.135 60.8495 16.1125 60.8045 16.1125C59.5218 16.315 59.7018 18.5429 59.7919 19.7581C59.7919 19.8931 59.7919 19.9831 59.8144 20.0956C59.8594 20.6582 59.8144 21.1983 59.8144 21.7159C59.7919 22.526 59.7468 23.2911 59.9269 24.1013C60.1069 24.9564 60.0394 25.564 59.7243 25.9916C59.5443 26.2391 59.2518 26.4416 58.8467 26.5542C58.9142 26.3291 59.0042 26.1041 59.0942 25.879C59.3643 25.1364 59.6568 24.3713 59.3418 23.7862C59.1393 23.4037 58.7567 23.1561 58.1491 22.9986C58.1041 22.9986 58.0591 22.9986 58.0141 22.9986C57.9691 23.0211 57.9466 23.0661 57.9466 23.1111C57.8341 23.6512 58.0141 24.0563 58.1716 24.4388C58.2166 24.5288 58.2616 24.6188 58.2841 24.7089C57.9691 25.0689 57.519 24.9564 56.9114 24.7314C56.7539 24.6864 56.5964 24.6188 56.4388 24.5738C56.3713 24.5738 56.3263 24.5738 56.2813 24.6188C56.2588 24.6414 56.2138 24.6864 56.1913 24.7089C56.1463 24.7539 56.1238 24.8439 56.1463 24.9114C56.1913 25.0239 56.2363 25.1814 56.2813 25.3165C56.2813 25.4065 56.3263 25.474 56.3488 25.564C55.9888 25.6765 55.6287 25.7665 55.2461 25.879C55.0886 25.9241 54.9086 25.9691 54.7511 26.0141C54.6836 26.0141 54.6385 26.0816 54.6385 26.1266C54.571 26.3291 54.6385 26.5316 54.7511 26.6667C55.1336 27.0942 56.2363 27.2068 58.2841 26.9817H58.3291C58.3741 26.9817 58.3966 26.9817 58.4416 26.9817C58.4191 27.1617 58.4191 27.3418 58.4416 27.4993C58.4416 27.5443 58.4641 27.5668 58.5092 27.6118C58.9367 27.9494 59.4318 28.0619 59.9944 27.9494C61.3671 27.6568 62.8523 25.9916 63.4149 24.9114C64.7426 22.301 64.6526 18.2954 63.8875 15.6624C63.3924 13.9747 62.4923 12.827 61.1421 12.1519C60.9845 12.0619 60.7595 11.9494 60.4895 11.7918C59.4993 11.2293 58.5317 10.7117 57.8341 10.5091C57.8115 9.69901 57.654 8.88889 57.4515 8.07876C57.5415 7.92124 57.6765 7.78622 57.8341 7.6512C58.0366 7.47117 58.2391 7.26863 58.3516 7.02109C58.5767 6.436 58.4641 5.7609 58.3741 5.19831V5.1533C58.1716 3.8706 57.5865 2.94796 56.5738 2.27285C55.5612 1.57524 54.5035 1.39521 53.0408 1.59774C52.6582 1.66525 51.038 2.04782 50.858 2.81294C50.7904 3.10549 50.948 3.39803 51.3305 3.66807C51.263 3.98312 51.083 4.18565 50.903 4.41068C50.7454 4.59071 50.5879 4.77074 50.4529 5.04079C50.2954 5.37834 50.2504 5.64838 50.2054 5.87341C50.1603 6.16596 50.0928 6.4135 49.8903 6.72855C49.8453 6.79606 49.7778 6.86357 49.7103 6.93108C49.5527 7.0661 49.3952 7.24613 49.3952 7.49367C49.3952 7.83122 49.6428 7.96624 49.8003 8.07876C49.9128 8.14627 50.0028 8.21378 50.0478 8.3038C50.1378 8.52883 50.1153 8.79887 50.0703 9.06891C50.0253 9.47398 49.9578 9.94655 50.3179 10.3516C50.6329 10.6892 51.038 10.7567 51.443 10.8242C51.7131 10.8692 51.9831 10.9142 52.1857 11.0267C52.4107 11.1617 52.5457 11.3643 52.6807 11.5893C51.398 11.7018 49.6203 12.827 48.9902 13.9297C47.91 15.865 48.6301 18.2729 49.2827 20.4107C49.5077 21.1308 49.7103 21.8059 49.8228 22.391C49.9803 23.1561 49.8678 23.7637 49.5077 24.1688C49.4402 24.2363 49.3727 24.3038 49.2827 24.3713C49.3052 24.2588 49.3277 24.1238 49.3502 24.0112C49.3952 23.6737 49.4177 23.0886 49.1702 22.7961C49.1477 22.7511 49.1027 22.7286 49.0352 22.7286C48.9902 22.7286 48.9452 22.7285 48.9002 22.7736C48.8101 22.8636 48.7426 23.0436 48.6751 23.3361C48.6076 23.5387 48.5176 23.9212 48.4051 23.9662C48.3826 23.8762 48.4051 23.5837 48.4051 23.3812C48.4276 22.9986 48.4501 22.571 48.3151 22.346C48.2701 22.2785 48.2025 22.2335 48.1125 22.2785C47.865 22.3685 47.8425 22.301 47.7525 22.0985C47.685 21.9184 47.5725 21.6259 47.2124 21.6259C46.7398 21.6259 46.6723 21.9859 46.6498 22.2785C46.5148 21.8509 46.3573 21.4233 46.0422 21.3558C45.8847 21.3108 45.7272 21.3783 45.5696 21.5584C45.5246 21.6034 45.5246 21.6709 45.5471 21.7384C45.6146 21.8959 45.6372 22.0309 45.6147 22.166C45.3896 22.0084 45.1196 21.9634 44.8495 22.0084C44.782 22.0084 44.7145 22.0985 44.7145 22.166C44.6695 23.3587 46.5148 25.0239 47.6174 25.0914C48.045 25.1139 48.4276 25.0914 48.7426 25.0014C48.6526 25.1814 48.5851 25.3165 48.4951 25.384C48.3601 25.4965 48.18 25.474 48.0225 25.474C47.865 25.474 47.7075 25.474 47.595 25.5865C47.5049 25.699 47.4824 25.879 47.5724 26.1941C47.7075 26.7342 48.5401 27.0492 48.6976 27.0942C49.4627 27.3643 50.0928 27.3418 50.5654 27.0042C51.5331 26.3516 51.6231 24.6638 51.7131 23.3136C51.7131 23.1786 51.7131 23.0661 51.7131 22.9311C51.7806 23.4487 51.8481 23.9887 51.8931 24.5513C51.8931 24.7089 51.8931 24.8889 51.8931 25.0689C51.8931 25.699 51.8931 26.3966 52.2982 26.7792C52.3432 26.8242 52.3882 26.8467 52.4332 26.8917C51.9381 27.1842 51.5331 27.5893 51.083 28.0169C50.8355 28.2644 50.5879 28.512 50.2954 28.7595C50.0028 29.007 49.6878 29.2546 49.3952 29.5021C48.3601 30.3347 47.2799 31.1899 46.6498 32.5401C46.4473 32.9902 46.2898 33.4402 46.1772 33.9128C45.8397 33.6203 45.4796 33.3727 45.0971 33.1477C45.0746 33.1477 45.0521 33.1252 45.0071 33.1252H37.5134C37.4459 33.1252 37.4009 33.1477 37.3784 33.2152C37.3559 33.2602 37.3334 33.3277 37.3784 33.3727C37.7384 34.1153 37.0183 35.128 36.3657 36.0281C36.0507 36.4782 35.7356 36.9283 35.5781 37.3108C35.038 38.5935 34.4079 39.9437 33.5753 41.564C33.1477 42.4191 32.8327 43.2968 32.5176 44.1519C32.3376 44.647 32.1576 45.1646 31.955 45.6596L31.91 45.7496C31.7075 46.2447 31.4374 46.8973 31.0099 47.1224C30.7623 47.2349 30.4698 47.2124 30.1547 47.1224C30.1547 46.6048 29.9522 46.1097 29.2321 45.7947C29.0521 45.7046 28.512 45.5471 28.0169 45.5246C28.0619 45.1646 28.0844 44.8495 28.1069 44.512C28.2194 43.3193 28.3094 42.3066 28.7595 41.1589C28.8945 40.7764 29.0296 40.4163 29.1646 40.0563C29.5246 39.0661 29.8622 38.1435 30.3348 37.2658C30.5373 36.9058 30.7623 36.5232 31.0099 36.1857C31.4374 36.2307 31.8425 36.1857 32.09 36.0056C32.3826 35.7806 32.4726 35.4205 32.3601 34.8805C32.3601 34.7904 32.2476 34.7454 32.1801 34.7454C31.73 34.8129 31.2574 35.2855 30.8749 35.8031C30.1772 35.6681 29.3446 35.3305 28.9846 35.128C28.3995 34.7904 27.8369 34.4079 27.2968 34.0478C26.7567 33.6653 26.1716 33.2827 25.5865 32.9451C24.5289 32.3376 23.3362 32.2925 22.2335 32.8326C20.8608 33.5077 19.8256 34.948 19.6006 36.5007C19.4206 37.7834 19.7131 39.0661 19.9831 40.3263C20.0507 40.6413 20.1182 40.9339 20.1857 41.2264C20.2757 41.6315 20.4107 42.1041 20.5907 42.6217C20.9058 43.5893 21.2658 44.692 21.1308 45.4346C21.1083 45.5921 21.0633 45.7271 20.9733 45.8622C20.8383 45.2546 20.6808 44.692 20.5457 44.1744C20.4557 43.8594 20.3882 43.5668 20.3207 43.3193C20.1857 42.7567 19.9606 42.1041 19.7356 41.429C18.9705 39.0886 18.0253 36.1857 19.173 34.3629C19.7356 33.4627 20.8158 32.8326 22.4585 32.4276C23.3362 32.2025 24.1463 32.2925 25.0014 32.3826C25.6315 32.4501 26.3066 32.5176 26.9817 32.4501C28.1069 32.3376 28.917 31.9775 29.4121 31.3249C30.1547 30.3572 30.1097 28.962 29.9297 27.4993C30.6723 27.8594 31.2574 28.3769 31.55 29.1196C31.55 29.1646 31.55 29.2321 31.5274 29.3221C31.1224 31.955 31.1674 33.2827 31.6625 33.5977C31.865 33.7328 32.1125 33.6878 32.4051 33.4852C32.5851 33.3502 32.5851 33.0352 32.5851 32.5851C32.5851 32.2025 32.5851 31.6399 32.7651 31.5499C32.8101 31.5499 32.9227 31.5049 33.2377 31.73C33.5078 31.91 33.5303 32.3601 33.5753 32.8551C33.6203 33.3727 33.6428 33.9128 33.9803 34.2729C34.0253 34.3404 34.1153 34.3404 34.1829 34.2954C34.6779 34.0028 34.813 33.4627 34.813 32.9226C34.9705 33.5302 35.218 34.1828 35.9156 34.0253C35.9831 34.0253 36.0282 33.9578 36.0507 33.8903C36.0957 33.5527 36.0507 33.2377 36.0057 32.9451C36.1182 33.1702 36.2307 33.3952 36.4557 33.5527C36.5232 33.5977 36.6132 33.5977 36.6808 33.5527C36.9508 33.2827 37.0633 32.9226 36.9958 32.5176C36.8158 31.3474 35.2855 29.9072 34.5204 29.5021C34.3854 29.4346 34.1379 29.3446 33.8228 29.2546C33.5078 29.1646 33.1477 29.052 32.8777 28.9395C32.5851 28.8045 32.5401 28.7145 32.5626 28.692C32.6526 28.3544 33.5528 28.5345 34.1154 28.6245C34.4079 28.6695 34.6329 28.7145 34.7905 28.7145C34.8805 28.7145 34.9255 28.647 34.948 28.5795C35.0155 28.1069 34.8805 27.6343 34.768 27.1842C34.6779 26.8917 34.6104 26.6217 34.5879 26.3741C34.5204 25.6765 34.4979 24.9564 34.4979 24.0112C34.4979 23.7862 34.4979 23.5387 34.4979 23.3136C34.4979 21.9634 34.4979 20.5682 34.2954 19.2405C34.1829 18.5654 34.0703 17.9128 33.9578 17.2827C33.8003 16.4726 33.6653 15.6174 33.5303 14.7623C33.2827 13.0295 32.5626 11.7468 31.3924 10.9367C31.3924 10.9367 29.1421 9.38396 28.1519 9.58649C28.1069 9.58649 28.0844 9.58649 28.0394 9.609C28.0394 9.49648 28.0169 9.38396 27.9944 9.27145C28.1519 9.27145 28.3094 9.27145 28.4445 9.27145C28.917 9.27145 29.3671 9.29395 29.5922 9.02391C29.7272 8.86638 29.7497 8.61885 29.6597 8.3038C29.4346 7.47117 29.7497 7.17862 30.0647 6.90858C30.2673 6.72855 30.5148 6.50351 30.4023 6.14346C30.4023 6.14346 30.4023 6.12095 30.4023 6.09845C29.9297 5.37834 29.9747 5.01828 30.0197 4.61322C30.0197 4.4782 30.0422 4.34317 30.0422 4.18565C30.0422 3.64556 29.9747 3.51055 29.7497 3.12799C29.6822 3.01547 29.5922 2.85794 29.4796 2.65541C29.3221 2.36287 29.0971 2.11533 28.8495 1.9128C28.917 1.86779 28.962 1.80028 29.0071 1.71026C29.1871 1.39521 29.1871 1.05766 29.0071 0.742613C28.782 0.33755 28.2644 0.0225035 27.7919 0C27.4093 0 27.0267 0.135018 26.6442 0.292543C26.3516 0.405061 26.0591 0.540084 25.7666 0.562588C25.519 0.585091 25.249 0.585091 24.9789 0.562588C24.4163 0.562588 23.8538 0.562582 23.3362 0.810121C22.211 1.39521 21.9184 2.83544 22.4585 4.95077C22.5936 5.42335 22.7511 5.91842 22.9086 6.36849C22.9986 6.63853 23.1111 6.93108 23.2011 7.22362C22.9311 7.76371 22.8411 8.50633 22.8636 9.06891C22.7511 9.11392 22.6386 9.15893 22.5035 9.18143C19.8031 9.94655 17.0127 10.7342 15.9325 14.0422C15.7075 14.7623 15.55 15.5049 15.4374 16.225C15.3024 16.9001 15.1899 17.6203 14.9649 18.2954C14.8298 18.7004 14.6948 19.0605 14.5598 19.4205C14.2223 20.3657 13.8847 21.2658 13.8397 22.436C13.7497 24.0112 14.3348 25.564 15.5725 27.2068L15.685 27.3418C16.2701 28.1069 16.9002 28.8945 17.5078 29.4121C16.6526 29.6596 15.9325 30.0197 15.2349 31.0098C14.3348 32.2475 14.1547 33.7103 14.6948 35.3305C14.9874 36.2082 15.4374 37.0858 15.8875 37.9409C16.7876 39.6737 17.6878 41.4515 17.3502 43.3868C17.3502 43.4318 17.3502 43.4543 17.3277 43.4993C16.9677 42.7342 16.5401 41.9916 16.1125 41.2714C15.3924 40.0338 14.6723 38.7511 14.2672 37.4008C13.9072 36.2082 13.7947 33.6428 13.8172 33.3277C13.8172 33.2827 13.8172 33.2152 13.8172 33.1702C13.7722 33.1027 13.7047 33.0802 13.6372 33.0802L0.180029 33.1927C0.0900147 33.1927 0 33.2602 0 33.3727C0 33.4852 0.0675112 33.5527 0.180029 33.5527L13.6147 33.4402C13.6147 33.6878 13.6147 34.1153 13.6822 34.903C13.7272 35.5556 13.8622 36.7707 14.0872 37.5134C14.5148 38.9086 15.2574 40.1913 15.9775 41.4515C16.4501 42.2841 16.9452 43.1392 17.3502 44.0394C17.3277 44.1294 17.3052 44.1969 17.2827 44.2869C17.0352 45.052 16.7651 45.9072 17.1252 46.5148C17.3052 46.8073 17.5978 47.0098 18.0253 47.0999C17.9803 47.3699 17.9353 47.6399 17.8678 47.91C17.7778 48.3601 17.6653 48.8326 17.6428 49.3952V49.4852C17.6428 49.7778 17.5978 50.1153 17.6878 50.4079C17.0352 50.7679 15.9325 51.6456 15.9775 52.4782C15.9775 52.9058 16.3151 53.2208 16.8777 53.4459C17.9353 53.8284 20.2532 53.1083 20.9283 52.3432C22.076 51.038 21.7834 48.4726 21.2659 46.2447C21.4684 46.0197 21.6034 45.7271 21.6484 45.4346C21.7834 44.602 21.4234 43.4543 21.0858 42.4641C20.9283 41.9691 20.7708 41.4965 20.7033 41.1139C20.6358 40.8214 20.5682 40.5288 20.5007 40.2138C20.2307 38.9986 19.9381 37.7384 20.1182 36.5232C20.3207 35.083 21.3109 33.7328 22.5486 33.1027C23.5387 32.6076 24.6189 32.6526 25.5865 33.1927C26.1716 33.5302 26.7342 33.9128 27.2743 34.2729C27.8144 34.6329 28.377 35.0155 28.9846 35.3755C29.2096 35.5105 30.0197 35.8931 30.8073 36.0731C30.5373 36.4782 30.3123 36.8608 30.2222 37.0633C29.7497 37.9634 29.4121 38.8861 29.0296 39.8987C28.8945 40.2588 28.7595 40.6413 28.6245 41.0014C28.1519 42.1941 28.0619 43.2968 27.9494 44.4444C27.9269 44.782 27.8819 45.1195 27.8369 45.4796C27.6343 45.4796 27.4543 45.5246 27.3193 45.6146C27.1843 45.7046 27.0943 45.8397 27.0718 45.9972C27.0718 46.2222 27.2293 46.4023 27.4993 46.5598C27.3193 46.9198 27.1168 47.2574 26.9142 47.5949C26.6442 48.045 26.3516 48.5176 26.1716 48.9902C25.9016 49.6878 25.8341 50.2954 25.9466 50.7679C25.1815 50.7679 24.6414 50.8804 24.3488 51.8481C24.1013 52.6807 24.3488 53.2658 25.204 53.7384C26.1491 54.256 27.3418 54.2335 28.4895 54.1885C29.0521 54.1885 29.5922 54.1435 30.0872 54.1885C30.4023 54.211 30.7173 54.2335 31.0324 54.2335" fill="var(--fill-0, #18171C)"/>
</g>
</svg>
