<svg xmlns="http://www.w3.org/2000/svg" fill="none" viewBox="0 0 80 80">
  <path fill="#E7E8E9" d="M0 12C0 5.373 5.373 0 12 0h56c6.627 0 12 5.373 12 12v56c0 6.627-5.373 12-12 12H12C5.373 80 0 74.627 0 68V12Z"/>
  <path fill="#C3BFB7" d="M17.058 27.447c-.023.068-.45.518-.473.81 0 .293-.045.563-.157.833-.135.427-.18.9-.36 1.282-.068.158-.18.293-.27.45-.09.158-.158.316-.203.473a3.99 3.99 0 0 0-.18 1.013v.607c-.045.495-.405.9-.608 1.35a1.95 1.95 0 0 0-.157.383c-.27.968.36 2.003.428 3.016.112 1.575 1.575 3.51 3.038 4.005.292.113.427-.495.72-.697 1.012-.653-.45-2.363-.765-2.678-.45-.45-1.576-.698-1.778-1.305-.203-.675-.225-1.486-.315-2.183-.045-.383 1.935-.293 2.25-.045 0-.473-.45-2.16-.54-2.61-.068-.788.27-1.891.225-2.679-.315-.945 1.35-1.687 1.935-1.44 1.125.608.743 2.003.54 2.993-.202.72-.517 2.16-.697 2.88-.135.698-.045 1.936-.135 2.656-.068.63.045.743.382 1.283.63.99 1.778.652 2.903.765.72 0 1.283.337 2.003.292.72 0 1.508.09 2.205.225.45.09 1.306 0 1.756-.247.562-.27.99-1.395 1.035-1.935a6.822 6.822 0 0 0-.068-1.913 3.494 3.494 0 0 0-.112-.518c-.113-.472-.36-.945-.293-1.44.068-.495.158-.968.203-1.463a8.514 8.514 0 0 1 .292-1.508c.068-.27.158-1.147.09-1.102 0 0 .608-.675 1.013-.855.518-.225.495-.135 1.058-.225 1.012.337.427 2.272.18 2.745-.54 1.103-1.193 2.115-1.283 3.42-.045.653.315 1.283.36 1.936.045.72 0 1.485 0 2.205 0 .608-.158 1.778.675 1.868.45.045.9-.113 1.215-.45.338-.315.54-.743.653-1.193.09-.315.09-.607.135-.922.022-.18.067-.36.09-.54a2.81 2.81 0 0 0 0-1.058c-.113-.81-.27-1.598-.36-2.408a12.23 12.23 0 0 1-.113-2.025c0-.203 0-.383.023-.585.09-.855.09-1.756-.045-2.61-.473-3.219-.428-2.139-1.418-2.971-.45-.383-.877-.608-1.35-.99-.383-.316-.698-.788-.923-.698-.157.045-1.17-.54-1.17-.405 0 .405-.112.203-.112.607 0 .068-.113 1.62-.225 1.62-.226 0-.653.743-.856.81-.63.226-.945.046-1.665-.134-.202-.045-.247-.473-.382-.63-.225-.248-.833 0-.878-.09 0 0-.068-.203-.045-.293 0-.09-.225-.427-.293-.562-.067-.113-.135-.248-.247-.36-.158-.158-1.418-.788-1.44-.833 0 0-.608-.248-.855-.225-.158 0-.293.045-.45.067 0 0-.293.068-.428.113-.203.09-2.25 1.125-2.25 1.125-.676.225-.766 1.125-.968 1.688-.09.247-.225.495-.338.742-.09.18-.135.406-.225.608"/>
  <path fill="#A0ACBC" d="M52.613 25.241c.113.226-3.443-.832-3.375 2.61.067 3.444.585 4.074.832 5.987.248 1.913.36 3.555.068 3.758-.833.585-2.295 1.35-1.665 1.53.63.203.427 1.013 1.462.585 1.035-.45 1.013-.382 1.283-1.98.248-1.598.585-2.678.248-3.893-.316-1.215.517-2.296.765 0 .247 2.295.315 3.825.63 4.59.315.766 1.845 1.148 1.913.9.067-.247 1.08-2.16 1.912-2.047.833.135.698-2.16 1.598-1.98 0 0 .248 3.06 1.08 3.825.833.765 1.08.45 1.778 0s2.678-6.706 2.745-7.854c.068-1.147 1.216-1.912-.517-3.51-1.733-1.598-4.838-2.993-6.436-1.913-1.598 1.08-3.06 1.665-3.646.968-.585-.698-.832-1.846-.697-1.598"/>
  <path fill="#18171C" d="M25.834 18.04c-.293 0-.517-.09-.788-.18-.315-.134-.697-.27-1.17-.134.18-1.193.765-2.52 1.733-2.858.81-.293 1.8-.293 2.588 0-.135 0-.27.022-.428.045-.27 0-.54.045-.765.112-.495.158-.675.27-.742.428-.068.157 0 .292.045.427.067.158.135.383.112.698 0 .203-.135.338-.247.518-.158.225-.36.517-.338.945Zm-1.778 1.553s-.045 0-.067.023c0-.045 0-.09-.023-.135.023.045.068.067.09.09m-.382.248-.068.067-.202-.607c-.158-.45-.315-.923-.45-1.396-.36-1.35-.518-3.105.697-3.758.45-.225.945-.225 1.486-.225h.832c.338-.045.653-.18.968-.292.36-.158.697-.293.99-.27.36 0 .765.27.945.562.113.203.113.405 0 .63a.606.606 0 0 1-.157.18c-.923-.495-2.183-.517-3.174-.18-1.44.495-2.092 2.79-2.025 4.253 0 .383.09.72.18 1.036m.09.382c.113.383.203.72.18.99v-.09c-.067-.27-.135-.54-.225-.81 0-.022.045-.067.068-.09m-.09 1.508c-.09.09-.203.18-.36.247 0-.36.045-.787.157-1.17.045.135.068.27.09.405v.045c.045.158.068.315.113.473Zm33.485-.63a3.35 3.35 0 0 0-.248 1.44c-.157-.135-.36-.202-.562-.27-.203-.068-.428-.135-.473-.248 0-.09.135-.427.225-.63.135-.292.248-.54.225-.72 0-.742-.63-1.26-1.17-1.26-.337 0-.697.18-.765.72-.518 0-.653-.112-.698-.18-.09-.135.045-.473.203-.788.112-.247.225-.495.27-.72.248-1.215-.608-1.462-1.305-1.642-.225-.068-.45-.113-.63-.203.045-.225.157-.383.382-.45.833-.293 2.61.495 3.038.968.72.81 1.013 2.047 1.283 3.15.045.203.09.383.135.563l.067.27m.18.652c.113.563.203 1.148.248 1.71h-.113a3.43 3.43 0 0 1-.112-1.71m-33.575.338c.135.585.315 1.125.585 1.688-.45-.36-.81-.81-.945-1.238 0-.067-.045-.135-.045-.202.157-.068.292-.158.405-.248Zm4.05.675c-.27.203-.427.518-.562.81-.248.518-.45.968-1.26.923-.338 0-.698-.135-1.036-.315-.495-.765-.72-1.53-.922-2.363.022-.045.067-.09.09-.135.27-.473.112-1.013-.068-1.62 0-.023 0-.068-.022-.09a.56.56 0 0 1 .382-.068c.09 0 .158-.045.18-.112a.182.182 0 0 0-.067-.203c-.495-.293-.878-.923-.675-1.508.405-.135.697 0 1.035.113.315.112.675.27 1.125.18.045 0 .09-.045.113-.068.022-.045.045-.09.022-.135-.067-.382.09-.607.27-.855.135-.202.293-.405.315-.697.045-.405-.067-.675-.135-.856 0-.067-.045-.135-.045-.157 0 0 .068-.09.563-.248.18-.067.427-.09.675-.09.292 0 .608-.045.855-.135.27.18.495.405.653.698.112.202.202.36.27.495.225.383.247.45.247.9 0 .135 0 .248-.022.383-.045.427-.113.877.405 1.688.022.134-.045.202-.248.404-.315.27-.787.698-.495 1.733.045.135.068.338 0 .428-.112.135-.495.135-.877.135h-.676a.124.124 0 0 0-.112.067.313.313 0 0 0-.045.135c0 .203.045.405.09.63m28.804-.067c-.09.315-.18.563-.292.81-.383.743-1.125 1.598-1.868 1.755-.338.068-.63 0-.923-.225-.18-.135-.27-.337-.405-.54-.157-.27-.337-.585-.675-.81-.27-.157-.562-.202-.855-.247-.36-.045-.697-.113-.923-.36-.247-.293-.225-.63-.18-1.013.045-.315.068-.63-.045-.945-.09-.203-.247-.293-.382-.383-.158-.112-.248-.157-.248-.315 0-.09.09-.18.203-.292.09-.09.18-.158.247-.27.248-.383.293-.675.36-.968.045-.225.09-.473.225-.765a2.55 2.55 0 0 1 .383-.54c.225-.27.473-.54.54-1.035 0-.068 0-.136-.067-.158-.225-.135-.473-.36-.428-.563.09-.45 1.283-.855 1.89-.945 1.373-.202 2.363 0 3.286.608.922.63 1.44 1.463 1.643 2.655v.045c.09.54.202 1.148 0 1.643-.068.18-.248.338-.428.518-.09.09-.18.157-.27.247-.045-.18-.09-.337-.135-.54-.27-1.125-.608-2.408-1.373-3.285-.495-.563-2.408-1.418-3.398-1.08-.382.134-.607.427-.63.877 0 .068.023.135.09.158.248.135.54.225.81.292.765.203 1.238.383 1.058 1.238-.045.202-.158.427-.248.652-.202.405-.382.81-.18 1.103.158.248.518.338 1.148.315.09 0 .158-.067.158-.157 0-.36.18-.563.427-.563.338 0 .81.36.833.923 0 .112-.113.36-.203.585-.202.427-.292.72-.225.9.113.248.405.338.675.428.158.044.293.09.405.18m-28.76.495c.09.72.113 1.485-.382 1.935-.292.27-.607.382-.945.337-.382-.045-.787-.315-1.17-.72.203.068.405.113.608.113 1.035.045 1.327-.585 1.575-1.103.09-.202.18-.405.315-.54m29.187.27c-.045 0-.068.045-.09.068 0 .045-.023.09 0 .135.18.54-.113 1.237-.833 1.845-.832.72-1.913 1.035-2.498.743-.427-.226-.54-.72-.562-1.17.067.09.157.18.247.247.36.293.766.383 1.215.293.968-.203 1.778-1.328 2.093-1.936.113-.247.225-.495.293-.788.022.18.067.36.135.54m3.623 6.144c-.045.158-.09.36-.157.518-.203.675-.36 1.26-.383 1.665-.023-.878.045-1.89.54-2.205M31.37 28.46c.585.968-.135 2.475-.675 3.6-.113.248-.225.473-.315.698 0-1.508.135-3.218.63-3.96.112-.158.225-.27.36-.316m19.375 1.306c.045 0 .136.09.293.27.36.45.495 1.575.585 2.318 0 .135.023.247.045.36.023.225.045.472.045.697-.045-.157-.09-.337-.157-.495a9.14 9.14 0 0 0-.316-.833 14.64 14.64 0 0 1-.382-1.057c-.158-.495-.203-1.125-.135-1.26m-31.752-1.17h.09c.315.067.45.63.45 1.665v.045c0 .877-.203 1.665-.428 2.475-.112.428-.225.855-.315 1.305.045-1.012-.023-2.002-.09-2.948 0-.292-.045-.562-.068-.832v-.09c-.022-.36-.09-1.305.203-1.553.023-.023.068-.068.158-.068Zm30.064 9c-.337.136-.765.18-1.26.158-.9-.045-2.453-1.44-2.565-2.408.202 0 .382.09.54.293a.243.243 0 0 0 .157.068c.068 0 .113-.045.135-.113.09-.315.113-.54 0-.833.045-.022.068-.045.068-.022.135.022.315.585.382.81.068.203.113.36.18.473.023.045.09.09.135.09.068 0 .113-.023.135-.068.135-.18.158-.405.158-.608.022-.36.067-.405.225-.405.135 0 .157.068.247.248.068.203.18.495.608.428.023.18 0 .495 0 .72-.023.472-.045.787.158.9.135.067.247.045.315 0 .247-.113.36-.495.472-.855v-.045.54c-.022.225-.067.427-.112.63m-18.88-3.016c.044.36.067.653.112.81.045.248.157.563.292.946.315.922.743 2.182.383 2.655-.09.135-.27.203-.518.203a1.56 1.56 0 0 1-.45-.068c-.09-.63-.157-1.238-.157-1.778 0-.945.112-1.867.337-2.768Zm-9.43 4.479c-.157.112-.315.27-.472.405-.09-.135-.248-.27-.45-.45l-.18-.136c-.518-.427-.878-.697-1.238-1.305-.428-.72-.72-1.08-1.463-1.53-.112-.067-.225-.112-.337-.18-.405-.203-.833-.428-.968-.788.428.046.878.293 1.283.518.517.293.945.563 1.327.36.18-.09.315-.292.405-.608-.045 1.238.248 2.16.856 2.858.315.36.72.63 1.215.856m37.94.562c-.067 0-.134 0-.224.023h-.045c-2.43.27-3.083 0-3.24-.203-.023-.022-.046-.067-.046-.135.135-.045.27-.067.405-.112.428-.113.855-.225 1.283-.36.045 0 .09-.045.112-.09v-.136c-.045-.112-.067-.224-.112-.36l-.068-.27c.09.023.18.068.27.09.585.203 1.328.473 1.823-.225.023-.045.045-.112 0-.157-.045-.135-.112-.27-.157-.383-.135-.315-.27-.607-.248-.945.405.135.675.315.788.563.247.472 0 1.147-.27 1.822a6.747 6.747 0 0 0-.293.878m-28.94-.247c0 .067 0 .157.023.225 0 .112.023.225.045.315-1.778-.653-4.05-.653-5.4-.653-1.126 0-2.071-.09-2.814-.292 1.373-.653 3.263-.675 4.614-.495l.54.067c.607.068 1.215.157 1.777.337.203.068.405.158.63.27.203.09.383.18.586.248m22.008-4.77c0 .18-.022.337-.045.517 0 .135-.022.27-.045.405 0 .225-.045.495-.045.765-.067 1.215-.157 2.858-.99 3.42-.383.248-.9.27-1.553.046-.382-.135-.855-.405-.922-.675-.045-.18-.045-.27-.045-.293h.157c.18 0 .45.022.675-.158.203-.135.36-.45.473-.81.247-.112.45-.27.607-.45.428-.495.563-1.215.405-2.07-.112-.63-.337-1.305-.54-2.025-.63-2.07-1.35-4.388-.337-6.211.562-.99 2.205-2.048 3.353-2.16-.023 1.012.382 1.462.742 1.642.81.405 2.07-.09 2.88-.787.586-.518.946-1.103.991-1.643.045.067.09.157.157.225-.022.337-.09.652-.202.99-.428 1.395-1.44 2.273-2.52 3.195-.135.113-.27.248-.428.36-1.89 1.643-1.575 4.231-1.305 6.527.067.63.135 1.215.18 1.755v.135c.045.787.09 1.553 0 2.295-.09.023-.18.068-.27.09a.711.711 0 0 1-.293-.157c-.292-.27-.292-.945-.292-1.463v-.54c-.113-1.013-.203-1.98-.405-2.926.067-.63.09-1.282 0-1.935 0-.112-.023-.225-.045-.36-.113-.833-.248-1.958-.653-2.475-.113-.135-.428-.54-.72-.383-.45.248-.045 1.665-.045 1.688.112.382.248.72.383 1.08.112.27.202.54.292.833.18.54.315 1.057.428 1.575m6.256-10.78c.742.248 1.822.856 2.475 1.216.27.157.495.27.675.36 1.26.652 2.115 1.733 2.566 3.308.765 2.565.855 6.459-.45 8.979-.518 1.013-1.936 2.61-3.196 2.858-.45.09-.833 0-1.17-.225 0-.135 0-.293.022-.473.563-.135.968-.36 1.238-.742.36-.495.45-1.193.247-2.16-.157-.766-.135-1.508-.09-2.296 0-.54.045-1.08 0-1.665 0-.09 0-.203-.022-.338 0-.157-.023-.36-.045-.563a.44.44 0 0 0 .18.293c.292.203.72-.09 1.035-.315 1.215-.945 1.035-3.375.383-4.568-.585-1.058-1.486-1.62-2.34-2.16a10.184 10.184 0 0 1-1.238-.856 2.085 2.085 0 0 1-.315-.315v-.382M22.593 39.554c-.247.225-.562.27-.922.338-.405.067-.833.135-1.193.495-.247.247-.382.517-.495.742 0-.112.045-.247.068-.36.067-.225.135-.382.18-.517.067-.135.112-.248.112-.36.225-.248.473-.473.72-.63a8.08 8.08 0 0 0 1.508.315m-2.925 2.183a1.325 1.325 0 0 1-.473.315c.113-.428.293-.878.54-1.306-.067.338-.09.675-.067.99Zm-.9.765v.157c-.09 0-.18-.045-.27-.09.067 0 .112-.022.18-.045.044 0 .067 0 .112-.022m5.536.855c0 .022-.045.067-.113.157-.315.383-1.53.338-2.115.225-.788-.135-1.418-.54-1.778-1.147a2 2 0 0 1-.292-.766 2.79 2.79 0 0 0 .225-.45c.112-.247.225-.517.495-.787s.63-.338 1.012-.405c.383-.068.833-.135 1.17-.473.023.09-.044.18-.18.36-.157.18-.405.495-.09.81.248.248.563.135.81.023.158-.068.338-.113.428-.068.045.023.113.113.18.315-.067.068-.135.135-.18.203-.045.045-.09.112-.135.135-.067.045-.09.09-.09.157 0 .068.045.113.113.136.045 0 .09.044.135.067.045.023.112.068.18.09 0 .338-.428.608-.765.855-.158.113-.293.203-.383.293-.045.045-.067.112-.045.157.023.045.068.113.113.113.135.022.315 0 .607 0 .203-.023.585-.068.72-.023m10.465 1.26h-.068a.17.17 0 0 0-.113.158c0 .135 0 .293.023.45.045.608.112 1.305-.293 1.665-.157-.27-.202-.697-.225-1.102-.045-.54-.09-1.103-.472-1.373-.338-.248-.63-.315-.833-.203-.36.18-.36.81-.36 1.35 0 .226 0 .54-.045.63-.112.09-.27.158-.36.113-.158-.09-.495-.675 0-3.915.03-.195.038-.308.023-.338-.338-.923-1.103-1.53-2.026-1.935-.022-.18-.045-.338-.067-.518v-.067c.135.022.27.045.405.045.36 0 .63-.113.787-.338.45-.63 0-1.935-.337-2.97-.113-.36-.225-.675-.27-.9-.068-.316-.135-.946-.18-1.71l.27-.743c.09-.203.202-.45.315-.698.585-1.238 1.395-2.926.585-4.028a.243.243 0 0 0-.158-.068c-.27.045-.495.203-.697.495-.675.99-.765 3.308-.675 5.019a11.775 11.775 0 0 0-.608 3.78c0 .518.068 1.058.135 1.643-.135-.045-.247-.112-.382-.18-.226-.09-.45-.203-.675-.27-.586-.18-1.238-.27-1.846-.338-.18 0-.36-.045-.54-.067-1.823-.248-3.645-.045-4.86.563-.09.044-.158.09-.226.134-.562-.202-.99-.495-1.305-.855-.63-.697-.878-1.71-.742-3.083.067-.72.247-1.372.404-2.002.203-.81.428-1.643.428-2.566v-.045c0-.562 0-1.845-.72-2.003a.628.628 0 0 0-.54.135c-.428.36-.36 1.373-.315 1.846v.09l.067.832c.09 1.193.18 2.43.045 3.69-.045.451-.157.721-.292.789-.203.112-.585-.113-.99-.36-.495-.293-1.08-.63-1.666-.563-.09 0-.157.09-.157.18 0 .653.652.99 1.17 1.26.113.068.225.113.315.18.698.428.945.743 1.35 1.418.405.652.788.968 1.305 1.395l.18.135c.27.225.406.338.428.428-.607.697-1.058 1.575-1.215 2.408-.068 0-.158.045-.225.045-.158.045-.338.067-.495.112-.743-.585-1.598-1.71-1.958-2.16l-.113-.135c-1.192-1.553-1.755-3.038-1.665-4.546.068-1.125.383-1.98.72-2.903.135-.36.27-.743.405-1.148.226-.697.36-1.417.473-2.115.135-.72.27-1.44.495-2.138 1.035-3.128 3.6-3.87 6.346-4.636.113-.022.225-.067.315-.09 0 .068.023.113.045.18.203.676.9 1.373 1.665 1.8.27.406.923 1.239 1.778 1.351.428.067.855-.09 1.215-.428.676-.607.608-1.575.473-2.407.045 0 .09-.023.135-.045.653-.136 2.295.832 2.993 1.305 1.08.765 1.755 1.958 2.003 3.6.135.878.292 1.71.427 2.543.113.63.225 1.283.338 1.958.202 1.305.202 2.678.202 4.028v.698c0 .945.023 1.688.09 2.385.023.293.113.585.203.878.112.382.203.742.18 1.102-.113 0-.27-.045-.428-.067-.742-.135-1.777-.338-1.935.315-.135.495.72.743 1.508.968.27.067.54.157.63.202.72.383 2.138 1.733 2.295 2.768a.85.85 0 0 1-.112.63 1.57 1.57 0 0 1-.293-.54c-.112-.27-.247-.54-.495-.765-.067-.067-.18-.045-.225 0l-.067.068a.175.175 0 0 0-.045.18c0 .067.045.112.067.18.158.495.315.9.27 1.417-.315 0-.45-.405-.63-1.057-.113-.383-.203-.766-.405-.968-.023-.045-.068-.045-.112-.045m18.385-4.613c-.09.405-.225.81-.428 1.192-.45.81-1.192 1.463-1.913 2.093-.315.27-.63.54-.9.81-1.17 1.148-1.957 2.498-2.34 4.073a8.944 8.944 0 0 0-.968-1.102c.09-.495.248-.99.473-1.485.585-1.283 1.598-2.07 2.655-2.926.293-.247.608-.495.923-.742.293-.248.563-.518.81-.766.518-.495.945-.945 1.53-1.192.045 0 .113.022.158.022m10.329 8.214c-.045.09-.338.293-.833.203h-.09a1.08 1.08 0 0 1 .473-.203c.27-.045.405 0 .45 0Zm-31.302-.157c.045.27 0 .472-.158.585-.158.112-.383.135-.653.135.27-.338.563-.608.81-.72Zm24.1 8.01c.496 0 1.216.27 1.486.563.113.135.18.248.225.36-.045 0-.09-.045-.157-.067-1.26-.45-1.688-.698-1.823-.833.09-.022.18-.045.27-.045m-8.529-6.976c.878 1.418 1.395 2.97 1.688 4.028.495 1.913.945 3.916.81 5.851-.518-.585-.968-1.17-1.238-1.98a9.883 9.883 0 0 1-.135-.428c-.427-1.282-.877-2.588-1.057-3.915-.18-1.306-.203-2.476-.045-3.578m-20.051 9.721c-.045.135-.068.27-.135.405-.225-.135-.225-.202-.225-.225 0-.045 0-.067.067-.112a.563.563 0 0 1 .293-.068ZM17.53 57.557c.135.337.27.698.36 1.058.135.45.158.832.135 1.192-.315-.09-.517-.225-.652-.427-.27-.45-.068-1.17.157-1.823Zm3.376 1.62a1.237 1.237 0 0 1-.203.158c-.652.45-1.62.585-2.318.517.023-.405 0-.855-.135-1.35-.135-.495-.337-.99-.54-1.463.068-.202.113-.382.135-.54.36-2.07-.585-3.893-1.507-5.67-.45-.878-.878-1.71-1.17-2.566-.496-1.553-.338-2.858.495-4.028.72-.99 1.395-1.305 2.34-1.53.337.225.652.36.922.337.09 0 .158-.09.158-.18v-.427c.27-.068.473-.18.63-.293.068.225.158.45.293.653.427.675 1.125 1.125 2.003 1.282.517.09 1.98.225 2.43-.337.112-.135.247-.338.157-.54-.135-.248-.562-.203-1.057-.135.427-.315.922-.698.832-1.238a.145.145 0 0 0-.135-.135c-.067 0-.112-.045-.157-.068v-.022c.067-.067.135-.158.202-.203a.205.205 0 0 0 .09-.18c-.067-.337-.18-.54-.36-.652-.225-.135-.472-.045-.697.045-.248.09-.383.135-.473.045-.067-.068-.09-.09.113-.338.135-.157.36-.427.247-.72.338 0 .72.023 1.103.023 1.373 0 3.713 0 5.446.697.202 1.44.292 2.858-.428 3.758-.45.563-1.17.878-2.205.99-.653.068-1.305 0-1.913-.067-.855-.09-1.733-.18-2.655.068-1.733.427-2.88 1.125-3.488 2.092-1.238 1.958-.27 4.951.517 7.359.225.675.428 1.328.563 1.868.067.247.135.54.225.855.157.563.337 1.238.495 1.935m7.29-.315a4.19 4.19 0 0 1 1.149.248c.517.225.697.54.72.922-.09-.022-.18-.067-.248-.09-.112-.045-.247-.09-.36-.135-.067 0-.18-.045-.292-.09a11.784 11.784 0 0 1-1.126-.337c.068-.18.135-.36.18-.54M55 60.1c-.698.022-.923-.698-1.148-1.62-.045-.18-.09-.383-.135-.518 0-.068-.09-.113-.158-.113-.18 0-.405 0-.585.203-.045-.225-.067-.428-.112-.653-.045-.225-.09-.427-.09-.54-.203-1.44-.428-2.723-1.035-4.05-.158-.36-.428-.743-.698-1.17-.608-.923-1.305-1.958-1.08-2.813.067-.316.202-.495.337-.54.158-.046.405.112.63.382.136.158.27.36.36.563-.067.247-.09.472-.067.697v.203c0 .247 0 .472.338.675.045.022.09.045.135 0 .045 0 .09-.045.112-.09.18-.428.068-1.013-.157-1.53.315-1.058 1.327-2.408 2.565-3.308 1.058-.766 2.048-1.058 2.745-.788.765.315 1.418.945 2.048 1.53.45.428.9.878 1.418 1.193.563.36 1.058.63 1.53.81-.472.518-.9 1.193-1.237 1.778-.158.247-.293.472-.406.63a19.076 19.076 0 0 1-2.453 2.835c-.18.18-.36.338-.517.518-.743.698-1.44 1.373-2.138 2.16l-.112.113c-.405.45-.833.9-.833 1.598 0 .427.203.765.405 1.08.158.247.293.472.338.742m-4.456-.247c.225.247.45.495.675.765-.158 0-.338-.023-.495-.023h-.338a7.65 7.65 0 0 0 .158-.765m-.518.833h-.067c-.36.045-1.035.135-1.148.068-.292-.203-.247-.923-.202-1.44 0-.248.022-.473 0-.63a15.786 15.786 0 0 0-.405-2.476 72.323 72.323 0 0 0-.586-2.093c-.652-2.138-1.305-4.343-1.012-6.459.337.36.652.743.922 1.126-.225 1.215-.225 2.565 0 4.05.203 1.35.653 2.678 1.08 3.983.046.135.09.293.136.428.315.968.9 1.643 1.507 2.318a6.642 6.642 0 0 1-.225 1.125Zm-29.907 2.588c-.045.09-.135.157-.202.225-.36.27-1.035.405-1.35.337a1.046 1.046 0 0 1-.45-.202c.607-.293 1.395-.54 2.002-.36Zm9.204 1.35c-.045.045-.202.135-.72.18-1.013.09-1.733-.112-2.093-.585l-.022-.023h.135c.652 0 1.147 0 1.755.09.608.09.878.27.945.338Zm28.692-7.134c-.112.203-.338.428-.585.63-.068.046-.113.113-.18.158-1.238 1.148-1.575 2.475-1.125 4.253.202.72.472 1.125 1.012 1.665.068.068.136.135.248.225.315.27.923.81.765 1.103-.067.135-.225.225-.473.248-1.035.135-2.947-.765-3.308-1.125-.382-.406-.99-2.16-1.26-3.736.158-.518.09-1.35-.045-2.295 0-.045.023-.068.045-.113.068-.157.18-.247.315-.27.023.113.068.248.09.383.18.832.473 2.07 1.688 1.867.09 0 .135-.09.135-.157 0-.428-.202-.765-.382-1.08-.18-.293-.36-.563-.36-.9 0-.563.337-.923.742-1.373l.113-.113c.112-.135.247-.27.36-.382.225.247.81.54 1.98.945.09.045.18.067.225.09m-37.04 2.093c.45 2.093.697 4.433-.316 5.58-.585.653-2.768 1.328-3.69.99-.45-.157-.675-.382-.675-.652-.023-.562.81-1.35 1.507-1.755.135.18.36.315.698.383.405.09 1.17-.068 1.62-.406.225-.18.36-.382.36-.585 0-.067-.045-.135-.112-.18-.608-.27-1.418-.157-2.43.315a2.043 2.043 0 0 1 0-.742v-.09c.022-.54.134-.99.224-1.418.068-.27.113-.54.158-.833.765.09 1.823-.067 2.543-.562.022-.023.067-.045.09-.068m32.112 6.751c-.63.36-.99.18-1.688-.135l-.112-.045c-.788-.36-1.238-.517-2.16-.517-1.126 0-2.768-.09-3.96-.855-.339-.203-1.036-1.013-.901-1.396.158-.517 1.26-.405 1.71-.36.338.023.653.09.968.158 1.148.225 2.205.427 2.948-1.08.18-.36.315-.743.45-1.126.18 0 .337-.044.405-.022.293 0 .563.023.81.068 1.778 2.362 2.273 4.118 1.53 5.31Zm-20.32-1.507c1.125 0 1.8.27 1.867.54 0 .09 0 .382-.922.9-1.103.607-2.093.787-3.556.63a10.002 10.002 0 0 0-1.643 0c-1.102.045-2.25.067-3.105-.405-.698-.405-.9-.81-.698-1.485.225-.743.54-.833 1.396-.833.045.09.09.157.157.248.428.585 1.26.832 2.408.72.45-.045 1.035-.135 1.035-.495s-.63-.585-1.237-.698c-.63-.113-1.193-.113-1.823-.09h-.293c-.135-.428-.067-.99.18-1.665.18-.45.45-.878.72-1.35.225-.36.428-.72.608-1.08.337.134.765.247 1.17.36.113.022.225.067.293.067.112.045.225.067.337.112.113.045.225.09.338.113a8.778 8.778 0 0 1-.203.833c-.18.585-.36 1.17-.225 1.755.428 1.845 2.206 1.845 3.15 1.823h.046Zm-1.688 2.475c.922 0 1.8-.18 2.813-.743.81-.45 1.192-.877 1.08-1.282-.157-.585-1.238-.788-2.205-.788h-.045c-1.17 0-2.453-.135-2.79-1.575-.113-.473.044-1.035.202-1.576.09-.27.157-.562.202-.832.36.09.72.112 1.035-.045.563-.27.856-1.013 1.08-1.553l.046-.09c.202-.495.382-1.012.562-1.508.293-.855.608-1.732 1.035-2.543a56.83 56.83 0 0 0 2.026-4.275c.135-.338.427-.765.742-1.215.63-.9 1.328-1.89 1.126-2.768h7.2c.406.247.788.517 1.126.832-.383 2.25.315 4.591.99 6.841.202.698.428 1.396.585 2.07.18.698.315 1.576.383 2.409v.585c-.045.652-.09 1.44.36 1.755.18.113.54.09 1.305 0-.113.315-.225.63-.383.923-.607 1.26-1.44 1.102-2.565.9a6.993 6.993 0 0 0-.99-.158c-.585-.067-1.823-.18-2.07.585-.203.653.72 1.576 1.035 1.778 1.282.81 2.97.9 4.14.9.855 0 1.26.135 2.003.473l.113.045c.72.315 1.237.562 2.025.09.022 0 .045-.023.067-.045.833-1.26.428-3.016-1.237-5.356.135.067.27.157.405.27.067.068.18.045.247 0 .023-.023.045-.068.068-.09 0 0 .022 0 .045-.023.315 1.553.9 3.106 1.282 3.534.45.472 2.476 1.372 3.601 1.237.338-.045.585-.18.72-.405.293-.54-.382-1.125-.832-1.53-.09-.09-.18-.157-.226-.203-.495-.517-.765-.855-.922-1.507-.428-1.643-.113-2.858 1.013-3.916l.157-.157c.27-.248.54-.473.653-.743a.17.17 0 0 1 .09.045c.607.293 1.26.585 1.935.045.293-.225.54-.63.765-1.035.158-.27.315-.54.473-.72a26.384 26.384 0 0 1 1.777-1.868c.316-.315.653-.608 1.013-.945 2.025-1.823 4.32-3.848 2.61-6.616l12.895-.113c.09 0 .18-.067.18-.18 0-.112-.067-.18-.18-.18l-13.21.113c-.067 0-.112.045-.157.09-.023.067-.023.135 0 .18 1.845 2.655-.293 4.59-2.386 6.436-.36.315-.72.63-1.035.945a33.559 33.559 0 0 0-1.8 1.89c-.18.203-.337.495-.517.765-.203.36-.428.743-.676.945-.517.406-.967.203-1.575-.09-.045-.022-.09-.045-.157-.067 0-.248-.09-.495-.315-.743-.316-.36-1.103-.675-1.733-.675.405-.405.787-.787 1.215-1.17.18-.157.36-.338.518-.518a21.37 21.37 0 0 0 2.498-2.903c.112-.157.247-.382.404-.63.36-.562.81-1.327 1.328-1.822.135.045.248.067.36.067.585.09 1.013-.135 1.17-.36.068-.112.09-.27 0-.36-.09-.112-.292-.248-.81-.157-.292.044-.562.202-.832.427-.473-.157-1.013-.428-1.62-.833-.473-.315-.923-.742-1.35-1.17-.653-.63-1.328-1.282-2.161-1.62-.81-.315-1.89-.022-3.06.833-1.08.787-2.138 2.025-2.588 3.173a1.863 1.863 0 0 0-.248-.338c-.338-.383-.675-.563-.99-.495-.293.068-.473.337-.585.788-.248 1.012.495 2.115 1.147 3.083.27.405.518.787.675 1.125.586 1.282.81 2.543 1.013 3.96 0 .135.045.315.09.563.045.27.113.653.18 1.103-.157.562-.112 1.395.045 2.295a.49.49 0 0 1-.157.203h-.023a2.394 2.394 0 0 0-.855-.383l-.045-.045c-.315-.405-.653-.765-.968-1.125l-.112-.113c.225-2.07-.248-4.208-.788-6.278-.315-1.17-.9-2.903-1.935-4.433a8.023 8.023 0 0 1 2.295-4.209c.293-.27.585-.54.9-.81.743-.652 1.508-1.305 1.98-2.183a5.03 5.03 0 0 0 .473-1.305c.18 0 .383 0 .54-.022.338-.068.563-.18.653-.383a.192.192 0 0 0 0-.157c-.023-.045-.09-.09-.135-.09-.36-.023-.675 0-.968.045.068-.72.045-1.463 0-2.228v-.135c-.045-.563-.112-1.148-.18-1.778-.27-2.205-.562-4.703 1.193-6.233.135-.113.27-.248.428-.36 1.125-.968 2.182-1.868 2.633-3.354.067-.247.134-.495.18-.742.044.045.112.09.157.135.405.337.855.607 1.26.878.878.54 1.688 1.057 2.228 2.047.608 1.103.743 3.33-.292 4.118-.495.383-.63.316-.63.316-.226-.158.18-1.508.314-2.026.136-.495.225-.765.203-.9a.124.124 0 0 0-.067-.113c-.045-.022-.09-.044-.136-.044-1.282.202-1.102 2.43-1.012 3.645 0 .135 0 .225.022.338.045.562 0 1.102 0 1.62-.022.81-.067 1.575.113 2.385.18.855.112 1.463-.203 1.89-.18.248-.472.45-.877.563.067-.225.157-.45.247-.675.27-.743.563-1.508.248-2.093-.203-.382-.585-.63-1.193-.787h-.135a.124.124 0 0 0-.067.112c-.113.54.067.945.225 1.328.045.09.09.18.112.27-.315.36-.765.247-1.373.022-.157-.045-.315-.112-.472-.157-.068 0-.113 0-.158.045l-.09.09a.216.216 0 0 0-.045.202c.045.113.09.27.135.405 0 .09.045.158.068.248-.36.112-.72.203-1.103.315-.157.045-.337.09-.495.135-.067 0-.112.068-.112.113a.569.569 0 0 0 .112.54c.383.427 1.485.54 3.533.315h.158a1.99 1.99 0 0 0 0 .517c0 .045.022.068.067.113.428.337.923.45 1.485.337 1.373-.292 2.858-1.957 3.42-3.038 1.329-2.61 1.239-6.616.474-9.249-.496-1.687-1.396-2.835-2.746-3.51-.158-.09-.383-.203-.653-.36-.99-.563-1.957-1.08-2.655-1.283-.023-.81-.18-1.62-.383-2.43.09-.158.225-.293.383-.428.203-.18.405-.382.518-.63.225-.585.112-1.26.022-1.823v-.045c-.202-1.282-.788-2.205-1.8-2.88-1.013-.698-2.07-.878-3.533-.675-.383.067-2.003.45-2.183 1.215-.068.292.09.585.473.855-.068.315-.248.518-.428.743-.158.18-.315.36-.45.63-.158.337-.203.607-.248.832-.045.293-.112.54-.315.856a1.456 1.456 0 0 1-.18.202c-.157.135-.315.315-.315.563 0 .337.248.472.405.585.113.067.203.135.248.225.09.225.067.495.022.765-.045.405-.112.878.248 1.283.315.337.72.405 1.125.472.27.045.54.09.743.203.225.135.36.337.495.562-1.283.113-3.06 1.238-3.69 2.34-1.081 1.936-.36 4.344.292 6.482.225.72.427 1.395.54 1.98.157.765.045 1.373-.315 1.778-.068.067-.135.135-.225.202.022-.112.045-.247.067-.36.045-.337.068-.922-.18-1.215-.022-.045-.067-.067-.135-.067-.045 0-.09 0-.135.045-.09.09-.157.27-.225.562-.067.203-.157.585-.27.63-.022-.09 0-.382 0-.585.023-.382.045-.81-.09-1.035-.045-.067-.112-.112-.203-.067-.247.09-.27.022-.36-.18-.067-.18-.18-.473-.54-.473-.472 0-.54.36-.562.653-.135-.428-.293-.856-.608-.923-.157-.045-.315.022-.472.202-.045.045-.045.113-.023.18.068.158.09.293.068.428a1.02 1.02 0 0 0-.766-.158c-.067 0-.134.09-.134.158-.046 1.193 1.8 2.858 2.902 2.925.428.023.81 0 1.126-.09-.09.18-.158.316-.248.383-.135.112-.315.09-.472.09-.158 0-.316 0-.428.113-.09.112-.113.292-.023.607.136.54.968.855 1.126.9.765.27 1.395.248 1.867-.09.968-.652 1.058-2.34 1.148-3.69v-.383c.068.518.135 1.058.18 1.62v.518c0 .63 0 1.328.405 1.71.045.045.09.068.135.113-.495.292-.9.697-1.35 1.125-.247.247-.495.495-.788.742-.292.248-.607.496-.9.743-1.035.833-2.115 1.688-2.745 3.038-.203.45-.36.9-.473 1.373a7.217 7.217 0 0 0-1.08-.765c-.022 0-.045-.023-.09-.023h-7.494c-.067 0-.112.023-.135.09-.022.045-.045.113 0 .158.36.742-.36 1.755-1.012 2.655-.315.45-.63.9-.788 1.283a60.719 60.719 0 0 1-2.003 4.253c-.427.855-.742 1.733-1.057 2.588-.18.495-.36 1.013-.563 1.508l-.045.09c-.203.495-.473 1.147-.9 1.372-.248.113-.54.09-.855 0 0-.517-.203-1.012-.923-1.327-.18-.09-.72-.248-1.215-.27.045-.36.067-.675.09-1.013.112-1.193.202-2.205.652-3.353.136-.383.27-.743.406-1.103.36-.99.697-1.912 1.17-2.79.202-.36.427-.743.675-1.08.427.045.832 0 1.08-.18.293-.225.383-.586.27-1.126 0-.09-.112-.135-.18-.135-.45.068-.923.54-1.305 1.058-.698-.135-1.53-.472-1.89-.675-.585-.338-1.148-.72-1.688-1.08a22.232 22.232 0 0 0-1.71-1.103c-1.058-.607-2.25-.653-3.354-.112-1.372.675-2.407 2.115-2.632 3.668-.18 1.282.112 2.565.382 3.825.068.315.135.608.203.9.09.406.225.878.405 1.396.315.967.675 2.07.54 2.813a.987.987 0 0 1-.158.427c-.135-.607-.292-1.17-.427-1.688-.09-.315-.158-.607-.225-.855-.135-.562-.36-1.215-.585-1.89-.765-2.34-1.71-5.243-.563-7.066.563-.9 1.643-1.53 3.286-1.935.877-.225 1.687-.136 2.542-.045.63.067 1.306.135 1.98.067 1.126-.112 1.936-.473 2.431-1.125.743-.968.698-2.363.518-3.826.742.36 1.327.878 1.62 1.62 0 .046 0 .113-.023.203-.405 2.633-.36 3.96.136 4.276.202.135.45.09.742-.113.18-.135.18-.45.18-.9 0-.383 0-.945.18-1.035.045 0 .158-.045.473.18.27.18.292.63.337 1.125.045.518.068 1.058.405 1.418.045.067.135.067.203.022.495-.292.63-.832.63-1.372.157.607.405 1.26 1.103 1.102.067 0 .112-.067.135-.135.045-.337 0-.652-.045-.945.112.225.225.45.45.608a.205.205 0 0 0 .225 0c.27-.27.382-.63.315-1.035-.18-1.17-1.71-2.61-2.476-3.016a4.538 4.538 0 0 0-.697-.247 9.299 9.299 0 0 1-.945-.316c-.293-.135-.338-.224-.315-.247.09-.338.99-.157 1.552-.068.293.045.518.09.675.09.09 0 .136-.067.158-.134.068-.473-.068-.946-.18-1.396a4.08 4.08 0 0 1-.18-.81c-.068-.698-.09-1.418-.09-2.363v-.697c0-1.35 0-2.746-.203-4.074-.112-.675-.225-1.327-.337-1.957-.158-.81-.293-1.666-.428-2.52-.247-1.734-.967-3.016-2.138-3.826 0 0-2.25-1.553-3.24-1.35-.045 0-.068 0-.113.022 0-.113-.022-.225-.045-.338h.45c.473 0 .923.023 1.148-.247.135-.158.158-.405.068-.72-.225-.833.09-1.125.405-1.395.202-.18.45-.405.337-.765v-.046c-.472-.72-.427-1.08-.382-1.485 0-.135.022-.27.022-.427 0-.54-.067-.675-.292-1.058a17.61 17.61 0 0 1-.27-.473 2.514 2.514 0 0 0-.63-.742.49.49 0 0 0 .157-.203.935.935 0 0 0 0-.967c-.225-.405-.743-.72-1.215-.743-.383 0-.765.135-1.148.293-.292.112-.585.247-.877.27a4.602 4.602 0 0 1-.788 0c-.563 0-1.125 0-1.643.247-1.125.585-1.418 2.025-.877 4.14.135.473.292.968.45 1.419.09.27.202.562.292.855-.27.54-.36 1.282-.337 1.845-.113.045-.225.09-.36.112-2.7.766-5.491 1.553-6.572 4.861a15.31 15.31 0 0 0-.495 2.183c-.135.675-.247 1.395-.472 2.07-.135.405-.27.765-.405 1.125-.338.946-.675 1.846-.72 3.016-.09 1.575.495 3.128 1.732 4.77l.113.136c.585.765 1.215 1.553 1.823 2.07-.855.248-1.575.608-2.273 1.598-.9 1.238-1.08 2.7-.54 4.32.292.878.742 1.756 1.192 2.61.9 1.734 1.8 3.512 1.463 5.447 0 .045 0 .067-.022.112-.36-.765-.788-1.507-1.215-2.228-.72-1.237-1.44-2.52-1.846-3.87-.36-1.193-.472-3.758-.45-4.073v-.158a.205.205 0 0 0-.18-.09L.18 46.193c-.09 0-.18.067-.18.18 0 .112.068.18.18.18l13.435-.113c0 .248 0 .675.067 1.463.045.653.18 1.868.405 2.61.428 1.396 1.17 2.678 1.89 3.939.473.832.968 1.687 1.373 2.587-.022.09-.045.158-.067.248-.248.765-.518 1.62-.158 2.228.18.292.473.495.9.585-.045.27-.09.54-.157.81-.09.45-.203.923-.225 1.485v.09c0 .293-.045.63.045.923-.653.36-1.755 1.238-1.71 2.07 0 .428.337.743.9.968 1.057.382 3.375-.338 4.05-1.103 1.148-1.305.855-3.87.338-6.098a1.6 1.6 0 0 0 .382-.81c.135-.833-.225-1.98-.562-2.97-.158-.496-.315-.969-.383-1.351-.067-.293-.135-.585-.202-.9-.27-1.215-.563-2.476-.383-3.69.203-1.441 1.193-2.791 2.43-3.421.99-.495 2.07-.45 3.039.09.585.337 1.147.72 1.687 1.08.54.36 1.103.742 1.71 1.102.226.136 1.036.518 1.823.698-.27.405-.495.788-.585.99-.472.9-.81 1.823-1.192 2.836-.136.36-.27.742-.405 1.102-.473 1.193-.563 2.296-.676 3.443-.022.338-.067.675-.112 1.036a.932.932 0 0 0-.518.135.552.552 0 0 0-.247.382c0 .225.157.405.427.563-.18.36-.382.697-.585 1.035-.27.45-.562.923-.742 1.395-.27.698-.338 1.305-.225 1.778-.765 0-1.306.112-1.598 1.08-.248.833 0 1.418.855 1.89.945.518 2.138.496 3.285.45.563 0 1.103-.044 1.598 0 .315.023.63.046.945.046"/>
</svg>
