<svg preserveAspectRatio="xMidYMid meet" width="100%" height="100%" overflow="visible" style="display: block;" viewBox="0 0 30.6201 50.9542" fill="none" xmlns="http://www.w3.org/2000/svg">
<g id="Logo">
<path d="M2.44784 14.677L0 3.55043C5.50765 -0.232475 17.8793 -1.25607 24.7566 1.77018C31.7107 4.83023 32.4896 13.6757 27.0376 18.3488C22.1071 22.5749 14.0195 25.3587 13.0737 27.4728C12.3171 29.164 13.8711 31.7006 14.7427 32.8689L11.2378 33.9816C3.7274 28.4739 5.45202 23.3557 10.1252 20.9635C14.7983 18.5713 20.8067 14.7883 18.9152 8.72428C17.4019 3.8731 12.0909 3.51334 9.62448 3.93986L5.28512 14.677H2.44784Z" fill="var(--fill-0, #F5EFDE)"/>
<path d="M6.50249 43.4219L12.4854 37.822C12.7505 37.5738 13.1653 37.5831 13.4191 37.8429L19.5552 44.1239C19.8152 44.3901 19.8075 44.8174 19.538 45.074L13.5547 50.7701C13.2886 51.0234 12.868 51.0142 12.6133 50.7494L6.47761 44.3722C6.21949 44.1039 6.23069 43.6764 6.50249 43.4219Z" fill="var(--fill-0, #F5EFDE)"/>
</g>
</svg>
