<svg xmlns="http://www.w3.org/2000/svg" fill="none" viewBox="0 0 80 80">
  <path fill="#0B6A62" d="M0 12C0 5.373 5.373 0 12 0h56c6.627 0 12 5.373 12 12v56c0 6.627-5.373 12-12 12H12C5.373 80 0 74.627 0 68V12Z"/>
  <path fill="#F5EFDE" d="m29.485 29.253-2.447-11.126c5.507-3.783 17.879-4.807 24.756-1.78 6.954 3.06 7.733 11.905 2.281 16.578-4.93 4.226-13.018 7.01-13.964 9.124-.756 1.691.798 4.228 1.67 5.396l-3.506 1.113c-7.51-5.508-5.785-10.626-1.112-13.018 4.673-2.392 10.681-6.176 8.79-12.24-1.514-4.85-6.825-5.21-9.29-4.784l-4.34 10.737h-2.838Zm4.055 28.745 5.983-5.6a.668.668 0 0 1 .934.021l6.136 6.281a.668.668 0 0 1-.017.95l-5.984 5.696a.668.668 0 0 1-.941-.02l-6.136-6.378a.668.668 0 0 1 .025-.95Z"/>
</svg>
