<svg preserveAspectRatio="xMidYMid meet" width="100%" height="100%" overflow="visible" style="display: block;" viewBox="0 0 60 43" fill="none" xmlns="http://www.w3.org/2000/svg">
<g id="Logo">
<path id="Vector" d="M39.2159 17.5946L40.8125 10.8837C40.7846 10.3762 40.6165 9.89683 40.3364 9.50212C39.1039 7.89489 36.5828 8.54342 34.9582 9.02276C33.9218 8.12046 32.3812 8.43063 31.2047 8.74079C31.0646 8.76899 30.9245 8.74079 30.8685 8.628C30.8125 8.51522 30.8966 8.40243 30.9526 8.34604C31.3448 8.06407 31.5688 7.58473 31.5688 7.07719C31.5688 6.34407 31.0926 5.72374 30.4203 5.55456V4.08833H31.4288V3.24243H30.4203V2.28374H29.58V3.24243H28.5996V4.08833H29.58V5.55456C28.9078 5.75194 28.4315 6.34407 28.4315 7.07719C28.4315 7.61293 28.6836 8.06407 29.0758 8.34604C29.1318 8.37423 29.1599 8.51522 29.1318 8.59982C29.0758 8.7126 28.9638 8.76899 28.8237 8.7126C27.6472 8.40243 26.0786 8.12046 25.0141 8.99456C23.3895 8.54342 20.8685 7.86669 19.6359 9.4739C19.3559 9.8687 19.1878 10.348 19.1598 10.8555L20.7565 17.5663H39.2159V17.5946ZM35.9666 10.0379C36.0227 10.0379 36.0786 10.0096 36.0786 10.0096C37.1431 9.84047 38.4596 9.64307 39.3559 10.2352C39.1319 10.3198 38.9638 10.4608 38.8518 10.7146C38.8237 10.7709 38.8237 10.8555 38.8237 10.912C38.8237 11.0247 38.8237 11.1375 38.8798 11.2503C38.6557 11.2221 38.4597 11.2503 38.2635 11.363C37.9274 11.5887 37.7594 12.1808 37.8434 12.8294C37.9554 13.2523 38.1515 13.506 38.4316 13.6189C38.7117 13.7035 38.9918 13.5624 39.2159 13.4497C39.1039 13.8162 38.7117 14.1546 38.3476 14.2956C37.8154 14.4647 37.1431 14.4365 36.7229 14.211C36.5548 14.1264 36.0786 13.8444 36.0227 13.3932C36.2747 13.5624 36.6109 13.647 36.919 13.506C37.1151 13.3932 37.3112 13.1677 37.3952 12.8575C37.5072 12.2371 37.3952 11.6733 37.087 11.3349C36.863 11.1375 36.6109 11.1375 36.3867 11.1939C36.4428 11.0811 36.4708 10.9966 36.4708 10.8555C36.4708 10.7992 36.4708 10.7709 36.4708 10.7146C36.4148 10.4044 36.2187 10.1788 35.9666 10.1225V10.0379ZM31.8209 13.5906C32.3531 13.3086 32.3812 12.5191 32.2691 12.0116C32.2131 11.7015 32.045 11.4759 31.9049 11.3913C31.7088 11.2503 31.4567 11.2785 31.2887 11.3067C31.3448 11.1939 31.3727 11.0529 31.3727 10.912C31.3727 10.7709 31.3448 10.63 31.2327 10.5172C31.1487 10.4326 31.0646 10.3198 30.9245 10.2634C30.9806 10.1506 31.0926 10.066 31.2327 9.98142C31.5969 9.84047 32.073 9.75589 32.5492 9.75589C33.0254 9.75589 33.5016 9.84047 33.8657 9.98142C34.0058 10.0379 34.1179 10.1506 34.1739 10.2634C34.0339 10.3198 33.9498 10.4044 33.8657 10.5172C33.7817 10.63 33.7257 10.7709 33.7257 10.912C33.7257 11.0529 33.7537 11.1657 33.8097 11.3067C33.6136 11.2785 33.3896 11.2503 33.1935 11.3913C33.0534 11.5041 32.8854 11.7015 32.8293 12.0116C32.7453 12.5474 32.7733 13.3086 33.2775 13.5906C33.6136 13.7598 33.9497 13.6189 34.2019 13.4778C34.1739 13.7035 33.9497 14.0136 33.7817 14.1264C33.3896 14.3519 32.9694 14.4647 32.5212 14.4647C32.101 14.4647 31.6528 14.3519 31.2606 14.1264C31.0926 14.0136 30.8685 13.7035 30.8405 13.4778C31.1487 13.5906 31.4848 13.7598 31.8209 13.5906ZM27.1711 11.9834C27.115 11.6733 26.9469 11.4477 26.8069 11.363C26.6108 11.2221 26.3587 11.2503 26.1906 11.2785C26.2466 11.1657 26.2747 11.0247 26.2747 10.8837C26.2747 10.7428 26.2466 10.6018 26.1346 10.489C26.0506 10.4044 25.9666 10.2916 25.8265 10.2352C25.8826 10.1225 25.9945 10.0379 26.1346 9.95329C26.4987 9.81225 26.975 9.72766 27.4511 9.72766C27.9273 9.72766 28.4035 9.81225 28.7677 9.95329C28.9078 10.0096 29.0198 10.1225 29.0758 10.2352C28.9357 10.2916 28.8517 10.3762 28.7677 10.489C28.6836 10.6018 28.6276 10.7428 28.6276 10.8837C28.6276 11.0247 28.6557 11.1375 28.7117 11.2785C28.5156 11.2503 28.2915 11.2221 28.0954 11.363C27.9554 11.4759 27.7873 11.6733 27.7312 11.9834C27.6472 12.5191 27.6472 13.2805 28.1794 13.5624C28.5156 13.7316 28.8517 13.5906 29.1038 13.4497C29.0758 13.6752 28.8517 13.9853 28.6836 14.0982C28.2915 14.3238 27.8714 14.4365 27.4232 14.4365C27.003 14.4365 26.5548 14.3238 26.1626 14.0982C25.9945 13.9853 25.7705 13.6752 25.7424 13.4497C26.0226 13.5906 26.3307 13.7316 26.6668 13.5624C27.2271 13.2805 27.2551 12.5191 27.1711 11.9834ZM21.7368 11.3913C21.5408 11.2785 21.3447 11.2221 21.1205 11.2785C21.1766 11.1657 21.1766 11.0529 21.1766 10.9401C21.1766 10.8837 21.1766 10.7992 21.1486 10.7428C21.0646 10.4889 20.8685 10.348 20.6444 10.2634C21.5687 9.69953 22.8573 9.89683 23.9217 10.0379C23.9217 10.0379 23.9777 10.0379 24.0338 10.066V10.207C23.7817 10.2634 23.5856 10.489 23.5296 10.7992C23.5296 10.8555 23.5296 10.8837 23.5296 10.9401C23.5296 11.0811 23.5575 11.1657 23.6136 11.2785C23.3895 11.2221 23.1374 11.1939 22.9133 11.4195C22.6052 11.7578 22.4651 12.3218 22.6052 12.9421C22.6892 13.2241 22.8572 13.4778 23.0814 13.5906C23.3895 13.7316 23.7256 13.647 23.9777 13.4778C23.9217 13.929 23.4456 14.211 23.2775 14.2956C22.8573 14.5211 22.185 14.5493 21.6528 14.3801C21.3166 14.2673 20.8965 13.9008 20.7844 13.5343C21.0086 13.647 21.2886 13.788 21.5687 13.7035C21.8489 13.5906 22.045 13.3369 22.157 12.9139C22.241 12.209 22.0729 11.645 21.7368 11.3913ZM39.8041 20.6963C39.7201 20.5271 39.4961 20.3297 39.2159 20.3297H20.7844C20.5043 20.3297 20.2802 20.5552 20.1962 20.6963C20.0841 21.0346 20.1962 21.373 20.3643 21.6831L28.7957 37.0785C29.0758 37.5015 29.44 38.2346 29.9721 38.2346C30.5044 38.2346 30.8685 37.5015 31.1487 37.0785L39.5801 21.6831C39.8042 21.4012 39.9162 21.0627 39.8041 20.6963ZM34.594 24.9539L30.9806 31.5238C30.8685 31.7211 30.5884 32.2005 30.0002 32.2005C29.3839 32.2005 29.1318 31.7211 29.0197 31.4956L25.4063 24.9257C25.2102 24.6156 25.1542 24.2772 25.2663 23.967L25.2942 23.8824L25.3223 23.8261C25.4623 23.6005 25.7424 23.3186 26.1346 23.3186H33.8657C34.286 23.3186 34.6221 23.6287 34.7341 23.8824V23.9107V23.9388C34.8461 24.3054 34.7901 24.6437 34.594 24.9539ZM24.7341 34.569C25.5744 35.7815 25.0422 36.7965 23.6416 36.7402C21.8769 36.6837 22.129 34.9355 22.101 34.5126C22.101 34.5126 21.5687 33.7231 21.0646 32.9618C21.0646 32.9618 17.087 32.9618 14.4819 32.9618C11.8768 32.9618 12.7452 31.3264 13.1934 30.2549C13.4174 29.691 13.0533 28.6759 11.4006 28.6759H6.58269C6.19048 28.6759 5.93839 28.3658 5.93839 28.3658L4.56585 26.8149H13.2774C13.6135 26.8149 13.6416 26.1664 13.2494 26.1664C13.2494 26.1664 5.51824 26.1664 3.97763 26.1664L2.54901 24.5591H14.3979C14.734 24.531 14.8461 23.967 14.3979 23.9107C14.3979 23.9107 4.39779 23.9107 1.96079 23.9107L0.700324 22.4726C0.532262 22.2752 0.588254 22.106 0.840347 22.106H16.7508C17.0589 22.1342 17.115 22.1906 17.3391 22.6136C17.5911 23.0366 18.1794 24.0798 18.3195 24.39C18.4875 24.7283 18.5716 24.9821 18.2354 25.5461C17.8992 26.11 16.5547 28.4785 16.3026 28.9015C16.0505 29.2962 15.7424 30.2267 16.7788 30.2267H21.6528C22.101 30.2267 22.269 30.3113 22.4651 30.6778C22.7732 31.0726 24.7341 34.569 24.7341 34.569ZM59.2443 22.5008L57.9835 23.9388C55.5745 23.9388 45.5465 23.9388 45.5465 23.9388C45.0983 23.9953 45.2104 24.531 45.5465 24.5874H57.3953L55.9667 26.1946C54.426 26.1946 46.695 26.1946 46.695 26.1946C46.3028 26.1946 46.3588 26.8431 46.6669 26.8431H55.3784L54.0059 28.3939C54.0059 28.3939 53.7538 28.7041 53.3617 28.7041H48.5437C46.919 28.7041 46.5269 29.691 46.751 30.2831C47.1992 31.3545 48.0675 32.99 45.4625 32.99C42.8574 32.99 38.8798 32.99 38.8798 32.99C38.3476 33.7513 37.8434 34.5408 37.8434 34.5408C37.8154 34.9638 38.0674 36.6837 36.3027 36.7683C34.9022 36.8248 34.37 35.8096 35.2103 34.5972C35.2103 34.5972 37.171 31.1008 37.3671 30.7343C37.5633 30.3677 37.7313 30.2831 38.1795 30.2831H43.0535C44.0899 30.2831 43.7817 29.3526 43.5297 28.9579C43.2776 28.5631 41.933 26.1946 41.5968 25.6024C41.2607 25.0385 41.3447 24.7848 41.5128 24.4464C41.6809 24.108 42.2692 23.0647 42.4932 22.67C42.7453 22.2752 42.7734 22.1906 43.0815 22.1625H58.9915C59.3565 22.1625 59.4126 22.3316 59.2443 22.5008Z" fill="var(--fill-0, #FFD520)"/>
<path id="Vector_2" d="M39.72 18.2151L41.4847 10.9404C41.5128 10.3482 41.2607 9.67147 40.9246 9.16394C39.4399 7.21837 36.7228 7.89509 35.0982 8.34624C34.4259 7.89509 33.5576 7.69771 32.5491 7.8387C32.5491 7.8387 32.269 7.89509 32.0449 7.92328C32.157 7.66951 32.213 7.35935 32.213 7.04918C32.213 6.17509 31.7088 5.41378 30.9525 5.07542V4.56788C31.1206 4.56788 31.9329 4.56788 31.9329 4.56788V2.76328C31.9329 2.76328 31.1206 2.76328 30.9525 2.76328C30.9525 2.5941 30.9525 1.7764 30.9525 1.7764H29.1037C29.1037 1.7764 29.1037 2.5941 29.1037 2.76328C28.9357 2.76328 28.0954 2.76328 28.0954 2.76328V4.59607C28.0954 4.59607 28.9076 4.59607 29.1037 4.59607V5.10361C28.3754 5.44198 27.8432 6.20328 27.8432 7.07738C27.8432 7.38755 27.8993 7.66951 28.0113 7.95148C27.9273 7.92328 27.6191 7.89509 27.5071 7.86689C26.5267 7.69771 25.6584 7.89509 24.9581 8.37444C23.3334 7.92328 20.6443 7.24657 19.1317 9.19214C18.7675 9.67147 18.5435 10.3764 18.5714 10.9685L20.3362 18.2433H39.72V18.2151ZM19.6639 9.50229C20.8965 7.89509 23.4174 8.54361 25.0421 9.02296C26.0785 8.12067 27.6751 8.43083 28.8517 8.74099C28.9917 8.76918 29.1037 8.74099 29.1597 8.62821C29.1878 8.54361 29.1597 8.40263 29.1037 8.37444C28.7115 8.09247 28.4594 7.61312 28.4594 7.10558C28.4594 6.37246 28.9357 5.78033 29.6079 5.58295V4.11672H28.6275V3.27082H29.6079V2.28393H30.4482V3.24263H31.4567V4.08853H30.4482V5.55476C31.1206 5.75214 31.5967 6.34427 31.5967 7.07738C31.5967 7.58492 31.3446 8.06427 30.9805 8.34624C30.9245 8.37444 30.8685 8.51542 30.8964 8.62821C30.9525 8.74099 31.0925 8.76918 31.2326 8.74099C32.4091 8.45902 33.9497 8.14885 34.9861 9.02296C36.6107 8.57181 39.1318 7.89509 40.3643 9.50229C40.6444 9.89709 40.8125 10.3764 40.8405 10.8839L39.2438 17.5947H20.8124L19.2157 10.8839C19.2157 10.3764 19.3838 9.89709 19.6639 9.50229ZM30.7845 10.7712C30.8964 11.025 30.7845 11.2223 30.6444 11.4479C30.5323 11.6171 30.3363 11.8145 30.4203 11.9836C30.4482 12.0682 30.5323 12.1246 30.5884 12.1246C30.7284 12.1528 30.8685 12.04 31.0085 11.9272C31.0925 11.8708 31.1766 11.7862 31.2606 11.758C31.4287 11.7017 31.5967 11.758 31.6808 11.8991C31.8209 12.1528 31.8488 12.604 31.7368 12.8859C31.5687 13.1961 31.3166 13.0833 31.0085 12.9141C30.8685 12.8295 30.7564 12.7449 30.6163 12.7449C30.4203 12.7449 30.3363 13.0833 30.3363 13.2525C30.3082 13.8728 30.7284 14.4368 31.3446 14.7187C31.7088 14.8878 32.157 14.9724 32.6052 14.9443C33.0533 14.9443 33.5015 14.8597 33.8657 14.7187C34.4819 14.4368 34.9021 13.8446 34.874 13.2525C34.874 13.0833 34.79 12.7449 34.594 12.7449C34.4539 12.7449 34.3419 12.8295 34.2018 12.9141C33.8937 13.0833 33.6416 13.1961 33.4735 12.8859C33.3615 12.6321 33.3895 12.1528 33.5295 11.8991C33.6136 11.758 33.8097 11.7017 33.9497 11.758C34.0337 11.7862 34.1178 11.8426 34.2018 11.9272C34.3419 12.04 34.4819 12.1528 34.6219 12.1246C34.678 12.1246 34.7621 12.0682 34.79 11.9836C34.8461 11.8145 34.65 11.6171 34.566 11.4479C34.4259 11.2223 34.3139 10.9967 34.4259 10.7712C34.51 10.6584 34.65 10.5738 34.8461 10.5738H34.9301C34.8461 10.1226 34.706 9.55865 33.7816 9.33312C33.5295 9.27675 33.1654 9.19214 32.6332 9.19214C32.129 9.19214 31.7368 9.27675 31.4847 9.33312C30.5603 9.55865 30.4203 10.1226 30.3363 10.5738H30.4203C30.5323 10.5738 30.6724 10.6584 30.7845 10.7712ZM31.2326 9.98168C31.5967 9.84064 32.073 9.75605 32.5491 9.75605C33.0254 9.75605 33.5015 9.84064 33.8657 9.98168C34.0057 10.038 34.1178 10.1509 34.1737 10.2636C34.0337 10.32 33.9497 10.4046 33.8657 10.5174C33.7816 10.6302 33.7256 10.7712 33.7256 10.9121C33.7256 11.0531 33.7536 11.1659 33.8097 11.3069C33.6136 11.2787 33.3895 11.2505 33.1934 11.3915C33.0533 11.5043 32.8852 11.7017 32.8292 12.0118C32.7452 12.5475 32.7733 13.3089 33.2774 13.5908C33.6136 13.76 33.9497 13.619 34.2018 13.4781C34.1738 13.7036 33.9497 14.0137 33.7816 14.1266C33.3895 14.3522 32.9693 14.4649 32.5212 14.4649C32.1009 14.4649 31.6528 14.3522 31.2606 14.1266C31.0925 14.0137 30.8685 13.7036 30.8404 13.4781C31.1206 13.619 31.4287 13.76 31.7648 13.5908C32.297 13.3089 32.3251 12.5194 32.213 12.0118C32.157 11.7017 31.9889 11.4761 31.8488 11.3915C31.6528 11.2505 31.4006 11.2787 31.2326 11.3069C31.2886 11.1941 31.3166 11.0531 31.3166 10.9121C31.3166 10.7712 31.2886 10.6302 31.1766 10.5174C31.0925 10.4328 31.0085 10.32 30.8685 10.2636C30.9805 10.1509 31.0925 10.038 31.2326 9.98168ZM40.4483 20.499V20.4708L40.4203 20.4427C40.2522 20.0761 39.8041 19.6814 39.2158 19.6814H20.7844C20.2241 19.6814 19.7759 20.0761 19.6079 20.4427L19.5799 20.499L19.5519 20.5555C19.4398 20.8938 19.3838 21.4296 19.7759 22.078L28.4315 37.84C28.6836 38.263 29.0757 38.9679 29.9441 38.9679H29.9721H30.0001C30.8685 38.9397 31.2886 38.2348 31.5407 37.8119L40.2243 21.9935C40.5884 21.3731 40.5604 20.8374 40.4483 20.499ZM39.636 21.6833L31.2046 37.0787C30.9245 37.5016 30.5603 38.2348 30.0281 38.2348C29.4959 38.2348 29.1037 37.5016 28.8517 37.0787L20.4202 21.6833C20.2522 21.4013 20.1121 21.063 20.2522 20.6964C20.3362 20.5272 20.5602 20.3298 20.8404 20.3298H39.2719C39.5519 20.3298 39.804 20.5555 39.8601 20.6964C39.9161 21.063 39.8041 21.4013 39.636 21.6833ZM34.734 23.9391V23.9108C34.6219 23.6288 34.2858 23.3469 33.8657 23.3469H26.1345C25.7424 23.3469 25.4342 23.6288 25.3223 23.8545L25.2942 23.9108L25.2662 23.9954C25.1821 24.3056 25.2382 24.644 25.4063 24.9541L29.0197 31.524C29.1318 31.7214 29.4118 32.2289 30.0001 32.2289C30.6163 32.2289 30.8685 31.7495 30.9805 31.5522L34.594 24.9823C34.79 24.6721 34.8461 24.3338 34.7621 23.9954L34.734 23.9391ZM34.0337 24.5875L30.5043 31.0446C30.3923 31.2138 30.2522 31.524 30.0001 31.524C29.748 31.524 29.6079 31.2138 29.4959 31.0446L25.9384 24.5875C25.8544 24.4748 25.8264 24.3338 25.8544 24.1928C25.8824 24.1365 25.9945 24.0236 26.1065 24.0236H33.8376C33.9497 24.0236 34.0618 24.1365 34.0897 24.1928C34.1458 24.3056 34.1178 24.4466 34.0337 24.5875ZM59.9163 21.9652C59.7766 21.6551 59.4677 21.4577 59.076 21.4577H51.3447V0H8.68344V21.4859H0.896301C0.504186 21.4859 0.196013 21.6833 0.0559916 21.9935C1.5104e-06 22.1063 0 22.219 0 22.3318C0 22.5574 0.0840316 22.783 0.252094 22.9804L5.43417 28.8734C5.54624 29.0145 5.93836 29.4092 6.58266 29.4092H8.68344V43H51.3727V29.4092H53.4175C54.0338 29.4092 54.454 28.9863 54.566 28.8734L59.7481 22.9804C59.9163 22.783 60 22.5574 60 22.3318C60 22.1909 59.9724 22.078 59.9163 21.9652ZM6.58266 28.7043C6.19045 28.7043 5.93836 28.3941 5.93836 28.3941L4.56582 26.8433H13.2773C13.6135 26.8433 13.6415 26.1948 13.2493 26.1948C13.2493 26.1948 5.5182 26.1948 3.9776 26.1948L2.54898 24.5875H14.3978C14.734 24.5594 14.8459 23.9954 14.3978 23.9391C14.3978 23.9391 4.39776 23.9391 1.96076 23.9391L0.700199 22.501C0.532137 22.3037 0.58822 22.1344 0.840313 22.1344H16.7507C17.0589 22.1626 17.1149 22.219 17.339 22.642C17.5911 23.065 18.1793 24.1082 18.3193 24.4184C18.4874 24.7567 18.5714 25.0105 18.2353 25.5744C17.8992 26.1384 16.5547 28.5069 16.3026 28.9299C16.0504 29.3246 15.7423 30.2551 16.7787 30.2551H21.6527C22.1009 30.2551 22.269 30.3397 22.465 30.7062C22.6611 31.0728 24.622 34.5692 24.622 34.5692C25.4623 35.7817 24.93 36.7967 23.5295 36.7404C21.7648 36.684 22.0169 34.9358 21.9889 34.5129C21.9889 34.5129 21.4566 33.7233 20.9524 32.962C20.9524 32.962 16.9748 32.962 14.3698 32.962C11.7647 32.962 12.6331 31.3266 13.0813 30.2551C13.3053 29.6912 12.9412 28.676 11.2885 28.676H6.58266V28.7043ZM50.7005 42.2669H9.35578V29.3528H11.4006C12.1849 29.3528 12.437 29.5784 12.493 29.7194C12.5491 29.8604 12.5491 30.0295 12.465 30.1987C12.2409 30.6781 11.9888 31.2983 11.9888 31.8906C11.9888 32.2007 12.0449 32.4827 12.2409 32.7647C12.605 33.3285 13.3334 33.6105 14.4538 33.6105C14.4538 33.6105 20.0561 33.6105 20.7004 33.6105C20.9244 33.9489 21.2886 34.5129 21.4286 34.7102V34.7384C21.4286 36.4302 22.1569 37.3325 23.6135 37.3889C24.5379 37.417 25.2382 37.0787 25.6023 36.4584C25.9665 35.8099 25.8544 34.9639 25.2942 34.1744L23.1653 30.3961C22.8292 29.7194 22.353 29.5784 21.7648 29.5784H16.8347C16.8628 29.4938 16.8908 29.381 16.9748 29.2682L18.2353 27.0689L18.9077 25.9128C19.1317 25.5181 19.2157 25.2079 19.2157 24.9259C19.2157 24.6158 19.1037 24.362 18.9917 24.1364C18.8235 23.7699 18.2074 22.6984 17.9832 22.3036V22.2754C17.7031 21.7961 17.423 21.4859 16.8908 21.4577H9.35578V0.676722H50.7005V21.4859H43.1374C42.6052 21.5142 42.325 21.8243 42.045 22.3036V22.3318C41.8209 22.7266 41.2046 23.798 41.0365 24.1646C40.9246 24.4184 40.8125 24.644 40.8125 24.9541C40.8125 25.2361 40.8965 25.5462 41.1206 25.941L41.7929 27.0971L43.0534 29.2964C43.1094 29.4092 43.1655 29.522 43.1934 29.6066H38.2634C37.6752 29.6066 37.1991 29.7475 36.8628 30.4242L34.734 34.2026C34.1737 35.0204 34.0618 35.838 34.4259 36.4866C34.7621 37.1069 35.4903 37.4453 36.4147 37.417C37.8713 37.3607 38.5995 36.4866 38.5995 34.7666V34.7384C38.7397 34.541 39.1038 33.9771 39.3279 33.6388C39.9722 33.6388 45.5744 33.6388 45.5744 33.6388C46.6949 33.6388 47.4232 33.3568 47.7873 32.7928C47.9554 32.5109 48.0394 32.2289 48.0394 31.9187C48.0394 31.3266 47.7873 30.7062 47.5632 30.2269C47.4792 30.0578 47.4792 29.8886 47.5352 29.7475C47.6192 29.6066 47.8433 29.381 48.6277 29.381H50.7005V42.2669ZM59.2443 22.501L57.9834 23.9391C55.5745 23.9391 45.5464 23.9391 45.5464 23.9391C45.0982 23.9954 45.2102 24.5312 45.5464 24.5875H57.3952L55.9666 26.1948C54.426 26.1948 46.6949 26.1948 46.6949 26.1948C46.3027 26.1948 46.3587 26.8433 46.6668 26.8433H55.3784L54.0058 28.3941C54.0058 28.3941 53.7537 28.7043 53.3615 28.7043H48.5436C46.9189 28.7043 46.5268 29.6912 46.7508 30.2833C47.199 31.3548 48.0674 32.9902 45.4623 32.9902C42.8573 32.9902 38.8797 32.9902 38.8797 32.9902C38.3475 33.7515 37.8433 34.541 37.8433 34.541C37.8152 34.9639 38.0674 36.684 36.3027 36.7686C34.9021 36.8249 34.3698 35.8099 35.2103 34.5974C35.2103 34.5974 37.171 31.101 37.3671 30.7345C37.5631 30.3679 37.7312 30.2833 38.1794 30.2833H43.0534C44.0898 30.2833 43.7817 29.3528 43.5296 28.958C43.2774 28.5633 41.9329 26.1948 41.5968 25.6027C41.2607 25.0387 41.3447 24.7849 41.5128 24.4466C41.6808 24.1082 42.2691 23.065 42.4931 22.6702C42.7453 22.2754 42.7732 22.1909 43.0814 22.1626H58.9914C59.3564 22.1626 59.4116 22.3318 59.2443 22.501ZM25.6584 10.7712C25.7704 11.025 25.6584 11.2223 25.5183 11.4479C25.4063 11.6171 25.2102 11.8145 25.2942 11.9836C25.3223 12.0682 25.4063 12.1246 25.4623 12.1246C25.6023 12.1528 25.7424 12.04 25.8824 11.9272C25.9665 11.8708 26.0505 11.7862 26.1345 11.758C26.3026 11.7017 26.4706 11.758 26.5547 11.8991C26.6948 12.1528 26.7227 12.604 26.6108 12.8859C26.4427 13.1961 26.1906 13.0833 25.8824 12.9141C25.7424 12.8295 25.6303 12.7449 25.4903 12.7449C25.2942 12.7449 25.2102 13.0833 25.2102 13.2525C25.1821 13.8728 25.6023 14.4368 26.2186 14.7187C26.5827 14.8878 27.0309 14.9724 27.4791 14.9443C27.9272 14.9443 28.3754 14.8597 28.7396 14.7187C29.3558 14.4368 29.776 13.8446 29.748 13.2525C29.748 13.0833 29.6639 12.7449 29.4679 12.7449C29.3278 12.7449 29.2158 12.8295 29.0757 12.9141C28.7676 13.0833 28.5155 13.1961 28.3475 12.8859C28.2354 12.6321 28.2634 12.1528 28.4035 11.8991C28.4875 11.758 28.6836 11.7017 28.8236 11.758C28.9076 11.7862 28.9917 11.8426 29.0757 11.9272C29.2158 12.04 29.3558 12.1528 29.4959 12.1246C29.5519 12.1246 29.636 12.0682 29.6639 11.9836C29.72 11.8145 29.5239 11.6171 29.4399 11.4479C29.2998 11.2223 29.1878 10.9967 29.2998 10.7712C29.3839 10.6584 29.5239 10.5738 29.72 10.5738H29.804C29.72 10.1226 29.5799 9.55865 28.6556 9.33312C28.4035 9.27675 28.0393 9.19214 27.5071 9.19214C27.0029 9.19214 26.6108 9.27675 26.3587 9.33312C25.4342 9.55865 25.2942 10.1226 25.2102 10.5738H25.2942C25.4063 10.5738 25.5743 10.6584 25.6584 10.7712ZM26.1345 9.98168C26.4987 9.84064 26.9748 9.75605 27.4511 9.75605C27.9273 9.75605 28.4035 9.84064 28.7676 9.98168C28.9076 10.038 29.0197 10.1509 29.0757 10.2636C28.9357 10.32 28.8517 10.4046 28.7676 10.5174C28.6836 10.6302 28.6275 10.7712 28.6275 10.9121C28.6275 11.0531 28.6555 11.1659 28.7115 11.3069C28.5155 11.2787 28.2914 11.2505 28.0954 11.3915C27.9553 11.5043 27.7872 11.7017 27.7312 12.0118C27.6472 12.5475 27.6472 13.3089 28.1794 13.5908C28.5155 13.76 28.8517 13.619 29.1037 13.4781C29.0757 13.7036 28.8516 14.0137 28.6836 14.1266C28.2914 14.3522 27.8712 14.4649 27.423 14.4649C27.0029 14.4649 26.5547 14.3522 26.1626 14.1266C25.9945 14.0137 25.7704 13.7036 25.7424 13.4781C26.0225 13.619 26.3306 13.76 26.6668 13.5908C27.199 13.3089 27.227 12.5194 27.1149 12.0118C27.0589 11.7017 26.8908 11.4761 26.7508 11.3915C26.5547 11.2505 26.3026 11.2787 26.1345 11.3069C26.1906 11.1941 26.2186 11.0531 26.2186 10.9121C26.2186 10.7712 26.1906 10.6302 26.0785 10.5174C25.9945 10.4328 25.9105 10.32 25.7704 10.2636C25.8824 10.1509 25.9945 10.038 26.1345 9.98168ZM24.1457 14.324C24.4818 13.9292 24.622 13.4216 24.5099 12.9705C24.4259 12.6603 24.0617 12.8013 23.8656 12.9423C23.6975 13.0269 23.5575 13.1396 23.3894 13.0833C23.2774 13.0551 23.1933 12.9141 23.1653 12.8295C23.0533 12.4912 23.1093 12.0682 23.2774 11.8145C23.3334 11.7299 23.4454 11.7299 23.5575 11.7299C23.6975 11.7299 23.8376 11.8426 23.9496 11.9272C24.1177 12.0682 24.3699 12.2092 24.5099 12.04C24.6499 11.8708 24.4818 11.6453 24.3418 11.4761C24.2298 11.3069 24.1177 11.1659 24.1177 10.9685C24.1177 10.8276 24.1738 10.7147 24.2857 10.6302C24.3978 10.5174 24.5659 10.5174 24.5659 10.5174H24.622V10.461C24.622 10.2354 24.6779 9.98168 24.762 9.67147C23.8376 9.36134 22.8853 9.24854 21.7648 9.30489C20.7284 9.4177 20.0561 9.84064 19.804 10.4892C19.804 10.4892 20.1401 10.5174 20.3081 10.602C20.3922 10.6584 20.6443 10.7993 20.6163 11.0813C20.5883 11.2223 20.5042 11.3633 20.4202 11.5043C20.3362 11.6734 20.1401 11.8991 20.2241 12.04C20.3642 12.2938 20.6163 12.0964 20.7844 11.9554C20.8965 11.8708 21.0084 11.8145 21.0925 11.7862C21.1765 11.758 21.3726 11.758 21.4847 11.8991C21.6527 12.1246 21.7087 12.7167 21.5126 13.0269C21.3166 13.1961 21.1485 13.0833 20.9244 12.9705C20.7563 12.9141 20.6443 12.8295 20.4762 12.8013C20.3922 12.7732 20.2241 12.8013 20.2241 13.0551C20.2522 13.7882 20.5602 14.4085 21.2326 14.6905C22.1009 15.1417 23.3894 15.0852 24.1457 14.324ZM20.7844 13.4781C21.0084 13.5908 21.2886 13.7318 21.5687 13.6473C21.8488 13.5344 22.0449 13.2807 22.1569 12.8577C22.241 12.2092 22.0729 11.6453 21.7368 11.3915C21.5407 11.2787 21.3446 11.2223 21.1205 11.2787C21.1765 11.1659 21.1765 11.0531 21.1765 10.9404C21.1765 10.8839 21.1765 10.7993 21.1486 10.743C21.0645 10.4892 20.8684 10.3482 20.6443 10.2636C21.5687 9.69969 22.8572 9.89709 23.9217 10.038C23.9217 10.038 23.9777 10.038 24.0337 10.0663V10.2072C23.7816 10.2636 23.5855 10.4892 23.5295 10.7993C23.5295 10.8558 23.5295 10.8839 23.5295 10.9404C23.5295 11.0813 23.5575 11.1659 23.6135 11.2787C23.3894 11.2223 23.1373 11.1941 22.9132 11.4197C22.6051 11.758 22.465 12.322 22.6051 12.9423C22.6892 13.2243 22.8572 13.4781 23.0813 13.5908C23.3894 13.7318 23.7256 13.6473 23.9777 13.4781C23.9217 13.9292 23.4454 14.2111 23.2774 14.2957C22.8572 14.5214 22.185 14.5495 21.6527 14.3803C21.2886 14.2111 20.8965 13.8446 20.7844 13.4781ZM35.4343 10.5174H35.4903C35.4903 10.5174 35.6584 10.5174 35.7704 10.6302C35.8825 10.7147 35.9105 10.8276 35.9385 10.9685C35.9665 11.1659 35.8264 11.3069 35.7144 11.4761C35.6024 11.6453 35.4063 11.8708 35.5464 12.04C35.7144 12.2374 35.9385 12.0682 36.1066 11.9272C36.2186 11.8426 36.3587 11.7299 36.4988 11.7299C36.5828 11.7299 36.7228 11.7299 36.7788 11.8145C36.9469 12.0682 36.9749 12.4912 36.8909 12.8295C36.8628 12.8859 36.7788 13.0551 36.6668 13.0833C36.4988 13.1396 36.3587 13.0269 36.1906 12.9423C35.9946 12.8295 35.6024 12.6886 35.5464 12.9705C35.4343 13.4216 35.5743 13.9292 35.9105 14.324C36.6388 15.0852 37.9273 15.1417 38.8237 14.7469C39.4959 14.4368 39.804 13.8446 39.8321 13.1115C39.8321 12.8577 39.664 12.8295 39.58 12.8577C39.4119 12.8859 39.2998 12.9705 39.1318 13.0269C38.9077 13.1115 38.7397 13.2525 38.5436 13.0833C38.3474 12.7732 38.4035 12.181 38.5716 11.9554C38.6556 11.8145 38.8517 11.8145 38.9637 11.8426C39.0477 11.8708 39.1598 11.9554 39.2719 12.0118C39.4399 12.1528 39.692 12.322 39.8321 12.0964C39.9161 11.9554 39.748 11.7299 39.636 11.5607C39.5519 11.4197 39.4679 11.2787 39.4399 11.1377C39.4119 10.8558 39.664 10.7147 39.748 10.6584C39.9161 10.5738 40.2522 10.5456 40.2522 10.5456C40.0001 9.86887 39.3559 9.47406 38.2915 9.36134C37.1991 9.27675 36.2467 9.4177 35.2943 9.72792C35.3783 10.038 35.4343 10.2918 35.4343 10.5174ZM35.9665 10.038C36.0225 10.038 36.0785 10.0098 36.0785 10.0098C37.143 9.84064 38.4595 9.64333 39.3559 10.2354C39.1318 10.32 38.9637 10.461 38.8516 10.7147C38.8237 10.7712 38.8237 10.8558 38.8237 10.9121C38.8237 11.025 38.8237 11.1377 38.8797 11.2505C38.6556 11.2223 38.4595 11.2505 38.2634 11.3633C37.9273 11.5888 37.7592 12.181 37.8433 12.8295C37.9553 13.2525 38.1514 13.5062 38.4315 13.619C38.7116 13.7036 38.9918 13.5627 39.2158 13.4499C39.1038 13.8164 38.7116 14.1548 38.3474 14.2957C37.8152 14.4649 37.143 14.4368 36.7228 14.2111C36.5548 14.1266 36.0786 13.8446 36.0225 13.3935C36.2746 13.5627 36.6107 13.6473 36.9189 13.5062C37.115 13.3935 37.311 13.1679 37.3951 12.8577C37.5071 12.2374 37.3951 11.6734 37.087 11.3351C36.8628 11.1377 36.6107 11.1377 36.3867 11.1941C36.4427 11.0813 36.4707 10.9967 36.4707 10.8558C36.4707 10.7993 36.4707 10.7712 36.4707 10.7147C36.4147 10.4046 36.2186 10.179 35.9665 10.1226V10.038Z" fill="var(--fill-0, #46515A)"/>
<path id="Vector_3" d="M34.1165 24.1644C34.1725 24.3053 34.1165 24.4464 34.0324 24.5591L30.503 31.0161C30.391 31.1853 30.2509 31.4955 29.9988 31.4955C29.7467 31.4955 29.6066 31.1853 29.4946 31.0161L25.9371 24.5591C25.8531 24.4464 25.8251 24.3053 25.8531 24.1644C25.8811 24.1079 25.9932 23.9952 26.1052 23.9952H33.8363C33.9764 23.9952 34.0884 24.1079 34.1165 24.1644ZM41.0073 24.1361C40.8952 24.3899 40.7832 24.6155 40.7832 24.9257C40.7832 25.2076 40.8672 25.5178 41.0913 25.9126L41.7636 27.0686L43.024 29.2679C43.0801 29.3807 43.1361 29.4936 43.1642 29.5781H38.2342C37.6459 29.5781 37.1697 29.7191 36.8336 30.3958L34.7047 34.1742C34.1445 34.9919 34.0324 35.8096 34.3966 36.4581C34.7327 37.0785 35.461 37.4168 36.3854 37.3886C37.842 37.3322 38.5703 36.4581 38.5703 34.7382V34.7099C38.7103 34.5125 39.0745 33.9486 39.2985 33.6103C39.9428 33.6103 45.5451 33.6103 45.5451 33.6103C46.6655 33.6103 47.3939 33.3283 47.758 32.7643C47.9261 32.4823 48.0101 32.2004 48.0101 31.8902C48.0101 31.2981 47.758 30.6778 47.5339 30.1985C47.4498 30.0293 47.4498 29.8601 47.5059 29.7191C47.59 29.5781 47.814 29.3525 48.5983 29.3525H50.6712V42.2666H9.35449V29.3525H11.3993C12.1836 29.3525 12.4357 29.5781 12.4917 29.7191C12.5478 29.8601 12.5478 30.0293 12.4637 30.1985C12.2396 30.6778 11.9875 31.2981 11.9875 31.8902C11.9875 32.2004 12.0436 32.4823 12.2396 32.7643C12.6038 33.3283 13.3321 33.6103 14.4525 33.6103C14.4525 33.6103 20.0548 33.6103 20.6991 33.6103C20.9231 33.9486 21.2873 34.5125 21.4273 34.7099V34.7382C21.4273 36.4299 22.1556 37.3322 23.6122 37.3886C24.5365 37.4168 25.2368 37.0785 25.601 36.4581C25.9652 35.8096 25.8531 34.9637 25.2929 34.1742L23.164 30.3958C22.8279 29.7191 22.3517 29.5781 21.7634 29.5781H16.8334C16.8615 29.4936 16.8895 29.3807 16.9736 29.2679L18.234 27.0686L18.9063 25.9126C19.1304 25.5178 19.2145 25.2076 19.2145 24.9257C19.2145 24.6155 19.1024 24.3617 18.9903 24.1361C18.8222 23.7696 18.2061 22.6982 17.9819 22.3034V22.2751C17.7018 21.7958 17.4218 21.4856 16.8895 21.4575H9.35449V0.676453H50.6992V21.4856H43.1361C42.6039 21.5138 42.3238 21.8241 42.0437 22.3034V22.3316C41.7916 22.6982 41.1754 23.7696 41.0073 24.1361ZM40.447 20.4988V20.4706L40.419 20.4423C40.2509 20.0759 39.8027 19.6811 39.2145 19.6811H20.7831C20.2228 19.6811 19.7746 20.0759 19.6066 20.4423L19.5786 20.4988L19.5506 20.5552C19.4385 20.8935 19.3825 21.4293 19.7746 22.0778L28.4302 37.8398C28.6823 38.2627 29.0744 38.9676 29.9428 38.9676H29.9708H29.9988C30.8671 38.9395 31.2874 38.2346 31.5394 37.8115L40.223 21.9932C40.587 21.3729 40.5591 20.8371 40.447 20.4988ZM41.4554 10.9683C41.4834 10.3762 41.2314 9.69937 40.8952 9.19188C39.4106 7.24629 36.6935 7.92302 35.0689 8.37416C34.3966 7.92302 33.5282 7.72565 32.5198 7.86662C32.5198 7.86662 32.2397 7.92302 32.0156 7.95122C32.1277 7.69745 32.1837 7.38728 32.1837 7.07712C32.1837 6.20302 31.6795 5.4417 30.9232 5.10334V4.5958C31.0913 4.5958 31.9036 4.5958 31.9036 4.5958V2.76301C31.9036 2.76301 31.0913 2.76301 30.9232 2.76301C30.9232 2.59383 30.9232 1.77613 30.9232 1.77613H29.0744C29.0744 1.77613 29.0744 2.59383 29.0744 2.76301C28.9064 2.76301 28.066 2.76301 28.066 2.76301V4.5958C28.066 4.5958 28.8783 4.5958 29.0744 4.5958V5.10334C28.3462 5.4417 27.8139 6.20302 27.8139 7.07712C27.8139 7.38728 27.8699 7.66925 27.982 7.95122C27.898 7.92302 27.5898 7.89482 27.4778 7.86662C26.4974 7.69745 25.629 7.89482 24.9288 8.37416C23.3041 7.92302 20.615 7.24629 19.1024 9.19188C18.7382 9.67124 18.5142 10.3762 18.5422 10.9683L20.3069 18.2431H39.6908L41.4554 10.9683ZM20.643 10.2351C20.8671 10.3197 21.0352 10.4608 21.1473 10.7145C21.1752 10.7709 21.1752 10.8555 21.1752 10.9119C21.1752 11.0246 21.1752 11.1375 21.1192 11.2503C21.3433 11.222 21.5394 11.2503 21.7355 11.363C22.0716 11.5886 22.2397 12.1807 22.1556 12.8293C22.0436 13.2522 21.8476 13.506 21.5674 13.6188C21.2873 13.7034 21.0071 13.5624 20.7831 13.4495C20.8951 13.8161 21.2873 14.1545 21.6514 14.2955C22.1837 14.4647 22.8559 14.4365 23.2761 14.2109C23.4441 14.1263 23.9204 13.8443 23.9764 13.3932C23.7243 13.5624 23.3882 13.6469 23.08 13.506C22.884 13.3932 22.6879 13.1676 22.6038 12.8574C22.4918 12.2371 22.6038 11.6732 22.9119 11.3349C23.1361 11.1375 23.3882 11.1375 23.6122 11.1938C23.5562 11.0811 23.5282 10.9965 23.5282 10.8555C23.5282 10.7991 23.5282 10.7709 23.5282 10.7145C23.5842 10.4043 23.7803 10.1788 24.0324 10.1224V9.98136C23.9764 9.98136 23.9204 9.95323 23.9204 9.95323C22.8559 9.86855 21.5674 9.67124 20.643 10.2351ZM39.3546 10.2351C38.4302 9.67124 37.1417 9.86864 36.0772 10.0096C36.0772 10.0096 36.0212 10.0096 35.9652 10.0378V10.1788C36.2173 10.2351 36.4134 10.4608 36.4694 10.7709C36.4694 10.8273 36.4694 10.8555 36.4694 10.9119C36.4694 11.0529 36.4414 11.1375 36.3854 11.2503C36.6095 11.1938 36.8615 11.1657 37.0857 11.3912C37.3938 11.7296 37.5339 12.2935 37.3938 12.9139C37.3097 13.1958 37.1417 13.4495 36.9176 13.5624C36.6095 13.7034 36.2733 13.6188 36.0212 13.4495C36.0772 13.9007 36.5535 14.1827 36.7215 14.2673C37.1417 14.4929 37.8139 14.521 38.3462 14.3519C38.6823 14.239 39.1025 13.8726 39.2145 13.506C38.9905 13.6188 38.7103 13.7598 38.4302 13.6752C38.1501 13.5624 37.954 13.3086 37.842 12.8857C37.7579 12.2371 37.926 11.6732 38.2621 11.4194C38.4582 11.3066 38.6543 11.2503 38.8784 11.3066C38.8224 11.1938 38.8224 11.0811 38.8224 10.9683C38.8224 10.9119 38.8224 10.8273 38.8503 10.7709C38.9624 10.4608 39.1305 10.3197 39.3546 10.2351ZM28.178 13.5906C27.6459 13.3086 27.6178 12.5191 27.7299 12.0116C27.7859 11.7014 27.954 11.4758 28.094 11.3912C28.2901 11.2503 28.5422 11.2784 28.7102 11.3066C28.6543 11.1938 28.6262 11.0529 28.6262 10.9119C28.6262 10.7709 28.6543 10.6299 28.7663 10.5171C28.8504 10.4325 28.9344 10.3197 29.0744 10.2634C29.0184 10.1505 28.9064 10.0659 28.7663 9.98136C28.4022 9.84041 27.9259 9.75583 27.4498 9.75583C26.9735 9.75583 26.4974 9.84041 26.1332 9.98136C25.9932 10.0378 25.8811 10.1505 25.8251 10.2634C25.9652 10.3197 26.0492 10.4043 26.1332 10.5171C26.2173 10.6299 26.2733 10.7709 26.2733 10.9119C26.2733 11.0529 26.2453 11.1657 26.1892 11.3066C26.3853 11.2784 26.6095 11.2503 26.8055 11.3912C26.9456 11.504 27.1137 11.7014 27.1696 12.0116C27.2537 12.5473 27.2256 13.3086 26.7215 13.5906C26.3853 13.7598 26.0492 13.6188 25.7971 13.4778C25.8252 13.7034 26.0492 14.0135 26.2173 14.1263C26.6095 14.3519 27.0576 14.4647 27.4778 14.4647C27.898 14.4647 28.3462 14.3519 28.7383 14.1263C28.9064 14.0135 29.1304 13.7034 29.1584 13.4778C28.8504 13.5906 28.5142 13.7315 28.178 13.5906ZM33.3041 13.5906C32.772 13.3086 32.7439 12.5191 32.856 12.0116C32.912 11.7014 33.0801 11.4758 33.2201 11.3912C33.4162 11.2503 33.6683 11.2784 33.8363 11.3066C33.7803 11.1938 33.7523 11.0529 33.7523 10.9119C33.7523 10.7709 33.7803 10.6299 33.8924 10.5171C33.9764 10.4325 34.0605 10.3197 34.2005 10.2634C34.1445 10.1505 34.0324 10.0659 33.8924 9.98136C33.5283 9.84041 33.052 9.75583 32.5759 9.75583C32.0996 9.75583 31.6235 9.84041 31.2593 9.98136C31.1193 10.0378 31.0072 10.1505 30.9512 10.2634C31.0913 10.3197 31.1753 10.4043 31.2593 10.5171C31.3434 10.6299 31.3993 10.7709 31.3993 10.9119C31.3993 11.0529 31.3714 11.1657 31.3153 11.3066C31.5114 11.2784 31.7355 11.2503 31.9316 11.3912C32.0717 11.504 32.2397 11.7014 32.2957 12.0116C32.3798 12.5473 32.3517 13.3086 31.8475 13.5906C31.5114 13.7598 31.1753 13.6188 30.9232 13.4778C30.9512 13.7034 31.1753 14.0135 31.3434 14.1263C31.7355 14.3519 32.1557 14.4647 32.6038 14.4647C33.0241 14.4647 33.4722 14.3519 33.8644 14.1263C34.0324 14.0135 34.2565 13.7034 34.2845 13.4778C33.9764 13.5906 33.6402 13.7598 33.3041 13.5906Z" fill="var(--fill-0, #ED1C2E)"/>
</g>
</svg>
