<svg xmlns="http://www.w3.org/2000/svg" fill="none" viewBox="0 0 80 80">
  <path fill="#fff" d="M0 12C0 5.373 5.373 0 12 0h56c6.627 0 12 5.373 12 12v56c0 6.627-5.373 12-12 12H12C5.373 80 0 74.627 0 68V12Z"/>
  <path fill="#000" d="M56.172 54.856a.172.172 0 0 1 .15-.197l2.526-.326a.176.176 0 0 1 .195.144c.306 1.726.769 2.4 1.868 2.4 1.032 0 1.608-.742 1.608-1.63 0-.96-.504-1.885-1.872-2.893-.692-.51-.98-.917-1.632-1.477-1.738-1.49-2.534-2.96-2.534-4.76 0-2.664 1.65-4.362 4.482-4.362 2.558 0 3.85 1.474 4.265 4.052a.172.172 0 0 1-.152.198l-2.524.268a.179.179 0 0 1-.193-.148c-.19-1.055-.669-1.704-1.582-1.704-.912 0-1.37.677-1.37 1.565 0 1.08.89 2.013 2.022 3.065.53.492 1.061.942 1.609 1.457 1.435 1.347 2.348 2.643 2.348 4.587 0 2.76-1.86 4.413-4.74 4.413-2.662 0-4.035-1.846-4.474-4.652Zm-5.08-12.636a.174.174 0 0 1 .174-.177h2.744c.096 0 .175.08.173.176l-.021 1.663V54.97c0 2.952-1.772 4.565-4.556 4.565s-4.531-1.613-4.531-4.565V43.882l-.022-1.663a.174.174 0 0 1 .174-.176h2.7c.097 0 .175.08.174.176l-.022 1.663v10.97c0 1.344.447 2.044 1.527 2.044 1.104 0 1.508-.7 1.508-2.044v-10.97l-.022-1.663Zm-13.501 9.94-1.422.074v5.304l.022 1.576a.174.174 0 0 1-.174.176h-2.743a.174.174 0 0 1-.174-.176l.021-1.576V43.882L33.1 42.22a.173.173 0 0 1 .173-.176h4.318c3.84 0 4.776 2.237 4.776 5.02 0 1.655-.286 3.51-2.09 4.445l2.448 7.555a.174.174 0 0 1-.165.227h-2.74a.174.174 0 0 1-.167-.125l-2.062-7.005Zm-1.422-7.646v5.191h1.13c1.524 0 2.022-1.023 2.022-2.697 0-1.283-.366-2.494-2.022-2.494h-1.13Zm-9.281-2.294a.174.174 0 0 1 .174-.177h2.7c.097 0 .175.08.174.176l-.022 1.663v13.656l.022 1.576a.174.174 0 0 1-.174.176h-2.7a.174.174 0 0 1-.174-.176l.022-1.576V43.882l-.022-1.663Zm-6.714 8.934 1.677-8.969a.174.174 0 0 1 .17-.142h2.671c.11 0 .193.102.17.21L21.369 59.15a.174.174 0 0 1-.17.14H18.4a.174.174 0 0 1-.17-.14l-3.538-16.898a.174.174 0 0 1 .17-.21h2.698c.084 0 .156.06.171.143l1.654 8.968c.12.792.308 1.92.355 2.712h.077c.048-.792.235-1.92.355-2.712Zm44.061-21.187a.174.174 0 0 1-.174.174h-3.609v4.896h5.061c.096 0 .174.078.174.174v2.34a.174.174 0 0 1-.174.174H57.6a.174.174 0 0 1-.174-.176l.022-1.576V22.317l-.022-1.576a.174.174 0 0 1 .174-.176h7.6c.096 0 .174.078.174.174v2.34a.174.174 0 0 1-.174.174h-4.748v4.152h3.61c.095 0 .173.078.173.174v2.388ZM52.73 20.576a.174.174 0 0 1 .156-.098h2.693c.13 0 .213.137.155.252l-3.13 6.19 3.547 10.576a.174.174 0 0 1-.165.229h-2.7a.174.174 0 0 1-.167-.123l-2.407-7.877-1.06 1.956v4.292l.022 1.576a.174.174 0 0 1-.174.176h-2.656a.174.174 0 0 1-.174-.176l.022-1.576V22.317l-.022-1.663a.174.174 0 0 1 .174-.176H49.5c.096 0 .175.08.174.176l-.022 1.663v2.904c0 .576-.024 1.068-.048 1.596h.096c.288-.528.45-1.006.738-1.558l2.29-4.683Zm-17.83.078a.174.174 0 0 1 .173-.176h2.436c.073 0 .138.045.163.113l2.837 7.63c.36.888.639 1.512.807 2.112h.096c-.048-.624-.12-1.56-.12-2.232v-5.784l-.022-1.663a.174.174 0 0 1 .174-.176h2.387c.097 0 .175.08.173.176l-.021 1.663v13.656l.021 1.576a.174.174 0 0 1-.173.176h-2.34a.174.174 0 0 1-.164-.116l-3.014-8.548c-.166-.532-.514-1.51-.638-2.112h-.096c.048.624.033 1.56.033 2.232v6.792l.022 1.576a.174.174 0 0 1-.174.176h-2.387a.174.174 0 0 1-.174-.176l.022-1.576V22.317l-.022-1.663Zm-8.319 13.245-.548 3.678a.174.174 0 0 1-.172.148H23.38a.174.174 0 0 1-.171-.205l3.119-16.943a.174.174 0 0 1 .17-.142h3.409c.084 0 .156.06.17.142l3.12 16.943a.174.174 0 0 1-.171.205h-2.52a.174.174 0 0 1-.172-.149L29.8 33.9h-3.22Zm1.13-7-.7 4.37h2.353l-.717-4.37c-.12-.816-.352-2.161-.4-2.761h-.144c-.024.6-.271 1.945-.391 2.76Zm-4.702-3.994a.174.174 0 0 1-.174.174h-2.57v12.894l.022 1.576a.174.174 0 0 1-.174.176h-2.72a.174.174 0 0 1-.173-.176l.021-1.576V23.079h-2.72a.174.174 0 0 1-.173-.174v-2.253c0-.096.077-.174.174-.174h8.313c.096 0 .174.078.174.174v2.253Z"/>
</svg>
