<svg preserveAspectRatio="xMidYMid meet" width="100%" height="100%" overflow="visible" style="display: block;" viewBox="0 0 60 59.0001" fill="none" xmlns="http://www.w3.org/2000/svg">
<g id="Logo">
<rect id="Rectangle" width="46.5306" height="51.5944" fill="var(--fill-0, #F4DC75)"/>
<path id="Union" fill-rule="evenodd" clip-rule="evenodd" d="M41.9276 11.5004C46.0901 11.5004 49.2699 11.9526 51.4667 12.8574C53.6868 13.7389 55.664 15.3282 57.3984 17.6249C59.1328 19.9215 60 22.7402 60 26.0808C60 28.4239 59.5375 30.7093 58.6125 32.9364C57.6875 35.1634 56.3808 36.9148 54.6926 38.1907C53.0045 39.4667 51.3625 40.3136 49.7669 40.7311C48.1944 41.1487 45.7199 41.3574 42.3436 41.3574H34.5387V59H23.2653V11.5004H41.9276ZM34.1576 32.7275H41.3726C44.1244 32.7275 46.0553 32.0893 47.1653 30.8133C48.2753 29.5374 48.8303 28.0758 48.8303 26.4287C48.8302 24.5033 48.2057 22.9723 46.957 21.8356C45.7314 20.6989 43.8583 20.1303 41.3377 20.1303H34.1576V32.7275Z" fill="var(--fill-0, #131A27)"/>
</g>
</svg>
