<svg xmlns="http://www.w3.org/2000/svg" fill="none" viewBox="0 0 80 80">
  <path fill="#fff" d="M0 12C0 5.373 5.373 0 12 0h56c6.627 0 12 5.373 12 12v56c0 6.627-5.373 12-12 12H12C5.373 80 0 74.627 0 68V12Z"/>
  <path fill="#000" fill-rule="evenodd" d="M33.797 56.044a.14.14 0 0 1 .14.137v.902h.89a.14.14 0 0 1 .141.138v1.166a.142.142 0 0 1-.14.142h-.89v.902a.141.141 0 0 1-.141.143h-1.152a.141.141 0 0 1-.14-.143v-.902h-.89a.142.142 0 0 1-.14-.142v-1.166c0-.079.063-.138.14-.138h.89v-.902a.14.14 0 0 1 .14-.137h1.152Zm-1.011 1.177a.142.142 0 0 1-.14.142h-.89v.887h.89c.077 0 .14.064.14.142v.902h.876v-.902c0-.078.063-.142.14-.142h.89v-.887h-.89a.141.141 0 0 1-.14-.142v-.902h-.876v.901Zm7.781-1.177a.14.14 0 0 1 .14.137v.902h.89a.14.14 0 0 1 .14.138v1.166a.141.141 0 0 1-.14.142h-.89v.902a.141.141 0 0 1-.14.143h-1.152a.141.141 0 0 1-.14-.143v-.902h-.891a.141.141 0 0 1-.14-.142v-1.166c0-.079.063-.138.14-.138h.89v-.902a.14.14 0 0 1 .141-.137h1.152Zm-1.012 1.177a.141.141 0 0 1-.14.142h-.89v.887h.89c.077 0 .14.064.14.142v.902h.876v-.902c0-.078.063-.142.14-.142h.89v-.887h-.89a.142.142 0 0 1-.14-.142v-.902h-.876v.901Zm7.781-1.177a.14.14 0 0 1 .14.137v.902h.89a.14.14 0 0 1 .14.138v1.166a.142.142 0 0 1-.14.142h-.89v.902a.141.141 0 0 1-.14.143h-1.152a.141.141 0 0 1-.14-.143v-.902h-.89a.142.142 0 0 1-.14-.142v-1.166c0-.079.062-.138.14-.138h.89v-.902a.14.14 0 0 1 .14-.137h1.152Zm-1.011 1.177a.142.142 0 0 1-.14.142h-.891v.887h.89a.14.14 0 0 1 .14.142v.902h.876v-.902c0-.078.063-.142.14-.142h.89v-.887h-.89a.142.142 0 0 1-.14-.142v-.902h-.875v.901Zm-15.963-.059a.14.14 0 0 1 .14.137v1.172c-.005.078-.068.142-.14.142h-1.157a.141.141 0 0 1-.14-.142v-1.172a.14.14 0 0 1 .14-.137h1.157Zm-1.016 1.171h.875v-.892h-.875v.892Zm7.799-1.171a.14.14 0 0 1 .14.137v1.172a.142.142 0 0 1-.14.142H35.99a.141.141 0 0 1-.14-.142v-1.172a.14.14 0 0 1 .14-.137h1.156Zm-1.016 1.171h.877v-.892h-.877v.892Zm7.786-1.171a.14.14 0 0 1 .14.137v1.172a.141.141 0 0 1-.14.142h-1.151a.141.141 0 0 1-.141-.142v-1.172a.14.14 0 0 1 .14-.137h1.152Zm-1.012 1.171h.876v-.892h-.876v.892Zm7.806-1.171a.14.14 0 0 1 .14.137v1.172a.149.149 0 0 1-.145.142h-1.152a.142.142 0 0 1-.14-.142v-1.172a.14.14 0 0 1 .14-.137h1.157Zm-1.017 1.171h.876v-.892h-.876v.892ZM30.415 52.73a.14.14 0 0 1 .14.138v.901h.89a.14.14 0 0 1 .14.138v1.166a.141.141 0 0 1-.14.143h-.89v.902c-.005.078-.063.142-.14.142h-1.151a.142.142 0 0 1-.141-.142v-.902h-.89a.141.141 0 0 1-.14-.143v-1.166a.14.14 0 0 1 .14-.137h.89v-.903a.14.14 0 0 1 .14-.137h1.152Zm-1.011 1.177a.141.141 0 0 1-.14.142h-.891v.887h.89a.14.14 0 0 1 .14.142v.902h.872v-.902c0-.078.063-.142.14-.142h.89v-.887h-.89a.142.142 0 0 1-.14-.142v-.902h-.871v.902Zm21.319-1.177a.14.14 0 0 1 .14.138v.901h.89a.14.14 0 0 1 .14.138v1.166a.141.141 0 0 1-.14.143h-.89v.902a.141.141 0 0 1-.14.142h-1.156a.142.142 0 0 1-.14-.142v-.902h-.887a.141.141 0 0 1-.14-.143v-1.166a.14.14 0 0 1 .14-.137h.886v-.903a.14.14 0 0 1 .14-.137h1.157Zm-1.016 1.177a.141.141 0 0 1-.14.142h-.886v.887h.886c.077 0 .14.064.14.142v.902h.876v-.902c0-.078.063-.142.14-.142h.89v-.887h-.89a.142.142 0 0 1-.14-.142v-.902h-.876v.902Zm-15.953-.069a.14.14 0 0 1 .14.137v1.172a.141.141 0 0 1-.14.142h-1.157a.141.141 0 0 1-.14-.142v-1.172c0-.078.063-.137.14-.137h1.157Zm-1.017 1.167h.876v-.892h-.876v.892Zm14.575-1.167c.077 0 .135.064.135.137v1.172a.137.137 0 0 1-.136.142H46.16a.142.142 0 0 1-.14-.142v-1.172c0-.078.063-.137.14-.137h1.152Zm-1.016 1.167h.875v-.892h-.875v.892ZM30.357 50.5a.14.14 0 0 1 .14.137v1.172a.142.142 0 0 1-.14.142h-1.152a.142.142 0 0 1-.14-.142v-1.172a.14.14 0 0 1 .14-.137h1.152Zm-1.017 1.17h.875v-.892h-.875v.892Zm21.369-1.17a.14.14 0 0 1 .14.137v1.172a.141.141 0 0 1-.14.142h-1.157a.142.142 0 0 1-.14-.142v-1.172a.14.14 0 0 1 .14-.137h1.157Zm-1.017 1.171h.876v-.892h-.876v.892Zm-19.277-5.612c.077 0 .14.064.14.142v.902h.89a.14.14 0 0 1 .14.142v1.167a.141.141 0 0 1-.14.142h-.89v.902c-.005.083-.063.142-.14.142h-1.151a.142.142 0 0 1-.141-.142v-.902h-.89a.141.141 0 0 1-.14-.142v-1.167a.14.14 0 0 1 .14-.142h.89V46.2a.14.14 0 0 1 .14-.142h1.152Zm-1.011 1.19a.141.141 0 0 1-.14.143h-.891v.887h.89a.14.14 0 0 1 .14.137v.907h.872v-.902a.14.14 0 0 1 .14-.137h.89v-.892h-.89a.142.142 0 0 1-.14-.142v-.902h-.871v.902Zm21.319-1.19c.077 0 .14.064.14.142v.902h.89a.14.14 0 0 1 .14.142v1.167a.141.141 0 0 1-.14.142h-.89v.902a.138.138 0 0 1-.14.142h-1.156a.142.142 0 0 1-.14-.142v-.902h-.887a.141.141 0 0 1-.14-.142v-1.167c0-.078.063-.142.14-.142h.886V46.2a.14.14 0 0 1 .14-.142h1.157Zm-1.016 1.19a.141.141 0 0 1-.14.143h-.886v.887h.886a.14.14 0 0 1 .14.137v.907h.876v-.902a.14.14 0 0 1 .14-.137h.89v-.892h-.89a.142.142 0 0 1-.14-.142v-.902h-.876v.902Z" clip-rule="evenodd"/>
  <path fill="#000" d="M41.384 30.02c0 .006-.03.152-.073.166a1.052 1.052 0 0 1-.256-.014c-.033-.01-.053-.208-.053-.216l.382.064Z"/>
  <path fill="#000" fill-rule="evenodd" d="M40.57 28.137c.243-.068.354.177.354.177s.393-.22.46.176c.058.338-.358.339-.358.339l.087.27.736.141.217-.235c-.007 0-.347-.008-.275-.323.077-.334.416-.108.416-.108s.005-.28.329-.187c.334.094.213.324.213.324.01 0 .39-.02.305.304-.096.364-.444.132-.45.127l.062.29.78.2.14-.205s-.295-.084-.15-.378c.188-.363.498.02.498.02s.324-.162.455-.103l-.726 1.122-.01.005.378.25-.014.442c-.14.215-.398.44-.398.44 0 .022.002 1.313-.367 2.231-.373.927-.987 1.745-1.166 2.226a3.922 3.922 0 0 0-.18.843l-.338-.162-.111 4.779s.624.78 1.127 2.171c.614 1.696 1.355 2.937 1.974 3.388.76.549 1.93.245 2.424-.466.523-.755.233-1.824-.334-2.696-.57-.878-1.746-2.603-1.94-4.054-.15-1.137.818-2.21 1.99-3.024 1.62-1.132 2.5-1.966 2.994-2.578.46-.579.764-1.721.193-2.677-.537-.907-1.334-.872-1.997-.652-.949.314-.668 1.285-.668 1.285.004 0 .358.01.455.034.396.103.61.284.726 1.132.077.569-.31 1.608-.31 1.608s.067-.363-.059-.799a1.596 1.596 0 0 0-.459-.706c.003.015.11.507-.03.951-.135.456-.808.907-1.204 1.206-1.219.914-1.662 1.562-1.67 1.573l-.231.049c.111-.388.633-1.446.996-1.911.562-.715.972-1.252.978-1.26l-.059-.51-.865.892-.126.025s.319-.975.508-1.24c.227-.313.458-.69.469-.74.106-.422.01-.756.155-1.099.358-.877.968-1.181 2.105-1.196 1.03-.014 1.838.476 2.182 1.976.343 1.505-.851 3.176-1.737 3.975-.877.797-1.233 1.459-1.24 1.47 0 0 .277-.093.582-.108.068-.01.498.094.6.143.347.156.829.04.832.039l-2.71 1.26-.091.431.851-.181.972.215.465-.054.039.138-2.424 1.093.01.26h.468l.736.152.629-.03.034.113-1.689.73s-.184.398.803 2.878c0 0 .625 2.45-1.95 3.215-.667.201-1.823-.034-2.791-1.22-.547-.672-1.167-1.73-1.312-1.985.005.245 0 .51-.02.794a8.915 8.915 0 0 0 .17 2.313s.131.388.276.53c.049.157.049.642.03.838-.025.232-.297.507-.306.515 0 0-.319 2.441-.203 3.49l-.083.093-.565-.446-.615.437.194.7-.43.378.188.76-.208-.035c-.006-.008-.296-.416-.378-.818-.077-.412.044-.927.044-.927l-.14-.117-.683.578-.45-.245-.522.284.01-.161s.372-.79.85-.79c.228 0 .679-.181.679-.181l-.808-.51.058-.627-.504-.422.194-.069s.392.157.851.363c.216.097.66.906.668.922l.58-.138c0-.007-.009-.308-.004-.651.014-.853-.053-1.98-.232-2.726-.112-.47-.373-.809-.925-1.333-.551-.525-.928-1.06-.928-1.06a62.23 62.23 0 0 1-.421-.779c-.19-.362-.194-1.372-.174-1.5.034-.206.61-.941 1.553-1.681l.411-.917-.184-.083-.412.858c-.01.009-1.47 1.266-1.572 1.75-.034.176-.014 1.24.18 1.652.067.147.453.836.478.882-.135.186-.343.466-.45.623-.172.237-.17.66-.17.671l-.87.397-.504-.436-2.66-.564-.344.04-.116-.138.373-.382-.301-.76a1.607 1.607 0 0 1-.847.226c-.513 0-.837-.29-.837-.29l-.072-.127.692.034.087-.26.736-.127.101-.181-.809-.334.112-.48-.701-.21.091-.119s.528-.141 1.021.177c.473.305.644.767.649.78l.227.019.097-.755.406-.093.059-.72.15.176s.26.622.043 1.098c-.215.469-.51.819-.518.828l.174.647 2.386.255-.16-.666c.002-.014.08-.627.218-1.422.136-.804.31-1.245.31-1.245l1.97-.941-.258-1.574-.773-.863-.31-.838 1.635-1.99-3.987 4.843a2.98 2.98 0 0 1-.16-.078c-.081-.108-.038-.358-.106-.49-.1-.204-.52-.211-.527-.211l-.77.867-.266-.039v1.569h-.61v-1.682l-.469.393.034-.324.353-.608.01-.78c-.054-.087-.223-.151-.261-.22-.073-.127-.01-.245-.15-.372-.17-.152-.63-.035-.63-.035l.102-.2c.111-.064.28-.094.426-.138.242-.083.586.04.586.04v-4.824l-.233.201c-.179-.108-.232-.122-.489-.181-.087-.019-.285.309-.392.431l-.043-.186s.126-.48.533-.838c.358-.309.624-.24.624-.24v-.383l-.606-.166-.12-.451-.683-.089.14-.171c.006-.003.362-.186.79-.142.43.044.484.127.484.127v-1.417h-.083c-.016-.001-.761-.072-1.393.525-.639.603-.949.98-.949.98s-.595-1.21-.812-2.078c-.202-.813-.118-2.093-.117-2.113.018.014.936.749 1.568 1.133.61.377 1.694.421 1.694.421h.092v-.583h.61v.583h.42v1.127l-.42.002v1.788l.139.098.276-.74.445-.167.02-.681.16.102c.006.015.235.55.101.922-.179.49-.571.956-.571.956l.435.26.412-.113.096.377 1.825.956s.15-.382.401-.627c.436-.417 2.012-1.504 2.264-1.569.954-.245 1.52-.304 1.52-.304l.136-.323-1.23-.123.325-.544-.382-.49-.083-.628.803-.583 2.366.554.296-.113-2.599-.617-.116-1.192Zm-7.024 12.098v.701c.014-.007.483-.215.469-.466-.015-.27-.456-.236-.47-.235Zm-.068-1.034.368.456.208-.206-.262-.667.285-.515-.285-.593.213-.015.581.956.015 1.094.459.313 2.085-3.314-.691.064.15-.548-2.3-1.755-.23.088-.282-.206.17-.328-.484-.27v5.446Zm6.169-5.367c-.47.044-1.239.122-1.442.24-.223.128-.793 1.142-.904 1.363l.183.093s.648-1.186.828-1.28c.25-.131 1.333-.215 1.35-.22l-.015-.196Zm.977-2.603.964.117-.078-.353-.997-.112.111.348Zm2.531-.74.184.2.068.265.261-.235.015-.24-.213-.108-.315.117Zm-2.768-.451.092.122s.14-.132.339-.181c0 .01.008.305.169.382.116.049.349.03.383.015.053-.03.16-.054.227-.314.014.003.535.124.697.201l-.058-.23-1.408-.31-.44.314Z" clip-rule="evenodd"/>
  <path fill="#000" d="M38.481 30.711c.01.005.182.104.46.142l.909.098.15.206-1.093-.093a2.347 2.347 0 0 1-.552-.177c-.024-.068.049-.186.126-.176Z"/>
  <path fill="#000" fill-rule="evenodd" d="m56.079 24.716-.849 2.421h1.352C59.021 27.191 61 29.383 61 32.03c0 2.588-1.901 4.744-4.263 4.881v17.476H55.15v3.441l-1.108.015c-1.146 0-1.572 1.02-1.572 1.662V61H27.497v-1.5a1.68 1.68 0 0 0-1.48-1.676l-1.176.004v-3.44h-1.587V36.901C20.868 36.731 19 34.588 19 32.025c0-2.637 1.974-4.833 4.403-4.892h.006v-.005h.009v.005h1.356l-.862-2.412 1.625-4.569 1.622 4.569-.847 2.412h1.287v.044h2.962l-1.114-5.005c.242-.152.64-.182.64-.182.01 0 .475-.05.648.314.212.46-.344.941-.344.941l.266.383s.378-.564.799-.662c.183-.04.532.108.532.784 0 .564-.131.79-.47.775-.36-.015-.936-.654-.944-.662l-.159.358.62 1.245c.015.006.645.274 1.6.26 1.445-.02 1.598-.272 1.602-.28l.615-1.225-.164-.358c-.003.003-.562.622-.93.662-.333.039-.484-.221-.484-.775 0-.627.305-.833.552-.78.38.079.78.647.784.653l.28-.378s-.56-.466-.512-.872c.063-.55.74-.569.74-.569.014 0 .592.015.736.466.145.465-.494.975-.494.975l.286.378c.002-.004.407-.589.817-.662.131-.02.523.059.518.824-.005.529-.15.754-.474.74-.363-.02-.944-.662-.944-.662l-.164.358.614 1.23c.004.007.157.28 1.486.28 1.506 0 1.542-.209 1.543-.216l.711-1.363-.188-.358c-.01.012-.555.687-.92.701-.338.01-.575-.21-.594-.848-.015-.51.3-.808.55-.784.367.034.94.652.944.657l.208-.343c-.006-.006-.647-.635-.488-1.103.13-.4.712-.446.72-.446 0 0 .572.005.727.446.164.47-.499 1.103-.499 1.103l.203.343s.528-.573.905-.657c.247-.054.63.2.586.868-.034.539-.257.774-.596.76-.36-.01-.898-.684-.904-.692l-.199.358.726 1.373c.004.005.167.22 1.5.205l.029-.004c1.322 0 1.48-.27 1.486-.28l.614-1.23-.164-.358c-.008.009-.579.642-.944.662-.324.014-.474-.211-.474-.74-.005-.765.387-.844.518-.824.411.074.813.662.813.662l.285-.378s-.643-.51-.493-.975c.145-.456.735-.466.735-.466.012 0 .678.02.74.569.048.404-.505.866-.512.872l.28.378s.401-.574.784-.652c.242-.054.551.152.551.78 0 .553-.15.813-.483.774-.364-.04-.917-.649-.93-.662l-.164.358.614 1.225c.002.004.147.26 1.602.28.968.014 1.602-.26 1.602-.26l.624-1.245-.165-.358c-.012.014-.58.647-.943.662-.339.014-.47-.211-.47-.775 0-.676.35-.823.533-.784.416.098.798.662.798.662l.28-.383c-.008-.008-.553-.489-.342-.94.174-.369.648-.315.648-.315.013.001.4.032.634.182l-1.09 5.005h2.9v-.04h1.359l-.857-2.421 1.626-4.564 1.621 4.564Zm-2.27 32.361c-1.182.158-2.094 1.201-2.094 2.423v.544a.134.134 0 0 1-.131.142H28.383a.142.142 0 0 1-.14-.142V59.5c0-1.215-.895-2.245-2.062-2.418v.347a2.1 2.1 0 0 1 1.732 2.071v1.078h24.14V59.5c0-.813.547-1.945 1.757-2.072v-.351ZM52.243 30.43c-.145 2.758-.467 6.848-1.165 10.143h.672c.077 0 .14.064.14.142v1.167a.141.141 0 0 1-.14.142h-.89v.902c.004.078-.059.137-.136.137h-.313c-.092.27-.185.526-.286.765h.58a.14.14 0 0 1 .14.137v1.172a.134.134 0 0 1-.135.142h-1.157a.136.136 0 0 1-.083-.03 26.595 26.595 0 0 1-2.597 4.148h.459a.14.14 0 0 1 .14.137v.902h.89a.14.14 0 0 1 .141.137v1.167a.142.142 0 0 1-.14.142h-.89v.902a.133.133 0 0 1-.136.147h-1.152a.142.142 0 0 1-.14-.142v-.902h-.89a.141.141 0 0 1-.14-.142v-.13c-.366.396-.725.767-1.074 1.11h.013a.14.14 0 0 1 .141.138v.902h.89c.077 0 .136.063.136.137v1.166a.14.14 0 0 1-.136.143h-.89v.907a.142.142 0 0 1-.14.142h-1.152a.141.141 0 0 1-.14-.142v-.902h-.89a.142.142 0 0 1-.141-.143v-.287a21.286 21.286 0 0 1-1.573 1.17l-.082.044-.072-.044c-.02-.013-.623-.406-1.549-1.15v.277a.142.142 0 0 1-.14.142h-.89v.893a.142.142 0 0 1-.14.142h-1.152a.142.142 0 0 1-.14-.142v-.902h-.89a.142.142 0 0 1-.141-.143v-1.166a.14.14 0 0 1 .14-.137h.89v-.903a.14.14 0 0 1 .136-.137c-.35-.344-.71-.714-1.075-1.11v.13a.141.141 0 0 1-.14.142h-.89v.902c.014.078-.049.137-.126.137h-1.152a.141.141 0 0 1-.14-.142v-.902h-.89a.141.141 0 0 1-.14-.142v-1.167c0-.078.063-.137.14-.137h.89v-.902a.14.14 0 0 1 .14-.137h.45a26.572 26.572 0 0 1-2.622-4.19.137.137 0 0 1-.116.067h-1.152a.142.142 0 0 1-.14-.142v-1.172c0-.078.063-.137.14-.137h.633a11.895 11.895 0 0 1-.29-.77h-.284a.142.142 0 0 1-.141-.142v-.902h-.89a.141.141 0 0 1-.14-.142v-1.166c0-.079.062-.142.14-.143h.648c-.645-3.042-.967-6.76-1.127-9.482v23.022a.142.142 0 0 1-.14.142H26.18v2.554c1.321.175 2.337 1.337 2.337 2.701v.407H51.44V59.5c0-1.376 1.033-2.546 2.37-2.705V54.24h-1.426a.142.142 0 0 1-.14-.142v-1.03h-.006v-1.43h.005V30.43Zm1.848 26.986.644-.004V54.24h-.644v3.176Zm-28.833-.01h.648v-3.161h-.648v3.162Zm10.911-3.5a.142.142 0 0 1-.14.143h-.89v.887h.89c.077 0 .14.064.14.142v.902h.876v-.902c0-.078.063-.142.14-.142h.89v-.353c-.198-.166-.411-.343-.634-.534h-.256a.142.142 0 0 1-.14-.142v-.211a29.667 29.667 0 0 1-.74-.691h-.136v.902Zm7.418-.837-.234.22-.106.098c-.07.066-.14.13-.21.193l-.094.087v.235a.141.141 0 0 1-.14.142h-.285a30.46 30.46 0 0 1-.605.513v.374h.89c.077 0 .14.064.14.142v.907h.871v-.902c0-.078.063-.142.14-.142h.891v-.887h-.89a.141.141 0 0 1-.14-.142v-.902h-.16l-.068.063ZM27.88 27.456c.023 1.089.207 8.16 1.304 13.21l.002.005c.179.829.382 1.564.59 2.191a.157.157 0 0 1 .007.038 11.88 11.88 0 0 0 .373.977.12.12 0 0 1 .022.034c.097.23.198.452.305.672v.018c3.137 6.657 8.782 10.595 9.493 11.07a23.67 23.67 0 0 0 2.006-1.538 31.66 31.66 0 0 0 3.06-2.968l.005-.008c.194-.216.387-.437.58-.667a.133.133 0 0 1 .025-.022c.134-.159.268-.32.402-.485a.088.088 0 0 1 .019-.027c.13-.167.266-.334.396-.505a.118.118 0 0 1 .025-.025 26.077 26.077 0 0 0 3.042-4.966c.085-.194.163-.371.239-.549a.152.152 0 0 1 .017-.026l.065-.15c.112-.265.216-.55.317-.852l.002-.006c.213-.627.411-1.363.59-2.196l.005-.01c1.1-5.048 1.282-12.122 1.302-13.215H27.88Zm-4.21 26.51h3.808v-.893H23.67v.893Zm28.848-.005h3.803v-.892h-3.803v.892ZM23.67 52.794h3.808v-.873H23.67v.873Zm28.848-.005h3.803v-.873h-3.803v.873Zm-19.732-2.2a.141.141 0 0 1-.14.141h-.89v.888h.89a.14.14 0 0 1 .14.137v.897h.876v-.902a.14.14 0 0 1 .14-.137h.89v-.275a23.023 23.023 0 0 1-.537-.613h-.353a.141.141 0 0 1-.14-.142v-.446c-.121-.147-.237-.299-.358-.45h-.518v.901Zm13.539-.491v.485a.142.142 0 0 1-.14.142h-.383c-.015.019-.032.036-.047.054a26.01 26.01 0 0 1-.365.418l-.096.112v.304h.89a.14.14 0 0 1 .14.137v.902h.876v-.902a.14.14 0 0 1 .14-.137h.89v-.888h-.89a.141.141 0 0 1-.14-.142v-.902h-.547c-.111.142-.217.28-.328.417Zm-22.578 1.544h3.577l-1.787-2.576-1.79 2.576Zm28.93-.005h3.558l-1.78-2.57-1.779 2.57Zm-.16-1.216.02.937 1.75-2.534-.332-.48-1.437 2.077Zm-28.847-4.49 3.779 5.407v-1.005l-3.78-5.406v1.005Zm28.872-.069 3.78 5.416v-1.005l-3.78-5.415v1.005ZM23.67 50.307v.963l1.698-2.448-.334-.481-1.364 1.966Zm28.848-.335 1.269-1.87-1.27-1.834v3.704Zm-26.31-1.874 1.27 1.831v-3.704l-1.27 1.873Zm-2.538 1.759 1.197-1.756-1.197-1.728v3.484Zm31.456-1.756 1.195 1.725V46.34l-1.195 1.761Zm-.501-.725.332.481 1.364-1.974v-.953l-1.696 2.446Zm-28.92-.003.333.481 1.435-2.07-.014-.936-1.754 2.525ZM52.6 44.45l1.856 2.68 1.858-2.68-1.857-2.716-1.858 2.716Zm-28.922 0 1.858 2.679 1.858-2.678-1.858-2.717-1.858 2.715Zm5.664.55h.875v-.323a23.64 23.64 0 0 1-.258-.57h-.617V45Zm20.663-.892c-.107.243-.217.483-.33.72l.013.172h.881v-.892h-.564Zm2.514-.986.02.927 1.749-2.562-.326-.477-1.443 2.112ZM23.67 38.555l3.779 5.484v-1l-3.78-5.484v1Zm0 4.46v.96l1.698-2.486-.328-.478-1.37 2.005Zm28.872-4.53 3.78 5.483v-1l-3.78-5.483v1Zm-.024 4.18 1.276-1.898-1.276-1.867v3.765Zm-26.322-1.903 1.282 1.874v-3.78l-1.282 1.906ZM23.67 42.56l1.203-1.794-1.203-1.76v3.554Zm31.45-1.796 1.201 1.756v-3.55l-1.201 1.795Zm-4.106.093c-.067.303-.137.6-.21.887h.81v-.887h-.6Zm-22.636.882h.778c-.024-.092-.046-.185-.069-.278a27.465 27.465 0 0 1-.123-.52l-.02-.09h-.566v.888Zm26.247-1.698.326.477 1.37-2.007v-.953l-1.696 2.483Zm-28.921 0 .325.475 1.444-2.11-.014-.927-1.755 2.562Zm26.868-3.001 1.886 2.756 1.863-2.729v-.053l-1.867-2.729-1.882 2.755Zm-28.902-.025v.052l1.865 2.726 1.883-2.753-1.883-2.752-1.865 2.727Zm28.848-1.344.02.931 1.747-2.564-.324-.474-1.443 2.107ZM23.62 31.044l3.828 5.554v-1l-3.828-5.554v1Zm-.019 4.625v.248l.011.583h.008l.017.071 1.73-2.527-.328-.479-1.438 2.104Zm28.94-4.625 3.78 5.484v-.018l.048-.003v-.913l-3.828-5.555v1.005Zm4.128 5.447h.01c.719-.132 1.233-.792 1.233-1.584 0-.802-.537-1.473-1.243-1.588v3.172Zm-33.349-3.17c-.696.125-1.224.795-1.224 1.586 0 .786.51 1.441 1.203 1.581l.021.001v-3.168Zm-.93-5.597c-1.708.536-2.974 2.275-2.974 4.3 0 2.038 1.276 3.779 2.998 4.308a1.956 1.956 0 0 1-.593-1.425c0-.94.648-1.738 1.5-1.867v-2.017c-.868-.108-1.534-.913-1.534-1.87 0-.572.229-1.087.602-1.43Zm35.25.016c.36.346.587.85.587 1.412 0 .965-.677 1.774-1.558 1.873v2.012c.86.116 1.524.917 1.524 1.87 0 .557-.222 1.06-.579 1.406 1.727-.555 2.969-2.278 2.969-4.283 0-2.014-1.25-3.741-2.944-4.29Zm-5.123 7.479 1.274-1.9-1.274-1.865v3.765Zm-28.916-.004 1.27-1.896-1.27-1.857v3.753Zm2.596-1.897 1.28 1.872v-3.779l-1.28 1.907Zm28.922.002 1.269 1.855v-3.752l-1.27 1.897Zm-.497-.727.328.48 1.438-2.105v-.318l-.01-.62-1.756 2.563Zm-28.92.002.326.477 1.444-2.11-.014-.927-1.755 2.56Zm-.168-.247 1.787-2.613h-3.574l1.787 2.613Zm28.92 0 1.788-2.617h-3.578l1.79 2.617Zm2.215-1.605c.722-.103 1.277-.78 1.277-1.59 0-.806-.528-1.469-1.252-1.588l-.025-.002v3.18Zm-33.352-3.185c-.724.117-1.26.782-1.26 1.594 0 .804.546 1.48 1.263 1.59v-3.184h-.003Zm.284 1.898h3.876v-.872h-3.876v.872Zm28.916-.005h3.87v-.872h-3.87v.872Zm-28.916-1.147h3.876v-.75h-3.876v.75Zm28.916-.005h3.87v-.74h-3.87v.74Zm1.613-1.162h.187v-2.279h-.995l.808 2.28Zm.463 0h.2l.796-2.279h-.996v2.28Zm-29.38-.004h.188v-2.275H24.4l.813 2.275Zm.464 0h.196l.796-2.275h-.992v2.275Zm-1.276-2.554h1v-2.806l-1 2.806Zm1.276 0h.99l-.99-2.791v2.79Zm27.643 0h.997v-2.797l-.997 2.797Zm1.273 0h.997l-.997-2.81v2.81Z" clip-rule="evenodd"/>
  <path fill="#000" d="M34.175 21.162s-.721.137-1.568.49c-.9.378-1.602.956-1.602.956a.866.866 0 0 0-.029-.343s.566-.456 1.461-.843a8.052 8.052 0 0 1 1.699-.535l.039.275Zm11.709-.26c.015.002.774.107 1.713.515.894.387 1.379.78 1.379.78a.69.69 0 0 0-.058.318s-.595-.49-1.495-.868a8.01 8.01 0 0 0-1.587-.475l.048-.27Zm-14.172-1.755c1.122-.044 2.53.02 2.53.02-.002.003-.097.12-.13.26a3.55 3.55 0 0 0-.053.255s-1.249-.084-1.8-.05c-.552.035-1.433.128-1.675.368-.203.201-.242.48-.198.838.044.407.13.961.13.961s-.169-.069-.358-.069c-.174 0-.338.045-.338.045s-.421-1.353-.155-1.995c.198-.476 1.185-.599 2.047-.633Zm14.061.02c.013 0 1.438-.064 2.55-.02.861.035 1.848.157 2.047.633.266.637-.16 2-.16 2a1.179 1.179 0 0 0-.334-.054c-.188 0-.358.068-.358.068s.082-.549.126-.95c.044-.359.005-.638-.198-.839-.242-.24-1.123-.333-1.675-.368-.551-.034-1.814.044-1.814.044s-.02-.117-.053-.254a.731.731 0 0 0-.131-.26Zm-9.285-.27c1.118.044 2.75.59 2.762.593v.3c-.011-.004-1.378-.383-2.318-.417-1.025-.03-1.311.044-1.485.235-.213.24-.208.686-.184.98.034.402.107.986.107.986a1.183 1.183 0 0 0-.247-.03c-.338 0-.595.186-.595.186s-.45-1.68-.14-2.357c.179-.397.977-.515 2.1-.476Zm7.059-.005c1.123-.039 1.921.079 2.1.476.305.676-.126 2.338-.126 2.338a1.086 1.086 0 0 0-.59-.186c-.126 0-.247.034-.247.034s.082-.505.102-.941c.014-.3.014-.77-.199-1.01-.17-.191-.46-.265-1.485-.235-.936.029-2.3.406-2.322.412l.005-.3c.024-.008 1.648-.544 2.762-.588Zm-3.15 2.539c-.004-.001-.196-.093-.416-.093-.223 0-.402.089-.402.089l-.087-1.883c.007.002.24.059.474.06.242 0 .562-.065.562-.065l-.131 1.892Z"/>
  <path fill="#000" d="M40.716 20.476c1.08.01 3.059.142 3.813.235l-.029.28s-1.979-.212-3.803-.236l.02-.28Zm-1.426.269c-1.814.025-3.742.238-3.765.24l-.03-.279c.755-.093 2.71-.22 3.79-.23l.004.27Zm.73-5.201c1.045 0 1.897.863 1.897 1.922 0 1.058-.852 1.921-1.897 1.921s-1.897-.863-1.897-1.921c0-1.06.852-1.922 1.897-1.922ZM40.474 12v1.113h1.036v.912h-1.016v1.352a2.18 2.18 0 0 0-.484-.058c-.164 0-.33.024-.484.063V14.03H38.51v-.911h1.035V12h.93Z"/>
</svg>
