<svg preserveAspectRatio="xMidYMid meet" width="100%" height="100%" overflow="visible" style="display: block;" viewBox="0 0 47.292 63.4023" fill="none" xmlns="http://www.w3.org/2000/svg">
<g id="Logo">
<path d="M19.1855 63.4023C14.5307 62.6037 10.238 60.382 6.89844 57.043C3.55884 53.7039 1.33685 49.4119 0.538086 44.7578L19.1855 63.4023Z" fill="var(--fill-0, white)"/>
<path d="M15.5312 42.501L12.4678 47.9277C12.3661 48.1032 12.3122 48.3021 12.3096 48.5049C12.307 48.7076 12.3561 48.9079 12.4531 49.0859C12.5503 49.2641 12.6922 49.4148 12.8643 49.5225C13.0362 49.63 13.2329 49.6916 13.4355 49.7012H22.4639V63.4023L0.0537109 40.9971L0 39.1699C0.155378 35.783 0.977782 32.4597 2.41895 29.3906L15.5312 42.501Z" fill="var(--fill-0, white)"/>
<path d="M44.874 29.4443C46.3016 32.4803 47.1227 35.7658 47.292 39.1162L47.2383 40.9971L24.8281 63.4023V49.54H33.8564C34.0514 49.5261 34.2402 49.4639 34.4053 49.3594C34.5703 49.2548 34.7069 49.1107 34.8027 48.9404C34.8986 48.7701 34.9514 48.5782 34.9551 48.3828C34.9587 48.1875 34.9135 47.9941 34.8242 47.8203L31.7607 42.4473H31.707L44.874 29.4443Z" fill="var(--fill-0, white)"/>
<path d="M46.8623 44.7578C46.0636 49.4118 43.8414 53.7039 40.502 57.043C37.1623 60.382 32.8688 62.6037 28.2139 63.4023L46.7549 44.7041L46.8623 44.7578Z" fill="var(--fill-0, white)"/>
<path d="M22.3027 25.4141C23.5742 25.1925 24.8836 25.418 26.0078 26.0518C27.132 26.6856 28.0023 27.6892 28.4707 28.8916C28.939 30.094 28.9764 31.4214 28.5771 32.6484C28.1778 33.8755 27.3657 34.9264 26.2793 35.623C26.04 35.7682 25.8671 36.0016 25.7969 36.2725C25.7266 36.5434 25.7647 36.831 25.9033 37.0742L26.5479 38.1484L28.6982 42.0176L29.9336 44.167L31.707 47.2832H26.8174L26.8711 47.3369H15.2627L17.0361 44.167L18.2188 42.0176L20.4219 38.1484L20.959 37.0742C21.0976 36.831 21.1357 36.5434 21.0654 36.2725C20.9952 36.0016 20.8223 35.7682 20.583 35.623C19.3391 34.8735 18.4357 33.6695 18.0645 32.2656C17.6933 30.8616 17.8836 29.3679 18.5947 28.1016C18.988 27.4174 19.522 26.8234 20.1611 26.3604C20.8002 25.8974 21.5301 25.5747 22.3027 25.4141Z" fill="var(--fill-0, white)"/>
<path d="M17.0898 26.4893C15.9932 28.1144 15.5447 30.0912 15.833 32.0303C16.1215 33.9695 17.1261 35.731 18.6484 36.9668L16.7139 40.3516L3.45703 27.1514C5.03246 24.039 6.78556 21.0197 8.70605 18.1074L17.0898 26.4893Z" fill="var(--fill-0, white)"/>
<path d="M38.6396 17.9463C40.5473 20.8907 42.2879 23.94 43.8525 27.0801V27.1338L30.6328 40.2979L28.6982 36.8594C30.2014 35.609 31.1868 33.8454 31.4648 31.9102C31.7428 29.9747 31.2929 28.0047 30.2021 26.3818L38.6396 17.9463Z" fill="var(--fill-0, white)"/>
<path d="M3.45703 27.1514C3.45098 27.1633 3.4455 27.1755 3.43945 27.1875V27.1338L3.45703 27.1514Z" fill="var(--fill-0, white)"/>
<path d="M22.4639 13.7549V22.9971C21.0667 23.212 19.7769 23.8025 18.7021 24.6621L12.3604 18.2686L10.0498 15.958C11.662 13.5401 13.3819 11.2293 14.9941 9.08008L16.2305 7.46875L22.4639 13.7549Z" fill="var(--fill-0, white)"/>
<path d="M32.3525 9.13379C33.9647 11.283 35.6837 13.5939 37.2959 16.0117L35.0391 18.2686H35.0928L28.6445 24.6621C27.516 23.8024 26.2254 23.212 24.8281 22.9971V13.8086L31.1162 7.52246L32.3525 9.13379Z" fill="var(--fill-0, white)"/>
<path d="M22.4639 10.585L21.2812 9.34863L19.6689 7.7373H19.6152L17.7344 5.74902L22.4639 0V10.585Z" fill="var(--fill-0, white)"/>
<path d="M24.7744 0C26.4253 1.88354 28.0381 3.80015 29.6113 5.74902L27.6768 7.68359L26.0107 9.29492L24.7744 10.5312V0Z" fill="var(--fill-0, white)"/>
</g>
</svg>
