<svg preserveAspectRatio="xMidYMid meet" width="100%" height="100%" overflow="visible" style="display: block;" viewBox="0 0 72 14.8291" fill="none" xmlns="http://www.w3.org/2000/svg">
<g id="Logo">
<path fill-rule="evenodd" clip-rule="evenodd" d="M20.8516 3.42676C22.0426 3.42676 23.0494 4.0261 23.5137 4.94043V3.66211H25.3389V10.917C25.3387 13.6917 23.3264 14.8289 21.3311 14.8291C19.3355 14.8291 17.7402 13.7737 17.4922 12.1953L17.4951 12.1924L19.3838 12.0664C19.6001 12.8245 20.4675 13.2978 21.3789 13.2979C22.4775 13.2979 23.4208 12.5892 23.4209 11.2314V10.1113C22.9882 10.9166 22.0742 11.5635 20.8516 11.5635C18.6861 11.5634 16.9845 9.81167 16.9844 7.49512C16.9844 5.17842 18.6544 3.42684 20.8516 3.42676ZM21.2236 5.0791C19.8942 5.0791 18.919 6.1047 18.9189 7.49219C18.9189 8.87976 19.9087 9.90527 21.2236 9.90527C22.524 9.90526 23.5137 8.85002 23.5137 7.49219C23.5136 6.13444 22.5531 5.07912 21.2236 5.0791Z" fill="var(--fill-0, #2E3130)"/>
<path fill-rule="evenodd" clip-rule="evenodd" d="M35.4453 5.15918C36.194 3.31816 38.0977 2.93391 39.6924 3.44434C41.3301 3.96731 42.6081 5.54847 41.9229 7.64453L41.1309 10.0674C40.8658 10.8749 40.6571 11.7667 40.5791 12.3564L38.8018 11.752C38.8309 11.4126 38.8892 11.0335 39.0859 10.4365C38.4202 11.2242 37.2079 11.3926 36.209 11.0557C34.8747 10.6023 34.1233 9.4506 34.5508 8.14746H34.5537C35.0034 6.76979 36.4376 6.27675 38.8926 6.84668L40.0859 7.13574L40.1533 6.92578C40.4912 5.89254 39.932 5.15412 39.1836 4.90137C38.4788 4.66114 37.6091 4.88152 37.2178 5.77832L35.4453 5.15918ZM38.7197 8.06738C37.3783 7.77751 36.6289 7.97353 36.4102 8.64746C36.1914 9.32141 36.6271 9.78517 37.2129 9.9834H37.2148C38.0363 10.2633 39.1712 9.98309 39.5967 8.68262L39.7236 8.29297L38.7197 8.06738Z" fill="var(--fill-0, #2E3130)"/>
<path fill-rule="evenodd" clip-rule="evenodd" d="M55.9336 3.38965C58.6268 3.38965 60.0656 5.75611 59.7256 8.23145H53.8926C53.9532 9.4627 54.8059 10.3592 55.9795 10.3594C56.9079 10.3594 57.6807 9.82461 57.9434 9.01953L59.585 9.27148C59.2763 10.7383 57.8515 11.8906 55.9629 11.8906C53.6272 11.8906 51.9552 10.1095 51.9551 7.63184H51.957C51.957 5.17141 53.627 3.38969 55.9336 3.38965ZM55.9336 4.85645C54.8666 4.85648 54.0447 5.62985 53.9062 6.76465H57.8682C57.8682 5.70914 57.0786 4.85645 55.9336 4.85645Z" fill="var(--fill-0, #2E3130)"/>
<path d="M47.084 3.4248C49.157 3.42498 50.7971 4.75051 50.9043 6.69043L49.0166 6.84863C48.9068 5.85525 48.1015 5.14648 47.0811 5.14648C45.827 5.14665 44.9473 6.18758 44.9473 7.62207C44.9473 9.18295 45.9362 10.0975 47.0811 10.0977C48.0554 10.0977 48.9069 9.40383 49.0166 8.29883L50.9189 8.43945C50.8266 10.4589 49.1857 11.832 47.0811 11.832C44.7282 11.8319 43.0265 10.0654 43.0264 7.62012H43.0293C43.0293 5.20673 44.7482 3.4248 47.084 3.4248Z" fill="var(--fill-0, #2E3130)"/>
<path d="M1.91797 8.24805C1.91797 9.47955 2.47447 10.2031 3.43457 10.2031C4.40917 10.2031 4.99753 9.50898 5.10449 8.29492V3.65918H7.02246V11.5928H5.10449L5.13574 10.3789C4.70312 11.2634 3.88172 11.7842 2.76855 11.7842C1.11331 11.7842 1.19644e-05 10.5376 0 8.64453V3.65918H1.91797V8.24805Z" fill="var(--fill-0, #2E3130)"/>
<path d="M70.0654 3.66016H72V5.28516H70.0654V8.81836C70.0654 9.70047 70.4834 9.98535 71.0254 9.98535C71.1954 9.98533 71.3798 9.95342 71.5498 9.8916L71.582 11.5322C71.2565 11.6437 70.9161 11.705 70.5928 11.7051C69.3555 11.7051 68.1475 10.9471 68.1475 8.95996V5.28516H66.7715V3.66016H68.1475V1.65527H70.0654V3.66016Z" fill="var(--fill-0, #2E3130)"/>
<path d="M13.0039 3.47168C14.6905 3.47189 15.8183 4.75033 15.8184 6.70508V11.5938H13.9004V7.00293C13.9004 5.77143 13.329 5.04785 12.3057 5.04785C11.2072 5.04798 10.5879 5.88287 10.5879 7.34961V11.5918H8.66992V3.66016H10.5898L10.5439 5.34766C10.8842 4.18058 11.7521 3.47168 13.0039 3.47168Z" fill="var(--fill-0, #2E3130)"/>
<path d="M30.5908 3.05762C30.5908 0.850012 32.4016 0.0921474 34.0713 0.40918V1.97266C33.3276 1.73736 32.5088 1.91095 32.5088 3.06055V3.66016H34.21V5.28516H32.5088V11.5938H30.5908V5.28223H29.1836V3.65723H30.5908V3.05762Z" fill="var(--fill-0, #2E3130)"/>
<path d="M65.9609 11.5938H64.043V3.66016H65.9609V11.5938Z" fill="var(--fill-0, #2E3130)"/>
<path d="M65.0029 0C65.715 0 66.2576 0.552313 66.2578 1.26074C66.2578 1.96939 65.7152 2.54004 65.0029 2.54004C64.2908 2.53996 63.7656 1.98669 63.7656 1.26074C63.7659 0.53503 64.3079 7.54099e-05 65.0029 0Z" fill="var(--fill-0, #2E3130)"/>
</g>
</svg>
