<svg xmlns="http://www.w3.org/2000/svg" fill="none" viewBox="0 0 80 80">
  <path fill="#FC4C02" d="M0 12C0 5.373 5.373 0 12 0h56c6.627 0 12 5.373 12 12v56c0 6.627-5.373 12-12 12H12C5.373 80 0 74.627 0 68V12Z"/>
  <path fill="#000" d="M34.373 17.855c.52 0 .59.14.902 1.921l.278 1.537h1.25c-.451-1.747-.625-3.598-1.111-4.017.625-.42.902-1.013.902-1.921 0-1.362-.624-2.305-1.7-2.305h-1.736v8.243h1.215v-3.458Zm0-3.318h.347c.451 0 .66.28.66.943 0 .663-.244.978-.66.978h-.382v-1.921h.035Zm-2.881-1.432h-1.215v8.243h1.215v-8.243Zm23.224 1.362c.277 0 .486.14 1.041.594v-1.537c-.417-.35-.764-.524-1.146-.524-.867 0-1.527.908-1.527 2.096 0 1.99 1.666 2.899 1.666 4.121 0 .385-.208.699-.486.699-.312 0-.625-.245-1.11-.873v1.781c.485.454.902.664 1.284.664.868 0 1.562-.978 1.562-2.306 0-1.956-1.736-3.143-1.736-4.121-.034-.384.174-.594.452-.594Zm-28.501 2.9 1.527 3.981h1.354l-1.666-4.331 1.32-3.912h-1.216l-1.319 3.982v-3.982H25v8.243h1.215v-3.982Zm4.027 9.534v3.773h1.25V26.9l1.319-4.47h-1.285l-.66 2.55-.798-2.55h-1.284l1.458 4.47Zm-1.701 1.363c0-.943-.313-1.642-.903-2.06.452-.35.73-.944.73-1.677 0-1.013-.487-2.096-1.563-2.096H25v8.243h1.805c1.076 0 1.736-1.117 1.736-2.41Zm-2.36-4.47h.277c.486 0 .694.314.694.977 0 .664-.243 1.013-.694 1.013h-.243v-1.99h-.035Zm0 5.553v-2.236h.485c.486 0 .66.56.66 1.118 0 .699-.208 1.118-.73 1.118h-.416Zm8.192-6.917h-1.076v8.244h1.145v-5.275l1.042 3.144h.243l1.041-3.144h.035v5.275h1.11V22.43h-1.075l-1.215 3.389-1.25-3.389Zm14.65-5.937 1.527 4.855h1.041v-8.243h-1.145v4.645l-1.458-4.645h-1.111v8.243h1.145v-4.855Zm-2.604 3.423h-1.944v-2.06h1.736v-1.398h-1.736v-1.921h1.874v-1.432h-3.09v8.243h3.16v-1.432Zm-6.075 2.514h-1.215v8.244h1.215V22.43Zm8.852 8.349c.903 0 2.083-1.013 2.083-4.227 0-3.073-1.11-4.226-2.083-4.226-1.041 0-2.083 1.362-2.083 4.157 0 3.073 1.077 4.296 2.083 4.296Zm0-6.811c.73 0 .868 1.187.868 2.584 0 1.991-.312 2.62-.868 2.62-.66 0-.868-.978-.868-2.62 0-1.606.209-2.584.868-2.584Zm-7.845.454c0 1.99 1.666 2.899 1.666 4.122 0 .384-.208.698-.486.698-.312 0-.625-.244-1.11-.873v1.781c.485.454.902.664 1.318.664.868 0 1.528-.978 1.528-2.305 0-1.957-1.736-3.144-1.736-4.122 0-.35.208-.559.486-.559s.486.14 1.041.594v-1.537c-.416-.35-.798-.524-1.145-.524-.903-.035-1.562.908-1.562 2.06Zm3.193 7.44c-.07 0-.104 0-.243-.07l.07 1.501c.243.105.416.175.59.175.52 0 1.284-.524 1.284-2.794V22.43H45.03v8.314c.035.873-.208 1.117-.486 1.117Zm-5.346-14.496 1.527 3.982h1.355l-1.667-4.331 1.354-3.912h-1.215l-1.354 3.982v-3.982h-1.215v8.243h1.215v-3.982Zm14.094 8.453 1.528 4.855h1.041V22.43h-1.145v4.68l-1.459-4.68h-1.11v8.244h1.145v-4.855Zm1.076 16.102-1.006 1.537v-5.17h-2.396v3.179h-2.048l-.729-4.61-.902 3.806h-1.215v-4.086h-6.909v2.305h-3.68v3.283h-1.596l-.868-8.907-1.041 10.933h-1.285v-1.956l-1.91-1.083-2.151 1.048v-1.78h-1.597V67h30.86V44.261l-1.527-2.34ZM35.831 52.295h-1.389v-1.921h1.389v1.92Zm0-2.62h-1.389v-1.921h1.389v1.921Zm2.326 2.62h-1.389v-1.921h1.389v1.92Zm0-2.62h-1.389v-1.921h1.389v1.921Zm2.291 13.064h-1.389v-1.922h1.389v1.922Zm0-2.62h-1.389v-1.921h1.389v1.92Zm0-2.62h-1.389v-1.92h1.389v1.92Zm0-2.62h-1.389v-1.92h1.389v1.92Zm0-2.584h-1.389v-1.921h1.389v1.92Zm0-2.62h-1.389v-1.921h1.389v1.921Zm0-2.62h-1.389v-1.92h1.389v1.92Zm0-2.62h-1.389v-1.92h1.389v1.92Zm2.326 18.303h-1.389v-1.92h1.389v1.92Zm0-2.62h-1.389v-1.92h1.389v1.92Zm0-2.619h-1.389v-1.92h1.389v1.92Zm0-2.62h-1.389v-1.92h1.389v1.92Zm0-2.584h-1.389v-1.921h1.389v1.92Zm0-2.62h-1.389v-1.921h1.389v1.921Zm0-2.62h-1.389v-1.92h1.389v1.92Zm0-2.62h-1.389v-1.92h1.389v1.92Zm2.291 7.86h-1.389v-1.921h1.389v1.92Zm0-2.62h-1.389v-1.921h1.389v1.921Zm2.326 2.62h-1.354v-1.921h1.354v1.92Zm0-2.62h-1.354v-1.921h1.354v1.921Z"/>
</svg>
