<svg preserveAspectRatio="xMidYMid meet" width="100%" height="100%" overflow="visible" style="display: block;" viewBox="0 0 60 45.733" fill="none" xmlns="http://www.w3.org/2000/svg">
<g id="Logo">
<path id="Union" d="M41.9554 0C51.9141 0.000109949 60 8.07985 60 18.0314C60 27.983 51.9141 36.0627 41.9554 36.0628H18.0446C17.9861 36.0628 17.9276 36.0611 17.8692 36.0605L0 45.733V19.8725L0.102984 19.9628C0.0352238 19.3282 1.78621e-06 18.6838 0 18.0314C0 8.07983 8.08583 7.15774e-05 18.0446 0H41.9554Z" fill="var(--fill-0, #F96B6B)"/>
<g id="Union_2">
<path d="M17.3502 13.9569C19.7831 13.9569 21.7584 15.9311 21.7584 18.3622C21.7583 20.7932 19.783 22.767 17.3502 22.767C14.9175 22.7668 12.9421 20.7932 12.942 18.3622C12.942 15.9312 14.9174 13.957 17.3502 13.9569Z" fill="var(--fill-0, white)"/>
<path d="M41.0469 13.9569C43.4798 13.9569 45.4551 15.9311 45.4551 18.3622C45.455 20.7932 43.4797 22.767 41.0469 22.767C38.6142 22.7668 36.6388 20.7931 36.6387 18.3622C36.6387 15.9312 38.6142 13.9571 41.0469 13.9569Z" fill="var(--fill-0, white)"/>
</g>
</g>
</svg>
