<svg preserveAspectRatio="xMidYMid meet" width="100%" height="100%" overflow="visible" style="display: block;" viewBox="0 0 42 49" fill="none" xmlns="http://www.w3.org/2000/svg">
<g id="Logo">
<path fill-rule="evenodd" clip-rule="evenodd" d="M14.797 44.044C14.8744 44.044 14.9375 44.1078 14.9375 44.1813V45.0833H15.8275C15.9049 45.0833 15.968 45.147 15.9681 45.2205V46.3872C15.9681 46.4657 15.9049 46.5294 15.8275 46.5294H14.9375V47.4314C14.9375 47.5098 14.8744 47.5735 14.797 47.5735H13.6454C13.568 47.5734 13.5055 47.5097 13.5055 47.4314V46.5294H12.6148C12.5374 46.5293 12.4743 46.4656 12.4743 46.3872V45.2205C12.4743 45.1422 12.5375 45.0833 12.6148 45.0833H13.5055V44.1813C13.5055 44.1079 13.568 44.0441 13.6454 44.044H14.797ZM13.7859 45.2205C13.7859 45.299 13.7228 45.3627 13.6454 45.3627H12.7554V46.25H13.6454C13.7228 46.25 13.7859 46.3137 13.7859 46.3921V47.2941H14.662V46.3921C14.662 46.3138 14.7245 46.25 14.8018 46.25H15.6925V45.3627H14.8018C14.7245 45.3626 14.662 45.2989 14.662 45.2205V44.3186H13.7859V45.2205Z" fill="var(--fill-0, black)"/>
<path fill-rule="evenodd" clip-rule="evenodd" d="M21.5668 44.044C21.644 44.0442 21.7066 44.1079 21.7066 44.1813V45.0833H22.5973C22.6746 45.0834 22.7371 45.1471 22.7372 45.2205V46.3872C22.7372 46.4656 22.6746 46.5293 22.5973 46.5294H21.7066V47.4314C21.7066 47.5097 21.644 47.5734 21.5668 47.5735H20.4151C20.3377 47.5735 20.2746 47.5098 20.2746 47.4314V46.5294H19.3839C19.3066 46.5292 19.2441 46.4655 19.2441 46.3872V45.2205C19.2441 45.1422 19.3067 45.0834 19.3839 45.0833H20.2746V44.1813C20.2746 44.1078 20.3378 44.044 20.4151 44.044H21.5668ZM20.555 45.2205C20.555 45.2989 20.4924 45.3625 20.4151 45.3627H19.5245V46.25H20.4151C20.4924 46.2501 20.555 46.3138 20.555 46.3921V47.2941H21.4311V46.3921C21.4311 46.3137 21.4942 46.25 21.5716 46.25H22.4616V45.3627H21.5716C21.4942 45.3627 21.4311 45.299 21.4311 45.2205V44.3186H20.555V45.2205Z" fill="var(--fill-0, black)"/>
<path fill-rule="evenodd" clip-rule="evenodd" d="M28.3359 44.044C28.4132 44.0441 28.4764 44.1078 28.4764 44.1813V45.0833H29.3664C29.4438 45.0833 29.5069 45.147 29.5069 45.2205V46.3872C29.5069 46.4657 29.4438 46.5294 29.3664 46.5294H28.4764V47.4314C28.4764 47.5098 28.4133 47.5735 28.3359 47.5735H27.1842C27.1068 47.5735 27.0437 47.5098 27.0437 47.4314V46.5294H26.1537C26.0763 46.5294 26.0132 46.4657 26.0132 46.3872V45.2205C26.0132 45.1421 26.0763 45.0833 26.1537 45.0833H27.0437V44.1813C27.0437 44.1078 27.1069 44.044 27.1842 44.044H28.3359ZM27.3248 45.2205C27.3248 45.299 27.2616 45.3627 27.1842 45.3627H26.2936V46.25H27.1842C27.2616 46.25 27.3248 46.3137 27.3248 46.3921V47.2941H28.2002V46.3921C28.2002 46.3137 28.2633 46.25 28.3407 46.25H29.2307V45.3627H28.3407C28.2633 45.3627 28.2002 45.299 28.2002 45.2205V44.3186H27.3248V45.2205Z" fill="var(--fill-0, black)"/>
<path fill-rule="evenodd" clip-rule="evenodd" d="M11.3616 45.1617C11.439 45.1617 11.5021 45.2255 11.5022 45.299V46.4706C11.4973 46.549 11.4342 46.6127 11.3616 46.6127H10.2051C10.1277 46.6127 10.0646 46.549 10.0646 46.4706V45.299C10.0646 45.2255 10.1278 45.1617 10.2051 45.1617H11.3616ZM10.3457 46.3333H11.2211V45.4411H10.3457V46.3333Z" fill="var(--fill-0, black)"/>
<path fill-rule="evenodd" clip-rule="evenodd" d="M18.1453 45.1617C18.2227 45.1617 18.2858 45.2255 18.2859 45.299V46.4706C18.2859 46.549 18.2227 46.6127 18.1453 46.6127H16.9888C16.9115 46.6126 16.849 46.5489 16.849 46.4706V45.299C16.849 45.2255 16.9115 45.1618 16.9888 45.1617H18.1453ZM17.1294 46.3333H18.0055V45.4411H17.1294V46.3333Z" fill="var(--fill-0, black)"/>
<path fill-rule="evenodd" clip-rule="evenodd" d="M24.9151 45.1617C24.9924 45.1619 25.0549 45.2256 25.055 45.299V46.4706C25.055 46.5489 24.9924 46.6125 24.9151 46.6127H23.7635C23.6861 46.6127 23.623 46.549 23.623 46.4706V45.299C23.623 45.2255 23.6861 45.1617 23.7635 45.1617H24.9151ZM23.9034 46.3333H24.7794V45.4411H23.9034V46.3333Z" fill="var(--fill-0, black)"/>
<path fill-rule="evenodd" clip-rule="evenodd" d="M31.7086 45.1617C31.7859 45.1618 31.8484 45.2255 31.8484 45.299V46.4706C31.8436 46.5489 31.781 46.6126 31.7037 46.6127H30.5521C30.4747 46.6127 30.4115 46.549 30.4115 46.4706V45.299C30.4116 45.2255 30.4747 45.1617 30.5521 45.1617H31.7086ZM30.692 46.3333H31.568V45.4411H30.692V46.3333Z" fill="var(--fill-0, black)"/>
<path fill-rule="evenodd" clip-rule="evenodd" d="M11.4152 40.7303C11.4924 40.7304 11.555 40.7942 11.5551 40.8675V41.7695H12.4457C12.523 41.7696 12.5855 41.8333 12.5856 41.9068V43.0734C12.5856 43.1518 12.5231 43.2155 12.4457 43.2156H11.5551V44.1176C11.5502 44.1959 11.4925 44.2596 11.4152 44.2597H10.2636C10.1862 44.2597 10.123 44.196 10.123 44.1176V43.2156H9.23236C9.15507 43.2154 9.0925 43.1518 9.0925 43.0734V41.9068C9.09256 41.8334 9.15511 41.7697 9.23236 41.7695H10.123V40.8675C10.1231 40.7941 10.1862 40.7303 10.2636 40.7303H11.4152ZM10.4035 41.9068C10.4035 41.9851 10.3409 42.0488 10.2636 42.0489H9.37292V42.9362H10.2636C10.3408 42.9364 10.4034 43.0001 10.4035 43.0783V43.9803H11.2746V43.0783C11.2747 43 11.3378 42.9362 11.4152 42.9362H12.3052V42.0489H11.4152C11.3378 42.0489 11.2746 41.9852 11.2746 41.9068V41.0048H10.4035V41.9068Z" fill="var(--fill-0, black)"/>
<path fill-rule="evenodd" clip-rule="evenodd" d="M31.7232 40.7303C31.8004 40.7304 31.863 40.7942 31.8631 40.8675V41.7695H32.7537C32.831 41.7696 32.8935 41.8333 32.8936 41.9068V43.0734C32.8936 43.1518 32.8311 43.2155 32.7537 43.2156H31.8631V44.1176C31.8631 44.1959 31.8005 44.2596 31.7232 44.2597H30.5667C30.4893 44.2597 30.4261 44.196 30.4261 44.1176V43.2156H29.5403C29.4631 43.2154 29.4005 43.1518 29.4005 43.0734V41.9068C29.4006 41.8334 29.4631 41.7697 29.5403 41.7695H30.4261V40.8675C30.4262 40.7941 30.4893 40.7303 30.5667 40.7303H31.7232ZM30.7066 41.9068C30.7066 41.9851 30.644 42.0488 30.5667 42.0489H29.6809V42.9362H30.5667C30.644 42.9363 30.7065 43.0001 30.7066 43.0783V43.9803H31.5826V43.0783C31.5827 43 31.6458 42.9362 31.7232 42.9362H32.6132V42.0489H31.7232C31.6458 42.0489 31.5826 41.9852 31.5826 41.9068V41.0048H30.7066V41.9068Z" fill="var(--fill-0, black)"/>
<path fill-rule="evenodd" clip-rule="evenodd" d="M14.7538 41.8381C14.8311 41.8383 14.8936 41.902 14.8937 41.9754V43.147C14.8937 43.2253 14.8311 43.289 14.7538 43.2891H13.5973C13.5199 43.2891 13.4568 43.2254 13.4568 43.147V41.9754C13.4568 41.897 13.52 41.8381 13.5973 41.8381H14.7538ZM13.7372 43.0048H14.6133V42.1126H13.7372V43.0048Z" fill="var(--fill-0, black)"/>
<path fill-rule="evenodd" clip-rule="evenodd" d="M28.3115 41.8381C28.3889 41.8381 28.4471 41.9019 28.4472 41.9754V43.147C28.4472 43.2254 28.3889 43.2891 28.3115 43.2891H27.1599C27.0825 43.2891 27.0193 43.2254 27.0193 43.147V41.9754C27.0194 41.897 27.0826 41.8382 27.1599 41.8381H28.3115ZM27.2956 43.0048H28.1709V42.1126H27.2956V43.0048Z" fill="var(--fill-0, black)"/>
<path fill-rule="evenodd" clip-rule="evenodd" d="M11.3567 38.4999C11.4341 38.4999 11.4972 38.5636 11.4973 38.6371V39.8087C11.4973 39.8871 11.4342 39.9509 11.3567 39.9509H10.2051C10.1277 39.9508 10.0646 39.8871 10.0646 39.8087V38.6371C10.0647 38.5637 10.1278 38.4999 10.2051 38.4999H11.3567ZM10.3408 39.6714H11.2162V38.7793H10.3408V39.6714Z" fill="var(--fill-0, black)"/>
<path fill-rule="evenodd" clip-rule="evenodd" d="M31.7086 38.4999C31.7858 38.5 31.8483 38.5637 31.8484 38.6371V39.8087C31.8484 39.887 31.7859 39.9507 31.7086 39.9509H30.5521C30.4747 39.9509 30.4115 39.8871 30.4115 39.8087V38.6371C30.4116 38.5636 30.4747 38.4999 30.5521 38.4999H31.7086ZM30.692 39.6714H31.568V38.7793H30.692V39.6714Z" fill="var(--fill-0, black)"/>
<path fill-rule="evenodd" clip-rule="evenodd" d="M11.4152 34.0586C11.4924 34.0588 11.5549 34.1225 11.5551 34.2008V35.1027H12.4457C12.523 35.1029 12.5855 35.1666 12.5856 35.2449V36.4116C12.5856 36.49 12.5231 36.5536 12.4457 36.5537H11.5551V37.4557C11.5502 37.5389 11.4925 37.5977 11.4152 37.5979H10.2636C10.1862 37.5979 10.123 37.5341 10.123 37.4557V36.5537H9.23236C9.15507 36.5536 9.0925 36.4899 9.0925 36.4116V35.2449C9.09261 35.1667 9.15514 35.1029 9.23236 35.1027H10.123V34.2008C10.1231 34.1224 10.1862 34.0586 10.2636 34.0586H11.4152ZM10.4035 35.2498C10.4035 35.3281 10.3409 35.3918 10.2636 35.392H9.37292V36.2792H10.2636C10.3408 36.2794 10.4033 36.3431 10.4035 36.4165V37.3234H11.2746V36.4214C11.2748 36.3479 11.3378 36.2841 11.4152 36.2841H12.3052V35.392H11.4152C11.3378 35.392 11.2746 35.3282 11.2746 35.2498V34.3478H10.4035V35.2498Z" fill="var(--fill-0, black)"/>
<path fill-rule="evenodd" clip-rule="evenodd" d="M31.7232 34.0586C31.8004 34.0588 31.8629 34.1225 31.8631 34.2008V35.1027H32.7537C32.831 35.1028 32.8935 35.1666 32.8936 35.2449V36.4116C32.8936 36.49 32.8311 36.5536 32.7537 36.5537H31.8631V37.4557C31.8631 37.5389 31.8005 37.5977 31.7232 37.5979H30.5667C30.4893 37.5979 30.4261 37.5341 30.4261 37.4557V36.5537H29.5403C29.4631 36.5536 29.4005 36.4899 29.4005 36.4116V35.2449C29.4006 35.1667 29.4631 35.1029 29.5403 35.1027H30.4261V34.2008C30.4263 34.1224 30.4894 34.0586 30.5667 34.0586H31.7232ZM30.7066 35.2498C30.7066 35.3281 30.644 35.3918 30.5667 35.392H29.6809V36.2792H30.5667C30.6439 36.2794 30.7065 36.3431 30.7066 36.4165V37.3234H31.5826V36.4214C31.5827 36.3479 31.6458 36.2841 31.7232 36.2841H32.6132V35.392H31.7232C31.6458 35.392 31.5826 35.3282 31.5826 35.2498V34.3478H30.7066V35.2498Z" fill="var(--fill-0, black)"/>
<path d="M22.3844 18.0199C22.3831 18.0262 22.3539 18.1721 22.3113 18.1865C22.2625 18.201 22.08 18.1768 22.0552 18.1718C22.022 18.1622 22.0024 17.9639 22.0017 17.9561L22.3844 18.0199Z" fill="var(--fill-0, black)"/>
<path fill-rule="evenodd" clip-rule="evenodd" d="M21.5709 16.1375C21.8129 16.0689 21.9244 16.314 21.9244 16.314C21.9244 16.314 22.3166 16.0934 22.3844 16.4904C22.4422 16.8284 22.026 16.8287 22.026 16.8287L22.113 17.0983L22.8485 17.2404L23.0663 17.0051C23.0589 17.005 22.7191 16.9966 22.7907 16.6816C22.8682 16.3483 23.2068 16.5738 23.2068 16.5738C23.2068 16.5738 23.2118 16.2944 23.536 16.3875C23.8695 16.4807 23.7489 16.711 23.7489 16.711C23.7593 16.7104 24.1396 16.691 24.0537 17.0149C23.9577 17.379 23.6098 17.1467 23.6035 17.1424L23.6661 17.4316L24.4454 17.6326L24.586 17.4267C24.586 17.4267 24.2908 17.3432 24.4357 17.0493C24.6244 16.6865 24.9339 17.0689 24.9339 17.0689C24.9339 17.0689 25.2583 16.9071 25.389 16.9659L24.6632 18.0885L24.6535 18.0934L25.0306 18.3434L25.0167 18.7846C24.8764 19.0003 24.6194 19.2258 24.6194 19.2258C24.6194 19.2475 24.6214 20.5375 24.252 21.4562C23.8794 22.3826 23.2648 23.2014 23.0858 23.6817C22.9504 24.0493 22.9069 24.5249 22.9069 24.5249L22.5681 24.3631L22.4567 29.1419C22.4567 29.1419 23.0808 29.9215 23.584 31.3135C24.1984 33.0093 24.9388 34.2496 25.5581 34.7008C26.3178 35.2498 27.4888 34.9459 27.9824 34.2351C28.5049 33.4802 28.2145 32.4115 27.6484 31.539C27.0773 30.6614 25.9019 28.9358 25.7084 27.485C25.5586 26.3479 26.5263 25.2748 27.6971 24.4611C29.3178 23.329 30.1984 22.4954 30.692 21.8827C31.1516 21.3042 31.4563 20.162 30.8854 19.2062C30.3484 18.2994 29.5505 18.3337 28.8877 18.5542C27.9393 18.8679 28.2197 19.8385 28.2197 19.8385C28.2238 19.8386 28.5785 19.8485 28.6747 19.8728C29.0713 19.9758 29.2844 20.1574 29.4005 21.0052C29.4777 21.5739 29.0908 22.6131 29.0908 22.6131C29.0908 22.6131 29.1581 22.2502 29.0324 21.814C28.9041 21.3857 28.5847 21.1177 28.5731 21.1081C28.5764 21.1231 28.6821 21.6151 28.5439 22.0591C28.4082 22.5149 27.7354 22.9661 27.3387 23.265C26.12 24.1789 25.6766 24.8273 25.6694 24.8379L25.4377 24.8869C25.5492 24.4994 26.0714 23.4415 26.4341 22.9758C26.9961 22.2606 27.4057 21.7239 27.4118 21.716L27.3533 21.2062L26.4877 22.0984L26.3618 22.1229C26.3618 22.1229 26.681 21.1476 26.8697 20.8827C27.0966 20.5696 27.3281 20.1928 27.3387 20.1424C27.4452 19.721 27.3489 19.3875 27.4939 19.0444C27.852 18.1669 28.4617 17.863 29.5988 17.8483C30.6294 17.8336 31.4374 18.3239 31.7809 19.8238C32.1243 21.3286 30.9296 23.0004 30.0441 23.7994C29.1665 24.5962 28.8111 25.2576 28.8049 25.2693C28.8049 25.2693 29.081 25.1761 29.3859 25.1614C29.4541 25.1518 29.8838 25.2546 29.9857 25.3036C30.333 25.46 30.8149 25.3435 30.8179 25.3428L28.1083 26.6026L28.0165 27.034L28.8682 26.8526L29.8403 27.0683L30.3051 27.0144L30.344 27.1516L27.9197 28.2448L27.9295 28.5046H28.3985L29.134 28.6566L29.763 28.6272L29.7971 28.7399L28.1083 29.4703C28.1083 29.4703 27.9244 29.8677 28.9113 32.3478C28.9113 32.3478 29.5357 34.7988 26.9616 35.5635C26.2938 35.7645 25.1376 35.5292 24.1699 34.3429C23.6231 33.6714 23.0034 32.6125 22.8582 32.3576C22.8631 32.6026 22.8581 32.8675 22.8387 33.1517C22.7571 34.364 23.0051 35.4507 23.0085 35.4655C23.0085 35.4655 23.139 35.8526 23.2841 35.9949C23.3325 36.1517 23.3326 36.637 23.3133 36.8332C23.2895 37.065 23.0165 37.3399 23.0085 37.3479C23.0085 37.3479 22.6893 39.789 22.8053 40.8381L22.7225 40.9313L22.1568 40.4852L21.5424 40.9215L21.7358 41.6224L21.3051 41.9999L21.4937 42.7597L21.2856 42.7254C21.2796 42.717 20.9899 42.3094 20.9085 41.9068C20.8311 41.495 20.9516 40.9803 20.9516 40.9803L20.8118 40.8626L20.1292 41.4411L19.6796 41.196L19.1571 41.4803L19.1661 41.3185C19.1661 41.3185 19.5389 40.5295 20.0178 40.5293C20.2452 40.5293 20.6956 40.3479 20.6956 40.3479L19.8877 39.8381L19.9455 39.2106L19.4424 38.7891L19.6358 38.7204C19.6358 38.7204 20.0278 38.8773 20.4875 39.0832C20.7031 39.1804 21.1461 39.9888 21.1548 40.0048L21.7358 39.8675C21.7356 39.8601 21.7262 39.5593 21.731 39.2155C21.7455 38.3626 21.6776 37.2351 21.4986 36.49C21.3872 36.0195 21.126 35.6811 20.5745 35.1567C20.0229 34.6322 19.6456 34.0978 19.6456 34.0978C19.64 34.0876 19.3014 33.4691 19.2246 33.3184C19.0359 32.9555 19.0313 31.9458 19.0506 31.8184C19.085 31.6121 19.6606 30.8768 20.6037 30.137L21.015 29.2203L20.8313 29.137L20.4193 29.9948C20.4091 30.0036 18.9483 31.2611 18.8467 31.7449C18.8129 31.9213 18.8328 32.985 19.0263 33.3968C19.0939 33.5436 19.4796 34.233 19.505 34.2792C19.3696 34.4654 19.162 34.7448 19.0555 34.9018C18.8835 35.139 18.8856 35.5628 18.8857 35.5733L18.0145 35.9704L17.5114 35.5341L14.8505 34.9704L14.5068 35.0096L14.3906 34.8723L14.7636 34.49L14.463 33.7302C14.4574 33.734 14.1295 33.9557 13.6161 33.9557C13.1034 33.9555 12.779 33.6664 12.779 33.6664L12.7067 33.539L13.399 33.5733L13.486 33.3135L14.2215 33.186L14.3231 33.0047L13.5145 32.6713L13.6259 32.1909L12.9245 31.9801L13.0163 31.8625C13.0163 31.8625 13.5437 31.7206 14.0371 32.039C14.5096 32.3436 14.681 32.8058 14.6856 32.8184L14.9132 32.838L15.0099 32.0831L15.4163 31.99L15.4747 31.2694L15.6243 31.4458C15.6243 31.4458 15.8857 32.0684 15.6682 32.5439C15.4534 33.0128 15.1585 33.3628 15.1504 33.3723L15.3244 34.0194L17.7097 34.2743L17.5504 33.6076C17.5521 33.5939 17.6294 32.9809 17.7682 32.186C17.9037 31.3823 18.0778 30.9409 18.0778 30.9409L20.0471 29.9997L19.7903 28.4262L19.0165 27.5634L18.7069 26.7252L20.3421 24.7349L16.3549 29.5782C16.3499 29.5759 16.275 29.5423 16.1956 29.4997C16.1135 29.3918 16.1569 29.1418 16.0891 29.0095C15.9882 28.8055 15.5685 28.7988 15.5617 28.7987L14.7921 29.6664L14.5263 29.6272V31.1958H13.9167V29.5144L13.447 29.9066L13.4811 29.5831L13.8339 28.9752L13.8437 28.1958C13.7902 28.1077 13.6214 28.0437 13.5827 27.9752C13.5103 27.8478 13.5727 27.73 13.4324 27.6026C13.2629 27.451 12.8034 27.5683 12.8034 27.5683L12.905 27.3673C13.0163 27.3036 13.1857 27.2742 13.3308 27.2301C13.5728 27.1467 13.9167 27.2693 13.9167 27.2693V22.4464L13.6843 22.6474C13.5053 22.5395 13.4516 22.5248 13.1951 22.466C13.1079 22.4471 12.9097 22.775 12.8034 22.8974L12.7603 22.7111C12.7603 22.7111 12.8861 22.2307 13.2926 21.8729C13.6506 21.5641 13.9167 21.6327 13.9167 21.6327V21.2503L13.3114 21.0836L13.191 20.6326L12.5084 20.5444L12.6489 20.3728C12.6536 20.3704 13.0095 20.1869 13.4373 20.2307C13.8679 20.2748 13.9216 20.3581 13.9216 20.3581V18.9407L13.8388 18.9414C13.8228 18.9399 13.0776 18.8695 12.4457 19.466C11.8071 20.0689 11.4973 20.4464 11.4973 20.4464C11.4973 20.4464 10.9024 19.2355 10.6846 18.3679C10.4829 17.5555 10.5671 16.2746 10.5684 16.2551C10.5861 16.2693 11.5036 17.004 12.1361 17.3875C12.7458 17.7648 13.8298 17.8091 13.8298 17.8091H13.9216V17.2257H14.5312V17.8091H14.9521V18.9365L14.5312 18.9379V20.7258L14.671 20.8238L14.9473 20.0836L15.3919 19.917L15.4114 19.2356L15.5714 19.3385C15.5776 19.3528 15.8067 19.8877 15.673 20.2601C15.494 20.7502 15.1017 21.216 15.1017 21.216L15.5373 21.4758L15.9486 21.3631L16.0453 21.7405L17.8698 22.6964C17.8698 22.6964 18.0198 22.314 18.2713 22.0689C18.7066 21.6524 20.2829 20.5648 20.5355 20.5003C21.4888 20.2552 22.0552 20.1964 22.0552 20.1964L22.1909 19.8728L20.9614 19.7503L21.2856 19.2062L20.9036 18.716L20.8215 18.0885L21.6245 17.5052L23.9904 18.0591L24.2861 17.9463L21.6871 17.3287L21.5709 16.1375ZM14.5458 28.235V28.936C14.5604 28.9295 15.0291 28.7212 15.0148 28.4703C15.0002 28.2003 14.5592 28.2339 14.5458 28.235ZM14.4776 27.2007L14.8457 27.6566L15.0537 27.4507L14.7921 26.784L15.0774 26.2693L14.7921 25.6761L15.005 25.6614L15.586 26.6173L15.6007 27.7105L16.0599 28.0242L18.1453 24.7104L17.4537 24.7742L17.6033 24.2258L15.3049 22.4709L15.0732 22.5591L14.7921 22.3533L14.9619 22.0248L14.4776 21.7552V27.2007ZM20.6469 21.8336C20.1775 21.8778 19.4083 21.9562 19.2051 22.0738C18.9824 22.2017 18.4118 23.2161 18.3005 23.4366L18.4842 23.5297C18.4842 23.5297 19.1323 22.3441 19.3116 22.2503C19.5617 22.1187 20.6445 22.0355 20.6615 22.0297L20.6469 21.8336ZM21.6245 19.2307L22.5876 19.3483L22.5103 18.9954L21.5132 18.8826L21.6245 19.2307ZM24.1553 18.4905L24.339 18.6914L24.4065 18.9562L24.6681 18.7209L24.6827 18.4807L24.4698 18.3728L24.1553 18.4905ZM21.3872 18.0395L21.4791 18.162C21.4791 18.162 21.6196 18.0297 21.818 17.9806C21.8182 17.9907 21.8255 18.2858 21.987 18.363C22.1032 18.412 22.3359 18.3924 22.3698 18.3777C22.423 18.3483 22.5295 18.3236 22.5973 18.064C22.611 18.0671 23.1315 18.1876 23.2938 18.265L23.2361 18.0346L21.8277 17.7257L21.3872 18.0395Z" fill="var(--fill-0, black)"/>
<path d="M19.4813 18.7111C19.4903 18.7162 19.6627 18.815 19.9406 18.8532L20.85 18.9513L21.0003 19.1571C21.0003 19.1571 19.9113 19.064 19.9065 19.064C19.6498 19.0254 19.3652 18.8921 19.3554 18.8875C19.3312 18.8189 19.4039 18.7012 19.4813 18.7111Z" fill="var(--fill-0, black)"/>
<path fill-rule="evenodd" clip-rule="evenodd" d="M37.079 12.7159L36.2301 15.1375H37.5821C40.0208 15.1914 42 17.3826 42 20.0297C41.9999 22.6178 40.0985 24.7742 37.7373 24.9114V42.3872H36.1501V45.8284L35.0423 45.8431C33.8956 45.8431 33.4698 46.8627 33.4697 47.5049V49H8.49686V47.5C8.49684 46.6422 7.86287 45.9215 7.01612 45.8235L5.84085 45.8284V42.3872H4.25365V24.9023C1.86826 24.7308 0.000138417 22.5884 0 20.0248C0 17.3877 1.97437 15.1916 4.40325 15.1326H4.40882V15.1277H4.41787V15.1326H5.77405L4.91191 12.7208L6.53738 8.15208L8.15868 12.7208L7.31185 15.1326H8.59845V15.1767H11.5606L10.4473 10.1717C10.6892 10.0198 11.0861 9.99034 11.0861 9.99034C11.0967 9.98918 11.5624 9.94063 11.7346 10.3041C11.9471 10.7646 11.3908 11.2453 11.3908 11.2453L11.6567 11.6276C11.6567 11.6276 12.0345 11.0639 12.4555 10.9658C12.6394 10.9268 12.9878 11.074 12.9878 11.7502C12.9878 12.3138 12.8568 12.5394 12.5181 12.5247C12.1576 12.5101 11.5821 11.8713 11.5745 11.8629L11.4152 12.2208L12.0345 13.4659C12.0496 13.4724 12.6797 13.7402 13.6356 13.7257C15.0804 13.7064 15.2333 13.4536 15.2374 13.4463L15.8519 12.2208L15.6876 11.8629C15.6851 11.8657 15.1256 12.4853 14.7587 12.5247C14.4249 12.5639 14.2744 12.304 14.2744 11.7502C14.2744 11.1227 14.5794 10.9168 14.8262 10.9707C15.2064 11.0488 15.6055 11.6168 15.6097 11.6227L15.8908 11.2453C15.8908 11.2453 15.3297 10.7795 15.378 10.3727C15.4409 9.82368 16.1184 9.80406 16.1184 9.80406C16.1323 9.80436 16.7104 9.81937 16.8539 10.2698C16.9988 10.7354 16.3598 11.2453 16.3598 11.2453L16.6458 11.6227C16.6483 11.6192 17.0534 11.0342 17.4634 10.9609C17.5942 10.9414 17.9859 11.02 17.9811 11.7845C17.9762 12.3138 17.8307 12.5394 17.5066 12.5247C17.1436 12.5048 16.563 11.8629 16.563 11.8629L16.3988 12.2208L17.0132 13.4512C17.0168 13.458 17.1704 13.7306 18.4988 13.7306C20.005 13.7306 20.0414 13.5224 20.0422 13.5149L20.7533 12.1521L20.5648 11.7943C20.5552 11.8062 20.01 12.4807 19.6456 12.4953C19.3069 12.5051 19.07 12.2843 19.0506 11.6472C19.0361 11.1376 19.3501 10.8386 19.6017 10.8629C19.968 10.8971 20.5408 11.5149 20.5453 11.5198L20.7533 11.1766C20.7471 11.1706 20.1061 10.542 20.2648 10.0737C20.3945 9.67484 20.9767 9.62829 20.9857 9.62759C20.9857 9.62759 21.5567 9.6325 21.7115 10.0737C21.8759 10.5443 21.2133 11.1766 21.2133 11.1766L21.4165 11.5198C21.4165 11.5198 21.9436 10.9465 22.321 10.8629C22.5678 10.809 22.9505 11.0639 22.9069 11.7306C22.873 12.2697 22.65 12.5051 22.3113 12.4904C21.9505 12.4802 21.4128 11.8069 21.4067 11.7992L21.2084 12.157L21.9342 13.5296C21.938 13.535 22.1013 13.75 23.4344 13.7355L23.4629 13.7306C24.7853 13.7306 24.9436 13.4603 24.9485 13.4512L25.5629 12.2208L25.3987 11.8629C25.3909 11.8717 24.8204 12.5052 24.4552 12.5247C24.131 12.5394 23.9813 12.3138 23.9813 11.7845C23.9765 11.0198 24.3684 10.9413 24.499 10.9609C24.9102 11.0347 25.3118 11.6227 25.3118 11.6227L25.597 11.2453C25.597 11.2453 24.9538 10.7354 25.1037 10.2698C25.2489 9.81387 25.8392 9.80406 25.8392 9.80406C25.8509 9.80436 26.5172 9.82364 26.5796 10.3727C26.6274 10.7767 26.0744 11.2388 26.0667 11.2453L26.3472 11.6227C26.3472 11.6227 26.7485 11.0494 27.1307 10.9707C27.3726 10.9168 27.6825 11.1227 27.6825 11.7502C27.6824 12.3039 27.5326 12.5638 27.1989 12.5247C26.8351 12.4859 26.2817 11.876 26.2699 11.8629L26.105 12.2208L26.7194 13.4463C26.7215 13.4501 26.8661 13.7062 28.3212 13.7257C29.289 13.7404 29.9231 13.4659 29.9231 13.4659L30.5472 12.2208L30.3823 11.8629C30.37 11.8767 29.8025 12.5101 29.4388 12.5247C29.1003 12.5393 28.9698 12.3136 28.9698 11.7502C28.9698 11.0737 29.3182 10.9266 29.5021 10.9658C29.9181 11.064 30.3002 11.6276 30.3002 11.6276L30.5806 11.2453C30.5718 11.2375 30.0265 10.7562 30.2376 10.3041C30.4118 9.93642 30.8861 9.99034 30.8861 9.99034C30.8986 9.9913 31.2867 10.0222 31.52 10.1717L30.4303 15.1767H33.3292V15.1375H34.6888L33.8323 12.7159L35.4584 8.15208L37.079 12.7159ZM34.8099 45.077C33.6269 45.2349 32.7148 46.2783 32.7148 47.5V48.0441C32.7196 48.1225 32.6565 48.1863 32.5839 48.1863H9.38266C9.30524 48.1863 9.2421 48.1225 9.2421 48.0441V47.5C9.24208 46.2853 8.34753 45.2546 7.18103 45.0819V45.4292C8.1835 45.6106 8.91295 46.4739 8.91297 47.5V48.5784H33.0536V47.5C33.0537 46.6865 33.5998 45.5552 34.8099 45.4285V45.077ZM33.2422 18.4295C33.0968 21.1879 32.7752 25.2778 32.0767 28.5732H32.7489C32.8261 28.5733 32.8886 28.6372 32.8887 28.7154V29.8821C32.8887 29.9605 32.8262 30.0242 32.7489 30.0242H31.8582V30.9262C31.863 31.0045 31.8005 31.0633 31.7232 31.0635H31.4101C31.3183 31.3325 31.2246 31.5887 31.1241 31.8282H31.7037C31.7809 31.8283 31.8434 31.8921 31.8436 31.9654V33.137C31.8484 33.2154 31.7859 33.279 31.7086 33.2792H30.5521C30.5206 33.2792 30.4927 33.2669 30.4693 33.2491C29.6993 34.7861 28.8012 36.1716 27.8717 37.3969H28.331C28.4083 37.3969 28.4714 37.4607 28.4715 37.5342V38.4361H29.3615C29.4389 38.4361 29.502 38.4999 29.5021 38.5734V39.7401C29.5021 39.8185 29.4389 39.8822 29.3615 39.8822H28.4715V40.7842C28.4764 40.8724 28.4133 40.9312 28.3359 40.9313H27.1842C27.1068 40.9313 27.0437 40.8675 27.0437 40.7891V39.8871H26.1537C26.0763 39.8871 26.0132 39.8234 26.0132 39.745V39.6147C25.6484 40.0106 25.2894 40.3815 24.9402 40.7254H24.9534C25.0308 40.7254 25.0939 40.7892 25.094 40.8626V41.7646H25.9839C26.0613 41.7646 26.1195 41.8284 26.1196 41.9019V43.0685C26.1196 43.147 26.0565 43.2107 25.9839 43.2107H25.094V44.1176C25.094 44.196 25.0308 44.2597 24.9534 44.2597H23.8018C23.7244 44.2596 23.6619 44.196 23.6619 44.1176V43.2156H22.7713C22.6939 43.2156 22.6307 43.1519 22.6307 43.0734V42.7856C21.6919 43.5427 21.0783 43.9426 21.0581 43.9558L20.976 43.9999L20.9036 43.9558C20.8836 43.9428 20.2805 43.5496 19.3554 42.8052V43.0833C19.3554 43.1617 19.2922 43.2254 19.2148 43.2254H18.3249V44.1176C18.3249 44.196 18.2617 44.2597 18.1843 44.2597H17.0327C16.9553 44.2597 16.8921 44.196 16.8921 44.1176V43.2156H16.0022C15.9247 43.2156 15.8616 43.1519 15.8616 43.0734V41.9068C15.8617 41.8333 15.9248 41.7695 16.0022 41.7695H16.8921V40.8675C16.8922 40.7956 16.9527 40.7328 17.0278 40.7303C16.6785 40.3864 16.3184 40.0162 15.9534 39.6203V39.7499C15.9534 39.8282 15.8909 39.8919 15.8136 39.892H14.9229V40.794C14.9374 40.8724 14.8744 40.9313 14.797 40.9313H13.6454C13.568 40.9312 13.5055 40.8675 13.5055 40.7891V39.8871H12.6148C12.5374 39.8871 12.4743 39.8234 12.4743 39.745V38.5783C12.4744 38.5 12.5375 38.4411 12.6148 38.441H13.5055V37.5391C13.5056 37.4657 13.5681 37.4019 13.6454 37.4018H14.0949C13.1563 36.165 12.2483 34.7658 11.473 33.2113C11.4481 33.2512 11.4067 33.2792 11.3567 33.2792H10.2051C10.1277 33.2792 10.0646 33.2155 10.0646 33.137V31.9654C10.0647 31.8871 10.1278 31.8282 10.2051 31.8282H10.8377C10.7362 31.5872 10.6414 31.3295 10.5489 31.0586H10.2636C10.1862 31.0586 10.123 30.9948 10.123 30.9164V30.0144H9.23236C9.15507 30.0143 9.0925 29.9506 9.0925 29.8723V28.7056C9.09266 28.6274 9.15517 28.5636 9.23236 28.5634H9.88088C9.23614 25.5207 8.91383 21.803 8.75362 19.0815V42.1028C8.75362 42.1813 8.69048 42.245 8.61306 42.245H7.18103V44.799C8.50204 44.9735 9.51833 46.1361 9.51835 47.5V47.9068H32.4392V47.5C32.4392 46.1245 33.4725 44.9538 34.8099 44.7948V42.2401H33.3828C33.3053 42.2401 33.2422 42.1764 33.2422 42.0979V41.0685H33.2373V39.6371H33.2422V18.4295ZM35.0903 45.4159L35.734 45.4117V42.2401H35.0903V45.4159ZM6.25696 45.4068H6.90548V42.245H6.25696V45.4068ZM17.1684 41.9068C17.1684 41.9852 17.1052 42.0489 17.0278 42.0489H16.1371V42.9362H17.0278C17.1052 42.9362 17.1683 43 17.1684 43.0783V43.9803H18.0437V43.0783C18.0438 43 18.1069 42.9362 18.1843 42.9362H19.0743V42.5832C18.8759 42.4166 18.6629 42.24 18.4404 42.0489H18.1843C18.1069 42.0489 18.0437 41.9852 18.0437 41.9068V41.696C17.8067 41.4803 17.5549 41.2498 17.3034 41.0048H17.1684V41.9068ZM24.586 41.0685C24.5076 41.1434 24.4292 41.2163 24.3522 41.2884C24.3165 41.3217 24.2809 41.3545 24.2457 41.3871C24.1751 41.4527 24.1055 41.5173 24.0363 41.5804C24.0047 41.6093 23.9736 41.6383 23.9423 41.6666V41.9019C23.9423 41.9803 23.8792 42.044 23.8018 42.044H23.5165C23.3053 42.2281 23.103 42.3992 22.9118 42.5573V42.9313H23.8018C23.8792 42.9313 23.9423 42.9951 23.9423 43.0734V43.9803H24.8135V43.0783C24.8136 43 24.8761 42.9363 24.9534 42.9362H25.8441V42.0489H24.9534C24.8761 42.0488 24.8135 41.9851 24.8135 41.9068V41.0048H24.6535C24.631 41.0262 24.6083 41.0473 24.586 41.0685ZM8.87957 15.4561C8.90319 16.5446 9.0869 23.6162 10.1836 28.6657C10.1841 28.6676 10.1852 28.6693 10.1857 28.6713C10.3647 29.4996 10.5684 30.2351 10.7764 30.8625C10.7804 30.8745 10.7817 30.8872 10.7827 30.8996C10.8819 31.1954 10.9861 31.4748 11.0958 31.735C11.1159 31.7825 11.136 31.83 11.1563 31.8772C11.1653 31.8875 11.1729 31.8989 11.1779 31.9115C11.2747 32.1419 11.3763 32.3626 11.4827 32.5831V32.6006C14.6197 39.2579 20.2654 43.1963 20.976 43.6715C21.2071 43.5169 21.9614 42.9955 22.9821 42.133C23.0978 42.0351 23.2169 41.9324 23.3391 41.8262C24.1438 41.1246 25.0796 40.2333 26.0417 39.1651C26.0436 39.1624 26.0452 39.1593 26.0472 39.1567C26.2407 38.9411 26.4341 38.7204 26.6276 38.49C26.6345 38.4816 26.6429 38.4742 26.6519 38.4676C26.786 38.3094 26.9203 38.148 27.0541 37.983C27.0591 37.9734 27.065 37.9638 27.0729 37.9557C27.2035 37.7891 27.3389 37.6223 27.4695 37.4508C27.4762 37.4414 27.4847 37.4334 27.4939 37.4263C28.5998 35.9939 29.6693 34.3337 30.5361 32.4598C30.621 32.2659 30.699 32.0885 30.7748 31.9115C30.7795 31.9019 30.7857 31.8932 30.7922 31.8849C30.8136 31.8351 30.8357 31.7852 30.8569 31.735C30.9688 31.4703 31.0732 31.185 31.1742 30.8835C31.1747 30.8815 31.1756 30.8792 31.1763 30.8772C31.3891 30.2498 31.5873 29.5143 31.7663 28.6811C31.7671 28.6776 31.7695 28.6746 31.7705 28.6713C32.8706 23.6225 33.0534 16.5489 33.0731 15.4561H8.87957ZM4.66976 41.9656H8.47807V41.0734H4.66976V41.9656ZM33.5178 41.9607H37.3212V41.0685H33.5178V41.9607ZM4.66976 40.794H8.47807V39.9214H4.66976V40.794ZM33.5178 40.7891H37.3212V39.9165H33.5178V40.7891ZM13.7859 38.5881C13.7859 38.6665 13.7228 38.7302 13.6454 38.7302H12.7554V39.6175H13.6454C13.7227 39.6175 13.7858 39.6813 13.7859 39.7548V40.6518H14.662V39.7499C14.6621 39.6765 14.7245 39.6127 14.8018 39.6126H15.6925V39.3381C15.5135 39.142 15.3344 38.9361 15.1553 38.7253H14.8018C14.7245 38.7253 14.662 38.6616 14.662 38.5832V38.1371C14.541 37.99 14.4246 37.8381 14.3036 37.6861H13.7859V38.5881ZM27.3248 38.0979V38.5832C27.3248 38.6616 27.2616 38.7253 27.1842 38.7253H26.8022C26.7869 38.7436 26.7703 38.7612 26.7549 38.7793C26.6331 38.9214 26.5116 39.0608 26.3903 39.1973C26.3577 39.2342 26.3261 39.2719 26.2936 39.3087V39.6126H27.1842C27.2616 39.6126 27.3247 39.6764 27.3248 39.7499V40.6518H28.2002V39.7499C28.2003 39.6764 28.2634 39.6126 28.3407 39.6126H29.2307V38.7253H28.3407C28.2633 38.7253 28.2002 38.6616 28.2002 38.5832V37.6812H27.6532C27.542 37.8233 27.436 37.9607 27.3248 38.0979ZM4.747 39.642H8.3236L6.53738 37.0664L4.747 39.642ZM33.6764 39.6371H37.2349L35.455 37.0671L33.6764 39.6371ZM33.5178 38.4214L33.5372 39.3577L35.2873 36.8241L34.9547 36.3437L33.5178 38.4214ZM4.66976 33.9319L8.44885 39.3381V38.3332L4.66976 32.9269V33.9319ZM33.5421 33.8625L37.3212 39.2779V38.273L33.5421 32.8576V33.8625ZM4.66976 38.3073V39.2702L6.3676 36.822L6.03429 36.3409L4.66976 38.3073ZM33.5178 37.9725L34.787 36.1021L33.5178 34.268V37.9725ZM7.20748 36.0979L8.47807 37.9291V34.2253L7.20748 36.0979ZM4.66976 37.857L5.86729 36.1007L4.66976 34.373V37.857ZM36.1264 36.1014L37.3212 37.8262V34.3401L36.1264 36.1014ZM35.6247 35.3759L35.9574 35.857L37.3212 33.8835V32.9304L35.6247 35.3759ZM6.70508 35.3731L7.03839 35.8542L8.4732 33.7841L8.45859 32.8478L6.70508 35.3731ZM33.5985 32.45L35.455 35.1308L37.3128 32.4493L35.4557 29.7343L33.5985 32.45ZM4.67741 32.4493L6.5353 35.1287L8.39318 32.4514L6.5346 29.7343L4.67741 32.4493ZM10.3408 32.9998H11.2162V32.6769C11.1283 32.4892 11.0418 32.2996 10.958 32.1076H10.3408V32.9998ZM31.0037 32.1076C30.8974 32.351 30.7874 32.5909 30.6746 32.8275L30.6871 32.9998H31.568V32.1076H31.0037ZM33.5178 31.1223L33.5372 32.0488L35.2866 29.4871L34.9609 29.0102L33.5178 31.1223ZM4.66976 26.555L8.44885 32.039V31.039L4.66976 25.555V26.555ZM4.66976 31.0159V31.9752L6.3676 29.4892L6.03986 29.0109L4.66976 31.0159ZM33.5421 26.485L37.3212 31.9682V30.9682L33.5421 25.485V26.485ZM33.5178 30.665L34.7939 28.7665L33.5178 26.8995V30.665ZM7.19634 28.7616L8.47807 30.6356V26.8561L7.19634 28.7616ZM4.66976 30.5607L5.87286 28.7665L4.66976 27.0067V30.5607ZM36.1195 28.7651L37.3212 30.5214V26.9696L36.1195 28.7651ZM32.014 28.8576C31.9467 29.1613 31.8775 29.4578 31.8032 29.7448H32.6132V28.8576H32.014ZM9.37779 29.7399H10.1557C10.132 29.6483 10.1105 29.5553 10.0875 29.4619C10.0689 29.3866 10.0502 29.3105 10.0319 29.2336C10.0091 29.1373 9.98645 29.0402 9.96438 28.9423C9.95772 28.9126 9.95077 28.8826 9.9442 28.8527H9.37779V29.7399ZM35.6254 28.0424L35.9511 28.5186L37.3212 26.5123V25.5592L35.6254 28.0424ZM6.70369 28.0417L7.02934 28.5172L8.4732 26.4065L8.45859 25.4801L6.70369 28.0417ZM33.572 25.041L35.4577 27.7973L37.3212 25.0683V25.0151L35.4543 22.286L33.572 25.041ZM4.66976 25.0158V25.0676L6.5346 27.7938L8.41753 25.041L6.5353 22.2895L4.66976 25.0158ZM33.5178 23.6719L33.5372 24.6033L35.2852 22.0388L34.9609 21.5647L33.5178 23.6719ZM4.62105 19.0444L8.44885 24.5984V23.5984L4.62105 18.0444V19.0444ZM4.60226 23.6691V23.917L4.6134 24.4997L4.62105 24.5004L4.63775 24.5711L6.3683 22.0444L6.03986 21.5654L4.60226 23.6691ZM33.5421 19.0444L37.3212 24.5277V24.5102L37.3699 24.5074V23.5935L33.5421 18.0395V19.0444ZM37.6698 24.4912C37.6735 24.491 37.6772 24.4915 37.6809 24.4912C38.3988 24.3588 38.9131 23.6991 38.9133 22.9072C38.9133 22.1045 38.3755 21.4342 37.6698 21.3189V24.4912ZM4.32115 21.321C3.62487 21.4457 3.09717 22.1164 3.09717 22.9072C3.09731 23.6925 3.60715 24.3484 4.30027 24.4884C4.30722 24.4888 4.31419 24.4888 4.32115 24.4891V21.321ZM3.39012 15.7236C1.68297 16.2603 0.416806 17.9991 0.416806 20.0248C0.416925 22.0621 1.6926 23.803 3.41517 24.3316C3.05094 23.9853 2.82171 23.4779 2.82162 22.9072C2.82162 21.9662 3.47035 21.1691 4.32115 21.0395V19.0234C3.45389 18.9145 2.78764 18.1103 2.78752 17.1522C2.78752 16.5808 3.01665 16.0664 3.39012 15.7236ZM38.6405 15.7404C39.0014 16.0859 39.2278 16.5893 39.2278 17.1522C39.2277 18.1175 38.5512 18.9264 37.6698 19.0255V21.0367C38.5304 21.1527 39.1937 21.9543 39.1937 22.9072C39.1936 23.4636 38.9719 23.9661 38.6154 24.3127C40.3417 23.7581 41.5838 22.0354 41.5839 20.0297C41.5839 18.0159 40.3339 16.2889 38.6405 15.7404ZM33.5178 23.2188L34.7925 21.3189L33.5178 19.4541V23.2188ZM4.60226 23.2146L5.87147 21.3189L4.60226 19.4625V23.2146ZM7.19773 21.3182L8.47807 23.1901V19.4113L7.19773 21.3182ZM36.1195 21.3196L37.3887 23.1747V19.4232L36.1195 21.3196ZM35.6227 20.5934L35.9511 21.0731L37.3887 18.9681V18.6501L37.3789 18.0297L35.6227 20.5934ZM6.70369 20.5955L7.02934 21.0717L8.4732 18.9611L8.45859 18.0346L6.70369 20.5955ZM6.5346 20.3483L8.32221 17.7355H4.74769L6.5346 20.3483ZM35.4557 20.3483L37.2433 17.7306H33.6653L35.4557 20.3483ZM37.6698 18.7433C38.392 18.6399 38.9472 17.9628 38.9474 17.1522C38.9474 16.3471 38.4191 15.6843 37.6949 15.5646C37.6865 15.5642 37.6782 15.5636 37.6698 15.5632V18.7433ZM4.31767 15.5583C3.59387 15.6751 3.0582 16.34 3.0582 17.1522C3.05832 17.9557 3.60392 18.6326 4.32115 18.7412V15.5576L4.31767 15.5583ZM4.60226 17.4561H8.47807V16.5836H4.60226V17.4561ZM33.5178 17.4512H37.3887V16.5787H33.5178V17.4512ZM4.60226 16.3042H8.47807V15.5541H4.60226V16.3042ZM33.5178 16.2993H37.3887V15.559H33.5178V16.2993ZM35.1314 15.1375H35.3179V12.858H34.3228L35.1314 15.1375ZM35.5941 15.1375H35.7931L36.5899 12.858H35.5941V15.1375ZM6.21312 15.1326H6.4017V12.858H5.40039L6.21312 15.1326ZM6.67794 15.1326H6.87417L7.67021 12.858H6.67794V15.1326ZM5.40248 12.5786H6.4017V9.77255L5.40248 12.5786ZM6.67794 12.5786H7.66812L6.67794 9.78796V12.5786ZM34.3214 12.5786H35.3179V9.78165L34.3214 12.5786ZM35.5941 12.5786H36.5906L35.5941 9.76975V12.5786Z" fill="var(--fill-0, black)"/>
<path d="M15.1748 9.1619C15.1748 9.1619 14.4538 9.29922 13.6071 9.6521C12.7071 10.0296 12.0053 10.608 12.0053 10.608C12.0339 10.4631 11.9777 10.2704 11.976 10.2649C11.976 10.2649 12.5422 9.80894 13.4373 9.4217C14.3905 9.00994 15.1358 8.88738 15.1358 8.88738L15.1748 9.1619Z" fill="var(--fill-0, black)"/>
<path d="M26.8843 8.90209C26.8988 8.90406 27.6576 9.00905 28.5968 9.4168C29.4914 9.80383 29.9759 10.1962 29.9759 10.1962C29.9732 10.2025 29.8992 10.3706 29.9182 10.5149C29.9182 10.5149 29.3228 10.0246 28.4228 9.6472C27.5761 9.29426 26.8356 9.1717 26.8356 9.1717L26.8843 8.90209Z" fill="var(--fill-0, black)"/>
<path d="M12.7115 7.14716C13.8341 7.10304 15.2423 7.16677 15.2423 7.16677C15.2397 7.16997 15.1449 7.28639 15.1115 7.42658C15.0776 7.56377 15.0586 7.68148 15.0586 7.68148C15.0586 7.68148 13.8101 7.59815 13.2585 7.63246C12.7069 7.66678 11.8262 7.75992 11.5843 8.00011C11.3811 8.20109 11.3424 8.48054 11.386 8.83836C11.4295 9.24521 11.5168 9.79916 11.5168 9.79916C11.5168 9.79916 11.3471 9.73053 11.1584 9.73053C10.9842 9.73053 10.8196 9.77465 10.8196 9.77465C10.8196 9.77465 10.399 8.42169 10.6651 7.77952C10.8635 7.30406 11.8503 7.18148 12.7115 7.14716Z" fill="var(--fill-0, black)"/>
<path d="M26.773 7.16677C26.7862 7.16618 28.2107 7.10325 29.3232 7.14716C30.1845 7.18149 31.1713 7.3041 31.3697 7.77952C31.6357 8.41683 31.2097 9.77955 31.2097 9.77955C31.2025 9.77717 31.0464 9.72568 30.8764 9.72563C30.6876 9.72563 30.518 9.79426 30.518 9.79426C30.518 9.79426 30.6004 9.24521 30.6439 8.84326C30.6875 8.4855 30.6487 8.20599 30.4456 8.00502C30.2037 7.76484 29.3231 7.67169 28.7714 7.63736C28.2198 7.60305 26.9567 7.68148 26.9567 7.68148C26.9567 7.68148 26.9377 7.56376 26.9038 7.42658C26.8706 7.28699 26.7764 7.17092 26.773 7.16677Z" fill="var(--fill-0, black)"/>
<path d="M17.4878 6.89716C18.6062 6.9412 20.2381 7.48626 20.2502 7.4903V7.78933C20.2386 7.78609 18.8719 7.40682 17.9324 7.37265C16.9068 7.34326 16.621 7.41679 16.4468 7.60795C16.2341 7.8482 16.2389 8.29434 16.2631 8.58836C16.297 8.99032 16.3696 9.57367 16.3696 9.57367C16.3652 9.57263 16.2466 9.5443 16.1232 9.54425C15.7845 9.54425 15.5276 9.73053 15.5276 9.73053C15.5276 9.73053 15.0781 8.04913 15.3877 7.37265C15.5668 6.9756 16.3652 6.85794 17.4878 6.89716Z" fill="var(--fill-0, black)"/>
<path d="M24.547 6.89226C25.6696 6.85304 26.468 6.97069 26.6471 7.36775C26.9518 8.04427 26.5211 9.70602 26.5211 9.70602C26.5171 9.70306 26.267 9.51977 25.931 9.51974C25.8052 9.51974 25.684 9.55406 25.684 9.55406C25.684 9.55406 25.7662 9.04911 25.7856 8.61287C25.8001 8.31385 25.8002 7.84325 25.5873 7.60305C25.4179 7.41187 25.1275 7.33834 24.1017 7.36775C23.1656 7.397 21.8011 7.77361 21.7797 7.77952L21.7846 7.4805C21.8087 7.4725 23.4328 6.93607 24.547 6.89226Z" fill="var(--fill-0, black)"/>
<path d="M21.397 9.43151C21.393 9.42959 21.2011 9.33837 20.9809 9.33837C20.7583 9.3384 20.5794 9.42661 20.5794 9.42661L20.4924 7.54423C20.4985 7.54574 20.7324 7.60301 20.9663 7.60305C21.2082 7.60305 21.5278 7.53932 21.5278 7.53932L21.397 9.43151Z" fill="var(--fill-0, black)"/>
<path d="M21.7164 8.47561C22.7954 8.48542 24.7747 8.61777 25.5295 8.71091L25.5003 8.99032C25.5003 8.99032 23.5211 8.77954 21.6969 8.75503L21.7164 8.47561Z" fill="var(--fill-0, black)"/>
<path d="M20.2892 8.74522C18.4759 8.76959 16.5477 8.98288 16.5247 8.98542L16.4955 8.70601C17.2503 8.61287 19.2053 8.48542 20.2843 8.47561L20.2892 8.74522Z" fill="var(--fill-0, black)"/>
<path d="M21.0198 3.54417C22.0649 3.54427 22.9167 4.407 22.9167 5.46576C22.9166 6.52448 22.0649 7.38726 21.0198 7.38736C19.9747 7.38736 19.123 6.52455 19.123 5.46576C19.123 4.40694 19.9747 3.54417 21.0198 3.54417Z" fill="var(--fill-0, black)"/>
<path d="M21.4742 0V1.11276H22.5103V2.02454H21.4937V3.3775C21.3389 3.34321 21.1842 3.31869 21.0101 3.31867C20.8456 3.31867 20.6806 3.34319 20.5258 3.3824V2.02944H19.5099V1.11766H20.5453V0H21.4742Z" fill="var(--fill-0, black)"/>
</g>
</svg>
