<svg xmlns="http://www.w3.org/2000/svg" fill="none" viewBox="0 0 80 80">
  <path fill="#EBF0ED" d="M0 12C0 5.373 5.373 0 12 0h56c6.627 0 12 5.373 12 12v56c0 6.627-5.373 12-12 12H12C5.373 80 0 74.627 0 68V12Z"/>
  <path fill="#2E3130" fill-rule="evenodd" d="M38.88 33.424c4.14-10.18 14.668-12.305 23.486-9.482C71.422 26.833 78.49 35.577 74.7 47.168l-4.38 13.398c-1.465 4.465-2.62 9.397-3.05 12.657l-9.829-3.342c.161-1.877.484-3.973 1.572-7.274-3.682 4.356-10.386 5.287-15.91 3.424-7.378-2.508-11.533-8.876-9.169-16.082h.017c2.486-7.618 10.417-10.345 23.992-7.193l6.6 1.598.372-1.16c1.868-5.714-1.224-9.798-5.362-11.195-3.898-1.329-8.707-.11-10.87 4.849l-9.802-3.424Zm18.108 16.082c-7.418-1.603-11.562-.519-12.772 3.208-1.21 3.727 1.2 6.291 4.44 7.387h.01c4.542 1.548 10.818-.002 13.171-7.193l.702-2.155-5.551-1.247Z" clip-rule="evenodd"/>
  <path fill="#2E3130" d="M12.037 21.803c0-12.208 10.012-16.398 19.246-14.645v8.645c-4.113-1.3-8.64-.34-8.64 6.016v3.316h9.407v8.986h-9.407v34.885H12.035V34.105H4.256v-8.986h7.782v-3.316Z"/>
</svg>
