<svg xmlns="http://www.w3.org/2000/svg" fill="none" viewBox="0 0 80 80">
  <path fill="#fff" d="M0 12C0 5.373 5.373 0 12 0h56c6.627 0 12 5.373 12 12v56c0 6.627-5.373 12-12 12H12C5.373 80 0 74.627 0 68V12Z"/>
  <path fill="#EE805B" d="M60.024 48.108h3.473v1.554h-3.473v7.094c0 .56.062 1.084.185 1.57.125.487.342.903.652 1.244.31.341.718.586 1.225.73.507.146 1.143.155 1.907.032v1.555c-.973.165-1.814.15-2.528-.047s-1.303-.524-1.768-.979c-.466-.456-.818-1.035-1.055-1.74-.237-.704-.356-1.493-.356-2.364V41.478h1.52l.218 6.63Z"/>
  <path fill="#EE805B" fill-rule="evenodd" d="M43.333 45.22c.745 0 1.483.108 2.217.326a5.987 5.987 0 0 1 1.954.98 4.98 4.98 0 0 1 1.38 1.632c.352.653.529 1.414.529 2.286v3.917h-10.42v2.427h-.002c0 .602.124 1.119.372 1.554.248.435.574.798.976 1.089a4.12 4.12 0 0 0 1.38.638 6.355 6.355 0 0 0 1.613.202c.868 0 1.685-.176 2.45-.53.766-.351 1.314-.89 1.645-1.616l1.55.716a4.923 4.923 0 0 1-.962 1.368 5.299 5.299 0 0 1-1.348.979 6.634 6.634 0 0 1-1.613.575 8.039 8.039 0 0 1-1.72.187 7.843 7.843 0 0 1-2.249-.327 5.995 5.995 0 0 1-1.954-.979 5.024 5.024 0 0 1-1.38-1.633c-.352-.653-.528-1.414-.528-2.286v-6.281c0-.87.175-1.633.527-2.286a5.026 5.026 0 0 1 1.38-1.633 5.958 5.958 0 0 1 1.955-.979 7.847 7.847 0 0 1 2.248-.327Zm0 1.678c-.558 0-1.096.068-1.612.203a4.517 4.517 0 0 0-1.396.621 3.03 3.03 0 0 0-.977 1.073c-.237.436-.356.944-.356 1.525v2.58h8.684v-2.58h-.002c0-.581-.123-1.09-.371-1.525a3.247 3.247 0 0 0-.977-1.073 4.306 4.306 0 0 0-1.396-.621 6.42 6.42 0 0 0-1.597-.203Z" clip-rule="evenodd"/>
  <path fill="#EE805B" d="M54.348 41.473c.661-.176 1.396-.222 2.202-.14v1.616c-1.283-.144-2.219.079-2.807.669-.59.59-.885 1.57-.885 2.938v1.554h3.473v1.555h-3.473v12.142h-1.736v-15.25c0-.954.135-1.777.404-2.473.268-.694.64-1.259 1.116-1.694a4.003 4.003 0 0 1 1.706-.917ZM35.377 45.22a13.277 13.277 0 0 1 1.178.062v1.741a4.768 4.768 0 0 0-1.115-.109 6.35 6.35 0 0 0-1.117.14 4.498 4.498 0 0 0-2.093 1.104c-.59.55-.884 1.302-.884 2.255v11.225h-1.738V50.414c0-.954.197-1.762.59-2.425a5.082 5.082 0 0 1 1.458-1.602 6.089 6.089 0 0 1 1.877-.887c.67-.186 1.286-.28 1.844-.28Zm-17.533 8.768h.002l8.466-8.457h2.17l-7.195 7.276 7.133 8.83h-2.14l-6.203-7.586-2.233 2.238v5.349h-1.736V41.415h1.736v12.573ZM39.992 18a6.92 6.92 0 0 1 2.782.569c.862.378 1.64.91 2.309 1.581a7.832 7.832 0 0 1 2.275 5.252v11.615c0 .583-.188 1.055-.577 1.445-.388.39-.85.578-1.408.578-.58 0-1.053-.188-1.441-.578-.387-.39-.577-.862-.577-1.445v-11.62c0-.463-.092-.91-.275-1.325a3.541 3.541 0 0 0-.73-1.08 3.345 3.345 0 0 0-1.064-.718 3.32 3.32 0 0 0-1.302-.258c-.461 0-.904.086-1.317.257-.413.17-.777.411-1.083.717a3.53 3.53 0 0 0-.73 1.08 3.278 3.278 0 0 0-.276 1.326v11.618c0 .583-.188 1.056-.576 1.445-.389.39-.839.578-1.375.578-.58 0-1.052-.188-1.44-.578-.39-.39-.577-.862-.577-1.445V25.4c.02-.995.223-1.95.601-2.837a7.21 7.21 0 0 1 1.575-2.328 7.786 7.786 0 0 1 2.344-1.583A7.928 7.928 0 0 1 39.992 18Zm-11.226 0a1.87 1.87 0 0 1 1.405.593c.39.402.58.87.578 1.431v11.58a7.64 7.64 0 0 1-.6 2.838 7.781 7.781 0 0 1-1.563 2.366 7.503 7.503 0 0 1-2.34 1.63c-.892.399-1.87.6-2.905.6a7.038 7.038 0 0 1-5.093-2.146 8.165 8.165 0 0 1-1.581-2.37A7.98 7.98 0 0 1 16 31.606v-11.58c0-.562.19-1.03.582-1.432.387-.399.859-.593 1.438-.593.555 0 1.01.193 1.386.59.38.402.565.871.565 1.434v11.587c0 .488.093.94.277 1.347.181.399.425.761.725 1.073.306.318.664.567 1.068.738.402.17.84.258 1.302.258.46 0 .904-.086 1.317-.257.414-.172.78-.42 1.086-.74.3-.312.544-.675.725-1.072a3.24 3.24 0 0 0 .277-1.347V20.024c0-.561.19-1.029.58-1.43.387-.4.858-.594 1.438-.594Zm27.891.001c1.291 0 2.532.346 3.685 1.027a7.823 7.823 0 0 1 2.754 2.74c.014.069.04.122.068.162.152.311.228.626.228.932 0 .559-.194 1.02-.592 1.41-.4.39-.867.58-1.427.58a1.89 1.89 0 0 1-1.02-.28 1.8 1.8 0 0 1-.69-.75l-.006-.013-.009-.012a4.16 4.16 0 0 0-1.26-1.282 3.152 3.152 0 0 0-1.732-.5c-.46 0-.904.087-1.317.258-.413.17-.777.411-1.082.717a3.284 3.284 0 0 0-.716 1.086 3.45 3.45 0 0 0-.256 1.32v6.214c0 .485.087.936.257 1.34.17.401.41.765.712 1.08.305.32.672.568 1.086.739.413.17.857.257 1.317.257a3.31 3.31 0 0 0 2.382-.993c.314-.315.564-.678.746-1.077.184-.406.276-.858.276-1.346v-.273h-.272c-.581 0-1.053-.19-1.441-.579-.389-.39-.577-.86-.577-1.444 0-.536.188-.98.574-1.358.389-.38.862-.564 1.444-.564h2.223c.581 0 1.047.183 1.425.562.376.378.56.822.563 1.36v2.297c0 1.429-.361 2.738-1.072 3.893a7.407 7.407 0 0 1-2.824 2.687 7.658 7.658 0 0 1-1.627.62 7.201 7.201 0 0 1-1.818.228 7.055 7.055 0 0 1-1.801-.227 9.39 9.39 0 0 1-1.681-.62 7.554 7.554 0 0 1-2.841-2.69c-.723-1.153-1.088-2.462-1.088-3.89v-6.21a7.49 7.49 0 0 1 .617-2.819 7.76 7.76 0 0 1 1.58-2.366 7.603 7.603 0 0 1 2.341-1.614c.893-.4 1.86-.602 2.871-.602Z"/>
</svg>
