<svg preserveAspectRatio="xMidYMid meet" width="100%" height="100%" overflow="visible" style="display: block;" viewBox="0 0 48.0001 40.3411" fill="none" xmlns="http://www.w3.org/2000/svg">
<g id="Logo">
<path id="Vector" d="M19.7912 21.4588V25.9412C19.7912 27.0717 20.7077 27.9882 21.8383 27.9882H45.9529C47.0835 27.9882 48 27.0717 48 25.9412V21.4588C48 20.3283 47.0835 19.4117 45.9529 19.4117H21.8383C20.7077 19.4117 19.7912 20.3283 19.7912 21.4588Z" fill="var(--fill-0, #276059)"/>
<path id="Vector_2" d="M4.78239 14.7264V18.2382C4.78239 19.6368 5.91616 20.7705 7.31474 20.7705L45.4588 20.7705C46.8574 20.7705 47.9912 19.6368 47.9912 18.2382V14.7264C47.9912 13.3278 46.8574 12.1941 45.4588 12.1941L7.31474 12.1941C5.91616 12.1941 4.78239 13.3278 4.78239 14.7264Z" fill="var(--fill-0, #FEC25F)"/>
<path id="Vector_3" d="M25.0853 1.84411V6.73235C25.0853 7.75083 25.911 8.57646 26.9294 8.57646L46.1559 8.57646C47.1744 8.57646 48 7.75083 48 6.73235V1.84411C48 0.825636 47.1744 0 46.1559 0L26.9294 0C25.911 0 25.0853 0.825636 25.0853 1.84411Z" fill="var(--fill-0, #CD2E27)"/>
<path id="Vector_4" d="M0 34.4294L0 37.6764C0 39.1481 1.19303 40.3411 2.6647 40.3411H45.3352C46.8069 40.3411 48 39.1481 48 37.6764V34.4294C48 32.9577 46.8069 31.7647 45.3352 31.7647L2.6647 31.7647C1.19303 31.7647 0 32.9577 0 34.4294Z" fill="var(--fill-0, #7D4C9E)"/>
</g>
</svg>
