<svg xmlns="http://www.w3.org/2000/svg" fill="none" viewBox="0 0 80 80">
  <path fill="#fff" d="M0 12C0 5.373 5.373 0 12 0h56c6.627 0 12 5.373 12 12v56c0 6.627-5.373 12-12 12H12C5.373 80 0 74.627 0 68V12Z"/>
  <path fill="#276059" d="M35.791 41.459v4.482c0 1.13.917 2.047 2.047 2.047h24.115c1.13 0 2.047-.916 2.047-2.047V41.46c0-1.13-.917-2.047-2.047-2.047H37.838c-1.13 0-2.047.916-2.047 2.047Z"/>
  <path fill="#FEC25F" d="M20.782 34.726v3.512a2.532 2.532 0 0 0 2.533 2.532h38.144a2.532 2.532 0 0 0 2.532-2.532v-3.512a2.532 2.532 0 0 0-2.532-2.532H23.315a2.532 2.532 0 0 0-2.533 2.532Z"/>
  <path fill="#CD2E27" d="M41.085 21.845v4.888c0 1.018.826 1.844 1.845 1.844h19.226A1.844 1.844 0 0 0 64 26.733v-4.888A1.844 1.844 0 0 0 62.156 20H42.93a1.844 1.844 0 0 0-1.845 1.844Z"/>
  <path fill="#7D4C9E" d="M16 54.43v3.247a2.665 2.665 0 0 0 2.665 2.665h42.67A2.665 2.665 0 0 0 64 57.677V54.43a2.665 2.665 0 0 0-2.665-2.665h-42.67A2.665 2.665 0 0 0 16 54.43Z"/>
</svg>
