<svg preserveAspectRatio="xMidYMid meet" width="100%" height="100%" overflow="visible" style="display: block;" viewBox="0 0 60 48.7887" fill="none" xmlns="http://www.w3.org/2000/svg">
<g id="Logo">
<path id="Union" fill-rule="evenodd" clip-rule="evenodd" d="M33.3496 0.407775C34.4299 0.043687 35.5767 -0.0785754 36.7091 0.0489814C38.43 0.248001 40.0413 0.99959 41.3038 2.19222C42.5648 3.41782 43.4554 4.97745 43.8725 6.69032C44.2994 8.28651 44.4586 9.943 44.344 11.5919C44.231 13.385 43.8904 15.1562 43.3306 16.8625C42.8152 18.7424 41.87 20.4757 40.5701 21.9229C42.3431 21.0943 43.8812 19.8316 45.0433 18.2508C45.4391 17.7469 45.9107 17.3079 46.4412 16.9503C46.5396 16.8694 46.6633 16.8258 46.7904 16.8273C46.8742 16.8469 46.9534 16.8836 47.0225 16.935C47.0916 16.9863 47.1493 17.0514 47.1924 17.1261C47.3304 17.3116 47.4475 17.5122 47.5417 17.7236C47.5601 17.7631 47.5769 17.8034 47.5915 17.8444L47.612 17.8993C47.7194 18.8786 47.4576 19.863 46.8783 20.6576C46.4767 21.3069 45.9885 21.8985 45.4277 22.415C44.9386 22.8893 44.4493 23.3283 43.9252 23.7498C42.9975 24.5151 41.9963 25.1858 40.937 25.7525C38.8228 26.8242 33.5813 28.4936 30.0868 27.8086C29.2187 27.6991 28.3674 27.4805 27.5533 27.1584C27.7979 29.8289 27.9724 31.8145 28.1471 34.0457C28.3218 36.2769 28.4964 38.1218 28.4964 39.7908C28.5604 41.055 28.5604 42.3219 28.4964 43.586C28.4389 44.4306 28.3223 45.2702 28.1471 46.0983C28.0351 46.6129 27.8526 47.1093 27.6052 47.5737C27.4087 47.9053 27.1397 48.1879 26.8188 48.3997C26.4638 48.672 26.0243 48.8091 25.5784 48.7863C25.1411 48.7917 24.7092 48.6891 24.3204 48.4875C23.422 47.9789 22.6929 47.2149 22.2241 46.2916C21.6771 45.2215 21.26 44.0887 20.9829 42.9182C20.6828 41.6074 20.4961 40.2728 20.4242 38.9297C20.3194 37.5242 20.2668 36.1711 20.2668 34.871C20.2793 31.713 20.5185 28.5601 20.9829 25.4369C21.1008 24.6075 21.235 23.7805 21.3849 22.9568C21.2837 22.9965 21.1811 23.0332 21.0759 23.063C20.4807 23.2317 19.8506 23.233 19.2549 23.0659C18.6592 22.8989 18.1206 22.5703 17.6982 22.1162C17.5438 24.1928 16.9482 26.212 15.951 28.0371L15.8544 28.2186C15.2717 29.119 14.4812 29.8658 13.5486 30.3941C12.5539 30.9576 11.4311 31.2537 10.2894 31.2537C9.14788 31.2537 8.02561 30.9575 7.03101 30.3941C6.03632 29.8307 5.20261 29.0188 4.61098 28.0371C-0.333841 20.166 0.0154993 9.57136 0.0154993 5.31958C-0.0330055 4.72705 0.0326473 4.13072 0.208076 3.56296C0.285072 3.29572 0.433235 3.05473 0.636431 2.86587C0.839653 2.67701 1.09031 2.54715 1.36134 2.49097C1.69436 2.48703 2.02005 2.58868 2.29274 2.78094C2.56547 2.97323 2.77166 3.24674 2.88145 3.56296C3.10432 4.16936 3.20487 4.81425 3.17801 5.46017C3.18069 10.1472 3.73191 14.818 4.8204 19.3755C5.17089 20.7315 5.59151 22.0683 6.07911 23.3808C6.51593 24.5404 8.97928 29.9167 12.2467 27.1408C13.9939 25.7002 14.1335 23.627 14.4829 21.6066C14.7483 18.8742 14.8655 16.1288 14.8329 13.3836V5.74135C14.8329 4.63448 14.8328 3.72112 15.951 3.72112C17.4012 3.72115 17.4883 4.37094 17.5407 5.47774C17.4576 9.76674 17.8151 14.0531 18.6068 18.2684C18.7991 19.1118 20.0924 21.4831 20.9485 19.7614C22.1717 17.4943 22.7116 14.9182 22.5031 12.3475C22.4923 12.2947 22.485 12.2413 22.4811 12.1879C22.3526 11.2637 22.2356 10.4087 22.1362 9.62437C21.9113 7.84991 21.7893 6.86761 21.7869 6.84848C21.7368 6.6562 21.7308 6.45458 21.7701 6.25977C21.8095 6.06485 21.8931 5.88122 22.0139 5.72377C22.2617 5.38684 22.6212 5.14988 23.0273 5.05598C23.2235 5.00143 23.4302 4.99681 23.6285 5.0428C23.8268 5.0888 24.0105 5.18417 24.163 5.31958C24.4842 5.59628 24.7157 5.96374 24.8272 6.37399C24.8011 6.74233 24.8011 7.11206 24.8272 7.4804C24.8796 7.79664 24.9322 8.1483 24.9846 8.56996C25.037 8.99162 25.1067 9.43117 25.2116 9.90555C26.3732 6.96789 28.1629 4.32241 30.4536 2.15707C31.2808 1.3691 32.2692 0.771906 33.3496 0.407775ZM24.163 24.9624C23.901 26.649 23.7612 28.318 23.534 29.987C23.3069 31.656 23.307 33.2723 23.307 34.8358C23.2526 37.1033 23.4344 39.3706 23.8489 41.6002C24.0454 42.8483 24.4908 44.0438 25.1589 45.1142C25.2823 44.5167 25.3611 43.9109 25.3932 43.3019L25.3339 43.0061V38.8946C25.1824 35.4042 24.792 30.9705 24.163 25.5943C24.1312 25.3849 24.1312 25.1718 24.163 24.9624ZM36.3942 3.21149C34.5246 3.00066 32.7772 3.96693 31.0299 6.11039C30.0441 7.36168 29.2058 8.72392 28.5315 10.1691C27.6951 11.9267 26.9655 13.7338 26.3473 15.5803L26.1203 16.3528L27.0465 23.082C27.0465 23.1679 27.1965 23.1699 27.2032 23.1699L27.8154 23.4862L28.5139 23.8026C29.6516 24.3512 30.9196 24.5676 32.1736 24.4279C33.4276 24.2881 34.6173 23.7975 35.6078 23.0118C36.5239 22.2686 37.3297 21.399 38.0015 20.4292L38.2987 20.0426C39.1135 18.8017 39.7545 17.454 40.2033 16.0372C40.6917 14.6355 41.0031 13.1772 41.1295 11.6973C41.2389 10.3197 41.1385 8.9331 40.8323 7.58584C40.6749 6.46712 40.1548 5.43178 39.3524 4.6408C38.5499 3.84975 37.5098 3.34742 36.3942 3.21149Z" fill="var(--fill-0, #1C2B39)"/>
<g id="Union_2">
<path d="M56.3835 20.6751C57.3314 20.7015 58.2339 21.0906 58.906 21.7632C59.5782 22.4358 59.9692 23.3415 60 24.2945C59.938 25.2369 59.5366 26.1245 58.8709 26.7907C58.2052 27.4568 57.3209 27.8561 56.3835 27.9139C55.9069 27.9285 55.4319 27.8446 54.9886 27.6679C54.5456 27.4912 54.1431 27.2254 53.806 26.8866C53.4689 26.5476 53.2042 26.1424 53.0284 25.6967C52.8527 25.251 52.7693 24.7738 52.7838 24.2945C52.8265 23.3485 53.2192 22.4526 53.8851 21.783C54.5511 21.1133 55.4426 20.718 56.3835 20.6751Z" fill="var(--fill-0, #F16C51)"/>
<path d="M56.3835 6.09271C57.3222 6.14682 58.2088 6.5447 58.8753 7.21156C59.5418 7.87851 59.9417 8.76845 60 9.71213C59.9363 10.6307 59.5288 11.4909 58.8592 12.119C58.1896 12.747 57.3079 13.0964 56.3923 13.0965C55.4765 13.0965 54.5943 12.7471 53.9247 12.119C53.2551 11.4909 52.8475 10.6307 52.7838 9.71213C52.7838 8.75224 53.1632 7.83173 53.8383 7.15298C54.5133 6.47424 55.4289 6.09271 56.3835 6.09271Z" fill="var(--fill-0, #F16C51)"/>
</g>
</g>
</svg>
