<svg xmlns="http://www.w3.org/2000/svg" fill="none" viewBox="0 0 80 80">
  <path fill="#fff" d="M0 12C0 5.373 5.373 0 12 0h56c6.627 0 12 5.373 12 12v56c0 6.627-5.373 12-12 12H12C5.373 80 0 74.627 0 68V12Z"/>
  <path fill="#1C2B39" fill-rule="evenodd" d="M43.35 21.408a7.788 7.788 0 0 1 3.36-.359c1.72.199 3.331.95 4.594 2.143a9.361 9.361 0 0 1 2.569 4.498c.426 1.596.586 3.253.471 4.902a21.182 21.182 0 0 1-1.013 5.27 12.53 12.53 0 0 1-2.76 5.06 11.703 11.703 0 0 0 4.472-3.671 6.148 6.148 0 0 1 1.398-1.3.54.54 0 0 1 .35-.124.63.63 0 0 1 .401.3 3.148 3.148 0 0 1 .4.717l.02.055a3.952 3.952 0 0 1-.734 2.759 8.41 8.41 0 0 1-1.45 1.757c-.49.474-.979.913-1.503 1.335a18.15 18.15 0 0 1-2.988 2.002c-2.114 1.072-7.356 2.742-10.85 2.057-.868-.11-1.72-.328-2.534-.65.245 2.67.42 4.656.594 6.887.175 2.23.35 4.076.35 5.745a37.533 37.533 0 0 1 0 3.795 18.066 18.066 0 0 1-.35 2.512 5.73 5.73 0 0 1-.542 1.476 2.543 2.543 0 0 1-.786.826 1.88 1.88 0 0 1-1.24.386 2.661 2.661 0 0 1-1.259-.299 5.257 5.257 0 0 1-2.096-2.195 15.01 15.01 0 0 1-1.241-3.374c-.3-1.31-.487-2.645-.559-3.988a54.641 54.641 0 0 1-.157-4.059c.012-3.158.252-6.31.716-9.434.118-.83.252-1.656.402-2.48a3.355 3.355 0 0 1-3.687-.84 14.608 14.608 0 0 1-1.747 5.92l-.097.182a6.654 6.654 0 0 1-2.305 2.175 6.612 6.612 0 0 1-6.518 0 6.657 6.657 0 0 1-2.42-2.357c-4.945-7.871-4.596-18.466-4.596-22.717a4.66 4.66 0 0 1 .193-1.757 1.53 1.53 0 0 1 1.153-1.072 1.598 1.598 0 0 1 1.52 1.072c.223.606.324 1.251.297 1.897a60.054 60.054 0 0 0 1.642 13.916c.35 1.355.771 2.692 1.26 4.005.436 1.16 2.9 6.536 6.167 3.76 1.747-1.44 1.887-3.514 2.236-5.534.265-2.733.383-5.478.35-8.223V26.74c0-1.107 0-2.02 1.118-2.02 1.45 0 1.537.65 1.59 1.757a62.715 62.715 0 0 0 1.066 12.79c.192.844 1.485 3.215 2.341 1.493a13.344 13.344 0 0 0 1.555-7.414 1.252 1.252 0 0 1-.022-.16c-.128-.923-.245-1.778-.345-2.563-.225-1.774-.347-2.756-.35-2.775a1.31 1.31 0 0 1 .228-1.125 1.747 1.747 0 0 1 1.013-.668 1.217 1.217 0 0 1 1.136.264c.321.276.553.644.664 1.054a7.827 7.827 0 0 0 0 1.106c.053.317.105.668.158 1.09.052.422.122.861.227 1.335a21.582 21.582 0 0 1 5.242-7.748 7.82 7.82 0 0 1 2.896-1.75Zm-9.187 24.554c-.262 1.687-.402 3.356-.629 5.025-.227 1.669-.227 3.285-.227 4.849a32.719 32.719 0 0 0 .542 6.764 9.397 9.397 0 0 0 1.31 3.514 12.14 12.14 0 0 0 .234-1.812l-.06-.296v-4.111c-.15-3.49-.541-7.925-1.17-13.3a2.105 2.105 0 0 1 0-.633Zm12.231-21.75c-1.87-.211-3.617.755-5.364 2.898a20.705 20.705 0 0 0-2.498 4.06 48.219 48.219 0 0 0-2.185 5.41l-.227.773.927 6.729c0 .086.15.088.156.088l.612.316.699.317a6.713 6.713 0 0 0 7.094-.791 12.467 12.467 0 0 0 2.394-2.583l.297-.386a16.223 16.223 0 0 0 1.904-4.006c.489-1.401.8-2.86.926-4.34.11-1.377.01-2.764-.297-4.111a5.14 5.14 0 0 0-1.48-2.945 5.092 5.092 0 0 0-2.958-1.43Z" clip-rule="evenodd"/>
  <path fill="#F16C51" d="M66.383 41.675a3.72 3.72 0 0 1 2.523 1.088A3.752 3.752 0 0 1 70 45.295a3.893 3.893 0 0 1-1.13 2.496 3.852 3.852 0 0 1-2.487 1.123 3.48 3.48 0 0 1-2.577-1.027 3.519 3.519 0 0 1-1.022-2.592 3.805 3.805 0 0 1 1.101-2.512 3.766 3.766 0 0 1 2.498-1.108Zm0-14.582a3.835 3.835 0 0 1 2.492 1.119 3.876 3.876 0 0 1 1.125 2.5 3.645 3.645 0 0 1-1.14 2.407 3.606 3.606 0 0 1-4.935 0 3.645 3.645 0 0 1-1.141-2.407c0-.96.38-1.88 1.054-2.559a3.59 3.59 0 0 1 2.545-1.06Z"/>
</svg>
