<svg xmlns="http://www.w3.org/2000/svg" fill="none" viewBox="0 0 80 80">
  <path fill="#F5F3F0" d="M0 12C0 5.373 5.373 0 12 0h56c6.627 0 12 5.373 12 12v56c0 6.627-5.373 12-12 12H12C5.373 80 0 74.627 0 68V12Z"/>
  <path fill="#F96B6B" d="M51.955 19C61.915 19 70 27.08 70 37.031c0 9.952-8.086 18.032-18.045 18.032h-23.91c-.059 0-.117-.002-.176-.003L10 64.733v-25.86l.103.09A18.176 18.176 0 0 1 10 37.03c0-9.95 8.086-18.029 18.045-18.03h23.91Z"/>
  <path fill="#fff" d="M27.35 32.957a4.409 4.409 0 0 1 4.408 4.405 4.409 4.409 0 0 1-8.816 0 4.41 4.41 0 0 1 4.408-4.405Zm23.697 0a4.409 4.409 0 0 1 4.408 4.405 4.409 4.409 0 0 1-8.816 0 4.41 4.41 0 0 1 4.408-4.405Z"/>
</svg>
