<svg preserveAspectRatio="xMidYMid meet" width="100%" height="100%" overflow="visible" style="display: block;" viewBox="0 0 59.3527 53.2914" fill="none" xmlns="http://www.w3.org/2000/svg">
<g id="Logo">
<g id="Union">
<path d="M45.9268 4.58303C47.8789 1.13308 52.258 -0.0817865 55.7081 1.87014C59.1583 3.82215 60.373 8.20218 58.421 11.6524L53.8956 19.6504L41.4014 12.5821L45.9268 4.58303Z" fill="var(--fill-0, #3F6998)"/>
<path d="M3.6446 0.93166C7.09475 -1.02021 11.4739 0.194435 13.4258 3.64455L17.9512 11.6426L5.4571 18.7119L0.931707 10.7129C-1.02025 7.26274 0.194445 2.88366 3.6446 0.93166Z" fill="var(--fill-0, #3F6998)"/>
</g>
<g id="Union_2">
<path d="M53.8957 19.6506L52.9601 28.5247L33.9845 17.7883L41.4015 12.5813L53.8957 19.6506Z" fill="var(--fill-0, #89A5C0)"/>
<path d="M25.3674 16.8499L6.39275 27.5852L5.4572 18.7122L17.9513 11.6428L25.3674 16.8499Z" fill="var(--fill-0, #89A5C0)"/>
</g>
<path id="Vector" d="M43.8798 53.2914L50.7342 25.6466L38.1816 18.5447L5.18985 53.2903L43.8798 53.2914Z" fill="var(--fill-0, #FFB231)" fill-opacity="0.6"/>
<path id="Vector_2" d="M15.7886 53.2615L8.61806 24.7075L21.4904 17.3734L54.7625 53.2615L15.7886 53.2615Z" fill="var(--fill-0, #FFB231)" fill-opacity="0.6"/>
</g>
</svg>
