<svg xmlns="http://www.w3.org/2000/svg" fill="none" viewBox="0 0 80 80">
  <path fill="#fff" d="M0 12C0 5.373 5.373 0 12 0h56c6.627 0 12 5.373 12 12v56c0 6.627-5.373 12-12 12H12C5.373 80 0 74.627 0 68V12Z"/>
  <path fill="#3F6998" d="M56.186 17.927a7.178 7.178 0 1 1 12.494 7.07l-4.526 7.997-12.494-7.068 4.526-8Zm-42.283-3.652a7.177 7.177 0 0 1 9.782 2.713l4.525 7.998-12.494 7.07-4.525-8a7.177 7.177 0 0 1 2.712-9.78Z"/>
  <path fill="#89A5C0" d="m64.154 32.994-.935 8.874-18.976-10.736 7.417-5.207 12.494 7.07Zm-28.528-2.801L16.651 40.93l-.935-8.873 12.494-7.07 7.416 5.207Z"/>
  <path fill="#FFB231" fill-opacity=".6" d="m54.139 66.635 6.854-27.644-12.553-7.102-32.99 34.745 38.69.001Z"/>
  <path fill="#FFB231" fill-opacity=".6" d="m26.047 66.605-7.17-28.554 12.872-7.334 33.272 35.888H26.047Z"/>
</svg>
