<svg xmlns="http://www.w3.org/2000/svg" fill="none" viewBox="0 0 80 80">
  <path fill="#EE7C22" d="M0 12C0 5.373 5.373 0 12 0h56c6.627 0 12 5.373 12 12v56c0 6.627-5.373 12-12 12H12C5.373 80 0 74.627 0 68V12Z"/>
  <path fill="#fff" d="M18.113 16.941h13.096v31.713c0 4.37.68 7.5 2.04 9.39 1.384 1.865 3.629 2.799 6.736 2.799 3.13 0 5.374-.934 6.735-2.8 1.383-1.89 2.075-5.02 2.075-9.39V16.942H61.89v31.713c0 7.488-1.803 13.063-5.409 16.724-3.605 3.661-9.105 5.492-16.497 5.492-7.37 0-12.858-1.83-16.464-5.492-3.605-3.661-5.408-9.236-5.408-16.724V16.94Z"/>
</svg>
