<svg preserveAspectRatio="xMidYMid meet" width="100%" height="100%" overflow="visible" style="display: block;" viewBox="0 0 80.0002 70.2395" fill="none" xmlns="http://www.w3.org/2000/svg">
<g id="Illustration">
<path id="Intersect" d="M80 67.7795L77.2256 70.2395H0V54.3928L1.93848 52.6751C2.42505 52.2469 3.05185 52.0113 3.7002 52.0129H80V67.7795Z" fill="var(--fill-0, #F2EAFE)"/>
<path id="Intersect_2" d="M50.0744 20.6152C56.0125 20.4935 59.0199 20.3142 62.7863 21.5068C68.7741 23.4035 72.2588 27.1866 75.9904 31.3545C76.4658 31.8853 78.143 33.7582 80.0002 36.1816V52.4062C78.5404 52.5896 76.7688 52.7588 74.6447 52.955C72.1446 53.1868 70.081 53.2583 68.719 53.2822C52.3442 54.2339 30.5408 59.2954 20.2238 42.5078C17.9064 38.7413 24.097 27.3142 34.6184 22.8271C38.8273 21.032 42.5734 20.7693 50.0744 20.6152Z" fill="var(--fill-0, #333333)"/>
<path id="Union" d="M39.9235 36.0598C40.4801 36.0598 40.9679 36.419 41.1101 36.9348L45.5388 52.8528H54.3776C55.5783 52.8529 56.2958 54.0968 55.6315 55.0266L49.5388 63.5618C49.2603 63.953 48.7898 64.1877 48.2849 64.1877H10.5075C9.9506 64.1876 9.46384 63.8285 9.321 63.3127L2.1501 37.5413C1.94184 36.7937 2.52975 36.06 3.33662 36.0598H39.9235Z" fill="var(--fill-0, #D9BFFB)"/>
<path id="Vector" d="M63.0996 48.239C62.4745 48.2504 61.8505 48.2958 61.2304 48.375C59.0549 48.6618 57.9537 48.7063 57.3891 48.8339C55.7665 49.2023 54.2828 50.1505 53.4484 50.9649C53.1622 51.0284 52.8754 51.1034 52.5915 51.1911C52.2033 51.3108 51.3475 51.7327 49.6358 52.5782C47.8755 53.4476 47.0906 53.9124 47.0629 54.5673C47.0608 54.6323 47.0553 54.9325 47.2431 55.155C48.2952 56.3968 54.0893 53.6949 54.149 53.8292C54.1721 53.8805 52.1936 54.6445 50.1131 56.045C48.4842 57.142 47.8864 57.8918 47.9763 58.5622C47.9872 58.6457 48.0402 58.9602 48.3061 59.1806C48.7283 59.5315 49.5098 59.4933 50.2845 59.0777C50.2131 59.1529 48.9632 60.482 49.4052 61.1398C49.5535 61.3598 49.835 61.4224 49.9547 61.4492C51.4693 61.7863 54.183 59.6436 54.6422 59.2767C53.3322 60.5047 52.6671 61.7628 53.0675 62.4165C53.1444 62.5433 53.3423 62.7775 53.6574 62.8787C54.2292 63.0609 54.8334 62.6961 55.1338 62.5093C57.3063 61.1566 58.3483 59.8993 60.0519 59.2549C60.8334 58.9589 61.3182 59.0013 61.9358 58.854C63.834 58.4014 66.4246 57.1915 69.2525 53.7734C69.613 51.7512 68.6896 49.8167 67.017 48.9619C66.9082 48.9061 66.7783 48.8599 66.6674 48.8175C65.1196 48.2185 63.7517 48.2235 63.0996 48.239Z" fill="var(--fill-0, #B9876F)"/>
<path id="Union_2" d="M61.9273 34.991C62.0537 34.9358 62.202 34.9936 62.2574 35.1199C63.0858 37.0129 64.0359 38.8504 65.1031 40.6199C65.7769 41.7356 66.4978 42.8227 67.2633 43.8777C68.1156 43.4874 69.0826 43.1738 70.1578 43.0311C71.0091 42.9186 71.8719 42.9186 72.7232 43.0311C72.8601 43.0491 72.9561 43.1755 72.9381 43.3123C72.9198 43.449 72.7946 43.5452 72.6578 43.5272C71.951 43.4338 71.2358 43.422 70.5269 43.492L70.2232 43.5272C67.2384 43.9235 65.1051 45.6903 64.0426 46.7342C63.944 46.8305 63.7857 46.8286 63.6891 46.7303C63.5929 46.6318 63.5948 46.4733 63.693 46.3768C64.3432 45.738 65.3977 44.8234 66.8072 44.0984C66.053 43.0547 65.341 41.9809 64.6754 40.8787C63.5969 39.0905 62.6355 37.2341 61.7984 35.3211C61.7431 35.1947 61.801 35.0464 61.9273 34.991Z" fill="var(--fill-0, black)"/>
<path id="Union_3" fill-rule="evenodd" clip-rule="evenodd" d="M75.2119 60.3743C75.2168 60.3742 75.2217 60.3743 75.2266 60.3743C76.2454 60.3743 77.0752 61.1837 77.0752 62.177V64.6155C77.0752 65.6087 76.2454 66.4172 75.2266 66.4172C75.2217 66.4172 75.2168 66.4163 75.2119 66.4163V67.2473H75.21C75.2111 67.2643 75.2116 67.2818 75.2119 67.2991C75.2119 68.1311 73.5187 68.8059 71.4307 68.8059C69.3426 68.8059 67.6494 68.1311 67.6494 67.2991C67.6497 67.2821 67.6503 67.2646 67.6514 67.2473H67.6494V58.7297H75.2119V60.3743ZM75.2119 61.9661V64.8254C75.2168 64.8258 75.2216 64.8274 75.2266 64.8274C75.2835 64.828 75.3391 64.8056 75.3799 64.7659C75.4204 64.7262 75.4434 64.6722 75.4443 64.6155V62.177C75.4435 62.1201 75.4206 62.0654 75.3799 62.0256C75.3391 61.9859 75.2835 61.9645 75.2266 61.9651C75.2216 61.965 75.2168 61.9658 75.2119 61.9661Z" fill="var(--fill-0, #61A5B4)"/>
<path id="Vector_2" d="M71.4306 59.9895C73.5191 59.9895 75.2118 59.2376 75.2118 58.3102C75.2118 57.3829 73.5191 56.631 71.4306 56.631C69.342 56.631 67.6493 57.3829 67.6493 58.3102C67.6493 59.2376 69.342 59.9895 71.4306 59.9895Z" fill="var(--fill-0, #333333)"/>
<path id="Vector_3" d="M25.49 50.7537H23.9381C23.1217 50.7537 22.5268 51.3846 22.7369 52.0265L22.8995 52.5211C23.044 52.9644 23.5372 53.2725 24.1002 53.2725H25.6522C26.4686 53.2725 27.0635 52.6416 26.8534 51.9997L26.6908 51.5051C26.545 51.0626 26.0518 50.7537 25.49 50.7537Z" fill="var(--fill-0, #333333)"/>
<path id="Union_4" d="M49.3601 3.34271C52.3691 2.80638 56.115 6.1525 57.1931 9.75482C57.2566 9.96717 57.3096 10.181 57.3552 10.3954C57.6249 10.1877 57.9829 10.0071 58.4157 10.0009C59.4672 9.98706 60.1451 11.0185 60.3464 11.7372C60.6531 12.8346 60.1538 14.2898 58.862 14.7773C58.3146 14.9837 57.7142 14.9799 57.1638 14.7978C56.1411 18.4329 53.1737 21.568 50.0974 22.2646C49.5331 22.3918 48.1134 22.6303 46.6169 22.0527C43.721 20.9343 42.207 17.4 42.4851 14.9492C42.5288 14.5663 42.5901 14.43 42.7019 13.5703C42.9859 11.3873 42.7799 10.7694 43.029 9.75385C43.2878 8.70188 43.8299 8.05946 44.7575 6.96088C46.0801 5.39498 47.5409 3.66807 49.3601 3.34271Z" fill="var(--fill-0, #B9876F)"/>
<g id="Union_5">
<path d="M50.4351 16.4219C50.5264 16.3185 50.6851 16.3083 50.7886 16.3994C50.8917 16.4906 50.9018 16.6485 50.8111 16.752C50.6227 16.9658 50.4064 17.1536 50.1695 17.3106L49.9253 17.457C49.1549 17.874 48.4138 17.8711 48.0816 17.8487C47.944 17.8392 47.84 17.7196 47.8492 17.582C47.8586 17.4444 47.9781 17.3403 48.1158 17.3496C48.4039 17.3691 49.0353 17.3702 49.6871 17.0176C49.9694 16.8645 50.2229 16.6628 50.4351 16.4219Z" fill="var(--fill-0, black)"/>
<path d="M45.5054 11.2432C46.2278 10.7357 47.1706 10.6585 47.8599 11.0908L48.0259 11.2129C48.3838 11.5186 48.5486 11.9709 48.5982 12.4121C48.6549 12.9179 48.5669 13.4536 48.4048 13.8565C48.2422 14.2598 48.0092 14.5133 47.8492 14.7031C47.6847 14.8983 47.6218 15.0009 47.6285 15.1485C47.6368 15.3171 47.7391 15.4913 47.9283 15.667C48.1149 15.8403 48.3583 15.9883 48.5826 16.1055C48.7046 16.1695 48.7518 16.3212 48.688 16.4434C48.624 16.5655 48.4724 16.6127 48.3501 16.5488C48.1103 16.4235 47.8227 16.2508 47.5884 16.0332C47.3856 15.8449 47.2002 15.6009 47.1451 15.3037L47.1294 15.1729C47.1126 14.8136 47.302 14.5771 47.4673 14.3809C47.6374 14.179 47.8134 13.9862 47.941 13.6699L47.9878 13.541C48.0904 13.2279 48.1423 12.8352 48.1011 12.4678C48.0597 12.0991 47.9294 11.7885 47.6988 11.5918L47.5943 11.5147C47.1033 11.2067 46.3791 11.2402 45.7925 11.6524C45.6796 11.7317 45.5243 11.7046 45.4449 11.5918C45.3655 11.4789 45.3925 11.3226 45.5054 11.2432Z" fill="var(--fill-0, black)"/>
<path d="M46.6724 12.5264C46.8016 12.4736 46.9463 12.4732 47.0757 12.5254C47.2053 12.5778 47.3096 12.6788 47.3658 12.8067C47.4779 13.0702 47.3495 13.3732 47.0787 13.4824C46.9493 13.5354 46.8039 13.5358 46.6744 13.4834C46.545 13.431 46.4413 13.33 46.3853 13.2022C46.2732 12.9386 46.4019 12.6355 46.6724 12.5264Z" fill="var(--fill-0, black)"/>
<path d="M50.4419 12.4942C50.5098 12.504 50.5754 12.5264 50.6343 12.5615C50.6933 12.5968 50.7449 12.644 50.7857 12.6992C50.8264 12.7544 50.8562 12.8172 50.8726 12.8838C50.8889 12.9502 50.8918 13.0193 50.8814 13.0869C50.8343 13.3695 50.5615 13.5608 50.272 13.5147C49.983 13.4689 49.7865 13.2032 49.8335 12.9219C49.8806 12.6394 50.1529 12.448 50.4419 12.4942Z" fill="var(--fill-0, black)"/>
<path d="M51.1363 10.8233H51.1382C52.092 10.9078 52.649 11.5237 52.7603 11.6524C52.8501 11.7567 52.838 11.9147 52.7339 12.0049C52.6295 12.0949 52.4716 12.0828 52.3814 11.9785C52.2942 11.8778 51.8485 11.3882 51.0943 11.3213C50.6521 11.285 50.2103 11.3988 49.8404 11.6436C49.7253 11.7198 49.57 11.6882 49.4937 11.5733C49.4175 11.4581 49.4489 11.3028 49.564 11.2266C50.0278 10.9195 50.5818 10.7774 51.1363 10.8233Z" fill="var(--fill-0, black)"/>
</g>
<path id="Union_6" d="M47.4295 0.593524C49.9044 -0.501707 52.8605 -0.0342044 54.8524 1.60915C56.3522 2.84297 56.8908 4.40101 57.0799 5.08278C58.4595 5.3371 58.9751 5.96278 59.158 6.24001C60.515 8.29232 57.7525 12.4556 56.0408 12.3181C55.0338 12.2367 54.2917 10.6517 54.1102 9.56813C53.8435 7.97542 54.6694 6.78102 54.8524 6.52907C54.6738 6.63523 54.4939 6.73549 54.3172 6.83766C53.797 7.32017 53.1585 7.64224 53.0721 7.68434C50.1113 9.58604 47.4933 10.1129 45.9051 10.2761C45.4304 10.3448 44.9973 10.3675 44.6111 10.3445C43.2585 10.3325 42.7473 10.0131 42.532 9.85524C40.8347 8.61472 40.6427 5.25787 42.0858 3.48708C42.8625 2.53451 44.0315 2.14118 45.3192 2.06618C45.8491 1.5222 46.5407 0.986788 47.4295 0.593524Z" fill="var(--fill-0, #161E26)"/>
</g>
</svg>
