<svg xmlns="http://www.w3.org/2000/svg" fill="none" viewBox="0 0 80 80">
  <g clip-path="url(#a)">
    <path fill="#FFE9B6" d="M0 12C0 5.373 5.373 0 12 0h56c6.627 0 12 5.373 12 12v56c0 6.627-5.373 12-12 12H12C5.373 80 0 74.627 0 68V12Z"/>
    <path fill="#F2EAFE" d="M80 77.54 77.226 80H0V64.153l1.938-1.717a2.657 2.657 0 0 1 1.762-.663H80V77.54Z"/>
    <path fill="#333" d="M50.074 30.376c5.939-.122 8.946-.3 12.712.892 5.988 1.896 9.473 5.68 13.204 9.847A82.298 82.298 0 0 1 80 45.943v16.224c-1.46.183-3.231.353-5.355.549a79.49 79.49 0 0 1-5.926.327c-16.375.952-38.178 6.013-48.495-10.774-2.318-3.767 3.873-15.194 14.394-19.681 4.21-1.795 7.955-2.058 15.456-2.212Z"/>
    <path fill="#D9BFFB" d="M39.924 45.82c.556 0 1.044.36 1.186.875l4.429 15.918h8.839c1.2 0 1.918 1.244 1.254 2.174l-6.093 8.535a1.535 1.535 0 0 1-1.254.626H10.508c-.557 0-1.044-.359-1.187-.875l-7.17-25.771c-.21-.748.379-1.481 1.186-1.482h36.587Z"/>
    <path fill="#B9876F" d="M63.1 58c-.625.01-1.25.056-1.87.135-2.175.287-3.276.332-3.84.46-1.623.368-3.107 1.316-3.941 2.13-.287.064-.573.139-.857.227-.389.12-1.244.541-2.956 1.387-1.76.869-2.545 1.334-2.573 1.989-.002.065-.008.365.18.587 1.052 1.242 6.846-1.46 6.906-1.325.023.05-1.955.815-4.036 2.215-1.629 1.097-2.227 1.847-2.137 2.518a.986.986 0 0 0 .33.618c.422.35 1.204.313 1.979-.103-.072.075-1.322 1.404-.88 2.062.149.22.43.283.55.31 1.514.337 4.228-1.806 4.687-2.173-1.31 1.228-1.975 2.486-1.574 3.14.077.127.275.36.59.462.571.182 1.175-.183 1.476-.37 2.172-1.352 3.214-2.61 4.918-3.254.782-.296 1.266-.253 1.884-.4 1.898-.453 4.489-1.663 7.317-5.081.36-2.023-.563-3.957-2.236-4.812-.109-.056-.239-.102-.35-.144-1.547-.6-2.915-.594-3.567-.579Z"/>
    <path fill="#000" d="M61.927 44.751a.251.251 0 0 1 .33.13 47.59 47.59 0 0 0 2.846 5.5 46.336 46.336 0 0 0 2.16 3.257c.852-.39 1.82-.704 2.895-.847a9.8 9.8 0 0 1 2.565 0 .25.25 0 0 1-.065.497 9.301 9.301 0 0 0-2.131-.036l-.304.035c-2.985.397-5.118 2.164-6.18 3.208a.25.25 0 0 1-.354-.004.251.251 0 0 1 .004-.354c.65-.639 1.705-1.553 3.114-2.278a46.835 46.835 0 0 1-2.132-3.22 48.098 48.098 0 0 1-2.877-5.558.251.251 0 0 1 .13-.33Z"/>
    <path fill="#61A5B4" fill-rule="evenodd" d="M75.212 70.135h.015c1.018 0 1.848.81 1.848 1.802v2.439c0 .993-.83 1.802-1.848 1.802l-.015-.001v.83h-.002l.002.053c0 .832-1.693 1.506-3.781 1.506s-3.782-.674-3.782-1.506l.002-.052h-.002V68.49h7.563v1.645Zm0 1.592v2.859l.015.002a.215.215 0 0 0 .218-.212v-2.438a.216.216 0 0 0-.065-.152.217.217 0 0 0-.153-.06h-.015Z" clip-rule="evenodd"/>
    <path fill="#333" d="M71.43 69.75c2.09 0 3.782-.752 3.782-1.68 0-.926-1.693-1.678-3.781-1.678-2.089 0-3.782.752-3.782 1.679s1.693 1.68 3.782 1.68Zm-45.94-9.235h-1.552c-.816 0-1.411.63-1.201 1.273l.162.494c.145.443.638.752 1.201.752h1.552c.816 0 1.411-.631 1.201-1.273l-.162-.495c-.146-.442-.64-.751-1.201-.751Z"/>
    <path fill="#B9876F" d="M49.36 13.104c3.01-.537 6.755 2.81 7.833 6.412.064.212.117.426.162.64.27-.207.628-.388 1.06-.394 1.052-.014 1.73 1.017 1.931 1.736.307 1.098-.192 2.553-1.484 3.04a2.548 2.548 0 0 1-1.698.02c-1.023 3.636-3.99 6.771-7.067 7.468-.564.127-1.983.365-3.48-.212-2.896-1.119-4.41-4.653-4.132-7.104.044-.383.105-.519.217-1.379.284-2.183.078-2.8.327-3.816.259-1.052.801-1.695 1.729-2.793 1.322-1.566 2.783-3.293 4.602-3.618Z"/>
    <path fill="#000" d="M50.435 26.183a.25.25 0 0 1 .376.33 3.244 3.244 0 0 1-.641.559l-.245.146a3.414 3.414 0 0 1-1.843.392.25.25 0 0 1 .034-.5c.288.02.92.021 1.571-.331.282-.154.536-.355.748-.596Zm-4.93-5.179c.723-.507 1.666-.585 2.355-.152l.166.122c.358.306.523.758.572 1.2a3.11 3.11 0 0 1-.193 1.443c-.163.404-.396.657-.556.847-.164.195-.227.298-.22.445.008.17.11.343.3.519.186.173.43.321.654.438a.25.25 0 0 1-.232.443 3.556 3.556 0 0 1-.762-.515c-.203-.188-.389-.432-.444-.73l-.016-.13c-.016-.36.173-.596.338-.792.17-.202.346-.395.474-.711l.047-.129a2.65 2.65 0 0 0 .113-1.073c-.041-.369-.172-.68-.402-.876l-.105-.077c-.49-.308-1.215-.275-1.801.137a.25.25 0 1 1-.288-.409Z"/>
    <path fill="#000" d="M46.672 22.287a.536.536 0 0 1 .694.28.513.513 0 0 1-.287.676.537.537 0 0 1-.694-.28.513.513 0 0 1 .288-.676Zm3.77-.032a.523.523 0 0 1 .344.205.522.522 0 0 1 .096.388.53.53 0 0 1-.61.428.519.519 0 0 1-.438-.593.528.528 0 0 1 .608-.428Zm.694-1.671h.002c.954.085 1.511.7 1.622.83a.25.25 0 0 1-.379.326 1.974 1.974 0 0 0-1.287-.658 1.979 1.979 0 0 0-1.254.323.25.25 0 0 1-.276-.417 2.479 2.479 0 0 1 1.572-.404Z"/>
    <path fill="#161E26" d="M47.43 10.354c2.474-1.095 5.43-.627 7.422 1.016 1.5 1.234 2.039 2.792 2.228 3.474 1.38.254 1.895.88 2.078 1.157 1.357 2.052-1.406 6.215-3.117 6.078-1.007-.082-1.75-1.667-1.93-2.75-.267-1.593.559-2.787.741-3.04-.178.107-.358.207-.535.31a5.736 5.736 0 0 1-1.245.846c-2.96 1.902-5.579 2.429-7.167 2.592a6.437 6.437 0 0 1-1.294.068c-1.352-.012-1.864-.331-2.079-.489-1.697-1.24-1.89-4.597-.446-6.368.777-.953 1.946-1.346 3.233-1.421a6.747 6.747 0 0 1 2.11-1.473Z"/>
    <path fill="#F07C14" d="M9.92 8h12.16C23.136 8 24 8.864 24 9.92v12.16c0 1.056-.864 1.92-1.92 1.92H9.92A1.926 1.926 0 0 1 8 22.08V9.92C8 8.864 8.864 8 9.92 8Z"/>
    <path fill="#fff" d="M13.536 10.624c-.16-.064-.32-.128-.48-.128-.288 0-.512.096-.672.256a.788.788 0 0 0-.288.608v9.248c0 .16.032.32.128.448s.192.224.352.32c.16.064.32.128.48.128.256 0 .48-.096.672-.256a.788.788 0 0 0 .288-.608v-9.248c0-.16-.032-.32-.128-.448s-.192-.256-.352-.32ZM19.68 20l-2.464-4.16 2.24-3.808c.128-.224.192-.48.16-.704 0-.256-.096-.448-.288-.576-.16-.16-.384-.224-.672-.224-.192 0-.352.064-.512.128-.128.096-.256.256-.384.448l-2.752 4.832 2.944 4.96c.128.192.224.352.384.448.16.096.288.16.48.16.256 0 .48-.064.64-.224a.993.993 0 0 0 .288-.576c.032-.224.096-.48-.064-.704Z"/>
  </g>
  <defs>
    <clipPath id="a">
      <path fill="#fff" d="M0 12C0 5.373 5.373 0 12 0h56c6.627 0 12 5.373 12 12v56c0 6.627-5.373 12-12 12H12C5.373 80 0 74.627 0 68V12Z"/>
    </clipPath>
  </defs>
</svg>
