<svg preserveAspectRatio="xMidYMid meet" width="100%" height="100%" overflow="visible" style="display: block;" viewBox="0 0 57.5006 54.1771" fill="none" xmlns="http://www.w3.org/2000/svg">
<g id="Illustrasjon">
<path id="Intersect" d="M39.8391 22.2275C38.6234 22.8834 37.8721 24.2759 38.003 25.5058C38.0262 25.7677 38.0933 26.0243 38.2012 26.264C39.2401 28.546 41.9755 29.2202 44.2339 28.5563C46.7466 27.8233 48.5929 25.5126 48.4828 22.8546C50.0565 23.0854 51.6145 23.3778 53.157 23.733C54.6618 24.0791 56.1426 24.503 57.5005 25.1811V54.1771H54.7557V38.016C54.7554 38.0188 54.0499 45.9338 52.2944 54.1771H23.3344C23.8966 50.6955 24.3602 47.5733 24.4464 46.269C23.0592 47.336 21.3716 47.8283 19.5667 47.1427C17.1039 46.2036 16.2397 43.4888 15.938 41.0956C15.546 38.1152 15.5219 35.0982 15.8669 32.112C16.2145 32.8848 17.6352 35.2348 22.0405 34.6168C22.1587 34.7051 22.3004 34.7556 22.4478 34.7622L35.5126 34.8121C35.9897 34.8121 36.3766 34.4252 36.3766 33.9481V23.8392C36.3776 23.3663 35.9961 22.9818 35.5233 22.9789L31.3787 22.9433C32.8848 22.6284 34.4118 22.4246 35.9476 22.3333H36.0358C37.0473 22.2666 38.8187 22.2379 39.8391 22.2275Z" fill="var(--fill-0, #FAD7B7)"/>
<g id="Subtract">
<path d="M35.5915 22.9777C36.0642 22.9821 36.4449 23.3668 36.445 23.8391V33.9494C36.445 34.1783 36.3533 34.3981 36.1911 34.5598C36.0285 34.7214 35.809 34.8116 35.5798 34.8108L22.4509 34.7629C22.0557 34.7468 21.7437 34.4212 21.7438 34.0256V33.2541C22.6694 33.6854 24.4121 33.8211 24.4421 33.8234C25.0705 33.8064 26.0638 33.7303 26.6081 33.4182C27.1065 33.1326 27.7354 32.7215 27.821 32.0998C27.8893 31.5997 27.5404 31.1375 27.0407 31.0666C26.9326 31.0451 26.8216 31.0449 26.7145 31.0666C27.5477 30.8221 28.3571 30.3413 28.5192 29.5412C28.5989 29.1468 28.3642 28.443 27.612 28.302C27.2086 28.2261 26.634 28.3387 26.1013 28.4885C26.9464 28.1806 27.7776 27.701 28.2038 26.927C28.5334 26.3316 28.2708 25.382 27.5837 25.1721C26.7903 24.9325 26.0563 25.7215 25.3376 25.9211C24.8737 26.0473 24.3996 26.1346 23.9216 26.1828C23.7909 26.1974 23.6677 26.2076 23.5407 26.218C22.898 26.2698 22.2514 26.2652 21.6091 26.2092L21.5046 26.1076C21.3955 25.5872 21.4489 24.2267 21.4919 23.4377C21.5105 23.1074 21.788 22.8511 22.1188 22.8596L35.5915 22.9777Z" fill="var(--fill-0, #6C6965)"/>
<path d="M24.6423 29.175L24.3698 28.9094C24.6794 28.8714 24.9874 28.8146 25.2917 28.7375C25.3264 28.7286 25.3611 28.7187 25.3962 28.7092L24.6423 29.175Z" fill="var(--fill-0, #6C6965)"/>
</g>
<path id="Vector" d="M36.6837 8.07846C36.6123 9.31217 37.3344 10.4541 38.4792 10.919C38.5974 10.7024 38.7667 10.5175 38.9724 10.3813C39.842 9.81861 39.6869 11.3214 42.0475 10.9256C45.3197 10.3733 46.1538 11.5129 46.1538 11.5129C46.2262 11.6127 46.0229 12.2633 45.994 12.3825C45.8626 13.0814 45.7316 13.7765 45.6124 14.4806C45.5353 14.9076 45.4573 15.3313 45.3788 15.7531C45.4384 15.6954 45.5013 15.6415 45.5675 15.5914C46.1051 14.7525 46.8934 13.8106 47.7526 14.579C47.9247 14.7393 48.0571 14.9379 48.138 15.1587C48.5314 16.2279 47.7786 16.9149 46.8986 17.3268C46.6664 17.4673 46.4201 17.5817 46.1628 17.6692C46.2063 17.9392 46.386 19.0159 46.386 19.0183C46.4045 19.1284 48.5891 17.7817 48.7716 17.6176C49.1008 17.1821 49.3547 16.6946 49.523 16.1754C50.2021 14.0323 50.0867 11.2623 48.7191 9.4999C48.3792 9.06344 48.6061 8.8114 48.7045 8.38629C48.7144 8.33995 48.6946 8.29172 48.6544 8.26571C48.6146 8.23923 48.5626 8.23971 48.5239 8.26713C47.7867 8.73007 46.4527 8.25673 46.4527 8.25673C42.125 5.65737 39.9073 7.26513 38.8466 7.34646C38.4163 7.37625 37.9888 7.25472 37.6384 7.00268C37.5131 7.25094 37.2606 7.40935 36.983 7.41455L36.941 7.64011C36.9088 7.81176 36.818 7.96686 36.6837 8.07846Z" fill="var(--fill-0, #F07C14)"/>
<g id="Intersect_2">
<path d="M39.4259 17.2731C39.6889 17.8069 40.3951 18.0498 41.0435 17.709L41.3076 18.211C40.4089 18.6834 39.3368 18.3759 38.917 17.5243L39.4259 17.2731Z" fill="var(--fill-0, #333333)"/>
<path d="M41.787 14.9984C42.0121 14.992 42.2008 15.2074 42.2086 15.4795C42.2163 15.7517 42.0403 15.9778 41.8151 15.9843C41.59 15.9906 41.4012 15.7748 41.3935 15.5026C41.3859 15.2305 41.5619 15.0049 41.787 14.9984Z" fill="var(--fill-0, #333333)"/>
<path d="M38.705 14.1704C38.9301 14.164 39.1189 14.3794 39.1266 14.6516C39.1343 14.9238 38.9579 15.1499 38.7327 15.1563C38.5076 15.1625 38.3188 14.9468 38.3111 14.6746C38.3035 14.4025 38.4799 14.1768 38.705 14.1704Z" fill="var(--fill-0, #333333)"/>
<path d="M42.1084 13.3267C42.7245 13.4452 43.4754 13.7794 43.8895 14.6428L43.3778 14.888C43.068 14.242 42.5111 13.9821 42.0012 13.8841C41.5264 13.7928 41.1052 13.8512 41.0689 13.8568H41.0666C41.0398 13.6709 40.9863 13.4847 40.9719 13.2976H40.9733L40.9752 13.2971C41.0235 13.2893 41.5129 13.2122 42.1084 13.3267Z" fill="var(--fill-0, #333333)"/>
<path fill-rule="evenodd" clip-rule="evenodd" d="M38.2391 5.63382C38.5888 6.00197 39.079 6.25461 39.5967 6.21382C39.9246 6.18794 40.2483 6.05602 40.5619 5.96584C40.9935 5.84172 41.5262 5.70805 42.1684 5.66245C43.4554 5.5711 45.1435 5.83483 47.3441 7.14755C47.4086 7.16904 47.6151 7.23182 47.8691 7.2593C48.195 7.29451 48.5635 7.26987 48.8532 7.08798C48.984 7.00321 49.1545 7.00142 49.2882 7.08844C49.4277 7.17877 49.4965 7.34578 49.4623 7.50682C49.4334 7.66572 49.4113 7.81755 49.4498 7.97738C49.4842 8.11973 49.5623 8.27852 49.7158 8.47611C51.1602 10.337 51.2626 13.2145 50.566 15.4117L50.5646 15.4158C50.2515 16.3505 49.6954 17.1844 48.9543 17.8342L48.9548 17.8346C48.6306 18.1252 48.2037 18.3361 47.8336 18.5615C47.7776 19.5763 47.6377 20.6241 47.6678 21.6398C47.6874 22.0832 48.0084 22.4611 48.4501 22.5485C48.7525 22.6084 51.8022 23.1138 53.2863 23.4541C54.7271 23.7848 56.1643 24.1905 57.5006 24.8298V25.4615C56.1576 24.7813 54.6803 24.356 53.1594 24.0069C51.7292 23.679 50.2868 23.4045 48.8329 23.1821C48.7833 25.8338 46.8942 28.0919 44.3781 28.8279C42.1086 29.4903 39.306 28.8749 38.1172 26.6026C37.6946 25.7379 37.6719 24.8038 38.0419 23.9076C38.2539 23.3942 38.5833 22.9126 39.0056 22.5204C37.6907 22.5417 36.365 22.5697 35.0546 22.6889L35.594 22.694C36.2225 22.6997 36.729 23.2112 36.729 23.8392V33.9496C36.729 34.5752 36.2039 35.0974 35.5783 35.0948L29.6924 35.0726C28.9979 36.9395 28.5923 38.8866 28.1265 40.9087C27.7103 42.7041 26.6194 44.7154 25.1073 46.0871C25.0048 46.1801 24.8999 46.2698 24.7933 46.3568C24.6267 48.9707 24.2538 51.5799 23.8249 54.1771H23.2495C23.6577 51.7152 24.0151 49.2558 24.1953 46.7969C22.7604 47.742 21.0873 47.988 19.4657 47.4051C16.8391 46.4039 15.959 43.5294 15.6564 41.1289C15.2111 37.3736 15.2168 33.5776 15.9215 29.8521C16.4991 26.8223 17.5422 23.5126 20.6192 21.9575L22.0023 21.2657C22.8301 20.8479 23.8153 21.1907 24.2641 21.981L24.265 21.9829C24.3656 22.1743 24.4274 22.3827 24.4502 22.5966L31.4065 22.6571C32.9191 22.3439 34.4609 22.1287 36.004 22.0475C37.2428 21.9823 38.4584 21.9584 39.6845 21.9441C39.7543 21.5793 39.7956 21.2517 39.8225 20.9956C39.8386 20.8432 39.8467 20.7436 39.8558 20.6492C39.3428 20.4076 38.8994 20.0409 38.5342 19.6047C37.8186 18.75 37.3852 17.6151 37.2744 16.5726C37.0952 14.8802 37.4309 13.1536 37.9269 11.5765L37.9278 11.5733C37.984 11.4017 38.0384 11.2289 38.1038 11.0607C37.0054 10.4892 36.3305 9.32186 36.4035 8.06743C36.4225 7.72492 36.4956 7.39482 36.5748 7.06258C36.7021 7.08973 36.8443 7.1422 36.9761 7.1337C37.202 7.12905 37.3935 6.95771 37.4333 6.73841L37.7537 4.99609C37.9112 5.20955 38.0559 5.4409 38.2391 5.63382ZM23.7626 22.247C23.4729 21.7073 22.8045 21.4961 22.2572 21.7727L20.8746 22.4636L20.875 22.464C18.0615 23.8861 17.0553 26.9343 16.4789 29.9579C15.7901 33.5995 15.7505 37.3768 16.2193 41.0569C16.5201 43.4435 17.3692 45.9988 19.6679 46.8749C21.5522 47.5936 23.3112 46.95 24.7259 45.6669C26.1457 44.3788 27.1816 42.4731 27.5737 40.7812C28.0193 38.8469 28.4205 36.9224 29.0879 35.0708L22.4391 35.0458C22.323 35.0411 22.2126 35.0157 22.1099 34.9756C22.174 35.801 22.2887 36.7982 22.4913 37.6771C22.6409 38.3261 22.8336 38.8911 23.075 39.2809L22.5924 39.5796C22.3022 39.1109 22.0929 38.4743 21.9385 37.8045C21.6601 36.5964 21.545 35.2145 21.4961 34.294C21.4719 34.205 21.4643 34.1169 21.4601 34.0253V32.8094L21.8637 32.9974C22.2916 33.1967 22.9321 33.3343 23.4874 33.4217C24.4745 33.5771 25.5622 33.6905 26.4668 33.1719C26.9131 32.9162 27.4966 32.5683 27.5455 31.9971C27.5592 31.6034 27.1673 31.2745 26.7822 31.3442C26.3529 31.4691 25.9148 31.532 25.4693 31.5529C24.606 31.5704 22.5373 31.345 21.7113 31.249L21.7769 30.6857C22.6197 30.7836 24.6418 31.0018 25.4573 30.9854C26.0305 30.9732 26.6492 30.8381 27.1729 30.5979C27.7402 30.3377 28.1434 29.967 28.241 29.4855C28.2659 29.3625 28.2431 29.1583 28.1329 28.9706C28.0283 28.7926 27.8485 28.6355 27.5594 28.5813C27.3181 28.536 26.9728 28.5717 26.5869 28.657C25.966 28.9671 25.3455 29.1151 24.5869 29.183C23.4461 29.2851 22.3635 29.2472 21.3197 28.9457L21.4772 28.4007C22.697 28.7531 23.9896 28.7743 25.2204 28.4626C26.2436 28.1997 27.42 27.762 27.9551 26.7896C28.0755 26.5722 28.0952 26.269 28.005 25.9925C27.7766 25.293 27.1115 25.3499 26.5624 25.6333C25.6992 26.0788 24.9291 26.3662 23.9501 26.4649L23.9496 26.4645C23.1402 26.5547 22.3219 26.5624 21.5109 26.4866C20.9353 26.4691 20.6958 25.7106 21.1586 25.3664L21.1595 25.365C21.1447 24.6893 21.1454 24.0052 21.2182 23.3331C21.2865 22.8954 21.6691 22.5677 22.1209 22.5767H22.1246L22.126 22.5763L22.1256 22.5767L23.8785 22.592C23.8585 22.4719 23.8196 22.3554 23.7626 22.247ZM22.1117 23.1438C21.9344 23.1393 21.7849 23.2766 21.7751 23.4541C21.7306 24.2701 21.6559 25.1242 21.764 25.9385C22.4748 25.9923 23.1816 25.9664 23.89 25.9006L23.8933 25.9002C24.8074 25.8079 25.4994 25.5432 26.3019 25.129C26.7325 24.9068 27.186 24.7742 27.6656 24.9L27.6665 24.9004C28.1205 25.0392 28.4134 25.4154 28.5444 25.8166C28.6747 26.2162 28.6607 26.686 28.4516 27.0639C28.2419 27.4445 27.9472 27.7568 27.6079 28.0152C28.1018 28.0874 28.4344 28.3634 28.6224 28.6834C28.7974 28.9814 28.8519 29.3269 28.797 29.5982C28.6635 30.2567 28.1744 30.7093 27.6213 31.0071C27.9341 31.2364 28.1269 31.6105 28.1126 32.0165C28.0465 32.8128 27.3875 33.2983 26.7489 33.6642C25.7269 34.2501 24.5176 34.1584 23.3992 33.9823C22.9794 33.9163 22.4767 33.8169 22.0383 33.6725C22.043 33.8163 22.0489 33.9923 22.0591 34.1925C22.1224 34.3531 22.2751 34.4692 22.4571 34.4788L35.6378 34.5249C35.9294 34.4973 36.1615 34.2413 36.1615 33.9496V23.8392C36.1615 23.5226 35.906 23.2644 35.5889 23.2615L22.1163 23.1438H22.1117ZM39.1188 10.6285C38.9527 10.7395 38.8163 10.889 38.7207 11.064C38.4862 11.5252 38.3627 12.0665 38.2312 12.5643C38.7683 12.5791 39.1749 12.7712 39.4624 12.9928C39.7088 13.1829 39.9055 13.4223 40.0437 13.7003C39.9263 14.423 39.8289 15.1509 39.6923 15.8702L39.6919 15.8721C39.6706 15.9797 40.2089 15.9232 40.2622 15.9159C40.3476 15.9042 40.411 15.8912 40.4224 15.8887H40.4243C40.459 16.0743 40.5051 16.2584 40.5457 16.4428C40.3365 16.4951 40.1074 16.5124 39.8932 16.5042C39.6083 16.4934 39.2806 16.4038 39.1622 16.1154C39.1157 16.002 39.1116 15.8805 39.1349 15.7622C39.2569 15.1127 39.3482 14.4563 39.4522 13.8037C39.3965 13.7193 39.2867 13.5738 39.116 13.4421C38.896 13.2725 38.5659 13.1144 38.0922 13.1323C37.841 14.2508 37.7204 15.3962 37.8387 16.5126C37.9389 17.4554 38.334 18.481 38.9696 19.2403C39.322 19.6611 39.7618 20.0117 40.276 20.2115C40.6452 20.3542 41.0497 20.419 41.4873 20.3818C42.1803 20.3003 42.8565 20.1104 43.4905 19.8194L43.7269 20.3352C43.0376 20.6515 42.3022 20.858 41.5482 20.9462L41.5441 20.9466L41.5395 20.9471C41.1363 20.9818 40.758 20.9443 40.4062 20.8506C40.4001 20.9154 40.3941 20.9865 40.3868 21.0551C40.3493 21.4117 40.2843 21.9112 40.1541 22.4627C39.9066 23.5108 39.4115 24.794 38.3684 25.6273C38.4111 25.8808 38.507 26.1078 38.6187 26.3366C39.6438 28.2937 42.1099 28.8985 44.2187 28.283C46.5415 27.6035 48.2543 25.514 48.2677 23.1022C47.5909 22.9343 47.1116 22.3314 47.1012 21.6342C47.0796 20.736 47.1958 19.8113 47.2453 18.912C46.9751 19.0685 46.7424 19.1978 46.5923 19.2625C46.3587 19.3631 46.1356 19.285 46.0922 19.0237C46.0028 18.486 45.9174 17.9476 45.8225 17.4107C46.1464 17.317 46.4648 17.2164 46.7719 17.075C47.1921 16.8783 47.5503 16.6301 47.7588 16.332C47.9555 16.0507 48.0318 15.7091 47.8659 15.263L47.8655 15.2616C47.8005 15.0843 47.6947 14.9247 47.557 14.7961C47.3814 14.639 47.2322 14.5882 47.1086 14.5841C46.9812 14.58 46.8425 14.6243 46.6893 14.725C46.3723 14.9334 46.0678 15.3323 45.7999 15.7501L45.799 15.752C45.707 15.8935 45.6309 16.0449 45.5732 16.2032L45.0278 16.0545C45.1255 15.5245 45.2274 14.9822 45.3256 14.4396V14.4382C45.4566 13.7381 45.5779 13.0471 45.7071 12.3408L45.708 12.3362C45.7541 12.1046 45.8435 11.8828 45.8733 11.6476V11.6463C45.7922 11.571 45.5976 11.4191 45.2264 11.2893C44.6646 11.0929 43.6884 10.9445 42.0876 11.2145H42.0867C41.4684 11.3175 40.997 11.2997 40.6224 11.2131C40.2029 11.1161 39.8746 10.8942 39.5325 10.6497C39.3846 10.544 39.2806 10.5238 39.1188 10.6285ZM39.4508 22.882C39.0628 23.2251 38.7587 23.6586 38.5665 24.1242C38.4663 24.3669 38.3977 24.6152 38.3628 24.8612C38.8914 24.3024 39.2309 23.5861 39.4508 22.882ZM47.08 7.65044C44.9546 6.37665 43.3723 6.146 42.2086 6.2286C41.623 6.27019 41.1332 6.39192 40.7184 6.51121C40.3667 6.61236 40.009 6.75048 39.6415 6.77951C38.9553 6.83361 38.4242 6.53357 38.0959 6.27062C38.0439 6.55446 38.0266 6.87402 37.8904 7.1337C37.7214 7.46656 37.3871 7.68187 37.0154 7.69938C36.9931 7.83162 36.9775 7.96503 36.9701 8.09929V8.10021C36.91 9.13265 37.4668 10.0937 38.373 10.5615C38.5723 10.3008 38.8694 10.0429 39.2042 9.98845C39.4738 9.94467 39.6984 10.0713 39.8623 10.1884C40.1423 10.3885 40.4057 10.5803 40.7498 10.6599C41.037 10.7263 41.4316 10.7483 41.9929 10.6548C43.6635 10.373 44.7406 10.5182 45.4138 10.7536C45.9178 10.9299 46.1907 11.1567 46.3074 11.2768C46.4284 11.4015 46.4572 11.5537 46.4362 11.7192C46.4046 11.9686 46.313 12.2021 46.2644 12.447C46.1368 13.1447 46.0141 13.842 45.8835 14.5403L45.8839 14.5407C45.8726 14.6034 45.8607 14.6661 45.8493 14.7287C46.0109 14.5442 46.1872 14.3759 46.3776 14.2507C46.5958 14.1073 46.8489 14.0079 47.1275 14.0171C47.4397 14.0274 47.7025 14.1786 47.9356 14.3736L47.9389 14.3768C48.1442 14.567 48.3012 14.803 48.3974 15.0653C48.5845 15.6091 48.5613 16.1743 48.2238 16.6571C47.9332 17.0727 47.4723 17.3738 47.0125 17.589L47.0112 17.5899C46.8337 17.6716 46.6514 17.7445 46.4662 17.8083C46.5027 18.0314 46.5583 18.3688 46.6006 18.6238C46.805 18.5136 47.0811 18.3539 47.3649 18.1833C47.7714 17.9389 48.1994 17.7022 48.5761 17.4121L48.5784 17.4098C49.2452 16.8258 49.7452 16.0759 50.0266 15.2357C50.6667 13.2128 50.5654 10.6529 49.3852 8.98315C49.1846 8.71255 48.9787 8.44484 48.898 8.11037C48.8656 7.97612 48.8555 7.8443 48.8615 7.71278C48.4924 7.85238 48.1061 7.85541 47.8077 7.82314C47.5852 7.79905 47.2777 7.77153 47.08 7.65044Z" fill="var(--fill-0, #333333)"/>
<path d="M55.1049 38.0151V54.1771H54.5373V43.0024C54.3408 44.5043 54.0898 46.2651 53.7781 48.1661C53.4665 50.0666 53.093 52.1099 52.6542 54.1771H52.0737C52.5207 52.0832 52.9014 50.0076 53.2185 48.0742C53.6832 45.2397 54.013 42.7177 54.227 40.9045C54.4274 39.2063 54.5259 38.1288 54.5373 38.0022C54.5377 37.9981 54.5381 37.995 54.5382 37.9929C54.5383 37.992 54.5387 37.9906 54.5387 37.9906V37.9897L55.1049 38.0151Z" fill="var(--fill-0, #333333)"/>
<path fill-rule="evenodd" clip-rule="evenodd" d="M21.6601 1.53271C23.1064 2.13763 24.5001 2.90798 25.5968 4.04805C26.7152 5.21038 27.4389 6.73509 27.4389 8.36251C27.4098 9.99496 26.6003 11.4573 25.6661 12.7462C25.3533 13.1701 25.0353 13.5872 24.8113 14.0235C24.5896 14.4555 24.4771 14.8763 24.5495 15.3027C24.5939 15.5095 24.6613 15.7057 24.7356 15.9039C24.9274 16.4159 25.0732 16.9654 24.7914 17.4781C24.3831 18.2212 23.6214 17.9633 23.0935 17.5534C21.8045 16.5558 20.1122 16.1689 18.4304 16.102C16.7225 16.0341 15.0217 16.2581 13.3165 16.3066C10.8212 16.3783 8.27117 16.0673 5.94369 15.105L5.94323 15.1046C3.85168 14.2322 1.93399 12.8094 0.667335 10.9042L0.666873 10.9037C0.0123653 9.91492 -0.111697 8.71823 0.0854861 7.58117C0.282684 6.44425 0.804532 5.34111 1.47823 4.51168C2.73319 2.96825 4.53677 1.99358 6.35283 1.31567C11.2887 -0.459845 16.7859 -0.487242 21.6601 1.53271ZM21.4435 2.05729C16.75 0.111991 11.3135 0.0683673 6.5514 1.84718C4.77701 2.50952 3.08152 3.43896 1.91831 4.86957C1.30422 5.62562 0.824884 6.63937 0.644708 7.67814C0.464663 8.71637 0.58702 9.75488 1.13974 10.5902C2.33317 12.3852 4.1532 13.7429 6.16073 14.5804C8.42514 15.4962 10.869 15.8094 13.3004 15.7395C15.0188 15.6907 16.7317 15.4665 18.453 15.535C20.1935 15.6042 22.0208 16.0051 23.4412 17.1046L23.4416 17.105C23.6854 17.2942 24.0735 17.6062 24.2941 17.2052C24.4901 16.8485 24.3349 16.4523 24.2041 16.1029C24.1259 15.8943 24.0332 15.6538 23.9898 15.3978C23.8892 14.8052 24.0539 14.2554 24.3061 13.764C24.5561 13.277 24.9088 12.817 25.2098 12.4091C26.1142 11.1844 26.8439 9.81047 26.8713 8.35743C26.8541 6.86358 26.185 5.52172 25.1877 4.44149C24.1634 3.37677 22.8393 2.6294 21.4449 2.05776L21.4435 2.05729Z" fill="var(--fill-0, #333333)"/>
</g>
<g id="Union">
<path d="M7.34433 6.29236C8.36837 6.2925 9.19882 7.12278 9.19882 8.14685C9.19864 9.17076 8.36825 10.0012 7.34433 10.0013C6.32029 10.0013 5.49002 9.17085 5.48984 8.14685C5.48984 7.1227 6.32018 6.29236 7.34433 6.29236Z" fill="var(--fill-0, #6C6965)"/>
<path d="M13.3394 6.29236C14.3636 6.29236 15.1939 7.1227 15.1939 8.14685C15.1938 9.17085 14.3635 10.0013 13.3394 10.0013C12.3156 10.0011 11.4861 9.1707 11.4859 8.14685C11.4859 7.12285 12.3155 6.2926 13.3394 6.29236Z" fill="var(--fill-0, #6C6965)"/>
<path d="M19.4527 6.29236C20.4769 6.29236 21.3072 7.1227 21.3072 8.14685C21.307 9.17085 20.4768 10.0013 19.4527 10.0013C18.4287 10.0013 17.5984 9.17083 17.5982 8.14685C17.5982 7.12272 18.4286 6.29239 19.4527 6.29236Z" fill="var(--fill-0, #6C6965)"/>
</g>
</g>
</svg>
