<svg preserveAspectRatio="xMidYMid meet" width="100%" height="100%" overflow="visible" style="display: block;" viewBox="0 0 68.9269 72.9945" fill="none" xmlns="http://www.w3.org/2000/svg">
<g id="Illustrasjon">
<path id="Vector" d="M23.4828 0.736992C28.9558 -0.411186 34.645 -0.133111 40.0665 0.987294L40.489 1.07831C49.3424 3.05072 57.16 9.3744 61.6025 17.2448C63.8801 21.2784 65.3254 25.8318 65.4852 30.498C65.5826 33.3292 64.9538 35.933 64.2125 38.4667C63.4658 41.0187 62.6156 43.4724 62.2055 46.1002L62.1751 46.2822L61.7155 46.2064L61.2559 46.1298L61.2847 45.9523C61.7074 43.2469 62.5887 40.6983 63.3182 38.205C64.0533 35.6924 64.6459 33.2063 64.5538 30.5299C64.3998 26.0338 63.0057 21.6253 60.7909 17.703C56.3936 9.91259 48.6099 3.70231 39.8784 1.90052C34.549 0.799175 28.9922 0.533747 23.6739 1.64946C8.09072 4.9162 -1.00584 22.601 3.08838 37.5664C4.60615 43.1137 6.40132 48.5928 8.81198 53.7966L7.96626 54.1888C5.52575 48.9206 3.71486 43.387 2.18956 37.8121C-2.02532 22.4057 7.2992 4.1295 23.4828 0.736992Z" fill="var(--fill-0, #EFEFEF)"/>
<path id="Intersect" d="M19.8505 33.9974C22.2807 33.6222 24.4798 34.0798 26.5822 34.9675C30.8726 36.7851 34.6679 40.3845 38.8721 42.1876C44.5016 44.6002 51.0979 44.5667 57.1025 45.0858C59.3252 45.2783 61.1204 45.8231 62.5758 46.6073V56.9744C62.575 57.2515 62.4289 57.5079 62.1897 57.6487C61.9513 57.7895 61.6561 57.7937 61.413 57.6601C59.3307 56.5217 53.9595 54.5908 41.4578 54.5487C40.0979 54.5438 38.8195 54.5017 37.6304 54.4289C36.119 54.3303 34.7375 54.1852 33.4761 53.9928C33.4342 55.0307 33.3349 56.0659 33.1788 57.0927L16.4639 72.9945H0.452026C0.454786 72.7209 0.458094 72.4464 0.458094 72.1701V72.0669C0.681797 62.8217 3.22732 52.4499 7.50148 44.3743C8.85604 41.808 10.6071 39.2995 12.8238 37.3719C12.8502 37.3525 12.8718 37.3253 12.8974 37.3059C14.8383 35.6388 17.1292 34.4227 19.8505 33.9974Z" fill="var(--fill-0, #6C6965)"/>
<path id="Vector_2" d="M15.8499 16.0672V18.5138H33.6844V16.0672C33.6852 15.8749 33.6743 15.6826 33.6533 15.4915C33.3582 12.5766 30.9007 10.3603 27.971 10.3654H21.5516C20.0386 10.3645 18.5885 10.9649 17.519 12.0344C16.4495 13.1039 15.8491 14.5546 15.8499 16.0672Z" fill="var(--fill-0, #2E2E2E)"/>
<path id="Vector_3" d="M17.1687 22.0505C17.6425 23.5869 17.8833 25.1855 17.8848 26.7934C21.3909 26.7934 22.0503 25.0841 21.7808 23.7339C21.4794 22.2332 21.9307 20.1391 24.0231 19.8383C26.1155 19.5375 25.5252 22.8348 25.2767 26.7254C25.2829 27.5622 25.4211 28.3927 25.686 29.1866C26.079 30.3843 26.9031 31.3934 27.9982 32.0181C29.0421 32.5965 30.2211 32.8883 31.4149 32.8639C31.4149 32.8639 33.4608 27.775 32.0324 27.3544C30.6048 26.934 27.3225 23.2827 28.0689 18.784C28.0852 18.6853 28.1015 18.598 28.1225 18.509H16.6491C16.6235 19.7102 16.799 20.9072 17.1687 22.0505Z" fill="var(--fill-0, #F07C14)"/>
<g id="Intersect_2">
<path d="M31.2136 22.3897C31.5183 22.1775 31.9119 22.2156 32.0927 22.4747C32.2734 22.7341 32.173 23.1172 31.8682 23.3295C31.5633 23.5418 31.1698 23.5032 30.9891 23.2438C30.8085 22.9844 30.9089 22.6021 31.2136 22.3897Z" fill="var(--fill-0, black)"/>
<path fill-rule="evenodd" clip-rule="evenodd" d="M24.7671 9.0979C25.3028 9.0979 25.7618 9.42796 25.9519 9.89811H28.0188C29.656 9.89685 31.227 10.546 32.3847 11.7033C33.5431 12.8607 34.1944 14.4311 34.1945 16.0685V18.0481H40.1054V18.9796H33.772C33.625 20.0073 33.5614 20.9691 33.593 21.8133C33.6259 22.6922 33.7868 23.5106 34.1528 24.308C34.5223 25.1844 34.4106 26.0605 33.615 26.6419C33.3135 26.8621 32.9639 27.0123 32.6714 27.2449C32.9247 27.5535 32.999 27.9745 33.0059 28.3849C33.0344 30.0905 32.3665 31.7521 31.7362 33.3105C30.536 33.4009 29.2987 33.1665 28.2122 32.6514L27.2269 34.7342C31.4264 36.6401 34.8282 39.9429 39.0716 41.7594C44.6123 44.1333 51.0901 44.0972 57.1587 44.6219C59.2936 44.8068 61.0623 45.3106 62.5258 46.0471C65.9639 47.8382 67.9396 51.1313 68.6142 54.8783C69.1991 58.1271 68.8295 61.2459 68.5831 62.7014C68.4629 63.4158 67.844 63.9378 67.1208 63.937C66.3259 63.9382 65.641 63.2386 65.6432 62.4518V62.4503C65.6482 61.6679 65.6106 60.8857 65.5332 60.1073C64.8989 60.4013 64.3072 60.0986 64.0193 59.471C63.8412 59.0827 63.7432 58.5751 63.7098 58.0495C63.649 57.0908 63.7951 55.919 64.2203 55.0376C63.9049 54.4132 63.5215 53.8518 63.059 53.3886V56.9808C63.0562 57.9133 62.0216 58.5221 61.2045 58.0738C59.3263 57.0473 54.5034 55.271 43.4603 55.0436C45.1167 55.901 46.4771 57.3169 47.1852 59.2639L52.2042 72.9941H51.2113L46.3092 59.584C44.5034 54.618 37.6755 53.4694 33.7629 57.1955L17.1556 72.9941H15.8032L32.7564 56.8663C32.8763 56.0455 32.9576 55.2196 33.0029 54.3913C27.861 53.5646 24.7447 52.0623 22.8952 50.7217C21.0368 49.3747 20.4662 48.1941 20.421 48.086L20.4194 48.0845C20.4195 48.0409 21.2356 47.6704 21.2728 47.7075C21.3055 47.7771 21.7995 48.7765 23.4421 49.967C25.1993 51.2407 28.2878 52.7435 33.5619 53.5365H33.5634C35.7877 53.8768 38.3915 54.0709 41.4768 54.0879C53.2322 54.1276 58.7641 55.8309 61.2045 57.0248C61.4386 57.1458 62.1229 57.5376 62.1268 56.9793L62.1276 46.8898C60.7789 46.2074 59.1213 45.7272 57.0783 45.5503C51.1409 45.0369 44.4257 45.0677 38.7045 42.6165C34.3122 40.7361 30.7992 37.3043 26.4169 35.3971C24.381 34.534 22.2617 34.0987 19.9378 34.4574L19.9386 34.4581C17.3169 34.8679 15.1035 36.0392 13.2168 37.6597C10.9888 39.578 9.31482 42.0217 7.92779 44.5924C3.31964 53.2991 0.995539 63.1568 0.932191 72.9941H0C0.063423 63.0054 2.4251 52.9968 7.10407 44.1562C8.47179 41.5701 10.2458 39.0194 12.5099 37.0408C12.9608 36.6034 13.4539 36.211 13.9806 35.8697C16.0247 34.492 17.3635 32.0969 17.3635 29.6167L17.4219 26.7951C17.3914 25.23 17.188 23.6886 16.7233 22.1887C16.3904 21.1498 16.2093 20.0685 16.1855 18.9796H15.4263V16.0685C15.4256 14.4316 16.0744 12.8609 17.233 11.7033C18.3906 10.5459 19.9609 9.89685 21.5981 9.89811H23.5824C23.7725 9.42796 24.2315 9.0979 24.7671 9.0979ZM63.059 52.1614C63.9892 52.8469 64.6705 53.7984 65.1616 54.8381C65.7965 56.1963 66.1588 57.6514 66.3577 59.1342C66.5096 60.2342 66.5817 61.3437 66.5746 62.4541C66.573 63.1071 67.5564 63.1891 67.6646 62.5466C67.9029 61.1394 68.2549 58.1407 67.6972 55.0429C67.1803 52.1721 65.8929 49.2678 63.059 47.4268V52.1614ZM64.7656 56.3255C64.6326 56.9319 64.318 58.9021 65.0152 59.298C65.1258 59.2845 65.256 59.215 65.4035 59.0583C65.2728 58.1543 65.0724 57.2125 64.7656 56.3255ZM33.929 54.5317C33.9019 54.998 33.8629 55.4636 33.813 55.928C34.4467 55.4403 35.134 55.0492 35.8533 54.7546C35.1853 54.6901 34.5436 54.6175 33.929 54.5317ZM24.7641 20.5117C24.6051 20.29 24.3481 20.2629 24.0936 20.2993C23.2186 20.4248 22.7089 20.9096 22.4317 21.5273C22.1324 22.1945 22.126 22.9308 22.2444 23.639L22.2451 23.6413C22.4005 24.4206 22.2965 25.3585 21.5951 26.0957C20.9611 26.762 19.9098 27.186 18.3442 27.2502L18.2957 29.6364C18.2705 31.3511 17.7333 32.9913 16.7908 34.3679C17.7308 33.9879 18.7308 33.7037 19.7952 33.5373C22.1705 33.1707 24.3356 33.5688 26.3683 34.3701L27.4014 32.188C25.6575 30.9999 24.6685 28.7822 24.8142 26.6949C24.9398 24.7036 25.1456 22.9729 25.0667 21.7397C25.0271 21.1205 24.9186 20.7273 24.7641 20.5117ZM17.1192 18.9796C17.1427 19.9609 17.3028 20.9797 17.6138 21.9126C18.0567 23.342 18.3004 24.8244 18.3442 26.3187C19.7453 26.2555 20.5159 25.8771 20.9193 25.4533C21.3549 24.9954 21.4446 24.3973 21.3312 23.8256C21.1632 23.0035 21.1972 22.0022 21.5815 21.1458C21.9761 20.2662 22.7389 19.5524 23.9609 19.377C24.5605 19.291 25.1575 19.4616 25.5211 19.9686C25.8362 20.408 25.9556 21.0262 25.9974 21.6798C26.0811 22.9883 25.8649 24.8443 25.7448 26.7397C25.765 29.0794 26.9184 31.2748 29.2165 32.056C29.9919 32.3195 30.707 32.3831 31.093 32.3958C31.2605 31.9499 31.5802 31.0577 31.8083 30.1522C31.9075 29.7581 31.9859 29.3726 32.0312 29.025C31.1778 29.0574 30.2362 28.7042 29.7224 27.9935L29.7209 27.9912L29.7194 27.9897L30.4794 27.4496C30.8381 27.9167 31.4763 28.1246 32.0457 28.0906C32.0299 28.0031 32.0034 27.8316 31.9015 27.8016C30.5691 27.4094 29.5045 25.9662 28.835 24.8366C27.9239 23.2995 27.2674 21.2533 27.5713 18.9796H17.1192ZM28.5141 18.9796C28.2031 21.0491 28.7892 22.9312 29.6367 24.3611C30.1763 25.2715 30.9016 26.2215 31.8386 26.7587C32.1697 26.3663 32.6595 26.1857 33.0651 25.8894C33.5089 25.5651 33.4987 25.1569 33.2949 24.6728C32.8828 23.7709 32.6987 22.8397 32.6616 21.8482C32.6566 21.7151 32.6531 21.5798 32.6525 21.4424C32.4594 21.4276 32.1474 21.4198 31.8113 21.478C31.2459 21.5761 30.6575 21.8432 30.3315 22.5043L29.4956 22.0916C30.0013 21.0665 30.9192 20.6866 31.652 20.5595C32.0635 20.4882 32.4322 20.4929 32.679 20.5102C32.7074 20.0173 32.7587 19.5049 32.8307 18.9796H28.5141ZM21.5981 10.8295C20.2082 10.8283 18.8749 11.3799 17.8921 12.3625C16.9088 13.345 16.357 14.6786 16.3577 16.0685V18.0481H33.2623V16.0685C33.2622 14.6784 32.7091 13.345 31.7256 12.3625C30.7313 11.3685 29.41 10.866 28.0188 10.8295H21.5981Z" fill="var(--fill-0, black)"/>
</g>
</g>
</svg>
