<svg xmlns="http://www.w3.org/2000/svg" fill="none" viewBox="0 0 80 80">
  <g clip-path="url(#a)">
    <path fill="#fff" d="M0 12C0 5.373 5.373 0 12 0h56c6.627 0 12 5.373 12 12v56c0 6.627-5.373 12-12 12H12C5.373 80 0 74.627 0 68V12Z"/>
    <path fill="#EFEFEF" d="M24.468 7.743c5.473-1.148 11.162-.87 16.583.25l.423.091c8.853 1.973 16.67 8.296 21.113 16.167 2.278 4.033 3.723 8.587 3.883 13.253.097 2.831-.531 5.435-1.273 7.969-.746 2.552-1.597 5.005-2.007 7.633l-.03.182-.46-.076-.46-.076.03-.178c.422-2.705 1.304-5.254 2.033-7.747.735-2.513 1.328-4.999 1.236-7.675-.154-4.496-1.549-8.905-3.763-12.827-4.398-7.79-12.181-14-20.913-15.803-5.33-1.101-10.886-1.366-16.204-.25C9.076 11.921-.021 29.605 4.073 44.571 5.591 50.12 7.386 55.6 9.797 60.802l-.846.393C6.511 55.926 4.7 50.393 3.174 44.818-1.04 29.412 8.284 11.135 24.468 7.743Z"/>
    <path fill="#6C6965" d="M20.835 41.003c2.43-.375 4.63.082 6.732.97 4.29 1.818 8.086 5.417 12.29 7.22 5.63 2.413 12.226 2.38 18.23 2.898 2.223.193 4.018.737 5.474 1.522V63.98a.784.784 0 0 1-1.163.686c-2.082-1.139-7.454-3.07-19.955-3.112a66.702 66.702 0 0 1-3.828-.12 48.65 48.65 0 0 1-4.154-.436 28.197 28.197 0 0 1-.297 3.1L17.449 80H1.437c.003-.274.006-.548.006-.824v-.104c.224-9.245 2.77-19.617 7.043-27.692 1.355-2.567 3.106-5.075 5.323-7.003.026-.019.048-.046.073-.066 1.941-1.667 4.232-2.883 6.954-3.308Z"/>
    <path fill="#2E2E2E" d="M16.835 23.073v2.447h17.834v-2.447a5.701 5.701 0 0 0-5.713-5.702h-6.42a5.697 5.697 0 0 0-5.701 5.702Z"/>
    <path fill="#F07C14" d="M18.153 29.056c.474 1.537.715 3.135.716 4.743 3.506 0 4.166-1.71 3.896-3.06-.3-1.5.15-3.594 2.243-3.895 2.092-.3 1.502 2.996 1.253 6.887.007.837.145 1.667.41 2.461a5.085 5.085 0 0 0 2.312 2.832 6.763 6.763 0 0 0 3.417.846s2.045-5.09.617-5.51c-1.428-.42-4.71-4.072-3.963-8.57.016-.099.032-.186.053-.275H17.634c-.026 1.2.15 2.398.52 3.541Z"/>
    <path fill="#000" d="M32.199 29.395c.304-.212.698-.174.879.085.18.26.08.643-.225.855-.305.212-.698.174-.88-.086-.18-.259-.08-.641.226-.854Z"/>
    <path fill="#000" fill-rule="evenodd" d="M25.752 16.104c.536 0 .995.33 1.185.8h2.067a6.169 6.169 0 0 1 6.175 6.17v1.98h5.911v.931h-6.333c-.147 1.028-.21 1.99-.18 2.834.034.879.195 1.697.56 2.495.37.876.258 1.752-.537 2.334-.302.22-.651.37-.944.602.254.31.328.73.335 1.14.028 1.706-.64 3.368-1.27 4.926a7.07 7.07 0 0 1-3.524-.659l-.985 2.083c4.2 1.906 7.601 5.209 11.845 7.025 5.54 2.374 12.018 2.338 18.087 2.863 2.135.184 3.903.688 5.367 1.425 3.438 1.79 5.413 5.084 6.088 8.83.585 3.25.215 6.368-.031 7.824a1.481 1.481 0 0 1-1.462 1.236c-.795 0-1.48-.699-1.478-1.486v-.001a22.273 22.273 0 0 0-.11-2.343c-.634.294-1.226-.009-1.514-.636-.178-.389-.276-.896-.31-1.422-.06-.959.086-2.13.511-3.012a6.399 6.399 0 0 0-1.161-1.649v3.592c-.003.933-1.038 1.542-1.855 1.093-1.878-1.026-6.7-2.802-17.744-3.03 1.657.858 3.017 2.274 3.725 4.22L53.19 80h-.993l-4.902-13.41c-1.806-4.965-8.634-6.114-12.546-2.388L18.14 80h-1.353L33.74 63.872c.12-.82.201-1.647.247-2.475-5.142-.827-8.258-2.33-10.108-3.67-1.858-1.347-2.429-2.527-2.474-2.635l-.002-.002c0-.044.817-.414.854-.377.032.07.526 1.07 2.169 2.26 1.757 1.273 4.846 2.776 10.12 3.57h.001c2.225.34 4.828.534 7.914.55 11.755.04 17.287 1.743 19.727 2.937.234.121.919.513.923-.045v-10.09c-1.348-.682-3.006-1.162-5.049-1.34-5.937-.512-12.652-.482-18.374-2.933-4.392-1.88-7.905-5.312-12.287-7.22-2.036-.862-4.155-1.298-6.48-.939h.001c-2.621.41-4.835 1.582-6.721 3.202-2.228 1.919-3.902 4.362-5.29 6.933C4.305 60.305 1.98 70.162 1.918 80H.985c.063-9.989 2.425-19.998 7.104-28.838 1.368-2.586 3.142-5.137 5.406-7.116a9.66 9.66 0 0 1 1.47-1.17c2.045-1.378 3.383-3.773 3.383-6.254l.059-2.821c-.03-1.565-.234-3.107-.699-4.607a11.33 11.33 0 0 1-.538-3.209h-.759v-2.91a6.166 6.166 0 0 1 6.172-6.171h1.984c.19-.47.65-.8 1.185-.8Zm38.292 43.063c.93.685 1.611 1.637 2.102 2.677.635 1.358.998 2.813 1.197 4.296a23.2 23.2 0 0 1 .216 3.32c-.001.653.982.735 1.09.092.239-1.407.59-4.406.033-7.504-.517-2.87-1.804-5.775-4.638-7.616v4.735Zm1.707 4.164c-.133.606-.448 2.577.249 2.973.11-.014.24-.083.388-.24-.13-.904-.33-1.846-.638-2.733Zm-30.837-1.794c-.027.467-.066.932-.116 1.397a8.823 8.823 0 0 1 2.04-1.174 45.946 45.946 0 0 1-1.924-.223Zm-9.165-34.02c-.159-.221-.416-.248-.67-.212-.876.125-1.385.61-1.662 1.228-.3.667-.306 1.403-.188 2.112l.001.002c.155.78.051 1.717-.65 2.454-.634.667-1.685 1.09-3.25 1.155l-.05 2.386a8.597 8.597 0 0 1-1.504 4.731c.94-.38 1.94-.664 3.004-.83 2.375-.367 4.54.031 6.573.833l1.033-2.182c-1.744-1.189-2.733-3.406-2.587-5.493.126-1.992.331-3.723.253-4.956-.04-.619-.148-1.012-.303-1.228Zm-7.645-1.532c.024.982.184 2 .495 2.933.442 1.43.686 2.912.73 4.406 1.401-.063 2.172-.441 2.575-.865.436-.458.526-1.056.412-1.628-.168-.822-.134-1.823.25-2.68.395-.88 1.158-1.593 2.38-1.768.6-.086 1.196.084 1.56.591.315.44.434 1.058.476 1.711.084 1.309-.132 3.165-.252 5.06.02 2.34 1.173 4.535 3.471 5.317.776.263 1.49.327 1.877.34.167-.447.487-1.339.715-2.244.1-.394.178-.78.223-1.127-.853.032-1.795-.321-2.309-1.032l-.001-.002-.002-.002.76-.54c.359.467.997.675 1.567.641-.016-.087-.043-.259-.145-.289-1.332-.392-2.397-1.835-3.066-2.965-.911-1.537-1.568-3.583-1.264-5.857H18.104Zm11.395 0c-.311 2.07.275 3.952 1.123 5.382.54.91 1.265 1.86 2.202 2.397.33-.392.82-.573 1.226-.869.444-.324.434-.733.23-1.217-.412-.902-.596-1.833-.634-2.824a12.488 12.488 0 0 1-.009-.406 3.486 3.486 0 0 0-.84.036c-.566.098-1.155.365-1.48 1.026l-.837-.413c.506-1.025 1.424-1.405 2.157-1.532.411-.071.78-.067 1.027-.05.028-.492.08-1.005.152-1.53h-4.317Zm-6.916-8.15a5.235 5.235 0 0 0-5.24 5.24v1.979h16.904v-1.98a5.24 5.24 0 0 0-1.537-3.706c-.994-.994-2.315-1.496-3.706-1.533h-6.421Z" clip-rule="evenodd"/>
    <rect width="16" height="16" x="56" y="8" fill="#EE7C22" rx="2"/>
    <path fill="#fff" d="M65.966 10.348c0-.477.546-.681 1.109-.681.544 0 1.107.204 1.107.681v7.978c0 2.847-1.807 3.905-4.091 3.905-2.3 0-4.091-1.058-4.091-3.905v-7.978c0-.477.546-.681 1.108-.681.545 0 1.108.204 1.108.681v7.978c0 1.33.699 1.96 1.875 1.96 1.177 0 1.875-.63 1.875-1.96v-7.978Z"/>
  </g>
  <defs>
    <clipPath id="a">
      <path fill="#fff" d="M0 12C0 5.373 5.373 0 12 0h56c6.627 0 12 5.373 12 12v56c0 6.627-5.373 12-12 12H12C5.373 80 0 74.627 0 68V12Z"/>
    </clipPath>
  </defs>
</svg>
