<svg xmlns="http://www.w3.org/2000/svg" fill="none" viewBox="0 0 80 80">
  <g clip-path="url(#a)">
    <path fill="#fff" d="M0 12C0 5.373 5.373 0 12 0h56c6.627 0 12 5.373 12 12v56c0 6.627-5.373 12-12 12H12C5.373 80 0 74.627 0 68V12Z"/>
    <path fill="#FAD7B7" d="M62.339 48.05c-1.216.657-1.967 2.05-1.836 3.279.023.262.09.518.198.758 1.039 2.282 3.774 2.956 6.033 2.292 2.512-.732 4.359-3.043 4.248-5.701 1.574.23 3.132.523 4.675.878 1.504.346 2.985.77 4.343 1.448V80h-2.745V63.84c0 .002-.706 7.917-2.461 16.16h-28.96c.562-3.481 1.026-6.603 1.112-7.908-1.387 1.067-3.075 1.56-4.88.874-2.463-.94-3.327-3.654-3.628-6.047a36.641 36.641 0 0 1-.072-8.984c.348.773 1.769 3.123 6.174 2.505a.74.74 0 0 0 .407.146l13.065.05a.864.864 0 0 0 .864-.865V49.662a.859.859 0 0 0-.853-.86l-4.145-.035a31.44 31.44 0 0 1 4.57-.61h.087c1.012-.067 2.783-.096 3.804-.106Z"/>
    <path fill="#6C6965" d="M58.091 48.801a.862.862 0 0 1 .854.861v10.11a.863.863 0 0 1-.865.862l-13.13-.048a.737.737 0 0 1-.706-.737v-.772c.925.432 2.668.567 2.698.57.628-.017 1.621-.093 2.166-.406.498-.285 1.127-.696 1.213-1.318a.918.918 0 0 0-.78-1.033.825.825 0 0 0-.327 0c.834-.245 1.643-.726 1.805-1.526a1.098 1.098 0 0 0-.907-1.239c-.404-.076-.978.037-1.511.187.845-.308 1.676-.788 2.102-1.562.33-.595.067-1.545-.62-1.755-.793-.24-1.527.55-2.246.75a8.735 8.735 0 0 1-1.416.261 11.547 11.547 0 0 1-2.313.026l-.104-.101c-.109-.52-.055-1.881-.012-2.67a.613.613 0 0 1 .627-.578l13.472.118Z"/>
    <path fill="#6C6965" d="m47.142 54.998-.273-.265c.31-.038.618-.095.922-.172l.105-.029-.754.466Z"/>
    <path fill="#F07C14" d="M59.183 33.901a2.886 2.886 0 0 0 1.796 2.84c.118-.216.287-.4.493-.537.87-.563.714.94 3.075.544 3.272-.552 4.106.588 4.106.588.072.1-.13.75-.16.87-.131.698-.262 1.393-.381 2.097-.077.428-.155.851-.234 1.273.06-.058.123-.112.189-.162.538-.839 1.326-1.78 2.185-1.012.172.16.305.359.385.58.394 1.069-.359 1.756-1.239 2.168-.232.14-.479.255-.736.342l.223 1.35c.019.11 2.203-1.237 2.386-1.401a4.9 4.9 0 0 0 .751-1.443c.68-2.143.564-4.913-.803-6.675-.34-.437-.113-.689-.015-1.114a.115.115 0 0 0-.05-.12.115.115 0 0 0-.13.001c-.738.463-2.072-.01-2.072-.01-4.328-2.6-6.545-.992-7.606-.91a1.85 1.85 0 0 1-1.208-.344.75.75 0 0 1-.656.411l-.042.226a.749.749 0 0 1-.257.438Z"/>
    <path fill="#333" d="M61.925 43.096c.264.534.97.777 1.618.436l.264.502c-.899.473-1.97.165-2.39-.686l.508-.252Zm2.362-2.274c.225-.007.413.209.421.48.008.273-.168.5-.393.505-.225.007-.414-.209-.422-.481-.008-.272.168-.498.394-.504Zm-3.082-.828c.225-.007.413.209.421.48.008.273-.169.5-.394.506-.225.006-.414-.21-.421-.482-.008-.272.168-.498.394-.504Zm3.403-.844c.616.118 1.367.453 1.781 1.316l-.512.245c-.31-.646-.866-.906-1.376-1.004a3.032 3.032 0 0 0-.933-.027h-.002c-.027-.186-.08-.372-.095-.56h.004a3.466 3.466 0 0 1 1.133.03Z"/>
    <path fill="#333" fill-rule="evenodd" d="M60.739 31.457c.35.368.84.62 1.357.58.328-.026.652-.158.965-.248a7.629 7.629 0 0 1 1.607-.303c1.287-.092 2.975.172 5.176 1.485.064.021.27.084.525.112.326.035.694.01.984-.172a.4.4 0 0 1 .609.42c-.03.158-.051.31-.013.47.035.142.113.3.266.498 1.445 1.861 1.547 4.739.85 6.936v.004a5.57 5.57 0 0 1-1.611 2.418c-.324.292-.75.502-1.12.728-.057 1.015-.197 2.062-.167 3.078.02.443.34.821.783.909.302.06 3.352.565 4.836.905 1.44.331 2.878.737 4.214 1.376v.632c-1.343-.68-2.82-1.106-4.341-1.455a59.799 59.799 0 0 0-4.327-.825c-.05 2.652-1.938 4.91-4.454 5.646-2.27.663-5.072.047-6.261-2.225-.423-.865-.446-1.799-.076-2.695.212-.514.542-.995.964-1.387-1.315.02-2.64.049-3.95.168l.538.005a1.146 1.146 0 0 1 1.136 1.145v10.11c0 .627-.526 1.149-1.151 1.146l-5.886-.022c-.695 1.867-1.1 3.814-1.566 5.836-.416 1.795-1.507 3.807-3.02 5.178a7.99 7.99 0 0 1-.313.27c-.167 2.614-.54 5.223-.969 7.82h-.575c.408-2.462.766-4.921.946-7.38-1.435.945-3.108 1.191-4.73.608-2.626-1-3.507-3.875-3.81-6.276-.444-3.755-.439-7.551.266-11.277.578-3.03 1.62-6.34 4.698-7.894l1.383-.692c.828-.418 1.813-.075 2.262.715v.002c.101.192.163.4.186.614l6.956.06a30.696 30.696 0 0 1 4.598-.61 89.619 89.619 0 0 1 3.68-.103c.07-.364.111-.692.138-.948.016-.153.024-.252.033-.347a3.918 3.918 0 0 1-1.321-1.044c-.716-.855-1.15-1.99-1.26-3.032-.18-1.693.156-3.42.652-4.996l.001-.003c.056-.172.11-.345.176-.513a3.168 3.168 0 0 1-1.7-2.993 5.69 5.69 0 0 1 .171-1.005c.128.027.27.08.402.07a.482.482 0 0 0 .457-.394l.32-1.743c.158.214.302.445.486.638ZM46.262 48.07a1.13 1.13 0 0 0-1.505-.474l-1.383.69v.001c-2.813 1.422-3.82 4.47-4.396 7.494-.688 3.642-.728 7.42-.26 11.1.302 2.386 1.15 4.941 3.45 5.817 1.884.719 3.643.075 5.057-1.208 1.42-1.288 2.456-3.194 2.848-4.886.446-1.934.847-3.858 1.514-5.71l-6.648-.025a1.019 1.019 0 0 1-.33-.07c.064.825.18 1.822.382 2.701.15.65.342 1.214.584 1.604l-.483.299c-.29-.469-.5-1.106-.654-1.775-.278-1.208-.394-2.59-.442-3.51a1.22 1.22 0 0 1-.036-.27v-1.215l.403.188c.428.199 1.069.337 1.624.424.987.155 2.075.269 2.98-.25.446-.256 1.03-.603 1.078-1.175.014-.393-.378-.722-.763-.653-.43.125-.868.188-1.313.21-.863.017-2.932-.209-3.758-.305l.065-.563c.843.098 2.865.316 3.68.3a4.465 4.465 0 0 0 1.716-.388c.568-.26.97-.63 1.069-1.112a.786.786 0 0 0-.109-.515.81.81 0 0 0-.573-.39c-.241-.045-.587-.009-.973.076-.62.31-1.241.458-2 .526-1.14.102-2.223.064-3.267-.237l.158-.545a7.159 7.159 0 0 0 3.743.062c1.023-.263 2.2-.7 2.735-1.673.12-.218.14-.52.05-.797-.229-.7-.894-.643-1.443-.36-.863.446-1.633.733-2.612.832-.81.09-1.629.098-2.44.022-.575-.018-.815-.776-.352-1.12l.001-.002c-.015-.675-.014-1.36.059-2.032a.896.896 0 0 1 .902-.756h.006l1.752.015a1.147 1.147 0 0 0-.116-.345Zm-1.65.897a.329.329 0 0 0-.337.31c-.045.816-.12 1.67-.011 2.485.71.053 1.417.028 2.126-.038h.003c.914-.093 1.606-.358 2.408-.772.431-.222.884-.355 1.364-.229h.001c.454.14.747.516.878.917.13.4.116.87-.093 1.247a3.06 3.06 0 0 1-.844.951c.494.073.827.349 1.015.669.175.298.23.643.175.914-.134.659-.623 1.112-1.176 1.41a1.2 1.2 0 0 1 .491 1.009c-.066.796-.725 1.281-1.364 1.647-1.022.586-2.23.495-3.35.319a9.002 9.002 0 0 1-1.36-.31c.005.143.01.32.02.52.064.16.217.276.399.286l13.18.046a.587.587 0 0 0 .524-.575v-10.11a.578.578 0 0 0-.573-.578l-13.472-.118h-.005Zm17.006-12.515c-.166.11-.302.26-.398.435-.234.462-.358 1.003-.49 1.5a2.07 2.07 0 0 1 1.232.43c.246.19.443.428.581.706-.117.723-.215 1.451-.351 2.17v.002c-.022.108.516.051.57.044a2.38 2.38 0 0 0 .16-.027h.002c.035.185.08.37.121.554-.209.052-.438.07-.652.062-.285-.011-.613-.1-.731-.39a.61.61 0 0 1-.027-.353c.121-.65.213-1.305.317-1.958a1.525 1.525 0 0 0-.337-.362 1.53 1.53 0 0 0-1.023-.31c-.252 1.12-.372 2.264-.254 3.38.1.944.495 1.97 1.131 2.729.352.42.792.77 1.306.97.37.143.774.208 1.212.171a6.671 6.671 0 0 0 2.003-.562l.236.515a7.239 7.239 0 0 1-2.178.611h-.004l-.005.001a3.281 3.281 0 0 1-1.133-.096c-.006.065-.012.136-.02.204a11.27 11.27 0 0 1-.232 1.408c-.248 1.048-.743 2.331-1.786 3.164.043.254.139.481.25.71 1.025 1.957 3.491 2.562 5.6 1.946 2.323-.68 4.036-2.769 4.05-5.18a1.537 1.537 0 0 1-1.167-1.468c-.022-.899.094-1.823.144-2.723-.27.157-.503.286-.653.35-.234.101-.457.023-.5-.238-.09-.538-.175-1.076-.27-1.613a6.7 6.7 0 0 0 .95-.336c.42-.196.778-.445.986-.743.197-.281.273-.623.107-1.069v-.001a1.203 1.203 0 0 0-.308-.466c-.176-.157-.325-.208-.449-.212a.725.725 0 0 0-.42.141c-.316.209-.62.608-.889 1.025v.002a2.234 2.234 0 0 0-.226.451l-.546-.148c.098-.53.2-1.073.298-1.615v-.002c.131-.7.252-1.39.382-2.097v-.005c.047-.231.136-.453.166-.688v-.002c-.081-.075-.276-.227-.647-.357-.562-.196-1.538-.344-3.139-.074-.619.103-1.09.085-1.465-.002-.42-.097-.748-.319-1.09-.563-.148-.106-.252-.126-.414-.021Zm.332 12.253a3.405 3.405 0 0 0-.884 1.242c-.1.243-.169.491-.204.737.529-.558.868-1.275 1.088-1.979Zm7.63-15.231c-2.126-1.274-3.708-1.505-4.872-1.422a7.07 7.07 0 0 0-1.49.282c-.352.102-.71.24-1.077.269-.686.054-1.217-.246-1.546-.51-.051.285-.069.604-.205.864a1.035 1.035 0 0 1-.875.566 3.598 3.598 0 0 0-.045.4 2.6 2.6 0 0 0 1.403 2.462c.199-.26.496-.519.83-.573.27-.044.495.083.659.2.28.2.543.392.887.471.287.067.682.089 1.243-.005 1.671-.282 2.748-.136 3.421.099.504.176.777.403.894.523a.51.51 0 0 1 .129.442c-.032.25-.124.483-.172.728-.128.698-.25 1.395-.381 2.093v.001c-.01.063-.023.125-.034.188.161-.185.338-.353.528-.478a1.29 1.29 0 0 1 .75-.234c.312.01.575.162.808.357l.003.003c.206.19.363.426.459.689.187.543.164 1.109-.174 1.591-.29.416-.751.717-1.211.932l-.001.001c-.178.082-.36.155-.545.219l.134.815c.205-.11.48-.27.764-.44.407-.245.835-.481 1.212-.772l.002-.002a5.002 5.002 0 0 0 1.448-2.174c.64-2.023.539-4.583-.641-6.253-.2-.27-.407-.538-.488-.872a1.41 1.41 0 0 1-.036-.398c-.37.14-.755.143-1.054.11-.222-.024-.53-.051-.728-.172Z" clip-rule="evenodd"/>
    <path fill="#333" d="M77.604 63.838V80h-.567V68.826a161.71 161.71 0 0 1-.76 5.163A130.94 130.94 0 0 1 75.154 80h-.58c.446-2.094.827-4.17 1.144-6.103.465-2.834.794-5.356 1.008-7.17.2-1.698.3-2.775.31-2.902l.002-.009v-.003l.566.025Z"/>
    <path fill="#333" fill-rule="evenodd" d="M44.16 27.356c1.446.605 2.84 1.375 3.936 2.515 1.119 1.163 1.842 2.687 1.842 4.315-.029 1.632-.838 3.095-1.772 4.383-.313.424-.631.841-.855 1.278-.222.432-.334.853-.262 1.279.044.207.112.403.186.601.192.512.338 1.062.056 1.574-.408.743-1.17.486-1.698.076-1.289-.998-2.981-1.385-4.663-1.452-1.708-.068-3.409.156-5.114.205-2.495.072-5.045-.24-7.373-1.202-2.092-.873-4.01-2.295-5.276-4.2v-.001c-.655-.989-.78-2.185-.582-3.323a6.854 6.854 0 0 1 1.393-3.07c1.255-1.543 3.058-2.517 4.874-3.195 4.936-1.776 10.433-1.803 15.308.217Zm-.217.524c-4.694-1.945-10.13-1.988-14.892-.21-1.774.663-3.47 1.592-4.633 3.023a6.286 6.286 0 0 0-1.274 2.808c-.18 1.039-.057 2.077.495 2.912 1.194 1.796 3.014 3.153 5.021 3.99 2.265.916 4.708 1.23 7.14 1.16 1.718-.05 3.431-.273 5.153-.205 1.74.07 3.567.47 4.988 1.57.244.19.632.501.853.1.196-.356.04-.752-.09-1.102-.079-.209-.171-.449-.215-.705-.1-.592.064-1.142.317-1.634.25-.487.602-.947.903-1.355.905-1.224 1.634-2.598 1.662-4.051-.017-1.494-.687-2.836-1.684-3.916-1.024-1.065-2.348-1.812-3.743-2.384h-.001Z" clip-rule="evenodd"/>
    <path fill="#6C6965" d="M29.844 32.115a1.855 1.855 0 1 1-.001 3.71 1.855 1.855 0 0 1 0-3.71Zm5.995 0a1.855 1.855 0 1 1 0 3.71 1.855 1.855 0 0 1 0-3.71Zm6.113 0a1.855 1.855 0 1 1 0 3.71 1.855 1.855 0 0 1 0-3.71Z"/>
    <rect width="16" height="16" x="8" y="8" fill="#EE7C22" rx="2"/>
    <path fill="#fff" d="M17.966 10.348c0-.477.546-.681 1.109-.681.544 0 1.107.204 1.107.681v7.978c0 2.847-1.807 3.905-4.091 3.905-2.3 0-4.091-1.058-4.091-3.905v-7.978c0-.477.546-.681 1.108-.681.545 0 1.108.204 1.108.681v7.978c0 1.33.699 1.96 1.875 1.96 1.177 0 1.875-.63 1.875-1.96v-7.978Z"/>
  </g>
  <defs>
    <clipPath id="a">
      <path fill="#fff" d="M0 12C0 5.373 5.373 0 12 0h56c6.627 0 12 5.373 12 12v56c0 6.627-5.373 12-12 12H12C5.373 80 0 74.627 0 68V12Z"/>
    </clipPath>
  </defs>
</svg>
