<svg xmlns="http://www.w3.org/2000/svg" fill="none" viewBox="0 0 80 80">
  <g clip-path="url(#a)">
    <path fill="#fff" d="M0 12C0 5.373 5.373 0 12 0h56c6.627 0 12 5.373 12 12v56c0 6.627-5.373 12-12 12H12C5.373 80 0 74.627 0 68V12Z"/>
    <path fill="#FDE5D0" d="M80 80v-9.922c-8.086-2.344-14.61-6.406-26.484-11.758C37.734 51.208 11.25 55.625 0 65.195V80h80Z"/>
    <path fill="#35342D" d="M50.703 23.984a1.172 1.172 0 0 1 2.344 0v48.907a1.172 1.172 0 0 1-2.344 0V23.984Z"/>
    <path fill="#EF7E15" d="M53.047 31.328h16.328l5.234 3.438-5.234 3.515H53.047v-6.953Z"/>
    <path fill="#FFDD93" d="m42.617 41.635 8.086-8.041V40.2l-8.086 8.041-1.992-1.311 1.992-5.296Z"/>
    <path fill="#F6AF73" d="m38.984 25.042 11.72 3.122v5.162l-12.579-3.352-4.219-3.959 5.078-.973Z"/>
    <path fill="#F07C14" d="M9.92 8h12.16C23.136 8 24 8.864 24 9.92v12.16c0 1.056-.864 1.92-1.92 1.92H9.92A1.926 1.926 0 0 1 8 22.08V9.92C8 8.864 8.864 8 9.92 8Z"/>
    <path fill="#fff" d="M13.536 10.624c-.16-.064-.32-.128-.48-.128-.288 0-.512.096-.672.256a.788.788 0 0 0-.288.608v9.248c0 .16.032.32.128.448s.192.224.352.32c.16.064.32.128.48.128.256 0 .48-.096.672-.256a.788.788 0 0 0 .288-.608v-9.248c0-.16-.032-.32-.128-.448s-.192-.256-.352-.32ZM19.68 20l-2.464-4.16 2.24-3.808c.128-.224.192-.48.16-.704 0-.256-.096-.448-.288-.576-.16-.16-.384-.224-.672-.224-.192 0-.352.064-.512.128-.128.096-.256.256-.384.448l-2.752 4.832 2.944 4.96c.128.192.224.352.384.448.16.096.288.16.48.16.256 0 .48-.064.64-.224a.993.993 0 0 0 .288-.576c.032-.224.096-.48-.064-.704Z"/>
  </g>
  <defs>
    <clipPath id="a">
      <path fill="#fff" d="M0 12C0 5.373 5.373 0 12 0h56c6.627 0 12 5.373 12 12v56c0 6.627-5.373 12-12 12H12C5.373 80 0 74.627 0 68V12Z"/>
    </clipPath>
  </defs>
</svg>
