<svg preserveAspectRatio="xMidYMid meet" width="100%" height="100%" overflow="visible" style="display: block;" viewBox="0 0 80 57.1876" fill="none" xmlns="http://www.w3.org/2000/svg">
<g id="Illustrasjon">
<path id="Vector" d="M80 57.1876V47.2657C71.9141 44.9219 65.3906 40.8594 53.5156 35.5078C37.7338 28.3954 11.25 32.8125 0 42.3829V57.1876H80Z" fill="var(--fill-0, #FDE5D0)"/>
<path id="Vector_2" d="M50.7031 1.17187C50.7031 0.524665 51.2278 0 51.875 0C52.5222 0 53.0469 0.524666 53.0469 1.17188V50.0781C53.0469 50.7253 52.5222 51.25 51.875 51.25C51.2278 51.25 50.7031 50.7253 50.7031 50.0781V1.17187Z" fill="var(--fill-0, #35342D)"/>
<path id="Vector_3" d="M53.0469 8.51562H69.375L74.6094 11.9531L69.375 15.4688H53.0469V8.51562Z" fill="var(--fill-0, #EF7E15)"/>
<path id="Vector_4" d="M42.6172 18.8225L50.7031 10.7812V17.3884L42.6172 25.4297L40.625 24.1183L42.6172 18.8225Z" fill="var(--fill-0, #FFDD93)"/>
<path id="Vector_5" d="M38.9844 2.22974L50.7031 5.35167V10.5135L38.125 7.16138L33.9062 3.20323L38.9844 2.22974Z" fill="var(--fill-0, #F6AF73)"/>
</g>
</svg>
