<svg xmlns="http://www.w3.org/2000/svg" fill="none" viewBox="0 0 80 80">
  <path fill="#F4F4F3" d="M0 12C0 5.373 5.373 0 12 0h56c6.627 0 12 5.373 12 12v56c0 6.627-5.373 12-12 12H12C5.373 80 0 74.627 0 68V12Z"/>
  <path fill="#9F67FF" d="M63.942 39.627c.6-7.715-3.49-13.792-9.831-17.35-3.57-1.998-6.834-3.73-10.764-4.743-6.181-1.573-16.625.24-21.34 6.636-4.077 5.53-5.796 10.407-5.995 14.751-.267 5.663 4.063 16.017 9.698 19.495 2.93 1.813 18.676 6.703 27.521 1.706 7.94-4.477 9.991-11.247 10.71-20.495Z"/>
  <path fill="#fff" d="M48.316 46.17c-2.97 0-4.983-2.145-4.983-4.943 0-2.799 2.012-4.944 4.983-4.944 2.97 0 4.982 2.145 4.982 4.944 0 2.811-2.012 4.943-4.982 4.943Zm0 2.759c4.702 0 8.432-3.265 8.432-7.702 0-4.438-3.743-7.703-8.432-7.703-4.703 0-8.433 3.265-8.433 7.703-.013 4.437 3.73 7.702 8.433 7.702Zm-17.81-.067h.332l7.14-15.124h-3.263l-2.731 5.783c-.626 1.306-1.252 3.398-1.252 3.398s-.653-2.119-1.266-3.398l-2.797-5.783h-3.597l7.433 15.124Z"/>
</svg>
