<svg preserveAspectRatio="xMidYMid meet" width="100%" height="100%" overflow="visible" style="display: block;" viewBox="0 0 48 45.3067" fill="none" xmlns="http://www.w3.org/2000/svg">
<g id="Logo">
<path id="Vector" d="M47.9419 22.6274C48.5413 14.912 44.4517 8.83551 38.1107 5.27759C34.5406 3.27876 31.2769 1.54644 27.3471 0.533696C21.166 -1.03872 10.722 0.773556 6.00627 7.16982C1.92994 12.6999 0.211485 17.5771 0.0116652 21.9212C-0.254762 27.5845 4.07468 37.9385 9.70961 41.4165C12.6403 43.2287 28.3861 48.1192 37.2315 43.1221C45.171 38.6447 47.2225 31.8754 47.9419 22.6274Z" fill="var(--fill-0, #9F67FF)"/>
<path id="Vector_2" d="M32.3159 29.1703C29.3453 29.1703 27.3338 27.0249 27.3338 24.2265C27.3338 21.4281 29.3453 19.2827 32.3159 19.2827C35.2866 19.2827 37.2981 21.4281 37.2981 24.2265C37.2981 27.0382 35.2866 29.1703 32.3159 29.1703ZM32.3159 31.9287C37.0184 31.9287 40.7483 28.6639 40.7483 24.2265C40.7483 19.7891 37.0051 16.5243 32.3159 16.5243C27.6135 16.5243 23.8835 19.7891 23.8835 24.2265C23.8702 28.6639 27.6135 31.9287 32.3159 31.9287ZM14.5053 31.862H14.8383L21.9786 16.7375H18.7148L15.984 22.5208C15.3579 23.8267 14.7318 25.9188 14.7318 25.9188C14.7318 25.9188 14.079 23.8001 13.4662 22.5208L10.6687 16.7375H7.07198L14.5053 31.862Z" fill="var(--fill-0, white)"/>
</g>
</svg>
