<svg xmlns="http://www.w3.org/2000/svg" fill="none" viewBox="0 0 80 80">
  <path fill="#EE7C22" d="M0 12C0 5.373 5.373 0 12 0h56c6.627 0 12 5.373 12 12v56c0 6.627-5.373 12-12 12H12C5.373 80 0 74.627 0 68V12Z"/>
  <path fill="#FDFFFF" d="M13 6.86C13 5.28 14.273 4 15.842 4h48.316A2.85 2.85 0 0 1 67 6.86v66.28A2.85 2.85 0 0 1 64.158 76H15.842A2.852 2.852 0 0 1 13 73.14V6.86Z"/>
  <path fill="#FDE9D9" d="M13 6.86C13 5.28 14.273 4 15.842 4h48.316A2.85 2.85 0 0 1 67 6.86v25.75H13V6.86Z"/>
  <path fill="#A0A0A0" d="M36.99 47.002c-.428 0-.802-.095-1.12-.285a1.982 1.982 0 0 1-.738-.792 2.48 2.48 0 0 1-.262-1.157v-.172c0-.444.083-.84.25-1.186a2.01 2.01 0 0 1 .708-.817 1.87 1.87 0 0 1 1.049-.298c.408 0 .75.083 1.028.248.278.162.487.395.629.7.141.304.212.67.212 1.097v.633h-2.702l-.008.025c.01.218.06.413.145.583.087.168.207.3.363.398.155.098.344.147.566.147.236 0 .451-.031.645-.092.197-.062.385-.153.562-.273l.325.708c-.18.151-.41.278-.687.382-.277.1-.6.15-.966.15Zm-.933-2.804h1.623v-.109c0-.19-.027-.355-.083-.495a.686.686 0 0 0-.258-.33.771.771 0 0 0-.445-.118.68.68 0 0 0-.43.138.91.91 0 0 0-.282.37c-.07.153-.116.327-.138.523l.013.021Zm-6.231 2.716v-.688l.608-.125v-4.908l-.654-.125v-.692h1.782v5.725l.558.125v.688h-2.294Zm2.873 0v-.663l.37-.075-.008-.017-.983-1.316.704-.77 1.549 2.028.578.125v.688H32.7Zm-1.25-1.253-.524-.68 1.957-1.835.012-.017-.466-.063v-.687h2.257v.692l-.58.142-2.655 2.448Z"/>
  <path fill="#A0A0A0" d="M26.735 46.914v-.688l.603-.125v-2.905l-.65-.125v-.692h1.7l.05.566.008.096c.113-.243.255-.427.424-.553a.963.963 0 0 1 .6-.193c.075 0 .155.007.241.021.09.011.164.027.225.046l-.129 1.052-.595-.033a.74.74 0 0 0-.446.1.979.979 0 0 0-.295.323v2.297l.603.125v.688h-2.34Zm-4.258 0v-.688l.654-.125v-1.308l-1.81-3.206-.567-.084v-.691h2.348v.691l-.537.076 1.066 2.045.091.188.021-.004.092-.18L25 41.578l-.674-.075v-.691h2.302v.691l-.583.084-1.786 3.118v1.396l.658.125v.688h-2.44ZM59.185 65.51c.392 0 .71.32.71.716a.713.713 0 0 1-.71.714H20.342a.713.713 0 0 1-.71-.714c0-.395.317-.716.71-.716h38.843Zm0-5.245c.392 0 .71.32.71.715a.713.713 0 0 1-.71.715H20.342a.713.713 0 0 1-.71-.715c0-.394.317-.715.71-.715h38.843Zm0-5.722c.392 0 .71.32.71.716a.713.713 0 0 1-.71.715H20.342a.713.713 0 0 1-.71-.715c0-.395.317-.716.71-.716h38.843Z"/>
  <rect width="12" height="12" x="19" y="9" fill="#fff" rx="2"/>
  <path fill="#EE7C22" d="M26.475 10.761c0-.358.41-.511.83-.511.41 0 .832.153.832.511v5.983c0 2.135-1.356 2.929-3.069 2.929-1.725 0-3.068-.794-3.068-2.929v-5.983c0-.358.41-.511.83-.511.41 0 .832.153.832.511v5.983c0 .997.524 1.47 1.406 1.47.883 0 1.407-.473 1.407-1.47v-5.983Z"/>
</svg>
