<svg preserveAspectRatio="xMidYMid meet" width="100%" height="100%" overflow="visible" style="display: block;" viewBox="0 0 54 72" fill="none" xmlns="http://www.w3.org/2000/svg">
<g id="Logo">
<path id="Illustrasjon" d="M0 2.86093C0 1.28088 1.27245 0 2.84211 0H51.1579C52.7275 0 54 1.28088 54 2.86093V69.1391C54 70.7191 52.7275 72 51.1579 72H2.8421C1.27245 72 0 70.7191 0 69.1391V2.86093Z" fill="var(--fill-0, #FDFFFF)"/>
<path id="Illustrasjon_2" d="M0 2.86093C0 1.28088 1.27245 0 2.84211 0H51.1579C52.7275 0 54 1.28088 54 2.86093V28.6093H0V2.86093Z" fill="var(--fill-0, #FDE9D9)"/>
<g id="Vector">
<path d="M23.9891 43.0019C23.5617 43.0019 23.1884 42.9069 22.8692 42.7169C22.5528 42.5241 22.3071 42.2601 22.1323 41.9249C21.9574 41.5868 21.87 41.2012 21.87 40.7682V40.5964C21.87 40.1521 21.9533 39.7568 22.1198 39.4104C22.2891 39.0639 22.525 38.7915 22.8275 38.5932C23.1301 38.3948 23.4798 38.2956 23.8767 38.2956C24.2847 38.2956 24.6274 38.378 24.905 38.5429C25.1825 38.7049 25.3921 38.9382 25.5336 39.2427C25.6752 39.5473 25.746 39.9133 25.746 40.3407V40.9735H23.044L23.0357 40.9987C23.0468 41.2166 23.0954 41.4108 23.1814 41.5812C23.2675 41.7488 23.3882 41.8816 23.5436 41.9793C23.699 42.0771 23.8878 42.126 24.1098 42.126C24.3457 42.126 24.5608 42.0953 24.7551 42.0338C24.9522 41.9724 25.1395 41.8816 25.3172 41.7614L25.6419 42.4697C25.4615 42.6205 25.2325 42.7477 24.955 42.851C24.6774 42.9516 24.3554 43.0019 23.9891 43.0019ZM23.0565 40.1982H24.6802V40.0893C24.6802 39.8993 24.6524 39.7345 24.5969 39.5948C24.5414 39.4523 24.4554 39.3419 24.3388 39.2637C24.225 39.1855 24.0765 39.1463 23.8933 39.1463C23.7268 39.1463 23.5839 39.1924 23.4645 39.2846C23.3452 39.374 23.2508 39.497 23.1814 39.6534C23.112 39.8071 23.0662 39.9817 23.044 40.1773L23.0565 40.1982Z" fill="var(--fill-0, #A0A0A0)"/>
<path d="M16.826 42.9139V42.2266L17.4338 42.1009V37.1934L16.7802 37.0677V36.3762H18.5621V42.1009L19.1199 42.2266V42.9139H16.826ZM19.6986 42.9139V42.2517L20.0691 42.1763L20.0608 42.1595L19.0783 40.8436L19.7819 40.0725L21.3306 42.1009L21.9093 42.2266V42.9139H19.6986ZM18.4496 41.6608L17.9251 40.9819L19.8818 39.1463L19.8943 39.1296L19.428 39.0667V38.3794H21.6845V39.0709L21.1058 39.2134L18.4496 41.6608Z" fill="var(--fill-0, #A0A0A0)"/>
<path d="M13.7345 42.9139V42.2266L14.3382 42.1009V39.1966L13.6887 39.0709V38.3794H15.3873L15.4373 38.9452L15.4456 39.0416C15.5594 38.7985 15.701 38.6141 15.8703 38.4884C16.0396 38.3599 16.2394 38.2956 16.4698 38.2956C16.5447 38.2956 16.6252 38.3026 16.7112 38.3166C16.8001 38.3277 16.875 38.3431 16.9361 38.3627L16.807 39.4146L16.2117 39.381C16.0312 39.3727 15.8828 39.4062 15.7662 39.4816C15.6524 39.557 15.5539 39.6646 15.4706 39.8043V42.1009L16.0743 42.2266V42.9139H13.7345Z" fill="var(--fill-0, #A0A0A0)"/>
<path d="M9.47737 42.9139V42.2266L10.131 42.1009V40.7933L8.31998 37.5874L7.75378 37.5036V36.8121H10.1019V37.5036L9.56479 37.579L10.6306 39.6241L10.7222 39.8127L10.743 39.8085L10.8346 39.6283L12.0003 37.579L11.3258 37.5036V36.8121H13.6281V37.5036L13.0453 37.5874L11.2592 40.7053V42.1009L11.917 42.2266V42.9139H9.47737Z" fill="var(--fill-0, #A0A0A0)"/>
</g>
<g id="Union">
<path d="M46.1846 61.5098C46.5768 61.51 46.8945 61.8307 46.8945 62.2256C46.8943 62.6203 46.5767 62.9402 46.1846 62.9404H7.3418C6.94969 62.9403 6.63209 62.6203 6.63184 62.2256C6.63184 61.8307 6.94953 61.5099 7.3418 61.5098H46.1846Z" fill="var(--fill-0, #A0A0A0)"/>
<path d="M46.1846 56.2646C46.5768 56.2648 46.8945 56.5856 46.8945 56.9805C46.8943 57.3752 46.5767 57.6951 46.1846 57.6953H7.3418C6.94965 57.6951 6.63202 57.3752 6.63184 56.9805C6.63184 56.5856 6.94953 56.2648 7.3418 56.2646H46.1846Z" fill="var(--fill-0, #A0A0A0)"/>
<path d="M46.1846 50.543C46.5768 50.5432 46.8945 50.8639 46.8945 51.2588C46.8943 51.6535 46.5767 51.9734 46.1846 51.9736H7.3418C6.94969 51.9735 6.63209 51.6535 6.63184 51.2588C6.63184 50.8639 6.94953 50.5431 7.3418 50.543H46.1846Z" fill="var(--fill-0, #A0A0A0)"/>
</g>
<rect id="Vector_2" x="6" y="5" width="12" height="12" rx="2" fill="var(--fill-0, white)"/>
<path id="Vector_3" d="M13.4747 6.76116C13.4747 6.40316 13.8841 6.25 14.3059 6.25C14.7145 6.25 15.1367 6.40316 15.1367 6.76116V12.7443C15.1367 14.8793 13.7809 15.6727 12.0681 15.6727C10.3428 15.6727 9 14.8793 9 12.7443V6.76116C9 6.40316 9.40932 6.25 9.83076 6.25C10.2397 6.25 10.6619 6.40316 10.6619 6.76116V12.7443C10.6619 13.7415 11.186 14.2143 12.0681 14.2143C12.9507 14.2143 13.4747 13.7415 13.4747 12.7443L13.4747 6.76116Z" fill="var(--fill-0, #EE7C22)"/>
</g>
</svg>
